<?xml version="1.0" encoding="UTF-8"?>
<svg id="Layer_1" data-name="Layer 1" xmlns="http://www.w3.org/2000/svg" viewBox="0 0 50 50">
  <defs>
    <style>
      .cls-1 {
        fill: none;
        stroke: #000;
        stroke-linecap: round;
        stroke-linejoin: round;
        stroke-width: 3.4px;
      }
    </style>
  </defs>
  <path class="cls-1" d="M21.28,7.93c.95-3.9,6.5-3.9,7.44,0,.5,2.06,2.57,3.32,4.63,2.82.39-.09.75-.25,1.09-.45,3.43-2.09,7.36,1.84,5.27,5.27-1.1,1.81-.53,4.16,1.28,5.26.34.21.7.36,1.09.45,3.9.95,3.9,6.5,0,7.44-2.06.5-3.32,2.57-2.82,4.63.09.39.25.75.45,1.09,2.09,3.43-1.84,7.36-5.27,5.27-1.81-1.1-4.16-.53-5.26,1.28-.21.34-.36.7-.45,1.09-.95,3.9-6.5,3.9-7.44,0-.5-2.06-2.57-3.32-4.63-2.82-.39.09-.75.25-1.09.45-3.43,2.09-7.36-1.84-5.27-5.27,1.1-1.81.53-4.16-1.28-5.26-.34-.21-.7-.36-1.09-.45-3.9-.95-3.9-6.5,0-7.44,2.06-.5,3.32-2.57,2.82-4.63-.09-.39-.25-.75-.45-1.09-2.09-3.43,1.84-7.36,5.27-5.27,2.22,1.35,5.1.16,5.72-2.37"/>
  <path class="cls-1" d="M18.33,25c0,3.68,2.98,6.67,6.67,6.67s6.67-2.98,6.67-6.67-2.98-6.67-6.67-6.67-6.67,2.98-6.67,6.67"/>
</svg>