<?xml version="1.0" encoding="UTF-8"?>
<svg id="Layer_1" data-name="Layer 1" xmlns="http://www.w3.org/2000/svg" viewBox="0 0 50 50">
  <defs>
    <style>
      .cls-1 {
        fill: none;
      }

      .cls-1, .cls-2 {
        stroke: #ee2524;
        stroke-linecap: round;
        stroke-linejoin: round;
        stroke-width: 2.9px;
      }

      .cls-3, .cls-2 {
        fill: #fadadd;
      }
    </style>
  </defs>
  <path class="cls-3" d="M33.01,37.7c-2.07,1.19-6.99,4.41-13.91,4.41s-12.03-3.52-14.1-4.7V11.03h28.01v26.67Z"/>
  <path class="cls-2" d="M5,11.67c0,2.38,2.54,4.58,6.67,5.77s9.21,1.19,13.33,0c4.12-1.19,6.67-3.39,6.67-5.77s-2.54-4.58-6.67-5.77-9.21-1.19-13.33,0-6.67,3.39-6.67,5.77"/>
  <path class="cls-1" d="M5,11.67v22.22c0,1.97,2.81,6.54,14.01,6.87"/>
  <path class="cls-1" d="M5,22.78c0,1.97,4.86,7.09,12.47,6.67"/>
  <path class="cls-2" d="M18.33,29.44v8.89c0,3.68,5.97,6.67,13.33,6.67s13.33-2.99,13.33-6.67v-8.89"/>
  <path class="cls-2" d="M18.33,29.44c0,3.68,5.97,6.67,13.33,6.67s13.33-2.98,13.33-6.67-5.97-6.67-13.33-6.67-13.33,2.98-13.33,6.67"/>
  <line class="cls-1" x1="31.67" y1="11.67" x2="31.67" y2="22.78"/>
</svg>