<svg width="24" height="24" viewBox="0 0 24 24" fill="none" xmlns="http://www.w3.org/2000/svg">
<path d="M3.74169 18.5545C4.94131 20 7.17402 20 11.6394 20H12.3606C16.826 20 19.0587 20 20.2584 18.5545M3.74169 18.5545C2.54207 17.1091 2.95353 14.9146 3.77645 10.5257C4.36167 7.40452 4.65428 5.84393 5.76518 4.92196M3.74169 18.5545C3.74169 18.5545 3.74169 18.5545 3.74169 18.5545ZM20.2584 18.5545C21.458 17.1091 21.0465 14.9146 20.2236 10.5257C19.6384 7.40452 19.3458 5.84393 18.2349 4.92196M20.2584 18.5545C20.2583 18.5545 20.2584 18.5545 20.2584 18.5545ZM18.2349 4.92196C17.124 4 15.5362 4 12.3606 4H11.6394C8.46386 4 6.87608 4 5.76518 4.92196M18.2349 4.92196C18.2349 4.92196 18.2349 4.92196 18.2349 4.92196ZM5.76518 4.92196C5.76518 4.92196 5.76518 4.92196 5.76518 4.92196Z" stroke="black" stroke-width="1.5"/>
<path opacity="0.5" d="M9.1709 8C9.58273 9.16519 10.694 10 12.0002 10C13.3064 10 14.4177 9.16519 14.8295 8" stroke="black" stroke-width="1.5" stroke-linecap="round"/>
</svg>
