<svg width="24" height="24" viewBox="0 0 24 24" fill="none" xmlns="http://www.w3.org/2000/svg">
<path d="M3.74157 20.5545C4.94119 22 7.17389 22 11.6393 22H12.3605C16.8259 22 19.0586 22 20.2582 20.5545M3.74157 20.5545C2.54194 19.1091 2.9534 16.9146 3.77633 12.5257C4.36155 9.40452 4.65416 7.84393 5.76506 6.92196M3.74157 20.5545C3.74156 20.5545 3.74157 20.5545 3.74157 20.5545ZM20.2582 20.5545C21.4578 19.1091 21.0464 16.9146 20.2235 12.5257C19.6382 9.40452 19.3456 7.84393 18.2347 6.92196M20.2582 20.5545C20.2582 20.5545 20.2582 20.5545 20.2582 20.5545ZM18.2347 6.92196C17.1238 6 15.5361 6 12.3605 6H11.6393C8.46374 6 6.87596 6 5.76506 6.92196M18.2347 6.92196C18.2347 6.92196 18.2347 6.92196 18.2347 6.92196ZM5.76506 6.92196C5.76506 6.92196 5.76506 6.92196 5.76506 6.92196Z" stroke="black" stroke-width="1.5"/>
<path opacity="0.5" d="M9 6V5C9 3.34315 10.3431 2 12 2C13.6569 2 15 3.34315 15 5V6" stroke="black" stroke-width="1.5" stroke-linecap="round"/>
</svg>
