<svg width="24" height="24" viewBox="0 0 24 24" fill="none" xmlns="http://www.w3.org/2000/svg">
<path d="M2 10C2 7.17157 2 5.75736 2.87868 4.87868C3.75736 4 5.17157 4 8 4H13C15.8284 4 17.2426 4 18.1213 4.87868C19 5.75736 19 7.17157 19 10C19 12.8284 19 14.2426 18.1213 15.1213C17.2426 16 15.8284 16 13 16H8C5.17157 16 3.75736 16 2.87868 15.1213C2 14.2426 2 12.8284 2 10Z" stroke="black" stroke-width="1.5"/>
<path opacity="0.5" d="M19.0003 7.07617C19.9754 7.17208 20.6317 7.38885 21.1216 7.87873C22.0003 8.75741 22.0003 10.1716 22.0003 13.0001C22.0003 15.8285 22.0003 17.2427 21.1216 18.1214C20.2429 19.0001 18.8287 19.0001 16.0003 19.0001H11.0003C8.17187 19.0001 6.75766 19.0001 5.87898 18.1214C5.38909 17.6315 5.17233 16.9751 5.07642 16" stroke="black" stroke-width="1.5"/>
<path d="M13 10C13 11.3807 11.8807 12.5 10.5 12.5C9.11929 12.5 8 11.3807 8 10C8 8.61929 9.11929 7.5 10.5 7.5C11.8807 7.5 13 8.61929 13 10Z" stroke="black" stroke-width="1.5"/>
<path opacity="0.5" d="M16 12L16 8" stroke="black" stroke-width="1.5" stroke-linecap="round"/>
<path opacity="0.5" d="M5 12L5 8" stroke="black" stroke-width="1.5" stroke-linecap="round"/>
</svg>
