<svg width="24" height="24" viewBox="0 0 24 24" fill="none" xmlns="http://www.w3.org/2000/svg">
<path d="M2 12C2 8.22876 2 6.34315 3.17157 5.17157C4.34315 4 6.22876 4 10 4H11.5C15.2712 4 17.1569 4 18.3284 5.17157C19.5 6.34315 19.5 8.22876 19.5 12C19.5 15.7712 19.5 17.6569 18.3284 18.8284C17.1569 20 15.2712 20 11.5 20H10C6.22876 20 4.34315 20 3.17157 18.8284C2 17.6569 2 15.7712 2 12Z" stroke="black" stroke-width="1.5"/>
<path opacity="0.5" d="M20 10C20.9428 10 21.4142 10 21.7071 10.2929C22 10.5858 22 11.0572 22 12C22 12.9428 22 13.4142 21.7071 13.7071C21.4142 14 20.9428 14 20 14V10Z" stroke="black" stroke-width="1.5"/>
<path d="M11.5 9L9 12H12.5L10 15" stroke="black" stroke-width="1.5" stroke-linecap="round" stroke-linejoin="round"/>
</svg>
