<svg width="24" height="24" viewBox="0 0 24 24" fill="none" xmlns="http://www.w3.org/2000/svg">
<path opacity="0.4" d="M19 20V18.5M5 20V18.5" stroke="black" stroke-width="1.5" stroke-linecap="round"/>
<path d="M2 15C2 14.0681 2 13.6022 2.15224 13.2346C2.35523 12.7446 2.74458 12.3552 3.23463 12.1522C3.60218 12 4.06812 12 5 12H19C19.9319 12 20.3978 12 20.7654 12.1522C21.2554 12.3552 21.6448 12.7446 21.8478 13.2346C22 13.6022 22 14.0681 22 15C22 15.9319 22 16.3978 21.8478 16.7654C21.6448 17.2554 21.2554 17.6448 20.7654 17.8478C20.3978 18 19.9319 18 19 18H5C4.06812 18 3.60218 18 3.23463 17.8478C2.74458 17.6448 2.35523 17.2554 2.15224 16.7654C2 16.3978 2 15.9319 2 15Z" stroke="black" stroke-width="1.5"/>
<path d="M21 12C21 8.22876 21 6.34315 19.8284 5.17157C18.6569 4 16.7712 4 13 4H11C7.22876 4 5.34315 4 4.17157 5.17157C3 6.34315 3 8.22876 3 12" stroke="black" stroke-width="1.5"/>
<path opacity="0.4" d="M18.5 12V10.5C18.5 8.61438 18.5 7.67157 17.9142 7.08579C17.3284 6.5 16.3856 6.5 14.5 6.5H9.5C7.61438 6.5 6.67157 6.5 6.08579 7.08579C5.5 7.67157 5.5 8.61438 5.5 10.5V12M12 7V12" stroke="black" stroke-width="1.5"/>
</svg>
