<svg width="24" height="24" viewBox="0 0 24 24" fill="none" xmlns="http://www.w3.org/2000/svg">
<path opacity="0.5" d="M19 22V20.5M5 22V20.5" stroke="black" stroke-width="1.5" stroke-linecap="round"/>
<path d="M13 17C13 17.5523 12.5523 18 12 18C11.4477 18 11 17.5523 11 17C11 16.4477 11.4477 16 12 16C12.5523 16 13 16.4477 13 17Z" fill="black"/>
<path d="M2 10C2 6.22876 2 4.34315 3.17157 3.17157C4.34315 2 6.22876 2 10 2H14C17.7712 2 19.6569 2 20.8284 3.17157C22 4.34315 22 6.22876 22 10V12C22 15.7712 22 17.6569 20.8284 18.8284C19.6569 20 17.7712 20 14 20H10C6.22876 20 4.34315 20 3.17157 18.8284C2 17.6569 2 15.7712 2 12V10Z" stroke="black" stroke-width="1.5"/>
<path opacity="0.4" d="M2 14H22" stroke="black" stroke-width="1.5" stroke-linecap="round"/>
<path opacity="0.4" d="M2 8H22" stroke="black" stroke-width="1.5" stroke-linecap="round"/>
</svg>
