<svg width="24" height="24" viewBox="0 0 24 24" fill="none" xmlns="http://www.w3.org/2000/svg">
<path d="M18.4508 8.27826L19.1984 8.21837L19.1984 8.21837L18.4508 8.27826ZM18.4651 8.46593L19.2136 8.41833L18.4651 8.46593ZM16.6137 12.8996L17.1092 13.4626L17.1092 13.4626L16.6137 12.8996ZM16.7511 12.7777L17.2562 13.3321L17.2562 13.3321L16.7511 12.7777ZM10.0702 8.95774L10.8094 9.08451L10.0702 8.95774ZM10.1026 8.7727L10.8397 8.91165L10.1026 8.7727ZM12.9874 4.98707L13.3182 5.66017L13.3182 5.66017L12.9874 4.98707ZM12.8245 5.068L13.1671 5.73518L12.8245 5.068ZM7.73204 13.4657L7.2062 12.9309L7.2062 12.9309L7.73204 13.4657ZM7.8603 13.3389L8.39225 13.8676L8.39225 13.8676L7.8603 13.3389ZM10.0385 9.13918L10.7763 9.27409L10.0385 9.13918ZM14.0411 17.2663L14.7726 17.432L14.7726 17.432L14.0411 17.2663ZM14.0823 17.087L13.3527 16.9132L14.0823 17.087ZM16.4789 13.0189L16.9809 13.5762L16.4789 13.0189ZM7.65135 20.4123L8.03836 19.7699L8.03835 19.7699L7.65135 20.4123ZM5.46243 18.8097L4.84069 19.2292L5.46243 18.8097ZM6.9476 14.237L7.47343 14.7718L7.47343 14.7718L6.9476 14.237ZM5.17824 16.3159L4.47735 16.049L4.47735 16.049L5.17824 16.3159ZM8.31569 20.8125L7.92868 21.455L7.92868 21.455L8.31569 20.8125ZM10.7404 21.9891L10.6702 22.7359L10.7404 21.9891ZM13.7931 18.3608L13.0617 18.1951L13.0617 18.1951L13.7931 18.3608ZM12.9523 20.9991L13.5501 21.452L12.9523 20.9991ZM18.3395 2.89841L18.7265 2.25597L18.7265 2.25597L18.3395 2.89841ZM18.7506 3.20677L19.3826 2.80305L19.3826 2.80305L18.7506 3.20677ZM18.6267 3.971L19.2829 4.33412L19.2829 4.33412L18.6267 3.971ZM18.8287 3.4985L18.0794 3.46461L18.8287 3.4985ZM16.446 2.72605L15.7898 2.36293L15.7898 2.36293L16.446 2.72605ZM16.7589 2.27843L17.1718 2.90449L16.7589 2.27843ZM17.5588 2.42811L17.1718 3.07055L17.1718 3.07055L17.5588 2.42811ZM17.0641 2.1967L17.109 1.44804L17.0641 2.1967ZM15.6325 4.13931L17.7846 5.43577L18.5586 4.1509L16.4065 2.85443L15.6325 4.13931ZM8.70269 20.1701L8.03836 19.7699L7.26434 21.0548L7.92868 21.455L8.70269 20.1701ZM13.3097 17.1006L13.0617 18.1951L14.5246 18.5265L14.7726 17.432L13.3097 17.1006ZM7.47343 14.7718L8.25788 14.0005L7.2062 12.9309L6.42176 13.7022L7.47343 14.7718ZM13.3182 5.66017L16.3503 4.16997L15.6887 2.82377L12.6566 4.31397L13.3182 5.66017ZM17.424 4.85322L17.7032 8.33815L19.1984 8.21837L18.9192 4.73345L17.424 4.85322ZM16.6757 3.85999L17.1022 3.08917L15.7898 2.36293L15.3632 3.13375L16.6757 3.85999ZM17.1718 3.07055L17.9525 3.54085L18.7265 2.25597L17.9458 1.78568L17.1718 3.07055ZM17.9704 3.60788L17.5154 4.43022L18.8279 5.15646L19.2829 4.33412L17.9704 3.60788ZM17.7032 8.33815C17.711 8.43571 17.7142 8.47603 17.7166 8.51353L19.2136 8.41833C19.2102 8.36564 19.2058 8.3109 19.1984 8.21837L17.7032 8.33815ZM17.1092 13.4626C17.177 13.4029 17.2177 13.3672 17.2562 13.3321L16.2459 12.2233C16.2192 12.2477 16.1901 12.2734 16.1182 12.3366L17.1092 13.4626ZM17.7166 8.51353C17.8068 9.93158 17.2577 11.3015 16.2459 12.2233L17.2562 13.3321C18.614 12.095 19.3318 10.2778 19.2136 8.41833L17.7166 8.51353ZM10.8094 9.08451C10.8259 8.98819 10.8327 8.94845 10.8397 8.91165L9.36562 8.63376C9.35585 8.68558 9.3466 8.73966 9.33094 8.83097L10.8094 9.08451ZM12.6566 4.31397C12.5763 4.35343 12.528 4.37714 12.4819 4.40082L13.1671 5.73518C13.1987 5.71894 13.2331 5.70201 13.3182 5.66017L12.6566 4.31397ZM10.8397 8.91165C11.1019 7.52035 11.9683 6.35073 13.1671 5.73518L12.4819 4.40082C10.856 5.2357 9.71048 6.80449 9.36562 8.63376L10.8397 8.91165ZM8.25788 14.0005C8.32135 13.9381 8.35726 13.9028 8.39225 13.8676L7.32835 12.8102C7.30084 12.8379 7.27207 12.8662 7.2062 12.9309L8.25788 14.0005ZM9.33094 8.83097C9.31502 8.92385 9.30799 8.96477 9.30077 9.00426L10.7763 9.27409C10.7854 9.22458 10.794 9.17421 10.8094 9.08451L9.33094 8.83097ZM8.39225 13.8676C9.62602 12.6262 10.4568 11.0213 10.7763 9.27409L9.30077 9.00426C9.03457 10.4599 8.3439 11.7884 7.32835 12.8102L8.39225 13.8676ZM14.7726 17.432C14.7934 17.3402 14.8026 17.2998 14.8118 17.2608L13.3527 16.9132C13.341 16.9621 13.3297 17.0119 13.3097 17.1006L14.7726 17.432ZM16.1182 12.3366C16.0516 12.3952 16.0138 12.4284 15.977 12.4616L16.9809 13.5762C17.0098 13.5501 17.04 13.5235 17.1092 13.4626L16.1182 12.3366ZM14.8118 17.2608C15.1543 15.8233 15.9137 14.5374 16.9809 13.5762L15.977 12.4616C14.6786 13.6311 13.764 15.1866 13.3527 16.9132L14.8118 17.2608ZM8.03835 19.7699C7.40696 19.3896 6.96744 19.1243 6.64293 18.896C6.32139 18.6698 6.17087 18.5188 6.08417 18.3903L4.84069 19.2292C5.0768 19.5791 5.39871 19.8547 5.7799 20.1229C6.15814 20.3889 6.65167 20.6857 7.26434 21.0548L8.03835 19.7699ZM6.42176 13.7022C5.9085 14.2069 5.49546 14.6124 5.18769 14.9606C4.8776 15.3115 4.62759 15.6545 4.47735 16.049L5.87912 16.5829C5.93538 16.4352 6.04909 16.251 6.31158 15.954C6.57638 15.6545 6.94479 15.2916 7.47343 14.7718L6.42176 13.7022ZM6.08417 18.3903C5.7293 17.8642 5.65061 17.1829 5.87912 16.5829L4.47735 16.049C4.07619 17.1023 4.21119 18.2961 4.84069 19.2292L6.08417 18.3903ZM7.92868 21.455C8.54123 21.824 9.0345 22.1217 9.44478 22.3306C9.85683 22.5404 10.2516 22.6965 10.6702 22.7359L10.8105 21.2424C10.6706 21.2293 10.475 21.1719 10.1254 20.9939C9.774 20.8149 9.33421 20.5505 8.70269 20.1701L7.92868 21.455ZM13.0617 18.1951C12.8947 18.9322 12.7774 19.4481 12.6606 19.8387C12.5444 20.2278 12.4476 20.4232 12.3545 20.5461L13.5501 21.452C13.8038 21.1172 13.9627 20.7204 14.0979 20.2682C14.2325 19.8175 14.3622 19.2432 14.5246 18.5265L13.0617 18.1951ZM10.6702 22.7359C11.7877 22.8408 12.8691 22.3508 13.5501 21.452L12.3545 20.5461C11.9781 21.0429 11.3963 21.2974 10.8105 21.2424L10.6702 22.7359ZM17.9525 3.54085C18.0119 3.57666 18.0573 3.60399 18.0958 3.62803C18.1344 3.65208 18.1571 3.66728 18.1711 3.67732C18.1995 3.69768 18.1593 3.67442 18.1185 3.61048L19.3826 2.80305C19.2787 2.64041 19.149 2.53284 19.0457 2.45865C18.9496 2.3897 18.8321 2.31959 18.7265 2.25597L17.9525 3.54085ZM19.2829 4.33412C19.3426 4.22625 19.4093 4.10682 19.4581 3.99909C19.5106 3.88315 19.5692 3.72518 19.5779 3.53239L18.0794 3.46461C18.0829 3.38883 18.106 3.34861 18.0916 3.38042C18.0845 3.39611 18.0724 3.42065 18.051 3.46074C18.0296 3.50083 18.004 3.54716 17.9704 3.60788L19.2829 4.33412ZM18.1185 3.61048C18.0907 3.56705 18.0771 3.5161 18.0794 3.46461L19.5779 3.53239C19.5895 3.27496 19.5213 3.02022 19.3826 2.80305L18.1185 3.61048ZM17.1022 3.08917C17.1381 3.02433 17.1656 2.97461 17.1899 2.9323C17.2143 2.88995 17.2299 2.86459 17.2405 2.84875C17.2624 2.81592 17.2395 2.85986 17.1718 2.90449L16.3459 1.65236C16.1756 1.7647 16.0664 1.90581 15.9925 2.01655C15.9234 2.12021 15.8537 2.24732 15.7898 2.36293L17.1022 3.08917ZM17.9458 1.78568C17.8326 1.7175 17.7088 1.64219 17.5971 1.58694C17.4778 1.52791 17.3127 1.46026 17.109 1.44804L17.0192 2.94535C16.9383 2.9405 16.8965 2.91387 16.9319 2.93137C16.949 2.93981 16.9752 2.95396 17.0174 2.97849C17.0596 3.003 17.1083 3.03231 17.1718 3.07055L17.9458 1.78568ZM17.1718 2.90449C17.1267 2.93425 17.0732 2.94859 17.0192 2.94535L17.109 1.44804C16.8392 1.43186 16.5715 1.50355 16.3459 1.65236L17.1718 2.90449Z" fill="black"/>
<path opacity="0.5" d="M10 9.49998L11.4523 8.77381C12.3958 8.30207 13.5275 8.42196 14.3512 9.08091C15.0675 9.65397 16.0255 9.82483 16.8957 9.53474L18.5 8.99998" stroke="black" stroke-width="1.5" stroke-linecap="round"/>
</svg>
