<svg width="24" height="24" viewBox="0 0 24 24" fill="none" xmlns="http://www.w3.org/2000/svg">
<path opacity="0.5" d="M3 12C3 15.7712 3 19.6569 4.31802 20.8284C5.63604 22 7.75736 22 12 22C16.2426 22 18.364 22 19.682 20.8284C21 19.6569 21 15.7712 21 12" stroke="black" stroke-width="1.5"/>
<path d="M14.6603 14.2019L20.8579 12.3426C21.2688 12.2194 21.4743 12.1577 21.6264 12.0355C21.7592 11.9288 21.8626 11.7898 21.9266 11.6319C22 11.4511 22 11.2366 22 10.8077C22 9.12027 22 8.27658 21.6703 7.63268C21.3834 7.07242 20.9276 6.61659 20.3673 6.32971C19.7234 6 18.8797 6 17.1923 6H6.80765C5.12027 6 4.27658 6 3.63268 6.32971C3.07242 6.61659 2.61659 7.07242 2.32971 7.63268C2 8.27658 2 9.12027 2 10.8077C2 11.2366 2 11.4511 2.07336 11.6319C2.13743 11.7898 2.24079 11.9288 2.37363 12.0355C2.52574 12.1577 2.73118 12.2194 3.14206 12.3426L9.33968 14.2019" stroke="black" stroke-width="1.5"/>
<path d="M14 12.5H10C9.72386 12.5 9.5 12.7239 9.5 13V15.1615C9.5 15.3659 9.62448 15.5498 9.8143 15.6257L10.5144 15.9058C11.4681 16.2872 12.5319 16.2872 13.4856 15.9058L14.1857 15.6257C14.3755 15.5498 14.5 15.3659 14.5 15.1615V13C14.5 12.7239 14.2761 12.5 14 12.5Z" stroke="black" stroke-width="1.5" stroke-linecap="round"/>
<path opacity="0.5" d="M9.1709 4C9.58273 2.83481 10.694 2 12.0002 2C13.3064 2 14.4177 2.83481 14.8295 4" stroke="black" stroke-width="1.5" stroke-linecap="round"/>
</svg>
