<svg width="24" height="24" viewBox="0 0 24 24" fill="none" xmlns="http://www.w3.org/2000/svg">
<path d="M2 12C2 8.22876 2 6.34315 3.17157 5.17157C4.34315 4 6.22876 4 10 4H14C17.7712 4 19.6569 4 20.8284 5.17157C22 6.34315 22 8.22876 22 12C22 15.7712 22 17.6569 20.8284 18.8284C19.6569 20 17.7712 20 14 20H10C6.22876 20 4.34315 20 3.17157 18.8284C2 17.6569 2 15.7712 2 12Z" stroke="black" stroke-width="1.5"/>
<path d="M8.5 10.75C8.08579 10.75 7.75 11.0858 7.75 11.5C7.75 11.9142 8.08579 12.25 8.5 12.25V10.75ZM16 12.25C16.4142 12.25 16.75 11.9142 16.75 11.5C16.75 11.0858 16.4142 10.75 16 10.75V12.25ZM8.5 15.25C8.08579 15.25 7.75 15.5858 7.75 16C7.75 16.4142 8.08579 16.75 8.5 16.75V15.25ZM16 16.75C16.4142 16.75 16.75 16.4142 16.75 16C16.75 15.5858 16.4142 15.25 16 15.25V16.75ZM17.25 13.75C17.25 14.5784 16.5784 15.25 15.75 15.25V16.75C17.4069 16.75 18.75 15.4069 18.75 13.75H17.25ZM15.75 12.25C16.5784 12.25 17.25 12.9216 17.25 13.75H18.75C18.75 12.0931 17.4069 10.75 15.75 10.75V12.25ZM8.25 15.25C7.42157 15.25 6.75 14.5784 6.75 13.75H5.25C5.25 15.4069 6.59315 16.75 8.25 16.75V15.25ZM8.25 10.75C6.59315 10.75 5.25 12.0931 5.25 13.75H6.75C6.75 12.9216 7.42157 12.25 8.25 12.25V10.75ZM8.5 12.25H16V10.75H8.5V12.25ZM8.5 16.75H16V15.25H8.5V16.75Z" fill="black"/>
<path opacity="0.5" d="M15.75 15.25C14.9216 15.25 14.25 14.5784 14.25 13.75H12.75C12.75 15.4069 14.0931 16.75 15.75 16.75V15.25ZM15.75 10.75C14.0931 10.75 12.75 12.0931 12.75 13.75H14.25C14.25 12.9216 14.9216 12.25 15.75 12.25V10.75ZM9.75 13.75C9.75 14.5784 9.07843 15.25 8.25 15.25V16.75C9.90685 16.75 11.25 15.4069 11.25 13.75H9.75ZM8.25 12.25C9.07843 12.25 9.75 12.9216 9.75 13.75H11.25C11.25 12.0931 9.90685 10.75 8.25 10.75V12.25Z" fill="black"/>
<path opacity="0.5" d="M17.5 4.5L16.9733 5.90449C16.5025 7.15997 16.2671 7.7877 15.7532 8.14385C15.2393 8.5 14.5688 8.5 13.228 8.5H10.772C9.43116 8.5 8.76073 8.5 8.24681 8.14385C7.73289 7.7877 7.49749 7.15997 7.02669 5.90449L6.5 4.5" stroke="black" stroke-width="1.5" stroke-linecap="round" stroke-linejoin="round"/>
</svg>
