<svg width="24" height="24" viewBox="0 0 24 24" fill="none" xmlns="http://www.w3.org/2000/svg">
<path d="M6 15.5C6 14.9477 6.44772 14.5 7 14.5H17C17.5523 14.5 18 14.9477 18 15.5C18 16.6046 17.1046 17.5 16 17.5H8C6.89543 17.5 6 16.6046 6 15.5Z" stroke="black" stroke-width="1.5"/>
<path d="M6.62813 6.76581C6.86949 4.75442 6.99018 3.74872 7.57186 3.06161C7.75646 2.84355 7.97127 2.65298 8.20977 2.49567C8.96129 2 9.9742 2 12 2C14.0258 2 15.0388 2 15.7903 2.49567C16.0288 2.65298 16.2436 2.84355 16.4282 3.06161C17.0099 3.74872 17.1306 4.75442 17.3719 6.76581L17.4628 7.52342C17.7133 9.61087 17.8386 10.6546 17.2418 11.3273C16.645 12 15.5937 12 13.4913 12H10.5087C8.4063 12 7.35509 12 6.75828 11.3273C6.16147 10.6546 6.28672 9.61087 6.53721 7.52342L6.62813 6.76581Z" stroke="black" stroke-width="1.5"/>
<path opacity="0.5" d="M12 12V14" stroke="black" stroke-width="1.5"/>
<path opacity="0.5" d="M12 22V20M12 20V17.5M12 20L12.4661 20.1165C13.4214 20.3554 14.1886 21.0658 14.5 22M12 20L11.5339 20.1165C10.5786 20.3554 9.81142 21.0658 9.5 22M6 16L5.13484 13.4045C5.06173 13.1852 5.02518 13.0755 4.95424 12.9225C4.8833 12.7695 4.85413 12.7215 4.79579 12.6256C4.33942 11.8752 3.7325 11.5 2 11.5M18 16L18.8652 13.4045C18.9383 13.1852 18.9748 13.0755 19.0458 12.9225C19.1167 12.7695 19.1459 12.7215 19.2042 12.6256C19.6606 11.8752 20.2675 11.5 22 11.5" stroke="black" stroke-width="1.5" stroke-linecap="round"/>
</svg>
