<svg width="24" height="24" viewBox="0 0 24 24" fill="none" xmlns="http://www.w3.org/2000/svg">
<path opacity="0.5" d="M3 22H21" stroke="black" stroke-width="1.5" stroke-linecap="round" stroke-linejoin="round"/>
<path d="M3 11C3 10.0572 3 9.58579 3.29289 9.29289C3.58579 9 4.05719 9 5 9C5.94281 9 6.41421 9 6.70711 9.29289C7 9.58579 7 10.0572 7 11V17C7 17.9428 7 18.4142 6.70711 18.7071C6.41421 19 5.94281 19 5 19C4.05719 19 3.58579 19 3.29289 18.7071C3 18.4142 3 17.9428 3 17V11Z" stroke="black" stroke-width="1.5"/>
<path d="M10 7C10 6.05719 10 5.58579 10.2929 5.29289C10.5858 5 11.0572 5 12 5C12.9428 5 13.4142 5 13.7071 5.29289C14 5.58579 14 6.05719 14 7V17C14 17.9428 14 18.4142 13.7071 18.7071C13.4142 19 12.9428 19 12 19C11.0572 19 10.5858 19 10.2929 18.7071C10 18.4142 10 17.9428 10 17V7Z" stroke="black" stroke-width="1.5"/>
<path d="M17 4C17 3.05719 17 2.58579 17.2929 2.29289C17.5858 2 18.0572 2 19 2C19.9428 2 20.4142 2 20.7071 2.29289C21 2.58579 21 3.05719 21 4V17C21 17.9428 21 18.4142 20.7071 18.7071C20.4142 19 19.9428 19 19 19C18.0572 19 17.5858 19 17.2929 18.7071C17 18.4142 17 17.9428 17 17V4Z" stroke="black" stroke-width="1.5"/>
</svg>
