<svg width="24" height="24" viewBox="0 0 24 24" fill="none" xmlns="http://www.w3.org/2000/svg">
<path d="M4 11H16C17.8856 11 18.8284 11 19.4142 11.5858C20 12.1716 20 13.1144 20 15V16C20 18.8284 20 20.2426 19.1213 21.1213C18.2426 22 16.8284 22 14 22H10C7.17157 22 5.75736 22 4.87868 21.1213C4 20.2426 4 18.8284 4 16V11Z" stroke="black" stroke-width="1.5"/>
<path d="M4.0014 10.9997C3.51761 9.19412 3.27572 8.29135 3.48377 7.51489C3.62006 7.00622 3.88785 6.5424 4.26022 6.17003C4.82863 5.60162 5.7314 5.35973 7.53694 4.87593L14.5399 2.99949C15.2131 2.8191 15.5498 2.72891 15.8446 2.70958C17.0554 2.63022 18.1948 3.28804 18.7314 4.37629C18.8621 4.64129 18.9523 4.97791 19.1327 5.65114C19.1928 5.87556 19.2229 5.98776 19.2293 6.08604C19.2558 6.48964 19.0365 6.86943 18.6738 7.04832C18.5854 7.09188 18.4732 7.12195 18.2488 7.18208L4.0014 10.9997Z" stroke="black" stroke-width="1.5"/>
<path opacity="0.5" d="M14.7004 2.94135L14.0627 8.28861" stroke="black" stroke-width="1.5" stroke-linecap="round"/>
<path opacity="0.5" d="M8.42196 4.62396L7.78421 9.97123" stroke="black" stroke-width="1.5" stroke-linecap="round"/>
<path opacity="0.5" d="M14 16.5C14 16.0778 13.6028 15.793 12.8084 15.2235C12.0031 14.6462 11.6005 14.3575 11.3002 14.5695C11 14.7814 11 15.3543 11 16.5C11 17.6457 11 18.2186 11.3002 18.4305C11.6005 18.6425 12.0031 18.3538 12.8084 17.7765C13.6028 17.207 14 16.9222 14 16.5Z" stroke="black" stroke-width="1.5" stroke-linecap="round"/>
</svg>
