<svg width="24" height="24" viewBox="0 0 24 24" fill="none" xmlns="http://www.w3.org/2000/svg">
<path d="M21.9979 10.5C21.9816 6.7682 21.8357 4.7646 20.5355 3.46447C19.0711 2 16.714 2 12 2C7.28595 2 4.92893 2 3.46447 3.46447C2 4.92893 2 7.28595 2 12C2 16.714 2 19.0711 3.46447 20.5355C4.70529 21.7764 6.58687 21.9658 10 21.9948" stroke="black" stroke-width="1.5" stroke-linecap="round"/>
<path opacity="0.5" d="M21.5 8H2.5M7 8L10.5 2.5M13.5 8L17 2.5" stroke="black" stroke-width="1.5" stroke-linecap="round"/>
<path d="M18.562 13.9354L18.9791 13.5183C19.6702 12.8272 20.7906 12.8272 21.4817 13.5183C22.1728 14.2094 22.1728 15.3298 21.4817 16.0209L21.0646 16.438M18.562 13.9354C18.562 13.9354 18.6142 14.8217 19.3962 15.6038C20.1783 16.3858 21.0646 16.438 21.0646 16.438M18.562 13.9354L14.7275 17.77C14.4677 18.0297 14.3379 18.1595 14.2262 18.3027C14.0945 18.4716 13.9815 18.6544 13.8894 18.8478C13.8112 19.0117 13.7532 19.1859 13.637 19.5344L13.2651 20.65L13.1448 21.0109M21.0646 16.438L17.23 20.2725C16.9703 20.5323 16.8405 20.6621 16.6973 20.7738C16.5284 20.9055 16.3456 21.0185 16.1522 21.1106C15.9883 21.1888 15.8141 21.2468 15.4656 21.363L14.35 21.7349L13.9891 21.8552M13.9891 21.8552L13.6281 21.9755C13.4567 22.0327 13.2676 21.988 13.1398 21.8602C13.012 21.7324 12.9673 21.5433 13.0245 21.3719L13.1448 21.0109M13.9891 21.8552L13.1448 21.0109" stroke="black" stroke-width="1.5"/>
</svg>
