<svg width="24" height="24" viewBox="0 0 24 24" fill="none" xmlns="http://www.w3.org/2000/svg">
<path opacity="0.5" d="M16 4.00195C18.175 4.01406 19.3529 4.11051 20.1213 4.87889C21 5.75757 21 7.17179 21 10.0002V16.0002C21 18.8286 21 20.2429 20.1213 21.1215C19.2426 22.0002 17.8284 22.0002 15 22.0002H9C6.17157 22.0002 4.75736 22.0002 3.87868 21.1215C3 20.2429 3 18.8286 3 16.0002V10.0002C3 7.17179 3 5.75757 3.87868 4.87889C4.64706 4.11051 5.82497 4.01406 8 4.00195" stroke="black" stroke-width="1.5"/>
<path d="M10.5 14L17 14" stroke="black" stroke-width="1.5" stroke-linecap="round"/>
<path d="M7 14H7.5" stroke="black" stroke-width="1.5" stroke-linecap="round"/>
<path d="M7 10.5H7.5" stroke="black" stroke-width="1.5" stroke-linecap="round"/>
<path d="M7 17.5H7.5" stroke="black" stroke-width="1.5" stroke-linecap="round"/>
<path d="M10.5 10.5H17" stroke="black" stroke-width="1.5" stroke-linecap="round"/>
<path d="M10.5 17.5H17" stroke="black" stroke-width="1.5" stroke-linecap="round"/>
<path d="M8 3.5C8 2.67157 8.67157 2 9.5 2H14.5C15.3284 2 16 2.67157 16 3.5V4.5C16 5.32843 15.3284 6 14.5 6H9.5C8.67157 6 8 5.32843 8 4.5V3.5Z" stroke="black" stroke-width="1.5"/>
</svg>
