<svg width="24" height="24" viewBox="0 0 24 24" fill="none" xmlns="http://www.w3.org/2000/svg">
<path opacity="0.5" d="M16 4C18.175 4.01211 19.3529 4.10856 20.1213 4.87694C21 5.75562 21 7.16983 21 9.99826V15.9983C21 18.8267 21 20.2409 20.1213 21.1196C19.2426 21.9983 17.8284 21.9983 15 21.9983H9C6.17157 21.9983 4.75736 21.9983 3.87868 21.1196C3 20.2409 3 18.8267 3 15.9983V9.99826C3 7.16983 3 5.75562 3.87868 4.87694C4.64706 4.10856 5.82497 4.01211 8 4" stroke="black" stroke-width="1.5"/>
<path d="M12 11.6913L11.4813 12.2331C11.7713 12.5108 12.2287 12.5108 12.5187 12.2331L12 11.6913ZM12 15.8276L12 15.0776L12 15.8276ZM11.4865 14.7609C11.0686 14.4542 10.6081 14.0712 10.2595 13.6681C9.89122 13.2423 9.75 12.9113 9.75 12.6967H8.25C8.25 13.4666 8.6912 14.1479 9.1249 14.6493C9.57819 15.1735 10.1391 15.6327 10.5992 15.9703L11.4865 14.7609ZM9.75 12.6967C9.75 12.1207 10.0126 11.87 10.2419 11.7896C10.4922 11.7019 10.9558 11.7299 11.4813 12.2331L12.5187 11.1496C11.6943 10.3603 10.6579 10.0543 9.74566 10.3741C8.81245 10.7012 8.25 11.5995 8.25 12.6967H9.75ZM13.4008 15.9703C13.8609 15.6327 14.4218 15.1735 14.8751 14.6493C15.3088 14.1479 15.75 13.4666 15.75 12.6967H14.25C14.25 12.9113 14.1088 13.2423 13.7405 13.6681C13.3919 14.0713 12.9314 14.4542 12.5135 14.7609L13.4008 15.9703ZM15.75 12.6967C15.75 11.5995 15.1875 10.7012 14.2543 10.3741C13.3421 10.0543 12.3057 10.3603 11.4813 11.1496L12.5187 12.2331C13.0442 11.7299 13.5078 11.7019 13.7581 11.7896C13.9874 11.87 14.25 12.1207 14.25 12.6967H15.75ZM10.5992 15.9703C10.9678 16.2407 11.3816 16.5775 12 16.5776L12 15.0776C11.9756 15.0776 11.9605 15.0775 11.9061 15.0488C11.8202 15.0034 11.7128 14.9269 11.4865 14.7609L10.5992 15.9703ZM12.5135 14.7609C12.2872 14.9269 12.1798 15.0034 12.0939 15.0488C12.0395 15.0775 12.0244 15.0776 12 15.0776L12 16.5776C12.6184 16.5776 13.0322 16.2407 13.4008 15.9703L12.5135 14.7609Z" fill="black"/>
<path d="M8 3.5C8 2.67157 8.67157 2 9.5 2H14.5C15.3284 2 16 2.67157 16 3.5V4.5C16 5.32843 15.3284 6 14.5 6H9.5C8.67157 6 8 5.32843 8 4.5V3.5Z" stroke="black" stroke-width="1.5"/>
</svg>
