<svg width="24" height="24" viewBox="0 0 24 24" fill="none" xmlns="http://www.w3.org/2000/svg">
<path opacity="0.5" d="M14.381 8.02721C14.9767 7.81911 15.6178 7.70588 16.2857 7.70588C16.9404 7.70588 17.5693 7.81468 18.1551 8.01498M7.11616 10.6089C6.8475 10.5567 6.56983 10.5294 6.28571 10.5294C3.91878 10.5294 2 12.4256 2 14.7647C2 16.0746 2.60178 17.2457 3.54704 18.0226M7.11616 10.6089C6.88706 9.9978 6.7619 9.33687 6.7619 8.64706C6.7619 5.52827 9.32028 3 12.4762 3C15.4159 3 17.8371 5.19371 18.1551 8.01498M7.11616 10.6089C7.68059 10.7184 8.20528 10.9374 8.66667 11.2426M18.1551 8.01498C20.393 8.78024 22 10.8811 22 13.3529C22 15.2939 21.0091 17.0061 19.5 18.0226" stroke="black" stroke-width="1.5" stroke-linecap="round"/>
<path d="M17 19L15 21" stroke="black" stroke-width="1.5" stroke-linecap="round"/>
<path d="M16 15.5L14 17.5" stroke="black" stroke-width="1.5" stroke-linecap="round"/>
<path d="M12 20L10 22" stroke="black" stroke-width="1.5" stroke-linecap="round"/>
<path d="M11.5 15.5L9.5 17.5" stroke="black" stroke-width="1.5" stroke-linecap="round"/>
<path d="M7.5 19L5.5 21" stroke="black" stroke-width="1.5" stroke-linecap="round"/>
</svg>
