<svg width="24" height="24" viewBox="0 0 24 24" fill="none" xmlns="http://www.w3.org/2000/svg">
<path d="M4.01207 15.7618L5.70156 10.6933C6.46758 8.39525 6.85059 7.24623 7.75684 7.03229C8.6631 6.81835 9.51953 7.67478 11.2324 9.38764L14.6114 12.7666C16.3242 14.4795 17.1807 15.3359 16.9667 16.2422C16.7528 17.1484 15.6038 17.5314 13.3057 18.2975L8.23724 19.987C5.47183 20.9088 4.08912 21.3697 3.35924 20.6398C2.62936 19.9099 3.09026 18.5272 4.01207 15.7618Z" stroke="black" stroke-width="1.5" stroke-linecap="round"/>
<path opacity="0.5" d="M12.2353 18.3462C12.2353 18.3462 11.4771 16.0651 11.4771 14.5554C11.4771 13.0456 12.2353 10.7645 12.2353 10.7645M8.06529 19.4835C8.06529 19.4835 7.42497 16.7316 7.30712 14.9345C7.11242 11.9652 8.06529 7.35272 8.06529 7.35272" stroke="black" stroke-width="1.5" stroke-linecap="round"/>
<path d="M14.5093 10.0061L14.6533 9.28614C14.7986 8.55924 15.3224 7.96597 16.0256 7.73155C16.7289 7.49714 17.2526 6.90387 17.398 6.17697L17.542 5.45703" stroke="black" stroke-width="1.5" stroke-linecap="round"/>
<path d="M17.569 12.2536L17.7818 12.3765C18.4389 12.7558 19.2651 12.6722 19.8328 12.1688C20.3469 11.7129 21.0791 11.5973 21.7086 11.8725L22.0001 12" stroke="black" stroke-width="1.5" stroke-linecap="round"/>
<path d="M10.5351 3C10.1976 3.55206 10.2822 4.26344 10.7397 4.72097L10.8376 4.81885C11.2308 5.21201 11.3758 5.78959 11.2149 6.32182" stroke="black" stroke-width="1.5" stroke-linecap="round"/>
<path opacity="0.5" d="M13.561 4.39629C13.7621 4.19524 13.8626 4.09471 13.9788 4.05786C14.0772 4.02669 14.1827 4.02669 14.281 4.05786C14.3973 4.09471 14.4978 4.19524 14.6989 4.39629C14.8999 4.59735 15.0004 4.69788 15.0373 4.81412C15.0685 4.91243 15.0685 5.01798 15.0373 5.1163C15.0004 5.23254 14.8999 5.33307 14.6989 5.53412C14.4978 5.73518 14.3973 5.83571 14.281 5.87256C14.1827 5.90372 14.0772 5.90372 13.9788 5.87256C13.8626 5.83571 13.7621 5.73518 13.561 5.53412C13.36 5.33307 13.2594 5.23254 13.2226 5.1163C13.1914 5.01798 13.1914 4.91243 13.2226 4.81412C13.2594 4.69788 13.36 4.59735 13.561 4.39629Z" fill="black"/>
<path d="M19.4682 7.46822C19.7136 7.22283 19.8363 7.10014 19.9747 7.04681C20.1367 6.9844 20.3161 6.9844 20.4781 7.04681C20.6165 7.10014 20.7392 7.22283 20.9846 7.46822C21.23 7.71362 21.3527 7.83631 21.406 7.97472C21.4684 8.1367 21.4684 8.31609 21.406 8.47807C21.3527 8.61649 21.23 8.73918 20.9846 8.98457C20.7392 9.22996 20.6165 9.35266 20.4781 9.40599C20.3161 9.4684 20.1367 9.4684 19.9747 9.40599C19.8363 9.35266 19.7136 9.22996 19.4682 8.98457C19.2228 8.73918 19.1001 8.61649 19.0468 8.47807C18.9844 8.31609 18.9844 8.1367 19.0468 7.97472C19.1001 7.83631 19.2228 7.71362 19.4682 7.46822Z" fill="black"/>
<path opacity="0.5" d="M6.92737 3.94079C7.13683 3.73132 7.47645 3.73132 7.68592 3.94079C7.89539 4.15026 7.89539 4.48988 7.68592 4.69935C7.47645 4.90882 7.13683 4.90882 6.92737 4.69935C6.7179 4.48988 6.7179 4.15026 6.92737 3.94079Z" fill="black"/>
<path opacity="0.5" d="M19.0582 15.3134C19.2677 15.1039 19.6073 15.1039 19.8168 15.3134C20.0262 15.5228 20.0262 15.8624 19.8168 16.0719C19.6073 16.2814 19.2677 16.2814 19.0582 16.0719C18.8488 15.8624 18.8488 15.5228 19.0582 15.3134Z" fill="black"/>
<path opacity="0.5" d="M17.5 9.74145C17.7095 9.53198 18.0491 9.53198 18.2586 9.74145C18.468 9.95092 18.468 10.2905 18.2586 10.5C18.0491 10.7095 17.7095 10.7095 17.5 10.5C17.2905 10.2905 17.2905 9.95092 17.5 9.74145Z" fill="black"/>
</svg>
