<svg width="24" height="24" viewBox="0 0 24 24" fill="none" xmlns="http://www.w3.org/2000/svg">
<path d="M11 10.5C11 7.46243 13.4624 5 16.5 5C19.5376 5 22 7.46243 22 10.5C22 13.5376 19.5376 16 16.5 16C13.4624 16 11 13.5376 11 10.5Z" stroke="black" stroke-width="1.5"/>
<path opacity="0.5" d="M16.5 20V16M16.5 20H19.5M16.5 20H13.5" stroke="black" stroke-width="1.5" stroke-linecap="round" stroke-linejoin="round"/>
<path d="M2 11V10.25C1.58579 10.25 1.25 10.5858 1.25 11H2ZM8 11H8.75C8.75 10.5858 8.41421 10.25 8 10.25V11ZM2 11.75H8V10.25H2V11.75ZM7.25 11V17H8.75V11H7.25ZM2.75 17V11H1.25V17H2.75ZM5 19.25C3.75736 19.25 2.75 18.2426 2.75 17H1.25C1.25 19.0711 2.92893 20.75 5 20.75V19.25ZM7.25 17C7.25 18.2426 6.24264 19.25 5 19.25V20.75C7.07107 20.75 8.75 19.0711 8.75 17H7.25Z" fill="black"/>
<path opacity="0.5" d="M3 11H7V5.61799C7 4.87461 6.21769 4.39111 5.55279 4.72356L3.55279 5.72356C3.214 5.89295 3 6.23922 3 6.61799V11Z" stroke="black" stroke-width="1.5"/>
</svg>
