<svg width="24" height="24" viewBox="0 0 24 24" fill="none" xmlns="http://www.w3.org/2000/svg">
<path d="M11.8476 12.1524L12.0462 12.2208C15.3052 13.3428 19.2301 12.2699 22 9.5M11.8476 12.1524L11.2902 11.9606C8.24848 10.9134 4.58525 11.9147 2 14.5M11.8476 12.1524L11.7792 11.9538C10.6572 8.69481 11.7301 4.76991 14.5 2M11.8476 12.1524L12.0394 12.7098C13.0866 15.7515 12.0853 19.4147 9.5 22" stroke="black" stroke-width="1.5" stroke-linecap="round"/>
<path opacity="0.5" d="M6.76465 11.8433L11.8431 16.9217" stroke="black" stroke-width="1.5" stroke-linecap="round"/>
<path opacity="0.5" d="M11.8438 6.76465L16.9222 11.8431" stroke="black" stroke-width="1.5" stroke-linecap="round"/>
<path opacity="0.5" d="M3.99976 13.0002L7.49976 16.5002" stroke="black" stroke-width="1.5" stroke-linecap="round"/>
<path opacity="0.5" d="M19.7783 10.8906L16.2783 7.39062" stroke="black" stroke-width="1.5" stroke-linecap="round"/>
<path opacity="0.5" d="M9.30469 18.1914L10.8917 19.7784" stroke="black" stroke-width="1.5" stroke-linecap="round"/>
<path opacity="0.5" d="M14.5869 5.58691L12.9999 3.99989" stroke="black" stroke-width="1.5" stroke-linecap="round"/>
</svg>
