<svg width="24" height="24" viewBox="0 0 24 24" fill="none" xmlns="http://www.w3.org/2000/svg">
<path d="M20 13.1111C20 20.2222 13.9556 22 10.9333 22C8.28889 22 3 20.2222 3 13.1111C3 10.3295 4.46147 8.46138 5.85996 7.39454C6.63841 6.80069 7.6304 7.39197 7.73017 8.36598L7.816 9.20382C7.92052 10.2241 8.84932 11.0606 9.70932 10.5017C11.3938 9.40705 12 6.7752 12 5.33334V5.00971C12 3.58 13.4438 2.65985 14.6023 3.49767C17.1653 5.35127 20 8.58427 20 13.1111Z" stroke="black" stroke-width="1.5"/>
<path opacity="0.5" d="M8 18.4445C8 21.2889 10.4889 22 11.7333 22C12.8222 22 15 21.2889 15 18.4445C15 17.3435 14.4107 16.6002 13.8404 16.1713C13.4424 15.872 12.8828 16.1408 12.7459 16.6196C12.5675 17.2437 11.9228 17.636 11.5944 17.0759C11.2941 16.5638 11.2941 15.7957 11.2941 15.3334C11.2941 14.6968 10.6539 14.2847 10.1389 14.6589C9.10649 15.4091 8 16.6815 8 18.4445Z" stroke="black" stroke-width="1.5"/>
</svg>
