<svg width="24" height="24" viewBox="0 0 24 24" fill="none" xmlns="http://www.w3.org/2000/svg">
<path opacity="0.5" d="M20.1848 17.75C20.599 17.75 20.9348 17.4142 20.9348 17C20.9348 16.5858 20.599 16.25 20.1848 16.25V17.75ZM14.7793 19.7351L14.0677 19.4982L14.0677 19.4982L14.7793 19.7351ZM13.4801 21.2631C13.3493 21.6561 13.5618 22.0807 13.9548 22.2116C14.3478 22.3424 14.7725 22.1299 14.9033 21.7369L13.4801 21.2631ZM3.99774 16.25C3.58352 16.25 3.24774 16.5858 3.24774 17C3.24774 17.4142 3.58352 17.75 3.99774 17.75V16.25ZM9.40319 19.7351L10.1148 19.4982L10.1148 19.4982L9.40319 19.7351ZM9.27922 21.7369C9.41007 22.1299 9.83473 22.3424 10.2277 22.2116C10.6207 22.0807 10.8333 21.6561 10.7024 21.2631L9.27922 21.7369ZM8.22076 17.3775L7.78189 17.9857L7.78189 17.9857L8.22076 17.3775ZM5.55604 5.45942C5.44895 5.05928 5.03777 4.82173 4.63764 4.92882C4.23751 5.03591 3.99995 5.44709 4.10704 5.84723L5.55604 5.45942ZM5.24956 7.21519L4.52506 7.40909L4.52506 7.40909L5.24956 7.21519ZM3.59173 11.5885L3.17816 10.9628L3.17816 10.9628L3.59173 11.5885ZM1.62744 11.9879C1.2819 12.2163 1.18694 12.6816 1.41535 13.0271C1.64376 13.3727 2.10905 13.4676 2.45459 13.2392L1.62744 11.9879ZM19.934 5.84732C20.0411 5.44719 19.8036 5.036 19.4034 4.92891C19.0033 4.82182 18.5921 5.05938 18.485 5.45951L19.934 5.84732ZM18.7915 7.21528L18.067 7.02137L18.067 7.02137L18.7915 7.21528ZM20.4493 11.5886L20.0358 12.2143L20.0358 12.2143L20.4493 11.5886ZM21.5865 13.2393C21.932 13.4677 22.3973 13.3728 22.6257 13.0272C22.8541 12.6817 22.7592 12.2164 22.4136 11.988L21.5865 13.2393ZM16.0903 3.83623C16.4288 3.5975 16.5097 3.12956 16.2709 2.79107C16.0322 2.45257 15.5643 2.3717 15.2258 2.61044L16.0903 3.83623ZM14.3377 4.15456L14.7699 4.76746L14.7699 4.76746L14.3377 4.15456ZM9.66567 4.10403L9.22025 4.70744L9.22025 4.70744L9.66567 4.10403ZM8.61543 2.39659C8.28218 2.15059 7.8126 2.22133 7.56661 2.55459C7.32061 2.88784 7.39135 3.35742 7.7246 3.60341L8.61543 2.39659ZM14.4924 10.6748C14.1097 10.8333 13.9279 11.272 14.0864 11.6547C14.2449 12.0374 14.6836 12.2192 15.0663 12.0607L14.4924 10.6748ZM11.2385 9.25841C11.2385 9.67262 11.5743 10.0084 11.9885 10.0084C12.4027 10.0084 12.7385 9.67262 12.7385 9.25841H11.2385ZM14.2886 14.2954C14.0177 13.9821 13.5441 13.9477 13.2307 14.2186C12.9174 14.4895 12.883 14.9631 13.1539 15.2765L14.2886 14.2954ZM10.8456 15.2492C11.1015 14.9234 11.0447 14.4519 10.719 14.1961C10.3932 13.9403 9.9217 13.997 9.66589 14.3228L10.8456 15.2492ZM8.90641 12.0589C9.28811 12.2198 9.72794 12.0407 9.8888 11.659C10.0497 11.2773 9.87064 10.8375 9.48893 10.6766L8.90641 12.0589ZM20.1848 16.25H18.5697V17.75H20.1848V16.25ZM14.0677 19.4982L13.4801 21.2631L14.9033 21.7369L15.4909 19.972L14.0677 19.4982ZM18.5697 16.25C17.8921 16.25 17.3208 16.2489 16.8556 16.302C16.3711 16.3574 15.9265 16.4781 15.5229 16.7693L16.4006 17.9857C16.5202 17.8994 16.6846 17.8313 17.0259 17.7923C17.3864 17.7511 17.8575 17.75 18.5697 17.75V16.25ZM15.4909 19.972C15.7161 19.2956 15.8662 18.8484 16.0193 18.5189C16.1643 18.2069 16.281 18.072 16.4006 17.9857L15.5229 16.7693C15.1194 17.0605 14.8646 17.4444 14.659 17.8868C14.4616 18.3117 14.282 18.8545 14.0677 19.4982L15.4909 19.972ZM3.99774 17.75H5.61283V16.25H3.99774V17.75ZM8.69159 19.972L9.27922 21.7369L10.7024 21.2631L10.1148 19.4982L8.69159 19.972ZM5.61283 17.75C6.32505 17.75 6.79615 17.7511 7.15663 17.7923C7.49788 17.8313 7.66233 17.8994 7.78189 17.9857L8.65963 16.7693C8.25602 16.4781 7.81142 16.3574 7.32697 16.302C6.86173 16.2489 6.29046 16.25 5.61283 16.25V17.75ZM10.1148 19.4982C9.90048 18.8545 9.72095 18.3117 9.5235 17.8868C9.31795 17.4445 9.06316 17.0605 8.65963 16.7693L7.78189 17.9857C7.90153 18.072 8.0182 18.2069 8.16319 18.5189C8.31629 18.8484 8.46639 19.2956 8.69159 19.972L10.1148 19.4982ZM4.10704 5.84723L4.52506 7.40909L5.97406 7.02128L5.55604 5.45942L4.10704 5.84723ZM3.17816 10.9628L1.62744 11.9879L2.45459 13.2392L4.00531 12.2142L3.17816 10.9628ZM4.52506 7.40909C4.70938 8.09777 4.83026 8.55381 4.88383 8.91324C4.93456 9.25362 4.91145 9.43069 4.85901 9.56902L6.26161 10.1007C6.438 9.63541 6.43936 9.17465 6.36744 8.69211C6.29836 8.22862 6.14946 7.67663 5.97406 7.02128L4.52506 7.40909ZM4.00531 12.2142C4.57081 11.8404 5.04812 11.5262 5.40705 11.2252C5.78079 10.9119 6.0852 10.5661 6.26161 10.1007L4.85901 9.56902C4.80659 9.70729 4.70664 9.855 4.44325 10.0759C4.16506 10.3091 3.77249 10.57 3.17816 10.9628L4.00531 12.2142ZM18.485 5.45951L18.067 7.02137L19.516 7.40918L19.934 5.84732L18.485 5.45951ZM20.0358 12.2143L21.5865 13.2393L22.4136 11.988L20.8629 10.9629L20.0358 12.2143ZM18.067 7.02137C17.8916 7.67672 17.7427 8.22871 17.6736 8.69221C17.6017 9.17474 17.6031 9.6355 17.7795 10.1008L19.1821 9.56911C19.1296 9.43078 19.1065 9.25372 19.1572 8.91333C19.2108 8.5539 19.3317 8.09787 19.516 7.40918L18.067 7.02137ZM20.8629 10.9629C20.2686 10.5701 19.876 10.3092 19.5978 10.0759C19.3344 9.85509 19.2345 9.70739 19.1821 9.56911L17.7795 10.1008C17.9559 10.5662 18.2603 10.912 18.634 11.2253C18.9929 11.5263 19.4703 11.8405 20.0358 12.2143L20.8629 10.9629ZM15.2258 2.61044L13.9054 3.54166L14.7699 4.76746L16.0903 3.83623L15.2258 2.61044ZM10.1111 3.50061L8.61543 2.39659L7.7246 3.60341L9.22025 4.70744L10.1111 3.50061ZM13.9054 3.54166C13.3232 3.9523 12.9373 4.22303 12.6189 4.39721C12.3174 4.56214 12.1438 4.60125 11.9966 4.59965L11.9804 6.09957C12.478 6.10495 12.9109 5.94721 13.3388 5.7132C13.7496 5.48845 14.216 5.15817 14.7699 4.76746L13.9054 3.54166ZM9.22025 4.70744C9.76567 5.11004 10.2248 5.45033 10.6307 5.68392C11.0533 5.92712 11.4827 6.09418 11.9804 6.09957L11.9966 4.59965C11.8494 4.59806 11.6767 4.5552 11.3788 4.38379C11.0642 4.20276 10.6843 3.92375 10.1111 3.50061L9.22025 4.70744ZM18.1938 9.14203L14.4924 10.6748L15.0663 12.0607L18.7677 10.5279L18.1938 9.14203ZM12.7385 9.25841V5.34961H11.2385V9.25841H12.7385ZM16.5291 16.887L14.2886 14.2954L13.1539 15.2765L15.3944 17.868L16.5291 16.887ZM8.81063 17.8407L10.8456 15.2492L9.66589 14.3228L7.63089 16.9143L8.81063 17.8407ZM9.48893 10.6766L5.85157 9.14373L5.26905 10.526L8.90641 12.0589L9.48893 10.6766Z" fill="black"/>
<path d="M9.19766 11.9586L9.9143 11.7374L9.9143 11.7374L9.19766 11.9586ZM9.54562 10.8687L9.08999 10.273L9.08999 10.273L9.54562 10.8687ZM9.919 14.2956L9.20236 14.5168L9.20236 14.5168L9.919 14.2956ZM14.058 14.2956L13.3413 14.0744L13.3413 14.0744L14.058 14.2956ZM14.4314 10.8687L13.9757 11.4645L13.9757 11.4645L14.4314 10.8687ZM14.7793 11.9586L15.496 12.1798L15.496 12.1798L14.7793 11.9586ZM12.5949 9.46413L13.0505 8.8684L13.0505 8.8684L12.5949 9.46413ZM11.3821 9.46413L11.8378 10.0599L11.8378 10.0599L11.3821 9.46413ZM14.7793 11.3681L14.0627 11.5894L14.7793 11.3681ZM13.7212 14.7863L14.1852 15.3756L13.7212 14.7863ZM10.2558 14.7863L9.79176 15.3756L10.2558 14.7863ZM9.19766 11.3681L9.91429 11.5894L9.19766 11.3681ZM12.1392 10.0599L13.9757 11.4645L14.887 10.273L13.0505 8.8684L12.1392 10.0599ZM14.0627 11.7374L13.3413 14.0744L14.7746 14.5168L15.496 12.1798L14.0627 11.7374ZM13.1037 14.2504H10.8733V15.7504H13.1037V14.2504ZM10.6356 14.0744L9.9143 11.7374L8.48102 12.1798L9.20236 14.5168L10.6356 14.0744ZM10.0012 11.4645L11.8378 10.0599L10.9265 8.8684L9.08999 10.273L10.0012 11.4645ZM13.9757 11.4645C14.0179 11.4967 14.0475 11.5403 14.0627 11.5894L15.496 11.1469C15.3912 10.8074 15.1828 10.4992 14.887 10.273L13.9757 11.4645ZM14.0627 11.5894C14.0773 11.6368 14.078 11.688 14.0627 11.7374L15.496 12.1798C15.6023 11.8353 15.5975 11.4757 15.496 11.1469L14.0627 11.5894ZM13.0505 8.8684C12.7372 8.62876 12.3624 8.50879 11.9885 8.50879V10.0088C12.042 10.0088 12.0946 10.0257 12.1392 10.0599L13.0505 8.8684ZM11.9885 8.50879C11.6146 8.50879 11.2398 8.62876 10.9265 8.8684L11.8378 10.0599C11.8824 10.0257 11.935 10.0088 11.9885 10.0088V8.50879ZM13.3413 14.0744C13.3259 14.1245 13.2963 14.1664 13.2572 14.1971L14.1852 15.3756C14.4575 15.1612 14.6671 14.865 14.7746 14.5168L13.3413 14.0744ZM13.2572 14.1971C13.214 14.2311 13.1607 14.2504 13.1037 14.2504V15.7504C13.5064 15.7504 13.8847 15.6122 14.1852 15.3756L13.2572 14.1971ZM10.8733 14.2504C10.8163 14.2504 10.763 14.2311 10.7197 14.1971L9.79176 15.3756C10.0923 15.6122 10.4706 15.7504 10.8733 15.7504V14.2504ZM10.7197 14.1971C10.6807 14.1664 10.6511 14.1245 10.6356 14.0744L9.20236 14.5168C9.30983 14.865 9.51947 15.1612 9.79176 15.3756L10.7197 14.1971ZM9.9143 11.7374C9.89903 11.688 9.89965 11.6368 9.91429 11.5894L8.48102 11.1469C8.37953 11.4757 8.37469 11.8353 8.48102 12.1798L9.9143 11.7374ZM9.91429 11.5894C9.92943 11.5403 9.95909 11.4967 10.0012 11.4645L9.08999 10.273C8.79415 10.4993 8.58583 10.8074 8.48102 11.1469L9.91429 11.5894Z" fill="black"/>
<path d="M21.2269 12C21.2269 17.1095 17.0899 21.25 11.9885 21.25V22.75C17.92 22.75 22.7269 17.9362 22.7269 12H21.2269ZM11.9885 21.25C6.88701 21.25 2.75 17.1095 2.75 12H1.25C1.25 17.9362 6.05695 22.75 11.9885 22.75V21.25ZM2.75 12C2.75 6.89055 6.88701 2.75 11.9885 2.75V1.25C6.05695 1.25 1.25 6.06376 1.25 12H2.75ZM11.9885 2.75C17.0899 2.75 21.2269 6.89055 21.2269 12H22.7269C22.7269 6.06376 17.92 1.25 11.9885 1.25V2.75Z" fill="black"/>
</svg>
