<svg width="24" height="24" viewBox="0 0 24 24" fill="none" xmlns="http://www.w3.org/2000/svg">
<path d="M2 13.0869C2 10.9906 2 9.94241 2.55325 9.14745C3.1065 8.3525 4.07697 8.00623 6.0179 7.3137L14.0179 4.45927C17.6539 3.16195 19.4718 2.51329 20.7359 3.42756C22 4.34183 22 6.30539 22 10.2325V15.8834C22 18.7668 22 20.2085 21.1213 21.1042C20.2426 22 18.8284 22 16 22H8C5.17157 22 3.75736 22 2.87868 21.1042C2 20.2085 2 18.7668 2 15.8834V13.0869Z" stroke="black" stroke-width="1.5"/>
<path d="M9 14C9 12.5858 9 11.8787 9.43934 11.4393C9.87868 11 10.5858 11 12 11C13.4142 11 14.1213 11 14.5607 11.4393C15 11.8787 15 12.5858 15 14C15 15.4142 15 16.1213 14.5607 16.5607C14.1213 17 13.4142 17 12 17C10.5858 17 9.87868 17 9.43934 16.5607C9 16.1213 9 15.4142 9 14Z" stroke="black" stroke-width="1.5"/>
<path opacity="0.5" d="M15 11L16 10" stroke="black" stroke-width="1.5" stroke-linecap="round"/>
<path opacity="0.5" d="M9 11L8 10" stroke="black" stroke-width="1.5" stroke-linecap="round"/>
<path opacity="0.5" d="M15 17L16 18" stroke="black" stroke-width="1.5" stroke-linecap="round"/>
<path opacity="0.5" d="M9 17L8 18" stroke="black" stroke-width="1.5" stroke-linecap="round"/>
<path opacity="0.5" d="M5 7.06009C5 5.75506 5 5.10254 5.33815 4.65303C5.4252 4.53731 5.52676 4.43372 5.64021 4.34492C6.08089 4 6.7206 4 8 4H8.81818C9.32544 4 9.57907 4 9.78716 4.05687C10.3519 4.21122 10.7929 4.66113 10.9442 5.23713" stroke="black" stroke-width="1.5" stroke-linecap="round"/>
</svg>
