<svg width="24" height="24" viewBox="0 0 24 24" fill="none" xmlns="http://www.w3.org/2000/svg">
<path d="M22 12C22 16.714 22 19.0711 20.5355 20.5355C19.0711 22 16.714 22 12 22C7.28595 22 4.92893 22 3.46447 20.5355C2 19.0711 2 16.714 2 12C2 7.28595 2 4.92893 3.46447 3.46447C4.92893 2 7.28595 2 12 2" stroke="black" stroke-width="1.5" stroke-linecap="round"/>
<path opacity="0.5" d="M2 12.5001L3.75159 10.9675C4.66286 10.1702 6.03628 10.2159 6.89249 11.0721L11.1822 15.3618C11.8694 16.0491 12.9512 16.1428 13.7464 15.5839L14.0446 15.3744C15.1888 14.5702 16.7369 14.6634 17.7765 15.599L21 18.5001" stroke="black" stroke-width="1.5" stroke-linecap="round"/>
<path d="M18.562 2.9354L18.9791 2.5183C19.6702 1.82723 20.7906 1.82723 21.4817 2.5183C22.1728 3.20937 22.1728 4.32981 21.4817 5.02087L21.0646 5.43797M18.562 2.9354C18.562 2.9354 18.6142 3.82172 19.3962 4.60378C20.1783 5.38583 21.0646 5.43797 21.0646 5.43797M18.562 2.9354L14.7275 6.76995C14.4677 7.02968 14.3379 7.15954 14.2262 7.30273C14.0945 7.47163 13.9815 7.65439 13.8894 7.84776C13.8112 8.01169 13.7532 8.18591 13.637 8.53437L13.2651 9.65M21.0646 5.43797L17.23 9.27253C16.9703 9.53225 16.8405 9.66211 16.6973 9.7738C16.5284 9.90554 16.3456 10.0185 16.1522 10.1106C15.9883 10.1888 15.8141 10.2468 15.4656 10.363L14.35 10.7349M14.35 10.7349L13.6281 10.9755C13.4567 11.0327 13.2676 10.988 13.1398 10.8602C13.012 10.7324 12.9673 10.5433 13.0245 10.3719L13.2651 9.65M14.35 10.7349L13.2651 9.65" stroke="black" stroke-width="1.5"/>
</svg>
