<svg width="24" height="24" viewBox="0 0 24 24" fill="none" xmlns="http://www.w3.org/2000/svg">
<path d="M9 15C9.85038 15.6303 10.8846 16 12 16C13.1154 16 14.1496 15.6303 15 15" stroke="black" stroke-width="1.5" stroke-linecap="round"/>
<ellipse cx="15" cy="9.5" rx="1" ry="1.5" fill="black"/>
<ellipse cx="9" cy="9.5" rx="1" ry="1.5" fill="black"/>
<path opacity="0.5" d="M22 19.723V12.3006C22 6.61173 17.5228 2 12 2C6.47715 2 2 6.61173 2 12.3006V19.723C2 21.0453 3.35098 21.9054 4.4992 21.314C5.42726 20.836 6.5328 20.9069 7.39614 21.4998C8.36736 22.1667 9.63264 22.1667 10.6039 21.4998L10.9565 21.2576C11.5884 20.8237 12.4116 20.8237 13.0435 21.2576L13.3961 21.4998C14.3674 22.1667 15.6326 22.1667 16.6039 21.4998C17.4672 20.9069 18.5727 20.836 19.5008 21.314C20.649 21.9054 22 21.0453 22 19.723Z" stroke="black" stroke-width="1.5"/>
</svg>
