<svg width="24" height="24" viewBox="0 0 24 24" fill="none" xmlns="http://www.w3.org/2000/svg">
<path opacity="0.5" d="M2 12H22M16 12C16 13.3132 15.8965 14.6136 15.6955 15.8268C15.4945 17.0401 15.1999 18.1425 14.8284 19.0711C14.457 19.9997 14.016 20.7362 13.5307 21.2388C13.0454 21.7413 12.5253 22 12 22C11.4747 22 10.9546 21.7413 10.4693 21.2388C9.98396 20.7362 9.54301 19.9997 9.17157 19.0711C8.80014 18.1425 8.5055 17.0401 8.30448 15.8268C8.10346 14.6136 8 13.3132 8 12C8 10.6868 8.10346 9.38642 8.30448 8.17316C8.5055 6.95991 8.80014 5.85752 9.17157 4.92893C9.54301 4.00035 9.98396 3.26375 10.4693 2.7612C10.9546 2.25866 11.4747 2 12 2C12.5253 2 13.0454 2.25866 13.5307 2.76121C14.016 3.26375 14.457 4.00035 14.8284 4.92893C15.1999 5.85752 15.4945 6.95991 15.6955 8.17317C15.8965 9.38642 16 10.6868 16 12Z" stroke="black" stroke-width="1.5" stroke-linecap="round"/>
<path d="M22 12C22 13.3132 21.7413 14.6136 21.2388 15.8268C20.7362 17.0401 19.9997 18.1425 19.0711 19.0711C18.1425 19.9997 17.0401 20.7362 15.8268 21.2388C14.6136 21.7413 13.3132 22 12 22C10.6868 22 9.38642 21.7413 8.17317 21.2388C6.95991 20.7362 5.85752 19.9997 4.92893 19.0711C4.00035 18.1425 3.26375 17.0401 2.7612 15.8268C2.25866 14.6136 2 13.3132 2 12C2 10.6868 2.25866 9.38642 2.76121 8.17316C3.26375 6.95991 4.00035 5.85752 4.92893 4.92893C5.85752 4.00035 6.95991 3.26375 8.17317 2.7612C9.38642 2.25866 10.6868 2 12 2C13.3132 2 14.6136 2.25866 15.8268 2.76121C17.0401 3.26375 18.1425 4.00035 19.0711 4.92893C19.9997 5.85752 20.7362 6.95991 21.2388 8.17317C21.7413 9.38642 22 10.6868 22 12L22 12Z" stroke="black" stroke-width="1.5"/>
</svg>
