<svg width="24" height="24" viewBox="0 0 24 24" fill="none" xmlns="http://www.w3.org/2000/svg">
<path d="M9.53589 6.90909C9.53589 5.85473 10.4868 5 11.6599 5C12.8329 5 13.7839 5.85473 13.7839 6.90909C13.7839 7.40532 13.6046 7.85733 13.2925 8.19682C12.6948 8.84706 11.8015 9.50197 11.8015 10.3455V10.6299M11.8015 10.6299C12.533 10.6214 13.2674 10.8246 13.8845 11.2406L21.317 16.2509C22.6234 17.1315 21.9305 19 20.2975 19H3.70254C2.08721 19 1.38322 17.1648 2.65531 16.27L9.751 11.2787C10.3534 10.855 11.076 10.6383 11.8015 10.6299Z" stroke="black" stroke-width="1.5" stroke-linecap="round"/>
</svg>
