<svg width="24" height="24" viewBox="0 0 24 24" fill="none" xmlns="http://www.w3.org/2000/svg">
<path opacity="0.5" d="M21 18V12C21 8.25027 21 6.3754 20.0451 5.06107C19.7367 4.6366 19.3634 4.26331 18.9389 3.95491C17.6246 3 15.7497 3 12 3C8.25027 3 6.3754 3 5.06107 3.95491C4.6366 4.26331 4.26331 4.6366 3.95491 5.06107C3 6.3754 3 8.25027 3 12V18" stroke="black" stroke-width="1.5"/>
<path opacity="0.5" d="M22 15.5V17.5" stroke="black" stroke-width="1.5" stroke-linecap="round"/>
<path opacity="0.5" d="M2 15.5V17.5" stroke="black" stroke-width="1.5" stroke-linecap="round"/>
<path d="M8 13.8446C8 13.0802 8 12.698 7.82526 12.4323C7.73733 12.2985 7.62061 12.188 7.4844 12.1095C7.21371 11.9535 6.84812 11.9896 6.11694 12.0617C4.88487 12.1831 4.26884 12.2439 3.82737 12.5764C3.60394 12.7448 3.41638 12.9593 3.27646 13.2067C3 13.6955 3 14.3395 3 15.6276V17.1933C3 18.4685 3 19.1061 3.28198 19.5986C3.38752 19.7829 3.51981 19.9491 3.67416 20.0913C4.08652 20.4714 4.68844 20.5901 5.89227 20.8275C6.73944 20.9945 7.16302 21.078 7.47564 20.9021C7.591 20.8372 7.69296 20.7493 7.77572 20.6434C8 20.3565 8 19.9078 8 19.0104V13.8446Z" stroke="black" stroke-width="1.5"/>
<path d="M16 13.8446C16 13.0802 16 12.698 16.1747 12.4323C16.2627 12.2985 16.3794 12.188 16.5156 12.1095C16.7863 11.9535 17.1519 11.9896 17.8831 12.0617C19.1151 12.1831 19.7312 12.2439 20.1726 12.5764C20.3961 12.7448 20.5836 12.9593 20.7235 13.2067C21 13.6955 21 14.3395 21 15.6276V17.1933C21 18.4685 21 19.1061 20.718 19.5986C20.6125 19.7829 20.4802 19.9491 20.3258 20.0913C19.9135 20.4714 19.3116 20.5901 18.1077 20.8275C17.2606 20.9945 16.837 21.078 16.5244 20.9021C16.409 20.8372 16.307 20.7493 16.2243 20.6434C16 20.3565 16 19.9078 16 19.0104V13.8446Z" stroke="black" stroke-width="1.5"/>
</svg>
