<svg width="24" height="24" viewBox="0 0 24 24" fill="none" xmlns="http://www.w3.org/2000/svg">
<path opacity="0.5" d="M22 17V12C22 6.47715 17.5228 2 12 2C6.47715 2 2 6.47715 2 12V18" stroke="black" stroke-width="1.5"/>
<path d="M8 15.1871C8 14.6088 8 14.3196 7.93097 14.0899C7.77135 13.5588 7.35457 13.156 6.83579 13.0313C6.61143 12.9775 6.33578 13.0002 5.78447 13.0457C4.82772 13.1247 4.34935 13.1642 3.95934 13.3151C3.06004 13.6629 2.3739 14.4394 2.1131 15.4044C2 15.8229 2 16.3248 2 17.3285V17.514C2 18.5431 2 19.0577 2.12305 19.493C2.36454 20.3475 2.942 21.0543 3.71133 21.437C4.10333 21.632 4.58932 21.7123 5.56129 21.8728C6.20632 21.9793 6.52883 22.0326 6.78984 21.9788C7.30414 21.8729 7.72826 21.4938 7.90852 20.9791C8 20.7178 8 20.3763 8 19.6934V15.1871Z" stroke="black" stroke-width="1.5"/>
<path d="M16 15.1871C16 14.6088 16 14.3196 16.069 14.0899C16.2286 13.5588 16.6454 13.156 17.1642 13.0313C17.3886 12.9775 17.6642 13.0002 18.2155 13.0457C19.1723 13.1247 19.6506 13.1642 20.0407 13.3151C20.94 13.6629 21.6261 14.4394 21.8869 15.4044C22 15.8229 22 16.3248 22 17.3285V17.514C22 18.5431 22 19.0577 21.877 19.493C21.6355 20.3475 21.058 21.0543 20.2887 21.437C19.8967 21.632 19.4107 21.7123 18.4387 21.8728C17.7937 21.9793 17.4712 22.0326 17.2102 21.9788C16.6959 21.8729 16.2717 21.4938 16.0915 20.9791C16 20.7178 16 20.3763 16 19.6934V15.1871Z" stroke="black" stroke-width="1.5"/>
<path d="M12 6.5L12 11.5" stroke="black" stroke-width="1.5" stroke-linecap="round"/>
<path d="M15 8L15 10" stroke="black" stroke-width="1.5" stroke-linecap="round"/>
<path d="M9 8L9 10" stroke="black" stroke-width="1.5" stroke-linecap="round"/>
</svg>
