<svg width="24" height="24" viewBox="0 0 24 24" fill="none" xmlns="http://www.w3.org/2000/svg">
<path opacity="0.5" d="M12 12L9.0423 14.9289C6.11981 17.823 4.65857 19.27 5.06765 20.5185C5.10282 20.6258 5.14649 20.7302 5.19825 20.8307C5.80046 22 7.86697 22 12 22C16.133 22 18.1995 22 18.8017 20.8307C18.8535 20.7302 18.8972 20.6258 18.9323 20.5185C19.3414 19.27 17.8802 17.823 14.9577 14.9289L12 12ZM12 12L14.9577 9.07107C17.8802 6.177 19.3414 4.72997 18.9323 3.48149C18.8972 3.37417 18.8535 3.26977 18.8017 3.16926C18.1995 2 16.133 2 12 2C7.86697 2 5.80046 2 5.19825 3.16926C5.14649 3.26977 5.10282 3.37417 5.06765 3.48149C4.65857 4.72997 6.11981 6.177 9.0423 9.07107L12 12Z" stroke="black" stroke-width="1.5"/>
<path d="M10 5.5H14" stroke="black" stroke-width="1.5" stroke-linecap="round"/>
<path d="M10 18.5H14" stroke="black" stroke-width="1.5" stroke-linecap="round"/>
</svg>
