<svg width="24" height="24" viewBox="0 0 24 24" fill="none" xmlns="http://www.w3.org/2000/svg">
<path d="M15.6807 14.5869C19.1708 14.5869 22 11.7692 22 8.29344C22 4.81767 19.1708 2 15.6807 2C12.1907 2 9.3615 4.81767 9.3615 8.29344C9.3615 9.90338 10.0963 11.0743 10.0963 11.0743L2.45441 18.6849C2.1115 19.0264 1.63143 19.9143 2.45441 20.7339L3.33616 21.6121C3.67905 21.9048 4.54119 22.3146 5.2466 21.6121L6.27531 20.5876C7.30403 21.6121 8.4797 21.0267 8.92058 20.4412C9.65538 19.4167 8.77362 18.3922 8.77362 18.3922L9.06754 18.0995C10.4783 19.5045 11.7128 18.6849 12.1537 18.0995C12.8885 17.075 12.1537 16.0505 12.1537 16.0505C11.8598 15.465 11.272 15.465 12.0067 14.7333L12.8885 13.8551C13.5939 14.4405 15.0439 14.5869 15.6807 14.5869Z" stroke="black" stroke-width="1.5" stroke-linejoin="round"/>
<path opacity="0.5" d="M17.8851 8.29353C17.8851 9.50601 16.8982 10.4889 15.6807 10.4889C14.4633 10.4889 13.4763 9.50601 13.4763 8.29353C13.4763 7.08105 14.4633 6.09814 15.6807 6.09814C16.8982 6.09814 17.8851 7.08105 17.8851 8.29353Z" stroke="black" stroke-width="1.5"/>
</svg>
