<svg width="24" height="24" viewBox="0 0 24 24" fill="none" xmlns="http://www.w3.org/2000/svg">
<path d="M9 22H15" stroke="black" stroke-width="1.5" stroke-linecap="round"/>
<path opacity="0.5" d="M12 22V15" stroke="black" stroke-width="1.5" stroke-linecap="round"/>
<path d="M4.96143 7.44451C5.57033 5.0991 5.87478 3.9264 6.6609 3.15144C6.88879 2.92678 7.14282 2.73028 7.41753 2.56616C8.36517 2 9.57675 2 11.9999 2C14.4231 2 15.6346 2 16.5823 2.56616C16.857 2.73028 17.111 2.92678 17.3389 3.15144C18.125 3.9264 18.4295 5.0991 19.0384 7.44451L19.1226 7.76898C19.9504 10.9576 20.3643 12.5519 19.6125 13.6719C19.5375 13.7837 19.4551 13.8902 19.3658 13.9909C18.4706 15 16.8235 15 13.5292 15H10.4706C7.17635 15 5.52921 15 4.63399 13.9909C4.5447 13.8902 4.46228 13.7837 4.38729 13.6719C3.63548 12.5519 4.04939 10.9576 4.87719 7.76897L4.96143 7.44451Z" stroke="black" stroke-width="1.5"/>
<path opacity="0.5" d="M17.5 15V17" stroke="black" stroke-width="1.5" stroke-linecap="round"/>
</svg>
