<svg width="24" height="24" viewBox="0 0 24 24" fill="none" xmlns="http://www.w3.org/2000/svg">
<path d="M19.6471 15.5357H4.35294M19.6471 15.5357V8C19.6471 6.11438 19.6471 5.17157 19.0613 4.58579C18.4755 4 17.5327 4 15.6471 4H8.35294C6.46732 4 5.52451 4 4.93873 4.58579C4.35294 5.17157 4.35294 6.11438 4.35294 8V15.5357M19.6471 15.5357L21.3911 17.3358C21.4356 17.3818 21.4579 17.4048 21.4787 17.4276C21.7998 17.7802 21.9843 18.2358 21.999 18.7124C22 18.7433 22 18.7753 22 18.8393C22 18.9885 22 19.0631 21.996 19.1261C21.9325 20.1314 21.1314 20.9325 20.1261 20.996C20.0631 21 19.9885 21 19.8393 21H4.16068C4.01148 21 3.93688 21 3.87388 20.996C2.86865 20.9325 2.06749 20.1314 2.00398 19.1261C2 19.0631 2 18.9885 2 18.8393C2 18.7753 2 18.7433 2.00096 18.7124C2.01569 18.2358 2.20022 17.7802 2.52127 17.4276C2.54208 17.4048 2.56438 17.3818 2.60888 17.3358L4.35294 15.5357" stroke="black" stroke-width="1.5" stroke-linecap="round"/>
<path opacity="0.5" d="M9.5 18.5H14.5" stroke="black" stroke-width="1.5" stroke-linecap="round"/>
<path opacity="0.5" d="M12.75 6.75C12.75 7.16421 12.4142 7.5 12 7.5C11.5858 7.5 11.25 7.16421 11.25 6.75C11.25 6.33579 11.5858 6 12 6C12.4142 6 12.75 6.33579 12.75 6.75Z" fill="black"/>
</svg>
