<svg width="24" height="24" viewBox="0 0 24 24" fill="none" xmlns="http://www.w3.org/2000/svg">
<path d="M4.5 9.5C4.5 5.35786 7.85786 2 12 2C16.1421 2 19.5 5.35786 19.5 9.5C19.5 11.7206 18.5349 13.7159 17.0012 15.0892C15.8805 16.0927 15.3201 16.5945 15.1692 16.7807C14.6824 17.3815 14.6609 17.4296 14.5381 18.193C14.5 18.4297 14.5 18.7865 14.5 19.5C14.5 20.4346 14.5 20.9019 14.299 21.25C14.1674 21.478 13.978 21.6674 13.75 21.799C13.4019 22 12.9346 22 12 22C11.0654 22 10.5981 22 10.25 21.799C10.022 21.6674 9.83261 21.478 9.70096 21.25C9.5 20.9019 9.5 20.4346 9.5 19.5C9.5 18.7865 9.5 18.4297 9.46192 18.193C9.3391 17.4296 9.31762 17.3815 8.83082 16.7807C8.67987 16.5945 8.11945 16.0927 6.99876 15.0892C5.4651 13.7159 4.5 11.7206 4.5 9.5Z" stroke="black" stroke-width="1.5"/>
<path opacity="0.5" d="M14.5 19.5H9.5" stroke="black" stroke-width="1.5"/>
<path opacity="0.5" d="M12 17V15M12 15C12.7403 15 13.3866 14.5978 13.7324 14M12 15C11.2597 15 10.6134 14.5978 10.2676 14" stroke="black" stroke-width="1.5" stroke-linecap="round"/>
</svg>
