<svg width="24" height="24" viewBox="0 0 24 24" fill="none" xmlns="http://www.w3.org/2000/svg">
<path d="M13.0356 3.6516C15.2506 2.33983 16.3582 1.68395 17.1715 2.14931C17.9849 2.61468 17.9655 3.8931 17.9266 6.44993L17.9166 7.11142C17.9055 7.83799 17.9 8.20128 18.0354 8.52053C18.1708 8.83978 18.4318 9.07886 18.9538 9.55701L19.4291 9.99233C21.266 11.675 22.1845 12.5163 21.9691 13.4611C21.7538 14.4059 20.5474 14.8284 18.1344 15.6735L17.5101 15.8921C16.8244 16.1322 16.4816 16.2523 16.2186 16.4931C15.9555 16.7338 15.8021 17.0679 15.4953 17.7362L15.2159 18.3446C14.1362 20.6963 13.5963 21.8722 12.6498 21.9907C11.7034 22.1092 10.9772 21.092 9.52473 19.0574L9.14897 18.5311C8.73623 17.9529 8.52986 17.6638 8.2319 17.4934C7.93394 17.3229 7.57813 17.2903 6.8665 17.2252L6.21861 17.1659C3.71436 16.9367 2.46223 16.8221 2.0926 15.9505C1.72297 15.079 2.48063 14.0278 3.99594 11.9253L4.38797 11.3813C4.81858 10.7839 5.03388 10.4851 5.11275 10.139C5.19162 9.79295 5.12513 9.43869 4.99216 8.73015L4.87109 8.08509C4.40313 5.59173 4.16916 4.34505 4.88716 3.68788C5.60517 3.03072 6.79965 3.39828 9.18861 4.13342L9.80666 4.32361C10.4855 4.53251 10.825 4.63696 11.1717 4.59353C11.5184 4.55011 11.8331 4.36373 12.4625 3.99097L13.0356 3.6516Z" stroke="black" stroke-width="1.5"/>
<path opacity="0.5" d="M17.5303 16.4697C17.2374 16.1768 16.7626 16.1768 16.4697 16.4697C16.1768 16.7626 16.1768 17.2374 16.4697 17.5303L17.5303 16.4697ZM20.4697 21.5303C20.7626 21.8232 21.2374 21.8232 21.5303 21.5303C21.8232 21.2374 21.8232 20.7626 21.5303 20.4697L20.4697 21.5303ZM16.4697 17.5303L20.4697 21.5303L21.5303 20.4697L17.5303 16.4697L16.4697 17.5303Z" fill="black"/>
</svg>
