<svg width="24" height="24" viewBox="0 0 24 24" fill="none" xmlns="http://www.w3.org/2000/svg">
<path d="M21 18.5V20.5C21 21.3284 20.3284 22 19.5 22H17H13C7.47715 22 3 17.5228 3 12C3 6.47715 7.47715 2 13 2H17H19.5C20.3284 2 21 2.67157 21 3.5V5.5C21 6.32843 20.3284 7 19.5 7H17H13C10.2386 7 8 9.23858 8 12C8 14.7614 10.2386 17 13 17H17H19.5C20.3284 17 21 17.6716 21 18.5Z" stroke="black" stroke-width="1.5" stroke-linecap="round" stroke-linejoin="round"/>
<path opacity="0.5" d="M17 2V7M17 17V22" stroke="black" stroke-width="1.5" stroke-linecap="round" stroke-linejoin="round"/>
</svg>
