<svg width="24" height="24" viewBox="0 0 24 24" fill="none" xmlns="http://www.w3.org/2000/svg">
<path opacity="0.5" d="M10.5 22V20M14.5 22V20" stroke="black" stroke-width="1.5" stroke-linecap="round"/>
<path d="M11 20V20.75H11.75V20H11ZM14 19.25C13.5858 19.25 13.25 19.5858 13.25 20C13.25 20.4142 13.5858 20.75 14 20.75V19.25ZM17.5 5.25C17.0858 5.25 16.75 5.58579 16.75 6C16.75 6.41421 17.0858 6.75 17.5 6.75V5.25ZM7 5.25C6.58579 5.25 6.25 5.58579 6.25 6C6.25 6.41421 6.58579 6.75 7 6.75V5.25ZM9 19.25C8.58579 19.25 8.25 19.5858 8.25 20C8.25 20.4142 8.58579 20.75 9 20.75V19.25ZM15 20.75C15.4142 20.75 15.75 20.4142 15.75 20C15.75 19.5858 15.4142 19.25 15 19.25V20.75ZM10.25 11.25V20H11.75V11.25H10.25ZM11 19.25H4.23256V20.75H11V19.25ZM2.75 17.3953V11.25H1.25V17.3953H2.75ZM4.23256 19.25C3.51806 19.25 2.75 18.5323 2.75 17.3953H1.25C1.25 19.1354 2.48104 20.75 4.23256 20.75V19.25ZM6.5 6.75C8.46677 6.75 10.25 8.65209 10.25 11.25H11.75C11.75 8.04892 9.50379 5.25 6.5 5.25V6.75ZM6.5 5.25C3.49621 5.25 1.25 8.04892 1.25 11.25H2.75C2.75 8.65209 4.53323 6.75 6.5 6.75V5.25ZM21.25 11.25V17.4253H22.75V11.25H21.25ZM19.7931 19.25H14V20.75H19.7931V19.25ZM21.25 17.4253C21.25 18.5457 20.4934 19.25 19.7931 19.25V20.75C21.5305 20.75 22.75 19.1488 22.75 17.4253H21.25ZM22.75 11.25C22.75 8.04892 20.5038 5.25 17.5 5.25V6.75C19.4668 6.75 21.25 8.65209 21.25 11.25H22.75ZM7 6.75H18V5.25H7V6.75ZM9 20.75H15V19.25H9V20.75Z" fill="black"/>
<path d="M5 16H8" stroke="black" stroke-width="1.5" stroke-linecap="round"/>
<path opacity="0.5" d="M16 9.88432V5.41121M16 5.41121V2.63519C16 2.39905 16.1676 2.19612 16.3994 2.15144L16.8855 2.05779C17.4738 1.94443 18.0821 1.99855 18.6412 2.214L18.7203 2.24451C19.2746 2.4581 19.8807 2.498 20.4582 2.35891C20.7343 2.2924 21 2.50168 21 2.78573V5.00723C21 5.2442 20.8376 5.45031 20.6073 5.5058L20.5407 5.52184C19.9095 5.67387 19.247 5.63026 18.6412 5.39679C18.0821 5.18135 17.4738 5.12722 16.8855 5.24058L16 5.41121Z" stroke="black" stroke-width="1.5" stroke-linecap="round"/>
</svg>
