<svg width="24" height="24" viewBox="0 0 24 24" fill="none" xmlns="http://www.w3.org/2000/svg">
<path d="M3 8.70938C3 7.23584 3 6.49907 3.39264 6.06935C3.53204 5.91678 3.70147 5.79466 3.89029 5.71066C4.42213 5.47406 5.12109 5.70705 6.51901 6.17302C7.58626 6.52877 8.11989 6.70665 8.6591 6.68823C8.85714 6.68147 9.05401 6.65511 9.24685 6.60952C9.77191 6.48541 10.2399 6.1734 11.176 5.54937L12.5583 4.62778C13.7574 3.82843 14.3569 3.42876 15.0451 3.3366C15.7333 3.24444 16.4168 3.47229 17.7839 3.92799L18.9487 4.31624C19.9387 4.64625 20.4337 4.81126 20.7169 5.20409C21 5.59692 21 6.11871 21 7.16229V15.2907C21 16.7642 21 17.501 20.6074 17.9307C20.468 18.0833 20.2985 18.2054 20.1097 18.2894C19.5779 18.526 18.8789 18.293 17.481 17.827C16.4137 17.4713 15.8801 17.2934 15.3409 17.3118C15.1429 17.3186 14.946 17.3449 14.7532 17.3905C14.2281 17.5146 13.7601 17.8266 12.824 18.4507L11.4417 19.3722C10.2426 20.1716 9.64311 20.5713 8.95493 20.6634C8.26674 20.7556 7.58319 20.5277 6.21609 20.072L5.05132 19.6838C4.06129 19.3538 3.56627 19.1888 3.28314 18.7959C3 18.4031 3 17.8813 3 16.8377V8.70938Z" stroke="black" stroke-width="1.5"/>
<path opacity="0.5" d="M9 6.63867V20.5" stroke="black" stroke-width="1.5"/>
<path opacity="0.5" d="M15 3V17" stroke="black" stroke-width="1.5"/>
</svg>
