<svg width="24" height="24" viewBox="0 0 24 24" fill="none" xmlns="http://www.w3.org/2000/svg">
<path d="M14.5 4.5C14.5 5.88071 13.3807 7 12 7C10.6193 7 9.5 5.88071 9.5 4.5C9.5 3.11929 10.6193 2 12 2C13.3807 2 14.5 3.11929 14.5 4.5Z" stroke="black" stroke-width="1.5"/>
<path opacity="0.5" d="M21 17L19.8423 16.61C19.6151 16.5335 19.399 16.4267 19.1998 16.2925L19.0985 16.2243C18.4122 15.762 18 14.9837 18 14.1502C18 11.713 16.2563 9.63312 13.8772 9.23246L12.9864 9.08245C12.5 8.99986 11.5 9 11.0136 9.08245L10.1228 9.23246C7.74373 9.63312 6 11.713 6 14.1502C6 14.9837 5.58776 15.762 4.90145 16.2243L4.80022 16.2925C4.60096 16.4267 4.38488 16.5335 4.1577 16.61L3 17" stroke="black" stroke-width="1.5" stroke-linecap="round" stroke-linejoin="round"/>
<path d="M9.5 16L8.57549 17.2327C8.42794 17.4294 8.35416 17.5278 8.27135 17.6144C8.06638 17.8287 7.81632 17.9947 7.53929 18.1004C7.42736 18.1432 7.30805 18.173 7.06948 18.2326L5.27607 18.681C4.52611 18.8685 4 19.5423 4 20.3153C4 21.2458 4.75425 22 5.68466 22H6.36842C8.07661 22 9.73871 21.446 11.1053 20.4211L13 19M14.5 16L15.2267 16.9689C15.5701 17.4269 15.7419 17.6558 15.9648 17.825C16.0318 17.8759 16.102 17.9225 16.1749 17.9645C16.4174 18.1043 16.695 18.1738 17.2503 18.3126L18.7239 18.681C19.4739 18.8685 20 19.5423 20 20.3153C20 21.2458 19.2458 22 18.3153 22H17.3776C16.8153 22 16.5342 22 16.2554 21.9844C15.4319 21.9384 14.6172 21.7907 13.83 21.5446C13.5635 21.4613 13.3003 21.3626 12.7738 21.1652L11 20.5" stroke="black" stroke-width="1.5" stroke-linecap="round" stroke-linejoin="round"/>
</svg>
