<svg width="24" height="24" viewBox="0 0 24 24" fill="none" xmlns="http://www.w3.org/2000/svg">
<path d="M5 9C5 5.13401 8.13401 2 12 2C15.866 2 19 5.13401 19 9V15C19 18.866 15.866 22 12 22C8.13401 22 5 18.866 5 15V9Z" stroke="black" stroke-width="1.5"/>
<path d="M10.5 8.5C10.5 7.67157 11.1716 7 12 7C12.8284 7 13.5 7.67157 13.5 8.5V10.5C13.5 11.3284 12.8284 12 12 12C11.1716 12 10.5 11.3284 10.5 10.5V8.5Z" stroke="black" stroke-width="1.5"/>
<path opacity="0.5" d="M12 2V7" stroke="black" stroke-width="1.5" stroke-linecap="round"/>
</svg>
