<svg width="24" height="24" viewBox="0 0 24 24" fill="none" xmlns="http://www.w3.org/2000/svg">
<path d="M4 6V19C4 20.6569 5.34315 22 7 22H17C18.6569 22 20 20.6569 20 19V9C20 7.34315 18.6569 6 17 6H4ZM4 6V5" stroke="black" stroke-width="1.5"/>
<circle opacity="0.5" cx="12" cy="13" r="3" stroke="black" stroke-width="1.5"/>
<path d="M18 6.00002V6.75002H18.75V6.00002H18ZM15.7172 2.32614L15.6111 1.58368L15.6111 1.58368L15.7172 2.32614ZM4.91959 3.86865L4.81353 3.12619L4.81353 3.12619L4.91959 3.86865ZM5.07107 6.75002H18V5.25002H5.07107V6.75002ZM18.75 6.00002V4.30604H17.25V6.00002H18.75ZM15.6111 1.58368L4.81353 3.12619L5.02566 4.61111L15.8232 3.0686L15.6111 1.58368ZM4.81353 3.12619C3.91638 3.25435 3.25 4.0227 3.25 4.92895H4.75C4.75 4.76917 4.86749 4.63371 5.02566 4.61111L4.81353 3.12619ZM18.75 4.30604C18.75 2.63253 17.2678 1.34701 15.6111 1.58368L15.8232 3.0686C16.5763 2.96103 17.25 3.54535 17.25 4.30604H18.75ZM5.07107 5.25002C4.89375 5.25002 4.75 5.10627 4.75 4.92895H3.25C3.25 5.9347 4.06532 6.75002 5.07107 6.75002V5.25002Z" fill="black"/>
<path opacity="0.5" d="M10 19H14" stroke="black" stroke-width="1.5" stroke-linecap="round"/>
</svg>
