<svg width="24" height="24" viewBox="0 0 24 24" fill="none" xmlns="http://www.w3.org/2000/svg">
<path d="M15.9893 4.9502L16.5199 4.42014L16.5199 4.42014L15.9893 4.9502ZM19.0716 8.03562L18.541 8.56568L18.541 8.56568L19.0716 8.03562ZM8.73833 19.429L8.20773 19.9591L8.20773 19.9591L8.73833 19.429ZM4.62164 15.3081L5.15224 14.7781L5.15224 14.7781L4.62164 15.3081ZM17.5669 14.9943L17.3031 14.2922L17.3031 14.2922L17.5669 14.9943ZM15.6498 15.7146L15.9135 16.4167L15.9135 16.4167L15.6498 15.7146ZM8.33215 8.38177L7.62793 8.12375L7.62793 8.12376L8.33215 8.38177ZM9.02661 6.48636L9.73083 6.74438L9.73083 6.74438L9.02661 6.48636ZM5.84499 10.6735L6.04433 11.3965L6.04433 11.3965L5.84499 10.6735ZM7.30162 10.1351L6.86341 9.52646L6.86341 9.52646L7.30162 10.1351ZM7.67577 9.79038L8.24661 10.2768L8.24661 10.2768L7.67577 9.79038ZM14.251 16.3805L14.7419 16.9475L14.7419 16.9475L14.251 16.3805ZM13.3805 18.2012L12.6574 18.0022L12.6574 18.0022L13.3805 18.2012ZM13.9169 16.7466L13.3075 16.3094L13.3075 16.3094L13.9169 16.7466ZM2.71842 12.7552L1.96843 12.76L1.96843 12.76L2.71842 12.7552ZM2.93041 11.9521L2.28049 11.5778L2.28049 11.5778L2.93041 11.9521ZM11.3052 21.3431L11.3063 20.5931L11.3063 20.5931L11.3052 21.3431ZM12.0932 21.1347L11.7215 20.4833L11.7215 20.4833L12.0932 21.1347ZM11.6972 2.03606L11.8588 2.76845L11.8588 2.76845L11.6972 2.03606ZM15.4587 5.48026L18.541 8.56568L19.6022 7.50556L16.5199 4.42014L15.4587 5.48026ZM9.26893 18.8989L5.15224 14.7781L4.09104 15.8382L8.20773 19.9591L9.26893 18.8989ZM17.3031 14.2922L15.386 15.0125L15.9135 16.4167L17.8307 15.6964L17.3031 14.2922ZM9.03637 8.63979L9.73083 6.74438L8.32239 6.22834L7.62793 8.12375L9.03637 8.63979ZM6.04433 11.3965C6.75578 11.2003 7.29714 11.0625 7.73983 10.7438L6.86341 9.52646C6.69048 9.65097 6.46596 9.72428 5.64566 9.95044L6.04433 11.3965ZM7.62793 8.12376C7.33498 8.92332 7.24333 9.14153 7.10494 9.30391L8.24661 10.2768C8.60036 9.86175 8.78225 9.33337 9.03637 8.63979L7.62793 8.12376ZM7.73983 10.7438C7.92692 10.6091 8.09707 10.4523 8.24661 10.2768L7.10494 9.30391C7.03365 9.38757 6.95255 9.46229 6.86341 9.52646L7.73983 10.7438ZM15.386 15.0125C14.6969 15.2714 14.1716 15.4571 13.76 15.8135L14.7419 16.9475C14.9028 16.8082 15.1192 16.7152 15.9135 16.4167L15.386 15.0125ZM14.1037 18.4001C14.3289 17.5813 14.402 17.3569 14.5262 17.1838L13.3075 16.3094C12.9901 16.7517 12.8528 17.2919 12.6574 18.0022L14.1037 18.4001ZM13.76 15.8135C13.5903 15.9605 13.4384 16.1269 13.3075 16.3094L14.5262 17.1838C14.5886 17.0968 14.661 17.0175 14.7419 16.9475L13.76 15.8135ZM5.15224 14.7781C4.5061 14.1313 4.06794 13.691 3.78361 13.3338C3.4983 12.9753 3.46884 12.8201 3.4684 12.7505L1.96843 12.76C1.97211 13.3422 2.26122 13.8297 2.60998 14.2679C2.95971 14.7073 3.47111 15.2176 4.09104 15.8382L5.15224 14.7781ZM5.64566 9.95044C4.80043 10.1835 4.10391 10.3743 3.58292 10.5835C3.06337 10.792 2.57111 11.0732 2.28049 11.5778L3.58033 12.3264C3.61495 12.2663 3.71688 12.146 4.14175 11.9755C4.56518 11.8055 5.16333 11.6394 6.04433 11.3965L5.64566 9.95044ZM3.4684 12.7505C3.46746 12.6016 3.50611 12.4553 3.58033 12.3264L2.28049 11.5778C2.0735 11.9372 1.96581 12.3452 1.96843 12.76L3.4684 12.7505ZM8.20773 19.9591C8.8316 20.5836 9.3446 21.0987 9.78642 21.4506C10.227 21.8015 10.7178 22.0922 11.3041 22.0931L11.3063 20.5931C11.2369 20.593 11.0814 20.5644 10.7209 20.2773C10.3618 19.9912 9.91918 19.5499 9.26893 18.8989L8.20773 19.9591ZM12.6574 18.0022C12.4132 18.8897 12.2462 19.4924 12.075 19.9188C11.9033 20.3467 11.7821 20.4487 11.7215 20.4833L12.465 21.7861C12.974 21.4956 13.2572 21.0004 13.4671 20.4775C13.6776 19.9532 13.8694 19.2516 14.1037 18.4001L12.6574 18.0022ZM11.3041 22.0931C11.7112 22.0937 12.1114 21.9879 12.465 21.7861L11.7215 20.4833C11.595 20.5555 11.4519 20.5933 11.3063 20.5931L11.3041 22.0931ZM18.541 8.56568C19.6044 9.63022 20.3402 10.3695 20.7917 10.9788C21.2352 11.5774 21.2862 11.8959 21.2321 12.1464L22.6982 12.4634C22.888 11.5854 22.5381 10.8162 21.9968 10.0857C21.4635 9.36592 20.6304 8.53486 19.6022 7.50556L18.541 8.56568ZM17.8307 15.6964C19.1921 15.1849 20.2939 14.773 21.077 14.3384C21.8718 13.8973 22.5083 13.3416 22.6982 12.4634L21.2321 12.1464C21.1779 12.3968 21.0001 12.6655 20.3491 13.0268C19.6864 13.3946 18.7112 13.7632 17.3031 14.2922L17.8307 15.6964ZM16.5199 4.42014C15.484 3.3832 14.648 2.54353 13.9245 2.00638C13.1908 1.46165 12.4174 1.10912 11.5356 1.30367L11.8588 2.76845C12.1085 2.71335 12.4277 2.7633 13.0304 3.21075C13.6433 3.66579 14.3875 4.40801 15.4587 5.48026L16.5199 4.42014ZM9.73083 6.74438C10.2524 5.32075 10.6161 4.33403 10.9811 3.66315C11.3402 3.00338 11.6089 2.82357 11.8588 2.76845L11.5356 1.30367C10.654 1.49819 10.1005 2.14332 9.66357 2.94618C9.23273 3.73793 8.82683 4.85154 8.32239 6.22835L9.73083 6.74438Z" fill="black"/>
<path opacity="0.5" d="M1.4694 21.4697C1.17666 21.7627 1.1769 22.2376 1.46994 22.5304C1.76298 22.8231 2.23786 22.8229 2.5306 22.5298L1.4694 21.4697ZM7.18383 17.8719C7.47657 17.5788 7.47633 17.1039 7.18329 16.8112C6.89024 16.5185 6.41537 16.5187 6.12263 16.8117L7.18383 17.8719ZM2.5306 22.5298L7.18383 17.8719L6.12263 16.8117L1.4694 21.4697L2.5306 22.5298Z" fill="black"/>
</svg>
