<svg width="24" height="24" viewBox="0 0 24 24" fill="none" xmlns="http://www.w3.org/2000/svg">
<path d="M2 16.9C2 15.5906 2 14.9359 2.29472 14.455C2.45963 14.1859 2.68589 13.9596 2.955 13.7947C3.43594 13.5 4.09063 13.5 5.4 13.5H6.5C8.38562 13.5 9.32843 13.5 9.91421 14.0858C10.5 14.6716 10.5 15.6144 10.5 17.5V18.6C10.5 19.9094 10.5 20.5641 10.2053 21.045C10.0404 21.3141 9.81411 21.5404 9.545 21.7053C9.06406 22 8.40937 22 7.1 22C5.13594 22 4.15391 22 3.4325 21.5579C3.02884 21.3106 2.68945 20.9712 2.44208 20.5675C2 19.8461 2 18.8641 2 16.9Z" stroke="black" stroke-width="1.5"/>
<path d="M13.5 5.4C13.5 4.09063 13.5 3.43594 13.7947 2.955C13.9596 2.68589 14.1859 2.45963 14.455 2.29472C14.9359 2 15.5906 2 16.9 2C18.8641 2 19.8461 2 20.5675 2.44208C20.9712 2.68945 21.3106 3.02884 21.5579 3.4325C22 4.15391 22 5.13594 22 7.1C22 8.40937 22 9.06406 21.7053 9.545C21.5404 9.81411 21.3141 10.0404 21.045 10.2053C20.5641 10.5 19.9094 10.5 18.6 10.5H17.5C15.6144 10.5 14.6716 10.5 14.0858 9.91421C13.5 9.32843 13.5 8.38562 13.5 6.5V5.4Z" stroke="black" stroke-width="1.5"/>
<path opacity="0.5" d="M16.5 6.25C16.5 5.73459 16.5 5.47689 16.6291 5.29493C16.6747 5.23072 16.7307 5.17466 16.7949 5.12911C16.9769 5 17.2346 5 17.75 5C18.2654 5 18.5231 5 18.7051 5.12911C18.7693 5.17466 18.8253 5.23072 18.8709 5.29493C19 5.47689 19 5.73459 19 6.25C19 6.76541 19 7.02311 18.8709 7.20507C18.8253 7.26928 18.7693 7.32534 18.7051 7.37089C18.5231 7.5 18.2654 7.5 17.75 7.5C17.2346 7.5 16.9769 7.5 16.7949 7.37089C16.7307 7.32534 16.6747 7.26928 16.6291 7.20507C16.5 7.02311 16.5 6.76541 16.5 6.25Z" fill="black"/>
<path d="M19 13.5H17C15.5955 13.5 14.8933 13.5 14.3889 13.8371C14.1705 13.983 13.983 14.1705 13.8371 14.3889C13.5 14.8933 13.5 15.5955 13.5 17" stroke="black" stroke-width="1.5"/>
<path opacity="0.5" d="M12.75 22C12.75 22.4142 13.0858 22.75 13.5 22.75C13.9142 22.75 14.25 22.4142 14.25 22H12.75ZM12.75 19V22H14.25V19H12.75Z" fill="black"/>
<path d="M17 22H19C19.9319 22 20.3978 22 20.7654 21.8478C21.2554 21.6448 21.6448 21.2554 21.8478 20.7654C22 20.3978 22 19.9319 22 19" stroke="black" stroke-width="1.5" stroke-linejoin="round"/>
<path opacity="0.5" d="M22.75 13.5C22.75 13.0858 22.4142 12.75 22 12.75C21.5858 12.75 21.25 13.0858 21.25 13.5H22.75ZM22.75 17V13.5H21.25V17H22.75Z" fill="black"/>
<path d="M2 7.1C2 5.13594 2 4.15391 2.44208 3.4325C2.68945 3.02884 3.02884 2.68945 3.4325 2.44208C4.15391 2 5.13594 2 7.1 2C8.40937 2 9.06406 2 9.545 2.29472C9.81411 2.45963 10.0404 2.68589 10.2053 2.955C10.5 3.43594 10.5 4.09063 10.5 5.4V6.5C10.5 8.38562 10.5 9.32843 9.91421 9.91421C9.32843 10.5 8.38562 10.5 6.5 10.5H5.4C4.09063 10.5 3.43594 10.5 2.955 10.2053C2.68589 10.0404 2.45963 9.81411 2.29472 9.545C2 9.06406 2 8.40937 2 7.1Z" stroke="black" stroke-width="1.5"/>
<path opacity="0.5" d="M5 6.25C5 5.73459 5 5.47689 5.12911 5.29493C5.17466 5.23072 5.23072 5.17466 5.29493 5.12911C5.47689 5 5.73459 5 6.25 5C6.76541 5 7.02311 5 7.20507 5.12911C7.26928 5.17466 7.32534 5.23072 7.37089 5.29493C7.5 5.47689 7.5 5.73459 7.5 6.25C7.5 6.76541 7.5 7.02311 7.37089 7.20507C7.32534 7.26928 7.26928 7.32534 7.20507 7.37089C7.02311 7.5 6.76541 7.5 6.25 7.5C5.73459 7.5 5.47689 7.5 5.29493 7.37089C5.23072 7.32534 5.17466 7.26928 5.12911 7.20507C5 7.02311 5 6.76541 5 6.25Z" fill="black"/>
<path opacity="0.5" d="M5 17.75C5 17.2346 5 16.9769 5.12911 16.7949C5.17466 16.7307 5.23072 16.6747 5.29493 16.6291C5.47689 16.5 5.73459 16.5 6.25 16.5C6.76541 16.5 7.02311 16.5 7.20507 16.6291C7.26928 16.6747 7.32534 16.7307 7.37089 16.7949C7.5 16.9769 7.5 17.2346 7.5 17.75C7.5 18.2654 7.5 18.5231 7.37089 18.7051C7.32534 18.7693 7.26928 18.8253 7.20507 18.8709C7.02311 19 6.76541 19 6.25 19C5.73459 19 5.47689 19 5.29493 18.8709C5.23072 18.8253 5.17466 18.7693 5.12911 18.7051C5 18.5231 5 18.2654 5 17.75Z" fill="black"/>
<path opacity="0.5" d="M16 17.75C16 17.0478 16 16.6967 16.1685 16.4444C16.2415 16.3352 16.3352 16.2415 16.4444 16.1685C16.6967 16 17.0478 16 17.75 16C18.4522 16 18.8033 16 19.0556 16.1685C19.1648 16.2415 19.2585 16.3352 19.3315 16.4444C19.5 16.6967 19.5 17.0478 19.5 17.75C19.5 18.4522 19.5 18.8033 19.3315 19.0556C19.2585 19.1648 19.1648 19.2585 19.0556 19.3315C18.8033 19.5 18.4522 19.5 17.75 19.5C17.0478 19.5 16.6967 19.5 16.4444 19.3315C16.3352 19.2585 16.2415 19.1648 16.1685 19.0556C16 18.8033 16 18.4522 16 17.75Z" fill="black"/>
</svg>
