<svg width="24" height="24" viewBox="0 0 24 24" fill="none" xmlns="http://www.w3.org/2000/svg">
<path d="M12 11.9996L5.00197 6.33546C4.57285 5.98813 3.93869 6.05182 3.63599 6.5135C3.06678 7.38163 2.62413 8.35389 2.34078 9.41136C0.911364 14.746 4.07719 20.2294 9.41185 21.6588C14.7465 23.0882 20.2299 19.9224 21.6593 14.5877C23.0887 9.25308 19.9229 3.76971 14.5882 2.34029C11.9556 1.63489 9.28684 2.04857 7.0869 3.28972" stroke="black" stroke-width="1.5" stroke-linecap="round"/>
<path opacity="0.5" d="M9.86583 5.59455C9.47284 5.72543 9.26035 6.15012 9.39124 6.54311C9.52212 6.9361 9.9468 7.14858 10.3398 7.0177L9.86583 5.59455ZM17.25 12C17.25 14.8995 14.8995 17.25 12 17.25V18.75C15.7279 18.75 18.75 15.7279 18.75 12H17.25ZM12 17.25C9.1005 17.25 6.75 14.8995 6.75 12H5.25C5.25 15.7279 8.27208 18.75 12 18.75V17.25ZM12 6.75C14.8995 6.75 17.25 9.1005 17.25 12H18.75C18.75 8.27208 15.7279 5.25 12 5.25V6.75ZM6.75 12C6.75 10.7313 7.19908 9.56944 7.94772 8.66185L6.79057 7.70738C5.82849 8.87375 5.25 10.3703 5.25 12H6.75ZM10.3398 7.0177C10.8606 6.84424 11.4186 6.75 12 6.75V5.25C11.2554 5.25 10.5376 5.37084 9.86583 5.59455L10.3398 7.0177Z" fill="black"/>
</svg>
