<svg width="24" height="24" viewBox="0 0 24 24" fill="none" xmlns="http://www.w3.org/2000/svg">
<path opacity="0.5" d="M5 9C5 6.19108 5 4.78661 5.67412 3.77772C5.96596 3.34096 6.34096 2.96596 6.77772 2.67412C7.78661 2 9.19108 2 12 2C14.8089 2 16.2134 2 17.2223 2.67412C17.659 2.96596 18.034 3.34096 18.3259 3.77772C19 4.78661 19 6.19108 19 9V15C19 17.8089 19 19.2134 18.3259 20.2223C18.034 20.659 17.659 21.034 17.2223 21.3259C16.2134 22 14.8089 22 12 22C9.19108 22 7.78661 22 6.77772 21.3259C6.34096 21.034 5.96596 20.659 5.67412 20.2223C5 19.2134 5 17.8089 5 15V9Z" stroke="black" stroke-width="1.5"/>
<path d="M15 15.5C15 17.1569 13.6569 18.5 12 18.5C10.3431 18.5 9 17.1569 9 15.5C9 13.8431 10.3431 12.5 12 12.5C13.6569 12.5 15 13.8431 15 15.5Z" stroke="black" stroke-width="1.5"/>
<path d="M9 5.5H15" stroke="black" stroke-width="1.5" stroke-linecap="round"/>
<circle cx="9" cy="9" r="1" fill="black"/>
<circle cx="12" cy="9" r="1" fill="black"/>
<circle cx="15" cy="9" r="1" fill="black"/>
</svg>
