<svg width="24" height="24" viewBox="0 0 24 24" fill="none" xmlns="http://www.w3.org/2000/svg">
<path d="M22 5.36519L22.75 5.36519V5.36519H22ZM9.45448 13.3029L9.98369 12.7714L9.98369 12.7714L9.45448 13.3029ZM9.45448 8.54376L9.98369 9.07521L9.45448 8.54376ZM15.4285 14.4926L14.8993 13.9612L14.8993 13.9612L15.4285 14.4926ZM10.6493 14.4926L10.1201 15.0241L10.1201 15.0241L10.6493 14.4926ZM20.5152 9.42733L21.0444 9.95878L21.0444 9.95878L20.5152 9.42733ZM22 5.85801L21.25 5.85801V5.85801H22ZM14.5412 3.47846L14.012 2.94701L14.012 2.94701L14.5412 3.47846ZM13.4904 16.0931L13.2314 15.3892L13.4904 16.0931ZM7.86218 10.4352L8.55791 10.7153L7.86218 10.4352ZM19.986 8.89589L14.8993 13.9612L15.9577 15.0241L21.0444 9.95878L19.986 8.89589ZM11.1785 13.9612L9.98369 12.7714L8.92527 13.8343L10.1201 15.0241L11.1785 13.9612ZM9.98369 9.07521L15.0704 4.00991L14.012 2.94701L8.92527 8.01231L9.98369 9.07521ZM18.1256 2.75H18.6205V1.25H18.1256V2.75ZM21.25 5.36519L21.25 5.85801L22.75 5.85802L22.75 5.36519L21.25 5.36519ZM18.6205 2.75C19.4382 2.75 19.9763 2.75158 20.3751 2.80497C20.7526 2.85552 20.8911 2.93987 20.9758 3.02427L22.0343 1.96137C21.6241 1.55295 21.1169 1.3909 20.5741 1.31824C20.0527 1.24842 19.396 1.25 18.6205 1.25V2.75ZM22.75 5.36519C22.75 4.5933 22.7516 3.93861 22.6813 3.41858C22.6082 2.87664 22.4448 2.37023 22.0343 1.96137L20.9758 3.02427C21.0602 3.10823 21.1443 3.24483 21.1948 3.61928C21.2483 4.01563 21.25 4.55072 21.25 5.36519H22.75ZM9.98369 12.7714C9.40541 12.1956 9.02633 11.8158 8.78254 11.4976C8.5519 11.1966 8.51477 11.0409 8.51477 10.9233H7.01477C7.01477 11.5027 7.25926 11.9759 7.59186 12.4099C7.9113 12.8269 8.37708 13.2884 8.92527 13.8343L9.98369 12.7714ZM10.1201 15.0241C10.6683 15.57 11.1318 16.0338 11.5503 16.3518C11.9863 16.683 12.46 16.9252 13.0389 16.9252V15.4252C12.9179 15.4252 12.76 15.387 12.4578 15.1574C12.1381 14.9145 11.7567 14.537 11.1785 13.9612L10.1201 15.0241ZM21.0444 9.95878C21.7335 9.27266 22.2358 8.79124 22.4995 8.15734L21.1145 7.58125C20.9924 7.87498 20.7621 8.12304 19.986 8.89589L21.0444 9.95878ZM21.25 5.85801C21.25 6.95105 21.2366 7.28785 21.1145 7.58125L22.4995 8.15734C22.7633 7.5231 22.75 6.82826 22.75 5.85801H21.25ZM15.0704 4.00991C15.8462 3.23743 16.0957 3.00759 16.3918 2.88546L15.8199 1.49878C15.1844 1.76089 14.7014 2.26053 14.012 2.94701L15.0704 4.00991ZM18.1256 1.25C17.1506 1.25 16.455 1.23682 15.8199 1.49878L16.3918 2.88546C16.6883 2.76318 17.0286 2.75 18.1256 2.75V1.25ZM14.8993 13.9612C14.4535 14.4051 14.1216 14.735 13.8373 14.9802C13.5517 15.2266 13.3677 15.3391 13.2314 15.3892L13.7493 16.797C14.1379 16.654 14.4841 16.4032 14.817 16.1161C15.1512 15.8279 15.5259 15.4541 15.9577 15.0241L14.8993 13.9612ZM13.2314 15.3892C13.1612 15.415 13.1007 15.4252 13.0389 15.4252V16.9252C13.2864 16.9252 13.5218 16.8806 13.7493 16.797L13.2314 15.3892ZM8.92527 8.01231C8.50376 8.43205 8.1364 8.79732 7.85062 9.12306C7.5662 9.44725 7.31644 9.78252 7.16646 10.1551L8.55791 10.7153C8.61345 10.5773 8.73184 10.3931 8.97819 10.1123C9.22318 9.83306 9.5492 9.50787 9.98369 9.07521L8.92527 8.01231ZM7.16646 10.1551C7.0682 10.3991 7.01477 10.6534 7.01477 10.9233H8.51477C8.51477 10.8585 8.52629 10.7938 8.55791 10.7153L7.16646 10.1551Z" fill="black"/>
<path opacity="0.5" d="M7.70886 10.282L8.23887 9.75134L8.23807 9.75054L7.70886 10.282ZM11.4377 6.79417C11.7861 7.01815 12.2501 6.91727 12.4741 6.56883C12.6981 6.2204 12.5972 5.75637 12.2488 5.53239L11.4377 6.79417ZM11.2958 5.81139L10.8902 6.44228L10.8902 6.44228L11.2958 5.81139ZM9.06024 4.66568L9.16976 3.92372L9.16976 3.92372L9.06024 4.66568ZM4.79597 7.23376L5.32517 7.76522L5.32517 7.76522L4.79597 7.23376ZM7.50536 4.86415L7.79249 5.55701L7.79249 5.55701L7.50536 4.86415ZM5.35102 8.4527L5.62702 7.75533L5.62702 7.75533L5.35102 8.4527ZM5.45822 8.49554L5.17282 9.18911L5.45822 8.49554ZM6.87303 9.44968L7.40224 8.91823L7.40224 8.91823L6.87303 9.44968ZM6.79108 9.36862L6.26913 9.9072L6.79108 9.36862ZM5.0216 8.32233L4.74561 9.0197L4.74561 9.0197L5.0216 8.32233ZM13.735 16.3374L13.205 16.868C13.2166 16.8796 13.2286 16.8908 13.2409 16.9016L13.735 16.3374ZM18.4484 11.7059C18.223 11.3584 17.7586 11.2593 17.4111 11.4846C17.0635 11.7099 16.9644 12.1743 17.1897 12.5219L18.4484 11.7059ZM18.1724 12.659L17.5431 13.067L17.5431 13.067L18.1724 12.659ZM19.323 14.8852L20.0648 14.7748L19.323 14.8852ZM16.744 19.1315L17.2732 19.6629L17.2732 19.6629L16.744 19.1315ZM19.1237 16.4335L19.8157 16.7227L19.1237 16.4335ZM15.6917 19.0091L16.3882 18.7311L16.3882 18.7311L15.6917 19.0091ZM15.2791 18.0603L14.6217 18.4213L15.2791 18.0603ZM14.1899 16.7358L14.7191 16.2043L14.7021 16.1873L14.684 16.1715L14.1899 16.7358ZM14.9015 17.4886L15.4915 17.0257L15.4915 17.0257L14.9015 17.4886ZM16.6709 19.2043L16.1417 18.6728L16.1417 18.6729L16.6709 19.2043ZM14.0204 15.5624C13.7273 15.2697 13.2524 15.27 12.9597 15.563C12.667 15.8561 12.6673 16.331 12.9604 16.6237L14.0204 15.5624ZM7.33218 10.9658C7.62525 11.2585 8.10013 11.2582 8.39284 10.9651C8.68556 10.6721 8.68527 10.1972 8.3922 9.90448L7.33218 10.9658ZM12.2488 5.53239L11.7014 5.18049L10.8902 6.44228L11.4377 6.79417L12.2488 5.53239ZM11.7014 5.18049C11.162 4.83377 10.722 4.55029 10.3423 4.34596C9.95322 4.13655 9.58257 3.98465 9.16976 3.92372L8.95073 5.40764C9.1263 5.43355 9.32436 5.50155 9.63143 5.66681C9.94793 5.83715 10.3315 6.0831 10.8902 6.44228L11.7014 5.18049ZM5.32517 7.76522C5.81542 7.27705 6.33923 6.75566 6.80949 6.32718C7.04443 6.11312 7.25705 5.93051 7.43833 5.79096C7.63121 5.64247 7.74622 5.57619 7.79249 5.55701L7.21823 4.17129C6.98214 4.26913 6.73911 4.43624 6.52332 4.60236C6.29593 4.77741 6.04924 4.99062 5.79924 5.2184C5.29965 5.6736 4.75113 6.22 4.26677 6.70231L5.32517 7.76522ZM9.16976 3.92372C8.5128 3.82675 7.83793 3.91448 7.21823 4.17129L7.79249 5.55701C8.16883 5.40105 8.56995 5.35144 8.95073 5.40764L9.16976 3.92372ZM4.74561 9.0197L5.07503 9.15007L5.62702 7.75533L5.2976 7.62496L4.74561 9.0197ZM6.34382 9.98112L7.17965 10.8134L8.23807 9.75054L7.40224 8.91823L6.34382 9.98112ZM5.07503 9.15007C5.13063 9.17208 5.15208 9.18058 5.17282 9.18911L5.74363 7.80197C5.71136 7.78869 5.67901 7.77591 5.62702 7.75533L5.07503 9.15007ZM7.40224 8.91823C7.36266 8.87881 7.33806 8.8543 7.31302 8.83003L6.26913 9.9072C6.2852 9.92277 6.30154 9.93902 6.34382 9.98112L7.40224 8.91823ZM5.17282 9.18911C5.58092 9.35705 5.95297 9.60081 6.26913 9.9072L7.31302 8.83003C6.86006 8.39106 6.3274 8.04219 5.74363 7.80197L5.17282 9.18911ZM4.26677 6.70231C3.54282 7.42319 3.79893 8.64504 4.74561 9.0197L5.2976 7.62496C5.35173 7.64638 5.36997 7.72061 5.32517 7.76522L4.26677 6.70231ZM17.1897 12.5219L17.5431 13.067L18.8017 12.2511L18.4484 11.7059L17.1897 12.5219ZM16.2148 18.6L16.1417 18.6728L17.2001 19.7357L17.2732 19.6629L16.2148 18.6ZM17.5431 13.067C17.9038 13.6235 18.1507 14.0053 18.3217 14.3202C18.4875 14.6258 18.5553 14.8222 18.5811 14.9956L20.0648 14.7748C20.0034 14.3623 19.8504 13.9923 19.64 13.6047C19.4347 13.2264 19.1499 12.7881 18.8017 12.2511L17.5431 13.067ZM17.2732 19.6629C17.7576 19.1806 18.3063 18.6344 18.7634 18.1369C18.9922 17.888 19.2063 17.6423 19.3822 17.4158C19.5489 17.2009 19.7171 16.9586 19.8157 16.7227L18.4317 16.1443C18.4127 16.1896 18.3465 16.3038 18.1973 16.4959C18.0572 16.6764 17.8739 16.888 17.6589 17.122C17.2286 17.5903 16.705 18.1119 16.2148 18.6L17.2732 19.6629ZM18.5811 14.9956C18.6373 15.373 18.5878 15.7707 18.4317 16.1443L19.8157 16.7227C20.074 16.1044 20.1624 15.4308 20.0648 14.7748L18.5811 14.9956ZM14.684 16.1715L14.2291 15.7732L13.2409 16.9016L13.6958 17.3L14.684 16.1715ZM16.3882 18.7311C16.2023 18.2652 16.0876 17.9744 15.9365 17.6993L14.6217 18.4213C14.7185 18.5975 14.7962 18.7887 14.9951 19.2871L16.3882 18.7311ZM13.6607 17.2672C14.0415 17.6464 14.1872 17.7933 14.3115 17.9516L15.4915 17.0257C15.2977 16.7787 15.0751 16.5588 14.7191 16.2043L13.6607 17.2672ZM15.9365 17.6993C15.8068 17.4631 15.658 17.2378 15.4915 17.0257L14.3115 17.9516C14.4275 18.0996 14.5313 18.2567 14.6217 18.4213L15.9365 17.6993ZM16.1417 18.6729C16.182 18.6327 16.236 18.6237 16.2733 18.6312C16.311 18.6387 16.3638 18.6699 16.3882 18.7311L14.9951 19.2871C15.3559 20.1912 16.5258 20.4072 17.2001 19.7357L16.1417 18.6729ZM14.265 15.8067L14.0204 15.5624L12.9604 16.6237L13.205 16.868L14.265 15.8067ZM7.17886 10.8126L7.33218 10.9658L8.3922 9.90448L8.23887 9.75134L7.17886 10.8126Z" fill="black"/>
<path d="M5.5482 13L3.85646 14.6897C3.43177 15.1139 2.74321 15.1139 2.31852 14.6897C1.89383 14.2655 1.89383 13.5778 2.31852 13.1536L2.47231 13M11.0757 18.5696L9.38395 20.2593C8.95926 20.6835 8.95926 21.3712 9.38395 21.7954C9.80864 22.2195 10.4972 22.2195 10.9219 21.7954L11.0757 21.6418M6.93603 17.1588L5.22645 18.8308" stroke="black" stroke-width="1.5" stroke-linecap="round"/>
<path opacity="0.5" d="M10.6329 17.186C10.9258 16.8931 10.9258 16.4182 10.6329 16.1253C10.34 15.8324 9.86514 15.8324 9.57224 16.1253L10.6329 17.186ZM7.46982 18.2277C7.17692 18.5206 7.17692 18.9955 7.46982 19.2884C7.76271 19.5813 8.23758 19.5813 8.53048 19.2884L7.46982 18.2277ZM7.85719 14.4136C8.15009 14.1207 8.15009 13.6459 7.85719 13.353C7.5643 13.0601 7.08943 13.0601 6.79653 13.353L7.85719 14.4136ZM4.67963 15.4699C4.38674 15.7628 4.38674 16.2376 4.67963 16.5305C4.97252 16.8234 5.4474 16.8234 5.74029 16.5305L4.67963 15.4699ZM9.57224 16.1253L7.46982 18.2277L8.53048 19.2884L10.6329 17.186L9.57224 16.1253ZM6.79653 13.353L4.67963 15.4699L5.74029 16.5305L7.85719 14.4136L6.79653 13.353Z" fill="black"/>
<path opacity="0.5" d="M12.3732 12.6445C12.6667 12.3523 12.6677 11.8774 12.3754 11.5839C12.0831 11.2904 11.6083 11.2894 11.3148 11.5816L12.3732 12.6445ZM10.581 14.4292L12.3732 12.6445L11.3148 11.5816L9.52255 13.3663L10.581 14.4292ZM17.2888 8.01231C16.9216 8.378 16.3248 8.378 15.9576 8.01231L14.8992 9.0752C15.8517 10.0237 17.3947 10.0237 18.3472 9.0752L17.2888 8.01231ZM15.9576 8.01231C15.5921 7.64836 15.5921 7.0596 15.9576 6.69566L14.8992 5.63276C13.9449 6.583 13.9449 8.12496 14.8992 9.0752L15.9576 8.01231ZM15.9576 6.69566C16.3248 6.32996 16.9216 6.32996 17.2888 6.69566L18.3472 5.63276C17.3947 4.68426 15.8517 4.68426 14.8992 5.63276L15.9576 6.69566ZM17.2888 6.69566C17.6543 7.0596 17.6543 7.64836 17.2888 8.01231L18.3472 9.0752C19.3015 8.12496 19.3015 6.583 18.3472 5.63276L17.2888 6.69566Z" fill="black"/>
</svg>
