<svg width="24" height="24" viewBox="0 0 24 24" fill="none" xmlns="http://www.w3.org/2000/svg">
<path d="M3.46447 20.5355C4.92893 22 7.28595 22 12 22C16.714 22 19.0711 22 20.5355 20.5355C22 19.0711 22 16.714 22 12C22 11.6585 22 11.4878 21.9848 11.3142C21.9142 10.5049 21.586 9.71257 21.0637 9.09034C20.9516 8.95687 20.828 8.83317 20.5806 8.58578L15.4142 3.41944C15.1668 3.17206 15.0431 3.04835 14.9097 2.93631C14.2874 2.414 13.4951 2.08581 12.6858 2.01515C12.5122 2 12.3415 2 12 2C7.28595 2 4.92893 2 3.46447 3.46447C2 4.92893 2 7.28595 2 12C2 16.714 2 19.0711 3.46447 20.5355Z" stroke="black" stroke-width="1.5"/>
<path opacity="0.5" d="M14.5 13H9.5C9.03534 13 8.80302 13 8.60982 13.0384C7.81644 13.1962 7.19624 13.8164 7.03843 14.6098C7 14.803 7 15.0353 7 15.5C7 15.9647 7 16.197 7.03843 16.3902C7.19624 17.1836 7.81644 17.8038 8.60982 17.9616C8.80302 18 9.03534 18 9.5 18H14.5C14.9647 18 15.197 18 15.3902 17.9616C16.1836 17.8038 16.8038 17.1836 16.9616 16.3902C17 16.197 17 15.9647 17 15.5C17 15.0353 17 14.803 16.9616 14.6098C16.8038 13.8164 16.1836 13.1962 15.3902 13.0384C15.197 13 14.9647 13 14.5 13Z" stroke="black" stroke-width="1.5"/>
</svg>
