<svg width="24" height="24" viewBox="0 0 24 24" fill="none" xmlns="http://www.w3.org/2000/svg">
<path d="M3.32102 6.65818C3.56225 4.55367 5.15124 2.85176 7.23935 2.4614L7.4544 2.4212C10.4585 1.8596 13.541 1.8596 16.5451 2.42119L16.8681 2.48157C18.8934 2.86019 20.4367 4.50764 20.6774 6.54809C21.0957 10.0925 21.1072 13.6729 20.712 17.2199L20.6948 17.3739C20.4473 19.5951 18.7041 21.357 16.48 21.6342L15.5738 21.7471C15.079 21.8088 14.8316 21.8396 14.5845 21.8654C12.866 22.0449 11.1335 22.0449 9.41505 21.8654C9.16792 21.8396 8.92051 21.8088 8.42569 21.7471L7.41019 21.6206C5.24868 21.3512 3.55266 19.6422 3.30532 17.4844C2.89823 13.9329 2.89823 10.3467 3.30532 6.79516L3.32102 6.65818Z" stroke="black" stroke-width="1.5"/>
<path opacity="0.5" d="M17 6C16.2804 6.60263 14.49 7.5 12 7.5C9.51 7.5 7.71957 6.60263 7 6" stroke="black" stroke-width="1.5" stroke-linecap="round"/>
</svg>
