<svg width="24" height="24" viewBox="0 0 24 24" fill="none" xmlns="http://www.w3.org/2000/svg">
<path d="M12 2V18M12 22V18M12 18L15 21M12 18L9 21M15 3L12 6L9 3" stroke="black" stroke-width="1.5" stroke-linecap="round"/>
<path opacity="0.5" d="M3.33986 6.99993L6.80396 8.99993M6.80396 8.99993L12 11.9999M6.80396 8.99993L5.70588 4.90186M6.80396 8.99993L2.70588 10.098M12 11.9999L17.1963 14.9999M12 11.9999L17.1961 8.99993M12 11.9999L6.80376 14.9999M17.1963 14.9999L20.6604 16.9999M17.1963 14.9999L21.2943 13.9019M17.1963 14.9999L18.2943 19.098M20.6602 6.99993L17.1961 8.99993M17.1961 8.99993L18.2941 4.90186M17.1961 8.99993L21.2941 10.098M6.80376 14.9999L3.33966 16.9999M6.80376 14.9999L2.70569 13.9019M6.80376 14.9999L5.70569 19.098" stroke="black" stroke-width="1.5" stroke-linecap="round"/>
</svg>
