<svg width="24" height="24" viewBox="0 0 24 24" fill="none" xmlns="http://www.w3.org/2000/svg">
<path d="M5.55556 18H18.4444C20.4081 18 22 16.4081 22 14.4444V12C22 10.8954 21.1046 10 20 10C18.8954 10 18 10.8954 18 12V13.2C18 13.6418 17.6418 14 17.2 14H6.8C6.35817 14 6 13.6418 6 13.2V12C6 10.8954 5.10457 10 4 10C2.89543 10 2 10.8954 2 12V14.4444C2 16.4081 3.59188 18 5.55556 18Z" stroke="black" stroke-width="1.5"/>
<path opacity="0.5" d="M20 10C20 9.07069 20 8.60603 19.9231 8.21964C19.6075 6.63288 18.3671 5.39249 16.7804 5.07686C16.394 5 15.9293 5 15 5H9C8.07069 5 7.60603 5 7.21964 5.07686C5.63288 5.39249 4.39249 6.63288 4.07686 8.21964C4 8.60603 4 9.07069 4 10" stroke="black" stroke-width="1.5"/>
<path opacity="0.5" d="M20 19V18M4 19V18" stroke="black" stroke-width="1.5" stroke-linecap="round"/>
</svg>
