<svg width="24" height="24" viewBox="0 0 24 24" fill="none" xmlns="http://www.w3.org/2000/svg">
<path d="M12.5497 3.43948C12.118 2.50904 11.9022 2.04382 11.5213 2.00452C11.1405 1.96522 10.8468 2.37786 10.2595 3.20314L10.1075 3.41665C9.9406 3.65117 9.85715 3.76843 9.73698 3.83908C9.61681 3.90973 9.47352 3.92577 9.18695 3.95785L8.92606 3.98706C7.91761 4.09997 7.41339 4.15643 7.26346 4.50779C7.11353 4.85916 7.41719 5.27274 8.0245 6.0999L8.18162 6.31389C8.3542 6.54895 8.44049 6.66647 8.4718 6.80408C8.5031 6.94169 8.47588 7.08381 8.42143 7.36804L8.37186 7.62681C8.18025 8.62703 8.08445 9.12714 8.37265 9.3836C8.66086 9.64006 9.1422 9.48302 10.1049 9.16895L10.3539 9.0877C10.6275 8.99845 10.7643 8.95383 10.9038 8.96823C11.0433 8.98262 11.1698 9.05441 11.4227 9.19799L11.653 9.32871C12.543 9.83397 12.988 10.0866 13.316 9.89374C13.6441 9.70087 13.6379 9.19024 13.6256 8.16897L13.6224 7.90476C13.6189 7.61455 13.6171 7.46944 13.672 7.34073C13.727 7.21202 13.8323 7.11427 14.0431 6.91878L14.235 6.7408C14.9767 6.05285 15.3475 5.70887 15.262 5.33322C15.1766 4.95756 14.6914 4.79901 13.7211 4.4819L13.4701 4.39986C13.1943 4.30975 13.0565 4.26469 12.9509 4.17074C12.8453 4.0768 12.784 3.9446 12.6613 3.6802L12.5497 3.43948Z" stroke="black" stroke-width="1.5"/>
<path d="M10.9998 22C10.6665 19.8333 10.1998 14.8 10.9998 12" stroke="black" stroke-width="1.5" stroke-linecap="round"/>
<path opacity="0.5" d="M14.5 22C14.5 18.6667 16 13 22 9.5" stroke="black" stroke-width="1.5" stroke-linecap="round"/>
<path opacity="0.5" d="M5 13.2681C5 13.2681 5.64961 14.0159 6.22258 14.1694C6.79555 14.3229 7.73205 14.0001 7.73205 14.0001C7.73205 14.0001 6.98422 14.6497 6.83069 15.2227C6.67717 15.7957 7 16.7322 7 16.7322C7 16.7322 6.35038 15.9843 5.77741 15.8308C5.20444 15.6773 4.26794 16.0001 4.26794 16.0001C4.26794 16.0001 5.01577 15.3505 5.1693 14.7775C5.32283 14.2046 5 13.2681 5 13.2681Z" stroke="black" stroke-linejoin="round"/>
</svg>
