<svg width="24" height="24" viewBox="0 0 24 24" fill="none" xmlns="http://www.w3.org/2000/svg">
<path d="M2 14C2 10.2288 2 8.34315 3.17157 7.17157C4.34315 6 6.22876 6 10 6H14C17.7712 6 19.6569 6 20.8284 7.17157C22 8.34315 22 10.2288 22 14C22 17.7712 22 19.6569 20.8284 20.8284C19.6569 22 17.7712 22 14 22H10C6.22876 22 4.34315 22 3.17157 20.8284C2 19.6569 2 17.7712 2 14Z" stroke="black" stroke-width="1.5"/>
<path opacity="0.5" d="M16 6C16 4.11438 16 3.17157 15.4142 2.58579C14.8284 2 13.8856 2 12 2C10.1144 2 9.17157 2 8.58579 2.58579C8 3.17157 8 4.11438 8 6" stroke="black" stroke-width="1.5"/>
<path opacity="0.5" d="M2 11L22 11" stroke="black" stroke-width="1.5" stroke-linecap="round"/>
<path opacity="0.5" d="M2 17L22 17" stroke="black" stroke-width="1.5" stroke-linecap="round"/>
</svg>
