<svg width="24" height="24" viewBox="0 0 24 24" fill="none" xmlns="http://www.w3.org/2000/svg">
<path d="M6.18177 10.5455L6.7121 11.0758L6.7121 11.0758L6.18177 10.5455ZM13.4545 17.8182L13.9848 18.3485L13.9848 18.3485L13.4545 17.8182ZM17.7373 9.0101L17.207 9.54043L17.207 9.54043L17.7373 9.0101ZM19.0238 10.5692L19.7286 10.3127L19.0238 10.5692ZM17.7373 13.5354L17.207 13.005L17.207 13.005L17.7373 13.5354ZM19.0238 11.9763L19.7286 12.2328L19.0238 11.9763ZM14.9898 6.26263L15.5202 5.7323L14.9898 6.26263ZM13.4308 4.97611L13.1743 5.68088L13.4308 4.97611ZM10.4646 6.26263L10.9949 6.79296L10.9949 6.79296L10.4646 6.26263ZM12.0237 4.97611L12.2802 5.68088L12.0237 4.97611ZM19.4696 7.43942C19.7625 7.73231 20.2374 7.73231 20.5303 7.43942C20.8232 7.14653 20.8232 6.67165 20.5303 6.37876L19.4696 7.43942ZM17.6212 3.46967C17.3283 3.17678 16.8534 3.17678 16.5605 3.46967C16.2676 3.76256 16.2676 4.23744 16.5605 4.53033L17.6212 3.46967ZM14.4595 6.79296L17.207 9.54043L18.2677 8.47977L15.5202 5.7323L14.4595 6.79296ZM17.207 13.005L12.9242 17.2879L13.9848 18.3485L18.2677 14.0657L17.207 13.005ZM6.7121 11.0758L10.9949 6.79296L9.93427 5.7323L5.65144 10.0151L6.7121 11.0758ZM6.7121 17.2879C4.99668 15.5724 4.99668 12.7912 6.7121 11.0758L5.65144 10.0151C3.35024 12.3163 3.35024 16.0473 5.65144 18.3485L6.7121 17.2879ZM12.9242 17.2879C11.2087 19.0033 8.42751 19.0033 6.7121 17.2879L5.65144 18.3485C7.95264 20.6497 11.6836 20.6497 13.9848 18.3485L12.9242 17.2879ZM17.207 9.54043C17.5919 9.92536 17.8507 10.1849 18.0359 10.4003C18.2159 10.6099 18.2849 10.7319 18.3191 10.8257L19.7286 10.3127C19.6068 9.97792 19.4094 9.69728 19.1736 9.42281C18.9429 9.15428 18.6364 8.84854 18.2677 8.47977L17.207 9.54043ZM18.2677 14.0657C18.6364 13.6969 18.9429 13.3912 19.1736 13.1226C19.4094 12.8482 19.6068 12.5675 19.7286 12.2328L18.3191 11.7198C18.2849 11.8136 18.2159 11.9356 18.0359 12.1451C17.8507 12.3606 17.5919 12.6201 17.207 13.005L18.2677 14.0657ZM18.3191 10.8257C18.4242 11.1145 18.4242 11.431 18.3191 11.7198L19.7286 12.2328C19.9543 11.6126 19.9543 10.9328 19.7286 10.3127L18.3191 10.8257ZM15.5202 5.7323C15.1514 5.36353 14.8457 5.05708 14.5771 4.82636C14.3027 4.59053 14.022 4.39317 13.6873 4.27134L13.1743 5.68088C13.268 5.71501 13.3901 5.78407 13.5996 5.96408C13.8151 6.1492 14.0746 6.40802 14.4595 6.79296L15.5202 5.7323ZM10.9949 6.79296C11.3799 6.40802 11.6394 6.1492 11.8548 5.96408C12.0644 5.78407 12.1864 5.71501 12.2802 5.68088L11.7672 4.27134C11.4324 4.39317 11.1518 4.59053 10.8773 4.82636C10.6088 5.05708 10.303 5.36353 9.93427 5.7323L10.9949 6.79296ZM13.6873 4.27134C13.0671 4.04562 12.3873 4.04562 11.7672 4.27134L12.2802 5.68088C12.5689 5.57578 12.8855 5.57578 13.1743 5.68088L13.6873 4.27134ZM18.0151 5.98488L19.4696 7.43942L20.5303 6.37876L19.0757 4.92422L18.0151 5.98488ZM19.0757 4.92422L17.6212 3.46967L16.5605 4.53033L18.0151 5.98488L19.0757 4.92422Z" fill="black"/>
<path d="M17.091 14.1819L9.81824 6.90918" stroke="black" stroke-width="1.5" stroke-linecap="round"/>
<path opacity="0.5" d="M6.18182 17.8184L4 20.0002" stroke="black" stroke-width="1.5" stroke-linecap="round"/>
<path opacity="0.5" d="M15.8332 7.10608C15.5403 7.39897 15.5403 7.87384 15.8332 8.16674C16.1261 8.45963 16.601 8.45963 16.8939 8.16674L15.8332 7.10608ZM19.0757 5.98492C19.3686 5.69203 19.3686 5.21715 19.0757 4.92426C18.7828 4.63137 18.3079 4.63137 18.015 4.92426L19.0757 5.98492ZM16.8939 8.16674L19.0757 5.98492L18.015 4.92426L15.8332 7.10608L16.8939 8.16674Z" fill="black"/>
<path opacity="0.5" d="M14.3787 16.894C14.6716 17.1869 15.1464 17.1869 15.4393 16.894C15.7322 16.6011 15.7322 16.1262 15.4393 15.8333L14.3787 16.894ZM12.554 12.9479C12.2611 12.655 11.7862 12.655 11.4933 12.9479C11.2004 13.2408 11.2004 13.7157 11.4933 14.0086L12.554 12.9479ZM12.7423 18.5303C13.0352 18.8232 13.5101 18.8232 13.803 18.5303C14.0959 18.2374 14.0959 17.7626 13.803 17.4697L12.7423 18.5303ZM12.157 15.8237C11.8641 15.5308 11.3893 15.5308 11.0964 15.8237C10.8035 16.1166 10.8035 16.5915 11.0964 16.8844L12.157 15.8237ZM15.4393 15.8333L12.554 12.9479L11.4933 14.0086L14.3787 16.894L15.4393 15.8333ZM13.803 17.4697L12.157 15.8237L11.0964 16.8844L12.7423 18.5303L13.803 17.4697Z" fill="black"/>
</svg>
