<svg width="24" height="24" viewBox="0 0 24 24" fill="none" xmlns="http://www.w3.org/2000/svg">
<path d="M12.2429 6.18353L8.55917 8.27415C7.72801 8.74586 7.31243 8.98172 7.20411 9.38603C7.09579 9.79034 7.33779 10.2024 7.82179 11.0264L8.41749 12.0407C8.88853 12.8427 9.12405 13.2437 9.51996 13.3497C9.91586 13.4558 10.3203 13.2263 11.1292 12.7672L14.8646 10.6472M7.05634 9.72257L3.4236 11.7843C2.56736 12.2702 2.13923 12.5132 2.02681 12.9256C1.91438 13.3381 2.16156 13.7589 2.65591 14.6006C3.15026 15.4423 3.39744 15.8631 3.81702 15.9736C4.2366 16.0842 4.66472 15.8412 5.52096 15.3552L9.1537 13.2935M21.3441 5.18488L20.2954 3.39939C19.8011 2.55771 19.5539 2.13687 19.1343 2.02635C18.7147 1.91584 18.2866 2.15881 17.4304 2.64476L13.7467 4.73538C12.9155 5.20709 12.4999 5.44294 12.3916 5.84725C12.2833 6.25157 12.5253 6.6636 13.0093 7.48766L14.1293 9.39465C14.6004 10.1966 14.8359 10.5976 15.2318 10.7037C15.6277 10.8098 16.0322 10.5802 16.841 10.1212L20.5764 8.00122C21.4326 7.51527 21.8608 7.2723 21.9732 6.85985C22.0856 6.44741 21.8384 6.02657 21.3441 5.18488Z" stroke="black" stroke-width="1.5" stroke-linejoin="round"/>
<path opacity="0.5" d="M16 22L12 12.5L8 22" stroke="black" stroke-width="1.5" stroke-linecap="round" stroke-linejoin="round"/>
</svg>
