<svg width="24" height="24" viewBox="0 0 24 24" fill="none" xmlns="http://www.w3.org/2000/svg">
<path d="M3.33995 16.9997C6.10137 21.7826 12.2173 23.4214 17.0002 20.66C18.9498 19.5344 20.377 17.8514 21.1967 15.9286C22.388 13.1341 22.2963 9.83304 20.6605 6.99972C19.0246 4.1664 16.2117 2.43642 13.196 2.07088C11.1209 1.81935 8.94981 2.21386 7.00021 3.33946C2.21728 6.10089 0.578527 12.2168 3.33995 16.9997Z" stroke="black" stroke-width="1.5"/>
<path opacity="0.5" d="M13.1958 2.07129C13.1958 2.07129 12.9641 5.67 15.4641 10.0001C17.9641 14.3303 21.1965 15.929 21.1965 15.929M2.80347 8.07129C2.80347 8.07129 6.03588 9.67 8.53588 14.0001C11.0359 18.3303 10.8042 21.929 10.8042 21.929" stroke="black" stroke-width="1.5"/>
</svg>
