<svg width="24" height="24" viewBox="0 0 24 24" fill="none" xmlns="http://www.w3.org/2000/svg">
<path d="M3.33971 17.0002C6.10113 21.7831 12.217 23.4219 17 20.6605C18.9496 19.5349 20.3768 17.8519 21.1965 15.929C22.3878 13.1346 22.296 9.83352 20.6602 7.00021C19.0244 4.16689 16.2114 2.43691 13.1957 2.07137C11.1207 1.81984 8.94957 2.21434 6.99996 3.33995C2.21703 6.10137 0.578283 12.2173 3.33971 17.0002Z" stroke="black" stroke-width="1.5"/>
<path opacity="0.5" d="M13.1958 2.07129C13.1958 2.07129 12.0981 6.17 14.5981 10.5001C17.0981 14.8303 21.1965 15.929 21.1965 15.929M2.80347 8.07129C2.80347 8.07129 6.90191 9.17 9.40191 13.5001C11.9019 17.8303 10.8042 21.929 10.8042 21.929" stroke="black" stroke-width="1.5" stroke-dasharray="1.5 2"/>
</svg>
