<svg width="24" height="24" viewBox="0 0 24 24" fill="none" xmlns="http://www.w3.org/2000/svg">
<path d="M17.0955 10L18.396 11.3006M13.896 13.1994L15.1966 14.5M10.6868 16.4087L11.9873 17.7093M5.57866 20.5576L5.96229 20.1739C6.39492 19.7413 7.00076 19.5288 7.60886 19.5964L8.40799 19.6851C9.32013 19.7865 10.2289 19.4677 10.8778 18.8188L19.8202 9.87642C21.3933 8.30334 21.3933 5.75288 19.8202 4.17981C18.2471 2.60673 15.6967 2.60673 14.1236 4.17981L5.18123 13.1222C4.53228 13.7711 4.2135 14.6799 4.31485 15.592L4.40364 16.3911C4.47121 16.9992 4.25869 17.6051 3.82606 18.0377L3.44243 18.4213C2.85252 19.0112 2.85252 19.9677 3.44243 20.5576C4.03233 21.1475 4.98875 21.1475 5.57866 20.5576Z" stroke="black" stroke-width="1.5" stroke-linecap="round" stroke-linejoin="round"/>
<path opacity="0.5" d="M9 15L15.5 8.5" stroke="black" stroke-width="1.5" stroke-linecap="round"/>
</svg>
