<svg width="24" height="24" viewBox="0 0 24 24" fill="none" xmlns="http://www.w3.org/2000/svg">
<circle cx="15" cy="4" r="2" stroke="black" stroke-width="1.5"/>
<path d="M11 16.0002V14.3667C11 13.8177 10.7561 13.297 10.3344 12.9455L9.33793 12.1152C8.61946 11.5164 8.57018 10.43 9.2315 9.76871L10.8855 8.11473C11.4193 7.5809 11.2452 6.67671 10.5513 6.37932C9.26627 5.82861 7.79304 5.94205 6.60752 6.68301L4.5 8.00021" stroke="black" stroke-width="1.5" stroke-linecap="round"/>
<path opacity="0.5" d="M7 14L6.67157 14.3284C6.09351 14.9065 5.80448 15.1955 5.43694 15.3478C5.0694 15.5 4.66065 15.5 3.84315 15.5H3" stroke="black" stroke-width="1.5" stroke-linecap="round"/>
<path opacity="0.5" d="M12.5 10H15.5" stroke="black" stroke-width="1.5" stroke-linecap="round"/>
<path d="M19.4888 22.0001H3.08684C2.48659 22.0001 2 21.5135 2 20.9133C2 20.3853 2.37943 19.9337 2.89949 19.8427L19.0559 17.0153C20.5926 16.7464 22 17.9289 22 19.4889C22 20.8758 20.8757 22.0001 19.4888 22.0001Z" stroke="black" stroke-width="1.5" stroke-linejoin="round"/>
<path opacity="0.5" d="M19.2916 8.88902L18.5499 8.77777L18.5499 8.77777L19.2916 8.88902ZM20.8773 7.22454L21.0244 7.95998L21.0244 7.95998L20.8773 7.22454ZM22.1471 7.73544C22.5533 7.6542 22.8167 7.25908 22.7354 6.85291C22.6542 6.44674 22.2591 6.18333 21.8529 6.26456L22.1471 7.73544ZM18.7417 17.6113L20.0333 9.00028L18.5499 8.77777L17.2583 17.3887L18.7417 17.6113ZM21.0244 7.95998L22.1471 7.73544L21.8529 6.26456L20.7302 6.48911L21.0244 7.95998ZM20.0333 9.00028C20.0862 8.64782 20.1178 8.44487 20.1568 8.2985C20.1744 8.23252 20.1885 8.19883 20.1965 8.18288C20.2002 8.17549 20.2024 8.17218 20.2029 8.17144C20.2034 8.17082 20.2034 8.17074 20.2037 8.17041L19.1177 7.13579C18.8906 7.37412 18.7782 7.64686 18.7076 7.91172C18.6418 8.15825 18.5978 8.45884 18.5499 8.77777L20.0333 9.00028ZM20.7302 6.48911C20.414 6.55235 20.1159 6.61086 19.8728 6.68852C19.6117 6.77197 19.3447 6.89746 19.1177 7.13579L20.2037 8.17041C20.2041 8.17009 20.2041 8.17 20.2047 8.16955C20.2054 8.169 20.2086 8.1666 20.2159 8.16256C20.2314 8.15385 20.2644 8.13813 20.3294 8.11734C20.4737 8.07123 20.6749 8.02987 21.0244 7.95998L20.7302 6.48911Z" fill="black"/>
</svg>
