<svg width="24" height="24" viewBox="0 0 24 24" fill="none" xmlns="http://www.w3.org/2000/svg">
<path d="M2 12C2 7.28595 2 4.92893 3.17157 3.46447C4.34315 2 6.22876 2 10 2H14C17.7712 2 19.6569 2 20.8284 3.46447C22 4.92893 22 7.28595 22 12C22 16.714 22 19.0711 20.8284 20.5355C19.6569 22 17.7712 22 14 22H10C6.22876 22 4.34315 22 3.17157 20.5355C2 19.0711 2 16.714 2 12Z" stroke="black" stroke-width="1.5"/>
<rect x="6" y="8" width="8" height="8" rx="4" stroke="black" stroke-width="1.5"/>
<path opacity="0.5" d="M14.6646 16.3292C14.2941 16.5144 14.1439 16.9649 14.3292 17.3354C14.5144 17.7059 14.9649 17.8561 15.3354 17.6708L14.6646 16.3292ZM15.8944 16.5528L15.559 15.882L15.559 15.882L15.8944 16.5528ZM15.3354 17.6708L16.2298 17.2236L15.559 15.882L14.6646 16.3292L15.3354 17.6708ZM17.75 14.7639V10.5H16.25V14.7639H17.75ZM16.2298 17.2236C17.1615 16.7578 17.75 15.8056 17.75 14.7639H16.25C16.25 15.2374 15.9825 15.6702 15.559 15.882L16.2298 17.2236ZM17 9.75C16.5858 9.75 16.25 9.41421 16.25 9H14.75C14.75 10.2426 15.7574 11.25 17 11.25V9.75ZM17.75 9C17.75 9.41421 17.4142 9.75 17 9.75V11.25C18.2426 11.25 19.25 10.2426 19.25 9H17.75ZM17 8.25C17.4142 8.25 17.75 8.58579 17.75 9H19.25C19.25 7.75736 18.2426 6.75 17 6.75V8.25ZM17 6.75C15.7574 6.75 14.75 7.75736 14.75 9H16.25C16.25 8.58579 16.5858 8.25 17 8.25V6.75Z" fill="black"/>
</svg>
