<svg width="24" height="24" viewBox="0 0 24 24" fill="none" xmlns="http://www.w3.org/2000/svg">
<path opacity="0.5" d="M11.5697 12.5532L12.1617 13.0137L12.1617 13.0137L11.5697 12.5532ZM11.3142 3.64586L12.0065 3.93432L12.0065 3.93432L11.3142 3.64586ZM18.555 14.5045C18.8336 14.198 18.811 13.7237 18.5045 13.445C18.198 13.1664 17.7237 13.189 17.445 13.4955L18.555 14.5045ZM17.7087 14.3204L17.1538 13.8159L17.1538 13.8159L17.7087 14.3204ZM21.2426 10.7426L21.7773 10.2166L21.773 10.2123L21.2426 10.7426ZM21.4531 12.026C21.7436 12.3213 22.2184 12.3251 22.5137 12.0346C22.809 11.7442 22.8129 11.2693 22.5224 10.974L21.4531 12.026ZM5.7327 19.0428C5.31848 19.0428 4.9827 19.3786 4.9827 19.7928C4.9827 20.207 5.31848 20.5428 5.7327 20.5428V19.0428ZM3.5 15.75C3.08579 15.75 2.75 16.0858 2.75 16.5C2.75 16.9142 3.08579 17.25 3.5 17.25V15.75ZM8.19231 3.35575C8.35162 2.9734 8.17081 2.5343 7.78846 2.37498C7.40611 2.21567 6.96701 2.39648 6.80769 2.77883L8.19231 3.35575ZM6.80769 15.2885C6.96701 15.6708 7.40611 15.8516 7.78846 15.6923C8.17081 15.533 8.35162 15.0939 8.19231 14.7115L6.80769 15.2885ZM11 5.75C10.5858 5.75 10.25 6.08579 10.25 6.5C10.25 6.91421 10.5858 7.25 11 7.25V5.75ZM19.876 16.916C20.1057 17.2607 20.5714 17.3538 20.916 17.124C21.2607 16.8943 21.3538 16.4286 21.124 16.084L19.876 16.916ZM12 12.75H12.0917V11.25H12V12.75ZM11.408 11.5395L10.9777 12.0928L12.1617 13.0137L12.592 12.4605L11.408 11.5395ZM11.3077 1.71154L10.6219 3.35739L12.0065 3.93432L12.6923 2.28846L11.3077 1.71154ZM17.445 13.4955L17.1538 13.8159L18.2637 14.8249L18.555 14.5045L17.445 13.4955ZM20.708 11.2686L21.4531 12.026L22.5224 10.974L21.7773 10.2167L20.708 11.2686ZM17.1538 13.8159C14.2838 16.9729 9.96086 19.0428 5.7327 19.0428V20.5428C10.4211 20.5428 15.1357 18.2657 18.2637 14.8249L17.1538 13.8159ZM10.6219 3.35739C9.39039 6.31308 9.66695 9.68222 11.364 12.3975L12.636 11.6025C11.1965 9.29929 10.9619 6.44145 12.0065 3.93432L10.6219 3.35739ZM10.9777 12.0928C9.18293 14.4003 6.42334 15.75 3.5 15.75V17.25C6.88622 17.25 10.0828 15.6866 12.1617 13.0137L10.9777 12.0928ZM6.80769 2.77883C5.13077 6.80345 5.13077 11.2638 6.80769 15.2885L8.19231 14.7115C6.66923 11.0562 6.66923 7.01114 8.19231 3.35575L6.80769 2.77883ZM11 7.25C14.6428 7.25 18.1364 8.6971 20.7123 11.273L21.773 10.2123C18.9158 7.35514 15.0406 5.75 11 5.75V7.25ZM12.0917 12.75C15.2197 12.75 18.1408 14.3133 19.876 16.916L21.124 16.084C19.1107 13.064 15.7213 11.25 12.0917 11.25V12.75Z" fill="black"/>
<path d="M12 21.25C6.89137 21.25 2.75 17.1086 2.75 12H1.25C1.25 17.9371 6.06294 22.75 12 22.75V21.25ZM21.25 12C21.25 17.1086 17.1086 21.25 12 21.25V22.75C17.9371 22.75 22.75 17.9371 22.75 12H21.25ZM12 2.75C17.1086 2.75 21.25 6.89137 21.25 12H22.75C22.75 6.06294 17.9371 1.25 12 1.25V2.75ZM12 1.25C6.06294 1.25 1.25 6.06294 1.25 12H2.75C2.75 6.89137 6.89137 2.75 12 2.75V1.25Z" fill="black"/>
</svg>
