<svg width="24" height="24" viewBox="0 0 24 24" fill="none" xmlns="http://www.w3.org/2000/svg">
<circle opacity="0.5" cx="11.5" cy="4.5" r="2.5" stroke="black" stroke-width="1.5"/>
<path d="M10.3413 11.5869L11.0876 11.6615L11.0876 11.6615L10.3413 11.5869ZM11.8255 17.904L11.1906 18.3031L11.1906 18.3031L11.8255 17.904ZM13.7654 22.3992C13.9859 22.7498 14.4489 22.8554 14.7995 22.635C15.1502 22.4145 15.2558 21.9515 15.0354 21.6008L13.7654 22.3992ZM6.30394 13.1323L7.03608 13.295L7.03608 13.295L6.30394 13.1323ZM5.26786 14.3373C5.178 14.7417 5.43295 15.1423 5.8373 15.2321C6.24165 15.322 6.64228 15.067 6.73214 14.6627L5.26786 14.3373ZM17.2702 13.2433L17.033 12.5318L17.033 12.5318L17.2702 13.2433ZM18.2372 13.7115C18.6301 13.5805 18.8425 13.1558 18.7115 12.7628C18.5805 12.3699 18.1558 12.1575 17.7628 12.2885L18.2372 13.7115ZM12.5815 10.0051L12.5278 10.7532L12.5278 10.7532L12.5815 10.0051ZM14.4196 11.6785L13.692 11.8604L13.692 11.8604L14.4196 11.6785ZM14.3391 11.3774L13.6263 11.6109L13.6263 11.6109L14.3391 11.3774ZM7.35289 10.4399L7.82218 11.0249L7.82218 11.0249L7.35289 10.4399ZM14.5269 12.0752L15.2355 11.8294L15.2355 11.8293L14.5269 12.0752ZM16.8779 13.3657L16.7049 12.6359L16.7049 12.6359L16.8779 13.3657ZM9.75372 9.92537L9.59503 11.5123L11.0876 11.6615L11.2463 10.0746L9.75372 9.92537ZM11.1906 18.3031L13.7654 22.3992L15.0354 21.6008L12.4605 17.5048L11.1906 18.3031ZM10.5 9.25H10.2087V10.75H10.5V9.25ZM5.5718 12.9696L5.26786 14.3373L6.73214 14.6627L7.03608 13.295L5.5718 12.9696ZM10.5 10.75H12.2698V9.25H10.5V10.75ZM17.5073 13.9548L18.2372 13.7115L17.7628 12.2885L17.033 12.5318L17.5073 13.9548ZM12.2698 10.75C12.442 10.75 12.4897 10.7505 12.5278 10.7532L12.6351 9.25704C12.5304 9.24953 12.4179 9.25 12.2698 9.25V10.75ZM15.1472 11.4966C15.1113 11.3529 15.0845 11.2437 15.0518 11.1439L13.6263 11.6109C13.6382 11.6472 13.6503 11.6934 13.692 11.8604L15.1472 11.4966ZM12.5278 10.7532C13.0342 10.7895 13.4683 11.1284 13.6263 11.6109L15.0518 11.1439C14.7041 10.0826 13.7491 9.33691 12.6351 9.25704L12.5278 10.7532ZM10.2087 9.25C9.45815 9.25 8.82796 9.24871 8.31924 9.31045C7.79022 9.37465 7.30738 9.51494 6.88359 9.85489L7.82218 11.0249C7.9468 10.925 8.12273 10.8453 8.49995 10.7995C8.89746 10.7513 9.42096 10.75 10.2087 10.75V9.25ZM7.03608 13.295C7.20696 12.526 7.32178 12.0153 7.4551 11.6377C7.58162 11.2794 7.69756 11.1249 7.82218 11.0249L6.88359 9.85489C6.45981 10.1948 6.21812 10.6357 6.04069 11.1382C5.87007 11.6215 5.73461 12.2369 5.5718 12.9696L7.03608 13.295ZM13.692 11.8604C13.7401 12.0527 13.7755 12.1973 13.8184 12.321L15.2355 11.8293C15.2201 11.7848 15.2034 11.7211 15.1472 11.4966L13.692 11.8604ZM17.033 12.5318C16.8135 12.6049 16.7507 12.6251 16.7049 12.6359L17.0509 14.0955C17.1783 14.0653 17.3193 14.0175 17.5073 13.9548L17.033 12.5318ZM13.8184 12.321C14.2809 13.6543 15.6777 14.4211 17.0509 14.0955L16.7049 12.6359C16.0807 12.7839 15.4458 12.4354 15.2355 11.8294L13.8184 12.321ZM9.59503 11.5123C9.43093 13.1533 9.32238 14.1447 9.54827 15.1061L11.0085 14.763C10.853 14.1013 10.9135 13.4019 11.0876 11.6615L9.59503 11.5123ZM12.4605 17.5048C11.5296 16.024 11.164 15.4248 11.0085 14.763L9.54827 15.1061C9.77416 16.0676 10.3128 16.9069 11.1906 18.3031L12.4605 17.5048Z" fill="black"/>
<path opacity="0.5" d="M9 17.5L6 22" stroke="black" stroke-width="1.5" stroke-linecap="round"/>
</svg>
