<svg width="24" height="24" viewBox="0 0 24 24" fill="none" xmlns="http://www.w3.org/2000/svg">
<path d="M22 8.78594C20.4123 8.4341 19.5955 7.56969 18.9199 6.60834C18.4965 6.00591 17.5655 6.04252 17.1055 6.62076C16.0541 7.94268 14.4844 9 12 9C9.49345 9 7.91806 7.65471 6.86651 6.38877C6.42721 5.85991 5.58617 5.86697 5.20168 6.43233C4.50078 7.46288 3.68402 8.41274 2 8.78594" stroke="black" stroke-width="1.5" stroke-linecap="round" stroke-linejoin="round"/>
<path d="M22 18.7859C20.4123 18.4341 19.5955 17.5697 18.9199 16.6083C18.4965 16.0059 17.5655 16.0425 17.1055 16.6208C16.0541 17.9427 14.4844 19 12 19C9.49345 19 7.91806 17.6547 6.86651 16.3888C6.42721 15.8599 5.58617 15.867 5.20168 16.4323C4.50078 17.4629 3.68402 18.4127 2 18.7859" stroke="black" stroke-width="1.5" stroke-linecap="round" stroke-linejoin="round"/>
<path opacity="0.5" d="M22 13.7859C20.4123 13.4341 19.5955 12.5697 18.9199 11.6083C18.4965 11.0059 17.5655 11.0425 17.1055 11.6208C16.0541 12.9427 14.4844 14 12 14C9.49345 14 7.91806 12.6547 6.86651 11.3888C6.42721 10.8599 5.58617 10.867 5.20168 11.4323C4.50078 12.4629 3.68402 13.4127 2 13.7859" stroke="black" stroke-width="1.5" stroke-linecap="round" stroke-linejoin="round"/>
</svg>
