<svg width="24" height="24" viewBox="0 0 24 24" fill="none" xmlns="http://www.w3.org/2000/svg">
<path d="M12.0646 17.9997C16.4827 18.0354 20.0354 14.4827 19.9997 10.0646C19.9641 5.64642 16.3536 2.03592 11.9354 2.00027C7.51731 1.96461 3.96461 5.51731 4.00027 9.93545C4.03592 14.3536 7.64642 17.9641 12.0646 17.9997Z" stroke="black" stroke-width="1.5" stroke-linecap="round"/>
<path opacity="0.5" d="M12.8569 7L9.99972 10H13.9997L11.1426 13" stroke="black" stroke-width="1.5" stroke-linecap="round" stroke-linejoin="round"/>
<path opacity="0.5" d="M11.25 22C11.25 22.4142 11.5858 22.75 12 22.75C12.4142 22.75 12.75 22.4142 12.75 22H11.25ZM11.1173 20.9239L10.8303 21.6168L10.8303 21.6168L11.1173 20.9239ZM10.5761 20.3827L9.88321 20.6697L9.88321 20.6697L10.5761 20.3827ZM13.4239 20.3827L14.1168 20.6697L14.1168 20.6697L13.4239 20.3827ZM12.8827 20.9239L13.1697 21.6168L13.1697 21.6168L12.8827 20.9239ZM11.25 21V22H12.75V21H11.25ZM12.75 18V19.5H14.25V18H12.75ZM11.25 19.5V18H9.75V19.5H11.25ZM12 20.25C11.7568 20.25 11.6119 20.2496 11.5039 20.2422C11.4026 20.2353 11.3896 20.2249 11.4043 20.231L10.8303 21.6168C11.0288 21.699 11.2241 21.7266 11.4018 21.7387C11.5727 21.7504 11.7773 21.75 12 21.75V20.25ZM9.75 19.5C9.75 19.7227 9.74959 19.9273 9.76125 20.0982C9.77338 20.2759 9.80099 20.4712 9.88321 20.6697L11.269 20.0957C11.2751 20.1104 11.2647 20.0974 11.2578 19.9961C11.2504 19.8881 11.25 19.7432 11.25 19.5H9.75ZM11.4043 20.231C11.3431 20.2056 11.2944 20.1569 11.269 20.0957L9.88321 20.6697C10.0608 21.0985 10.4015 21.4392 10.8303 21.6168L11.4043 20.231ZM12.75 19.5C12.75 19.7432 12.7496 19.8881 12.7422 19.9961C12.7353 20.0974 12.7249 20.1104 12.731 20.0957L14.1168 20.6697C14.199 20.4712 14.2266 20.2759 14.2387 20.0982C14.2504 19.9273 14.25 19.7227 14.25 19.5H12.75ZM12 21.75C12.2227 21.75 12.4273 21.7504 12.5982 21.7387C12.7759 21.7266 12.9712 21.699 13.1697 21.6168L12.5957 20.231C12.6104 20.2249 12.5974 20.2353 12.4961 20.2422C12.3881 20.2496 12.2432 20.25 12 20.25V21.75ZM12.731 20.0957C12.7056 20.1569 12.6569 20.2056 12.5957 20.231L13.1697 21.6168C13.5985 21.4392 13.9392 21.0985 14.1168 20.6697L12.731 20.0957Z" fill="black"/>
</svg>
