<svg xmlns="http://www.w3.org/2000/svg" xml:space="preserve" width="800" height="800" aria-hidden="true" class="iconify iconify--emojione" preserveAspectRatio="xMidYMid" viewBox="0 0 64 64"><g style="display:inline"><path fill="#699635" d="M61.546 26.869c-2.4-14.1-14.7-24.8-29.5-24.8s-27.1 10.7-29.5 24.8l29.5-14.8Zm-59 10.4c2.4 14.1 14.7 24.8 29.5 24.8s27.1-10.7 29.5-24.8l-29.5 14.8Z"/><path fill="#ffe62e" d="m32.046 12.069-29.5 14.8c-.3 1.7-.5 3.4-.5 5.2 0 1.8.2 3.5.5 5.2l29.5 14.8 29.5-14.8c.3-1.7.5-3.4.5-5.2 0-1.8-.2-3.5-.5-5.2l-29.5-14.8"/><g fill="#428bc1"><path d="M26.046 28.469c-3.2 0-6.2.7-8.9 1.9-.1.6-.1 1.1-.1 1.7 0 8.3 6.7 15 15 15 5.6 0 10.5-3.1 13.1-7.6-3.7-6.5-10.9-11-19.1-11"/><path d="M46.846 34.469c.1-.8.2-1.6.2-2.4 0-8.3-6.7-15-15-15-5.9 0-11 3.4-13.5 8.4 2.4-.7 4.9-1.1 7.5-1.1 8.5 0 16 4 20.8 10.1"/></g><g fill="#fff" transform="translate(.046 .069)"><path d="M26 24.3c-2.6 0-5.1.4-7.5 1.1-.7 1.5-1.2 3.1-1.4 4.9 2.7-1.2 5.7-1.9 8.9-1.9 8.2 0 15.4 4.4 19.1 10.9.9-1.5 1.4-3.2 1.7-4.9C42 28.3 34.5 24.3 26 24.3"/><circle cx="22" cy="32" r="1"/><circle cx="26" cy="38" r="1"/><circle cx="32" cy="38" r="1"/><circle cx="32" cy="42" r="1"/><circle cx="40" cy="38" r="1"/><circle cx="40" cy="42" r="1"/><circle cx="36" cy="40" r="1"/><circle cx="22" cy="36" r="1"/></g></g></svg>
