<?xml version="1.0" encoding="iso-8859-1"?>
<!-- Uploaded to: SVG Repo, www.svgrepo.com, Generator: SVG Repo Mixer Tools -->
<svg height="800px" width="800px" version="1.1" id="Layer_1" xmlns="http://www.w3.org/2000/svg" xmlns:xlink="http://www.w3.org/1999/xlink" 
	 viewBox="0 0 512 512" xml:space="preserve">
<circle style="fill:#D80027;" cx="256" cy="256" r="256"/>
<g>
	<polygon style="fill:#FFDA44;" points="140.113,155.826 162.215,223.849 233.739,223.849 175.875,265.889 197.977,333.913 
		140.113,291.872 82.249,333.913 104.351,265.889 46.487,223.849 118.01,223.849 	"/>
	<polygon style="fill:#FFDA44;" points="279.418,382.068 257.719,366.303 236.021,382.067 244.307,356.56 222.609,340.794 
		249.432,340.794 257.719,315.285 266.008,340.794 292.829,340.794 271.131,356.559 	"/>
	<polygon style="fill:#FFDA44;" points="336.026,304.155 309.205,304.155 300.916,329.662 292.628,304.156 265.806,304.155 
		287.507,288.388 279.216,262.881 300.917,278.645 322.617,262.88 314.327,288.388 	"/>
	<polygon style="fill:#FFDA44;" points="336.026,207.848 314.327,223.614 322.616,249.12 300.917,233.357 279.216,249.122 
		287.507,223.612 265.807,207.849 292.629,207.846 300.917,182.338 309.205,207.846 	"/>
	<polygon style="fill:#FFDA44;" points="279.418,129.933 271.132,155.443 292.829,171.206 266.01,171.207 257.72,196.718 
		249.432,171.206 222.611,171.208 244.31,155.441 236.021,129.932 257.719,145.699 	"/>
</g>
</svg>