<svg xmlns="http://www.w3.org/2000/svg" xmlns:xlink="http://www.w3.org/1999/xlink" version="1.1" width="256" height="256" viewBox="0 0 256 256" xml:space="preserve">
<g style="stroke: none; stroke-width: 0; stroke-dasharray: none; stroke-linecap: butt; stroke-linejoin: miter; stroke-miterlimit: 10; fill: none; fill-rule: nonzero; opacity: 1;" transform="translate(1.4065934065934016 1.4065934065934016) scale(2.81 2.81)">
	<path d="M 59.999 2.571 l 0 84.859 c 17.466 -6.175 29.985 -22.818 30 -42.396 v -0.068 C 89.985 25.389 77.465 8.745 59.999 2.571 z" style="stroke: none; stroke-width: 1; stroke-dasharray: none; stroke-linecap: butt; stroke-linejoin: miter; stroke-miterlimit: 10; fill: rgb(243,24,48); fill-rule: nonzero; opacity: 1;" transform=" matrix(1 0 0 1 0 0) " stroke-linecap="round"/>
	<path d="M 30 87.429 l 0 -84.858 C 12.524 8.75 0 25.408 0 45 S 12.524 81.25 30 87.429 z" style="stroke: none; stroke-width: 1; stroke-dasharray: none; stroke-linecap: butt; stroke-linejoin: miter; stroke-miterlimit: 10; fill: rgb(0,38,127); fill-rule: nonzero; opacity: 1;" transform=" matrix(1 0 0 1 0 0) " stroke-linecap="round"/>
	<path d="M 30 87.429 C 34.693 89.088 39.739 90 45 90 c 5.261 0 10.307 -0.911 15 -2.571 l 0 -84.859 C 55.307 0.911 50.261 0 45 0 c -5.261 0 -10.307 0.912 -15 2.571 L 30 87.429 z" style="stroke: none; stroke-width: 1; stroke-dasharray: none; stroke-linecap: butt; stroke-linejoin: miter; stroke-miterlimit: 10; fill: rgb(243,244,245); fill-rule: nonzero; opacity: 1;" transform=" matrix(1 0 0 1 0 0) " stroke-linecap="round"/>
</g>
</svg>