<?xml version="1.0" ?><!-- Uploaded to: SVG Repo, www.svgrepo.com, Generator: SVG Repo Mixer Tools -->
<svg width="800px" height="800px" viewBox="0 0 128 128" data-name="Layer 1" id="Layer_1" xmlns="http://www.w3.org/2000/svg"><defs><style>.cls-1{fill:#a7aece;}.cls-2,.cls-7{fill:#515570;}.cls-15,.cls-2{opacity:0.2;}.cls-3{fill:#393c54;}.cls-4{fill:#fbc0aa;}.cls-5{fill:#ffffff;}.cls-10,.cls-11,.cls-12,.cls-13,.cls-14,.cls-15,.cls-6,.cls-8{fill:none;stroke-linecap:round;}.cls-11,.cls-13,.cls-6{stroke:#393c54;stroke-miterlimit:10;}.cls-10,.cls-14,.cls-15,.cls-6{stroke-width:2px;}.cls-8{stroke:#fbc0aa;stroke-width:20px;}.cls-10,.cls-12,.cls-14,.cls-15,.cls-8{stroke-linejoin:round;}.cls-9{fill:#ffd8c9;}.cls-10,.cls-12,.cls-15{stroke:#515570;}.cls-10{opacity:0.4;}.cls-11,.cls-12{stroke-width:4px;}.cls-13{stroke-width:3px;}.cls-14{stroke:#f85565;}</style></defs><title/><circle class="cls-1" cx="64" cy="64" r="60"/><circle class="cls-2" cx="64" cy="64" r="48"/><circle class="cls-3" cx="93" cy="60" r="6"/><circle class="cls-3" cx="93" cy="52" r="5"/><circle class="cls-4" cx="89.32" cy="65.43" r="7.93"/><path class="cls-3" d="M64,124a59.77,59.77,0,0,0,39.83-15.14l-2.23-5.22c-1.71-4-6.22-6.64-11.29-6.64H37.69c-5.07,0-9.58,2.66-11.29,6.64l-2.23,5.22A59.77,59.77,0,0,0,64,124Z"/><path class="cls-5" d="M77.43,98.73a13.43,13.43,0,0,1-26.86,0c0-5,6-3.25,13.43-3.25S77.43,93.68,77.43,98.73Z"/><path class="cls-5" d="M50,122.44a59.84,59.84,0,0,0,27,.23V99.1H50Z"/><path class="cls-6" d="M78.43,98.73c0,7.42-7,13.43-14.43,13.43s-14.43-6-14.43-13.43"/><path class="cls-7" d="M55.72,123.42,51,96.5,38.62,106.75A2,2,0,0,0,39,110l5.55,2.92-.37,7.72A59.68,59.68,0,0,0,55.72,123.42Z"/><path class="cls-7" d="M77,96.5l-4.72,26.92a59.64,59.64,0,0,0,11.51-2.76l-.37-7.74L88.93,110a2,2,0,0,0,.41-3.25Z"/><line class="cls-8" x1="64" x2="64" y1="89.75" y2="98.5"/><circle class="cls-3" cx="35" cy="60" r="6"/><circle class="cls-3" cx="35" cy="52" r="5"/><circle class="cls-4" cx="38.68" cy="65.43" r="7.93"/><path class="cls-9" d="M64,97.62c-11,0-25-12.09-25-27L37,52.87a27,27,0,1,1,54,0L89,70.62C89,85.53,75,97.62,64,97.62Z"/><circle class="cls-3" cx="77.5" cy="64.28" r="3"/><circle class="cls-3" cx="50.5" cy="64.28" r="3"/><path class="cls-10" d="M53.81,56a16.53,16.53,0,0,0-9.62,1.75"/><path class="cls-10" d="M74.19,56a16.53,16.53,0,0,1,9.62,1.75"/><path class="cls-3" d="M58.08,83a.77.77,0,0,1-.74-.89C57.76,78.64,64,76,64,76s6.24,2.69,6.66,6.16a.77.77,0,0,1-.74.89Z"/><path class="cls-3" d="M91,47V30.41C91,14.46,77.5,9.2,64,9.2c-14.4,0-27,5.26-27,21.21V47Z"/><line class="cls-11" x1="37" x2="37" y1="47" y2="59"/><line class="cls-11" x1="91" x2="91" y1="47" y2="59"/><path class="cls-3" d="M80,47v3a2,2,0,0,0,2,2h2a2,2,0,0,1,2,2h0a2,2,0,0,0,2,2h2V47Z"/><rect class="cls-5" height="8" width="54" x="37" y="39"/><line class="cls-12" x1="32" x2="96" y1="47" y2="47"/><path class="cls-4" d="M68,73c0,3.4-1.79,6.16-4,6.16S60,76.41,60,73s1.79-8.7,4-8.7S68,69.6,68,73Z"/><line class="cls-13" x1="64" x2="64" y1="113" y2="123"/><line class="cls-14" x1="59" x2="69" y1="86" y2="86"/><path class="cls-15" d="M60.46,92.94a5,5,0,0,1,7.08,0"/></svg>