<?xml version="1.0" ?><!-- Uploaded to: SVG Repo, www.svgrepo.com, Generator: SVG Repo Mixer Tools -->
<svg width="800px" height="800px" viewBox="0 0 128 128" data-name="Layer 1" id="Layer_1" xmlns="http://www.w3.org/2000/svg"><defs><style>.cls-1{fill:#4bc190;}.cls-2{fill:#356cb6;opacity:0.3;}.cls-3,.cls-7{fill:#ffffff;}.cls-12,.cls-4{fill:#393c54;}.cls-4{opacity:0.1;}.cls-5{fill:#f2bc0f;}.cls-6{fill:#f8dc25;}.cls-7{opacity:0.5;}.cls-8{fill:#515570;}.cls-10,.cls-9{fill:#f85565;}.cls-13,.cls-9{opacity:0.2;}.cls-11,.cls-13{fill:none;stroke-linecap:round;}.cls-11{stroke:#ffffff;stroke-miterlimit:10;stroke-width:4px;opacity:0.7;}.cls-13{stroke:#515570;stroke-linejoin:round;stroke-width:2px;}</style></defs><title/><circle class="cls-1" cx="64" cy="64" r="60"/><circle class="cls-2" cx="64" cy="64" r="48"/><path class="cls-3" d="M91,46,64,73,37,46,61.17,15.83a4,4,0,0,1,5.66,0Z"/><path class="cls-4" d="M64.72,14.73,64,16,78,53l4.5,1.5L91,46,66.83,15.83A4,4,0,0,0,64.72,14.73Z"/><path class="cls-4" d="M50,53l29.5,4.5L91,46,66.83,15.83a3.89,3.89,0,0,0-1.68-1L64,16Z"/><path class="cls-5" d="M64,46,50,52,37,46v71.58a60,60,0,0,0,54,0V46L78,52Z"/><path class="cls-6" d="M50,52,37,46v71.58a59.95,59.95,0,0,0,41,4.76V52L64,46Z"/><path class="cls-7" d="M37,117.58a59.77,59.77,0,0,0,13,4.76V52L37,46Z"/><path class="cls-8" d="M70.17,20l-3.34-4.17a4,4,0,0,0-5.66,0L57.83,20Z"/><ellipse class="cls-9" cx="51" cy="74.85" rx="5.08" ry="2.85"/><ellipse class="cls-9" cx="77" cy="74.85" rx="5.08" ry="2.85"/><path class="cls-10" d="M77.24,63.75a3.9,3.9,0,0,0-5.77.28,4,4,0,0,0,.38,5.34l4.74,4.74a.92.92,0,0,0,1.3,0l4.74-4.74A4,4,0,0,0,83,64,3.89,3.89,0,0,0,77.24,63.75Z"/><path class="cls-10" d="M50.76,63.75A3.89,3.89,0,0,0,45,64a4,4,0,0,0,.37,5.34l4.74,4.74a.92.92,0,0,0,1.3,0l4.74-4.74A4,4,0,0,0,56.53,64,3.9,3.9,0,0,0,50.76,63.75Z"/><line class="cls-11" x1="57.24" x2="57.24" y1="89.54" y2="96.33"/><line class="cls-11" x1="55.24" x2="55.24" y1="85.54" y2="94.33"/><line class="cls-11" x1="71.24" x2="71.24" y1="90.54" y2="96.33"/><line class="cls-11" x1="73.24" x2="73.24" y1="88.54" y2="93.33"/><path class="cls-12" d="M73,83a1.93,1.93,0,0,1,3,1.6c0,5.4-4.3,9.49-11,9.49A13.09,13.09,0,0,1,52,82.6,1.65,1.65,0,0,1,54.45,81C61.65,84.89,68.22,85.39,73,83Z"/><path class="cls-10" d="M65,94.09a12,12,0,0,0,7.77-2.53C71,89.43,68.21,89.13,65,89.13s-6,.3-7.76,2.41A13.07,13.07,0,0,0,65,94.09Z"/><path class="cls-13" d="M80.67,57.41,86,59.52a4.62,4.62,0,0,1,2.86,3.73L89,64.67"/><path class="cls-13" d="M47.54,59l-2.71.09a4.61,4.61,0,0,0-3.75,2.84l-.54,1.32"/></svg>