<?xml version="1.0" ?><!-- Uploaded to: SVG Repo, www.svgrepo.com, Generator: SVG Repo Mixer Tools -->
<svg width="800px" height="800px" viewBox="0 0 128 128" data-name="Layer 1" id="Layer_1" xmlns="http://www.w3.org/2000/svg"><defs><style>.cls-1{fill:#f2bc0f;}.cls-2,.cls-9{fill:#ffffff;}.cls-2{opacity:0.3;}.cls-3{fill:#393c54;}.cls-4{fill:#8f5653;}.cls-5{fill:#a7aece;}.cls-10,.cls-12,.cls-13,.cls-14,.cls-6,.cls-8{fill:none;}.cls-10,.cls-6{stroke:#8f5653;}.cls-10,.cls-13,.cls-14,.cls-6,.cls-8{stroke-linecap:round;}.cls-10,.cls-12,.cls-6{stroke-miterlimit:10;}.cls-6{stroke-width:20px;}.cls-7{fill:#b56b63;}.cls-14,.cls-8{stroke:#515570;}.cls-13,.cls-14,.cls-8{stroke-linejoin:round;}.cls-8{stroke-width:2px;opacity:0.4;}.cls-10{stroke-width:5px;}.cls-11{fill:#4bc190;}.cls-12,.cls-13{stroke:#4bc190;}.cls-12{stroke-width:3px;}.cls-13{stroke-width:4px;}.cls-14{stroke-width:2.22px;}</style></defs><title/><circle class="cls-1" cx="64" cy="64" r="60"/><circle class="cls-2" cx="64" cy="64" r="48"/><path class="cls-3" d="M79.19,23.51V12.42a4,4,0,0,0-2.72-3.8A41.08,41.08,0,0,0,64,6.68h0a41,41,0,0,0-41,41v6A29.75,29.75,0,0,0,52.66,83.37H77.34A27.66,27.66,0,0,0,105,55.71v-8a40.89,40.89,0,0,0-3.62-16.86,4,4,0,0,0-3.65-2.33H84.17A5,5,0,0,1,79.19,23.51Z"/><circle class="cls-4" cx="91.32" cy="64.43" r="7.93"/><path class="cls-3" d="M64,124a59.77,59.77,0,0,0,39.83-15.14l-2.23-5.22c-1.71-4-6.22-6.64-11.29-6.64H37.69c-5.07,0-9.58,2.66-11.29,6.64l-2.23,5.22A59.77,59.77,0,0,0,64,124Z"/><path class="cls-5" d="M77.43,99.73a13.43,13.43,0,0,1-26.86,0c0-5,6-3.25,13.43-3.25S77.43,94.68,77.43,99.73Z"/><line class="cls-6" x1="64" x2="64" y1="85.75" y2="99.5"/><circle class="cls-4" cx="36.68" cy="64.43" r="7.93"/><path class="cls-7" d="M36,70.27V52.54c0-13.67,9.69-25.69,23.19-27.94A28,28,0,0,1,92,52.2V70.61a28,28,0,0,1-32.81,27.6C45.69,96,36,84,36,70.27Z"/><line class="cls-8" x1="74.69" x2="84.31" y1="53" y2="54.75"/><path class="cls-9" d="M70.21,79a.79.79,0,0,1,.78.89c-.43,3.47-3.4,4.16-7,4.16s-6.56-.69-7-4.16a.79.79,0,0,1,.78-.89Z"/><path class="cls-3" d="M75,80.4c-.07-5-6-5.08-11-5.08s-10.92.11-11,5.08h0V95.75a4,4,0,0,0,2.85,3.84,28.5,28.5,0,0,0,16.3,0A4,4,0,0,0,75,95.75V80.4Zm-5,9H67.78a1,1,0,0,1-1-.75l-.62-2.49a1,1,0,0,0-1-.76H62.78a1,1,0,0,0-1,.76l-.62,2.49a1,1,0,0,1-1,.75H58a2,2,0,0,1-2-2V82.49a2,2,0,0,1,2-2H70a2,2,0,0,1,2,2V87.4A2,2,0,0,1,70,89.4Z"/><line class="cls-8" x1="53.31" x2="43.69" y1="53" y2="54.75"/><line class="cls-10" x1="64" x2="64" y1="61" y2="74"/><path class="cls-11" d="M37.61,24,32.07,29.8a5,5,0,0,0,.13,7.07h0l12.48-13h0A5,5,0,0,0,37.61,24Z"/><line class="cls-12" x1="33.24" x2="39.01" y1="35.79" y2="41.34"/><line class="cls-12" x1="36.71" x2="42.48" y1="32.19" y2="37.73"/><line class="cls-12" x1="40.17" x2="45.94" y1="28.58" y2="34.13"/><line class="cls-12" x1="43.64" x2="49.41" y1="24.98" y2="30.53"/><polygon class="cls-13" points="31.23 23.45 31.23 23.45 36.28 28.31 36.28 28.31 31.23 23.45"/><line class="cls-10" x1="67" x2="61" y1="73" y2="73"/><path class="cls-3" d="M33,57.41l3,4.87,3.48-11.6A11,11,0,0,1,50,42.86l38.15.1h0A47.5,47.5,0,0,0,91.89,61.4l.11.27,3-4.26-3.7-15a20,20,0,0,0-8.79-12.18l-4-2.47a27,27,0,0,0-25.95-1.49L48.89,28a20.84,20.84,0,0,0-11,12.91Z"/><circle class="cls-5" cx="77.67" cy="62.28" r="7.5"/><path class="cls-2" d="M77.67,54.78c-.22,0-.43,0-.64,0L70.2,61.64c0,.21,0,.42,0,.64a7.42,7.42,0,0,0,1.12,3.93L81.6,55.9A7.42,7.42,0,0,0,77.67,54.78Z"/><path class="cls-2" d="M74.22,68.93l10.1-10.1a7.66,7.66,0,0,0-1.17-1.66L72.57,67.76A7.37,7.37,0,0,0,74.22,68.93Z"/><circle class="cls-14" cx="77.67" cy="62.28" r="7.5"/><circle class="cls-5" cx="50.67" cy="62.28" r="7.5"/><path class="cls-2" d="M50.67,54.78c-.22,0-.43,0-.64,0L43.2,61.64c0,.21,0,.42,0,.64a7.42,7.42,0,0,0,1.12,3.93L54.6,55.9A7.42,7.42,0,0,0,50.67,54.78Z"/><path class="cls-2" d="M47.22,68.93l10.1-10.1a7.66,7.66,0,0,0-1.17-1.66L45.57,67.76A7.37,7.37,0,0,0,47.22,68.93Z"/><circle class="cls-14" cx="50.67" cy="62.28" r="7.5"/><line class="cls-14" x1="58.17" x2="70.17" y1="62.28" y2="62.28"/></svg>