<?xml version="1.0" ?><!-- Uploaded to: SVG Repo, www.svgrepo.com, Generator: SVG Repo Mixer Tools -->
<svg width="800px" height="800px" viewBox="0 0 128 128" data-name="Layer 1" id="Layer_1" xmlns="http://www.w3.org/2000/svg"><defs><style>.cls-1{fill:#a7aece;}.cls-2{fill:#515570;opacity:0.2;}.cls-3{fill:#393c54;}.cls-4{fill:#8f5653;}.cls-5{fill:#ff8475;}.cls-6{fill:#ffffff;}.cls-11,.cls-7,.cls-9{fill:none;stroke-linecap:round;}.cls-7{stroke:#8f5653;stroke-width:16px;}.cls-11,.cls-7{stroke-miterlimit:10;}.cls-8{fill:#b56b63;}.cls-11,.cls-9{stroke:#515570;}.cls-9{stroke-linejoin:round;stroke-width:1.89px;opacity:0.4;}.cls-10{fill:#f85565;}.cls-11{stroke-width:2px;}</style></defs><title/><circle class="cls-1" cx="64" cy="64" r="60"/><circle class="cls-2" cx="64" cy="64" r="48"/><path class="cls-3" d="M99.72,51.16a4.33,4.33,0,0,0-1.15-8.5,4.33,4.33,0,0,0-3.14-8,4.33,4.33,0,0,0-5-7A4.33,4.33,0,0,0,84,22.06a4.33,4.33,0,0,0-7.64-3.91,4.33,4.33,0,0,0-8.35-2,4.33,4.33,0,0,0-8.58.13l-.72.09a4.34,4.34,0,0,0-8.29,2.25,4.34,4.34,0,0,0-7.48,4.21,4.33,4.33,0,0,0-6.26,5.86A4.33,4.33,0,0,0,32,35.91,4.33,4.33,0,0,0,29.14,44a4.33,4.33,0,0,0-.82,8.54A4.33,4.33,0,0,0,29.56,61,4.33,4.33,0,0,0,32.79,69a4.33,4.33,0,0,0,5,7,4.33,4.33,0,0,0,6.55,5.54,4.33,4.33,0,0,0,7.68,3.83,4.33,4.33,0,0,0,8.37,1.88A4.33,4.33,0,0,0,69,87a4.33,4.33,0,0,0,8.29-2.21,4.33,4.33,0,0,0,7.52-4.12,4.34,4.34,0,0,0,6.33-5.8,4.33,4.33,0,0,0,4.76-7.14,4.33,4.33,0,0,0,2.91-8.07,4.33,4.33,0,0,0,.91-8.53Z"/><circle class="cls-4" cx="89.84" cy="70.87" r="7.5"/><path class="cls-5" d="M64,124a59.75,59.75,0,0,0,37.53-13.2l-2-5.53C98,101.5,93.68,99,88.89,99H39.11c-4.79,0-9.07,2.51-10.68,6.28l-2,5.53A59.75,59.75,0,0,0,64,124Z"/><path class="cls-6" d="M74.26,100.86c0,5.66-4.6,9.25-10.26,9.25s-10.26-3.59-10.26-9.25,4.6-3.42,10.26-3.42S74.26,95.19,74.26,100.86Z"/><line class="cls-7" x1="64" x2="64" y1="88.88" y2="98.88"/><circle class="cls-4" cx="38.16" cy="70.87" r="7.5"/><path class="cls-8" d="M64,98A26.78,26.78,0,0,1,37.21,71.19V61.57a26.79,26.79,0,0,1,53.58,0v9.62A26.78,26.78,0,0,1,64,98Z"/><path class="cls-3" d="M63.15,30.12C47.92,30.57,36,43.47,36,58.7a2,2,0,0,0,2,2h0A2.72,2.72,0,0,0,40.6,58.6h0A9.28,9.28,0,0,1,49.73,51H78.27a9.28,9.28,0,0,1,9.13,7.6h0A2.72,2.72,0,0,0,90,60.66h0a2,2,0,0,0,2-2v-.6A28,28,0,0,0,63.15,30.12Z"/><line class="cls-9" x1="74.12" x2="83.21" y1="63.84" y2="63.6"/><line class="cls-9" x1="53.88" x2="44.79" y1="63.84" y2="63.6"/><path class="cls-3" d="M71.55,84a1,1,0,0,1,.94,1.07,8.56,8.56,0,0,1-17,0A1,1,0,0,1,56.45,84Z"/><path class="cls-10" d="M59,90.91a8.52,8.52,0,0,0,10.08,0C68,89.16,66.17,89,64,89S60,89.16,59,90.91Z"/><path class="cls-6" d="M69,86H59a1.84,1.84,0,0,1-1.73-2H70.77A1.84,1.84,0,0,1,69,86Z"/><rect class="cls-3" height="3" width="2" x="60" y="84"/><path class="cls-4" d="M63.39,72.24l-3.25,7.44a.69.69,0,0,0,.64,1h6.49a.69.69,0,0,0,.64-1l-3.25-7.44A.7.7,0,0,0,63.39,72.24Z"/><path class="cls-11" d="M54,72a3,3,0,0,0-6,0"/><path class="cls-11" d="M80,72a3,3,0,0,0-6,0"/></svg>