<?xml version="1.0" ?><!-- Uploaded to: SVG Repo, www.svgrepo.com, Generator: SVG Repo Mixer Tools -->
<svg width="800px" height="800px" viewBox="0 0 128 128" data-name="Layer 1" id="Layer_1" xmlns="http://www.w3.org/2000/svg"><defs><style>.cls-1{fill:#00adfe;}.cls-13,.cls-2{fill:#ffffff;}.cls-2{opacity:0.3;}.cls-3{fill:#393c54;}.cls-4{fill:#8f5653;}.cls-10,.cls-5{fill:#f85565;}.cls-6{fill:#ffd8c9;}.cls-11,.cls-12,.cls-7,.cls-9{fill:none;stroke-linecap:round;}.cls-12,.cls-7{stroke:#8f5653;stroke-miterlimit:10;}.cls-7{stroke-width:14px;}.cls-8{fill:#b56b63;}.cls-9{stroke:#393c54;}.cls-11,.cls-9{stroke-linejoin:round;}.cls-10{opacity:0.2;}.cls-11{stroke:#515570;stroke-width:2px;opacity:0.5;}.cls-12{stroke-width:4px;}</style></defs><title/><circle class="cls-1" cx="64" cy="64" r="60"/><circle class="cls-2" cx="64" cy="64" r="48"/><path class="cls-3" d="M64,8.68h0a41,41,0,0,1,41,41v8A27.66,27.66,0,0,1,77.34,85.37H50.66A27.66,27.66,0,0,1,23,57.71v-8a41,41,0,0,1,41-41Z"/><circle class="cls-4" cx="89" cy="64" r="7"/><path class="cls-5" d="M64,124a59.69,59.69,0,0,0,32.55-9.61l-3.18-10.75A10,10,0,0,0,84,97H44.05a10,10,0,0,0-9.42,6.64l-3.18,10.75A59.69,59.69,0,0,0,64,124Z"/><path class="cls-6" d="M64,115A18,18,0,0,0,82,97H46A18,18,0,0,0,64,115Z"/><line class="cls-7" x1="64" x2="64" y1="91.75" y2="99.5"/><circle class="cls-4" cx="39" cy="64" r="7"/><path class="cls-8" d="M64,94A25,25,0,0,1,39,69V51.52a25,25,0,1,1,50,0V69A25,25,0,0,1,64,94Z"/><circle class="cls-3" cx="77.25" cy="62.28" r="3"/><path class="cls-9" d="M71.75,63.37a6.61,6.61,0,0,1,11.5-1.31"/><circle class="cls-3" cx="50.75" cy="62.28" r="3"/><path class="cls-9" d="M56.25,63.37a6.61,6.61,0,0,0-11.5-1.31"/><ellipse class="cls-10" cx="51" cy="70" rx="5.08" ry="3"/><ellipse class="cls-10" cx="77" cy="70" rx="5.08" ry="3"/><circle class="cls-6" cx="90" cy="72" r="3"/><circle class="cls-6" cx="38" cy="72" r="3"/><path class="cls-11" d="M73,56l5.18-2.36a4.6,4.6,0,0,1,4.67.5L84,55"/><path class="cls-11" d="M55,56l-5.18-2.36a4.6,4.6,0,0,0-4.67.5L44,55"/><path class="cls-3" d="M91,31C81,14,64,16,64,16S47,14,37,31a47.5,47.5,0,0,0-6,33s3-4.72,8-4.72c0-.2,3.65-8.08,5.68-12.44A3.48,3.48,0,0,1,48.8,45,55,55,0,0,0,64,47a55,55,0,0,0,15.2-2,3.48,3.48,0,0,1,4.12,1.89C85.35,51.2,89,59.08,89,59.28c5,0,8,4.72,8,4.72A47.5,47.5,0,0,0,91,31Z"/><line class="cls-12" x1="64" x2="64" y1="65" y2="73"/><line class="cls-12" x1="67" x2="61" y1="72" y2="72"/><path class="cls-3" d="M71.55,79a1,1,0,0,1,.94,1.07,8.56,8.56,0,0,1-17,0A1,1,0,0,1,56.45,79Z"/><path class="cls-5" d="M59,85.91a8.52,8.52,0,0,0,10.08,0,5.79,5.79,0,0,0-10.08,0Z"/><path class="cls-13" d="M69,81H59a1.84,1.84,0,0,1-1.73-2H70.77A1.84,1.84,0,0,1,69,81Z"/></svg>