<?xml version="1.0" ?><!-- Uploaded to: SVG Repo, www.svgrepo.com, Generator: SVG Repo Mixer Tools -->
<svg width="800px" height="800px" viewBox="0 0 128 128" data-name="Layer 1" id="Layer_1" xmlns="http://www.w3.org/2000/svg"><defs><style>.cls-1{fill:#ffd8c9;}.cls-10,.cls-2{fill:#ffffff;}.cls-2{opacity:0.3;}.cls-3,.cls-9{fill:#8f5653;}.cls-4{fill:#393c54;}.cls-5{fill:#ff8475;}.cls-6,.cls-8{fill:none;stroke-linecap:round;}.cls-6{stroke:#8f5653;stroke-miterlimit:10;stroke-width:20px;}.cls-7{fill:#b56b63;}.cls-8{stroke:#515570;stroke-linejoin:round;stroke-width:2px;}.cls-8,.cls-9{opacity:0.4;}</style></defs><title/><circle class="cls-1" cx="64" cy="64" r="60"/><circle class="cls-2" cx="64" cy="64" r="48"/><circle class="cls-3" cx="91.32" cy="60.43" r="7.93"/><path class="cls-4" d="M64,124a59.77,59.77,0,0,0,39.83-15.14l-2.23-5.22c-1.71-4-6.22-6.64-11.29-6.64H37.69c-5.07,0-9.58,2.66-11.29,6.64l-2.23,5.22A59.77,59.77,0,0,0,64,124Z"/><path class="cls-5" d="M77.43,98.73a13.43,13.43,0,0,1-26.86,0c0-5,6-3.25,13.43-3.25S77.43,93.68,77.43,98.73Z"/><line class="cls-6" x1="64" x2="64" y1="84.75" y2="98.5"/><circle class="cls-3" cx="36.68" cy="60.43" r="7.93"/><path class="cls-7" d="M64,94.37A28.31,28.31,0,0,1,35.68,66.05V47.43a28.32,28.32,0,1,1,56.64,0V66.05A28.31,28.31,0,0,1,64,94.37Z"/><circle class="cls-4" cx="76.67" cy="59.28" r="3"/><circle class="cls-4" cx="49.67" cy="59.28" r="3"/><line class="cls-8" x1="74.39" x2="84" y1="51" y2="52.75"/><line class="cls-8" x1="53" x2="43.39" y1="51" y2="52.75"/><path class="cls-3" d="M63.11,60,58.44,70.69a1,1,0,0,0,.92,1.4H68.7a1,1,0,0,0,.91-1.4L64.94,60A1,1,0,0,0,63.11,60Z"/><path class="cls-9" d="M92.32,47.43a28.32,28.32,0,1,0-56.64,0V53h.93c3.87,0,7-11.13,7-15v.17c3.52,3.76,11.38,6.38,20.52,6.38,9.46,0,17.54-2.8,20.87-6.77V38c0,3.87,3.13,15,7,15h.32Z"/><path class="cls-10" d="M70.21,76a.79.79,0,0,1,.78.89,7,7,0,0,1-14,0,.79.79,0,0,1,.78-.89Z"/><line class="cls-8" x1="60.17" x2="67.83" y1="86" y2="86"/></svg>