<?xml version="1.0" ?><!-- Uploaded to: SVG Repo, www.svgrepo.com, Generator: SVG Repo Mixer Tools -->
<svg width="800px" height="800px" viewBox="0 0 128 128" data-name="Layer 1" id="Layer_1" xmlns="http://www.w3.org/2000/svg"><defs><style>.cls-1{fill:#ff8475;}.cls-10,.cls-12,.cls-2{fill:#356cb6;}.cls-3,.cls-9{fill:#ffffff;}.cls-12,.cls-14,.cls-3,.cls-5{opacity:0.3;}.cls-11,.cls-4,.cls-5{fill:none;stroke-linecap:round;}.cls-4{stroke:#4bc190;}.cls-11,.cls-4{stroke-linejoin:round;}.cls-4,.cls-5{stroke-width:6px;}.cls-5{stroke:#356cb6;stroke-miterlimit:10;}.cls-6{fill:#f8dc25;}.cls-7{fill:#4bc190;}.cls-8{fill:#393c54;}.cls-10{opacity:0.1;}.cls-11{stroke:#393c54;stroke-width:2px;}.cls-13{fill:#f85565;}.cls-14,.cls-15{fill:#515570;}</style></defs><title/><circle class="cls-1" cx="64" cy="64" r="60"/><path class="cls-2" d="M113.75,78.27C113.75,73.15,91.47,75,64,75s-49.75-1.85-49.75,3.27S36.53,97.48,64,97.48,113.75,83.39,113.75,78.27Z"/><path class="cls-3" d="M64,19h0a44,44,0,0,1,44,44v44a0,0,0,0,1,0,0H20a0,0,0,0,1,0,0V63A44,44,0,0,1,64,19Z"/><line class="cls-4" x1="64" x2="64" y1="27.18" y2="18"/><line class="cls-5" x1="64" x2="64" y1="27.18" y2="18"/><circle class="cls-6" cx="64" cy="17" r="4.75"/><path class="cls-7" d="M64,115A26,26,0,0,1,38,89V52a26,26,0,0,1,52,0V89A26,26,0,0,1,64,115Z"/><path class="cls-3" d="M64,114A18.59,18.59,0,0,1,45.44,95.44V74.56C45.44,64.33,53.77,61,64,61s18.56,3.33,18.56,13.56V95.44A18.59,18.59,0,0,1,64,114Z"/><path class="cls-8" d="M72.1,88.31a53.34,53.34,0,0,1-16.25,0,3.75,3.75,0,0,1-3.09-2.93,68.23,68.23,0,0,1-1.12-16.15,3.83,3.83,0,0,1,2.73-3.54,34.22,34.22,0,0,1,19.24,0,3.82,3.82,0,0,1,2.74,3.56,72.18,72.18,0,0,1-1.16,16.09A3.72,3.72,0,0,1,72.1,88.31Z"/><path class="cls-9" d="M113.19,76.76s-7,15.87-49.19,15.87S14.81,76.76,14.81,76.76l-9,2.07a60,60,0,0,0,116.3,0Z"/><path class="cls-10" d="M113.19,76.76s-7,15.87-49.19,15.87S14.81,76.76,14.81,76.76l-9,2.07a60,60,0,0,0,116.3,0Z"/><path class="cls-10" d="M64,100.19c-42.48,0-54.88-15.54-57.68-19.66a60,60,0,0,0,115.36,0C118.88,84.65,106.48,100.19,64,100.19Z"/><line class="cls-11" x1="64" x2="64" y1="36.42" y2="41.83"/><line class="cls-11" x1="69" x2="67" y1="37.42" y2="42.83"/><line class="cls-11" x1="73" x2="70" y1="40.42" y2="43.83"/><line class="cls-11" x1="59" x2="61" y1="37.42" y2="42.83"/><line class="cls-11" x1="55" x2="58" y1="40.42" y2="43.83"/><circle class="cls-9" cx="64" cy="49.67" r="9"/><circle class="cls-8" cx="64" cy="49.67" r="4.25"/><path class="cls-7" d="M73,49.67a9,9,0,0,0-18,0A21.23,21.23,0,0,1,73,49.67Z"/><path class="cls-12" d="M73,49.67a9,9,0,0,0-18,0A21.23,21.23,0,0,1,73,49.67Z"/><path class="cls-13" d="M75.19,85.34c.32-1.71.56-3.45.75-5.21-2.26-3.41-6.76-4.89-11.95-4.89s-9.77,1.51-12,5c.2,1.75.45,3.47.79,5.16a3.75,3.75,0,0,0,3.09,2.93,53.34,53.34,0,0,0,16.25,0A3.72,3.72,0,0,0,75.19,85.34Z"/><path class="cls-14" d="M64,75.24c-.34,0-.66,0-1,0V81a1,1,0,0,0,2,0V75.27C64.66,75.26,64.33,75.24,64,75.24Z"/><path class="cls-9" d="M71.59,85.22a54.36,54.36,0,0,1-15.18,0A1.23,1.23,0,0,0,55,86.43v1.63a4,4,0,0,0,.85.25,53.34,53.34,0,0,0,16.25,0A3.36,3.36,0,0,0,73,88V86.43A1.23,1.23,0,0,0,71.59,85.22Z"/><path class="cls-9" d="M73.61,65.69a34.22,34.22,0,0,0-19.24,0l-.37.14v1a2,2,0,0,0,2.2,2,86.47,86.47,0,0,1,15.6,0,2,2,0,0,0,2.2-2v-1A2.62,2.62,0,0,0,73.61,65.69Z"/><path class="cls-3" d="M42.5,39.5C30.78,51.22,28,63.68,28,56s3.93-15.36,9.79-21.21S51.3,25,59,25,54.22,27.78,42.5,39.5Z"/><path class="cls-15" d="M97.49,51.33l.89,2.79.44,1.4,1.33,4.19a2.93,2.93,0,1,0,3.67,1.91l-2.21-7,4.19-1.33,1.33,4.19a2.93,2.93,0,1,0,3.68,1.9l-2.22-7-1.27-4.21Z"/></svg>