<?xml version="1.0" encoding="utf-8"?>
<!-- Generator: Adobe Illustrator 26.1.0, SVG Export Plug-In . SVG Version: 6.00 Build 0)  -->
<svg version="1.1" id="Layer_1" xmlns="http://www.w3.org/2000/svg" xmlns:xlink="http://www.w3.org/1999/xlink" x="0px" y="0px"
	 viewBox="0 0 100 100" style="enable-background:new 0 0 100 100;" xml:space="preserve">
<style type="text/css">
	.st0{fill:#FFCA3C;}
	.st1{clip-path:url(#SVGID_00000064338197790670608420000007019533563081103540_);}
	.st2{fill:#818689;}
	.st3{fill:#C1BDBB;}
	.st4{fill:#231F20;}
	.st5{fill:#FFFFFF;}
	.st6{opacity:0.2;fill:#FFFFFF;}
</style>
<g>
	<circle class="st0" cx="50" cy="50" r="45"/>
	<g>
		<defs>
			<circle id="SVGID_1_" cx="50" cy="50" r="45"/>
		</defs>
		<clipPath id="SVGID_00000098900751542572821270000007610688848446842807_">
			<use xlink:href="#SVGID_1_"  style="overflow:visible;"/>
		</clipPath>
		<g style="clip-path:url(#SVGID_00000098900751542572821270000007610688848446842807_);">
			<g>
				<path class="st2" d="M74.6,78.05c-0.18-3.65-0.57-7.56-1.43-11.13c-0.76-3.15-1.7-11.05-4.26-12.79
					c-1.5-3.81-9.67-3.39-13.23-2.26c-4.08,1.29-5.47,3.19-5.88,5.81c-0.4-2.63-1.79-4.53-5.88-5.81
					c-3.56-1.12-11.72-1.54-13.23,2.26c-2.56,1.75-3.5,9.64-4.26,12.79c-0.86,3.57-1.24,7.48-1.43,11.13
					c-0.14,2.91-0.35,6.39,0.2,9.2c0.9,4.6,6.77,6.48,10.88,7.4c4.34,0.96,9.14,0.81,13.59,0.61c0.05-0.32,0.08-0.63,0.12-0.95
					c0.04,0.32,0.08,0.63,0.12,0.95c4.45,0.2,9.26,0.35,13.59-0.61c4.11-0.91,9.99-2.8,10.88-7.4
					C74.95,84.44,74.74,80.96,74.6,78.05z M49.8,63.98c0.1,2.43,0.08,4.88,0,7.34C49.73,68.86,49.7,66.41,49.8,63.98z"/>
				<path class="st3" d="M69.5,67.07c-0.71-1.91-1.62-3.48-1.37-5.6c0.23-1.95,0.98-3.45,0.98-5.59c-0.56-2.25-6.07-3.68-8.15-3.94
					c-3.22-0.4-8.05-0.83-11.15,0.86c-3.1-1.69-7.93-1.25-11.15-0.86c-2.08,0.26-7.59,1.68-8.15,3.94c0,2.14,0.75,3.64,0.98,5.59
					c0.24,2.11-0.67,3.69-1.37,5.6c-1.6,4.34,0.52,9.32,3.14,12.93c3.29,4.54,7.8,8.47,13.13,10.53c1.16,0.45,2.35,0.77,3.42,0.66
					c1.07,0.11,2.26-0.21,3.42-0.66c5.33-2.06,9.84-5.99,13.13-10.53C68.97,76.39,71.1,71.41,69.5,67.07z"/>
				<g>
					<path class="st2" d="M40.89,34.57c-1.39-6.39-8.4-11.93-14.64-12.14c-4.4-0.15-15.29,4.53-8.94,9.91
						c-5.01,0.95-4.61,5.48,0.33,5.85c-1.65,2.95-1.42,5.94,2.85,6.06c-0.22,5.99,10.18,7.82,14.36,5.39
						C40.47,46.38,38.91,39.18,40.89,34.57z"/>
					<path class="st3" d="M34.46,53.85c6.17-6.45,5.91-15.31,0.27-21.68c-2.16-2.44-4.38-4.71-7.99-4.71
						c-3.4,0.01-5.56,2.33-5.13,5.79c0.3,2.43,2.16,2.57,2.14,3.31c-0.01,0.77-1.11,1.26-1.22,2.74c-0.19,2.53,0.94,3.53,3.33,4.28
						c-2.3,4.27,4.66,4.55,7.11,4.61C33.8,50.19,32.7,52.56,34.46,53.85z"/>
				</g>
				<g>
					<path class="st2" d="M58.72,34.57c1.39-6.39,8.4-11.93,14.64-12.14c4.4-0.15,15.29,4.53,8.94,9.91
						c5.01,0.95,4.61,5.48-0.33,5.85c1.65,2.95,1.42,5.94-2.85,6.06c0.22,5.99-10.18,7.82-14.36,5.39
						C59.14,46.38,60.69,39.18,58.72,34.57z"/>
					<path class="st3" d="M65.14,53.85c-6.17-6.45-5.91-15.31-0.27-21.68c2.16-2.44,4.38-4.71,7.99-4.71
						c3.4,0.01,5.56,2.33,5.13,5.79c-0.3,2.43-2.16,2.57-2.14,3.31c0.01,0.77,1.11,1.26,1.22,2.74c0.19,2.53-0.94,3.53-3.33,4.28
						c2.3,4.27-4.66,4.55-7.11,4.61C65.81,50.19,66.91,52.56,65.14,53.85z"/>
				</g>
				<path class="st2" d="M71.55,42.64c-2.09-4.82-4.16-9.62-8.23-13.17c-3.68-3.22-8.67-3.32-13.36-3.32c0,0,0,0,0,0
					c-0.05,0-0.1,0-0.15,0c-0.05,0-0.1,0-0.15,0c0,0,0,0,0,0c-4.7,0-9.68,0.1-13.36,3.32c-4.06,3.55-6.14,8.35-8.23,13.17
					c-1.45,3.34-2.58,8.44-1.26,12.03c1.66,4.51,6.51,7.28,10.8,8.7c3.68,1.22,8.34,1.31,12.2,1.12c3.86,0.19,8.52,0.1,12.2-1.12
					c4.29-1.43,9.15-4.19,10.8-8.7C74.13,51.08,73,45.98,71.55,42.64z M49.8,26.25c0.32,0.22,0.2,0.2,0,0.2
					C49.6,26.44,49.48,26.46,49.8,26.25z"/>
				<g>
					<g>
						<path class="st4" d="M49.47,53.89c0.51,2.14-0.81,4.04-2.77,4.81c-0.93,0.37-1.94,0.53-2.94,0.47
							c-0.5-0.03-0.99-0.14-1.46-0.31c-0.47-0.17-0.92-0.27-1.39-0.4c-0.23-0.06-0.41,0.19-0.3,0.39c0.33,0.6,0.72,0.95,1.37,1.18
							c0.57,0.19,1.18,0.29,1.78,0.31c1.24,0.04,2.49-0.24,3.61-0.76c2.07-0.97,3.96-3.62,2.54-5.86
							C49.76,53.47,49.4,53.62,49.47,53.89L49.47,53.89z"/>
					</g>
				</g>
				<g>
					<circle class="st4" cx="40.5" cy="43.15" r="2.57"/>
					<circle class="st5" cx="40.5" cy="43.15" r="0.81"/>
				</g>
				<path class="st4" d="M54.7,42.86c-0.72-2.92-2.01-3.38-4.59-3.42c0,0,0,0,0-0.01c-0.1,0-0.2,0-0.3,0c-0.1,0-0.2,0-0.3,0
					c0,0,0,0,0,0.01c-2.58,0.05-3.88,0.5-4.59,3.42c-0.53,2.17-0.98,4.94-0.86,7.21c0.12,2.22,1.19,4.77,4.84,5.42
					c0.24,0.1,0.54,0.14,0.91,0.11c0.37,0.02,0.67-0.02,0.91-0.11c3.65-0.65,4.72-3.2,4.84-5.42C55.68,47.79,55.23,45.02,54.7,42.86
					z"/>
				<g>
					<g>
						<path class="st4" d="M50.22,53.7c-1.41,2.25,0.47,4.89,2.54,5.86c1.12,0.53,2.37,0.81,3.61,0.76c0.6-0.02,1.21-0.12,1.78-0.31
							c0.65-0.22,1.04-0.58,1.37-1.18c0.11-0.2-0.07-0.45-0.3-0.39c-0.47,0.13-0.93,0.23-1.39,0.4c-0.47,0.18-0.96,0.28-1.46,0.31
							c-1,0.07-2.01-0.1-2.94-0.47c-1.96-0.77-3.28-2.67-2.77-4.81C50.72,53.62,50.37,53.47,50.22,53.7L50.22,53.7z"/>
					</g>
				</g>
				<g>
					<circle class="st4" cx="59.11" cy="43.15" r="2.57"/>
					<circle class="st5" cx="59.11" cy="43.15" r="0.81"/>
				</g>
			</g>
			<path class="st6" d="M50.1,26.15c-0.05,0-0.1,0-0.14,0c0,0,0,0,0,0c-0.05,0-0.1,0-0.15,0c-0.05,0-0.1,0-0.15,0c0,0,0,0,0,0
				c-4.12,0-8.47,0.08-11.96,2.28c-2.95-3.44-7.36-5.86-11.44-6c-4.4-0.15-15.29,4.53-8.94,9.91c-5.01,0.95-4.61,5.48,0.33,5.85
				c-1.65,2.95-1.42,5.94,2.85,6.06c-0.11,3.07,2.55,5.04,5.75,5.91c-0.08,1.6,0.07,3.15,0.56,4.5c0.41,1.12,1.02,2.12,1.76,3.03
				c-1.05,3.07-1.63,7.15-2.12,9.22c-0.86,3.57-1.24,7.48-1.43,11.13c-0.14,2.91-0.35,6.39,0.2,9.2c0.9,4.6,6.77,6.48,10.88,7.4
				c4.34,0.96,9.14,0.81,13.59,0.61c0.05-0.32,0.08-0.63,0.12-0.95c0.04,0.32,0.07,0.63,0.12,0.95c0.06,0,0.12,0,0.17,0.01V26.15z
				 M49.8,26.45c-0.2,0-0.32,0.02,0-0.2C50.12,26.46,50,26.44,49.8,26.45z"/>
		</g>
	</g>
</g>
</svg>
