<?xml version="1.0" encoding="utf-8"?>
<!-- Generator: Adobe Illustrator 26.1.0, SVG Export Plug-In . SVG Version: 6.00 Build 0)  -->
<svg version="1.1" id="Layer_1" xmlns="http://www.w3.org/2000/svg" xmlns:xlink="http://www.w3.org/1999/xlink" x="0px" y="0px"
	 viewBox="0 0 100 100" style="enable-background:new 0 0 100 100;" xml:space="preserve">
<style type="text/css">
	.st0{fill:#C5C5C5;}
	.st1{fill:#A4A4A4;}
	.st2{fill:#5F382A;}
	.st3{fill:#EEF2EB;}
	.st4{fill:#ECECEC;}
	.st5{opacity:0.5;}
</style>
<g>
	<g>
		<g>
			<g>
				<path class="st0" d="M69.47,32.31c0,0,1.64-33.52,20.11-23.69c6.67,3.55,10.31,19.05-8.28,29.06L69.47,32.31z"/>
				<path class="st1" d="M86.51,13.21c-5.73-2.92-12.45,3.94-14.57,20.22l7.59,3.36C79.54,36.78,97.7,18.9,86.51,13.21z"/>
			</g>
			<g>
				<path class="st0" d="M30.53,32.31c0,0-1.64-33.52-20.11-23.69c-6.67,3.55-10.31,19.05,8.28,29.06L30.53,32.31z"/>
				<path class="st1" d="M13.49,13.21c5.73-2.92,12.45,3.94,14.57,20.22l-7.59,3.36C20.46,36.78,2.3,18.9,13.49,13.21z"/>
			</g>
		</g>
		<path class="st0" d="M88.88,52.8c-0.47-3.52-1.38-6.99-2.67-10.33c-1.21-3.14-2.76-6.15-4.59-8.96c-1.65-2.53-3.53-4.89-5.6-7.03
			c-1.9-1.96-3.96-3.73-6.16-5.27c-1.83-1.28-3.75-2.4-5.75-3.34c-4.38-2.05-9.14-3.21-14.11-3.21c-4.97,0-9.73,1.16-14.11,3.21
			c-2,0.94-3.92,2.06-5.75,3.34c-2.2,1.54-4.26,3.31-6.16,5.27c-2.08,2.14-3.95,4.51-5.6,7.03c-1.83,2.81-3.38,5.82-4.59,8.96
			c-1.29,3.34-2.2,6.81-2.67,10.33c-0.25,1.85-0.38,3.71-0.38,5.56c0,2.25,0.19,4.4,0.55,6.46C14.42,82.63,30.56,93.19,50,93.19
			c19.44,0,35.58-10.56,38.71-28.37c0.36-2.06,0.55-4.21,0.55-6.46C89.27,56.5,89.13,54.64,88.88,52.8z"/>
		<g>
			<g>
				<path class="st1" d="M72.55,66.34c1.73,1.73,1.73,4.54,0,6.28c-1.73,1.73-7.02,4.21-8.75,2.47c-1.73-1.73,0.74-7.02,2.47-8.75
					C68.01,64.61,70.82,64.61,72.55,66.34z"/>
				<path class="st1" d="M27.45,66.34c-1.73,1.73-1.73,4.54,0,6.28c1.73,1.73,7.02,4.21,8.75,2.47c1.73-1.73-0.74-7.02-2.47-8.75
					C31.99,64.61,29.18,64.61,27.45,66.34z"/>
			</g>
		</g>
		<g>
			<circle class="st2" cx="69.91" cy="50.2" r="4.8"/>
			<circle class="st2" cx="30.09" cy="50.2" r="4.8"/>
		</g>
		<g>
			<path class="st3" d="M29.99,49.31c0,1.07-0.87,1.94-1.94,1.94s-1.94-0.87-1.94-1.94c0-1.07,0.87-1.94,1.94-1.94
				S29.99,48.24,29.99,49.31z"/>
			<path class="st3" d="M69.81,49.31c0,1.07-0.87,1.94-1.94,1.94c-1.07,0-1.94-0.87-1.94-1.94c0-1.07,0.87-1.94,1.94-1.94
				C68.94,47.37,69.81,48.24,69.81,49.31z"/>
		</g>
		<path class="st4" d="M59.36,57.68c0,11.56-3.8,14.07-9.37,14.07c-5.57,0-9.33-2.5-9.33-14.07s9.33-27.81,9.33-27.81
			S59.36,46.12,59.36,57.68z"/>
	</g>
	<g class="st5">
		<g>
			<g>
				<path class="st0" d="M86.21,42.47c-0.8-2.06-1.74-4.07-2.81-6c16.2-10,12.6-24.44,6.19-27.85c-11.48-6.1-16.45,4.51-18.58,13.44
					c-0.38-0.29-0.76-0.57-1.15-0.85c-1.83-1.28-3.75-2.4-5.75-3.34c-4.38-2.05-9.14-3.21-14.11-3.21v78.53
					c19.44,0,35.58-10.56,38.71-28.37c0.36-2.06,0.55-4.21,0.55-6.46c0-1.86-0.13-3.72-0.38-5.56C88.41,49.28,87.5,45.8,86.21,42.47
					z"/>
			</g>
		</g>
	</g>
</g>
</svg>
