<?xml version="1.0" encoding="utf-8"?>
<!-- Generator: Adobe Illustrator 26.1.0, SVG Export Plug-In . SVG Version: 6.00 Build 0)  -->
<svg version="1.1" id="Layer_1" xmlns="http://www.w3.org/2000/svg" xmlns:xlink="http://www.w3.org/1999/xlink" x="0px" y="0px"
	 viewBox="0 0 100 100" style="enable-background:new 0 0 100 100;" xml:space="preserve">
<style type="text/css">
	.st0{fill:#FF6470;}
	.st1{clip-path:url(#SVGID_00000088113161831323001890000017440063052485647788_);}
	.st2{fill:#666666;}
	.st3{fill:#333333;}
	.st4{clip-path:url(#XMLID_00000096781188267194254800000017559471445229044393_);fill:#B2B2B2;}
	.st5{clip-path:url(#XMLID_00000096781188267194254800000017559471445229044393_);fill:#333333;}
	.st6{fill:#231F20;}
	.st7{fill:#FFFFFF;}
	.st8{opacity:0.2;fill:#FFFFFF;}
</style>
<g>
	<circle class="st0" cx="50" cy="50" r="45"/>
	<g>
		<defs>
			<circle id="SVGID_1_" cx="50" cy="50" r="45"/>
		</defs>
		<clipPath id="SVGID_00000122682259415198695520000008421212257518890133_">
			<use xlink:href="#SVGID_1_"  style="overflow:visible;"/>
		</clipPath>
		<g style="clip-path:url(#SVGID_00000122682259415198695520000008421212257518890133_);">
			<g>
				<g>
					<path class="st2" d="M32.21,48.46c0,0-4.12-4.12-8.39-2.35c-4.27,1.77-4.71,6.33-1.32,7.5s7.21,1.62,8.53,0.74
						C32.36,53.47,32.21,48.46,32.21,48.46z"/>
					<path class="st2" d="M67.79,48.46c0,0,4.12-4.12,8.39-2.35c4.27,1.77,4.71,6.33,1.32,7.5s-7.21,1.62-8.53,0.74
						C67.64,53.47,67.79,48.46,67.79,48.46z"/>
					<path class="st2" d="M99.92,164.12c-2.16-2.55-8.63-1.77-8.63-1.77s4.32-6.28,6.47-12.36c2.16-6.08,3.53-19.82-0.98-23.54
						c-4.51-3.73-13.34,4.51-13.34,4.51c-0.89,1.33-5.65,9.08-10.42,17.26c1.68-6.34,3.13-12,3.36-13.53
						c0.59-3.92-1.57-46.69-4.9-52.78c-2.97-5.42-17.96-6.63-21.16-6.83l0-0.03c0,0-0.11,0.01-0.31,0.02
						c-0.19-0.01-0.31-0.02-0.31-0.02l0,0.03c-3.21,0.2-18.19,1.41-21.16,6.83c-3.34,6.08-5.49,48.85-4.9,52.78
						c0.23,1.53,1.68,7.19,3.36,13.53c-4.77-8.18-9.53-15.92-10.42-17.26c0,0-8.83-8.24-13.34-4.51
						c-4.51,3.73-3.14,17.46-0.98,23.54c2.16,6.08,6.47,12.36,6.47,12.36s-6.47-0.78-8.63,1.77c-2.16,2.55-0.39,5.89,0.98,6.08
						c1.09,0.16,22.28,0.19,31.89-0.39h16.94h0.22h16.94c9.61,0.58,30.8,0.55,31.89,0.39C100.31,170.01,102.08,166.67,99.92,164.12z
						"/>
					<path class="st3" d="M91.68,106.05c-2.16-17.46-14.13-31.2-19.03-47.48c-4.9-16.28-3.5-21.6-9.22-33.16
						c-4.61-9.3-12.74-9.2-14.52-9.06c-2.34-0.02-8.24,0.81-12.33,9.06c-5.72,11.56-4.32,16.87-9.22,33.16
						c-4.9,16.28-16.87,30.02-19.03,47.48c-2.16,17.46,2.75,39.63,4.9,47.87s5.1,14.13,8.24,14.71c3.14,0.59,4.71-3.73,4.71-3.73
						s0.59,4.32,3.53,4.32s3.92-4.12,3.92-4.12s-0.24,4.02,2.75,4.32c2.99,0.29,3.73-3.73,3.73-3.73s0.59,3.73,4.32,3.53
						c3.73-0.2,4.32-21.78,4.71-28.45c0.39-6.67-2.16-23.74-8.44-35.32c-3.11-5.74-6.47-15.3-2.94-20.6
						c3.22-4.83,10.84-6.17,12.17-6.17c1.12-0.01,9.05,1.25,12.33,6.17c3.53,5.3,0.17,14.86-2.94,20.6
						c-6.28,11.58-8.83,28.64-8.44,35.32c0.39,6.67,0.98,28.25,4.71,28.45c3.73,0.2,4.32-3.53,4.32-3.53s0.74,4.02,3.73,3.73
						c2.99-0.29,2.75-4.32,2.75-4.32s0.98,4.12,3.92,4.12c2.94,0,3.53-4.32,3.53-4.32s1.57,4.32,4.71,3.73
						c3.14-0.59,6.08-6.47,8.24-14.71C88.93,145.68,93.84,123.51,91.68,106.05z"/>
					<g>
						<defs>
							<path id="XMLID_7_" d="M66.53,53.61c-1.31-7.57-3.9-15.74-3.9-15.74s-0.69-0.41-3.23-0.59c-2.02-0.14-7.57-0.51-10.17-0.47
								c-1.93-0.04-6.6,0.33-8.62,0.47c-2.54,0.18-3.23,0.59-3.23,0.59s-2.59,8.18-3.9,15.74c-1.51,8.68-2.02,13.24,3.36,19.28
								c4.49,5.04,11,4.93,12.96,4.89c2.05-0.03,8.28,1.07,13.37-4.89C68.42,66.74,68.04,62.29,66.53,53.61z"/>
						</defs>
						<use xlink:href="#XMLID_7_"  style="overflow:visible;fill:#8C8C8C;"/>
						<clipPath id="XMLID_00000172418964298815328910000010078436535786656166_">
							<use xlink:href="#XMLID_7_"  style="overflow:visible;"/>
						</clipPath>
						<path style="clip-path:url(#XMLID_00000172418964298815328910000010078436535786656166_);fill:#B2B2B2;" d="M30.79,68.67
							c0,0,1.18-3.83,6.08-6.77c4.9-2.94,8.53-2.94,8.53-2.94s-4-2.59-1.15-5.51c2.13-2.19,4.38,0.41,4.87,1.19
							c0.49,0.78,0.59,1.28,0.59,1.28s1.13-3.38,2.99-3.48c2.94-0.15,3.68,1.58,3.38,3.64c-0.29,2.06-1.37,2.59-1.37,2.59
							s5.3,1.28,8.73,3.63s4.41,7.36,4.41,7.36s-7.95,10.2-17.27,10.69S30.79,68.67,30.79,68.67z"/>
						
							<circle style="clip-path:url(#XMLID_00000172418964298815328910000010078436535786656166_);fill:#333333;" cx="46.33" cy="55.6" r="1.03"/>
						
							<circle style="clip-path:url(#XMLID_00000172418964298815328910000010078436535786656166_);fill:#333333;" cx="53.03" cy="55.53" r="1.03"/>
					</g>
					<rect x="31.33" y="67.98" class="st3" width="36.49" height="0.85"/>
				</g>
				<g>
					<circle class="st6" cx="46.49" cy="49.01" r="2.23"/>
					<circle class="st7" cx="46.49" cy="49.01" r="0.7"/>
				</g>
				<g>
					<circle class="st6" cx="53.04" cy="49.01" r="2.23"/>
					<circle class="st7" cx="53.04" cy="49.01" r="0.7"/>
				</g>
			</g>
			<path class="st8" d="M49.68,16.32c-0.32,0-0.59,0.02-0.78,0.03c-2.34-0.02-8.24,0.81-12.33,9.06c-4.11,8.29-4.54,13.37-6.27,21.6
				c-1.6-0.98-4.01-1.92-6.48-0.9c-4.27,1.77-4.71,6.33-1.32,7.5c2.03,0.71,4.22,1.15,5.93,1.19c-0.32,1.19-0.68,2.43-1.08,3.76
				c-4.9,16.28-16.87,30.02-19.03,47.48c-0.78,6.28-0.64,13.16-0.04,19.79c-1.84-0.55-3.66-0.54-5.06,0.61
				c-4.51,3.73-3.14,17.46-0.98,23.54c2.16,6.08,6.47,12.36,6.47,12.36s-6.47-0.78-8.63,1.77c-2.16,2.55-0.39,5.89,0.98,6.08
				c1.09,0.16,22.28,0.19,31.89-0.39h16.73V16.32z"/>
		</g>
	</g>
</g>
</svg>
