<?xml version="1.0" encoding="utf-8"?>
<!-- Generator: Adobe Illustrator 26.1.0, SVG Export Plug-In . SVG Version: 6.00 Build 0)  -->
<svg version="1.1" id="Layer_1" xmlns="http://www.w3.org/2000/svg" xmlns:xlink="http://www.w3.org/1999/xlink" x="0px" y="0px"
	 viewBox="0 0 100 100" style="enable-background:new 0 0 100 100;" xml:space="preserve">
<style type="text/css">
	.st0{fill:#BBD64A;}
	.st1{clip-path:url(#SVGID_00000018919490429184485090000016565313337383667589_);}
	.st2{fill:#BC4029;}
	.st3{fill:#E9D8C9;}
	.st4{fill:#702E1E;}
	.st5{fill:#231F20;}
	.st6{fill:#FFFFFF;}
	.st7{opacity:0.2;fill:#FFFFFF;}
</style>
<g>
	<circle class="st0" cx="50" cy="50" r="45"/>
	<g>
		<defs>
			<circle id="SVGID_1_" cx="50" cy="50" r="45"/>
		</defs>
		<clipPath id="SVGID_00000080176791695696415960000003494815310583115916_">
			<use xlink:href="#SVGID_1_"  style="overflow:visible;"/>
		</clipPath>
		<g style="clip-path:url(#SVGID_00000080176791695696415960000003494815310583115916_);">
			<g>
				<path class="st2" d="M35.78,61.85c-0.41,1.05,0.38,3.01,0.04,4.41c-0.41,1.67-1.2,3.47-1.92,5.02
					c-1.48,3.19-3.62,6.03-5.03,9.26c-1.29,2.97-1.99,6.15-1.99,9.37c0,1.66-0.26,3.6,0.11,5.22c0.52,2.31,3.21,3.51,5.26,4.35
					c6.58,2.71,13.66,5.77,20.63,2.63c-0.37-1.02,0.22-2.27,0.3-3.37c0.19-2.73,0.14-5.6,0.12-8.33c-0.03-5.51,0.25-11.36,0-16.84
					c-0.14-3.18-0.9-6.33-3.83-8.35c-2.07-1.42-4.2-1.7-6.48-2.52C41.25,62.08,39.43,61.28,35.78,61.85z"/>
				<path class="st2" d="M64.22,61.84c0.41,1.05-0.38,3.01-0.04,4.41c0.41,1.67,1.2,3.47,1.92,5.02c1.48,3.19,3.62,6.03,5.03,9.26
					c1.29,2.97,1.99,6.15,1.99,9.37c0,1.66,0.26,3.6-0.11,5.22c-0.52,2.31-3.21,3.51-5.26,4.35c-6.58,2.71-13.66,5.77-20.63,2.63
					c0.37-1.02-0.22-2.27-0.3-3.37c-0.19-2.73-0.14-5.6-0.12-8.33c0.03-5.51-0.25-11.36,0-16.84c0.14-3.18,0.9-6.33,3.83-8.35
					c2.07-1.42,4.2-1.7,6.48-2.52C58.75,62.08,60.57,61.28,64.22,61.84z"/>
				<path class="st3" d="M62.6,95.25c-0.27-4.89-0.46-10.02-2.62-14.53c-1.68-3.51-4.92-7.77-9.29-7.82
					c-0.2-0.07-0.42-0.1-0.65-0.08c-0.28-0.04-0.54-0.01-0.78,0.09c-4.35,0.08-7.57,4.32-9.25,7.82c-2.16,4.52-2.35,9.64-2.62,14.53
					c-0.21,3.81-1.26,11.56,2.76,13.82c2.13,1.2,5.44,1.48,7.81,1.15c0.78-0.11,1.45-0.3,2.04-0.55c0.59,0.25,1.26,0.43,2.03,0.54
					c2.37,0.34,5.68,0.05,7.81-1.15C63.86,106.81,62.81,99.06,62.6,95.25z"/>
				<g>
					<g>
						<path id="XMLID_2_" class="st4" d="M26.62,16.36c0,0,4.26,0.07,9.24,3.78s7.37,7.44,7.95,8.65s0.89,2.43,0.89,2.43
							s-5.94,0.96-8.62,2.68c-2.68,1.72-5.81,5.81-5.81,5.81s-1.99-2.41-3.65-7.64S25.15,18.53,26.62,16.36z"/>
						<path class="st3" d="M34.97,22.52c-4.21-4.21-7.08-4.92-7.65-4.67c-0.57,0.26-0.21,6.13,0.5,8.94
							c0.7,2.81,1.82,5.76,2.97,8.06c0.59,1.19,1.1,1.98,1.47,2.5c1.11-1.22,2.52-2.62,3.83-3.46c1.29-0.83,3.34-1.48,5.12-1.94
							C40.01,29.69,38.11,25.66,34.97,22.52z"/>
					</g>
					<path class="st3" d="M28.47,41.29c0,0,1.66,2.05-0.91,5.82c-4.87,7.15-14.89,4.86-14.89,4.86l7.57,2.97
						c0,0-0.67,0.96-3.16,2.35c-2.14,1.2-2.87,1.39-2.87,1.39s3.35,0.96,5.36,0.96s3.45-0.1,3.45-0.1s-1.82,1.82-2.39,2.87
						c-0.57,1.05-0.77,1.72-0.77,1.72s10.06-2.59,18.58,1.44c8.52,4.02,9.96,8.81,10.25,9.96c0.29,1.15,0.77,0.1,0.77,0.1
						s0.38-15.8-2.2-22.99s-6.23-15.61-9.29-15.9C34.89,36.45,28.47,41.29,28.47,41.29z"/>
					<g>
						<circle class="st5" cx="37.08" cy="53.17" r="2.6"/>
						<circle class="st6" cx="37.08" cy="53.17" r="0.82"/>
					</g>
					<ellipse class="st5" cx="49.99" cy="76.34" rx="2.78" ry="3.21"/>
				</g>
				<g>
					<g>
						<path id="XMLID_1_" class="st4" d="M73.38,16.35c0,0-4.26,0.07-9.24,3.78s-7.37,7.44-7.95,8.65
							c-0.57,1.21-0.89,2.43-0.89,2.43s5.94,0.96,8.62,2.68c2.68,1.72,5.81,5.81,5.81,5.81s1.99-2.41,3.65-7.64
							S74.85,18.52,73.38,16.35z"/>
						<path class="st3" d="M65.03,22.51c4.21-4.21,7.08-4.92,7.65-4.67c0.57,0.26,0.21,6.13-0.5,8.94c-0.7,2.81-1.82,5.76-2.97,8.06
							c-0.59,1.19-1.1,1.98-1.47,2.5c-1.11-1.22-2.52-2.62-3.83-3.46c-1.29-0.83-3.34-1.48-5.12-1.94
							C59.99,29.69,61.89,25.66,65.03,22.51z"/>
					</g>
					<path class="st3" d="M71.53,41.28c0,0-1.66,2.05,0.91,5.82c4.87,7.15,14.89,4.86,14.89,4.86l-7.57,2.97
						c0,0,0.67,0.96,3.16,2.35c2.14,1.2,2.87,1.39,2.87,1.39s-3.35,0.96-5.36,0.96s-3.45-0.1-3.45-0.1s1.82,1.82,2.39,2.87
						c0.57,1.05,0.77,1.72,0.77,1.72s-10.06-2.59-18.58,1.44s-9.96,8.81-10.25,9.96c-0.29,1.15-0.77,0.1-0.77,0.1
						s-0.38-15.8,2.2-22.99c2.59-7.18,6.23-15.61,9.29-15.9C65.11,36.44,71.53,41.28,71.53,41.28z"/>
					<g>
						<circle class="st5" cx="62.92" cy="53.16" r="2.6"/>
						<circle class="st6" cx="62.92" cy="53.16" r="0.82"/>
					</g>
					<path class="st2" d="M66.57,33.59c-6.27-5.63-26.9-5.6-33.15,0.01c-6.66,5.97-8.74,16.49-8.74,16.49s5.87-4.86,10.83-4.17
						c5.76,0.79,8.61,2.77,10.23,10.53c1.63,7.76,2.84,20.04,2.84,20.04h1.34h0.44v-0.01h1.05c0,0,1.21-12.28,2.84-20.04
						c1.63-7.76,4.47-9.74,10.23-10.53c4.96-0.68,10.83,4.17,10.83,4.17S73.23,39.56,66.57,33.59z"/>
					<ellipse class="st5" cx="50.01" cy="76.33" rx="2.78" ry="3.21"/>
				</g>
			</g>
			<path class="st7" d="M49.63,29.39c-1.83,0.01-3.66,0.13-5.41,0.35c-0.12-0.31-0.25-0.63-0.41-0.96
				c-0.57-1.21-2.97-4.95-7.95-8.65c-4.98-3.7-9.24-3.78-9.24-3.78c-1.47,2.17-1.66,10.46,0,15.7c0.98,3.08,2.06,5.17,2.8,6.38
				c-3.27,5.15-4.55,10.78-4.71,11.56c-5.13,3.55-12.03,1.98-12.03,1.98l7.57,2.97c0,0-0.67,0.96-3.16,2.35
				c-2.14,1.2-2.87,1.39-2.87,1.39s3.35,0.96,5.36,0.96s3.45-0.1,3.45-0.1s-1.82,1.82-2.39,2.87c-0.57,1.05-0.77,1.72-0.77,1.72
				s8.15-2.09,15.99,0.42c0.07,0.6,0.09,1.19-0.03,1.71c-0.41,1.67-1.2,3.47-1.92,5.02c-1.48,3.19-3.62,6.03-5.03,9.26
				c-1.29,2.97-1.99,6.15-1.99,9.37c0,1.66-0.26,3.6,0.11,5.22c0.52,2.31,3.21,3.51,5.26,4.35c1.6,0.66,3.23,1.34,4.89,1.95
				c0.07,3.17,0.7,6.33,3.03,7.65c2.13,1.2,5.44,1.48,7.81,1.15c0.62-0.09,1.17-0.23,1.66-0.41V29.39z"/>
		</g>
	</g>
</g>
</svg>
