<?xml version="1.0" encoding="utf-8"?>
<!-- Generator: Adobe Illustrator 26.1.0, SVG Export Plug-In . SVG Version: 6.00 Build 0)  -->
<svg version="1.1" id="Layer_1" xmlns="http://www.w3.org/2000/svg" xmlns:xlink="http://www.w3.org/1999/xlink" x="0px" y="0px"
	 viewBox="0 0 100 100" style="enable-background:new 0 0 100 100;" xml:space="preserve">
<style type="text/css">
	.st0{fill:#489ED3;}
	.st1{fill:#C17474;}
	.st2{fill:#FFF9F3;}
	.st3{fill:#F2DAC0;}
	.st4{fill:#35190E;}
	.st5{fill:#FFFFFF;}
	.st6{fill:#FFD16C;}
	.st7{fill:#8E4F4F;}
</style>
<g>
	<circle class="st0" cx="50" cy="50" r="45"/>
	<g>
		<g>
			<path class="st1" d="M21.1,36.89c-0.39-5.08-0.26-10.44,2.09-15.97c0.67-1.57,2.44-2.24,3.79-1.43
				c4.77,2.87,7.94,7.44,10.28,13.02L21.1,36.89z"/>
		</g>
		<g>
			<path class="st1" d="M79.03,36.89c0.39-5.08,0.26-10.44-2.09-15.97c-0.67-1.57-2.44-2.24-3.79-1.43
				c-4.77,2.87-7.94,7.44-10.28,13.02L79.03,36.89z"/>
		</g>
		<g>
			<path class="st1" d="M82.06,43.26C78.14,27.45,65.05,20.2,50,20.2s-28.14,7.25-32.06,23.07c-1.22,4.91-1.35,9.92-0.46,14.77
				c0.02,0.11,0.05,0.22,0.07,0.33C20.5,73.65,32.64,83.13,50,83.13c17.36,0,29.5-9.48,32.45-24.78c0.02-0.11,0.05-0.22,0.07-0.33
				C83.41,53.18,83.28,48.17,82.06,43.26z M50,80.14c-16.52,0-30.17-10.08-32.44-23.18c0.07-2.24,0.42-4.47,1.09-6.6
				c0.18-0.57,0.38-1.14,0.61-1.69c0.57-1.39,1.28-2.72,2.15-3.97c0.23-0.34,0.48-0.66,0.74-0.99c0.51-0.64,1.08-1.25,1.68-1.83
				c0.45-0.43,0.92-0.84,1.42-1.23c0.49-0.39,1.01-0.76,1.54-1.1c1.77-1.14,3.72-2,5.76-2.51c0.61-0.15,1.23-0.27,1.86-0.36
				s1.25-0.14,1.89-0.15c0.84-0.02,1.69,0.03,2.53,0.14c0.62,0.09,1.23,0.21,1.83,0.38c0.9,0.25,1.77,0.59,2.61,1.01
				c0.55,0.28,1.09,0.59,1.6,0.93c0.51,0.34,1,0.72,1.47,1.12c1.62,1.4,2.91,3.12,3.68,5.02c0.77-1.89,2.06-3.62,3.68-5.02
				c0.46-0.4,0.95-0.77,1.47-1.12c0.51-0.34,1.05-0.66,1.6-0.93c0.83-0.42,1.71-0.76,2.61-1.01c0.6-0.17,1.21-0.3,1.83-0.38
				c6.75-0.93,13.66,2.65,17.4,8.02c0.52,0.75,0.99,1.53,1.4,2.34c0.17,0.34,0.33,0.67,0.49,1.02c0.46,1.03,0.83,2.09,1.13,3.17
				c0.24,0.87,0.42,1.75,0.56,2.64c0.09,0.59,0.16,1.19,0.21,1.79c0.04,0.44,0.06,0.88,0.07,1.31C80.17,70.07,66.52,80.14,50,80.14z
				"/>
			<path class="st2" d="M50,83.47c16.52,0,30.17-9.6,32.44-22.71c-0.01-0.44-0.04-4.68-0.07-5.12c-0.05-0.6-0.12-1.2-0.21-1.79
				c-0.14-0.89-0.32-1.77-0.56-2.64c-0.39-1.44-0.93-2.85-1.61-4.19c-0.41-0.8-0.88-1.59-1.4-2.34c-3.73-5.37-10.65-8.95-17.4-8.02
				c-0.62,0.09-1.23,0.21-1.83,0.38c-0.9,0.25-1.77,0.59-2.61,1.01c-0.55,0.28-1.09,0.59-1.6,0.93c-0.51,0.34-1,0.72-1.47,1.12
				c-1.62,1.4-2.91,3.12-3.68,5.02c-0.77-1.89-2.06-3.62-3.68-5.02c-0.46-0.4-0.95-0.77-1.47-1.12c-0.51-0.34-1.05-0.66-1.6-0.93
				c-0.83-0.42-1.71-0.76-2.61-1.01c-0.6-0.17-1.21-0.3-1.83-0.38c-0.84-0.12-1.69-0.16-2.53-0.14c-1.26,0.03-2.52,0.2-3.74,0.51
				c-2.04,0.51-3.99,1.37-5.76,2.51c-1.06,0.68-2.05,1.47-2.95,2.33c-0.6,0.58-1.16,1.19-1.68,1.83c-0.26,0.32-0.5,0.65-0.74,0.99
				c-0.87,1.25-1.58,2.59-2.15,3.97c-0.23,0.56-0.43,1.12-0.61,1.69c-0.67,2.13-1.02,8.17-1.09,10.41
				C19.83,73.87,33.48,83.47,50,83.47z"/>
			<g>
				<circle class="st3" cx="33.54" cy="53.8" r="11.41"/>
				<circle class="st3" cx="66.46" cy="53.8" r="11.41"/>
			</g>
			<g>
				<g>
					<circle class="st4" cx="33.87" cy="54.59" r="3.8"/>
					<g>
						<path class="st5" d="M31.67,54.59c-1.71-1.45,0.95-4.12,2.4-2.4c-0.49,0.62-0.59,0.96-0.99,1.41
							C32.81,53.87,32.48,53.98,31.67,54.59L31.67,54.59z"/>
					</g>
				</g>
				<g>
					<circle class="st4" cx="65.92" cy="54.59" r="3.8"/>
					<g>
						<path class="st5" d="M63.72,54.59c-1.71-1.45,0.95-4.12,2.4-2.4c-0.49,0.62-0.59,0.96-0.99,1.41
							C64.86,53.87,64.53,53.98,63.72,54.59L63.72,54.59z"/>
					</g>
				</g>
			</g>
		</g>
		<path class="st6" d="M55.43,68c0,3.51-2.43,8.38-5.43,8.38c-3,0-5.43-4.86-5.43-8.38c0-3.51,2.43-6.36,5.43-6.36
			C53,61.64,55.43,64.49,55.43,68z"/>
		<g>
			<path class="st7" d="M50.18,45.21c-6.43-4.68-15.11-6.11-22.69-3.73c-2.86,0.9-5.56,2.29-8.47,3.01
				c-2.91,0.72-6.23,0.66-8.62-1.14c4.57,0.68,7.59-1.37,11.56-3.73s7.99-5.04,12.59-5.49C41.46,33.43,49.03,38.35,50.18,45.21z"/>
			<path class="st7" d="M49.82,45.21c6.43-4.68,15.11-6.11,22.69-3.73c2.86,0.9,5.56,2.29,8.47,3.01c2.91,0.72,6.23,0.66,8.62-1.14
				c-4.57,0.68-7.59-1.37-11.56-3.73c-3.97-2.36-7.99-5.04-12.59-5.49C58.54,33.43,50.97,38.35,49.82,45.21z"/>
		</g>
	</g>
</g>
</svg>
