<?xml version="1.0" encoding="utf-8"?>
<!-- Generator: Adobe Illustrator 26.1.0, SVG Export Plug-In . SVG Version: 6.00 Build 0)  -->
<svg version="1.1" id="Layer_1" xmlns="http://www.w3.org/2000/svg" xmlns:xlink="http://www.w3.org/1999/xlink" x="0px" y="0px"
	 viewBox="0 0 100 100" style="enable-background:new 0 0 100 100;" xml:space="preserve">
<style type="text/css">
	.st0{fill:#B05E3B;}
	.st1{fill:#D19966;}
	.st2{fill:#E3BFB4;}
	.st3{fill:#5F382A;}
	.st4{fill:#EEF2EB;}
	.st5{opacity:0.4;}
</style>
<g>
	<g>
		<g>
			<g>
				<circle class="st0" cx="17.01" cy="44.48" r="12.01"/>
				<circle class="st1" cx="17.01" cy="44.48" r="7.3"/>
			</g>
			<g>
				<circle class="st0" cx="82.99" cy="44.48" r="12.01"/>
				<circle class="st1" cx="82.99" cy="44.48" r="7.3"/>
			</g>
		</g>
		<g>
			<path class="st0" d="M50,45c2.97-6.25,9.34-10.57,16.73-10.57c4.56,0,8.73,1.65,11.96,4.39C74.21,27.34,63.06,19.21,50,19.21
				c-13.06,0-24.21,8.13-28.69,19.61c3.23-2.74,7.4-4.39,11.96-4.39C40.66,34.43,47.03,38.75,50,45z"/>
			<path class="st2" d="M78.69,38.82c-3.23-2.74-7.4-4.39-11.96-4.39C59.34,34.43,52.97,38.75,50,45
				c-2.97-6.25-9.34-10.57-16.73-10.57c-4.56,0-8.73,1.65-11.96,4.39c-1.35,3.47-2.1,7.24-2.1,11.18c0,7.78,2.89,14.89,7.66,20.31
				C32.51,76.73,40.78,80.79,50,80.79c9.22,0,17.49-4.06,23.13-10.48c4.76-5.42,7.66-12.53,7.66-20.31
				C80.79,46.05,80.04,42.28,78.69,38.82z"/>
		</g>
		<g>
			<g>
				
					<ellipse transform="matrix(0.2286 -0.9735 0.9735 0.2286 1.7052 106.5439)" class="st3" cx="68.08" cy="52.2" rx="4.36" ry="4.36"/>
				
					<ellipse transform="matrix(0.7071 -0.7071 0.7071 0.7071 -27.5601 37.856)" class="st3" cx="31.92" cy="52.2" rx="4.36" ry="4.36"/>
			</g>
			<g>
				<path class="st4" d="M31.92,51.39c0,0.97-0.79,1.76-1.76,1.76s-1.76-0.79-1.76-1.76s0.79-1.76,1.76-1.76
					S31.92,50.42,31.92,51.39z"/>
				<circle class="st4" cx="66.32" cy="51.39" r="1.76"/>
			</g>
		</g>
		<g>
			<path class="st3" d="M52.94,59.56c1,0,1.84,0.65,2.14,1.54c0.42-0.57,0.66-1.22,0.66-1.91c0-2.26-2.57-1.69-5.75-1.69
				c-3.17,0-5.75-0.57-5.75,1.69c0,0.69,0.24,1.34,0.66,1.91c0.3-0.89,1.14-1.54,2.14-1.54c1.25,0,2.26,1.01,2.26,2.26
				c0,0.52-0.18,1-0.47,1.38c0.37,0.05,0.76,0.08,1.16,0.08c0.4,0,0.78-0.03,1.16-0.08c-0.3-0.38-0.47-0.86-0.47-1.38
				C50.69,60.57,51.7,59.56,52.94,59.56z"/>
		</g>
	</g>
	<g class="st5">
		<g>
			<g>
				<path class="st1" d="M82.99,32.47c-2.38,0-4.6,0.7-6.47,1.9C71.16,25.3,61.3,19.21,50,19.21v61.58
					c9.22,0,17.49-4.06,23.13-10.48c3.47-3.95,5.95-8.81,7.04-14.16c0.91,0.22,1.85,0.34,2.82,0.34c6.63,0,12.01-5.38,12.01-12.01
					C95,37.85,89.62,32.47,82.99,32.47z"/>
			</g>
		</g>
	</g>
</g>
</svg>
