<?xml version="1.0" ?><!-- Uploaded to: SVG Repo, www.svgrepo.com, Generator: SVG Repo Mixer Tools -->
<svg width="800px" height="800px" viewBox="0 0 128 128" data-name="Layer 1" id="Layer_1" xmlns="http://www.w3.org/2000/svg"><defs><style>.cls-1{fill:#ffd8c9;}.cls-15,.cls-2{fill:#ffffff;}.cls-11,.cls-14,.cls-2,.cls-8{opacity:0.3;}.cls-3{fill:#8f5653;}.cls-4{fill:#b56b63;}.cls-5{fill:#ff8475;}.cls-10,.cls-11,.cls-18,.cls-6,.cls-7,.cls-8{fill:none;stroke-linecap:round;}.cls-6{stroke:#393c54;}.cls-10,.cls-11,.cls-18,.cls-6,.cls-8{stroke-linejoin:round;}.cls-11,.cls-18,.cls-6{stroke-width:2px;}.cls-7{stroke:#7f3838;stroke-miterlimit:10;}.cls-7,.cls-8{stroke-width:6px;}.cls-10,.cls-11,.cls-8{stroke:#515570;}.cls-16,.cls-9{fill:#393c54;}.cls-10{stroke-width:1.64px;}.cls-12{fill:#7f3838;}.cls-13,.cls-14{fill:#515570;}.cls-13{opacity:0.7;}.cls-16{opacity:0.2;}.cls-17{fill:#f85565;}.cls-18{stroke:#8f5653;opacity:0.5;}</style></defs><title/><circle class="cls-1" cx="64" cy="66" r="60"/><circle class="cls-2" cx="64" cy="64" r="48"/><path class="cls-3" d="M64,126a59.92,59.92,0,0,0,48.93-25.29A45.57,45.57,0,0,0,70.18,70.9H57.82a45.57,45.57,0,0,0-42.75,29.81A59.92,59.92,0,0,0,64,126Z"/><path class="cls-4" d="M34.39,41.93h0a7.94,7.94,0,0,1,7.94,7.94V64.73a0,0,0,0,1,0,0H26.44a0,0,0,0,1,0,0V49.88a7.94,7.94,0,0,1,7.94-7.94Z" transform="translate(-27.64 39.93) rotate(-45)"/><path class="cls-5" d="M43.91,59.93l-9.29-9.29a7.94,7.94,0,0,0-10.57-.59,7.87,7.87,0,0,0,2.28,6.45L36.83,67Z"/><path class="cls-4" d="M85.67,41.93h15.89a0,0,0,0,1,0,0V56.78a7.94,7.94,0,0,1-7.94,7.94h0a7.94,7.94,0,0,1-7.94-7.94V41.93a0,0,0,0,1,0,0Z" transform="translate(122.1 157.23) rotate(-135)"/><path class="cls-5" d="M84.09,59.93l9.29-9.29A7.94,7.94,0,0,1,104,50.05a7.87,7.87,0,0,1-2.28,6.45L91.17,67Z"/><path class="cls-4" d="M28,87.18V76.34A36.15,36.15,0,0,1,64,40.05h0a36.15,36.15,0,0,1,36,36.29V87.18c0,18.14-18,33.92-36,33.69S28,108,28,87.18Z"/><path class="cls-6" d="M97.68,63.49A36.48,36.48,0,0,1,100,76.34"/><path class="cls-7" d="M64,40.05A36,36,0,0,1,97.68,63.49"/><path class="cls-6" d="M30.32,63.49A36.48,36.48,0,0,0,28,76.34"/><path class="cls-7" d="M64,40.05A36,36,0,0,0,30.32,63.49"/><path class="cls-8" d="M64,40.05A36,36,0,0,1,97.68,63.49"/><path class="cls-8" d="M64,40.05A36,36,0,0,0,30.32,63.49"/><path class="cls-2" d="M47.67,78.12c0-9,7.31-23.41,16.33-23.41S80.33,69.09,80.33,78.12,73,90.45,64,90.45,47.67,87.14,47.67,78.12Z"/><path class="cls-9" d="M75.94,70c0,3.59-5.35,5.4-11.94,5.4S52.06,73.61,52.06,70C52.06,67.92,75.94,67.65,75.94,70Z"/><line class="cls-6" x1="64" x2="64" y1="75.42" y2="84.76"/><path class="cls-6" d="M61,85.67s6.2.65,9.83-2.72"/><path class="cls-10" d="M83.51,63.49a2.29,2.29,0,1,1-4.54,0"/><path class="cls-10" d="M49,63.49a2.58,2.58,0,0,1-2.27,2.6,2.58,2.58,0,0,1-2.27-2.6"/><path class="cls-11" d="M40.63,62.51a6.81,6.81,0,0,1,6.81-6.81"/><path class="cls-11" d="M87.37,62.51a6.81,6.81,0,0,0-6.81-6.81"/><path class="cls-12" d="M83.09,29.5a101.29,101.29,0,0,0-19.8-1.17,101.29,101.29,0,0,0-19.8,1.17,4,4,0,0,0-4,4V45a4,4,0,0,0,4,4q3.12-.27,6.24-.42a4,4,0,0,0,1.76.42q5.9-.51,11.8-.64,5.91.12,11.8.64a4,4,0,0,0,1.76-.42q3.12.15,6.24.42a4,4,0,0,0,4-4V33.5A4,4,0,0,0,83.09,29.5Z"/><path class="cls-13" d="M83.09,29.5a101.29,101.29,0,0,0-19.8-1.17,101.29,101.29,0,0,0-19.8,1.17,4,4,0,0,0-4,4V45a4,4,0,0,0,4,4q3.12-.27,6.24-.42a4,4,0,0,0,1.76.42q5.9-.51,11.8-.64,5.91.12,11.8.64a4,4,0,0,0,1.76-.42q3.12.15,6.24.42a4,4,0,0,0,4-4V33.5A4,4,0,0,0,83.09,29.5Z"/><path class="cls-12" d="M79.09,25.5a100.28,100.28,0,0,0-31.6,0,4,4,0,0,0-4,4V41a4,4,0,0,0,4,4,183.23,183.23,0,0,1,31.6,0,4,4,0,0,0,4-4V29.5A4,4,0,0,0,79.09,25.5Z"/><path class="cls-12" d="M79.09,25.5a100.28,100.28,0,0,0-31.6,0,4,4,0,0,0-4,4V41a4,4,0,0,0,4,4,183.23,183.23,0,0,1,31.6,0,4,4,0,0,0,4-4V29.5A4,4,0,0,0,79.09,25.5Z"/><path class="cls-14" d="M79.09,25.5a100.28,100.28,0,0,0-31.6,0,4,4,0,0,0-4,4V41a4,4,0,0,0,4,4,183.23,183.23,0,0,1,31.6,0,4,4,0,0,0,4-4V29.5A4,4,0,0,0,79.09,25.5Z"/><path class="cls-15" d="M79.09,30.5a100.28,100.28,0,0,0-31.6,0,4,4,0,0,0-4,4V46a4,4,0,0,0,4,4,183.23,183.23,0,0,1,31.6,0,4,4,0,0,0,4-4V34.5A4,4,0,0,0,79.09,30.5Z"/><path class="cls-15" d="M79.09,30.5a100.28,100.28,0,0,0-31.6,0,4,4,0,0,0-4,4V46a4,4,0,0,0,4,4,183.23,183.23,0,0,1,31.6,0,4,4,0,0,0,4-4V34.5A4,4,0,0,0,79.09,30.5Z"/><path class="cls-16" d="M81.05,31c0,.16,0,.31,0,.47V43a4,4,0,0,1-4,4,183.23,183.23,0,0,0-31.6,0,3.93,3.93,0,0,1-2-.53,4,4,0,0,0,4,3.53,183.23,183.23,0,0,1,31.6,0,4,4,0,0,0,4-4V34.5A4,4,0,0,0,81.05,31Z"/><path class="cls-17" d="M63.5,42.34,66.62,44a.5.5,0,0,0,.73-.53L66.75,40l2.52-2.46a.5.5,0,0,0-.27-.85l-3.49-.51L64,33a.5.5,0,0,0-.9,0l-1.56,3.16L58,36.67a.5.5,0,0,0-.27.85L60.25,40l-.6,3.48a.5.5,0,0,0,.73.53Z"/><path class="cls-18" d="M64.35,110.69a4.33,4.33,0,0,0,8.17-2.63,4.33,4.33,0,0,0,7.3-4.51,4.33,4.33,0,0,0,6-6.11"/><path class="cls-18" d="M40.21,94.19a4.33,4.33,0,0,0,7.64,3.91,4.33,4.33,0,0,0,8.35,2"/></svg>