<?xml version="1.0" encoding="utf-8"?>
<!-- Generator: Adobe Illustrator 26.1.0, SVG Export Plug-In . SVG Version: 6.00 Build 0)  -->
<svg version="1.1" id="Layer_1" xmlns="http://www.w3.org/2000/svg" xmlns:xlink="http://www.w3.org/1999/xlink" x="0px" y="0px"
	 viewBox="0 0 100 100" style="enable-background:new 0 0 100 100;" xml:space="preserve">
<style type="text/css">
	.st0{fill:#FCC760;}
	.st1{fill:#83461E;}
	.st2{fill:#E3A45F;}
	.st3{fill:#5F382A;}
	.st4{fill:#EEF2EB;}
	.st5{opacity:0.4;}
	.st6{fill:#D19966;}
</style>
<g>
	<g>
		<g>
			<g>
				<g>
					<g>
						<g>
							<path class="st0" d="M67.75,40.75c0,0,1.46-29.87,17.92-21.11c5.94,3.16,9.18,16.98-7.38,25.89L67.75,40.75z"/>
							<path class="st1" d="M82.93,23.73c-5.11-2.6-11.09,3.51-12.98,18.02l6.76,2.99C76.71,44.74,92.9,28.8,82.93,23.73z"/>
						</g>
						<g>
							<path class="st0" d="M32.25,40.75c0,0-1.46-29.87-17.92-21.11C8.39,22.8,5.14,36.61,21.7,45.53L32.25,40.75z"/>
							<path class="st1" d="M17.07,23.73c5.11-2.6,11.09,3.51,12.98,18.02l-6.76,2.99C23.29,44.74,7.1,28.8,17.07,23.73z"/>
						</g>
					</g>
					<g>
						<g>
							<polygon class="st0" points="35.97,34.49 32.58,13.57 37.96,12.29 44.81,31.4 							"/>
							<circle class="st2" cx="34.58" cy="10.74" r="5.74"/>
						</g>
						<g>
							<polygon class="st0" points="64.03,34.49 67.42,13.57 62.04,12.29 55.19,31.4 							"/>
							<circle class="st2" cx="65.42" cy="10.74" r="5.74"/>
						</g>
					</g>
				</g>
				<g>
					<path class="st0" d="M85.12,63.96c0-1.65-0.12-3.31-0.34-4.96c-0.42-3.13-1.23-6.23-2.38-9.2c-1.08-2.79-2.46-5.48-4.09-7.98
						c-1.47-2.25-3.14-4.36-4.99-6.27c-1.69-1.75-3.53-3.33-5.49-4.7c-1.63-1.14-3.34-2.14-5.12-2.97
						c-3.9-1.82-8.14-2.86-12.57-2.86s-8.67,1.03-12.57,2.86c-1.78,0.83-3.5,1.83-5.12,2.97c-1.96,1.37-3.8,2.95-5.49,4.7
						c-1.85,1.91-3.52,4.01-4.99,6.27c-1.63,2.5-3.01,5.19-4.09,7.98c-1.15,2.97-1.96,6.07-2.38,9.2c-0.22,1.65-0.34,3.3-0.34,4.96
						c0,2,0.17,3.92,0.49,5.75c0.83,4.71,2.68,8.84,5.33,12.34c5-8.74,16.17-14.83,29.17-14.83S74.3,73.31,79.3,82.05
						c2.64-3.49,4.5-7.63,5.33-12.34C84.95,67.88,85.12,65.96,85.12,63.96z"/>
					<path class="st2" d="M50.13,67.22c-12.99,0-24.17,6.09-29.17,14.83C27.23,90.34,37.95,95,50.13,95s22.9-4.66,29.17-12.95
						C74.3,73.31,63.13,67.22,50.13,67.22z"/>
				</g>
				<g>
					<g>
						<g>
							<path class="st1" d="M66.27,76.21c1.54,1.54,1.54,4.05,0,5.59c-1.54,1.54-6.25,3.75-7.8,2.2c-1.54-1.54,0.66-6.25,2.2-7.8
								C62.23,74.67,64.73,74.67,66.27,76.21z"/>
						</g>
						<g>
							<path class="st1" d="M33.99,76.21c-1.54,1.54-1.54,4.05,0,5.59c1.54,1.54,6.25,3.75,7.8,2.2c1.54-1.54-0.66-6.25-2.2-7.8
								C38.04,74.67,35.53,74.67,33.99,76.21z"/>
						</g>
					</g>
				</g>
				<g>
					<circle class="st3" cx="67.87" cy="56.69" r="4.28"/>
					<circle class="st3" cx="32.39" cy="56.69" r="4.28"/>
				</g>
				<g>
					<path class="st4" d="M32.3,55.9c0,0.95-0.77,1.73-1.73,1.73c-0.95,0-1.73-0.77-1.73-1.73c0-0.95,0.77-1.73,1.73-1.73
						C31.53,54.17,32.3,54.94,32.3,55.9z"/>
					<path class="st4" d="M67.78,55.9c0,0.95-0.77,1.73-1.73,1.73c-0.95,0-1.73-0.77-1.73-1.73c0-0.95,0.77-1.73,1.73-1.73
						C67.01,54.17,67.78,54.94,67.78,55.9z"/>
				</g>
			</g>
		</g>
		<g>
			<g>
				<path class="st1" d="M17.57,66.63c0.12-2.08,5.43-5.2,7.23-4.16c2.08,1.2,2.27,8.81,0,9.62C22.67,72.84,17.43,68.89,17.57,66.63
					z"/>
				<path class="st1" d="M25.7,56.81c-0.11,1.82-4.74,4.54-6.32,3.63c-1.82-1.05-1.98-7.7,0-8.4C21.25,51.38,25.82,54.83,25.7,56.81
					z"/>
				<path class="st1" d="M21.04,47.96c0.1,1.65,4.31,4.13,5.74,3.3c1.65-0.96,1.8-6.99,0-7.63C25.09,43.03,20.94,46.16,21.04,47.96z
					"/>
				<path class="st1" d="M33.5,39.89c-0.39,1.3-4.2,2.48-5.19,1.56c-1.14-1.07-0.13-5.91,1.43-6.08
					C31.2,35.2,33.92,38.48,33.5,39.89z"/>
			</g>
			<g>
				<path class="st1" d="M82.43,66.63c-0.12-2.08-5.43-5.2-7.23-4.16c-2.08,1.2-2.27,8.81,0,9.62
					C77.33,72.84,82.57,68.89,82.43,66.63z"/>
				<path class="st1" d="M74.3,56.81c0.11,1.82,4.74,4.54,6.32,3.63c1.82-1.05,1.98-7.7,0-8.4C78.75,51.38,74.18,54.83,74.3,56.81z"
					/>
				<path class="st1" d="M78.96,47.96c-0.1,1.65-4.31,4.13-5.74,3.3c-1.65-0.96-1.8-6.99,0-7.63
					C74.91,43.03,79.06,46.16,78.96,47.96z"/>
				<path class="st1" d="M66.5,39.89c0.39,1.3,4.2,2.48,5.19,1.56c1.14-1.07,0.13-5.91-1.43-6.08C68.8,35.2,66.08,38.48,66.5,39.89z
					"/>
			</g>
		</g>
	</g>
	<g class="st5">
		<g>
			<g>
				<path class="st6" d="M85.67,19.63c-10.3-5.48-14.72,4.15-16.6,12.14c-0.41-0.31-0.82-0.62-1.24-0.92
					c-0.94-0.66-1.92-1.27-2.91-1.83l2.07-12.76c2.41-0.68,4.18-2.89,4.18-5.52c0-3.17-2.57-5.74-5.74-5.74
					c-3.17,0-5.74,2.57-5.74,5.74c0,1.5,0.58,2.86,1.52,3.88L57.16,25.9c-2.27-0.57-4.62-0.88-7.03-0.88c-0.04,0-0.09,0-0.13,0V95
					c0.04,0,0.09,0,0.13,0c12.18,0,22.9-4.66,29.17-12.95c2.64-3.49,4.5-7.63,5.33-12.34c0.32-1.83,0.49-3.75,0.49-5.75
					c0-1.65-0.12-3.31-0.34-4.96c-0.42-3.13-1.23-6.23-2.38-9.2c-0.69-1.8-1.51-3.54-2.44-5.23C94.62,35.65,91.4,22.68,85.67,19.63z
					"/>
			</g>
		</g>
	</g>
</g>
</svg>
