<?xml version="1.0" encoding="utf-8"?>
<!-- Generator: Adobe Illustrator 26.1.0, SVG Export Plug-In . SVG Version: 6.00 Build 0)  -->
<svg version="1.1" id="Layer_1" xmlns="http://www.w3.org/2000/svg" xmlns:xlink="http://www.w3.org/1999/xlink" x="0px" y="0px"
	 viewBox="0 0 100 100" style="enable-background:new 0 0 100 100;" xml:space="preserve">
<style type="text/css">
	.st0{fill:#B0B0B0;}
	.st1{fill:#C5C5C5;}
	.st2{fill:#D6D6D6;}
	.st3{fill:#FFF9DD;}
	.st4{fill:#5F382A;}
	.st5{fill:#EEF2EB;}
	.st6{opacity:0.5;}
</style>
<g>
	<g>
		<g>
			<g>
				<path class="st0" d="M51.07,41.38c0,15.6-4.35,28.24-18.36,28.24S5,56.98,5,41.38c0-15.6,6.68-25.64,20.7-25.64
					C39.71,15.74,51.07,25.79,51.07,41.38z"/>
				<path class="st0" d="M48.93,41.38c0,15.6,4.35,28.24,18.36,28.24C81.3,69.63,95,56.98,95,41.38c0-15.6-6.68-25.64-20.7-25.64
					S48.93,25.79,48.93,41.38z"/>
			</g>
			<path class="st1" d="M27.11,48.04c0.28,2.06,0.81,4.1,1.57,6.06c0.71,1.84,1.62,3.61,2.69,5.26c0.97,1.48,2.07,2.87,3.29,4.13
				c1.11,1.15,2.32,2.19,3.61,3.09c1.07,0.75,2.2,1.41,3.37,1.96c2.57,1.2,5.36,1.88,8.28,1.88c2.92,0,5.71-0.68,8.28-1.88
				c1.17-0.55,2.3-1.21,3.37-1.96c1.29-0.9,2.5-1.94,3.61-3.09c1.22-1.26,2.32-2.64,3.29-4.13c1.07-1.65,1.98-3.42,2.69-5.26
				c0.76-1.96,1.29-4,1.57-6.06c0.15-1.08,0.22-2.17,0.22-3.26c0-1.32-0.11-2.58-0.32-3.79C70.8,30.54,61.33,24.34,49.92,24.34
				c-11.41,0-20.87,6.2-22.71,16.65c-0.21,1.21-0.32,2.47-0.32,3.79C26.89,45.86,26.96,46.95,27.11,48.04z"/>
			<g>
				<path class="st2" d="M57.1,60.9c0-12.73-2.89-15.48-7.16-15.48s-7.19,2.75-7.19,15.48c0,6.33,0.39,14.86,1.47,21.84
					c0.6,3.85,2.97-0.87,5.71-0.87l0,0c2.75,0,5.12,4.71,5.72,0.86C56.72,75.76,57.1,67.23,57.1,60.9z"/>
			</g>
			<g>
				<path class="st3" d="M41.53,62.78c0,2.92-1.78,10.44-3.98,10.44c-2.2,0-3.98-7.53-3.98-10.44s1.78-5.28,3.98-5.28
					C39.75,57.5,41.53,59.86,41.53,62.78z"/>
				<path class="st3" d="M66.41,62.78c0,2.92-1.78,10.44-3.98,10.44c-2.2,0-3.98-7.53-3.98-10.44s1.78-5.28,3.98-5.28
					C64.62,57.5,66.41,59.86,66.41,62.78z"/>
			</g>
		</g>
		<g>
			<g>
				<circle class="st4" cx="61.68" cy="45.19" r="2.82"/>
				<circle class="st4" cx="38.32" cy="45.19" r="2.82"/>
			</g>
			<g>
				<circle class="st5" cx="37.12" cy="44.66" r="1.14"/>
				<path class="st5" d="M61.62,44.66c0,0.63-0.51,1.14-1.14,1.14c-0.63,0-1.14-0.51-1.14-1.14s0.51-1.14,1.14-1.14
					C61.11,43.53,61.62,44.04,61.62,44.66z"/>
			</g>
		</g>
	</g>
	<g class="st6">
		<g>
			<g>
				<path class="st1" d="M74.3,15.74c-7.98,0-15.11,3.26-19.76,8.95c-1.47-0.23-2.99-0.35-4.54-0.36v57.54
					c2.72,0.07,5.06,4.68,5.65,0.85c0.66-4.26,1.05-9.1,1.26-13.66c0.43-0.17,0.87-0.35,1.29-0.54c0.37-0.17,0.72-0.36,1.08-0.55
					c0.73,2.7,1.87,5.24,3.14,5.24c1.03,0,1.97-1.65,2.68-3.71c0.7,0.07,1.43,0.11,2.19,0.11C81.3,69.63,95,56.98,95,41.38
					C95,25.79,88.32,15.74,74.3,15.74z"/>
			</g>
		</g>
	</g>
</g>
</svg>
