<?xml version="1.0" encoding="utf-8"?>
<!-- Generator: Adobe Illustrator 26.1.0, SVG Export Plug-In . SVG Version: 6.00 Build 0)  -->
<svg version="1.1" id="Layer_1" xmlns="http://www.w3.org/2000/svg" xmlns:xlink="http://www.w3.org/1999/xlink" x="0px" y="0px"
	 viewBox="0 0 100 100" style="enable-background:new 0 0 100 100;" xml:space="preserve">
<style type="text/css">
	.st0{clip-path:url(#XMLID_00000032616329896876793300000000925166784768393363_);}
	.st1{fill:#1E2238;}
	.st2{fill:#374C6B;}
	.st3{fill:#E2DDD5;}
	.st4{fill:#F9E6C2;}
	.st5{fill:#D65123;}
	.st6{fill:#EEEBE3;}
	.st7{fill:#526789;}
	.st8{opacity:0.1;fill:#FFFFFF;}
	.st9{opacity:0.5;fill:#F7AD7C;}
	.st10{fill:#FFFFFF;}
	.st11{fill:#443434;}
	.st12{fill:#665353;}
</style>
<g id="XMLID_2660_">
	<g id="XMLID_2629_">
		<defs>
			<path id="XMLID_2709_" d="M86.96,37.26c2.12-4.84,3.39-10.27,3.65-15.77c0.09-1.95,0.04-4.02-0.81-5.67
				c-1.42-2.77-4.48-3.36-7.12-3.1c-5.27,0.51-10.36,3.35-14.18,7.86c-0.84-0.47-1.69-0.92-2.55-1.33
				c-4.94-2.36-10.28-3.76-15.87-3.76c-0.03,0-0.06,0-0.08,0c-0.03,0-0.06,0-0.08,0c-5.58,0-10.93,1.4-15.87,3.76
				c-0.86,0.41-1.71,0.86-2.55,1.33c-3.82-4.5-8.91-7.35-14.18-7.86c-2.64-0.25-5.71,0.33-7.12,3.1c-0.84,1.65-0.9,3.72-0.81,5.67
				c0.26,5.52,1.53,10.95,3.66,15.8C7.59,44.51,5,54.27,5,60.02c0,0.66,0.03,1.31,0.09,1.94c0.69,8.42,5.85,14.72,13.79,18.95
				c8.06,4.28,18.97,6.42,31,6.43c0.04,0,0.08,0,0.12,0c0.04,0,0.08,0,0.12,0c12.03,0,22.94-2.14,31-6.43
				c7.95-4.22,13.11-10.53,13.79-18.95c0.05-0.64,0.09-1.28,0.09-1.94C95,54.21,92.88,44.83,86.96,37.26z"/>
		</defs>
		<clipPath id="XMLID_00000116227935804319092440000003100192575400596620_">
			<use xlink:href="#XMLID_2709_"  style="overflow:visible;"/>
		</clipPath>
		<g id="XMLID_2808_" style="clip-path:url(#XMLID_00000116227935804319092440000003100192575400596620_);">
			<g id="XMLID_2879_">
				<g id="XMLID_2874_">
					<path id="XMLID_2876_" class="st1" d="M67.36,22.01c3.91-5.34,9.51-8.73,15.32-9.29c2.64-0.25,5.71,0.33,7.12,3.1
						c0.84,1.65,0.9,3.72,0.81,5.67c-0.31,6.5-2.01,12.89-4.88,18.35C75.48,38.49,68.82,34.62,67.36,22.01z"/>
					<path id="XMLID_2861_" class="st2" d="M69.53,27.23c2.88-3.93,7.01-6.43,11.28-6.84c1.94-0.19,4.2,0.25,5.24,2.28
						c0.62,1.22,0.66,2.74,0.6,4.18c-0.23,4.79-1.48,9.49-3.6,13.51C75.51,39.38,70.61,36.52,69.53,27.23z"/>
				</g>
				<g id="XMLID_2875_">
					<path id="XMLID_2878_" class="st1" d="M32.64,22.01c-3.91-5.34-9.51-8.73-15.32-9.29c-2.64-0.25-5.71,0.33-7.12,3.1
						c-0.84,1.65-0.9,3.72-0.81,5.67c0.31,6.5,2.01,12.89,4.88,18.35C24.52,38.49,31.18,34.62,32.64,22.01z"/>
					<path id="XMLID_2877_" class="st2" d="M30.47,27.23c-2.88-3.93-7.01-6.43-11.28-6.84c-1.94-0.19-4.2,0.25-5.24,2.28
						c-0.62,1.22-0.66,2.74-0.6,4.18c0.23,4.79,1.48,9.49,3.6,13.51C24.49,39.38,29.39,36.52,30.47,27.23z"/>
				</g>
			</g>
			<path id="XMLID_2628_" class="st3" d="M49.88,90.93c-13.43,0-25.03-2.52-33.54-7.29C6.5,78.14,1.31,69.93,1.31,59.92
				c0-6.18,2.43-15.1,7.02-22.35l-0.29-0.01l4.52-5.68c3.34-4.21,7.16-7.9,11.35-10.95l3.44-2.51l-0.08-0.06l0.49-0.24l0.32-0.23
				l0.02,0.07l4.36-2.14c5.72-2.73,11.59-4.12,17.45-4.12h0.17c5.87,0,11.74,1.39,17.46,4.12c1.24,0.59,2.48,1.25,3.67,1.95
				c0.23,0.13,0.45,0.27,0.68,0.41l0.07-0.21l4.14,2.97c4.19,3.05,8.01,6.74,11.35,10.95l1.27,1.6c0.71,0.82,1.38,1.67,2.01,2.54
				l1.22,1.54l-0.16,0.01c5.01,7.65,6.9,16.35,6.9,22.36c0,10.01-5.2,18.22-15.03,23.72c-8.51,4.76-20.11,7.28-33.54,7.29H49.88z"/>
			<g id="XMLID_2751_">
				<path id="XMLID_2792_" class="st4" d="M34.1,19.28c-0.02-0.01-0.03-0.03-0.05-0.04c-1.15,0.55-2.29,1.15-3.39,1.81
					C31.78,20.41,32.93,19.82,34.1,19.28z"/>
				<path id="XMLID_2791_" class="st5" d="M30.66,21.05c-1.58,0.9-3.11,1.89-4.58,2.96c0.01,0.03,0.02,0.05,0.02,0.08
					C27.56,22.99,29.08,21.97,30.66,21.05z"/>
				<g id="XMLID_2880_">
					<path id="XMLID_2881_" class="st6" d="M67.54,67.11c-5.42-6.31-4.7-12.4-0.78-16.55v0c3.63-3.84,9.62-4.18,13.66-0.78
						l14.49,12.18c0.05-0.64,0.09-1.28,0.09-1.94c0-6.59-2.73-17.8-10.66-25.73c-1.42,0.07-2.82,0.23-4.19,0.48
						c-14.7,2.65-26.21,15.21-27.39,30.21c2,0.45-7.51,0.45-5.52,0c-1.18-15.01-12.69-27.56-27.39-30.21
						c-1.37-0.25-2.77-0.41-4.19-0.48C8.41,41.54,5,53.42,5,60.02c0,0.66,0.03,1.31,0.09,1.94l14.49-12.18
						c4.04-3.4,10.03-3.06,13.66,0.78l0,0c3.93,4.15,4.64,10.25-0.78,16.55c-2.65,3.09-8.51,8.89-13.58,13.8
						c8.06,4.28,18.97,6.42,31,6.43c0.04,0,0.08,0,0.12,0c0.04,0,0.08,0,0.12,0c12.03,0,22.94-2.14,31-6.43
						C76.05,76,70.19,70.19,67.54,67.11z"/>
					<path id="XMLID_2883_" class="st1" d="M32.46,67.11c5.42-6.31,4.7-12.4,0.78-16.55l0,0c-3.63-3.84-9.62-4.18-13.66-0.78
						L5.09,61.96c0.69,8.42,5.85,14.72,13.79,18.95C23.95,76,29.81,70.19,32.46,67.11z"/>
					<path id="XMLID_2886_" class="st1" d="M94.91,61.96L80.43,49.78c-4.04-3.4-10.03-3.06-13.66,0.78v0
						c-3.93,4.15-4.64,10.25,0.78,16.55c2.65,3.09,8.51,8.89,13.58,13.8C89.07,76.69,94.23,70.38,94.91,61.96z"/>
				</g>
				<path id="XMLID_2788_" class="st5" d="M69.34,21.05c1.58,0.9,3.11,1.89,4.58,2.96c-0.01,0.03-0.02,0.05-0.02,0.08
					C72.44,22.99,70.92,21.97,69.34,21.05z"/>
				<path id="XMLID_2787_" class="st7" d="M73.93,24.01c-0.01,0.03-0.02,0.05-0.02,0.08c-1.47-1.1-2.99-2.12-4.56-3.04
					c-1.11-0.65-2.24-1.25-3.39-1.81c-4.94-2.36-10.28-3.76-15.87-3.76c-0.03,0-0.06,0-0.08,0c-0.03,0-0.06,0-0.08,0
					c-5.58,0-10.93,1.4-15.87,3.76c0.02,0.01,0.03,0.03,0.05,0.04c-1.17,0.54-2.32,1.13-3.44,1.76c-1.57,0.92-3.09,1.94-4.56,3.04
					c-0.01-0.03-0.02-0.05-0.02-0.08c-4.01,2.92-7.6,6.44-10.63,10.26c0.07,0,0.15,0.01,0.22,0.01c1.42,0.07,2.82,0.23,4.19,0.48
					c14.7,2.65,26.21,15.21,27.39,30.21c0.83-0.19,1.76-0.25,2.76-0.24c1-0.01,1.93,0.06,2.76,0.24
					c1.18-15.01,12.69-27.56,27.39-30.21c1.37-0.25,2.77-0.41,4.19-0.48c0.07,0,0.15-0.01,0.22-0.01
					C81.53,30.45,77.94,26.93,73.93,24.01z"/>
				<circle id="XMLID_2786_" class="st8" cx="50" cy="42.67" r="21.75"/>
				<path id="XMLID_2779_" class="st9" d="M21.47,64.32c-2.65-0.26-5.01,1.68-5.27,4.34c-0.26,2.65,1.68,5.01,4.34,5.27
					s5.01-1.68,5.27-4.34C26.06,66.94,24.12,64.58,21.47,64.32z"/>
				<path id="XMLID_2755_" class="st9" d="M78.53,64.32c2.65-0.26,5.01,1.68,5.27,4.34c0.26,2.65-1.68,5.01-4.34,5.27
					s-5.01-1.68-5.27-4.34S75.88,64.58,78.53,64.32z"/>
				<path id="XMLID_2754_" class="st10" d="M55.2,68.62c0.03,2.57-3.56,4.93-4.99,5.77c-0.05,0.23-0.12,0.46-0.21,0.68
					c-0.08-0.22-0.16-0.45-0.21-0.68c-1.43-0.84-5.02-3.2-4.99-5.77c-1.72,0.71-2.96,2.37-3.05,4.35c-0.11,2.72,2.01,5.02,4.73,5.13
					c1.35,0.06,2.59-0.45,3.52-1.29c0.93,0.84,2.17,1.35,3.52,1.29c2.72-0.11,4.84-2.41,4.73-5.13C58.17,71,56.92,69.34,55.2,68.62z
					"/>
				<path id="XMLID_2752_" class="st11" d="M52.49,64.99c-0.71-0.16-1.5-0.22-2.35-0.22v0c-0.05,0-0.09,0-0.14,0
					c-0.05,0-0.09,0-0.14,0v0c-0.85,0-1.64,0.06-2.35,0.22c-1.8,0.41-3.05,1.45-3.17,3.72c0,0.04,0,0.08,0,0.13
					c-0.03,2.8,3.88,5.36,5.43,6.27c0.03,0.02,0.06,0.03,0.09,0.05v0.16c0.04-0.02,0.09-0.05,0.14-0.08
					c0.05,0.03,0.1,0.06,0.14,0.08v-0.16c0.03-0.02,0.06-0.03,0.09-0.05c1.56-0.91,5.46-3.48,5.43-6.27c0-0.04,0-0.08,0-0.13
					C55.54,66.44,54.29,65.4,52.49,64.99z"/>
				<path id="XMLID_2782_" class="st12" d="M26.91,51.1c-3.33,0.29-5.79,3.23-5.5,6.56c0.29,3.33,3.23,5.79,6.56,5.5
					c3.33-0.29,5.79-3.23,5.5-6.56C33.18,53.27,30.24,50.81,26.91,51.1z M26.55,62.32c-1.1,0.1-2.06-0.71-2.16-1.81
					c-0.1-1.1,0.71-2.06,1.81-2.16c1.09-0.1,2.06,0.71,2.16,1.81C28.46,61.25,27.65,62.22,26.55,62.32z M28.6,56.55
					c-0.56,0.05-1.06-0.37-1.11-0.93c-0.05-0.56,0.37-1.06,0.93-1.11c0.56-0.05,1.06,0.37,1.11,0.93C29.58,56,29.16,56.5,28.6,56.55
					z"/>
				<path id="XMLID_2781_" class="st10" d="M26.2,58.35c-1.1,0.1-1.9,1.06-1.81,2.16c0.1,1.1,1.06,1.9,2.16,1.81
					c1.1-0.1,1.91-1.06,1.81-2.16C28.26,59.06,27.3,58.25,26.2,58.35z"/>
				<path id="XMLID_2780_" class="st10" d="M28.42,54.52c-0.56,0.05-0.98,0.54-0.93,1.11c0.05,0.56,0.54,0.98,1.11,0.93
					c0.56-0.05,0.98-0.54,0.93-1.11C29.48,54.88,28.98,54.47,28.42,54.52z"/>
				<path id="XMLID_2760_" class="st12" d="M66.53,56.6c-0.29,3.33,2.17,6.26,5.5,6.56c3.33,0.29,6.26-2.17,6.56-5.5
					c0.29-3.33-2.17-6.26-5.5-6.56C69.76,50.81,66.82,53.27,66.53,56.6z M71.64,60.16c0.1-1.1,1.06-1.91,2.16-1.81
					c1.1,0.1,1.9,1.06,1.81,2.16c-0.1,1.1-1.06,1.9-2.16,1.81C72.35,62.22,71.54,61.25,71.64,60.16z M70.47,55.44
					c0.05-0.56,0.54-0.98,1.11-0.93c0.56,0.05,0.98,0.54,0.93,1.11c-0.05,0.56-0.54,0.98-1.11,0.93C70.84,56.5,70.42,56,70.47,55.44
					z"/>
				<path id="XMLID_2758_" class="st10" d="M73.8,58.35c1.1,0.1,1.9,1.06,1.81,2.16c-0.1,1.1-1.06,1.9-2.16,1.81
					c-1.1-0.1-1.91-1.06-1.81-2.16C71.74,59.06,72.7,58.25,73.8,58.35z"/>
				<path id="XMLID_2757_" class="st10" d="M71.58,54.52c0.56,0.05,0.98,0.54,0.93,1.11c-0.05,0.56-0.54,0.98-1.11,0.93
					c-0.56-0.05-0.98-0.54-0.93-1.11C70.52,54.88,71.02,54.47,71.58,54.52z"/>
			</g>
		</g>
	</g>
</g>
</svg>
