<?xml version="1.0" encoding="utf-8"?>
<!-- Generator: Adobe Illustrator 26.1.0, SVG Export Plug-In . SVG Version: 6.00 Build 0)  -->
<svg version="1.1" id="Layer_1" xmlns="http://www.w3.org/2000/svg" xmlns:xlink="http://www.w3.org/1999/xlink" x="0px" y="0px"
	 viewBox="0 0 100 100" style="enable-background:new 0 0 100 100;" xml:space="preserve">
<style type="text/css">
	.st0{fill:#B05E3B;}
	.st1{fill:#FCC760;}
	.st2{fill:#C88581;}
	.st3{fill:#FFE5B7;}
	.st4{fill:#5F382A;}
	.st5{fill:#EEF2EB;}
	.st6{opacity:0.5;}
</style>
<g>
	<path class="st0" d="M91.27,49.19C91.27,71.98,50,95,50,95S8.73,71.98,8.73,49.19C8.73,26.4,27.21,5,50,5
		C72.79,5,91.27,26.4,91.27,49.19z"/>
	<g>
		<g>
			
				<ellipse transform="matrix(0.921 -0.3895 0.3895 0.921 -6.6923 12.2072)" class="st1" cx="26.75" cy="22.61" rx="10.87" ry="10.87"/>
			
				<ellipse transform="matrix(0.2283 -0.9736 0.9736 0.2283 -1.3614 43.4937)" class="st2" cx="26.75" cy="22.61" rx="5.7" ry="5.7"/>
		</g>
		<g>
			
				<ellipse transform="matrix(0.921 -0.3895 0.3895 0.921 -3.0202 30.3167)" class="st1" cx="73.25" cy="22.61" rx="10.87" ry="10.87"/>
			
				<ellipse transform="matrix(0.9224 -0.3863 0.3863 0.9224 -3.0471 30.0457)" class="st2" cx="73.25" cy="22.61" rx="5.7" ry="5.7"/>
		</g>
	</g>
	<path class="st0" d="M83.78,47.25C83.78,65.9,50,87.13,50,87.13S16.22,65.9,16.22,47.25C16.22,28.59,31.34,13.6,50,13.6
		C68.66,13.6,83.78,28.59,83.78,47.25z"/>
	<circle class="st1" cx="50" cy="44.13" r="27.86"/>
	<g>
		<circle class="st3" cx="44.53" cy="58.17" r="7.35"/>
		<circle class="st3" cx="55.47" cy="58.17" r="7.35"/>
	</g>
	<path class="st4" d="M54.37,49.59c0,1.72-1.96,3.11-4.37,3.11c-2.41,0-4.37-1.39-4.37-3.11c0-1.72,1.96-1.29,4.37-1.29
		C52.41,48.31,54.37,47.88,54.37,49.59z"/>
	<g>
		<g>
			
				<ellipse transform="matrix(0.1607 -0.987 0.987 0.1607 10.1851 104.2046)" class="st4" cx="66.36" cy="46.11" rx="3.95" ry="3.95"/>
			
				<ellipse transform="matrix(0.7071 -0.7071 0.7071 0.7071 -22.7556 37.2902)" class="st4" cx="33.64" cy="46.11" rx="3.95" ry="3.95"/>
		</g>
		<g>
			<path class="st5" d="M33.64,45.38c0,0.88-0.71,1.59-1.59,1.59c-0.88,0-1.59-0.71-1.59-1.59c0-0.88,0.71-1.59,1.59-1.59
				C32.92,43.79,33.64,44.5,33.64,45.38z"/>
			<path class="st5" d="M66.36,45.38c0,0.88-0.71,1.59-1.59,1.59c-0.88,0-1.59-0.71-1.59-1.59c0-0.88,0.71-1.59,1.59-1.59
				C65.65,43.79,66.36,44.5,66.36,45.38z"/>
		</g>
	</g>
	<g class="st6">
		<g>
			<g>
				<path class="st1" d="M83.91,24.7c0.13-0.68,0.2-1.38,0.2-2.09c0-6-4.86-10.87-10.87-10.87c-0.58,0-1.15,0.05-1.7,0.13
					C65.27,7.57,57.9,5,50,5v90c0,0,41.27-23.02,41.27-45.81C91.27,40.44,88.55,31.9,83.91,24.7z"/>
			</g>
		</g>
	</g>
</g>
</svg>
