<?xml version="1.0" ?><!-- Uploaded to: SVG Repo, www.svgrepo.com, Generator: SVG Repo Mixer Tools -->
<svg width="800px" height="800px" viewBox="0 0 128 128" data-name="Layer 1" id="Layer_1" xmlns="http://www.w3.org/2000/svg"><defs><style>.cls-1{fill:#515570;}.cls-2,.cls-8{fill:#393c54;}.cls-2{opacity:0.5;}.cls-3{fill:#ffffff;}.cls-4{fill:#00adfe;}.cls-5,.cls-7{fill:#356cb6;}.cls-6{fill:none;stroke:#393c54;stroke-linecap:round;stroke-linejoin:round;stroke-width:2px;}.cls-7{opacity:0.1;}.cls-9{fill:#f85565;}</style></defs><title/><circle class="cls-1" cx="64" cy="64" r="60"/><circle class="cls-2" cx="64" cy="64" r="48"/><path class="cls-3" d="M13,101.61a65.28,65.28,0,0,0,102,0,17.87,17.87,0,0,0-14.19-8.9c0-.2,0-.4,0-.61a15.34,15.34,0,0,0-1.89-7.39,18.84,18.84,0,0,0-4.75-35.18A13,13,0,0,0,76.52,32.78a13,13,0,0,0-25,0A13,13,0,0,0,33.81,49.53a18.84,18.84,0,0,0-4.75,35.18,15.34,15.34,0,0,0-1.89,7.39c0,.21,0,.41,0,.61A17.87,17.87,0,0,0,13,101.61Z"/><path class="cls-3" d="M100.81,92.71c0-.2,0-.4,0-.61a15.34,15.34,0,0,0-1.89-7.39,18.84,18.84,0,0,0-4.75-35.18A13,13,0,0,0,76.52,32.78a13,13,0,0,0-25,0A13,13,0,0,0,33.81,49.53a18.84,18.84,0,0,0-4.75,35.18,15.34,15.34,0,0,0-1.89,7.39c0,.21,0,.41,0,.61a17.49,17.49,0,0,0-12.09,6,60,60,0,0,0,97.8,0A17.49,17.49,0,0,0,100.81,92.71Z"/><path class="cls-4" d="M25,60.92h0a3.26,3.26,0,0,0,3.25,3.25h3a23.91,23.91,0,0,0,16.39-6.51H28.27A3.26,3.26,0,0,0,25,60.92Z"/><path class="cls-5" d="M31.32,64.17a23.43,23.43,0,0,0,13.56-4.34H31a3.81,3.81,0,0,0-3.24,1.71A2.75,2.75,0,0,0,27.42,64a3.2,3.2,0,0,0,1,.17Z"/><path class="cls-4" d="M103,60.92h0a3.26,3.26,0,0,1-3.25,3.25h-3a23.91,23.91,0,0,1-16.39-6.51H99.73A3.26,3.26,0,0,1,103,60.92Z"/><path class="cls-5" d="M96.68,64.17a23.43,23.43,0,0,1-13.56-4.34H97.05a3.81,3.81,0,0,1,3.24,1.71,2.75,2.75,0,0,1,.29,2.46,3.2,3.2,0,0,1-1,.17Z"/><path class="cls-4" d="M84.55,67.21c0,11.35-9.2,33.45-20.55,33.45S43.45,78.56,43.45,67.21a20.55,20.55,0,0,1,41.1,0Z"/><path class="cls-3" d="M77.15,44.22a7.74,7.74,0,0,0-5.08,1.9,9.37,9.37,0,0,0-16.14,0A7.77,7.77,0,1,0,56.82,57a9.39,9.39,0,0,0,14.36,0,7.77,7.77,0,1,0,6-12.74Z"/><line class="cls-6" x1="64" x2="64" y1="89.49" y2="95.28"/><path class="cls-7" d="M71.82,48.64a12.3,12.3,0,0,1-15.48,1.29,12.29,12.29,0,0,1-11,7.51A7.76,7.76,0,0,0,56.82,57a9.39,9.39,0,0,0,14.36,0,7.75,7.75,0,0,0,10.45,1.37A12.29,12.29,0,0,1,71.82,48.64Z"/><path class="cls-7" d="M54,102.08a12.27,12.27,0,0,1-15-3.86,12.31,12.31,0,0,1-12.88,3.48,7.76,7.76,0,0,0,11,3.32,9.38,9.38,0,0,0,13.56,4.71,7.75,7.75,0,0,0,9.43,4.73A12.32,12.32,0,0,1,54,102.08Z"/><path class="cls-8" d="M69.55,84.38c0,3.07-2.48,6.78-5.55,6.78s-5.55-3.71-5.55-6.78C58.45,82.58,69.55,82.35,69.55,84.38Z"/><path class="cls-9" d="M60.74,94.56h6.51a0,0,0,0,1,0,0v8.68A3.26,3.26,0,0,1,64,106.5h0a3.26,3.26,0,0,1-3.26-3.26V94.56a0,0,0,0,1,0,0Z"/><path class="cls-6" d="M58.45,93.11q5.55,4.71,11.1,0"/><circle class="cls-3" cx="74.85" cy="68.51" r="5.61"/><circle class="cls-8" cx="74.85" cy="68.51" r="3.15"/><path class="cls-5" d="M80.46,68.51a5.61,5.61,0,1,1-11.21,0"/><circle class="cls-3" cx="53.15" cy="68.51" r="5.61"/><circle class="cls-8" cx="53.15" cy="68.51" r="3.15"/><path class="cls-7" d="M29,84.65A15.75,15.75,0,0,0,42.2,74a15.73,15.73,0,0,1-22.33.1A18.88,18.88,0,0,0,29,84.65Z"/><path class="cls-7" d="M99.17,84.65A15.76,15.76,0,0,1,85.93,74a15.73,15.73,0,0,0,22.33.1A18.84,18.84,0,0,1,99.17,84.65Z"/><path class="cls-7" d="M91.08,104.63a12.29,12.29,0,0,1-6.7-2c0,.4.06.81.06,1.22a12.4,12.4,0,0,1-11,12.31,10.09,10.09,0,0,0,14.81-5.06,10.1,10.1,0,0,0,13.59-9.51,10,10,0,0,0-.36-2.65A12.38,12.38,0,0,1,91.08,104.63Z"/></svg>