<?xml version="1.0" encoding="utf-8"?>
<!-- Generator: Adobe Illustrator 26.1.0, SVG Export Plug-In . SVG Version: 6.00 Build 0)  -->
<svg version="1.1" id="Layer_1" xmlns="http://www.w3.org/2000/svg" xmlns:xlink="http://www.w3.org/1999/xlink" x="0px" y="0px"
	 viewBox="0 0 100 100" style="enable-background:new 0 0 100 100;" xml:space="preserve">
<style type="text/css">
	.st0{clip-path:url(#XMLID_00000173843472047993771630000017194142466232580281_);}
	.st1{fill:#E2C4A6;}
	.st2{fill:#443434;}
	.st3{fill:#AD7754;}
	.st4{clip-path:url(#XMLID_00000173843472047993771630000017194142466232580281_);fill:#EFD9B4;}
	.st5{fill:#F4DFC7;}
	.st6{fill:#CD9975;}
	.st7{opacity:0.1;fill:#FFFFFF;}
	.st8{fill:#F5F3E3;}
	.st9{fill:#FFFFFF;}
	.st10{opacity:0.5;fill:#F9807A;}
	.st11{fill:#63472E;}
</style>
<g id="XMLID_2670_">
	<g id="XMLID_2544_">
		<defs>
			<path id="XMLID_2767_" d="M92.88,31.03c-3.76,0.16-7,0.72-9.78,1.53c-7.12,2.06-11.27,5.76-13.56,8.64
				c-0.41-0.32-0.82-0.64-1.25-0.95c-0.01,0.02-0.01,0.04-0.02,0.06c-0.43-0.32-0.86-0.63-1.3-0.93c0.09-0.1,0.19-0.21,0.3-0.33
				c0.55-0.61,1.31-1.48,2.19-2.55c0.88-1.07,1.87-2.35,2.88-3.78c0.51-0.72,1-1.45,1.52-2.26c0.04-0.06,0.08-0.12,0.11-0.18
				c0.04,0,0.08-0.01,0.12-0.01c0.22-0.01,0.45-0.05,0.7-0.1c0.24-0.05,0.49-0.1,0.75-0.15c0.25-0.04,0.52-0.14,0.78-0.23
				c0.26-0.09,0.54-0.19,0.81-0.28c0.27-0.13,0.54-0.26,0.81-0.4c0.13-0.07,0.27-0.14,0.41-0.21l0.39-0.26
				c0.25-0.18,0.52-0.34,0.76-0.54l0.7-0.62c0.23-0.21,0.42-0.45,0.62-0.68c0.1-0.12,0.2-0.23,0.29-0.35l0.26-0.36
				c0.36-0.48,0.62-0.98,0.88-1.47c0.22-0.5,0.44-0.97,0.58-1.44c0.17-0.46,0.27-0.91,0.36-1.32c0.09-0.42,0.14-0.79,0.19-1.14
				c0.03-0.38,0.06-0.73,0.07-0.97c-0.01-0.4-0.01-0.63-0.01-0.63c-0.02-1.09-0.85-2.02-1.96-2.13c-1.2-0.12-2.27,0.75-2.39,1.95
				l0,0c0,0-0.02,0.23-0.06,0.62c-0.03,0.16-0.07,0.28-0.1,0.46c-0.06,0.19-0.12,0.44-0.2,0.68c-0.09,0.25-0.18,0.51-0.32,0.78
				c-0.11,0.28-0.29,0.53-0.44,0.8c-0.19,0.25-0.36,0.51-0.58,0.73l-0.15,0.17c-0.05,0.05-0.12,0.1-0.17,0.15
				c-0.12,0.09-0.22,0.21-0.34,0.29c-0.06,0.04-0.11,0.08-0.17,0.12c0.07-1.05,0-2.07-0.2-3c-0.23-1.1-0.6-2.08-1.01-2.93
				c-0.42-0.85-0.88-1.59-1.33-2.23c-0.91-1.28-1.81-2.19-2.49-2.81c-0.17-0.16-0.33-0.29-0.47-0.41c-0.07-0.06-0.14-0.12-0.2-0.17
				c-0.07-0.06-0.14-0.11-0.2-0.16c-0.14-0.11-0.19-0.14-0.23-0.17c-0.04-0.03-0.07-0.05-0.07-0.05c-1.07-0.75-2.56-0.6-3.45,0.4
				c-0.97,1.08-0.88,2.74,0.2,3.71l0,0c0,0,0.02,0.02,0.06,0.05c0.04,0.03,0.12,0.1,0.13,0.12c0.04,0.05,0.09,0.1,0.16,0.17
				c0.07,0.08,0.16,0.18,0.26,0.29c0.39,0.46,0.95,1.2,1.44,2.12c0.49,0.92,0.91,2.04,0.97,3.07c0.04,0.52-0.02,1-0.15,1.44
				c-0.12,0.44-0.33,0.85-0.63,1.26c-0.22,0.28-0.43,0.57-0.65,0.85c-0.27,0.37-0.5,0.62-0.74,0.92c-0.49,0.59-1.02,1.19-1.53,1.75
				c-0.19,0.21-0.38,0.41-0.57,0.61c-0.01-0.01-0.01-0.02-0.02-0.03l-0.1-0.12l-0.08-0.14c-0.05-0.09-0.12-0.18-0.16-0.28
				c-0.04-0.1-0.08-0.21-0.13-0.31c-0.05-0.1-0.06-0.22-0.1-0.33c-0.02-0.06-0.04-0.11-0.05-0.17l-0.02-0.18
				c-0.05-0.24-0.05-0.49-0.07-0.74c0.02-0.25,0.01-0.5,0.06-0.73c0.02-0.24,0.08-0.46,0.13-0.67c0.05-0.2,0.12-0.39,0.17-0.55
				c0.05-0.13,0.08-0.22,0.13-0.34c0.16-0.3,0.25-0.47,0.25-0.47l0,0c0.51-0.95,0.25-2.15-0.64-2.79c-0.97-0.71-2.34-0.49-3.04,0.49
				c0,0-0.11,0.16-0.32,0.44c-0.12,0.18-0.28,0.46-0.45,0.75c-0.14,0.28-0.3,0.58-0.44,0.92c-0.14,0.35-0.29,0.72-0.41,1.14
				c-0.14,0.41-0.22,0.87-0.31,1.34c-0.06,0.48-0.12,0.99-0.1,1.52l0,0.4c0.01,0.13,0.03,0.27,0.04,0.4
				c0.04,0.27,0.05,0.54,0.11,0.82c0.06,0.27,0.13,0.54,0.2,0.81c0.07,0.27,0.19,0.53,0.28,0.79l0.15,0.39
				c0.06,0.12,0.13,0.24,0.19,0.36c0.13,0.24,0.26,0.48,0.39,0.71c0.12,0.16,0.23,0.32,0.34,0.48c-0.21,0.19-0.41,0.36-0.58,0.51
				c-0.27,0.22-0.47,0.4-0.62,0.52c-0.07,0.05-0.12,0.1-0.15,0.13c-0.02,0.02-0.04,0.03-0.04,0.03c-0.18,0.13-0.37,0.3-0.52,0.46
				c-0.35,0.37-0.62,0.78-0.82,1.22c-2.88-1.02-5.91-1.59-9.04-1.59c-0.02,0-0.04,0-0.06,0c-0.02,0-0.04,0-0.06,0
				c-3.13,0-6.16,0.58-9.04,1.59c-0.29-0.64-0.75-1.23-1.35-1.68c0,0-0.01-0.01-0.04-0.03c-0.03-0.03-0.09-0.07-0.15-0.13
				c-0.14-0.12-0.35-0.3-0.62-0.52c-0.17-0.15-0.37-0.32-0.58-0.51c0.11-0.16,0.23-0.31,0.34-0.48c0.13-0.23,0.26-0.47,0.39-0.71
				c0.06-0.12,0.13-0.24,0.19-0.36l0.15-0.39c0.1-0.26,0.21-0.52,0.28-0.79c0.07-0.27,0.13-0.54,0.2-0.81
				c0.06-0.27,0.08-0.54,0.11-0.82c0.01-0.14,0.03-0.27,0.04-0.4l0-0.4c0.02-0.53-0.05-1.03-0.1-1.52
				c-0.09-0.47-0.17-0.93-0.31-1.34c-0.11-0.42-0.27-0.8-0.41-1.14c-0.15-0.35-0.3-0.64-0.44-0.92c-0.17-0.29-0.33-0.57-0.45-0.75
				c-0.2-0.28-0.32-0.44-0.32-0.44c-0.63-0.87-1.82-1.16-2.79-0.64c-1.06,0.57-1.46,1.89-0.89,2.95l0,0c0,0,0.09,0.17,0.25,0.47
				c0.05,0.12,0.07,0.21,0.13,0.34c0.05,0.16,0.12,0.35,0.17,0.55c0.05,0.21,0.11,0.43,0.13,0.67c0.05,0.24,0.04,0.48,0.06,0.73
				c-0.02,0.25-0.01,0.5-0.07,0.74l-0.02,0.18c-0.01,0.06-0.03,0.11-0.05,0.17c-0.04,0.11-0.05,0.23-0.1,0.33
				c-0.05,0.1-0.09,0.21-0.13,0.31c-0.04,0.1-0.12,0.19-0.16,0.28l-0.08,0.14l-0.1,0.12c-0.01,0.01-0.01,0.02-0.02,0.03
				c-0.19-0.2-0.38-0.4-0.57-0.61c-0.51-0.56-1.04-1.17-1.53-1.75c-0.24-0.3-0.47-0.55-0.74-0.92c-0.21-0.28-0.43-0.56-0.65-0.85
				c-0.3-0.4-0.5-0.81-0.63-1.26c-0.13-0.44-0.19-0.92-0.15-1.44c0.06-1.03,0.48-2.16,0.97-3.07c0.49-0.93,1.05-1.66,1.44-2.12
				c0.1-0.12,0.18-0.21,0.26-0.29c0.06-0.07,0.11-0.12,0.16-0.17c0.01-0.02,0.09-0.09,0.13-0.12c0.04-0.04,0.06-0.05,0.06-0.05
				l0.01,0c0.97-0.87,1.16-2.35,0.4-3.45c-0.83-1.19-2.46-1.48-3.65-0.65c0,0-0.02,0.02-0.07,0.05c-0.05,0.03-0.09,0.06-0.23,0.17
				c-0.06,0.05-0.13,0.1-0.2,0.16c-0.06,0.05-0.13,0.11-0.2,0.17c-0.14,0.12-0.3,0.26-0.47,0.41c-0.68,0.62-1.57,1.53-2.49,2.81
				c-0.46,0.64-0.92,1.38-1.33,2.23c-0.42,0.85-0.78,1.83-1.01,2.93c-0.2,0.92-0.28,1.95-0.2,3c-0.06-0.04-0.11-0.08-0.17-0.12
				c-0.12-0.08-0.22-0.2-0.34-0.29c-0.06-0.05-0.12-0.1-0.17-0.15l-0.15-0.17c-0.22-0.21-0.39-0.48-0.58-0.73
				c-0.15-0.27-0.33-0.52-0.44-0.8c-0.14-0.26-0.23-0.53-0.32-0.78c-0.09-0.24-0.14-0.49-0.2-0.68c-0.03-0.18-0.07-0.3-0.1-0.46
				c-0.04-0.4-0.06-0.62-0.06-0.62l0-0.01c-0.11-1.09-1.02-1.94-2.14-1.96c-1.2-0.02-2.19,0.94-2.21,2.15c0,0,0,0.23-0.01,0.63
				c0.01,0.24,0.04,0.6,0.07,0.97c0.05,0.35,0.1,0.73,0.19,1.14c0.09,0.41,0.2,0.86,0.36,1.32c0.14,0.47,0.36,0.94,0.58,1.44
				c0.26,0.48,0.52,0.99,0.88,1.47l0.26,0.36c0.09,0.12,0.2,0.23,0.29,0.35c0.21,0.23,0.39,0.47,0.62,0.68l0.7,0.62
				c0.24,0.2,0.51,0.36,0.76,0.54l0.39,0.26c0.14,0.07,0.27,0.14,0.41,0.21c0.27,0.14,0.54,0.27,0.81,0.4
				c0.28,0.1,0.55,0.19,0.81,0.28c0.27,0.09,0.53,0.18,0.78,0.23c0.26,0.05,0.51,0.1,0.75,0.15c0.24,0.05,0.48,0.09,0.7,0.1
				c0.04,0,0.08,0.01,0.12,0.01c0.04,0.06,0.08,0.12,0.11,0.18c0.51,0.81,1.01,1.54,1.52,2.26c1.01,1.43,2,2.7,2.88,3.78
				c0.88,1.07,1.64,1.94,2.19,2.55c0.11,0.12,0.21,0.23,0.3,0.33c-0.44,0.3-0.87,0.61-1.3,0.93c-0.01-0.02-0.01-0.04-0.02-0.06
				c-0.42,0.31-0.84,0.63-1.25,0.95c-2.29-2.89-6.43-6.58-13.56-8.64c-2.79-0.81-6.02-1.37-9.78-1.53
				c-1.25-0.05-2.25,1.02-2.11,2.26c0.05,0.43,0.11,0.91,0.19,1.42c0.9,6.03,3.87,17.56,13.47,20.87C16.6,60,15.6,64.66,15.6,67.77
				c0,13.95,15.36,20.88,34.3,20.88c0.03,0,0.06,0,0.09,0c0.03,0,0.06,0,0.09,0c18.94,0,34.31-6.93,34.3-20.88
				c0-3.18-0.83-7.76-2.97-12.23c9.52-3.36,12.47-14.83,13.37-20.84c0.08-0.52,0.14-1,0.19-1.42
				C95.13,32.05,94.12,30.97,92.88,31.03z"/>
		</defs>
		<clipPath id="XMLID_00000135652696981958768340000017319149250823065789_">
			<use xlink:href="#XMLID_2767_"  style="overflow:visible;"/>
		</clipPath>
		<g id="XMLID_2579_" style="clip-path:url(#XMLID_00000135652696981958768340000017319149250823065789_);">
			<path id="XMLID_2574_" class="st1" d="M5.2,34.71c1.05,7.06,4.94,21.71,19.04,21.78C23.87,43.22,12.71,37.24,5.2,34.71z"/>
			<g id="XMLID_2566_">
				<path id="XMLID_2576_" class="st2" d="M16.91,32.56c-2.79-0.81-6.02-1.37-9.78-1.53c-1.25-0.05-2.25,1.02-2.11,2.26
					c0.05,0.43,0.11,0.91,0.19,1.42c2.03,0.68,4.32,1.62,6.6,2.88C13.33,35.33,15.42,33.61,16.91,32.56z"/>
				<path id="XMLID_2577_" class="st3" d="M16.91,32.56c-1.49,1.05-3.58,2.77-5.11,5.04c6.15,3.41,12.17,9.22,12.45,18.9
					c0.04,0,0.07,0,0.11,0l8.58-11.17C32.94,45.33,29.77,36.29,16.91,32.56z"/>
			</g>
			<path id="XMLID_2578_" class="st1" d="M94.8,34.71c-1.05,7.06-4.94,21.71-19.04,21.78C76.13,43.22,87.29,37.24,94.8,34.71z"/>
			<g id="XMLID_2564_">
				<path id="XMLID_2575_" class="st2" d="M83.09,32.56c2.79-0.81,6.02-1.37,9.78-1.53c1.25-0.05,2.25,1.02,2.11,2.26
					c-0.05,0.43-0.11,0.91-0.19,1.42c-2.03,0.68-4.32,1.62-6.6,2.88C86.67,35.33,84.58,33.61,83.09,32.56z"/>
				<path id="XMLID_2565_" class="st3" d="M83.09,32.56c1.49,1.05,3.58,2.77,5.11,5.04c-6.15,3.41-12.17,9.22-12.45,18.9
					c-0.04,0-0.07,0-0.11,0l-8.58-11.17C67.06,45.33,70.23,36.29,83.09,32.56z"/>
			</g>
		</g>
		<path id="XMLID_2683_" style="clip-path:url(#XMLID_00000135652696981958768340000017319149250823065789_);fill:#EFD9B4;" d="
			M49.91,91.48c-10.27,0-19.13-1.93-25.63-5.57c-7.52-4.21-11.49-10.48-11.49-18.13c0-4.73,1.86-11.54,5.36-17.09l-0.22-0.01
			l3.45-4.34c2.55-3.22,5.47-6.04,8.67-8.37l2.63-1.92l-0.06-0.05L33,35.82l0.25-0.18l0.02,0.05l3.33-1.63
			c4.37-2.09,8.86-3.15,13.34-3.15h0.13c4.48,0,8.97,1.06,13.34,3.15c0.95,0.45,1.89,0.96,2.81,1.49c0.17,0.1,0.35,0.2,0.52,0.31
			l0.05-0.16l3.16,2.27c3.2,2.33,6.12,5.15,8.67,8.37l0.97,1.22c0.55,0.63,1.06,1.28,1.54,1.94l0.93,1.18l-0.12,0
			c3.83,5.85,5.27,12.5,5.27,17.09c0,7.65-3.97,13.92-11.49,18.13c-6.5,3.64-15.37,5.57-25.63,5.57H49.91z"/>
		<g id="XMLID_2533_" style="clip-path:url(#XMLID_00000135652696981958768340000017319149250823065789_);">
			<g id="XMLID_2534_">
				<path id="XMLID_2561_" class="st5" d="M76.24,48.1c-1.09,0.05-2.15,0.18-3.2,0.37C61.81,50.5,53.01,60.09,52.11,71.57
					c1.53,0.35-5.74,0.35-4.22,0c-0.9-11.47-9.7-21.07-20.93-23.09c-1.05-0.19-2.12-0.32-3.2-0.37c-5.55,5.55-8.15,14.63-8.15,19.67
					c0,13.95,15.36,20.88,34.3,20.88c0.03,0,0.06,0,0.09,0c0.03,0,0.06,0,0.09,0c18.94,0,34.31-6.93,34.3-20.88
					C84.39,62.73,82.31,54.17,76.24,48.1z"/>
				<path id="XMLID_2540_" class="st6" d="M68.29,40.25c-0.01,0.02-0.01,0.04-0.02,0.06c-1.12-0.84-2.28-1.62-3.48-2.32
					c-0.85-0.5-1.71-0.96-2.59-1.38c-3.77-1.8-7.86-2.87-12.13-2.87c-0.02,0-0.04,0-0.06,0c-0.02,0-0.04,0-0.06,0
					c-4.27,0-8.35,1.07-12.13,2.87c0.01,0.01,0.03,0.02,0.04,0.03c-0.9,0.41-1.77,0.86-2.63,1.35c-1.2,0.71-2.36,1.49-3.48,2.32
					c-0.01-0.02-0.01-0.04-0.02-0.06c-3.07,2.23-5.81,4.92-8.12,7.84c0.06,0,0.11,0.01,0.17,0.01c1.09,0.05,2.15,0.18,3.2,0.37
					c11.23,2.03,20.03,11.62,20.93,23.09c0.63-0.14,1.35-0.19,2.11-0.19c0.76-0.01,1.48,0.04,2.11,0.19
					c0.9-11.47,9.7-21.07,20.93-23.09c1.05-0.19,2.12-0.32,3.2-0.37c0.06,0,0.11-0.01,0.17-0.01C74.1,45.17,71.36,42.48,68.29,40.25
					z"/>
				<circle id="XMLID_2581_" class="st7" cx="50" cy="57.35" r="16.62"/>
				
					<ellipse id="XMLID_2563_" transform="matrix(0.7071 -0.7071 0.7071 0.7071 -42.7051 59.1104)" class="st8" cx="50" cy="81.1" rx="3.91" ry="3.91"/>
				<path id="XMLID_2557_" class="st2" d="M32.35,60.96c-2.54,0.22-4.43,2.47-4.2,5.01c0.23,2.54,2.47,4.43,5.01,4.2
					c2.54-0.22,4.43-2.47,4.2-5.01C37.14,62.62,34.9,60.74,32.35,60.96z M32.08,69.53c-0.84,0.07-1.58-0.55-1.65-1.38
					c-0.07-0.84,0.55-1.58,1.38-1.65c0.84-0.07,1.58,0.54,1.65,1.38C33.53,68.72,32.91,69.46,32.08,69.53z M33.64,65.12
					c-0.43,0.04-0.81-0.28-0.85-0.71c-0.04-0.43,0.28-0.81,0.71-0.85c0.43-0.04,0.81,0.28,0.85,0.71
					C34.39,64.71,34.07,65.08,33.64,65.12z"/>
				<path id="XMLID_2556_" class="st9" d="M31.81,66.5c-0.84,0.07-1.46,0.81-1.38,1.65c0.07,0.84,0.81,1.46,1.65,1.38
					c0.84-0.07,1.46-0.81,1.38-1.65C33.39,67.04,32.65,66.42,31.81,66.5z"/>
				<path id="XMLID_2555_" class="st9" d="M33.51,63.57c-0.43,0.04-0.75,0.42-0.71,0.85c0.04,0.43,0.42,0.75,0.85,0.71
					c0.43-0.04,0.75-0.42,0.71-0.85C34.31,63.85,33.94,63.53,33.51,63.57z"/>
				<path id="XMLID_2554_" class="st10" d="M28.19,71.06c-2.03-0.2-3.83,1.29-4.03,3.32s1.29,3.83,3.32,4.03s3.83-1.29,4.03-3.32
					C31.7,73.06,30.22,71.26,28.19,71.06z"/>
				<path id="XMLID_2549_" class="st2" d="M62.63,65.16c-0.22,2.54,1.66,4.79,4.2,5.01c2.54,0.22,4.79-1.66,5.01-4.2
					c0.22-2.54-1.66-4.79-4.2-5.01C65.1,60.74,62.86,62.62,62.63,65.16z M66.54,67.88c0.07-0.84,0.81-1.46,1.65-1.38
					c0.84,0.07,1.46,0.81,1.38,1.65c-0.07,0.84-0.81,1.46-1.65,1.38C67.09,69.46,66.47,68.72,66.54,67.88z M65.65,64.28
					c0.04-0.43,0.42-0.75,0.85-0.71c0.43,0.04,0.75,0.42,0.71,0.85c-0.04,0.43-0.42,0.75-0.85,0.71
					C65.93,65.08,65.61,64.71,65.65,64.28z"/>
				<path id="XMLID_2547_" class="st9" d="M68.19,66.5c0.84,0.07,1.46,0.81,1.38,1.65c-0.07,0.84-0.81,1.46-1.65,1.38
					c-0.84-0.07-1.46-0.81-1.38-1.65C66.61,67.04,67.35,66.42,68.19,66.5z"/>
				<path id="XMLID_2546_" class="st9" d="M66.49,63.57c0.43,0.04,0.75,0.42,0.71,0.85c-0.04,0.43-0.42,0.75-0.85,0.71
					c-0.43-0.04-0.75-0.42-0.71-0.85C65.69,63.85,66.06,63.53,66.49,63.57z"/>
				<path id="XMLID_2543_" class="st10" d="M71.81,71.06c2.03-0.2,3.83,1.29,4.03,3.32c0.2,2.03-1.29,3.83-3.32,4.03
					c-2.03,0.2-3.83-1.29-4.03-3.32C68.3,73.06,69.78,71.26,71.81,71.06z"/>
				<g id="XMLID_2536_">
					
						<ellipse id="XMLID_2538_" transform="matrix(0.9248 -0.3805 0.3805 0.9248 -26.3791 23.6512)" class="st9" cx="46.63" cy="78.55" rx="3.81" ry="3.81"/>
					
						<ellipse id="XMLID_2537_" transform="matrix(0.9248 -0.3805 0.3805 0.9248 -25.8726 26.2131)" class="st9" cx="53.37" cy="78.55" rx="3.81" ry="3.81"/>
				</g>
				<path id="XMLID_2535_" class="st2" d="M52.3,70.59c-0.65-0.15-1.39-0.2-2.17-0.2v0c-0.04,0-0.08,0-0.13,0c-0.04,0-0.08,0-0.13,0
					v0c-0.78,0-1.52,0.05-2.17,0.2c-1.66,0.38-2.81,0.91-2.92,3c0,0.04,0,0.08,0,0.12c-0.03,2.58,3.57,4.95,5.01,5.79
					c0.03,0.02,0.05,0.03,0.08,0.05v0.15c0.04-0.02,0.08-0.05,0.13-0.07c0.05,0.03,0.09,0.05,0.13,0.07v-0.15
					c0.03-0.02,0.05-0.03,0.08-0.05c1.44-0.84,5.04-3.21,5.01-5.79c0-0.04,0-0.08,0-0.12C55.11,71.5,53.96,70.96,52.3,70.59z"/>
			</g>
		</g>
		<g id="XMLID_2541_" style="clip-path:url(#XMLID_00000135652696981958768340000017319149250823065789_);">
			<path id="XMLID_2542_" class="st11" d="M39.55,33.65c0,0-0.01-0.01-0.04-0.03c-0.03-0.03-0.09-0.07-0.15-0.13
				c-0.14-0.12-0.35-0.3-0.62-0.52c-0.17-0.15-0.37-0.32-0.58-0.51c0.11-0.16,0.23-0.31,0.34-0.48c0.13-0.23,0.26-0.47,0.39-0.71
				c0.06-0.12,0.13-0.24,0.19-0.36l0.15-0.39c0.1-0.26,0.21-0.52,0.28-0.79c0.07-0.27,0.13-0.54,0.2-0.81
				c0.06-0.27,0.08-0.54,0.11-0.82c0.01-0.14,0.03-0.27,0.04-0.4l0-0.4c0.02-0.53-0.05-1.03-0.1-1.52
				c-0.09-0.47-0.17-0.93-0.31-1.34c-0.11-0.42-0.27-0.8-0.41-1.14c-0.15-0.35-0.3-0.64-0.44-0.92c-0.17-0.29-0.33-0.57-0.45-0.75
				c-0.2-0.28-0.32-0.44-0.32-0.44c-0.63-0.87-1.82-1.16-2.79-0.64c-1.06,0.57-1.46,1.89-0.89,2.95l0,0c0,0,0.09,0.17,0.25,0.47
				c0.05,0.12,0.07,0.21,0.13,0.34c0.05,0.16,0.12,0.35,0.17,0.55c0.05,0.21,0.11,0.43,0.13,0.67c0.05,0.24,0.04,0.48,0.06,0.73
				c-0.02,0.25-0.01,0.5-0.07,0.74l-0.02,0.18c-0.01,0.06-0.03,0.11-0.05,0.17c-0.04,0.11-0.05,0.23-0.1,0.33
				c-0.05,0.1-0.09,0.21-0.13,0.31c-0.04,0.1-0.12,0.19-0.16,0.28l-0.08,0.14l-0.1,0.12c-0.01,0.01-0.01,0.02-0.02,0.03
				c-0.19-0.2-0.38-0.4-0.57-0.61c-0.51-0.56-1.04-1.17-1.53-1.75c-0.24-0.3-0.47-0.55-0.74-0.92c-0.21-0.28-0.43-0.56-0.65-0.85
				c-0.3-0.4-0.5-0.81-0.63-1.26c-0.13-0.44-0.19-0.92-0.15-1.44c0.06-1.03,0.48-2.16,0.97-3.07c0.49-0.93,1.05-1.66,1.44-2.12
				c0.1-0.12,0.18-0.21,0.26-0.29c0.06-0.07,0.11-0.12,0.16-0.17c0.01-0.02,0.09-0.09,0.13-0.12c0.04-0.04,0.06-0.05,0.06-0.05
				l0.01,0c0.97-0.87,1.16-2.35,0.4-3.45c-0.83-1.19-2.46-1.48-3.65-0.65c0,0-0.02,0.02-0.07,0.05c-0.05,0.03-0.09,0.06-0.23,0.17
				c-0.06,0.05-0.13,0.1-0.2,0.16c-0.06,0.05-0.13,0.11-0.2,0.17c-0.14,0.12-0.3,0.26-0.47,0.41c-0.68,0.62-1.57,1.53-2.49,2.81
				c-0.46,0.64-0.92,1.38-1.33,2.23c-0.42,0.85-0.78,1.83-1.01,2.93c-0.2,0.92-0.28,1.95-0.2,3c-0.06-0.04-0.11-0.08-0.17-0.12
				c-0.12-0.08-0.22-0.2-0.34-0.29c-0.06-0.05-0.12-0.1-0.17-0.15l-0.15-0.17c-0.22-0.21-0.39-0.48-0.58-0.73
				c-0.15-0.27-0.33-0.52-0.44-0.8c-0.14-0.26-0.23-0.53-0.32-0.78c-0.09-0.24-0.14-0.49-0.2-0.68c-0.03-0.18-0.07-0.3-0.1-0.46
				c-0.04-0.4-0.06-0.62-0.06-0.62l0-0.01c-0.11-1.09-1.02-1.94-2.14-1.96c-1.2-0.02-2.19,0.94-2.21,2.15c0,0,0,0.23-0.01,0.63
				c0.01,0.24,0.04,0.6,0.07,0.97c0.05,0.35,0.1,0.73,0.19,1.14c0.09,0.41,0.2,0.86,0.36,1.32c0.14,0.47,0.36,0.94,0.58,1.44
				c0.26,0.48,0.52,0.99,0.88,1.47l0.26,0.36c0.09,0.12,0.2,0.23,0.29,0.35c0.21,0.23,0.39,0.47,0.62,0.68l0.7,0.62
				c0.24,0.2,0.51,0.36,0.76,0.54l0.39,0.26c0.14,0.07,0.27,0.14,0.41,0.21c0.27,0.14,0.54,0.27,0.81,0.4
				c0.28,0.1,0.55,0.19,0.81,0.28c0.27,0.09,0.53,0.18,0.78,0.23c0.26,0.05,0.51,0.1,0.75,0.15c0.24,0.05,0.48,0.09,0.7,0.1
				c0.04,0,0.08,0.01,0.12,0.01c0.04,0.06,0.08,0.12,0.11,0.18c0.51,0.81,1.01,1.54,1.52,2.26c1.01,1.43,2,2.7,2.88,3.78
				c0.88,1.07,1.64,1.94,2.19,2.55c0.28,0.31,0.5,0.55,0.65,0.71c0.17,0.18,0.27,0.28,0.27,0.28l0.13,0.14
				c0.16,0.16,0.32,0.31,0.51,0.45c1.93,1.45,4.67,1.06,6.12-0.87C41.86,37.84,41.47,35.1,39.55,33.65z"/>
			<path id="XMLID_2606_" class="st11" d="M83.44,19.13c-0.02-1.09-0.85-2.02-1.96-2.13c-1.2-0.12-2.27,0.75-2.39,1.95l0,0
				c0,0-0.02,0.23-0.06,0.62c-0.03,0.16-0.07,0.28-0.1,0.46c-0.06,0.19-0.12,0.44-0.2,0.68c-0.09,0.25-0.18,0.51-0.32,0.78
				c-0.11,0.28-0.29,0.53-0.44,0.8c-0.19,0.25-0.36,0.51-0.58,0.73l-0.15,0.17c-0.05,0.05-0.12,0.1-0.17,0.15
				c-0.12,0.09-0.22,0.21-0.34,0.29c-0.06,0.04-0.11,0.08-0.17,0.12c0.07-1.05,0-2.07-0.2-3c-0.23-1.1-0.6-2.08-1.01-2.93
				c-0.42-0.85-0.88-1.59-1.33-2.23c-0.91-1.28-1.81-2.19-2.49-2.81c-0.17-0.16-0.33-0.29-0.47-0.41c-0.07-0.06-0.14-0.12-0.2-0.17
				c-0.07-0.06-0.14-0.11-0.2-0.16c-0.14-0.11-0.19-0.14-0.23-0.17c-0.04-0.03-0.07-0.05-0.07-0.05c-1.07-0.75-2.56-0.6-3.45,0.4
				c-0.97,1.08-0.88,2.74,0.2,3.71l0,0c0,0,0.02,0.02,0.06,0.05c0.04,0.03,0.12,0.1,0.13,0.12c0.04,0.05,0.09,0.1,0.16,0.17
				c0.07,0.08,0.16,0.18,0.26,0.29c0.39,0.46,0.95,1.2,1.44,2.12c0.49,0.92,0.91,2.04,0.97,3.07c0.04,0.52-0.02,1-0.15,1.44
				c-0.12,0.44-0.33,0.85-0.63,1.26c-0.22,0.28-0.43,0.57-0.65,0.85c-0.27,0.37-0.5,0.62-0.74,0.92c-0.49,0.59-1.02,1.19-1.53,1.75
				c-0.19,0.21-0.38,0.41-0.57,0.61c-0.01-0.01-0.01-0.02-0.02-0.03l-0.1-0.12l-0.08-0.14c-0.05-0.09-0.12-0.18-0.16-0.28
				c-0.04-0.1-0.08-0.21-0.13-0.31c-0.05-0.1-0.06-0.22-0.1-0.33c-0.02-0.06-0.04-0.11-0.05-0.17l-0.02-0.18
				c-0.05-0.24-0.05-0.49-0.07-0.74c0.02-0.25,0.01-0.5,0.06-0.73c0.02-0.24,0.08-0.46,0.13-0.67c0.05-0.2,0.12-0.39,0.17-0.55
				c0.05-0.13,0.08-0.22,0.13-0.34c0.16-0.3,0.25-0.47,0.25-0.47l0,0c0.51-0.95,0.25-2.15-0.64-2.79c-0.97-0.71-2.34-0.49-3.04,0.49
				c0,0-0.11,0.16-0.32,0.44c-0.12,0.18-0.28,0.46-0.45,0.75c-0.14,0.28-0.3,0.58-0.44,0.92c-0.14,0.35-0.29,0.72-0.41,1.14
				c-0.14,0.41-0.22,0.87-0.31,1.34c-0.06,0.48-0.12,0.99-0.1,1.52l0,0.4c0.01,0.13,0.03,0.27,0.04,0.4
				c0.04,0.27,0.05,0.54,0.11,0.82c0.06,0.27,0.13,0.54,0.2,0.81c0.07,0.27,0.19,0.53,0.28,0.79l0.15,0.39
				c0.06,0.12,0.13,0.24,0.19,0.36c0.13,0.24,0.26,0.48,0.39,0.71c0.12,0.16,0.23,0.32,0.34,0.48c-0.21,0.19-0.41,0.36-0.58,0.51
				c-0.27,0.22-0.47,0.4-0.62,0.52c-0.07,0.05-0.12,0.1-0.15,0.13c-0.02,0.02-0.04,0.03-0.04,0.03c-0.18,0.13-0.37,0.3-0.52,0.46
				c-1.67,1.74-1.62,4.51,0.12,6.18c1.74,1.67,4.51,1.62,6.18-0.12l0.12-0.12c0,0,0.09-0.1,0.27-0.28c0.15-0.16,0.37-0.4,0.65-0.71
				c0.55-0.61,1.31-1.48,2.19-2.55c0.88-1.07,1.87-2.35,2.88-3.78c0.51-0.72,1-1.45,1.52-2.26c0.04-0.06,0.08-0.12,0.11-0.18
				c0.04,0,0.08-0.01,0.12-0.01c0.22-0.01,0.45-0.05,0.7-0.1c0.24-0.05,0.49-0.1,0.75-0.15c0.25-0.04,0.52-0.14,0.78-0.23
				c0.26-0.09,0.54-0.19,0.81-0.28c0.27-0.13,0.54-0.26,0.81-0.4c0.13-0.07,0.27-0.14,0.41-0.21l0.39-0.26
				c0.25-0.18,0.52-0.34,0.76-0.54l0.7-0.62c0.23-0.21,0.42-0.45,0.62-0.68c0.1-0.12,0.2-0.23,0.29-0.35l0.26-0.36
				c0.36-0.48,0.62-0.98,0.88-1.47c0.22-0.5,0.44-0.97,0.58-1.44c0.17-0.46,0.27-0.91,0.36-1.32c0.09-0.42,0.14-0.79,0.19-1.14
				c0.03-0.38,0.06-0.73,0.07-0.97C83.44,19.36,83.44,19.13,83.44,19.13z"/>
		</g>
	</g>
</g>
</svg>
