<?xml version="1.0" encoding="utf-8"?>
<!-- Generator: Adobe Illustrator 26.1.0, SVG Export Plug-In . SVG Version: 6.00 Build 0)  -->
<svg version="1.1" id="Layer_1" xmlns="http://www.w3.org/2000/svg" xmlns:xlink="http://www.w3.org/1999/xlink" x="0px" y="0px"
	 viewBox="0 0 100 100" style="enable-background:new 0 0 100 100;" xml:space="preserve">
<style type="text/css">
	.st0{clip-path:url(#XMLID_00000021829114933514610640000004442736324112527750_);}
	.st1{fill:#8C7754;}
	.st2{clip-path:url(#XMLID_00000021829114933514610640000004442736324112527750_);fill:#EFD9B4;}
	.st3{fill:#EEEBE3;}
	.st4{fill:#AC9975;}
	.st5{opacity:0.1;fill:#FFFFFF;}
	.st6{fill:#443434;}
	.st7{fill:#FFFFFF;}
	.st8{opacity:0.5;fill:#F7AD7C;}
</style>
<g id="XMLID_2669_">
	<g id="XMLID_2532_">
		<defs>
			<path id="XMLID_2775_" d="M88.07,44.17C84.23,37.1,79,30.43,73.32,24.12C69.6,20,64.13,20.8,61.06,23.97
				c-3.27-1.34-6.75-2.12-10.36-2.12c-0.02,0-0.04,0-0.06,0c-0.02,0-0.04,0-0.06,0c-3.95,0-7.75,0.93-11.28,2.51
				c-2.99-3.49-8.75-4.52-12.61-0.24C21,30.43,15.77,37.1,11.93,44.17c-4.59,8.47-7.34,18.05-6.89,27.39
				c0.32,6.52,8.31,9.56,12.8,4.82c2.13-2.24,4.07-4.66,5.83-7.2c6.21,4.68,15.93,7.02,26.86,7.02c0.03,0,0.06,0,0.09,0
				c0.03,0,0.06,0,0.09,0c10.45,0,19.8-2.14,26.03-6.41c1.62,2.28,3.38,4.45,5.3,6.49c4.53,4.8,12.58,1.86,12.9-4.72
				C95.41,62.22,92.65,52.64,88.07,44.17z"/>
		</defs>
		<clipPath id="XMLID_00000145758741967067053830000013890321398521761173_">
			<use xlink:href="#XMLID_2775_"  style="overflow:visible;"/>
		</clipPath>
		<g id="XMLID_2432_" style="clip-path:url(#XMLID_00000145758741967067053830000013890321398521761173_);">
			<path id="XMLID_2435_" class="st1" d="M26.68,24.12C21,30.43,15.77,37.1,11.93,44.17c-4.59,8.47-7.34,18.05-6.89,27.39
				c0.32,6.52,8.31,9.56,12.8,4.82c6.81-7.18,11.68-16.08,14.87-25.28c2.08-6.03,5.66-12.22,7.97-18.48
				c0.09-0.24,0.16-0.48,0.23-0.72C43.25,23.62,32.67,17.48,26.68,24.12z"/>
			<path id="XMLID_2439_" class="st1" d="M88.07,44.17C84.23,37.1,79,30.43,73.32,24.12c-5.99-6.65-16.57-0.5-14.23,7.78
				c0.07,0.24,0.14,0.48,0.23,0.72c2.31,6.26,5.88,12.45,7.97,18.48c3.17,9.16,8.01,18.02,14.77,25.18
				c4.53,4.8,12.58,1.86,12.9-4.72C95.41,62.22,92.65,52.64,88.07,44.17z"/>
		</g>
		<path id="XMLID_2508_" style="clip-path:url(#XMLID_00000145758741967067053830000013890321398521761173_);fill:#EFD9B4;" d="
			M50.54,79c-10.16,0-18.93-1.91-25.37-5.51C17.73,69.32,13.8,63.12,13.8,55.54c0-4.68,1.84-11.42,5.31-16.91l-0.22-0.01l3.42-4.29
			c2.53-3.19,5.41-5.97,8.58-8.28l2.6-1.9l-0.06-0.05l0.37-0.18l0.24-0.18l0.02,0.05l3.29-1.62c4.33-2.07,8.77-3.11,13.2-3.11h0.13
			c4.44,0,8.88,1.05,13.21,3.11c0.94,0.45,1.87,0.95,2.78,1.48c0.17,0.1,0.34,0.2,0.51,0.31l0.05-0.16l3.13,2.24
			c3.17,2.31,6.06,5.1,8.58,8.28l0.96,1.21c0.54,0.62,1.05,1.26,1.52,1.92l0.93,1.17l-0.12,0c3.79,5.79,5.22,12.37,5.22,16.91
			c0,7.57-3.93,13.78-11.37,17.95C69.66,77.09,60.89,79,50.73,79H50.54z"/>
		<g id="XMLID_169_" style="clip-path:url(#XMLID_00000145758741967067053830000013890321398521761173_);">
			<path id="XMLID_2591_" class="st3" d="M76.61,36.08c-1.08,0.05-2.13,0.18-3.17,0.36c-11.12,2.01-19.83,11.5-20.72,22.86
				c1.51,0.34-5.68,0.34-4.17,0c-0.89-11.35-9.6-20.85-20.72-22.86c-1.04-0.19-2.1-0.31-3.17-0.36c-5.49,5.49-8.07,14.48-8.07,19.47
				c0,13.81,15.2,20.66,33.95,20.67c0.03,0,0.06,0,0.09,0c0.03,0,0.06,0,0.09,0c18.75,0,33.95-6.86,33.95-20.67
				C84.67,50.56,82.61,42.08,76.61,36.08z"/>
			<path id="XMLID_170_" class="st4" d="M68.73,28.3c-0.01,0.02-0.01,0.04-0.02,0.06c-1.11-0.83-2.26-1.6-3.45-2.3
				c-0.84-0.49-1.69-0.95-2.57-1.37c-3.73-1.78-7.78-2.84-12-2.84c-0.02,0-0.04,0-0.06,0c-0.02,0-0.04,0-0.06,0
				c-4.22,0-8.27,1.06-12,2.84c0.01,0.01,0.03,0.02,0.04,0.03c-0.89,0.41-1.76,0.85-2.61,1.33c-1.19,0.7-2.34,1.47-3.45,2.3
				c-0.01-0.02-0.01-0.04-0.02-0.06c-3.04,2.21-5.75,4.87-8.04,7.76c0.06,0,0.11,0.01,0.17,0.01c1.08,0.05,2.13,0.18,3.17,0.36
				c11.12,2.01,19.83,11.5,20.72,22.86c0.62-0.14,1.33-0.19,2.09-0.18c0.75-0.01,1.46,0.04,2.09,0.18
				c0.89-11.35,9.6-20.85,20.72-22.86c1.04-0.19,2.1-0.31,3.17-0.36c0.06,0,0.11-0.01,0.17-0.01C74.48,33.18,71.77,30.52,68.73,28.3
				z"/>
			<circle id="XMLID_2580_" class="st5" cx="50.63" cy="45.23" r="16.45"/>
			<path id="XMLID_2587_" class="st6" d="M33.17,48.8c-2.52,0.22-4.38,2.44-4.16,4.96c0.22,2.52,2.44,4.38,4.96,4.16
				c2.52-0.22,4.38-2.44,4.16-4.96C37.91,50.44,35.69,48.58,33.17,48.8z M32.89,57.28c-0.83,0.07-1.56-0.54-1.63-1.37
				c-0.07-0.83,0.54-1.56,1.37-1.63c0.83-0.07,1.56,0.54,1.63,1.37C34.34,56.48,33.72,57.21,32.89,57.28z M34.45,52.92
				c-0.43,0.04-0.8-0.28-0.84-0.7c-0.04-0.42,0.28-0.8,0.7-0.84c0.42-0.04,0.8,0.28,0.84,0.7C35.18,52.51,34.87,52.88,34.45,52.92z"
				/>
			<path id="XMLID_2586_" class="st7" d="M32.63,54.28c-0.83,0.07-1.44,0.8-1.37,1.63c0.07,0.83,0.8,1.44,1.63,1.37
				c0.83-0.07,1.44-0.8,1.37-1.63C34.19,54.82,33.46,54.21,32.63,54.28z"/>
			<path id="XMLID_2585_" class="st7" d="M34.31,51.38c-0.43,0.04-0.74,0.41-0.7,0.84c0.04,0.42,0.41,0.74,0.84,0.7
				c0.42-0.04,0.74-0.41,0.7-0.84C35.11,51.66,34.73,51.34,34.31,51.38z"/>
			<path id="XMLID_2584_" class="st8" d="M29.05,58.8c-2.01-0.19-3.79,1.27-3.99,3.28c-0.19,2.01,1.27,3.79,3.28,3.99
				c2.01,0.19,3.79-1.27,3.99-3.28C32.53,60.78,31.06,58.99,29.05,58.8z"/>
			<path id="XMLID_202_" class="st6" d="M63.14,52.96c-0.22,2.52,1.64,4.74,4.16,4.96c2.52,0.22,4.74-1.64,4.96-4.16
				c0.22-2.52-1.64-4.74-4.16-4.96C65.58,48.58,63.36,50.44,63.14,52.96z M67,55.65c0.07-0.83,0.8-1.44,1.63-1.37
				c0.83,0.07,1.44,0.8,1.37,1.63c-0.07,0.83-0.8,1.44-1.63,1.37C67.54,57.21,66.93,56.48,67,55.65z M66.12,52.08
				c0.04-0.43,0.41-0.74,0.84-0.7c0.43,0.04,0.74,0.41,0.7,0.84c-0.04,0.42-0.41,0.74-0.84,0.7C66.4,52.88,66.08,52.51,66.12,52.08z
				"/>
			<path id="XMLID_201_" class="st7" d="M68.64,54.28c0.83,0.07,1.44,0.8,1.37,1.63c-0.07,0.83-0.8,1.44-1.63,1.37
				c-0.83-0.07-1.44-0.8-1.37-1.63C67.08,54.82,67.81,54.21,68.64,54.28z"/>
			<path id="XMLID_193_" class="st7" d="M66.96,51.38c0.43,0.04,0.74,0.41,0.7,0.84c-0.04,0.42-0.41,0.74-0.84,0.7
				c-0.42-0.04-0.74-0.41-0.7-0.84C66.16,51.66,66.53,51.34,66.96,51.38z"/>
			<path id="XMLID_192_" class="st8" d="M72.22,58.8c2.01-0.19,3.79,1.27,3.99,3.28c0.19,2.01-1.27,3.79-3.28,3.99
				c-2.01,0.19-3.79-1.27-3.99-3.28C68.74,60.78,70.21,58.99,72.22,58.8z"/>
			<g id="XMLID_2530_">
				
					<ellipse id="XMLID_191_" transform="matrix(0.9248 -0.3805 0.3805 0.9248 -21.6335 22.9771)" class="st7" cx="47.3" cy="66.21" rx="3.77" ry="3.77"/>
				
					<ellipse id="XMLID_2529_" transform="matrix(0.9248 -0.3805 0.3805 0.9248 -21.1323 25.5126)" class="st7" cx="53.97" cy="66.21" rx="3.77" ry="3.77"/>
			</g>
			<path id="XMLID_190_" class="st6" d="M52.2,58.22c-0.45-0.1-0.95-0.14-1.48-0.14v0c-0.03,0-0.06,0-0.09,0c-0.03,0-0.06,0-0.09,0
				v0c-0.53,0-1.04,0.04-1.48,0.14c-1.14,0.26-1.92,0.62-2,2.05c0,0.03,0,0.05,0,0.08c-0.02,1.76,2.44,3.38,3.42,3.96
				c0.02,0.01,0.04,0.02,0.06,0.03v0.1c0.03-0.01,0.06-0.03,0.09-0.05c0.03,0.02,0.06,0.03,0.09,0.05v-0.1
				c0.02-0.01,0.04-0.02,0.06-0.03c0.98-0.57,3.44-2.19,3.42-3.96c0-0.03,0-0.05,0-0.08C54.12,58.84,53.34,58.47,52.2,58.22z"/>
		</g>
	</g>
</g>
</svg>
