<?xml version="1.0" encoding="utf-8"?>
<!-- Generator: Adobe Illustrator 26.1.0, SVG Export Plug-In . SVG Version: 6.00 Build 0)  -->
<svg version="1.1" id="Layer_1" xmlns="http://www.w3.org/2000/svg" xmlns:xlink="http://www.w3.org/1999/xlink" x="0px" y="0px"
	 viewBox="0 0 100 100" style="enable-background:new 0 0 100 100;" xml:space="preserve">
<style type="text/css">
	.st0{clip-path:url(#XMLID_00000179633321583681462270000008273834406288233395_);}
	.st1{fill:#EFD9B4;}
	.st2{fill:#BA3F1E;}
	.st3{fill:#443434;}
	.st4{clip-path:url(#XMLID_00000179633321583681462270000008273834406288233395_);fill:#D65123;}
	.st5{clip-path:url(#XMLID_00000179633321583681462270000008273834406288233395_);fill:#443434;}
	.st6{clip-path:url(#XMLID_00000179633321583681462270000008273834406288233395_);fill:#F9E6C2;}
	.st7{clip-path:url(#XMLID_00000179633321583681462270000008273834406288233395_);fill:#EFD9B4;}
	.st8{opacity:0.1;clip-path:url(#XMLID_00000179633321583681462270000008273834406288233395_);fill:#FFFFFF;}
	.st9{clip-path:url(#XMLID_00000179633321583681462270000008273834406288233395_);fill:#FFFFFF;}
	.st10{clip-path:url(#XMLID_00000179633321583681462270000008273834406288233395_);fill:#FAC279;}
</style>
<g id="XMLID_2668_">
	<g id="XMLID_189_">
		<defs>
			<path id="XMLID_2667_" d="M88.75,41.88c-0.65-9.21-2.27-27.89-4.84-30.83c0,0,0,0,0-0.01c-0.02-0.02-0.03-0.03-0.05-0.05
				c-0.02-0.02-0.04-0.04-0.06-0.06c-0.08-0.07-0.15-0.14-0.23-0.18c-0.11-0.06-0.24-0.11-0.37-0.15c-0.05-0.01-0.1-0.01-0.15-0.02
				c-0.1-0.02-0.19-0.03-0.29-0.04c-0.06,0-0.14,0.01-0.2,0.01c-0.1,0-0.2,0.01-0.3,0.02c-0.08,0.01-0.16,0.03-0.24,0.04
				c-0.11,0.02-0.21,0.04-0.32,0.06c-0.09,0.02-0.19,0.05-0.28,0.08c-0.11,0.03-0.22,0.06-0.34,0.1c-0.1,0.03-0.21,0.07-0.31,0.11
				c-0.12,0.04-0.23,0.08-0.36,0.13c-0.11,0.04-0.23,0.09-0.34,0.14c-0.12,0.05-0.24,0.1-0.37,0.16c-0.12,0.06-0.25,0.12-0.37,0.18
				c-0.12,0.06-0.25,0.12-0.37,0.18c-0.13,0.07-0.27,0.14-0.4,0.21c-0.12,0.07-0.25,0.13-0.37,0.2c-0.14,0.08-0.29,0.16-0.43,0.24
				c-0.12,0.07-0.25,0.14-0.37,0.21c-0.15,0.09-0.31,0.18-0.47,0.27c-0.12,0.07-0.23,0.14-0.35,0.21c-0.17,0.1-0.33,0.2-0.5,0.31
				c-0.11,0.07-0.22,0.14-0.33,0.21c-0.18,0.11-0.36,0.23-0.54,0.35c-0.1,0.06-0.19,0.13-0.29,0.19c-0.2,0.13-0.39,0.26-0.59,0.39
				c-0.08,0.05-0.15,0.1-0.23,0.16c-0.22,0.15-0.44,0.3-0.65,0.45c-0.04,0.03-0.08,0.06-0.12,0.08c-0.21,0.15-0.43,0.3-0.64,0.45
				c-0.04,0.03-0.08,0.05-0.11,0.08c0,0,0,0,0,0c-2.63,1.87-5.18,3.87-7.03,5.37c-4.82-2.24-10.01-3.56-15.43-3.56
				c-0.03,0-0.06,0-0.08,0c-0.03,0-0.06,0-0.08,0c-5.42,0-10.62,1.32-15.43,3.56c-1.85-1.5-4.4-3.51-7.03-5.37l0,0
				c-0.04-0.03-0.08-0.05-0.11-0.08c-0.21-0.15-0.43-0.3-0.64-0.45c-0.04-0.03-0.08-0.06-0.12-0.08c-0.22-0.15-0.44-0.3-0.65-0.45
				c-0.08-0.05-0.15-0.11-0.23-0.16c-0.2-0.13-0.39-0.26-0.59-0.39c-0.1-0.06-0.19-0.13-0.29-0.19c-0.18-0.12-0.36-0.23-0.54-0.35
				c-0.11-0.07-0.22-0.14-0.33-0.21c-0.17-0.11-0.34-0.21-0.5-0.31c-0.12-0.07-0.24-0.14-0.35-0.21c-0.16-0.09-0.31-0.18-0.47-0.27
				c-0.12-0.07-0.25-0.14-0.37-0.21c-0.15-0.08-0.29-0.16-0.43-0.24c-0.13-0.07-0.25-0.14-0.37-0.2c-0.14-0.07-0.27-0.14-0.4-0.21
				c-0.13-0.06-0.25-0.12-0.37-0.18c-0.13-0.06-0.25-0.12-0.37-0.18c-0.12-0.06-0.25-0.11-0.37-0.16c-0.12-0.05-0.23-0.1-0.34-0.14
				c-0.12-0.05-0.24-0.09-0.36-0.13c-0.11-0.04-0.21-0.08-0.31-0.11c-0.12-0.04-0.23-0.07-0.34-0.1c-0.09-0.03-0.19-0.05-0.28-0.08
				c-0.11-0.03-0.22-0.04-0.32-0.06c-0.08-0.01-0.17-0.03-0.24-0.04c-0.11-0.01-0.2-0.01-0.3-0.02c-0.07,0-0.14-0.01-0.2-0.01
				c-0.11,0-0.2,0.02-0.29,0.04c-0.05,0.01-0.1,0.01-0.15,0.02c-0.14,0.03-0.26,0.08-0.37,0.15c-0.08,0.05-0.16,0.11-0.23,0.18
				c-0.02,0.02-0.04,0.04-0.06,0.06c-0.02,0.02-0.03,0.03-0.05,0.05c0,0,0,0,0,0.01c-2.59,2.95-4.21,21.86-4.85,31.01
				C7.01,48.88,5,57.06,5,62.13c0,18.25,20.09,27.31,44.88,27.32c0.04,0,0.08,0,0.12,0c0.04,0,0.08,0,0.12,0
				C74.91,89.44,95,80.38,95,62.13C95,56.95,93.31,48.93,88.75,41.88z"/>
		</defs>
		<clipPath id="XMLID_00000117676671356111767290000018258643124452544932_">
			<use xlink:href="#XMLID_2667_"  style="overflow:visible;"/>
		</clipPath>
		<g id="XMLID_165_" style="clip-path:url(#XMLID_00000117676671356111767290000018258643124452544932_);">
			<path id="XMLID_2440_" class="st1" d="M12.25,41.57C12.25,41.57,12.25,41.57,12.25,41.57c0.53-0.72,1.08-1.42,1.63-2.13
				c-0.09,0-0.17-0.01-0.26-0.02c3.54-4.46,7.73-8.57,12.42-11.99c-0.79-2.55-1.83-4.99-3.11-7.3c-0.23-0.41-0.46-0.82-0.7-1.22
				c-0.01-0.01-0.01-0.02-0.02-0.03c-0.24-0.4-0.48-0.79-0.73-1.17c-0.02-0.02-0.03-0.05-0.05-0.07c-0.24-0.37-0.49-0.73-0.74-1.1
				c-0.04-0.05-0.07-0.1-0.11-0.15c-0.24-0.34-0.48-0.67-0.72-0.99c-0.06-0.08-0.13-0.17-0.19-0.25c-0.22-0.29-0.45-0.58-0.68-0.87
				c-0.11-0.13-0.21-0.26-0.32-0.39c-0.2-0.24-0.4-0.48-0.6-0.71c-0.17-0.19-0.34-0.38-0.52-0.57c-0.15-0.17-0.3-0.34-0.46-0.5
				c-0.34-0.36-0.68-0.71-1.02-1.05c0.11-0.13,0.23-0.23,0.34-0.29c-2.83,1.64-4.58,22.53-5.22,31.83c0.31-0.44,0.63-0.74,0.95-1.18
				C12.19,41.35,12.21,41.57,12.25,41.57z"/>
			<path id="XMLID_2457_" class="st2" d="M22.95,20.15C22.94,20.14,22.94,20.14,22.95,20.15c1.27,2.3,2.32,4.75,3.1,7.3
				c1.72-1.25,3.51-2.41,5.35-3.46c1.29-0.76,2.62-1.46,3.96-2.11c-2.02-1.66-5.33-4.3-8.67-6.62c0.25,0.17,0.5,0.35,0.75,0.53
				C25.84,17.11,24.33,18.57,22.95,20.15z"/>
			<path id="XMLID_2509_" class="st3" d="M16.08,11.05c0.35,0.34,0.69,0.7,1.02,1.05c0.15,0.16,0.3,0.34,0.46,0.5
				c0.17,0.19,0.35,0.38,0.52,0.57c0.2,0.23,0.4,0.47,0.6,0.71c0.11,0.13,0.22,0.26,0.32,0.39c0.23,0.29,0.46,0.58,0.68,0.87
				c0.06,0.08,0.13,0.17,0.19,0.25c0.25,0.33,0.49,0.66,0.72,0.99c0.04,0.05,0.07,0.1,0.11,0.15c0.25,0.36,0.5,0.73,0.74,1.1
				c0.02,0.02,0.03,0.05,0.05,0.07c0.25,0.39,0.49,0.78,0.73,1.17c0.01,0.01,0.01,0.02,0.02,0.03c0.24,0.4,0.48,0.81,0.7,1.22
				c0,0,0,0.01,0,0.01c1.38-1.57,2.89-3.03,4.51-4.37c-0.25-0.18-0.5-0.35-0.75-0.53c-0.04-0.03-0.08-0.06-0.12-0.08
				c-0.22-0.15-0.44-0.3-0.65-0.45c-0.08-0.05-0.15-0.11-0.23-0.16c-0.2-0.13-0.39-0.26-0.59-0.39c-0.1-0.06-0.19-0.13-0.29-0.19
				c-0.18-0.12-0.36-0.23-0.54-0.35c-0.11-0.07-0.22-0.14-0.33-0.21c-0.17-0.11-0.34-0.21-0.5-0.31c-0.12-0.07-0.24-0.14-0.35-0.21
				c-0.16-0.09-0.31-0.18-0.47-0.27c-0.12-0.07-0.25-0.14-0.37-0.21c-0.15-0.08-0.29-0.16-0.43-0.24c-0.13-0.07-0.25-0.14-0.37-0.2
				c-0.14-0.07-0.27-0.14-0.4-0.21c-0.13-0.06-0.25-0.12-0.37-0.18c-0.13-0.06-0.25-0.12-0.37-0.18c-0.12-0.06-0.25-0.11-0.37-0.16
				c-0.12-0.05-0.23-0.1-0.34-0.14c-0.12-0.05-0.24-0.09-0.36-0.13c-0.11-0.04-0.21-0.08-0.31-0.11c-0.12-0.04-0.23-0.07-0.34-0.1
				c-0.09-0.03-0.19-0.05-0.28-0.08c-0.11-0.03-0.22-0.04-0.32-0.06c-0.08-0.01-0.17-0.03-0.24-0.04c-0.11-0.01-0.2-0.01-0.3-0.02
				c-0.07,0-0.14-0.01-0.2-0.01c-0.11,0-0.2,0.02-0.29,0.04c-0.05,0.01-0.1,0.01-0.15,0.02c-0.14,0.03-0.26,0.08-0.37,0.15
				C16.3,10.83,16.19,10.92,16.08,11.05z"/>
			<path id="XMLID_2528_" class="st1" d="M87.75,41.57C87.75,41.57,87.75,41.57,87.75,41.57c-0.53-0.72-1.08-1.42-1.63-2.13
				c0.09,0,0.17-0.01,0.26-0.02c-3.54-4.46-7.73-8.57-12.42-11.99c0.79-2.55,1.83-4.99,3.11-7.3c0.23-0.41,0.46-0.82,0.7-1.22
				c0.01-0.01,0.01-0.02,0.02-0.03c0.24-0.4,0.48-0.79,0.73-1.17c0.02-0.02,0.03-0.05,0.05-0.07c0.24-0.37,0.49-0.73,0.74-1.1
				c0.04-0.05,0.07-0.1,0.11-0.15c0.24-0.34,0.48-0.67,0.72-0.99c0.06-0.08,0.13-0.17,0.19-0.25c0.22-0.29,0.45-0.58,0.68-0.87
				c0.11-0.13,0.21-0.26,0.32-0.39c0.2-0.24,0.4-0.48,0.6-0.71c0.17-0.19,0.34-0.38,0.52-0.57c0.15-0.17,0.3-0.34,0.46-0.5
				c0.34-0.36,0.68-0.71,1.02-1.05c-0.11-0.13-0.23-0.23-0.34-0.29c2.83,1.64,4.58,22.53,5.22,31.83c-0.31-0.44-0.63-0.74-0.95-1.18
				C87.81,41.35,87.79,41.57,87.75,41.57z"/>
			<path id="XMLID_2512_" class="st2" d="M77.05,20.15C77.06,20.14,77.06,20.14,77.05,20.15c-1.27,2.3-2.32,4.75-3.1,7.3
				c-1.72-1.25-3.51-2.41-5.35-3.46c-1.29-0.76-2.62-1.46-3.96-2.11c2.02-1.66,5.33-4.3,8.67-6.62c-0.25,0.17-0.5,0.35-0.75,0.53
				C74.16,17.11,75.67,18.57,77.05,20.15z"/>
			<path id="XMLID_2436_" class="st3" d="M83.92,11.05c-0.35,0.34-0.69,0.7-1.02,1.05c-0.15,0.16-0.3,0.34-0.46,0.5
				c-0.17,0.19-0.35,0.38-0.52,0.57c-0.2,0.23-0.4,0.47-0.6,0.71c-0.11,0.13-0.22,0.26-0.32,0.39c-0.23,0.29-0.46,0.58-0.68,0.87
				c-0.06,0.08-0.13,0.17-0.19,0.25c-0.25,0.33-0.49,0.66-0.72,0.99c-0.04,0.05-0.07,0.1-0.11,0.15c-0.25,0.36-0.5,0.73-0.74,1.1
				c-0.02,0.02-0.03,0.05-0.05,0.07c-0.25,0.39-0.49,0.78-0.73,1.17c-0.01,0.01-0.01,0.02-0.02,0.03c-0.24,0.4-0.48,0.81-0.7,1.22
				c0,0,0,0.01,0,0.01c-1.38-1.57-2.89-3.03-4.51-4.37c0.25-0.18,0.5-0.35,0.75-0.53c0.04-0.03,0.08-0.06,0.12-0.08
				c0.22-0.15,0.44-0.3,0.65-0.45c0.08-0.05,0.15-0.11,0.23-0.16c0.2-0.13,0.39-0.26,0.59-0.39c0.1-0.06,0.19-0.13,0.29-0.19
				c0.18-0.12,0.36-0.23,0.54-0.35c0.11-0.07,0.22-0.14,0.33-0.21c0.17-0.11,0.34-0.21,0.5-0.31c0.12-0.07,0.24-0.14,0.35-0.21
				c0.16-0.09,0.31-0.18,0.47-0.27c0.12-0.07,0.25-0.14,0.37-0.21c0.15-0.08,0.29-0.16,0.43-0.24c0.13-0.07,0.25-0.14,0.37-0.2
				c0.14-0.07,0.27-0.14,0.4-0.21c0.13-0.06,0.25-0.12,0.37-0.18c0.13-0.06,0.25-0.12,0.37-0.18c0.12-0.06,0.25-0.11,0.37-0.16
				c0.12-0.05,0.23-0.1,0.34-0.14c0.12-0.05,0.24-0.09,0.36-0.13c0.11-0.04,0.21-0.08,0.31-0.11c0.12-0.04,0.23-0.07,0.34-0.1
				c0.09-0.03,0.19-0.05,0.28-0.08c0.11-0.03,0.22-0.04,0.32-0.06c0.08-0.01,0.17-0.03,0.24-0.04c0.11-0.01,0.2-0.01,0.3-0.02
				c0.07,0,0.14-0.01,0.2-0.01c0.11,0,0.2,0.02,0.29,0.04c0.05,0.01,0.1,0.01,0.15,0.02c0.14,0.03,0.26,0.08,0.37,0.15
				C83.7,10.83,83.81,10.92,83.92,11.05z"/>
		</g>
		<path id="XMLID_2442_" style="clip-path:url(#XMLID_00000117676671356111767290000018258643124452544932_);fill:#D65123;" d="
			M23.85,13.85c0.14,0.09,0.29,0.17,0.43,0.26C24.13,14.03,23.99,13.94,23.85,13.85z"/>
		<path id="XMLID_2443_" style="clip-path:url(#XMLID_00000117676671356111767290000018258643124452544932_);fill:#D65123;" d="
			M19.25,13.91c-0.14-0.17-0.29-0.33-0.44-0.49C18.95,13.58,19.1,13.75,19.25,13.91z"/>
		<path id="XMLID_2444_" style="clip-path:url(#XMLID_00000117676671356111767290000018258643124452544932_);fill:#D65123;" d="
			M24.56,14.3c0.15,0.1,0.31,0.2,0.46,0.3C24.86,14.49,24.71,14.4,24.56,14.3z"/>
		<path id="XMLID_2445_" style="clip-path:url(#XMLID_00000117676671356111767290000018258643124452544932_);fill:#D65123;" d="
			M25.27,14.76c0.17,0.11,0.33,0.22,0.5,0.33C25.6,14.98,25.43,14.87,25.27,14.76z"/>
		<path id="XMLID_2446_" style="clip-path:url(#XMLID_00000117676671356111767290000018258643124452544932_);fill:#D65123;" d="
			M22.46,13.05c0.12,0.07,0.25,0.13,0.37,0.21C22.7,13.19,22.58,13.12,22.46,13.05z"/>
		<path id="XMLID_2447_" style="clip-path:url(#XMLID_00000117676671356111767290000018258643124452544932_);fill:#D65123;" d="
			M23.15,13.44c0.13,0.08,0.26,0.15,0.4,0.23C23.41,13.59,23.28,13.52,23.15,13.44z"/>
		<path id="XMLID_2448_" style="clip-path:url(#XMLID_00000117676671356111767290000018258643124452544932_);fill:#D65123;" d="
			M21.79,12.7c0.11,0.06,0.23,0.12,0.35,0.18C22.02,12.82,21.91,12.76,21.79,12.7z"/>
		<path id="XMLID_2449_" style="clip-path:url(#XMLID_00000117676671356111767290000018258643124452544932_);fill:#D65123;" d="
			M20.79,15.81c-0.05-0.07-0.11-0.14-0.17-0.22C20.68,15.67,20.73,15.74,20.79,15.81z"/>
		<path id="XMLID_2450_" style="clip-path:url(#XMLID_00000117676671356111767290000018258643124452544932_);fill:#D65123;" d="
			M20.04,14.85c-0.09-0.11-0.18-0.22-0.28-0.33C19.85,14.63,19.95,14.74,20.04,14.85z"/>
		<path id="XMLID_2451_" style="clip-path:url(#XMLID_00000117676671356111767290000018258643124452544932_);fill:#D65123;" d="
			M18.42,12.99c-0.29-0.31-0.58-0.61-0.88-0.9C17.84,12.38,18.13,12.68,18.42,12.99z"/>
		<path id="XMLID_2452_" style="clip-path:url(#XMLID_00000117676671356111767290000018258643124452544932_);fill:#D65123;" d="
			M22.17,17.79c-0.01-0.02-0.03-0.04-0.04-0.06C22.14,17.75,22.16,17.77,22.17,17.79z"/>
		<path id="XMLID_2453_" style="clip-path:url(#XMLID_00000117676671356111767290000018258643124452544932_);fill:#D65123;" d="
			M22.81,18.82c0-0.01-0.01-0.02-0.01-0.02C22.8,18.8,22.81,18.81,22.81,18.82z"/>
		<path id="XMLID_2454_" style="clip-path:url(#XMLID_00000117676671356111767290000018258643124452544932_);fill:#D65123;" d="
			M25.97,15.22c0.19,0.13,0.37,0.25,0.56,0.38C26.34,15.48,26.15,15.35,25.97,15.22z"/>
		<path id="XMLID_2455_" style="clip-path:url(#XMLID_00000117676671356111767290000018258643124452544932_);fill:#D65123;" d="
			M21.5,16.79c-0.03-0.04-0.06-0.08-0.09-0.13C21.44,16.71,21.47,16.75,21.5,16.79z"/>
		<path id="XMLID_2456_" style="clip-path:url(#XMLID_00000117676671356111767290000018258643124452544932_);fill:#D65123;" d="
			M19.44,11.78c0.08,0.02,0.16,0.04,0.24,0.07C19.6,11.82,19.52,11.79,19.44,11.78z"/>
		<path id="XMLID_2458_" style="clip-path:url(#XMLID_00000117676671356111767290000018258643124452544932_);fill:#D65123;" d="
			M20.55,12.13c0.1,0.04,0.19,0.08,0.29,0.12C20.74,12.21,20.64,12.17,20.55,12.13z"/>
		<path id="XMLID_2459_" style="clip-path:url(#XMLID_00000117676671356111767290000018258643124452544932_);fill:#D65123;" d="
			M18.15,11.71c0.04-0.01,0.08-0.01,0.13-0.02C18.23,11.7,18.19,11.7,18.15,11.71z"/>
		<path id="XMLID_2460_" style="clip-path:url(#XMLID_00000117676671356111767290000018258643124452544932_);fill:#D65123;" d="
			M18.96,11.69c0.07,0.01,0.14,0.02,0.21,0.04C19.1,11.71,19.03,11.69,18.96,11.69z"/>
		<path id="XMLID_2461_" style="clip-path:url(#XMLID_00000117676671356111767290000018258643124452544932_);fill:#D65123;" d="
			M19.97,11.93c0.09,0.03,0.18,0.06,0.27,0.09C20.15,11.99,20.06,11.95,19.97,11.93z"/>
		<path id="XMLID_2462_" style="clip-path:url(#XMLID_00000117676671356111767290000018258643124452544932_);fill:#D65123;" d="
			M21.15,12.4c0.1,0.05,0.21,0.1,0.32,0.15C21.37,12.49,21.26,12.44,21.15,12.4z"/>
		<path id="XMLID_2463_" style="clip-path:url(#XMLID_00000117676671356111767290000018258643124452544932_);fill:#D65123;" d="
			M18.53,11.66c0.05,0,0.12,0,0.17,0.01C18.64,11.67,18.58,11.66,18.53,11.66z"/>
		<path id="XMLID_2487_" style="clip-path:url(#XMLID_00000117676671356111767290000018258643124452544932_);fill:#443434;" d="
			M22.83,13.26c0.1,0.06,0.21,0.12,0.32,0.18C23.04,13.38,22.93,13.32,22.83,13.26z"/>
		<path id="XMLID_2488_" style="clip-path:url(#XMLID_00000117676671356111767290000018258643124452544932_);fill:#443434;" d="
			M23.54,13.67c0.1,0.06,0.2,0.12,0.3,0.18C23.74,13.79,23.64,13.73,23.54,13.67z"/>
		<path id="XMLID_2489_" style="clip-path:url(#XMLID_00000117676671356111767290000018258643124452544932_);fill:#443434;" d="
			M21.47,12.55c0.11,0.05,0.21,0.1,0.32,0.16C21.69,12.65,21.58,12.6,21.47,12.55z"/>
		<path id="XMLID_2490_" style="clip-path:url(#XMLID_00000117676671356111767290000018258643124452544932_);fill:#443434;" d="
			M24.28,14.12c0.09,0.06,0.19,0.12,0.28,0.18C24.46,14.24,24.37,14.18,24.28,14.12z"/>
		<path id="XMLID_2491_" style="clip-path:url(#XMLID_00000117676671356111767290000018258643124452544932_);fill:#443434;" d="
			M22.14,12.88c0.11,0.06,0.21,0.11,0.32,0.17C22.35,12.99,22.24,12.94,22.14,12.88z"/>
		<path id="XMLID_2492_" style="clip-path:url(#XMLID_00000117676671356111767290000018258643124452544932_);fill:#443434;" d="
			M20.84,12.26c0.1,0.04,0.21,0.09,0.31,0.14C21.05,12.35,20.94,12.3,20.84,12.26z"/>
		<path id="XMLID_2493_" style="clip-path:url(#XMLID_00000117676671356111767290000018258643124452544932_);fill:#443434;" d="
			M20.24,12.02c0.1,0.04,0.2,0.07,0.3,0.11C20.44,12.09,20.34,12.06,20.24,12.02z"/>
		<path id="XMLID_2494_" style="clip-path:url(#XMLID_00000117676671356111767290000018258643124452544932_);fill:#443434;" d="
			M25.77,15.09c0.07,0.04,0.13,0.09,0.2,0.13C25.9,15.18,25.84,15.14,25.77,15.09z"/>
		<path id="XMLID_2495_" style="clip-path:url(#XMLID_00000117676671356111767290000018258643124452544932_);fill:#443434;" d="
			M26.53,15.61c0.03,0.02,0.07,0.05,0.1,0.07C26.6,15.65,26.56,15.63,26.53,15.61z"/>
		<path id="XMLID_2496_" style="clip-path:url(#XMLID_00000117676671356111767290000018258643124452544932_);fill:#443434;" d="
			M19.17,11.72c0.09,0.02,0.18,0.03,0.27,0.05C19.35,11.75,19.26,11.74,19.17,11.72z"/>
		<path id="XMLID_2497_" style="clip-path:url(#XMLID_00000117676671356111767290000018258643124452544932_);fill:#443434;" d="
			M25.02,14.59c0.08,0.05,0.17,0.11,0.25,0.16C25.18,14.7,25.1,14.65,25.02,14.59z"/>
		<path id="XMLID_2498_" style="clip-path:url(#XMLID_00000117676671356111767290000018258643124452544932_);fill:#443434;" d="
			M18.7,11.67c0.08,0,0.17,0,0.26,0.02C18.87,11.67,18.79,11.67,18.7,11.67z"/>
		<path id="XMLID_2499_" style="clip-path:url(#XMLID_00000117676671356111767290000018258643124452544932_);fill:#443434;" d="
			M17.83,11.84c0.1-0.06,0.2-0.1,0.32-0.12C18.03,11.74,17.93,11.78,17.83,11.84z"/>
		<path id="XMLID_2500_" style="clip-path:url(#XMLID_00000117676671356111767290000018258643124452544932_);fill:#443434;" d="
			M19.68,11.84c0.1,0.03,0.19,0.05,0.29,0.09C19.87,11.89,19.78,11.87,19.68,11.84z"/>
		<path id="XMLID_2501_" style="clip-path:url(#XMLID_00000117676671356111767290000018258643124452544932_);fill:#443434;" d="
			M18.27,11.69c0.08-0.01,0.16-0.03,0.25-0.03C18.44,11.67,18.36,11.68,18.27,11.69z"/>
		<path id="XMLID_2502_" style="clip-path:url(#XMLID_00000117676671356111767290000018258643124452544932_);fill:#443434;" d="
			M19.76,14.52c-0.17-0.2-0.34-0.41-0.51-0.61C19.42,14.11,19.59,14.32,19.76,14.52z"/>
		<path id="XMLID_2503_" style="clip-path:url(#XMLID_00000117676671356111767290000018258643124452544932_);fill:#443434;" d="
			M22.13,17.73c-0.21-0.32-0.42-0.63-0.63-0.94C21.71,17.1,21.92,17.41,22.13,17.73z"/>
		<path id="XMLID_2504_" style="clip-path:url(#XMLID_00000117676671356111767290000018258643124452544932_);fill:#443434;" d="
			M20.62,15.6c-0.19-0.25-0.38-0.5-0.58-0.74C20.24,15.1,20.43,15.35,20.62,15.6z"/>
		<path id="XMLID_2505_" style="clip-path:url(#XMLID_00000117676671356111767290000018258643124452544932_);fill:#443434;" d="
			M21.41,16.66c-0.2-0.29-0.41-0.57-0.62-0.85C21,16.09,21.2,16.38,21.41,16.66z"/>
		<path id="XMLID_2506_" style="clip-path:url(#XMLID_00000117676671356111767290000018258643124452544932_);fill:#443434;" d="
			M18.81,13.42c-0.13-0.14-0.26-0.29-0.39-0.43C18.55,13.13,18.68,13.28,18.81,13.42z"/>
		<path id="XMLID_2507_" style="clip-path:url(#XMLID_00000117676671356111767290000018258643124452544932_);fill:#443434;" d="
			M23.41,19.87c-0.19-0.35-0.39-0.7-0.6-1.05C23.02,19.16,23.22,19.51,23.41,19.87z"/>
		<path id="XMLID_2548_" style="clip-path:url(#XMLID_00000117676671356111767290000018258643124452544932_);fill:#F9E6C2;" d="
			M34.1,21.39c-0.02-0.01-0.03-0.03-0.05-0.04c-1.15,0.55-2.29,1.15-3.39,1.81C31.78,22.52,32.93,21.93,34.1,21.39z"/>
		<path id="XMLID_2551_" style="clip-path:url(#XMLID_00000117676671356111767290000018258643124452544932_);fill:#D65123;" d="
			M30.66,23.15c-1.58,0.9-3.11,1.89-4.58,2.96c0.01,0.03,0.02,0.05,0.02,0.08C27.56,25.1,29.08,24.08,30.66,23.15z"/>
		<path id="XMLID_2718_" style="clip-path:url(#XMLID_00000117676671356111767290000018258643124452544932_);fill:#EFD9B4;" d="
			M49.88,93.14c-13.43,0-25.03-2.52-33.54-7.29C6.5,80.34,1.31,72.14,1.31,62.12c0-6.18,2.43-15.1,7.02-22.35l-0.29-0.01l4.52-5.68
			c3.34-4.21,7.16-7.9,11.35-10.95l3.44-2.51l-0.08-0.06l0.49-0.24l0.32-0.23l0.02,0.07l4.36-2.14c5.72-2.73,11.59-4.12,17.45-4.12
			h0.17c5.87,0,11.74,1.39,17.46,4.12c1.24,0.59,2.48,1.25,3.67,1.95c0.23,0.13,0.45,0.27,0.68,0.41l0.07-0.21l4.14,2.97
			c4.19,3.05,8.01,6.74,11.35,10.95l1.27,1.6c0.71,0.82,1.38,1.67,2.01,2.54l1.22,1.54l-0.16,0.01c5.01,7.65,6.9,16.35,6.9,22.36
			c0,10.01-5.2,18.22-15.03,23.72c-8.51,4.76-20.11,7.28-33.54,7.29H49.88z"/>
		<path id="XMLID_2531_" style="clip-path:url(#XMLID_00000117676671356111767290000018258643124452544932_);fill:#F9E6C2;" d="
			M84.34,36.39c-1.42,0.07-2.82,0.23-4.19,0.48c-14.7,2.65-26.21,15.21-27.39,30.21c2,0.45-7.51,0.45-5.52,0
			c-1.18-15.01-12.69-27.56-27.39-30.21c-1.37-0.25-2.77-0.41-4.19-0.48C8.41,43.65,5,55.53,5,62.13
			c0,18.25,20.09,27.31,44.88,27.32c0.04,0,0.08,0,0.12,0c0.04,0,0.08,0,0.12,0C74.91,89.44,95,80.38,95,62.13
			C95,55.53,92.27,44.32,84.34,36.39z"/>
		<path id="XMLID_2539_" style="clip-path:url(#XMLID_00000117676671356111767290000018258643124452544932_);fill:#D65123;" d="
			M73.93,26.12c-0.01,0.03-0.02,0.05-0.02,0.08c-1.47-1.1-2.99-2.12-4.56-3.04c-1.11-0.65-2.24-1.25-3.39-1.81
			c-4.94-2.36-10.28-3.76-15.87-3.76c-0.03,0-0.06,0-0.08,0c-0.03,0-0.06,0-0.08,0c-5.58,0-10.93,1.4-15.87,3.76
			c0.02,0.01,0.03,0.03,0.05,0.04c-1.17,0.54-2.32,1.13-3.44,1.76c-1.57,0.92-3.09,1.94-4.56,3.04c-0.01-0.03-0.02-0.05-0.02-0.08
			c-4.01,2.92-7.6,6.44-10.63,10.26c0.07,0,0.15,0.01,0.22,0.01c1.42,0.07,2.82,0.23,4.19,0.48c14.7,2.65,26.21,15.21,27.39,30.21
			C48.07,66.9,49,66.83,50,66.84c1-0.01,1.93,0.06,2.76,0.24c1.18-15.01,12.69-27.56,27.39-30.21c1.37-0.25,2.77-0.41,4.19-0.48
			c0.07,0,0.15-0.01,0.22-0.01C81.53,32.56,77.94,29.04,73.93,26.12z"/>
		
			<circle id="XMLID_2545_" style="opacity:0.1;clip-path:url(#XMLID_00000117676671356111767290000018258643124452544932_);fill:#FFFFFF;" cx="50" cy="48.49" r="21.75"/>
		<path id="XMLID_2569_" style="clip-path:url(#XMLID_00000117676671356111767290000018258643124452544932_);fill:#443434;" d="
			M26.91,53.21c-3.33,0.29-5.79,3.23-5.5,6.56c0.29,3.33,3.23,5.79,6.56,5.5c3.33-0.29,5.79-3.23,5.5-6.56
			C33.18,55.38,30.24,52.92,26.91,53.21z M26.55,64.43c-1.1,0.1-2.06-0.71-2.16-1.81c-0.1-1.1,0.71-2.06,1.81-2.16
			c1.09-0.1,2.06,0.71,2.16,1.81C28.46,63.36,27.65,64.33,26.55,64.43z M28.6,58.66c-0.56,0.05-1.06-0.37-1.11-0.93
			c-0.05-0.56,0.37-1.06,0.93-1.11c0.56-0.05,1.06,0.37,1.11,0.93C29.58,58.11,29.16,58.61,28.6,58.66z"/>
		<path id="XMLID_2571_" style="clip-path:url(#XMLID_00000117676671356111767290000018258643124452544932_);fill:#FFFFFF;" d="
			M26.2,60.46c-1.1,0.1-1.9,1.06-1.81,2.16c0.1,1.1,1.06,1.9,2.16,1.81c1.1-0.1,1.91-1.06,1.81-2.16
			C28.26,61.17,27.3,60.36,26.2,60.46z"/>
		<path id="XMLID_2572_" style="clip-path:url(#XMLID_00000117676671356111767290000018258643124452544932_);fill:#FFFFFF;" d="
			M28.42,56.62c-0.56,0.05-0.98,0.54-0.93,1.11c0.05,0.56,0.54,0.98,1.11,0.93c0.56-0.05,0.98-0.54,0.93-1.11
			C29.48,56.99,28.98,56.57,28.42,56.62z"/>
		<path id="XMLID_2573_" style="clip-path:url(#XMLID_00000117676671356111767290000018258643124452544932_);fill:#FAC279;" d="
			M21.47,66.43c-2.65-0.26-5.01,1.68-5.27,4.34s1.68,5.01,4.34,5.27s5.01-1.68,5.27-4.34C26.06,69.05,24.12,66.69,21.47,66.43z"/>
		<path id="XMLID_2527_" style="clip-path:url(#XMLID_00000117676671356111767290000018258643124452544932_);fill:#D65123;" d="
			M76.15,13.85c-0.14,0.09-0.29,0.17-0.43,0.26C75.87,14.03,76.01,13.94,76.15,13.85z"/>
		<path id="XMLID_2526_" style="clip-path:url(#XMLID_00000117676671356111767290000018258643124452544932_);fill:#D65123;" d="
			M80.75,13.91c0.14-0.17,0.29-0.33,0.44-0.49C81.05,13.58,80.9,13.75,80.75,13.91z"/>
		<path id="XMLID_2525_" style="clip-path:url(#XMLID_00000117676671356111767290000018258643124452544932_);fill:#D65123;" d="
			M75.44,14.3c-0.15,0.1-0.31,0.2-0.46,0.3C75.14,14.49,75.29,14.4,75.44,14.3z"/>
		<path id="XMLID_2524_" style="clip-path:url(#XMLID_00000117676671356111767290000018258643124452544932_);fill:#D65123;" d="
			M74.73,14.76c-0.17,0.11-0.33,0.22-0.5,0.33C74.4,14.98,74.57,14.87,74.73,14.76z"/>
		<path id="XMLID_2523_" style="clip-path:url(#XMLID_00000117676671356111767290000018258643124452544932_);fill:#D65123;" d="
			M77.54,13.05c-0.12,0.07-0.25,0.13-0.37,0.21C77.3,13.19,77.42,13.12,77.54,13.05z"/>
		<path id="XMLID_2522_" style="clip-path:url(#XMLID_00000117676671356111767290000018258643124452544932_);fill:#D65123;" d="
			M76.85,13.44c-0.13,0.08-0.26,0.15-0.4,0.23C76.59,13.59,76.72,13.52,76.85,13.44z"/>
		<path id="XMLID_2521_" style="clip-path:url(#XMLID_00000117676671356111767290000018258643124452544932_);fill:#D65123;" d="
			M78.21,12.7c-0.11,0.06-0.23,0.12-0.35,0.18C77.98,12.82,78.09,12.76,78.21,12.7z"/>
		<path id="XMLID_2520_" style="clip-path:url(#XMLID_00000117676671356111767290000018258643124452544932_);fill:#D65123;" d="
			M79.21,15.81c0.05-0.07,0.11-0.14,0.17-0.22C79.32,15.67,79.27,15.74,79.21,15.81z"/>
		<path id="XMLID_2519_" style="clip-path:url(#XMLID_00000117676671356111767290000018258643124452544932_);fill:#D65123;" d="
			M79.96,14.85c0.09-0.11,0.18-0.22,0.28-0.33C80.15,14.63,80.05,14.74,79.96,14.85z"/>
		<path id="XMLID_2518_" style="clip-path:url(#XMLID_00000117676671356111767290000018258643124452544932_);fill:#D65123;" d="
			M81.58,12.99c0.29-0.31,0.58-0.61,0.88-0.9C82.16,12.38,81.87,12.68,81.58,12.99z"/>
		<path id="XMLID_2517_" style="clip-path:url(#XMLID_00000117676671356111767290000018258643124452544932_);fill:#D65123;" d="
			M77.83,17.79c0.01-0.02,0.03-0.04,0.04-0.06C77.86,17.75,77.84,17.77,77.83,17.79z"/>
		<path id="XMLID_2516_" style="clip-path:url(#XMLID_00000117676671356111767290000018258643124452544932_);fill:#D65123;" d="
			M77.19,18.82c0-0.01,0.01-0.02,0.01-0.02C77.2,18.8,77.19,18.81,77.19,18.82z"/>
		<path id="XMLID_2515_" style="clip-path:url(#XMLID_00000117676671356111767290000018258643124452544932_);fill:#D65123;" d="
			M74.03,15.22c-0.19,0.13-0.37,0.25-0.56,0.38C73.66,15.48,73.85,15.35,74.03,15.22z"/>
		<path id="XMLID_2514_" style="clip-path:url(#XMLID_00000117676671356111767290000018258643124452544932_);fill:#D65123;" d="
			M78.5,16.79c0.03-0.04,0.06-0.08,0.09-0.13C78.56,16.71,78.53,16.75,78.5,16.79z"/>
		<path id="XMLID_2513_" style="clip-path:url(#XMLID_00000117676671356111767290000018258643124452544932_);fill:#D65123;" d="
			M80.56,11.78c-0.08,0.02-0.16,0.04-0.24,0.07C80.4,11.82,80.48,11.79,80.56,11.78z"/>
		<path id="XMLID_2511_" style="clip-path:url(#XMLID_00000117676671356111767290000018258643124452544932_);fill:#D65123;" d="
			M79.45,12.13c-0.1,0.04-0.19,0.08-0.29,0.12C79.26,12.21,79.36,12.17,79.45,12.13z"/>
		<path id="XMLID_2510_" style="clip-path:url(#XMLID_00000117676671356111767290000018258643124452544932_);fill:#D65123;" d="
			M81.85,11.71c-0.04-0.01-0.08-0.01-0.13-0.02C81.77,11.7,81.81,11.7,81.85,11.71z"/>
		<path id="XMLID_2486_" style="clip-path:url(#XMLID_00000117676671356111767290000018258643124452544932_);fill:#D65123;" d="
			M81.04,11.69c-0.07,0.01-0.14,0.02-0.21,0.04C80.9,11.71,80.97,11.69,81.04,11.69z"/>
		<path id="XMLID_2485_" style="clip-path:url(#XMLID_00000117676671356111767290000018258643124452544932_);fill:#D65123;" d="
			M80.03,11.93c-0.09,0.03-0.18,0.06-0.27,0.09C79.85,11.99,79.94,11.95,80.03,11.93z"/>
		<path id="XMLID_2484_" style="clip-path:url(#XMLID_00000117676671356111767290000018258643124452544932_);fill:#D65123;" d="
			M78.85,12.4c-0.1,0.05-0.21,0.1-0.32,0.15C78.63,12.49,78.74,12.44,78.85,12.4z"/>
		<path id="XMLID_2483_" style="clip-path:url(#XMLID_00000117676671356111767290000018258643124452544932_);fill:#D65123;" d="
			M81.47,11.66c-0.05,0-0.12,0-0.17,0.01C81.36,11.67,81.42,11.66,81.47,11.66z"/>
		<path id="XMLID_2482_" style="clip-path:url(#XMLID_00000117676671356111767290000018258643124452544932_);fill:#443434;" d="
			M77.17,13.26c-0.1,0.06-0.21,0.12-0.32,0.18C76.96,13.38,77.07,13.32,77.17,13.26z"/>
		<path id="XMLID_2481_" style="clip-path:url(#XMLID_00000117676671356111767290000018258643124452544932_);fill:#443434;" d="
			M76.46,13.67c-0.1,0.06-0.2,0.12-0.3,0.18C76.26,13.79,76.36,13.73,76.46,13.67z"/>
		<path id="XMLID_2480_" style="clip-path:url(#XMLID_00000117676671356111767290000018258643124452544932_);fill:#443434;" d="
			M78.53,12.55c-0.11,0.05-0.21,0.1-0.32,0.16C78.31,12.65,78.42,12.6,78.53,12.55z"/>
		<path id="XMLID_2479_" style="clip-path:url(#XMLID_00000117676671356111767290000018258643124452544932_);fill:#443434;" d="
			M75.72,14.12c-0.09,0.06-0.19,0.12-0.28,0.18C75.54,14.24,75.63,14.18,75.72,14.12z"/>
		<path id="XMLID_2478_" style="clip-path:url(#XMLID_00000117676671356111767290000018258643124452544932_);fill:#443434;" d="
			M77.86,12.88c-0.11,0.06-0.21,0.11-0.32,0.17C77.65,12.99,77.76,12.94,77.86,12.88z"/>
		<path id="XMLID_2477_" style="clip-path:url(#XMLID_00000117676671356111767290000018258643124452544932_);fill:#443434;" d="
			M79.16,12.26c-0.1,0.04-0.21,0.09-0.31,0.14C78.95,12.35,79.06,12.3,79.16,12.26z"/>
		<path id="XMLID_2476_" style="clip-path:url(#XMLID_00000117676671356111767290000018258643124452544932_);fill:#443434;" d="
			M79.76,12.02c-0.1,0.04-0.2,0.07-0.3,0.11C79.56,12.09,79.66,12.06,79.76,12.02z"/>
		<path id="XMLID_2475_" style="clip-path:url(#XMLID_00000117676671356111767290000018258643124452544932_);fill:#443434;" d="
			M74.23,15.09c-0.07,0.04-0.13,0.09-0.2,0.13C74.1,15.18,74.16,15.14,74.23,15.09z"/>
		<path id="XMLID_2474_" style="clip-path:url(#XMLID_00000117676671356111767290000018258643124452544932_);fill:#443434;" d="
			M73.47,15.61c-0.03,0.02-0.07,0.05-0.1,0.07C73.4,15.65,73.44,15.63,73.47,15.61z"/>
		<path id="XMLID_2473_" style="clip-path:url(#XMLID_00000117676671356111767290000018258643124452544932_);fill:#443434;" d="
			M80.83,11.72c-0.09,0.02-0.18,0.03-0.27,0.05C80.65,11.75,80.74,11.74,80.83,11.72z"/>
		<path id="XMLID_2472_" style="clip-path:url(#XMLID_00000117676671356111767290000018258643124452544932_);fill:#443434;" d="
			M74.98,14.59c-0.08,0.05-0.17,0.11-0.25,0.16C74.82,14.7,74.9,14.65,74.98,14.59z"/>
		<path id="XMLID_2471_" style="clip-path:url(#XMLID_00000117676671356111767290000018258643124452544932_);fill:#443434;" d="
			M81.3,11.67c-0.08,0-0.17,0-0.26,0.02C81.13,11.67,81.21,11.67,81.3,11.67z"/>
		<path id="XMLID_2470_" style="clip-path:url(#XMLID_00000117676671356111767290000018258643124452544932_);fill:#443434;" d="
			M82.17,11.84c-0.1-0.06-0.2-0.1-0.32-0.12C81.97,11.74,82.07,11.78,82.17,11.84z"/>
		<path id="XMLID_2469_" style="clip-path:url(#XMLID_00000117676671356111767290000018258643124452544932_);fill:#443434;" d="
			M80.32,11.84c-0.1,0.03-0.19,0.05-0.29,0.09C80.13,11.89,80.22,11.87,80.32,11.84z"/>
		<path id="XMLID_2468_" style="clip-path:url(#XMLID_00000117676671356111767290000018258643124452544932_);fill:#443434;" d="
			M81.73,11.69c-0.08-0.01-0.16-0.03-0.25-0.03C81.56,11.67,81.64,11.68,81.73,11.69z"/>
		<path id="XMLID_2467_" style="clip-path:url(#XMLID_00000117676671356111767290000018258643124452544932_);fill:#443434;" d="
			M80.24,14.52c0.17-0.2,0.34-0.41,0.51-0.61C80.58,14.11,80.41,14.32,80.24,14.52z"/>
		<path id="XMLID_2466_" style="clip-path:url(#XMLID_00000117676671356111767290000018258643124452544932_);fill:#443434;" d="
			M77.87,17.73c0.21-0.32,0.42-0.63,0.63-0.94C78.29,17.1,78.08,17.41,77.87,17.73z"/>
		<path id="XMLID_2465_" style="clip-path:url(#XMLID_00000117676671356111767290000018258643124452544932_);fill:#443434;" d="
			M79.38,15.6c0.19-0.25,0.38-0.5,0.58-0.74C79.76,15.1,79.57,15.35,79.38,15.6z"/>
		<path id="XMLID_2464_" style="clip-path:url(#XMLID_00000117676671356111767290000018258643124452544932_);fill:#443434;" d="
			M78.59,16.66c0.2-0.29,0.41-0.57,0.62-0.85C79,16.09,78.8,16.38,78.59,16.66z"/>
		<path id="XMLID_2441_" style="clip-path:url(#XMLID_00000117676671356111767290000018258643124452544932_);fill:#443434;" d="
			M81.19,13.42c0.13-0.14,0.26-0.29,0.39-0.43C81.45,13.13,81.32,13.28,81.19,13.42z"/>
		<path id="XMLID_2438_" style="clip-path:url(#XMLID_00000117676671356111767290000018258643124452544932_);fill:#443434;" d="
			M76.59,19.87c0.19-0.35,0.39-0.7,0.6-1.05C76.98,19.16,76.78,19.51,76.59,19.87z"/>
		<path id="XMLID_2437_" style="clip-path:url(#XMLID_00000117676671356111767290000018258643124452544932_);fill:#443434;" d="
			M77.2,18.8c0.2-0.34,0.41-0.67,0.63-1C77.61,18.12,77.41,18.46,77.2,18.8z"/>
		<path id="XMLID_204_" style="clip-path:url(#XMLID_00000117676671356111767290000018258643124452544932_);fill:#D65123;" d="
			M69.34,23.15c1.58,0.9,3.11,1.89,4.58,2.96c-0.01,0.03-0.02,0.05-0.02,0.08C72.44,25.1,70.92,24.08,69.34,23.15z"/>
		<path id="XMLID_197_" style="clip-path:url(#XMLID_00000117676671356111767290000018258643124452544932_);fill:#443434;" d="
			M66.53,58.71c-0.29,3.33,2.17,6.26,5.5,6.56c3.33,0.29,6.26-2.17,6.56-5.5c0.29-3.33-2.17-6.26-5.5-6.56
			C69.76,52.92,66.82,55.38,66.53,58.71z M71.64,62.27c0.1-1.1,1.06-1.91,2.16-1.81c1.1,0.1,1.9,1.06,1.81,2.16
			c-0.1,1.1-1.06,1.9-2.16,1.81C72.35,64.33,71.54,63.36,71.64,62.27z M70.47,57.55c0.05-0.56,0.54-0.98,1.11-0.93
			c0.56,0.05,0.98,0.54,0.93,1.11c-0.05,0.56-0.54,0.98-1.11,0.93C70.84,58.61,70.42,58.11,70.47,57.55z"/>
		<path id="XMLID_196_" style="clip-path:url(#XMLID_00000117676671356111767290000018258643124452544932_);fill:#FFFFFF;" d="
			M73.8,60.46c1.1,0.1,1.9,1.06,1.81,2.16c-0.1,1.1-1.06,1.9-2.16,1.81c-1.1-0.1-1.91-1.06-1.81-2.16
			C71.74,61.17,72.7,60.36,73.8,60.46z"/>
		<path id="XMLID_195_" style="clip-path:url(#XMLID_00000117676671356111767290000018258643124452544932_);fill:#FFFFFF;" d="
			M71.58,56.62c0.56,0.05,0.98,0.54,0.93,1.11c-0.05,0.56-0.54,0.98-1.11,0.93c-0.56-0.05-0.98-0.54-0.93-1.11
			C70.52,56.99,71.02,56.57,71.58,56.62z"/>
		<path id="XMLID_194_" style="clip-path:url(#XMLID_00000117676671356111767290000018258643124452544932_);fill:#FAC279;" d="
			M78.53,66.43c2.65-0.26,5.01,1.68,5.27,4.34s-1.68,5.01-4.34,5.27s-5.01-1.68-5.27-4.34C73.94,69.05,75.88,66.69,78.53,66.43z"/>
		<path id="XMLID_171_" style="clip-path:url(#XMLID_00000117676671356111767290000018258643124452544932_);fill:#FFFFFF;" d="
			M56.27,71.34c0.03,3.1-4.29,5.94-6.02,6.95c-0.06,0.28-0.15,0.55-0.25,0.82c-0.1-0.27-0.19-0.54-0.25-0.82
			c-1.72-1.01-6.05-3.85-6.02-6.95c-2.07,0.86-3.57,2.86-3.67,5.25c-0.13,3.28,2.42,6.05,5.7,6.18c1.63,0.07,3.12-0.54,4.24-1.55
			c1.12,1.02,2.61,1.62,4.24,1.55c3.28-0.13,5.83-2.9,5.7-6.18C59.84,74.2,58.34,72.2,56.27,71.34z"/>
		<path id="XMLID_2431_" style="clip-path:url(#XMLID_00000117676671356111767290000018258643124452544932_);fill:#443434;" d="
			M52.76,67.09c-0.78-0.18-1.66-0.24-2.6-0.24v0c-0.05,0-0.1,0-0.15,0c-0.05,0-0.1,0-0.15,0v0c-0.94,0-1.82,0.07-2.6,0.24
			c-2,0.45-3.37,1.6-3.51,4.12c0,0.05,0,0.09,0,0.14c-0.03,3.1,4.29,5.94,6.02,6.95c0.03,0.02,0.06,0.04,0.1,0.06v0.18
			c0.05-0.03,0.1-0.06,0.15-0.09c0.06,0.03,0.11,0.06,0.15,0.09v-0.18c0.03-0.02,0.06-0.04,0.1-0.06c1.72-1.01,6.05-3.85,6.02-6.95
			c0-0.05,0-0.09,0-0.14C56.13,68.69,54.76,67.54,52.76,67.09z"/>
	</g>
</g>
</svg>
