<?xml version="1.0" ?><!-- Uploaded to: SVG Repo, www.svgrepo.com, Generator: SVG Repo Mixer Tools -->
<svg width="800px" height="800px" viewBox="0 0 128 128" data-name="Layer 1" id="Layer_1" xmlns="http://www.w3.org/2000/svg"><defs><style>.cls-1{fill:#ffd8c9;}.cls-2,.cls-7,.cls-9{fill:#ffffff;}.cls-2{opacity:0.3;}.cls-3{fill:#00adfe;}.cls-4{fill:#393c54;}.cls-11,.cls-5{fill:#515570;}.cls-12,.cls-14,.cls-15,.cls-6,.cls-8{fill:none;stroke-linecap:round;}.cls-6{stroke:#ffffff;opacity:0.1;}.cls-15,.cls-6,.cls-8{stroke-miterlimit:10;}.cls-12,.cls-14,.cls-15,.cls-6{stroke-width:2px;}.cls-15,.cls-8{stroke:#4bc190;}.cls-8{stroke-width:4px;}.cls-9{opacity:0.5;}.cls-10{fill:#f85565;}.cls-11{opacity:0.2;}.cls-12{stroke:#00adfe;}.cls-12,.cls-14{stroke-linejoin:round;}.cls-13{fill:#356cb6;}.cls-14{stroke:#356cb6;}</style></defs><title/><circle class="cls-1" cx="64" cy="64" r="60"/><circle class="cls-2" cx="64" cy="64" r="48"/><path class="cls-3" d="M64,4A60.12,60.12,0,0,0,46,6.75V31a6,6,0,0,1-6,6l.08,5H87.92L88,37a6,6,0,0,1-6-6V6.75A60.12,60.12,0,0,0,64,4Z"/><path class="cls-4" d="M94,86h1a1,1,0,0,0,1-1V70a1,1,0,0,0-1-1H94Z"/><path class="cls-3" d="M40.08,93,40,98a6,6,0,0,1,6,6v17.29a60.28,60.28,0,0,0,36,0V104a6,6,0,0,1,6-6l-.08-5Z"/><rect class="cls-5" height="63" rx="10.03" width="60" x="34" y="36"/><rect class="cls-4" height="50" rx="5.02" transform="translate(131.5 3.5) rotate(90)" width="53" x="37.5" y="42.5"/><path class="cls-6" d="M43,54v-2.4A6.59,6.59,0,0,1,49.58,45H64"/><rect class="cls-4" height="12" rx="1" width="5" x="92" y="49"/><path class="cls-7" d="M56.45,83a1,1,0,0,1-.94-1.06,8.56,8.56,0,0,1,17,0A1,1,0,0,1,71.55,83Z"/><line class="cls-8" x1="64" x2="64" y1="79.38" y2="88"/><line class="cls-8" x1="61" x2="61" y1="80.38" y2="85"/><path class="cls-9" d="M63.38,76.75H38.94a6.48,6.48,0,0,0-6.12-4.53,6.6,6.6,0,0,0-6.57,6.41A6.5,6.5,0,0,0,38.36,82h25A2.63,2.63,0,0,0,66,79.38h0A2.63,2.63,0,0,0,63.38,76.75Z"/><path class="cls-10" d="M63.38,77.75H38.21l-.22-.7a5.5,5.5,0,0,0-2.12-2.85,13.48,13.48,0,0,1-3,4.52,21.84,21.84,0,0,1-4.53,3.2,5.67,5.67,0,0,0,.53.66,5.49,5.49,0,0,0,8.66-1.09l.29-.49h25.6a1.63,1.63,0,0,0,0-3.25Z"/><path class="cls-11" d="M63.38,79H37.78l-.29.49a5.47,5.47,0,0,1-7.93,1.7c-.41.25-.83.5-1.26.73a5.67,5.67,0,0,0,.53.66,5.49,5.49,0,0,0,8.66-1.09l.29-.49h25.6a1.62,1.62,0,0,0,1.27-2.62A1.65,1.65,0,0,1,63.38,79Z"/><ellipse class="cls-7" cx="30.29" cy="76.29" rx="2.79" ry="0.96" transform="translate(-45.07 43.77) rotate(-45)"/><path class="cls-7" d="M58.49,63h-10a5,5,0,0,1,10,0Z"/><path class="cls-4" d="M56.16,62.83H50.83a2.67,2.67,0,0,1,5.33,0Z"/><line class="cls-12" x1="48" x2="59" y1="63" y2="63"/><circle class="cls-13" cx="75.83" cy="62.83" r="5.62"/><path class="cls-13" d="M77.83,72.83a2,2,0,0,1-4,0c0-1.1.9-3,2-3S77.83,71.73,77.83,72.83Z"/><circle class="cls-7" cx="75.83" cy="60.83" r="4.92"/><circle class="cls-4" cx="75.83" cy="60.83" r="2.67"/><path class="cls-14" d="M93,18.07a3.61,3.61,0,0,1,0,5l-.17.17a3.6,3.6,0,0,0,0,5.07l.12.13a3.59,3.59,0,0,1,0,5.07l-.12.12"/><path class="cls-15" d="M35.7,28.66a3.59,3.59,0,0,1,0-5l.17-.17a3.62,3.62,0,0,0,0-5.08l-.12-.12"/><line class="cls-14" x1="100.64" x2="103.36" y1="39.64" y2="42.36"/><line class="cls-14" x1="100.64" x2="103.36" y1="42.36" y2="39.64"/><line class="cls-14" x1="20.64" x2="23.36" y1="32.64" y2="35.36"/><line class="cls-14" x1="20.64" x2="23.36" y1="35.36" y2="32.64"/><line class="cls-14" x1="87.64" x2="90.36" y1="106.64" y2="109.36"/><line class="cls-14" x1="87.64" x2="90.36" y1="109.36" y2="106.64"/><circle class="cls-15" cx="104" cy="31" r="2"/><circle class="cls-15" cx="27" cy="47" r="2"/></svg>