<?xml version="1.0" ?><!-- Uploaded to: SVG Repo, www.svgrepo.com, Generator: SVG Repo Mixer Tools -->
<svg width="800px" height="800px" viewBox="0 0 128 128" data-name="Layer 1" id="Layer_1" xmlns="http://www.w3.org/2000/svg"><defs><style>.cls-1,.cls-11{fill:#f85565;}.cls-14,.cls-2{fill:#ffffff;}.cls-10,.cls-11,.cls-2{opacity:0.2;}.cls-3{fill:#f2bc0f;}.cls-4{fill:#fba875;}.cls-5{fill:#ffbb94;}.cls-10,.cls-13,.cls-6,.cls-8,.cls-9{fill:none;stroke-linecap:round;}.cls-6,.cls-9{stroke:#fba875;}.cls-13,.cls-6,.cls-9{stroke-miterlimit:10;}.cls-6{stroke-width:14px;}.cls-7{fill:#515570;}.cls-10,.cls-8{stroke:#515570;stroke-linejoin:round;}.cls-13,.cls-9{stroke-width:3px;}.cls-10{stroke-width:2px;}.cls-12{fill:#f8dc25;}.cls-13{stroke:#f2bc0f;opacity:0.3;}</style></defs><title/><circle class="cls-1" cx="64" cy="64" r="60"/><circle class="cls-2" cx="64" cy="64" r="48"/><circle class="cls-3" cx="89" cy="60" r="15"/><circle class="cls-3" cx="82" cy="77" r="10"/><circle class="cls-3" cx="39" cy="60" r="15"/><circle class="cls-3" cx="46" cy="77" r="10"/><path class="cls-3" d="M64,14.88h0a32,32,0,0,1,32,32v4.71A21.59,21.59,0,0,1,74.41,73.17H53.59A21.59,21.59,0,0,1,32,51.59V46.88a32,32,0,0,1,32-32Z"/><circle class="cls-4" cx="89" cy="60" r="7"/><path class="cls-5" d="M64,124a59.69,59.69,0,0,0,32.55-9.61l-3.18-10.75A10,10,0,0,0,84,97H44.05a10,10,0,0,0-9.42,6.64l-3.18,10.75A59.69,59.69,0,0,0,64,124Z"/><line class="cls-6" x1="64" x2="64" y1="88.75" y2="96.5"/><circle class="cls-4" cx="39" cy="60" r="7"/><path class="cls-5" d="M64,90A25,25,0,0,1,39,65V47.52a25,25,0,1,1,50,0V65A25,25,0,0,1,64,90Z"/><circle class="cls-7" cx="76" cy="58.28" r="3"/><path class="cls-8" d="M70.5,59.37A6.61,6.61,0,0,1,82,58.06"/><circle class="cls-7" cx="52" cy="58.28" r="3"/><path class="cls-9" d="M61.75,69a5.29,5.29,0,0,0,4.5,0"/><line class="cls-10" x1="55" x2="45.75" y1="52" y2="52"/><circle class="cls-11" cx="51" cy="67" r="5.08"/><path class="cls-12" d="M36.51,58.15V47.4c0-14.95,11.71-27.61,26.66-28A27.51,27.51,0,0,1,91.49,46.82v-.24a2,2,0,0,1-2,2h0a7.11,7.11,0,0,1-6.31-3.85L77.58,33.92l-7.4,13.73a31.43,31.43,0,0,1-27.67,16.5h0A6,6,0,0,1,36.51,58.15Z"/><circle class="cls-12" cx="41.61" cy="49.55" r="14.61"/><circle class="cls-12" cx="44" cy="33.94" r="7.64"/><path class="cls-13" d="M70.22,34.94,64.9,44.8A25.41,25.41,0,0,1,42.59,58.15h0c-5.28,0-9.59-3.89-9.59-8.6"/><circle class="cls-12" cx="89.81" cy="41.13" r="7.64"/><circle class="cls-11" cx="77" cy="67" r="5.08"/><circle class="cls-7" cx="74.5" cy="71.5" r="1"/><path class="cls-14" d="M83.32,120.9,76,96.5H74l-8.76,27.57A59.72,59.72,0,0,0,83.32,120.9Z"/><path class="cls-14" d="M61.52,124,54,96.5H52l-7.32,24.4A59.66,59.66,0,0,0,61.52,124Z"/><path class="cls-1" d="M71.12,78.48a.49.49,0,0,0-.19-.7c-.71-.39-2-1.08-2.75-1.61a2.51,2.51,0,0,0-2.76,0h0a2.42,2.42,0,0,1-2.84,0h0a2.51,2.51,0,0,0-2.76,0c-.78.51-2,1.18-2.69,1.58a.49.49,0,0,0-.17.72c.77,1.11,2,4.35,6.82,4.47h.44C69,82.8,70.41,79.61,71.12,78.48Z"/><path class="cls-14" d="M61,78.85h6s-.6,1.3-3,1.3S61,78.85,61,78.85Z"/><circle class="cls-14" cx="90" cy="68" r="3"/><circle class="cls-14" cx="38" cy="68" r="3"/><path class="cls-10" d="M72,51l5.18-2.36a4.6,4.6,0,0,1,4.67.5L83,50"/></svg>