<?xml version="1.0" encoding="utf-8"?>
<!-- Generator: Adobe Illustrator 26.1.0, SVG Export Plug-In . SVG Version: 6.00 Build 0)  -->
<svg version="1.1" id="Layer_1" xmlns="http://www.w3.org/2000/svg" xmlns:xlink="http://www.w3.org/1999/xlink" x="0px" y="0px"
	 viewBox="0 0 100 100" style="enable-background:new 0 0 100 100;" xml:space="preserve">
<style type="text/css">
	.st0{fill:#E5E5E5;}
	.st1{fill:#BCBAB7;}
	.st2{fill:#8FAE30;}
	.st3{fill:#7E961D;}
	.st4{fill:#A5C346;}
</style>
<g>
	<path class="st0" d="M81,16.6H19c-7.7,0-14,6.3-14,14v0c0,7.7,6.3,14,14,14H81c7.7,0,14-6.3,14-14v0C95,22.9,88.7,16.6,81,16.6z"/>
	<rect x="12.5" y="26.4" class="st1" width="74.9" height="9.3"/>
	<g>
		<g>
			<rect x="25.1" y="26.4" class="st2" width="49.3" height="57"/>
			<path class="st3" d="M38.4,83.1c0,0.1,0,0.2,0,0.3H25.1V69.7h0C32.5,69.7,38.4,75.7,38.4,83.1z"/>
			<path class="st3" d="M74.3,69.7v13.6H61c0-0.1,0-0.2,0-0.3C61,75.7,67,69.7,74.3,69.7L74.3,69.7z"/>
		</g>
		<path class="st4" d="M39.3,26.4c-2.8,2.9-4.6,6.9-4.6,11.2c0,8.9,7.2,16,16,16c8.9,0,16-7.2,16-16c0-4.4-1.8-8.3-4.6-11.2H39.3z"
			/>
		<g>
			<circle class="st3" cx="50.7" cy="68" r="5.5"/>
		</g>
	</g>
</g>
</svg>
