<?xml version="1.0" encoding="utf-8"?>
<!-- Generator: Adobe Illustrator 26.1.0, SVG Export Plug-In . SVG Version: 6.00 Build 0)  -->
<svg version="1.1" id="Layer_1" xmlns="http://www.w3.org/2000/svg" xmlns:xlink="http://www.w3.org/1999/xlink" x="0px" y="0px"
	 viewBox="0 0 100 100" style="enable-background:new 0 0 100 100;" xml:space="preserve">
<style type="text/css">
	.st0{fill:#E5E5E5;}
	.st1{fill:#BCBAB7;}
	.st2{fill:#FECE31;}
	.st3{fill:#F6BD3B;}
	.st4{fill:#BB413A;}
	.st5{fill:#FFFFFF;}
</style>
<g>
	<path class="st0" d="M81,15H19c-7.7,0-14,6.3-14,14v0c0,7.7,6.3,14,14,14H81c7.7,0,14-6.3,14-14v0C95,21.3,88.7,15,81,15z"/>
	<rect x="12.5" y="24.8" class="st1" width="74.9" height="9.3"/>
	<g>
		<rect x="29.3" y="24.8" class="st2" width="42.9" height="60.2"/>
		<rect x="52.3" y="24.8" class="st3" width="19.9" height="60.2"/>
		
			<rect x="30.2" y="65.4" transform="matrix(-1.836970e-16 1 -1 -1.836970e-16 109.7708 32.4387)" class="st4" width="17" height="11.4"/>
		
			<rect x="35.1" y="70" transform="matrix(-1.836970e-16 1 -1 -1.836970e-16 113.0506 28.966)" class="st5" width="13.9" height="2"/>
		<polyline class="st5" points="36.3,78 34.3,78 34.3,64.1 36.3,64.1 		"/>
		<rect x="42.2" y="24.8" class="st5" width="3.2" height="29.3"/>
		<rect x="35.3" y="24.8" class="st5" width="3.2" height="19"/>
		
			<rect x="31.9" y="69.6" transform="matrix(-1.836970e-16 1 -1 -1.836970e-16 109.6591 32.4387)" class="st2" width="13.5" height="2.8"/>
		
			<rect x="55.9" y="69.8" transform="matrix(-1.836970e-16 1 -1 -1.836970e-16 137.1261 4.971)" class="st5" width="20.4" height="2.5"/>
		
			<rect x="54.4" y="66.3" transform="matrix(-1.836970e-16 1 -1 -1.836970e-16 128.574 6.4698)" class="st5" width="13.4" height="2.5"/>
	</g>
</g>
</svg>
