<?xml version="1.0" ?><!-- Uploaded to: SVG Repo, www.svgrepo.com, Generator: SVG Repo Mixer Tools -->
<svg width="800px" height="800px" viewBox="0 0 128 128" data-name="Layer 1" id="Layer_1" xmlns="http://www.w3.org/2000/svg"><defs><style>.cls-1{fill:#a7aece;}.cls-2,.cls-3{fill:#515570;}.cls-2{opacity:0.2;}.cls-10,.cls-11,.cls-4,.cls-7,.cls-8{fill:none;stroke-linecap:round;}.cls-4,.cls-8{stroke:#fbc0aa;}.cls-10,.cls-4,.cls-8{stroke-linejoin:round;}.cls-4{stroke-width:14px;}.cls-5{fill:#393c54;}.cls-6{fill:#ffd8c9;}.cls-11,.cls-7{stroke:#ffffff;stroke-miterlimit:10;}.cls-7{stroke-width:4px;opacity:0.1;}.cls-8{stroke-width:5px;}.cls-9{fill:#f85565;opacity:0.5;}.cls-10{stroke:#f85565;}.cls-10,.cls-11{stroke-width:2px;}.cls-11{opacity:0.7;}</style></defs><title/><circle class="cls-1" cx="64" cy="64" r="60"/><circle class="cls-2" cx="64" cy="64" r="48"/><path class="cls-3" d="M64,124a59.67,59.67,0,0,0,34.69-11.06l-3.32-9.3A10,10,0,0,0,86,97H42.05a10,10,0,0,0-9.42,6.64l-3.32,9.3A59.67,59.67,0,0,0,64,124Z"/><line class="cls-4" x1="64" x2="64" y1="84.75" y2="98.5"/><path class="cls-5" d="M64,124a59.77,59.77,0,0,0,41.6-16.79c-2.28-7.34-7.31-21-7.31-24.28V48.32A34.32,34.32,0,0,0,64,14h0A34.31,34.31,0,0,0,29.65,48.32V82.93c0,3.39-4.62,17.82-6.54,25A59.78,59.78,0,0,0,64,124Z"/><path class="cls-6" d="M64,91A25,25,0,0,1,39,66V49.52a25,25,0,1,1,50,0V66A25,25,0,0,1,64,91Z"/><path class="cls-5" d="M35.67,49.19a28.33,28.33,0,0,1,56.66,0L92,51.48,36,51.75Z"/><path class="cls-7" d="M44.22,38.85A21.67,21.67,0,0,1,63.35,25.34"/><circle class="cls-3" cx="76" cy="58.28" r="3"/><circle class="cls-3" cx="52" cy="58.28" r="3"/><line class="cls-8" x1="64" x2="64" y1="63.75" y2="68.25"/><path class="cls-9" d="M69.15,78.94c0,2-2.3,3.16-5.15,3.16s-5.15-1.52-5.15-3.16c0-2.84,2.48-3.94,5.15-3.15C66.58,74.92,69.15,76.1,69.15,78.94Z"/><path class="cls-10" d="M58,77.87a16.83,16.83,0,0,0,12,0"/><path class="cls-3" d="M86.42,48.48a118.24,118.24,0,0,0-44.84,0A3.21,3.21,0,0,0,39,51.64V55a105.67,105.67,0,0,1,50,0V51.64A3.21,3.21,0,0,0,86.42,48.48Z"/><path class="cls-5" d="M92.36,65.68a28.34,28.34,0,1,1-56.67,0s19.19-1.29,26.16-3.83a6.23,6.23,0,0,1,4.3,0C73.13,64.39,92.36,65.68,92.36,65.68Z"/><path class="cls-11" d="M35.69,116.89l0-67.7a28.33,28.33,0,0,1,56.66,0l0,67.67"/></svg>