<?xml version="1.0" ?><!-- Uploaded to: SVG Repo, www.svgrepo.com, Generator: SVG Repo Mixer Tools -->
<svg width="800px" height="800px" viewBox="0 0 128 128" data-name="Layer 1" id="Layer_1" xmlns="http://www.w3.org/2000/svg"><defs><style>.cls-1,.cls-14{fill:#515570;}.cls-2{fill:#6b718e;}.cls-3{fill:#ffffff;}.cls-11,.cls-4,.cls-9{fill:#393c54;}.cls-4{opacity:0.2;}.cls-5{fill:#a7aece;}.cls-10,.cls-12,.cls-6,.cls-8{fill:none;stroke-linecap:round;}.cls-12,.cls-6{stroke:#fba875;stroke-miterlimit:10;}.cls-6{stroke-width:18px;}.cls-7{fill:#ffbb94;}.cls-8{stroke:#515570;}.cls-10,.cls-8{stroke-linejoin:round;stroke-width:2px;}.cls-14,.cls-8{opacity:0.4;}.cls-13,.cls-9{opacity:0.1;}.cls-10{stroke:#f85565;}.cls-12{stroke-width:6px;}.cls-13{fill:#356cb6;}</style></defs><title/><circle class="cls-1" cx="64" cy="64" r="60"/><circle class="cls-2" cx="64" cy="64" r="48"/><path class="cls-3" d="M34,77.58V106s24.54,3.6,30,3.6S94,106,94,106V77.58C96.55,72.81,31.45,72.81,34,77.58Z"/><path class="cls-4" d="M30,61.6a33.77,33.77,0,0,0,4,16V106s24.54,3.6,30,3.6S94,106,94,106V77.58a33.77,33.77,0,0,0,4-16Z"/><path class="cls-3" d="M64,125.1A59.73,59.73,0,0,0,103.8,110l-2.2-5.41c-1.71-4-6.22-6.64-11.29-6.64H37.69c-5.07,0-9.58,2.66-11.29,6.64L24.2,110A59.73,59.73,0,0,0,64,125.1Z"/><polygon class="cls-5" points="74 100.95 54 100.95 53.22 95.47 74.78 95.47 74 100.95"/><line class="cls-6" x1="64" x2="64" y1="85.7" y2="99.45"/><path class="cls-5" d="M64,125.05l1,0V107a1,1,0,1,0-2,0V125Z"/><path class="cls-7" d="M64,95.32A28.31,28.31,0,0,1,35.68,67V54.38a28.32,28.32,0,1,1,56.64,0V67A28.31,28.31,0,0,1,64,95.32Z"/><line class="cls-8" x1="74.39" x2="84" y1="51.95" y2="53.7"/><line class="cls-8" x1="53" x2="43.39" y1="51.95" y2="53.7"/><path class="cls-3" d="M64,104.25a11,11,0,0,1-10.78-8.8,11.4,11.4,0,0,0-.22,2.2,11,11,0,0,0,22,0,11.4,11.4,0,0,0-.22-2.2A11,11,0,0,1,64,104.25Z"/><path class="cls-9" d="M64,104.25a11,11,0,0,1-10.78-8.8,11.4,11.4,0,0,0-.22,2.2,11,11,0,0,0,22,0,11.4,11.4,0,0,0-.22-2.2A11,11,0,0,1,64,104.25Z"/><path class="cls-10" d="M67.54,81a9,9,0,0,0-7.32.11"/><circle class="cls-11" cx="78" cy="60.23" r="3"/><circle class="cls-11" cx="50" cy="60.23" r="3"/><line class="cls-12" x1="64" x2="64" y1="61.7" y2="70.2"/><circle class="cls-1" cx="68" cy="113.95" r="1.5"/><circle class="cls-1" cx="68" cy="120.95" r="1.5"/><path class="cls-11" d="M75,78c-.07-5-6-5.08-11-5.08S53.08,73,53,78h0V94.16a28.48,28.48,0,0,0,22,0V78Zm-5,9H67.78a1,1,0,0,1-1-.76l-.62-2.48a1,1,0,0,0-1-.76H62.78a1,1,0,0,0-1,.76l-.62,2.48a1,1,0,0,1-1,.76H58a2,2,0,0,1-2-2V80.08a2,2,0,0,1,2-2H70a2,2,0,0,1,2,2V85A2,2,0,0,1,70,87Z"/><path class="cls-13" d="M37.69,98a12.7,12.7,0,0,0-10.08,4.59l11.94,6a1,1,0,0,0,1.45-.89V98Z"/><path class="cls-3" d="M32,43,27.24,97.29a4,4,0,0,0,2.19,3.93l8.12,4.06a1,1,0,0,0,1.45-.9V46.5Z"/><path class="cls-13" d="M90.31,98H85v9.67a1,1,0,0,0,1.45.89l13.35-6.67A13,13,0,0,0,90.31,98Z"/><path class="cls-3" d="M96,43l4.76,54.29a4,4,0,0,1-2.19,3.93l-8.12,4.06a1,1,0,0,1-1.45-.9V46.5Z"/><path class="cls-3" d="M95,48a31,31,0,0,0-62,0h0v4a181.28,181.28,0,0,1,62,0V48Z"/><circle class="cls-14" cx="43.5" cy="64.5" r="1.5"/><path class="cls-11" d="M94.69,34.18a252.1,252.1,0,0,0-61.38,0,2.88,2.88,0,0,0-2.52,2.54L30,43.63a2.86,2.86,0,0,0,3.29,3.14,207.69,207.69,0,0,1,61.38,0A2.86,2.86,0,0,0,98,43.63l-.77-6.91A2.88,2.88,0,0,0,94.69,34.18Z"/></svg>