<?xml version="1.0" ?><!-- Uploaded to: SVG Repo, www.svgrepo.com, Generator: SVG Repo Mixer Tools -->
<svg width="800px" height="800px" viewBox="0 0 128 128" data-name="Layer 1" id="Layer_1" xmlns="http://www.w3.org/2000/svg"><defs><style>.cls-1{fill:#00adfe;}.cls-2,.cls-3{fill:#ffffff;}.cls-2{opacity:0.3;}.cls-10,.cls-4{fill:#393c54;}.cls-4{opacity:0.1;}.cls-5{fill:#f85565;}.cls-6{fill:#f8dc25;}.cls-7{fill:#4bc190;}.cls-8{fill:#356cb6;}.cls-9{fill:none;stroke:#515570;stroke-linecap:round;stroke-linejoin:round;stroke-width:2px;}</style></defs><title/><circle class="cls-1" cx="64" cy="64" r="60"/><circle class="cls-2" cx="64" cy="64" r="48"/><path class="cls-3" d="M109.39,68.76A17.56,17.56,0,0,0,91.82,51.2a18.1,18.1,0,0,0-3.85.43,26.19,26.19,0,0,0-40-10A16.33,16.33,0,0,0,24.82,59a8.78,8.78,0,0,0-3.37,15.75,21,21,0,0,0,24.86,28.09,11.37,11.37,0,0,0,19.21,3.8A21,21,0,0,0,99.13,89.81,21.27,21.27,0,0,0,98.56,85,17.56,17.56,0,0,0,109.39,68.76Z"/><path class="cls-4" d="M109.39,68.76A17.56,17.56,0,0,0,91.82,51.2a18.1,18.1,0,0,0-3.85.43,26.19,26.19,0,0,0-40-10A16.33,16.33,0,0,0,24.82,59a8.78,8.78,0,0,0-3.37,15.75,21,21,0,0,0,24.86,28.09,11.37,11.37,0,0,0,19.21,3.8A21,21,0,0,0,99.13,89.81,21.27,21.27,0,0,0,98.56,85,17.56,17.56,0,0,0,109.39,68.76Z"/><path class="cls-3" d="M106.53,60.49c-.07-.48-.18-1.09-.32-1.78A17.51,17.51,0,0,0,91.82,51.2a18.1,18.1,0,0,0-3.85.43,26.19,26.19,0,0,0-40-10A16.33,16.33,0,0,0,24.82,59a8.8,8.8,0,0,0-6.47,5.5A9.88,9.88,0,0,0,29.41,71,17.89,17.89,0,0,0,59.08,88.19a17.77,17.77,0,0,0,32.73-9.6,18,18,0,0,0-.35-3.47,12.93,12.93,0,0,0,15.07-14.63Z"/><path class="cls-5" d="M97.22,14A59.64,59.64,0,0,0,81.14,6.5,72.93,72.93,0,0,0,43.69,58.18L56.76,60.5A59.72,59.72,0,0,1,97.22,14Z"/><path class="cls-6" d="M97.23,14.05A60,60,0,0,0,56.76,60.5l13.08,2.32a46.53,46.53,0,0,1,39.61-38A60,60,0,0,0,97.23,14.05Z"/><path class="cls-7" d="M118,37.83a60,60,0,0,0-8.55-13,46.42,46.42,0,0,0-39.61,38l13.08,2.32a33.13,33.13,0,0,1,32.63-27.41C116.36,37.73,117.18,37.77,118,37.83Z"/><path class="cls-4" d="M82.92,65.14a33.14,33.14,0,0,1,4.63-12A13,13,0,0,0,71,54.11a16.49,16.49,0,0,0-10.21-3.56h-.33a12.94,12.94,0,0,0-8-8.74A12.63,12.63,0,0,0,49,41a73.4,73.4,0,0,0-5.26,17.14L56.76,60.5h0l13.08,2.32h0Z"/><path class="cls-8" d="M70,123.7a59.86,59.86,0,0,0,10-1.87V76H70Z"/><path class="cls-8" d="M40,119a59.62,59.62,0,0,0,10,3.35V76H40Z"/><path class="cls-3" d="M83,55.21A9,9,0,0,0,71.4,60.5h0a12.42,12.42,0,0,0-14.55-5.3A9,9,0,1,0,49,63a12.44,12.44,0,0,0,23.42,8.41A12.7,12.7,0,0,0,73,69.49,9,9,0,1,0,83,55.21Z"/><path class="cls-9" d="M66,72a4,4,0,0,0,4,4H80"/><path class="cls-9" d="M53.67,72a4,4,0,0,1-4,4H40"/><path class="cls-10" d="M52.45,94a1,1,0,0,1-.94-1.06,8.56,8.56,0,0,1,17,0A1,1,0,0,1,67.55,94Z"/><path class="cls-5" d="M65.75,94a6.06,6.06,0,0,0-11.5,0Z"/><path class="cls-8" d="M36,110a2,2,0,0,1-4,0c0-1.1.9-3.41,2-3.41S36,108.9,36,110Z"/><path class="cls-8" d="M58.67,119a2,2,0,0,1-4,0c0-1.1.89-3.41,2-3.41S58.67,117.9,58.67,119Z"/><path class="cls-8" d="M66,115.41a2,2,0,0,1-4,0c0-1.1.9-3.41,2-3.41S66,114.31,66,115.41Z"/><path class="cls-8" d="M87.55,115.41a2,2,0,0,1-4,0c0-1.1.9-3.41,2-3.41S87.55,114.31,87.55,115.41Z"/></svg>