<?xml version="1.0" ?><!-- Uploaded to: SVG Repo, www.svgrepo.com, Generator: SVG Repo Mixer Tools -->
<svg width="800px" height="800px" viewBox="0 0 128 128" data-name="Layer 1" id="Layer_1" xmlns="http://www.w3.org/2000/svg"><defs><style>.cls-1{fill:#00adfe;}.cls-18,.cls-2{fill:#ffffff;}.cls-14,.cls-2{opacity:0.3;}.cls-3{fill:#bc5b57;}.cls-4{fill:#fba875;}.cls-5{fill:#4bc190;}.cls-6{fill:#7cdbcd;}.cls-11,.cls-12,.cls-13,.cls-14,.cls-19,.cls-7,.cls-9{fill:none;stroke-linecap:round;}.cls-12,.cls-13,.cls-7{stroke:#fba875;stroke-miterlimit:10;}.cls-7{stroke-width:16px;}.cls-8{fill:#ffbb94;}.cls-9{stroke:#bc5b57;stroke-width:4px;}.cls-11,.cls-14,.cls-19,.cls-9{stroke-linejoin:round;}.cls-10{fill:#db7a72;}.cls-11,.cls-19{stroke:#515570;}.cls-11,.cls-14{stroke-width:1.89px;}.cls-11{opacity:0.4;}.cls-12{stroke-width:3.74px;}.cls-13{stroke-width:3.78px;}.cls-14{stroke:#f85565;}.cls-15,.cls-17{fill:#f85565;}.cls-15{opacity:0.1;}.cls-16{fill:#393c54;}.cls-19{stroke-width:2px;}</style></defs><title/><circle class="cls-1" cx="64" cy="64" r="60"/><circle class="cls-2" cx="64" cy="64" r="48"/><path class="cls-3" d="M32.86,66.94V52.14C32.86,34.94,46.8,28,64,28s31.14,6.94,31.14,24.14v14.8Z"/><circle class="cls-4" cx="89.84" cy="70.87" r="7.5"/><path class="cls-5" d="M64,124a59.75,59.75,0,0,0,37.53-13.2l-2-5.53C98,101.5,93.68,99,88.89,99H39.11c-4.79,0-9.07,2.51-10.68,6.28l-2,5.53A59.75,59.75,0,0,0,64,124Z"/><path class="cls-6" d="M74.26,100.86c0,5.66-4.6,9.25-10.26,9.25s-10.26-3.59-10.26-9.25,4.6-3.42,10.26-3.42S74.26,95.19,74.26,100.86Z"/><line class="cls-7" x1="64" x2="64" y1="88.88" y2="98.88"/><path class="cls-3" d="M93.85,29.41,87.91,31a1,1,0,0,1-1.26-.95l-.13-8.17A1,1,0,0,0,85,21.31l-4.57,2.58A1,1,0,0,1,79,23.31l-1.66-5.47a1,1,0,0,0-1.63-.46l-4.47,4a1,1,0,0,1-1.59-.35L67.13,15.2A1,1,0,0,0,65.38,15l-3.89,5.84a1,1,0,0,1-1.68,0L56.73,16a1,1,0,0,0-1.64-.07L49.72,23a1,1,0,0,1-1.32.26l-6-3.65a1,1,0,0,0-1.4.66l.28,9.36a1,1,0,0,1-1.32,1L34.3,28.69a1,1,0,0,0-1.43.9V53.22H95.14V30.36A1,1,0,0,0,93.85,29.41Z"/><circle class="cls-4" cx="38.16" cy="70.87" r="7.5"/><path class="cls-8" d="M64,98A26.78,26.78,0,0,1,37.21,71.19V61.57a26.79,26.79,0,0,1,53.58,0v9.62A26.78,26.78,0,0,1,64,98Z"/><line class="cls-9" x1="37.51" x2="37.51" y1="64.68" y2="45.76"/><line class="cls-9" x1="90.49" x2="90.49" y1="65.68" y2="45.81"/><path class="cls-10" d="M63.15,30.12C47.92,30.57,36,43.47,36,58.7a2,2,0,0,0,2,2h0A2.72,2.72,0,0,0,40.6,58.6h0A9.28,9.28,0,0,1,49.73,51H78.27a9.28,9.28,0,0,1,9.13,7.6h0A2.72,2.72,0,0,0,90,60.66h0a2,2,0,0,0,2-2v-.6A28,28,0,0,0,63.15,30.12Z"/><line class="cls-11" x1="74.12" x2="83.21" y1="63.84" y2="63.6"/><line class="cls-11" x1="53.88" x2="44.79" y1="63.84" y2="63.6"/><line class="cls-12" x1="64" x2="64" y1="72" y2="78"/><line class="cls-13" x1="66.36" x2="61.64" y1="79.03" y2="79.03"/><line class="cls-14" x1="64.95" x2="66.84" y1="78.08" y2="78.08"/><ellipse class="cls-15" cx="51.15" cy="78.72" rx="4.34" ry="2.82"/><ellipse class="cls-15" cx="76.85" cy="78.72" rx="4.34" ry="2.82"/><path class="cls-16" d="M71.55,84a1,1,0,0,1,.94,1.07,8.56,8.56,0,0,1-17,0A1,1,0,0,1,56.45,84Z"/><path class="cls-17" d="M59,90.91a8.52,8.52,0,0,0,10.08,0C68,89.16,66.17,89,64,89S60,89.16,59,90.91Z"/><path class="cls-18" d="M69,86H59a1.84,1.84,0,0,1-1.73-2H70.77A1.84,1.84,0,0,1,69,86Z"/><rect class="cls-16" height="3" width="2" x="60" y="84"/><path class="cls-19" d="M71.67,72.28a3,3,0,0,1,6,0"/><path class="cls-19" d="M56,72.28a3,3,0,0,0-6,0"/></svg>