<?xml version="1.0" ?><!-- Uploaded to: SVG Repo, www.svgrepo.com, Generator: SVG Repo Mixer Tools -->
<svg width="800px" height="800px" viewBox="0 0 128 128" data-name="Layer 1" id="Layer_1" xmlns="http://www.w3.org/2000/svg" xmlns:xlink="http://www.w3.org/1999/xlink"><defs><style>.cls-1{fill:#515570;}.cls-2{fill:#6b718e;}.cls-3{fill:#ffffff;}.cls-4{fill:url(#linear-gradient);}.cls-5{fill:#fbc0aa;}.cls-6{fill:url(#linear-gradient-2);}.cls-14,.cls-7{fill:#f85565;}.cls-8{fill:#ffd8c9;}.cls-11,.cls-12,.cls-13,.cls-15,.cls-16,.cls-9{fill:none;stroke-linecap:round;stroke-linejoin:round;}.cls-11,.cls-9{stroke:#fbc0aa;}.cls-9{stroke-width:14px;}.cls-10{fill:#00adfe;}.cls-10,.cls-14{opacity:0.5;}.cls-11{stroke-width:5px;}.cls-12,.cls-15{stroke:#515570;}.cls-12,.cls-13{stroke-width:2px;}.cls-12{opacity:0.2;}.cls-13{stroke:#f85565;}.cls-16{stroke:#ffffff;stroke-width:4px;}.cls-17{fill:#393c54;}.cls-18{fill:#356cb6;}</style><linearGradient gradientTransform="matrix(-1, 0, 0, 1, 67.62, 0)" gradientUnits="userSpaceOnUse" id="linear-gradient" x1="-28.47" x2="-28.47" y1="40.35" y2="94"><stop offset="0" stop-color="#ffffff"/><stop offset="0.99" stop-color="#00adfe"/></linearGradient><linearGradient gradientUnits="userSpaceOnUse" id="linear-gradient-2" x1="31.91" x2="31.91" y1="40.35" y2="94"><stop offset="0" stop-color="#ffffff"/><stop offset="0.99" stop-color="#f85565"/></linearGradient></defs><title/><circle class="cls-1" cx="64" cy="64" r="60"/><circle class="cls-2" cx="64" cy="64" r="48"/><path class="cls-3" d="M64,21h0A29.69,29.69,0,0,1,93.69,50.69v8.93A15.93,15.93,0,0,1,77.76,75.55H50.24A15.93,15.93,0,0,1,34.31,59.62V50.69A29.69,29.69,0,0,1,64,21Z"/><path class="cls-4" d="M89.81,34c1.56,5,.46,41.91.82,53.58A6.62,6.62,0,0,0,97.25,94h0a6.62,6.62,0,0,0,6.62-6.59c.06-12.28,1.86-51.18-.62-59.09a10,10,0,0,0-12.54-6.54C85.44,23.44,88.15,28.73,89.81,34Z"/><circle class="cls-5" cx="89" cy="63" r="7"/><path class="cls-6" d="M38.19,34c-1.56,5-.46,41.91-.82,53.58A6.62,6.62,0,0,1,30.75,94h0a6.62,6.62,0,0,1-6.62-6.59c-.06-12.28-1.86-51.18.62-59.09a10,10,0,0,1,12.54-6.54C42.56,23.44,39.85,28.73,38.19,34Z"/><path class="cls-3" d="M64,124.05a59.66,59.66,0,0,0,34.69-11l-3.32-9.36A10,10,0,0,0,86,97H42.05a10,10,0,0,0-9.42,6.64L29.31,113A59.66,59.66,0,0,0,64,124.05Z"/><path class="cls-7" d="M86,97H42.05a10,10,0,0,0-8.2,4.29l9.25,12.5A3,3,0,0,0,45.51,115h37a3,3,0,0,0,2.41-1.21l9.25-12.5A10,10,0,0,0,86,97Z"/><path class="cls-8" d="M50.5,98.19a13.5,13.5,0,0,0,27,0A10.74,10.74,0,0,0,77.43,97H50.57A10.74,10.74,0,0,0,50.5,98.19Z"/><line class="cls-9" x1="64" x2="64" y1="86.75" y2="97.5"/><circle class="cls-5" cx="39" cy="63" r="7"/><path class="cls-8" d="M64,93A25,25,0,0,1,39,68V51.52a25,25,0,1,1,50,0V68A25,25,0,0,1,64,93Z"/><path class="cls-10" d="M74.79,57.39A3.79,3.79,0,0,0,71,61.56,3.89,3.89,0,0,0,75,65h4.58a6.63,6.63,0,0,1,6.63,6.64H89V66.12a8.73,8.73,0,0,0-8.72-8.73Z"/><circle class="cls-1" cx="75" cy="61" r="2.5"/><line class="cls-11" x1="64" x2="64" y1="65.75" y2="70.25"/><line class="cls-12" x1="72.39" x2="81" y1="55" y2="54"/><line class="cls-13" x1="58" x2="58" y1="84" y2="88"/><line class="cls-13" x1="57" x2="57" y1="81" y2="85"/><path class="cls-14" d="M54.22,57.39A3.78,3.78,0,0,1,58,61.55,3.88,3.88,0,0,1,54.06,65H49.48a6.64,6.64,0,0,0-6.64,6.64H40V66.12a8.73,8.73,0,0,1,8.73-8.73Z"/><circle class="cls-1" cx="54.01" cy="61" r="2.5"/><path class="cls-15" d="M58.49,63.33a6.62,6.62,0,0,0-10.72-4.39"/><path class="cls-16" d="M32.5,86.75c3.87,0,9-3.13,9-7V69.43c0-16,6.58-30.81,20.49-38.76l2-1.15,2,1.15C79.92,38.62,87.5,53.41,87.5,69.43V79.75c0,3.87,5.13,7,9,7"/><path class="cls-3" d="M40,71.82V69.43c0-15.29,7.82-24.9,20.61-32.65a7.56,7.56,0,0,1,3.89-1.11h0a7.56,7.56,0,0,1,3.89,1.11C81.18,44.53,89,54.14,89,69.43v1.48a15.87,15.87,0,0,0,4.69-11.29V50.69A29.69,29.69,0,0,0,64,21h0A29.69,29.69,0,0,0,34.31,50.69v8.93A15.88,15.88,0,0,0,40,71.82Z"/><path class="cls-12" d="M56,53s-1-2-5-2-5,2-5,2"/><path class="cls-7" d="M64,87.56a9.58,9.58,0,0,1-9.49-8.37A2,2,0,0,1,56.45,77h15.1a2,2,0,0,1,1.94,2.19A9.58,9.58,0,0,1,64,87.56Z"/><path class="cls-17" d="M71.1,78.25a.89.89,0,0,1,.89,1,8.05,8.05,0,0,1-16,0,.89.89,0,0,1,.89-1Z"/><path class="cls-3" d="M56,79.26a6.08,6.08,0,0,0,.16.87H71.83a6.21,6.21,0,0,0,.16-.86.89.89,0,0,0-.89-1H56.9A.89.89,0,0,0,56,79.26Z"/><path class="cls-15" d="M70.52,63.33a6.62,6.62,0,0,1,10.72-4.39"/><rect class="cls-17" height="6" width="16" x="56" y="94"/><polygon class="cls-18" points="88.83 34.74 89.62 32 87.62 24 83.25 29.17 88.83 34.74"/><polygon class="cls-7" points="38.79 34.74 38 32 40 24 44.37 29.17 38.79 34.74"/></svg>