<?xml version="1.0" ?><!-- Uploaded to: SVG Repo, www.svgrepo.com, Generator: SVG Repo Mixer Tools -->
<svg width="800px" height="800px" viewBox="0 0 128 128" data-name="Layer 1" id="Layer_1" xmlns="http://www.w3.org/2000/svg"><defs><style>.cls-1{fill:#ff8475;}.cls-13,.cls-2{fill:#f85565;}.cls-2{opacity:0.4;}.cls-3{fill:#ffffff;}.cls-4,.cls-7{fill:#356cb6;}.cls-17,.cls-4{opacity:0.1;}.cls-5{fill:#fbc0aa;}.cls-15,.cls-6{fill:#00adfe;}.cls-10,.cls-11,.cls-12,.cls-14,.cls-16,.cls-17,.cls-8{fill:none;stroke-linecap:round;}.cls-11,.cls-8{stroke:#fbc0aa;}.cls-11,.cls-12,.cls-14,.cls-16,.cls-17,.cls-8{stroke-linejoin:round;}.cls-8{stroke-width:14px;}.cls-9{fill:#ffd8c9;}.cls-10{stroke:#ffffff;stroke-miterlimit:10;}.cls-10,.cls-12,.cls-17{stroke-width:2px;}.cls-11{stroke-width:5px;}.cls-12,.cls-14,.cls-16,.cls-17{stroke:#515570;}.cls-12,.cls-15{opacity:0.2;}.cls-14,.cls-16{stroke-width:2.33px;}.cls-14{opacity:0.7;}</style></defs><title/><circle class="cls-1" cx="64" cy="64" r="60"/><circle class="cls-2" cx="64" cy="64" r="48"/><circle class="cls-3" cx="64" cy="25" r="14.92"/><circle class="cls-4" cx="64" cy="25" r="14.92"/><path class="cls-3" d="M64,19.4h0A30.33,30.33,0,0,1,94.33,49.73v4.46A20.46,20.46,0,0,1,73.87,74.65H54.13A20.46,20.46,0,0,1,33.67,54.19V49.73A30.33,30.33,0,0,1,64,19.4Z"/><circle class="cls-5" cx="89" cy="65" r="7"/><path class="cls-6" d="M64,124a59.7,59.7,0,0,0,34.7-11.07l-3.33-10.29A10,10,0,0,0,86,96H42.05a10,10,0,0,0-9.42,6.64L29.3,112.93A59.7,59.7,0,0,0,64,124Z"/><path class="cls-7" d="M46.54,121.41a60.15,60.15,0,0,0,34.92,0L79,96H49Z"/><circle class="cls-3" cx="56" cy="98" r="3"/><circle class="cls-3" cx="57" cy="102" r="3"/><circle class="cls-3" cx="72" cy="98" r="3"/><circle class="cls-3" cx="71" cy="102" r="3"/><circle class="cls-3" cx="60" cy="105" r="3"/><circle class="cls-3" cx="64" cy="106" r="3"/><circle class="cls-3" cx="68" cy="105" r="3"/><line class="cls-8" x1="64" x2="64" y1="88" y2="98"/><circle class="cls-5" cx="39" cy="65" r="7"/><path class="cls-9" d="M64,95A25,25,0,0,1,39,70V53.52a25,25,0,1,1,50,0V70A25,25,0,0,1,64,95Z"/><path class="cls-3" d="M91.49,53.12V51.4c0-14.95-11.71-27.61-26.66-28A27.51,27.51,0,0,0,36.51,50.82v-.24a2,2,0,0,0,2,2h9.87a9.79,9.79,0,0,0,8.34-4.67h0c2,4.15,6.05,6,8.41,6.75a10,10,0,0,0,3,.46H89.45A2,2,0,0,0,91.49,53.12Z"/><path class="cls-4" d="M91.49,53.12V51.4c0-14.95-11.71-27.61-26.66-28A27.51,27.51,0,0,0,36.51,50.82v-.24a2,2,0,0,0,2,2h9.87a9.79,9.79,0,0,0,8.34-4.67h0c2,4.15,6.05,6,8.41,6.75a10,10,0,0,0,3,.46H89.45A2,2,0,0,0,91.49,53.12Z"/><path class="cls-10" d="M63,43c2.52,5.22,6.39,6.09,9.6,6.09h12"/><line class="cls-11" x1="64" x2="64" y1="69.75" y2="76.25"/><line class="cls-12" x1="53.63" x2="44.38" y1="57" y2="57"/><line class="cls-12" x1="83.63" x2="74.38" y1="57" y2="57"/><path class="cls-13" d="M64,86c5,0,7-3,7-3H57S59,86,64,86Z"/><line class="cls-14" x1="74" x2="78" y1="68" y2="68"/><line class="cls-14" x1="50" x2="54" y1="68" y2="68"/><circle class="cls-15" cx="52" cy="65" r="7"/><circle class="cls-16" cx="52" cy="65" r="7"/><circle class="cls-15" cx="76" cy="65" r="7"/><circle class="cls-16" cx="76" cy="65" r="7"/><line class="cls-16" x1="59" x2="69" y1="65" y2="65"/><line class="cls-17" x1="52" x2="57" y1="84" y2="77"/><line class="cls-17" x1="75" x2="70" y1="84" y2="77"/></svg>