<?xml version="1.0" ?><!-- Uploaded to: SVG Repo, www.svgrepo.com, Generator: SVG Repo Mixer Tools -->
<svg width="800px" height="800px" viewBox="0 0 128 128" data-name="Layer 1" id="Layer_1" xmlns="http://www.w3.org/2000/svg"><defs><style>.cls-1{fill:#4bc190;}.cls-2,.cls-5{fill:#ffffff;}.cls-2{opacity:0.3;}.cls-3{fill:#356cb6;}.cls-4{fill:#8f5653;}.cls-10,.cls-17,.cls-6,.cls-7{fill:none;stroke-linecap:round;stroke-linejoin:round;}.cls-6{stroke:#356cb6;stroke-width:24px;}.cls-7{stroke:#fbc0aa;stroke-width:20px;}.cls-8{fill:#ffd8c9;}.cls-9{fill:#393c54;}.cls-10,.cls-17{stroke:#515570;}.cls-10{stroke-width:2px;opacity:0.4;}.cls-11{fill:#f85565;}.cls-12{fill:#db7a72;}.cls-13{fill:#bc5b57;}.cls-14{fill:#ff6d00;}.cls-15{fill:#fbc0aa;}.cls-16{fill:#a7aece;}.cls-17{stroke-width:2.22px;}</style></defs><title/><circle class="cls-1" cx="64" cy="64" r="60"/><circle class="cls-2" cx="64" cy="64" r="48"/><path class="cls-3" d="M120.57,84H67v16h45A60,60,0,0,0,120.57,84Z"/><rect class="cls-4" height="15" width="29" x="50" y="95"/><path class="cls-5" d="M64,124.1A59.73,59.73,0,0,0,103.8,109l-2.2-5.36c-1.71-4-6.22-6.64-11.29-6.64H37.69c-5.07,0-9.58,2.66-11.29,6.64L24.2,109A59.73,59.73,0,0,0,64,124.1Z"/><line class="cls-6" x1="64" x2="64" y1="95.75" y2="98.5"/><line class="cls-7" x1="64" x2="64" y1="77.75" y2="90.5"/><path class="cls-8" d="M64,94.37A28.31,28.31,0,0,1,35.68,66.05V47.43a28.32,28.32,0,1,1,56.64,0V66.05A28.31,28.31,0,0,1,64,94.37Z"/><circle class="cls-9" cx="76.67" cy="59.28" r="3"/><circle class="cls-9" cx="49.67" cy="59.28" r="3"/><line class="cls-10" x1="74.39" x2="84" y1="53" y2="52.75"/><line class="cls-10" x1="53" x2="43.39" y1="53" y2="52.75"/><line class="cls-10" x1="60" x2="68" y1="86" y2="86"/><path class="cls-9" d="M69.5,82h-11a3.5,3.5,0,0,1,0-7h11a3.5,3.5,0,0,1,0,7Z"/><path class="cls-5" d="M58,75H70a0,0,0,0,1,0,0v0a2,2,0,0,1-2,2H60a2,2,0,0,1-2-2v0A0,0,0,0,1,58,75Z"/><path class="cls-11" d="M60,82h9.5A3.5,3.5,0,0,0,73,78.5a4,4,0,0,0,0-.5H66A6.5,6.5,0,0,0,60,82Z"/><path class="cls-12" d="M103.8,109l-2.2-5.36c-1.71-4-6.22-6.64-11.29-6.64H78v25.2C87.34,119.79,96.8,115.21,103.8,109Z"/><path class="cls-12" d="M26.4,103.64,24.2,109A59.86,59.86,0,0,0,50,122.46V97H37.69C32.62,97,28.11,99.66,26.4,103.64Z"/><path class="cls-13" d="M78,95h5a3,3,0,0,1,3,3v9a8,8,0,0,1-8,8h0a0,0,0,0,1,0,0V95a0,0,0,0,1,0,0Z"/><path class="cls-14" d="M64,70H81a0,0,0,0,1,0,0v0a5,5,0,0,1-5,5H69a5,5,0,0,1-5-5v0A0,0,0,0,1,64,70Z"/><path class="cls-14" d="M47,70H64a0,0,0,0,1,0,0v0a5,5,0,0,1-5,5H52a5,5,0,0,1-5-5v0A0,0,0,0,1,47,70Z"/><path class="cls-12" d="M93,74l3.79-1.89A4,4,0,0,0,99,68.53V52.88a4,4,0,0,0-2.74-3.79L93,48Z"/><path class="cls-15" d="M64,72h0a3,3,0,0,1-3-3V50h6V69A3,3,0,0,1,64,72Z"/><path class="cls-12" d="M35,74l-3.79-1.89A4,4,0,0,1,29,68.53V52.88a4,4,0,0,1,2.74-3.79L35,48Z"/><path class="cls-14" d="M63.78,52.56a7.78,7.78,0,0,1,0-15.56"/><path class="cls-14" d="M70.44,57a7.78,7.78,0,0,1,0-15.56"/><path class="cls-13" d="M42,95h0a8,8,0,0,1,8,8v9a3,3,0,0,1-3,3H42a0,0,0,0,1,0,0V95A0,0,0,0,1,42,95Z" transform="translate(92 210) rotate(180)"/><path class="cls-13" d="M63.08,15.13c-16.49.49-29.4,14.45-29.4,30.95v30c0,.48,0,11,0,11.42.13,2.76,4.29,2.62,4.29-.15V55A10,10,0,0,1,48,45H80A10,10,0,0,1,90,55V87.32c0,2.77,4.16,2.91,4.29.15,0-.47,0-10.94,0-11.42V45.43A30.35,30.35,0,0,0,63.08,15.13Z"/><path class="cls-4" d="M87,35h7a2,2,0,0,1,2,2v2a2,2,0,0,1-2,2H87a0,0,0,0,1,0,0V35A0,0,0,0,1,87,35Z"/><path class="cls-5" d="M87,34h3a2,2,0,0,1,2,2v4a2,2,0,0,1-2,2H87a0,0,0,0,1,0,0V34A0,0,0,0,1,87,34Z"/><path class="cls-4" d="M34,35h7a0,0,0,0,1,0,0v6a0,0,0,0,1,0,0H34a2,2,0,0,1-2-2V37A2,2,0,0,1,34,35Z"/><path class="cls-5" d="M36,34h3a2,2,0,0,1,2,2v4a2,2,0,0,1-2,2H36a0,0,0,0,1,0,0V34A0,0,0,0,1,36,34Z" transform="translate(77 76) rotate(180)"/><rect class="cls-4" height="6" width="10" x="58" y="35"/><circle class="cls-3" cx="77" cy="39.28" r="11"/><circle class="cls-16" cx="77" cy="39.28" r="6.88"/><path class="cls-2" d="M77,32.4a5.49,5.49,0,0,0-.58,0L70.15,38.7c0,.19,0,.38,0,.58a6.9,6.9,0,0,0,1,3.6l9.46-9.45A6.85,6.85,0,0,0,77,32.4Z"/><path class="cls-2" d="M73.84,45.38l9.26-9.26A6.82,6.82,0,0,0,82,34.6l-9.71,9.71A7.31,7.31,0,0,0,73.84,45.38Z"/><circle class="cls-17" cx="77" cy="39.28" r="9.98"/><circle class="cls-3" cx="51" cy="39.28" r="11"/><circle class="cls-17" cx="51" cy="39.28" r="9.98"/><circle class="cls-16" cx="51" cy="39.28" r="6.88"/><path class="cls-2" d="M51,32.4a5.49,5.49,0,0,0-.58,0L44.15,38.7c0,.19,0,.38,0,.58a6.9,6.9,0,0,0,1,3.6l9.46-9.45A6.85,6.85,0,0,0,51,32.4Z"/><path class="cls-2" d="M47.84,45.38l9.26-9.26A6.82,6.82,0,0,0,56,34.6l-9.71,9.71A7.31,7.31,0,0,0,47.84,45.38Z"/></svg>