<?xml version="1.0" ?><!-- Uploaded to: SVG Repo, www.svgrepo.com, Generator: SVG Repo Mixer Tools -->
<svg width="800px" height="800px" viewBox="0 0 128 128" data-name="Layer 1" id="Layer_1" xmlns="http://www.w3.org/2000/svg"><defs><style>.cls-1{fill:#515570;}.cls-2{fill:#6b718e;}.cls-11,.cls-3,.cls-6{fill:#ffffff;}.cls-4{fill:#356cb6;opacity:0.1;}.cls-5{fill:#a7aece;}.cls-6{opacity:0.3;}.cls-7,.cls-8{fill:#393c54;}.cls-8{opacity:0.15;}.cls-9{fill:#f85565;}.cls-10{fill:none;stroke:#f85565;stroke-linecap:round;stroke-linejoin:round;stroke-width:2px;}.cls-11{opacity:0.2;}</style></defs><title/><circle class="cls-1" cx="64" cy="64" r="60"/><circle class="cls-2" cx="64" cy="64" r="48"/><path class="cls-3" d="M40.55,119.5A59.73,59.73,0,0,0,64,124.1a59.73,59.73,0,0,0,23.45-4.6L92,51H36Z"/><path class="cls-4" d="M84.56,51l-5.92,54.15A16.41,16.41,0,0,1,67.46,119a89.27,89.27,0,0,1-18.58,3.32A62.17,62.17,0,0,0,64,124.1a59.73,59.73,0,0,0,23.45-4.6L92,51Z"/><path class="cls-5" d="M84,32.67H45a3,3,0,0,0-2.76,1.81L38,44.33H91l-4.22-9.85A3,3,0,0,0,84,32.67Z"/><path class="cls-6" d="M84,32.67H45a3,3,0,0,0-2.76,1.81L38,44.33H91l-4.22-9.85A3,3,0,0,0,84,32.67Z"/><path class="cls-7" d="M64,94H81a0,0,0,0,1,0,0v0a5,5,0,0,1-5,5H69a5,5,0,0,1-5-5v0a0,0,0,0,1,0,0Z" transform="translate(27.44 -15.47) rotate(15)"/><path class="cls-7" d="M47,94H64a0,0,0,0,1,0,0v0a5,5,0,0,1-5,5H52a5,5,0,0,1-5-5v0A0,0,0,0,1,47,94Z" transform="translate(-23.07 17.66) rotate(-15)"/><rect class="cls-5" height="12" rx="2.06" width="66" x="31" y="41"/><path class="cls-8" d="M94.94,41h-9A2.06,2.06,0,0,1,88,43.06v7.88A2.06,2.06,0,0,1,85.94,53h9A2.06,2.06,0,0,0,97,50.94V43.06A2.06,2.06,0,0,0,94.94,41Z"/><path class="cls-9" d="M91.65,91.13l1.8-27a2,2,0,0,0-2-2.13H35.54a2,2,0,0,0-2,2.13l1.8,27a2,2,0,0,0,2,1.87H89.66A2,2,0,0,0,91.65,91.13Z"/><path class="cls-9" d="M91.65,91.13l1.8-27a2,2,0,0,0-2-2.13H35.54a2,2,0,0,0-2,2.13l1.8,27a2,2,0,0,0,2,1.87H89.66A2,2,0,0,0,91.65,91.13Z"/><path class="cls-8" d="M91.46,62h-8a2,2,0,0,1,2,2.13l-1.8,27a2,2,0,0,1-2,1.87h8a2,2,0,0,0,2-1.87l1.8-27A2,2,0,0,0,91.46,62Z"/><ellipse class="cls-3" cx="76.5" cy="80" rx="8.17" ry="4.61"/><ellipse class="cls-3" cx="51.5" cy="80" rx="8.17" ry="4.61"/><circle class="cls-1" cx="76.75" cy="78.8" r="3"/><circle class="cls-1" cx="51.25" cy="78.8" r="3"/><line class="cls-10" x1="59" x2="69" y1="104" y2="104"/><path class="cls-9" d="M100,65h10a0,0,0,0,1,0,0v0a7,7,0,0,1-7,7H93a0,0,0,0,1,0,0v0A7,7,0,0,1,100,65Z"/><path class="cls-9" d="M100,72h10a0,0,0,0,1,0,0v0a7,7,0,0,1-7,7H93a0,0,0,0,1,0,0v0A7,7,0,0,1,100,72Z" transform="translate(83.12 -49.66) rotate(45)"/><path class="cls-11" d="M100,72h10a0,0,0,0,1,0,0v0a7,7,0,0,1-7,7H93a0,0,0,0,1,0,0v0A7,7,0,0,1,100,72Z" transform="translate(83.12 -49.66) rotate(45)"/><path class="cls-6" d="M98,21.83H83.83a7.5,7.5,0,0,0-7.5,7.5H90.5a7.5,7.5,0,0,0,7.5-7.5Z"/><path class="cls-6" d="M94.77,12.49a7.5,7.5,0,0,0-4.44,6.84h13.72A60,60,0,0,0,94.77,12.49Z"/></svg>