<?xml version="1.0" ?><!-- Uploaded to: SVG Repo, www.svgrepo.com, Generator: SVG Repo Mixer Tools -->
<svg width="800px" height="800px" viewBox="0 0 128 128" data-name="Layer 1" id="Layer_1" xmlns="http://www.w3.org/2000/svg"><defs><style>.cls-1{fill:#ffd8c9;}.cls-2{fill:#ffffff;}.cls-2,.cls-6{opacity:0.3;}.cls-3{fill:#393c54;}.cls-4{fill:#eaa78f;}.cls-5{fill:#4bc190;}.cls-6{fill:#356cb6;}.cls-7{fill:#f7bda4;}.cls-10,.cls-12,.cls-14,.cls-19,.cls-8,.cls-9{fill:none;stroke-linecap:round;stroke-linejoin:round;}.cls-10,.cls-8{stroke:#eaa78f;}.cls-8{stroke-width:14px;}.cls-9{stroke:#515570;}.cls-12,.cls-19,.cls-9{stroke-width:2px;}.cls-11,.cls-9{opacity:0.5;}.cls-10{stroke-width:4px;}.cls-11,.cls-15,.cls-16{fill:#f85565;}.cls-12{stroke:#f85565;}.cls-13{fill:#f8dc25;}.cls-14{stroke:#393c54;}.cls-15{opacity:0.2;}.cls-17{fill:#f2bc0f;}.cls-18{fill:#ff8475;}.cls-19{stroke:#f8dc25;stroke-dasharray:0.1 3;}</style></defs><title/><circle class="cls-1" cx="64" cy="64" r="60"/><circle class="cls-2" cx="64" cy="64" r="48"/><path class="cls-3" d="M32.48,115.05h63c1.48-.92,2.93-1.89,4.33-2.93l-3-65.73A32.89,32.89,0,0,0,64,13.5h0A32.89,32.89,0,0,0,31.11,46.39l-3,65.73C29.55,113.16,31,114.13,32.48,115.05Z"/><circle class="cls-4" cx="89" cy="61" r="7"/><path class="cls-5" d="M64,124a59.67,59.67,0,0,0,34.69-11.06l-3.32-9.3A10,10,0,0,0,86,97H42.05a10,10,0,0,0-9.42,6.64l-3.32,9.3A59.67,59.67,0,0,0,64,124Z"/><path class="cls-6" d="M82,98.5a14.91,14.91,0,0,0-.08-1.5H46.08A14.91,14.91,0,0,0,46,98.5a18,18,0,0,0,36,0Z"/><path class="cls-7" d="M77,98.5a14.74,14.74,0,0,0-.09-1.5H51.09A14.74,14.74,0,0,0,51,98.5a13,13,0,0,0,26,0Z"/><line class="cls-8" x1="64" x2="64" y1="84.75" y2="98.5"/><circle class="cls-4" cx="39" cy="61" r="7"/><path class="cls-7" d="M64,91A25,25,0,0,1,39,66V49.52a25,25,0,1,1,50,0V66A25,25,0,0,1,64,91Z"/><path class="cls-9" d="M73,53l5.18-2.36a4.6,4.6,0,0,1,4.67.5L84,52"/><path class="cls-9" d="M55,53l-5.18-2.36a4.6,4.6,0,0,0-4.67.5L44,52"/><path class="cls-3" d="M35,54.64v-4.5C35,34.36,47.35,21,63.12,20.54A29,29,0,0,1,93,49.53v5.11S69.94,50.11,65,41.71a1.22,1.22,0,0,0-2,0C58.26,50.11,35,54.64,35,54.64Z"/><line class="cls-10" x1="64" x2="64" y1="63.75" y2="68.25"/><path class="cls-11" d="M69.15,78.94c0,2-2.3,3.16-5.15,3.16s-5.15-1.52-5.15-3.16c0-2.84,2.48-3.94,5.15-3.15C66.58,74.92,69.15,76.1,69.15,78.94Z"/><path class="cls-12" d="M58,77.87a16.83,16.83,0,0,0,12,0"/><path class="cls-13" d="M85.43,73.83a4.57,4.57,0,1,1,9.14,0"/><circle class="cls-13" cx="86.5" cy="76" r="1.17"/><circle class="cls-13" cx="90" cy="76" r="1.17"/><circle class="cls-13" cx="93.5" cy="76" r="1.17"/><path class="cls-13" d="M33.43,73.83a4.57,4.57,0,0,1,9.14,0"/><circle class="cls-13" cx="34.5" cy="76" r="1.17"/><circle class="cls-13" cx="38" cy="76" r="1.17"/><circle class="cls-13" cx="41.5" cy="76" r="1.17"/><circle class="cls-3" cx="76.25" cy="60.28" r="3"/><path class="cls-14" d="M70.75,61.37a6.61,6.61,0,0,1,11.5-1.31"/><circle class="cls-3" cx="51.75" cy="60.28" r="3"/><path class="cls-14" d="M57.25,61.37a6.61,6.61,0,0,0-11.5-1.31"/><ellipse class="cls-15" cx="51" cy="67" rx="5.08" ry="3"/><ellipse class="cls-15" cx="77" cy="67" rx="5.08" ry="3"/><circle class="cls-16" cx="64" cy="51" r="2.33"/><path class="cls-13" d="M66.8,45.2a2.8,2.8,0,0,1-5.6,0c0-1.55,1.25-5.2,2.8-5.2S66.8,43.65,66.8,45.2Z"/><circle class="cls-17" cx="64" cy="45" r="1.5"/><path class="cls-16" d="M86,97h-9L51.28,122.63a59.88,59.88,0,0,0,47.41-9.69l-3.32-9.3A10,10,0,0,0,86,97Z"/><path class="cls-18" d="M86,97h-9L51.28,122.63a58.81,58.81,0,0,0,10,1.3h0L88,97.22A9.9,9.9,0,0,0,86,97Z"/><path class="cls-18" d="M90.83,101.52l-4,1.16a.51.51,0,0,0-.22.86l2.84,2.84a.51.51,0,0,0,.85-.22l1.16-4A.51.51,0,0,0,90.83,101.52Z"/><path class="cls-18" d="M86.38,106l-4,1.16a.51.51,0,0,0-.22.85L85,110.83a.51.51,0,0,0,.86-.22l1.16-4A.51.51,0,0,0,86.38,106Z"/><path class="cls-18" d="M81.92,110.43l-4,1.16a.51.51,0,0,0-.22.86l2.84,2.84a.51.51,0,0,0,.85-.22l1.17-4A.52.52,0,0,0,81.92,110.43Z"/><path class="cls-18" d="M77.47,114.89l-4,1.16a.51.51,0,0,0-.22.85l2.84,2.84a.51.51,0,0,0,.86-.22l1.16-4A.51.51,0,0,0,77.47,114.89Z"/><path class="cls-18" d="M86,118.89l4-1.16a.51.51,0,0,0,.22-.85L87.42,114a.51.51,0,0,0-.85.22l-1.16,4A.5.5,0,0,0,86,118.89Z"/><path class="cls-18" d="M90.5,114.44l4-1.16a.52.52,0,0,0,.22-.86l-2.84-2.84a.52.52,0,0,0-.86.22l-1.16,4A.52.52,0,0,0,90.5,114.44Z"/><path class="cls-18" d="M95.85,105a.5.5,0,0,0-.37.36l-1.16,4A.5.5,0,0,0,95,110l2.43-.7Z"/><line class="cls-19" x1="64" x2="64" y1="16" y2="38"/><path class="cls-19" d="M68,41s14,5,28,5"/><path class="cls-19" d="M60,41s-14,5-28,5"/></svg>