<?xml version="1.0" ?><!-- Uploaded to: SVG Repo, www.svgrepo.com, Generator: SVG Repo Mixer Tools -->
<svg width="800px" height="800px" viewBox="0 0 128 128" data-name="Layer 1" id="Layer_1" xmlns="http://www.w3.org/2000/svg"><defs><style>.cls-1{fill:#f2bc0f;}.cls-2,.cls-6{fill:#ffffff;}.cls-2{opacity:0.3;}.cls-3{fill:#393c54;}.cls-4{fill:#fbc0aa;}.cls-10,.cls-12,.cls-14,.cls-5,.cls-8{fill:none;stroke-linecap:round;}.cls-5{stroke:#fba875;stroke-width:14px;}.cls-5,.cls-8{stroke-miterlimit:10;}.cls-7{fill:#ffd8c9;}.cls-8{stroke:#ffffff;stroke-width:4px;opacity:0.1;}.cls-9{fill:#515570;}.cls-10,.cls-12{stroke:#515570;}.cls-10,.cls-12,.cls-14{stroke-linejoin:round;}.cls-11,.cls-13{fill:#f85565;}.cls-11,.cls-12{opacity:0.2;}.cls-12,.cls-14{stroke-width:2px;}.cls-14{stroke:#f85565;}</style></defs><title/><circle class="cls-1" cx="64" cy="64" r="60"/><circle class="cls-2" cx="64" cy="64" r="48"/><path class="cls-3" d="M64,14.88h0a32,32,0,0,1,32,32V89.59a21.59,21.59,0,0,1-21.59,21.59H53.59A21.59,21.59,0,0,1,32,89.59V46.88a32,32,0,0,1,32-32Z"/><circle class="cls-4" cx="88" cy="60" r="7"/><path class="cls-3" d="M64,124a59.69,59.69,0,0,0,32.55-9.61l-3.18-10.75A10,10,0,0,0,84,97H44.05a10,10,0,0,0-9.42,6.64l-3.18,10.75A59.69,59.69,0,0,0,64,124Z"/><line class="cls-5" x1="64" x2="64" y1="88.75" y2="96.5"/><path class="cls-6" d="M71,90V86H57v4a7,7,0,0,1-7,7h0v8H78V97h0A7,7,0,0,1,71,90Z"/><circle class="cls-4" cx="40" cy="60" r="7"/><path class="cls-7" d="M64,90A25,25,0,0,1,39,65V47.52a25,25,0,1,1,50,0V65A25,25,0,0,1,64,90Z"/><path class="cls-3" d="M37,46a27,27,0,0,1,54,0Z"/><path class="cls-8" d="M45.49,33.07A21,21,0,0,1,64,22"/><circle class="cls-9" cx="76" cy="58.28" r="3"/><path class="cls-10" d="M70.5,59.37A6.61,6.61,0,0,1,82,58.06"/><path class="cls-4" d="M63.51,59.28,61.32,69.52A1,1,0,0,0,62,70.7a6.62,6.62,0,0,0,3.94,0,1,1,0,0,0,.71-1.18L64.49,59.27A.5.5,0,0,0,63.51,59.28Z"/><ellipse class="cls-11" cx="51" cy="66.54" rx="5.08" ry="3.54"/><ellipse class="cls-11" cx="77" cy="66.54" rx="5.08" ry="3.54"/><path class="cls-12" d="M72,52l5.18-2.36a4.6,4.6,0,0,1,4.67.5L83,51"/><circle class="cls-9" cx="51.5" cy="58.28" r="3"/><path class="cls-10" d="M57,59.37a6.62,6.62,0,0,0-11.51-1.31"/><path class="cls-12" d="M55.5,52l-5.18-2.36a4.62,4.62,0,0,0-4.68.5L44.5,51"/><rect class="cls-6" height="9" width="50" x="39" y="41"/><path class="cls-6" d="M93.37,103.64A10,10,0,0,0,84,97H44.05a10,10,0,0,0-9.42,6.64l-.1.34a38,38,0,0,0,58.94,0Z"/><line class="cls-12" x1="76.78" x2="67.17" y1="95.5" y2="107.88"/><line class="cls-12" x1="51.17" x2="60.78" y1="95.5" y2="107.88"/><polygon class="cls-13" points="68.59 106.06 65.53 106.06 65.53 103 62.47 103 62.47 106.06 59.41 106.06 59.41 109.12 62.47 109.12 62.47 116 65.53 116 65.53 109.12 68.59 109.12 68.59 106.06"/><line class="cls-14" x1="59" x2="69" y1="79" y2="79"/></svg>