<?xml version="1.0" ?><!-- Uploaded to: SVG Repo, www.svgrepo.com, Generator: SVG Repo Mixer Tools -->
<svg width="800px" height="800px" viewBox="0 0 128 128" data-name="Layer 1" id="Layer_1" xmlns="http://www.w3.org/2000/svg"><defs><style>.cls-1{fill:#ffd8c9;}.cls-2{fill:#ffffff;opacity:0.3;}.cls-3{fill:#393c54;}.cls-4{fill:#fbc0aa;}.cls-5{fill:#00adfe;}.cls-11,.cls-6{fill:#ff8475;}.cls-12,.cls-7{fill:#f85565;}.cls-13,.cls-14,.cls-15,.cls-8,.cls-9{fill:none;stroke-linecap:round;}.cls-8,.cls-9{stroke:#fbc0aa;}.cls-13,.cls-14,.cls-8,.cls-9{stroke-linejoin:round;}.cls-8{stroke-width:14px;}.cls-9{stroke-width:5px;}.cls-10{fill:#515570;}.cls-11,.cls-12{opacity:0.7;}.cls-13,.cls-14{stroke:#515570;}.cls-14{stroke-width:2px;opacity:0.2;}.cls-15{stroke:#f85565;stroke-miterlimit:10;}</style></defs><title/><circle class="cls-1" cx="64" cy="64" r="60"/><circle class="cls-2" cx="64" cy="64" r="48"/><path class="cls-3" d="M64,14h0A31,31,0,0,1,95,45V86.07A9.93,9.93,0,0,1,85.07,96H42.93A9.93,9.93,0,0,1,33,86.07V45A31,31,0,0,1,64,14Z"/><circle class="cls-4" cx="89" cy="60" r="7"/><path class="cls-5" d="M64,124a59.7,59.7,0,0,0,34.7-11.07l-3.33-10.29A10,10,0,0,0,86,96H42.05a10,10,0,0,0-9.42,6.64L29.3,112.93A59.7,59.7,0,0,0,64,124Z"/><path class="cls-6" d="M46.54,121.45a59.93,59.93,0,0,0,34.92,0L79,96H49Z"/><polygon class="cls-7" points="48.13 105 79.87 105 79.48 101 48.52 101 48.13 105"/><path class="cls-1" d="M76,96a12,12,0,0,1-24,0Z"/><line class="cls-8" x1="64" x2="64" y1="83" y2="95"/><circle class="cls-4" cx="39" cy="60" r="7"/><path class="cls-1" d="M64,90A25,25,0,0,1,39,65V48.52a25,25,0,1,1,50,0V65A25,25,0,0,1,64,90Z"/><line class="cls-9" x1="64" x2="64" y1="64.75" y2="71.25"/><path class="cls-10" d="M64.83,18.35A27.51,27.51,0,0,0,36.51,45.82v4.76a2,2,0,0,0,2,2h.58a1,1,0,0,0,.86-.49L44,45l2.48,4.13a1,1,0,0,0,1.71,0L50.67,45l2.47,4.13a1,1,0,0,0,1.72,0L57.33,45l2.48,4.13a1,1,0,0,0,1.71,0L64,45l2.48,4.13a1,1,0,0,0,1.71,0L70.67,45l2.47,4.13a1,1,0,0,0,1.72,0L77.33,45l2.48,4.13a1,1,0,0,0,1.71,0L84,45l4,7.09a1,1,0,0,0,.86.49h.58a2,2,0,0,0,2-2V46.4C91.49,31.45,79.78,18.79,64.83,18.35Z"/><polygon class="cls-7" points="47.35 113 80.64 113 80.26 109 47.74 109 47.35 113"/><polygon class="cls-7" points="46.58 121 81.42 121 81.03 117 46.97 117 46.58 121"/><path class="cls-11" d="M58.52,79.39c0-.84,11-.84,11,0,0,1.79-2.45,3.25-5.48,3.25S58.52,81.18,58.52,79.39Z"/><path class="cls-12" d="M69.48,79.29c0,.78-11,.78-11,0C58.52,77.5,61,76,64,76S69.48,77.5,69.48,79.29Z"/><circle class="cls-10" cx="76.25" cy="58.75" r="3"/><path class="cls-13" d="M70.75,59.84a6.61,6.61,0,0,1,11.5-1.31"/><path class="cls-14" d="M72.11,51.46l5.68-.4A4.62,4.62,0,0,1,82,53.16l.77,1.21"/><circle class="cls-10" cx="51.75" cy="58.75" r="3"/><path class="cls-13" d="M57.25,59.84a6.61,6.61,0,0,0-11.5-1.31"/><path class="cls-14" d="M55.89,51.45l-5.68-.39A4.59,4.59,0,0,0,46,53.17l-.77,1.21"/><path class="cls-15" d="M57.25,78.76A17.4,17.4,0,0,0,64,79.88a17.4,17.4,0,0,0,6.75-1.12"/></svg>