<?xml version="1.0" ?>
<!-- Uploaded to: SVG Repo, www.svgrepo.com, Generator: SVG Repo Mixer Tools -->
<svg width="800px" height="800px" viewBox="0 0 128 128" data-name="Layer 1" id="Layer_1" xmlns="http://www.w3.org/2000/svg">
<defs>
<style>.cls-1{fill:#00adfe;}.cls-2,.cls-6{fill:#ffffff;}.cls-2,.cls-4{opacity:0.3;}.cls-3{fill:#8f5653;}.cls-4{fill:#356cb6;}.cls-12,.cls-5{fill:#393c54;}.cls-14,.cls-5{opacity:0.5;}.cls-13,.cls-19,.cls-22,.cls-6,.cls-8{opacity:0.1;}.cls-10,.cls-11,.cls-13,.cls-14,.cls-16,.cls-18,.cls-19,.cls-20,.cls-21,.cls-22,.cls-23,.cls-7,.cls-8,.cls-9{fill:none;stroke-linecap:round;}.cls-11,.cls-18,.cls-20,.cls-21,.cls-23,.cls-7{stroke:#8f5653;}.cls-11,.cls-13,.cls-14,.cls-16,.cls-18,.cls-19,.cls-20,.cls-21,.cls-22,.cls-23,.cls-7,.cls-8{stroke-miterlimit:10;}.cls-7,.cls-8,.cls-9{stroke-width:18px;}.cls-13,.cls-14,.cls-19,.cls-22,.cls-8{stroke:#ffffff;}.cls-10,.cls-9{stroke:#7f3838;stroke-linejoin:round;}.cls-10,.cls-11{stroke-width:14px;}.cls-13{stroke-width:4px;}.cls-14,.cls-16{stroke-width:2px;}.cls-15{opacity:0.2;}.cls-16{stroke:#f8dc25;}.cls-17{fill:#7f3838;}.cls-18,.cls-19{stroke-width:10px;}.cls-20{stroke-width:8px;}.cls-21,.cls-22{stroke-width:6px;}.cls-23{stroke-width:5px;}</style>
</defs>
<title/>
<circle class="cls-1" cx="64" cy="64" r="60"/>
<circle class="cls-2" cx="64" cy="64" r="48"/>
<path class="cls-3" d="M64,4A60,60,0,0,0,12.82,32.68a55.32,55.32,0,0,0,102.36,0A60,60,0,0,0,64,4Z"/>
<path class="cls-4" d="M64,4A60,60,0,0,0,12.82,32.68a55.32,55.32,0,0,0,102.36,0A60,60,0,0,0,64,4Z"/>
<path class="cls-5" d="M44.37,7.29A60,60,0,0,0,35.8,11c5.35,33.28,16,56,28.2,56C55.34,67,47.87,42.6,44.37,7.29Z"/>
<path class="cls-5" d="M92.2,11a60,60,0,0,0-8.57-3.74C80.13,42.6,72.66,67,64,67,76.24,67,86.85,44.31,92.2,11Z"/>
<path class="cls-6" d="M64,48.78c-5.89,0-11-17.67-13.37-43.28a60.13,60.13,0,0,0-6,1.69C48.27,31.88,55.57,48.78,64,48.78Z"/>
<path class="cls-6" d="M77.37,5.5C75,31.11,69.89,48.78,64,48.78c8.43,0,15.73-16.9,19.35-41.59A60.13,60.13,0,0,0,77.37,5.5Z"/>
<line class="cls-7" x1="93.46" x2="106.63" y1="55.6" y2="37.41"/>
<line class="cls-8" x1="93.46" x2="106.63" y1="55.6" y2="37.41"/>
<line class="cls-9" x1="85.38" x2="93.46" y1="55.6" y2="55.6"/>
<path class="cls-3" d="M114.77,32a9,9,0,0,0-12.42,12.68L122.94,73c.1.14.21.26.32.39A61,61,0,0,0,124,64,59.74,59.74,0,0,0,114.77,32Z"/>
<line class="cls-7" x1="34.54" x2="21.37" y1="55.6" y2="37.41"/>
<line class="cls-8" x1="34.54" x2="21.37" y1="55.6" y2="37.41"/>
<line class="cls-9" x1="42.62" x2="34.54" y1="55.6" y2="55.6"/>
<path class="cls-3" d="M23.79,32.23A9,9,0,0,0,13.24,32,59.69,59.69,0,0,0,4,64a60.56,60.56,0,0,0,.62,8.57c.11-.14.24-.27.35-.41L25.56,44.83A9,9,0,0,0,23.79,32.23Z"/>
<line class="cls-10" x1="94.25" x2="100.41" y1="91.56" y2="64.37"/>
<line class="cls-11" x1="86.16" x2="94.25" y1="91.56" y2="91.56"/>
<line class="cls-11" x1="100.41" x2="110.58" y1="64.37" y2="77.99"/>
<line class="cls-10" x1="77.75" x2="86.16" y1="77.37" y2="91.56"/>
<line class="cls-10" x1="33.75" x2="27.59" y1="91.56" y2="64.37"/>
<line class="cls-11" x1="41.84" x2="33.75" y1="91.56" y2="91.56"/>
<line class="cls-11" x1="27.59" x2="17.42" y1="64.37" y2="77.99"/>
<line class="cls-10" x1="50.25" x2="41.84" y1="77.37" y2="91.56"/>
<path class="cls-3" d="M80.93,87.33H47.07a10,10,0,0,1-10-10.39l1.29-27.87a9.94,9.94,0,0,1,7.76-9.35,83.48,83.48,0,0,1,35.74,0,9.94,9.94,0,0,1,7.76,9.35l1.29,27.87A10,10,0,0,1,80.93,87.33Z"/>
<circle class="cls-12" cx="55.6" cy="53.35" r="7.4"/>
<path class="cls-13" d="M51.2,53.35A4.4,4.4,0,0,1,55.6,49"/>
<circle class="cls-12" cx="44.5" cy="47.35" r="3.75"/>
<path class="cls-14" d="M42.75,47.35A1.75,1.75,0,0,1,44.5,45.6"/>
<circle class="cls-12" cx="83.5" cy="47.35" r="3.75"/>
<path class="cls-14" d="M81.75,47.35A1.75,1.75,0,0,1,83.5,45.6"/>
<g class="cls-15">
<path class="cls-16" d="M49.16,61.51a10.4,10.4,0,0,1-4-8.16"/>
<path class="cls-16" d="M61.41,62a10.36,10.36,0,0,1-5.81,1.78"/>
<path class="cls-16" d="M44.5,54.1a6.67,6.67,0,0,1-4.29-1.55"/>
<path class="cls-16" d="M87.8,52.55a6.72,6.72,0,0,1-4.3,1.55"/>
<path class="cls-16" d="M72.4,63.75A10.42,10.42,0,0,1,64,59.47"/>
<path class="cls-16" d="M82.8,53.35a10.44,10.44,0,0,1-.81,4"/>
</g>
<circle class="cls-12" cx="72.4" cy="53.35" r="7.4"/>
<path class="cls-13" d="M68,53.35A4.4,4.4,0,0,1,72.4,49"/>
<path class="cls-14" d="M53.14,49.7A4.33,4.33,0,0,1,55.6,49"/>
<path class="cls-14" d="M69.94,49.7A4.36,4.36,0,0,1,72.4,49"/>
<rect class="cls-17" height="24" rx="4" width="16" x="66" y="73"/>
<rect class="cls-17" height="24" rx="4" width="16" x="46" y="73"/>
<line class="cls-18" x1="83.34" x2="80.34" y1="75.44" y2="84.44"/>
<line class="cls-19" x1="83.34" x2="80.34" y1="75.44" y2="84.44"/>
<line class="cls-20" x1="79.53" x2="78.14" y1="86.17" y2="92.83"/>
<line class="cls-21" x1="77.66" x2="78.01" y1="94.11" y2="100.89"/>
<line class="cls-22" x1="77.66" x2="78.01" y1="94.11" y2="100.89"/>
<line class="cls-21" x1="77.66" x2="78.01" y1="94.11" y2="100.89"/>
<line class="cls-22" x1="77.66" x2="78.01" y1="94.11" y2="100.89"/>
<line class="cls-23" x1="77.66" x2="78.91" y1="101.11" y2="105.85"/>
<line class="cls-18" x1="44.66" x2="47.66" y1="75.44" y2="84.44"/>
<line class="cls-19" x1="44.66" x2="47.66" y1="75.44" y2="84.44"/>
<line class="cls-20" x1="48.47" x2="49.86" y1="86.17" y2="92.83"/>
<line class="cls-21" x1="50.34" x2="49.99" y1="94.11" y2="100.89"/>
<line class="cls-22" x1="50.34" x2="49.99" y1="94.11" y2="100.89"/>
<line class="cls-21" x1="50.34" x2="49.99" y1="94.11" y2="100.89"/>
<line class="cls-22" x1="50.34" x2="49.99" y1="94.11" y2="100.89"/>
<line class="cls-23" x1="50.34" x2="49.09" y1="101.11" y2="105.85"/>
<path class="cls-3" d="M116.29,76.14a6,6,0,1,0-11.42,3.7l5.67,17.49a5.94,5.94,0,0,0,1.59,2.5,60.16,60.16,0,0,0,7.51-13.36Z"/>
<path class="cls-6" d="M116.29,76.14a6,6,0,1,0-11.42,3.7l5.67,17.49a5.94,5.94,0,0,0,1.59,2.5,60.16,60.16,0,0,0,7.51-13.36Z"/>
<path class="cls-3" d="M19.27,72.28a6,6,0,0,0-7.56,3.86L8.36,86.47a60.16,60.16,0,0,0,7.51,13.36,5.94,5.94,0,0,0,1.59-2.5l5.67-17.49A6,6,0,0,0,19.27,72.28Z"/>
<path class="cls-6" d="M19.27,72.28a6,6,0,0,0-7.56,3.86L8.36,86.47a60.16,60.16,0,0,0,7.51,13.36,5.94,5.94,0,0,0,1.59-2.5l5.67-17.49A6,6,0,0,0,19.27,72.28Z"/>
</svg>