<?xml version="1.0" ?><!-- Uploaded to: SVG Repo, www.svgrepo.com, Generator: SVG Repo Mixer Tools -->
<svg width="800px" height="800px" viewBox="0 0 128 128" data-name="Layer 1" id="Layer_1" xmlns="http://www.w3.org/2000/svg"><defs><style>.cls-1{fill:#a7aece;}.cls-13,.cls-2{fill:#515570;}.cls-2{opacity:0.2;}.cls-3{fill:#fba875;}.cls-4{fill:#ffbb94;}.cls-5,.cls-8{fill:#393c54;}.cls-12,.cls-14,.cls-6,.cls-7{fill:none;stroke-linecap:round;}.cls-12,.cls-6{stroke:#fba875;}.cls-12,.cls-6,.cls-7{stroke-miterlimit:10;}.cls-6{stroke-width:20px;}.cls-7{stroke:#4bc190;}.cls-14,.cls-7{stroke-width:3px;}.cls-8{opacity:0.15;}.cls-9{fill:#f85565;}.cls-10{fill:#356cb6;opacity:0.3;}.cls-11{fill:#ffffff;}.cls-12{stroke-width:4px;}.cls-14{stroke:#ffffff;stroke-linejoin:round;}</style></defs><title/><circle class="cls-1" cx="64" cy="64" r="60"/><circle class="cls-2" cx="64" cy="64" r="48"/><circle class="cls-3" cx="91.32" cy="62.43" r="7.93"/><path class="cls-4" d="M64,124a59.77,59.77,0,0,0,39.83-15.14l-2.23-5.22c-1.71-4-6.22-6.64-11.29-6.64H37.69c-5.07,0-9.58,2.66-11.29,6.64l-2.23,5.22A59.77,59.77,0,0,0,64,124Z"/><path class="cls-5" d="M36,117.05a59.88,59.88,0,0,0,56,0v-20a15.65,15.65,0,0,0-1.69-.1H37.69a15.65,15.65,0,0,0-1.69.1Z"/><path class="cls-4" d="M49,97v1a15,15,0,0,0,30,0V97Z"/><line class="cls-6" x1="64" x2="64" y1="84.75" y2="98.5"/><circle class="cls-3" cx="36.68" cy="62.43" r="7.93"/><path class="cls-4" d="M64,95.37A28.31,28.31,0,0,1,35.68,67.05V51.43a28.32,28.32,0,1,1,56.64,0V67.05A28.31,28.31,0,0,1,64,95.37Z"/><circle class="cls-5" cx="76.67" cy="61.28" r="3"/><circle class="cls-5" cx="49.67" cy="61.28" r="3"/><line class="cls-7" x1="74.39" x2="84" y1="56" y2="54.75"/><line class="cls-7" x1="53" x2="43.39" y1="56" y2="54.75"/><path class="cls-8" d="M92.28,50a28.32,28.32,0,0,0-55.39-6.73A33.89,33.89,0,0,0,35.68,52v.65l.07.08h.15A7,7,0,0,0,42,49.17l3.16-5.59a10.84,10.84,0,0,1,11.49-5.32,33.77,33.77,0,0,0,6.41.74h1.86a33.77,33.77,0,0,0,6.41-.74,10.84,10.84,0,0,1,11.49,5.32L86,49.17a7,7,0,0,0,6.11,3.58h.22V51.43C92.32,51,92.31,50.46,92.28,50Z"/><path class="cls-9" d="M73,15H55l3.18,19.07A5.9,5.9,0,0,0,64,39h0a5.9,5.9,0,0,0,5.82-4.93Z"/><path class="cls-10" d="M70,15,66.82,34.07a5.88,5.88,0,0,1-4.32,4.71A5.72,5.72,0,0,0,64,39a5.9,5.9,0,0,0,5.82-4.93L73,15Z"/><circle class="cls-9" cx="74.5" cy="28.5" r="1.5"/><circle class="cls-9" cx="72" cy="32" r="1"/><circle class="cls-9" cx="54" cy="28" r="1"/><path class="cls-5" d="M71.55,78a1,1,0,0,1,1,1.06,8.55,8.55,0,0,1-17,0,1,1,0,0,1,1-1.06Z"/><path class="cls-9" d="M64,86.66a8.51,8.51,0,0,0,6.29-2.79,9.06,9.06,0,0,0-12.58,0A8.51,8.51,0,0,0,64,86.66Z"/><path class="cls-11" d="M58,78a2,2,0,0,0,2,2h8a2,2,0,0,0,2-2Z"/><line class="cls-12" x1="64" x2="64" y1="65" y2="71"/><line class="cls-12" x1="67" x2="61" y1="72" y2="72"/><path class="cls-13" d="M84,97.5c0,.83-.9,1.5-2,1.5s-2-.67-2-1.5.9-4.5,2-4.5S84,96.67,84,97.5Z"/><path class="cls-13" d="M90,97.5c0,.83-.9,1.5-2,1.5s-2-.67-2-1.5.9-4.5,2-4.5S90,96.67,90,97.5Z"/><path class="cls-13" d="M44,97.5c0,.83.9,1.5,2,1.5s2-.67,2-1.5S47.1,93,46,93,44,96.67,44,97.5Z"/><path class="cls-13" d="M38,97.5c0,.83.9,1.5,2,1.5s2-.67,2-1.5S41.1,93,40,93,38,96.67,38,97.5Z"/><path class="cls-13" d="M84,105.5c0,.83-.9,1.5-2,1.5s-2-.67-2-1.5.9-4.5,2-4.5S84,104.67,84,105.5Z"/><path class="cls-13" d="M90,105.5c0,.83-.9,1.5-2,1.5s-2-.67-2-1.5.9-4.5,2-4.5S90,104.67,90,105.5Z"/><path class="cls-13" d="M44,105.5c0,.83.9,1.5,2,1.5s2-.67,2-1.5-.9-4.5-2-4.5S44,104.67,44,105.5Z"/><path class="cls-13" d="M38,105.5c0,.83.9,1.5,2,1.5s2-.67,2-1.5-.9-4.5-2-4.5S38,104.67,38,105.5Z"/><path class="cls-13" d="M84,114.5c0,.83-.9,1.5-2,1.5s-2-.67-2-1.5.9-4.5,2-4.5S84,113.67,84,114.5Z"/><path class="cls-13" d="M90,114.5c0,.83-.9,1.5-2,1.5s-2-.67-2-1.5.9-4.5,2-4.5S90,113.67,90,114.5Z"/><path class="cls-13" d="M44,114.5c0,.83.9,1.5,2,1.5s2-.67,2-1.5-.9-4.5-2-4.5S44,113.67,44,114.5Z"/><path class="cls-13" d="M38,114.5c0,.83.9,1.5,2,1.5s2-.67,2-1.5-.9-4.5-2-4.5S38,113.67,38,114.5Z"/><line class="cls-14" x1="32.5" x2="29" y1="58.5" y2="55"/><line class="cls-14" x1="94.5" x2="97.5" y1="57.5" y2="54.5"/><circle class="cls-11" cx="96.5" cy="61.5" r="1"/></svg>