<?xml version="1.0" ?><!-- Uploaded to: SVG Repo, www.svgrepo.com, Generator: SVG Repo Mixer Tools -->
<svg width="800px" height="800px" viewBox="0 0 128 128" data-name="Layer 1" id="Layer_1" xmlns="http://www.w3.org/2000/svg"><defs><style>.cls-1{fill:#ffd8c9;}.cls-18,.cls-2,.cls-7{fill:#ffffff;}.cls-2,.cls-5{opacity:0.3;}.cls-3{fill:#393c54;}.cls-15,.cls-4{fill:#f85565;}.cls-5{fill:#356cb6;}.cls-6{fill:#fbc0aa;}.cls-10,.cls-12,.cls-13,.cls-14,.cls-8,.cls-9{fill:none;stroke-linecap:round;stroke-linejoin:round;}.cls-8{stroke:#ffffff;}.cls-8,.cls-9{stroke-width:14px;}.cls-10,.cls-9{stroke:#fbc0aa;opacity:0.4;}.cls-10{stroke-width:5px;}.cls-11{fill:#515570;}.cls-12,.cls-13,.cls-14{stroke:#515570;}.cls-13,.cls-14{stroke-width:2px;}.cls-13,.cls-15,.cls-18{opacity:0.2;}.cls-16{fill:#f2bc0f;}.cls-17{fill:#f8dc25;}</style></defs><title/><circle class="cls-1" cx="64" cy="64" r="60"/><circle class="cls-2" cx="64" cy="64" r="48"/><path class="cls-3" d="M106,61.17c0,23.2-84,23.2-84,0a42,42,0,0,1,84,0Z"/><rect class="cls-4" height="10" width="30" x="49" y="95"/><rect class="cls-5" height="10" width="30" x="49" y="95"/><circle class="cls-6" cx="86" cy="64" r="7"/><path class="cls-7" d="M46.54,121.45a59.93,59.93,0,0,0,34.92,0L81,99H47Z"/><circle class="cls-3" cx="64" cy="29" r="21"/><line class="cls-8" x1="64" x2="64" y1="83" y2="98"/><line class="cls-9" x1="64" x2="64" y1="83" y2="98"/><circle class="cls-6" cx="42" cy="64" r="7"/><path class="cls-7" d="M64,94A25,25,0,0,1,39,69V52.52a25,25,0,1,1,50,0V69A25,25,0,0,1,64,94Z"/><line class="cls-10" x1="64" x2="64" y1="68.75" y2="73.25"/><circle class="cls-11" cx="76.25" cy="62.75" r="3"/><path class="cls-12" d="M70.75,63.84a6.61,6.61,0,0,1,11.5-1.31"/><path class="cls-13" d="M72.11,55.46l5.68-.4A4.62,4.62,0,0,1,82,57.16l.77,1.21"/><circle class="cls-11" cx="51.75" cy="62.75" r="3"/><path class="cls-12" d="M57.25,63.84a6.61,6.61,0,0,0-11.5-1.31"/><path class="cls-13" d="M55.89,55.45l-5.68-.39A4.59,4.59,0,0,0,46,57.17l-.77,1.21"/><path class="cls-4" d="M64,82.38a2.42,2.42,0,0,0-3.6.19,2.52,2.52,0,0,0,.26,3.34h0a4.71,4.71,0,0,0,6.68,0h0a2.52,2.52,0,0,0,.26-3.34A2.42,2.42,0,0,0,64,82.38Z"/><path class="cls-3" d="M39,60.74S43,35,64,47C85,35,89,59.75,89,59.75L95,45,83,30,64,22,43,29,32,47Z"/><path class="cls-12" d="M59.08,83.42a19.37,19.37,0,0,0,9.42,0"/><line class="cls-14" x1="94" x2="79.44" y1="19.17" y2="27"/><line class="cls-14" x1="97" x2="81.44" y1="24.17" y2="28"/><line class="cls-14" x1="32.44" x2="47" y1="19.17" y2="27"/><line class="cls-14" x1="29.44" x2="45" y1="24.17" y2="28"/><circle class="cls-15" cx="51" cy="74" r="5.08"/><circle class="cls-15" cx="77" cy="74" r="5.08"/><path class="cls-4" d="M64,124a59.74,59.74,0,0,0,33.6-10.28L78.88,95l-15,15L49,95,30.26,113.62A59.74,59.74,0,0,0,64,124Z"/><polygon class="cls-16" points="61.88 116.24 66.12 112 49 95 44.76 99.24 61.88 116.24"/><path class="cls-4" d="M43.48,24.52S51,19,64,19s20.52,5.52,20.52,5.52L85,29s-12-4-21-4-21,4-21,4Z"/><path class="cls-17" d="M58.62,123.75l24.5-24.51L78.88,95,51.25,122.63A61.45,61.45,0,0,0,58.62,123.75Z"/><circle class="cls-1" cx="44.15" cy="25.62" r="2.46"/><circle class="cls-1" cx="44.15" cy="30.54" r="2.46"/><circle class="cls-1" cx="41.7" cy="28.08" r="2.46"/><circle class="cls-1" cx="46.61" cy="28.08" r="2.46"/><circle class="cls-4" cx="44.15" cy="28.08" r="1.84"/><circle class="cls-1" cx="84" cy="25.54" r="2.46"/><circle class="cls-1" cx="84" cy="30.46" r="2.46"/><circle class="cls-1" cx="81.54" cy="28" r="2.46"/><circle class="cls-1" cx="86.46" cy="28" r="2.46"/><circle class="cls-4" cx="84" cy="28" r="1.84"/><circle class="cls-4" cx="80.25" cy="32" r="2"/><circle class="cls-4" cx="80.25" cy="36" r="2"/><circle class="cls-4" cx="78.25" cy="34" r="2"/><circle class="cls-4" cx="82.25" cy="34" r="2"/><circle class="cls-1" cx="80.25" cy="34" r="1.5"/><path class="cls-17" d="M38.06,30l-2,3.48a.5.5,0,0,0,.43.75h4a.5.5,0,0,0,.43-.75l-2-3.48A.5.5,0,0,0,38.06,30Z"/><path class="cls-17" d="M38.06,35l-2,3.48a.5.5,0,0,0,.43.75h4a.5.5,0,0,0,.43-.75l-2-3.48A.5.5,0,0,0,38.06,35Z"/><path class="cls-17" d="M38.06,40l-2,3.48a.5.5,0,0,0,.43.75h4a.5.5,0,0,0,.43-.75l-2-3.48A.5.5,0,0,0,38.06,40Z"/><path class="cls-17" d="M38.06,45l-2,3.48a.5.5,0,0,0,.43.75h4a.5.5,0,0,0,.43-.75l-2-3.48A.5.5,0,0,0,38.06,45Z"/><polygon class="cls-18" points="76.5 116.24 93.07 109.19 89 105.12 76.5 116.24"/><polygon class="cls-18" points="34.78 109.13 51.5 116.24 38.91 105.03 34.78 109.13"/></svg>