<?xml version="1.0" ?><!-- Uploaded to: SVG Repo, www.svgrepo.com, Generator: SVG Repo Mixer Tools -->
<svg width="800px" height="800px" viewBox="0 0 128 128" data-name="Layer 1" id="Layer_1" xmlns="http://www.w3.org/2000/svg"><defs><style>.cls-1,.cls-12{fill:#f85565;}.cls-15,.cls-2,.cls-7{fill:#ffffff;}.cls-2{opacity:0.2;}.cls-3{fill:#4bc190;}.cls-4,.cls-6{fill:#356cb6;}.cls-4{opacity:0.3;}.cls-5{fill:#fbc0aa;}.cls-10,.cls-11,.cls-16,.cls-8{fill:none;stroke-linecap:round;}.cls-11,.cls-8{stroke:#fbc0aa;}.cls-10,.cls-11,.cls-8{stroke-linejoin:round;}.cls-8{stroke-width:14px;}.cls-9{fill:#ffd8c9;}.cls-10,.cls-16{stroke:#515570;}.cls-10{stroke-width:1.89px;}.cls-10,.cls-15{opacity:0.4;}.cls-11{stroke-width:3px;}.cls-12{opacity:0.1;}.cls-13{fill:#393c54;}.cls-14{fill:#515570;}.cls-16{stroke-miterlimit:10;stroke-width:4px;}</style></defs><title/><circle class="cls-1" cx="64" cy="64" r="60"/><circle class="cls-2" cx="64" cy="64" r="48"/><path class="cls-3" d="M89,51.35l12.66,14.82A4,4,0,0,1,98.11,72H75.67l-4-23Z"/><path class="cls-4" d="M89,51.35l12.66,14.82A4,4,0,0,1,98.11,72H75.67l-4-23Z"/><circle class="cls-5" cx="89.84" cy="70.87" r="7.5"/><path class="cls-6" d="M64,124a59.75,59.75,0,0,0,37.53-13.2l-2-5.53C98,101.5,93.68,99,88.89,99H39.11c-4.79,0-9.07,2.51-10.68,6.28l-2,5.53A59.75,59.75,0,0,0,64,124Z"/><path class="cls-7" d="M74.26,101.86c0,5.66-4.6,9.25-10.26,9.25s-10.26-3.59-10.26-9.25,4.6-3.42,10.26-3.42S74.26,96.19,74.26,101.86Z"/><line class="cls-8" x1="64" x2="64" y1="88.88" y2="100.88"/><circle class="cls-5" cx="38.16" cy="70.87" r="7.5"/><path class="cls-9" d="M64,98A26.78,26.78,0,0,1,37.21,71.19V61.57a26.79,26.79,0,0,1,53.58,0v9.62A26.78,26.78,0,0,1,64,98Z"/><circle class="cls-3" cx="64" cy="27.38" r="4"/><circle class="cls-4" cx="64" cy="27.38" r="4"/><line class="cls-10" x1="74.12" x2="83.21" y1="64.84" y2="64.6"/><line class="cls-10" x1="53.88" x2="44.79" y1="64.84" y2="64.6"/><polyline class="cls-11" points="64 70 64 75 66.36 79.03 61.63 79.03"/><ellipse class="cls-12" cx="51.15" cy="78.72" rx="4.34" ry="2.82"/><ellipse class="cls-12" cx="76.85" cy="78.72" rx="4.34" ry="2.82"/><path class="cls-13" d="M71.55,84a1,1,0,0,1,.94,1.07,8.56,8.56,0,0,1-17,0A1,1,0,0,1,56.45,84Z"/><path class="cls-1" d="M59,90.91a8.52,8.52,0,0,0,10.08,0C68,89.16,66.17,89,64,89S60,89.16,59,90.91Z"/><rect class="cls-7" height="2" width="2" x="62" y="84"/><rect class="cls-7" height="2" width="2" x="65" y="84"/><circle class="cls-14" cx="76" cy="70.87" r="3"/><circle class="cls-14" cx="52" cy="70.87" r="3"/><path class="cls-13" d="M91.49,60.12V59.4c0-14.95-11.71-27.61-26.66-28A27.51,27.51,0,0,0,36.51,58.82v1.33a2,2,0,0,0,2,2h7.38a6.23,6.23,0,0,0,5.35-3l2.52-4.19s13,0,13,0c4.4,4.34,10,7.18,16.21,7.18h6.44A2,2,0,0,0,91.49,60.12Z"/><path class="cls-3" d="M90.92,57a2,2,0,0,0,2-2.15c-1.06-14.82-13-27-28-27.45-15.67-.47-28.68,12.13-29.8,27.46a2,2,0,0,0,2,2.14Z"/><path class="cls-15" d="M74,57c.56,0,1-1,1-2.15-.52-14.82-3.29-27-10.57-27.45C56.84,26.93,48.54,39.53,48,54.86,48,56,48.41,57,49,57Z"/><path class="cls-13" d="M70.67,52c0,5-18.07,5-18.07,0a9,9,0,0,1,18.07,0Z"/><path class="cls-16" d="M66.08,47.92a6,6,0,0,0-4.45-2H51.94"/><path class="cls-3" d="M48,52H75.5A2.5,2.5,0,0,1,78,54.5v0A2.5,2.5,0,0,1,75.5,57H48a1,1,0,0,1-1-1V53a1,1,0,0,1,1-1Z"/><path class="cls-4" d="M48,52H75.5A2.5,2.5,0,0,1,78,54.5v0A2.5,2.5,0,0,1,75.5,57H48a1,1,0,0,1-1-1V53a1,1,0,0,1,1-1Z"/><circle class="cls-13" cx="74.67" cy="54.5" r="1"/><circle class="cls-13" cx="70.67" cy="54.5" r="1"/><circle class="cls-13" cx="66.67" cy="54.5" r="1"/><circle class="cls-13" cx="62.67" cy="54.5" r="1"/><circle class="cls-13" cx="58.67" cy="54.5" r="1"/><circle class="cls-13" cx="54.67" cy="54.5" r="1"/></svg>