<?xml version="1.0" ?><!-- Uploaded to: SVG Repo, www.svgrepo.com, Generator: SVG Repo Mixer Tools -->
<svg width="800px" height="800px" viewBox="0 0 128 128" data-name="Layer 1" id="Layer_1" xmlns="http://www.w3.org/2000/svg"><defs><style>.cls-1{fill:#00adfe;}.cls-2{fill:#356cb6;opacity:0.3;}.cls-3{fill:#393c54;}.cls-4{fill:#fbc0aa;}.cls-13,.cls-5{fill:#f85565;}.cls-6{fill:#ffffff;}.cls-10,.cls-11,.cls-12,.cls-14,.cls-15,.cls-7{fill:none;stroke-linecap:round;}.cls-12,.cls-7{stroke:#fbc0aa;}.cls-11,.cls-12,.cls-14,.cls-15,.cls-7{stroke-linejoin:round;}.cls-7{stroke-width:14px;}.cls-8{fill:#ffd8c9;}.cls-9{fill:#515570;}.cls-10{stroke:#ffffff;stroke-miterlimit:10;stroke-width:4px;opacity:0.1;}.cls-11,.cls-15{stroke:#515570;}.cls-11,.cls-14,.cls-15{stroke-width:2px;}.cls-12{stroke-width:5px;}.cls-13{opacity:0.5;}.cls-14{stroke:#f85565;}.cls-15{opacity:0.2;}</style></defs><title/><circle class="cls-1" cx="64" cy="64" r="60"/><circle class="cls-2" cx="64" cy="64" r="48"/><path class="cls-3" d="M64,13.88h0a32,32,0,0,1,32,32v64.79a0,0,0,0,1,0,0H32a0,0,0,0,1,0,0V45.88a32,32,0,0,1,32-32Z"/><circle class="cls-4" cx="89" cy="61" r="7"/><path class="cls-5" d="M64,124a59.67,59.67,0,0,0,34.69-11.06l-3.32-9.3A10,10,0,0,0,86,97H42.05a10,10,0,0,0-9.42,6.64l-3.32,9.3A59.67,59.67,0,0,0,64,124Z"/><path class="cls-6" d="M73,98.25a9,9,0,0,1-18,0c0-5,4-3,9-3S73,93.28,73,98.25Z"/><line class="cls-7" x1="64" x2="64" y1="84.75" y2="98.5"/><circle class="cls-4" cx="39" cy="61" r="7"/><path class="cls-8" d="M64,91A25,25,0,0,1,39,66V49.52a25,25,0,1,1,50,0V66A25,25,0,0,1,64,91Z"/><path class="cls-9" d="M36.51,52.12V47.4c0-14.95,11.71-27.61,26.66-28A27.51,27.51,0,0,1,91.49,46.82v-.24a2,2,0,0,1-2,2H80.12a1.82,1.82,0,0,1-1.55-.87l-2.33-3.8a1.82,1.82,0,0,0-3.24.27L69.89,53a1.83,1.83,0,0,1-1.69,1.14H38.55A2,2,0,0,1,36.51,52.12Z"/><path class="cls-10" d="M44.22,38.85A21.67,21.67,0,0,1,63.35,25.34"/><circle class="cls-9" cx="74.67" cy="59.28" r="3"/><line class="cls-11" x1="55" x2="49" y1="60" y2="60"/><line class="cls-12" x1="63.35" x2="63.35" y1="63.75" y2="68.25"/><path class="cls-13" d="M69.15,78.94c0,2-2.3,3.16-5.15,3.16s-5.15-1.52-5.15-3.16c0-2.84,2.48-3.94,5.15-3.15C66.58,74.92,69.15,76.1,69.15,78.94Z"/><path class="cls-14" d="M58,77.87a16.83,16.83,0,0,0,12,0"/><line class="cls-15" x1="72.39" x2="81" y1="53" y2="53"/></svg>