<?xml version="1.0" ?><!-- Uploaded to: SVG Repo, www.svgrepo.com, Generator: SVG Repo Mixer Tools -->
<svg width="800px" height="800px" viewBox="0 0 128 128" data-name="Layer 1" id="Layer_1" xmlns="http://www.w3.org/2000/svg"><defs><style>.cls-1{fill:#ff8475;}.cls-14,.cls-17,.cls-2{fill:#f85565;}.cls-2,.cls-4{opacity:0.4;}.cls-3{fill:#7f3838;}.cls-4{fill:#393c54;}.cls-5{fill:#fbc0aa;}.cls-6{fill:#4bc190;}.cls-7{fill:#356cb6;opacity:0.3;}.cls-8{fill:#ffffff;}.cls-12,.cls-15,.cls-16,.cls-9{fill:none;stroke-linecap:round;}.cls-15,.cls-9{stroke:#fbc0aa;}.cls-15,.cls-16,.cls-9{stroke-linejoin:round;}.cls-9{stroke-width:14px;}.cls-10{fill:#ffd8c9;}.cls-11{fill:#bc5b57;}.cls-12{stroke:#ffffff;stroke-miterlimit:10;}.cls-12,.cls-16{stroke-width:2px;}.cls-12,.cls-14{opacity:0.1;}.cls-13{fill:#515570;}.cls-15{stroke-width:4px;}.cls-16{stroke:#515570;opacity:0.2;}</style></defs><title/><circle class="cls-1" cx="64" cy="64" r="60"/><circle class="cls-2" cx="64" cy="64" r="48"/><path class="cls-3" d="M64,14h0A32,32,0,0,1,96,46V87a6,6,0,0,1-6,6H38a6,6,0,0,1-6-6V46A32,32,0,0,1,64,14Z"/><path class="cls-4" d="M62.73,22h2.54A23.73,23.73,0,0,1,89,45.73V88.55A4.45,4.45,0,0,1,84.55,93H43.45A4.45,4.45,0,0,1,39,88.55V45.73A23.73,23.73,0,0,1,62.73,22Z"/><circle class="cls-5" cx="89" cy="65" r="7"/><path class="cls-6" d="M64,124a59.67,59.67,0,0,0,34.69-11.06l-3.32-9.3A10,10,0,0,0,86,97H42.05a10,10,0,0,0-9.42,6.64l-3.32,9.3A59.67,59.67,0,0,0,64,124Z"/><path class="cls-7" d="M45,110l5.55,2.92L48,121.84a60.14,60.14,0,0,0,9,1.74V96.5L44.62,106.75A2,2,0,0,0,45,110Z"/><path class="cls-7" d="M71,96.5v27.09a60.14,60.14,0,0,0,9-1.74l-2.54-8.93L83,110a2,2,0,0,0,.41-3.25Z"/><path class="cls-8" d="M57,123.68a58.54,58.54,0,0,0,14,0V98H57Z"/><line class="cls-9" x1="64" x2="64" y1="88.75" y2="98.5"/><circle class="cls-5" cx="39" cy="65" r="7"/><path class="cls-10" d="M64,91A25,25,0,0,1,39,66V49.52a25,25,0,1,1,50,0V66A25,25,0,0,1,64,91Z"/><path class="cls-11" d="M91.49,51.12V46.4c0-14.95-11.71-27.61-26.66-28A27.51,27.51,0,0,0,36.51,45.82v5.33a2,2,0,0,0,2,2h6.81a8,8,0,0,0,6.5-3.33l4.94-6.88h0a18.45,18.45,0,0,1,1.37,1.63A22.84,22.84,0,0,0,76,53.15H89.45A2,2,0,0,0,91.49,51.12Z"/><path class="cls-12" d="M62.76,36.94C67,45.68,73.47,47.15,78.85,47.15h5"/><path class="cls-12" d="M71,35c2.52,5.22,6.39,6.09,9.6,6.09h3"/><circle class="cls-13" cx="76" cy="62.28" r="3"/><circle class="cls-13" cx="52" cy="62.28" r="3"/><ellipse class="cls-14" cx="50.42" cy="69.67" rx="4.58" ry="2.98"/><ellipse class="cls-14" cx="77.58" cy="69.67" rx="4.58" ry="2.98"/><line class="cls-15" x1="64" x2="64" y1="67" y2="71"/><line class="cls-16" x1="55" x2="45.75" y1="56" y2="56"/><line class="cls-16" x1="82" x2="72.75" y1="56" y2="56"/><path class="cls-2" d="M64,84c5,0,7-3,7-3H57S59,84,64,84Z"/><path class="cls-17" d="M65.07,78.93l-.55.55a.73.73,0,0,1-1,0l-.55-.55c-1.14-1.14-2.93-.93-4.27.47L57,81H71l-1.66-1.6C68,78,66.21,77.79,65.07,78.93Z"/></svg>