<?xml version="1.0" ?><!-- Uploaded to: SVG Repo, www.svgrepo.com, Generator: SVG Repo Mixer Tools -->
<svg width="800px" height="800px" viewBox="0 0 128 128" data-name="Layer 1" id="Layer_1" xmlns="http://www.w3.org/2000/svg"><defs><style>.cls-1{fill:#ffd8c9;}.cls-15,.cls-16,.cls-17,.cls-2,.cls-5{fill:#ffffff;}.cls-2{opacity:0.3;}.cls-3{fill:#fbc0aa;}.cls-14,.cls-4,.cls-8,.cls-9{fill:none;}.cls-4,.cls-8{stroke:#fbc0aa;}.cls-4,.cls-8,.cls-9{stroke-linecap:round;stroke-linejoin:round;}.cls-4{stroke-width:12px;}.cls-6{fill:#00adfe;}.cls-12,.cls-7{fill:#f85565;}.cls-15,.cls-7{opacity:0.2;}.cls-8{stroke-width:4px;}.cls-9{stroke:#515570;}.cls-14,.cls-9{stroke-width:2px;}.cls-10{fill:#f2bc0f;}.cls-11{fill:#ff8475;}.cls-13{fill:#f8dc25;}.cls-14{stroke:#00adfe;stroke-miterlimit:10;}.cls-16{opacity:0.4;}.cls-17{opacity:0.6;}</style></defs><title/><circle class="cls-1" cx="64" cy="64" r="60"/><circle class="cls-2" cx="64" cy="64" r="48"/><circle class="cls-3" cx="85.98" cy="63.31" r="6.43"/><line class="cls-4" x1="63" x2="63" y1="76.75" y2="90.5"/><circle class="cls-5" cx="64" cy="21.78" r="9.25"/><circle class="cls-5" cx="81.14" cy="26.61" r="9.25"/><circle class="cls-5" cx="93.86" cy="38.97" r="9.25"/><circle class="cls-5" cx="46.86" cy="26.61" r="9.25"/><circle class="cls-5" cx="34.14" cy="38.97" r="9.25"/><circle class="cls-3" cx="40.02" cy="63.31" r="6.43"/><path class="cls-6" d="M64,21.78a37,37,0,0,0-37,37v52.47a59.93,59.93,0,0,0,74,0V58.76A37,37,0,0,0,64,21.78Z"/><path class="cls-5" d="M64,25.78a33,33,0,0,0-33,33v48.11a32.85,32.85,0,0,0,1,7.86,59.94,59.94,0,0,0,64,0,32.85,32.85,0,0,0,1-7.86V58.76A33,33,0,0,0,64,25.78Z"/><circle class="cls-3" cx="86.98" cy="63.31" r="6.15"/><circle class="cls-3" cx="41.02" cy="63.31" r="6.15"/><path class="cls-1" d="M64,87.84a23,23,0,0,1-23-23V58.76a23,23,0,0,1,46,0v6.11A23,23,0,0,1,64,87.84Z"/><circle class="cls-1" cx="53.01" cy="71.24" r="11.99"/><ellipse class="cls-7" cx="51.01" cy="73.63" rx="3.99" ry="2.38"/><circle class="cls-1" cx="74.99" cy="71.24" r="11.99"/><ellipse class="cls-7" cx="76.99" cy="73.63" rx="3.99" ry="2.38"/><line class="cls-8" x1="64" x2="64" y1="72" y2="73"/><path class="cls-9" d="M72,66a3,3,0,0,0,6,0"/><path class="cls-9" d="M50,66a3,3,0,0,0,6,0"/><circle class="cls-10" cx="60.5" cy="54" r="4.31"/><circle class="cls-10" cx="67.5" cy="56" r="4.31"/><circle class="cls-10" cx="71.5" cy="52" r="4.31"/><path class="cls-11" d="M85.42,45.81a175.44,175.44,0,0,0-42.84,0,2,2,0,0,0-1.76,1.77l-.53,4.82a2,2,0,0,0,2.3,2.19,144.94,144.94,0,0,1,42.82,0,2,2,0,0,0,2.3-2.19l-.53-4.82A2,2,0,0,0,85.42,45.81Z"/><path class="cls-12" d="M85.34,45.8a25,25,0,0,0-42.68,0A176.14,176.14,0,0,1,85.34,45.8Z"/><path class="cls-12" d="M72,81a4,4,0,0,0-6-3.46h0a3.86,3.86,0,0,1-4,0h0A4,4,0,1,0,58,84.45l0,0a11.92,11.92,0,0,0,12,0l0,0A4,4,0,0,0,72,81Z"/><circle class="cls-13" cx="64" cy="83" r="4"/><ellipse class="cls-14" cx="64" cy="88" rx="5" ry="4.83"/><path class="cls-6" d="M31,75V114.1a59.95,59.95,0,0,0,66,0v-1l-.6-.14C49.3,103,33.41,79.11,31,75Z"/><path class="cls-6" d="M31.6,113l-.6.14v1a59.95,59.95,0,0,0,66,0L97.2,75C94.79,79.11,78.7,103,31.6,113Z"/><path class="cls-15" d="M31,75V114.1a59.95,59.95,0,0,0,66,0v-1l-.6-.14C49.3,103,33.41,79.11,31,75Z"/><path class="cls-6" d="M61.58,123.94C40.89,113.27,32.68,100.86,31,98V114.1A59.64,59.64,0,0,0,61.58,123.94Z"/><path class="cls-6" d="M66.42,123.94A59.64,59.64,0,0,0,97,114.1V98C95.32,100.86,87.11,113.27,66.42,123.94Z"/><path class="cls-16" d="M66.42,123.94A59.64,59.64,0,0,0,97,114.1V98C95.32,100.86,87.11,113.27,66.42,123.94Z"/><path class="cls-6" d="M61.58,123.94C40.89,113.27,32.68,100.86,31,98V114.1A59.64,59.64,0,0,0,61.58,123.94Z"/><path class="cls-17" d="M61.58,123.94C40.89,113.27,32.68,100.86,31,98V114.1A59.64,59.64,0,0,0,61.58,123.94Z"/></svg>