<?xml version="1.0" encoding="utf-8"?>
<!-- Generator: Adobe Illustrator 26.1.0, SVG Export Plug-In . SVG Version: 6.00 Build 0)  -->
<svg version="1.1" id="Layer_1" xmlns="http://www.w3.org/2000/svg" xmlns:xlink="http://www.w3.org/1999/xlink" x="0px" y="0px"
	 viewBox="0 0 100 100" style="enable-background:new 0 0 100 100;" xml:space="preserve">
<style type="text/css">
	.st0{fill:#DD4E31;}
	.st1{fill:#A6A8AB;}
	.st2{fill:#8BC543;stroke:#006738;stroke-width:4.0569;stroke-miterlimit:10;}
	.st3{fill:#006738;}
	.st4{fill:#8BC543;}
	.st5{fill:#D0D2D3;}
	.st6{fill:#E6E6E7;}
	.st7{fill:#E2A540;}
	.st8{fill:#2B2B38;}
</style>
<g>
	<path class="st0" d="M92.13,51.83c0,23.27-18.86,42.13-42.13,42.13S7.87,75.1,7.87,51.83C7.87,28.56,26.73,9.7,50,9.7
		S92.13,28.56,92.13,51.83z"/>
	<g>
		<g>
			<path class="st1" d="M39.56,43.16l-10-12.85c0,0,0.23-2.33,6.68-2.11c6.45,0.23,15.8-1.52,21.84-1.66
				c6.99-0.16,13.92,1.15,13.92,1.15L61.56,43.16H39.56z"/>
		</g>
		<g>
			<path class="st2" d="M71.83,14.73c-6.31,10.85-12.45,21.83-15.88,33.43c-5.59-1.66-11.18-3.32-16.83-4.98
				c2.9-11.72,3.78-23.6,6.28-36.06C54.64,8.59,63.29,11.19,71.83,14.73z"/>
			<path class="st3" d="M54.96,21.28c5.01,1.43,7.55,5.71,5.83,9.26c-1.73,3.57-6.13,5.55-10.1,4.4c-3.96-1.16-6.77-5.15-6.17-8.99
				C45.13,22.13,49.95,19.88,54.96,21.28z"/>
			<path class="st3" d="M39.12,43.19c1.5,0.44,3,0.88,4.49,1.33c0.71-2.47-0.83-5.08-3.45-5.82C39.85,40.19,39.51,41.69,39.12,43.19
				z"/>
			<g>
				<g>
					<path class="st4" d="M50.99,26.09c-0.64-0.13-1.09,0.27-1.33,1.19c-0.25,0.93-0.08,1.47,0.49,1.63
						c0.35,0.09,0.64,0.02,0.88-0.23c0.25-0.25,0.59-0.8,1.07-1.64c0.47-0.84,1.02-1.4,1.65-1.68c0.63-0.28,1.35-0.31,2.14-0.07
						c0.93,0.27,1.52,0.82,1.76,1.63c0.24,0.81,0.18,1.63-0.15,2.48c-0.81,2.04-2.14,2.93-4.01,2.71c0.13-0.59,0.27-1.17,0.41-1.76
						c1,0.15,1.7-0.31,2.1-1.41c0.38-1.02,0.15-1.66-0.71-1.91c-0.38-0.11-0.7-0.07-0.97,0.13c-0.27,0.2-0.66,0.73-1.17,1.6
						c-0.51,0.87-1.03,1.45-1.58,1.74c-0.55,0.29-1.13,0.35-1.76,0.17c-0.67-0.19-1.18-0.62-1.53-1.28
						c-0.35-0.66-0.41-1.51-0.16-2.54c0.48-2.04,1.59-2.9,3.28-2.55C51.27,24.9,51.13,25.5,50.99,26.09z"/>
				</g>
				<path class="st4" d="M48.55,25.99c-0.13,0.56-0.27,1.11-0.4,1.67c-0.6-0.16-1.2-0.32-1.8-0.47c0.12-0.56,0.24-1.12,0.36-1.68
					C47.32,25.67,47.94,25.83,48.55,25.99z"/>
				<path class="st4" d="M59.27,29.06c-0.23,0.53-0.45,1.07-0.67,1.6c-0.59-0.18-1.17-0.35-1.75-0.52c0.2-0.54,0.41-1.08,0.62-1.62
					C58.07,28.69,58.67,28.87,59.27,29.06z"/>
			</g>
			<path class="st3" d="M55.68,48.09c0.45-1.48,0.94-2.95,1.46-4.42c-2.53-0.75-5.19,0.63-5.92,3.09
				C52.71,47.21,54.19,47.65,55.68,48.09z"/>
			<path class="st3" d="M71.42,14.56c-2.28-0.94-4.55-1.8-6.85-2.6c-1.11,2.51,0.88,5.45,4.48,6.79
				C69.85,17.35,70.64,15.96,71.42,14.56z"/>
			<path class="st3" d="M45.4,7.12c-0.3,1.6-0.59,3.18-0.86,4.75c3.81,0.69,7.32-0.7,8.11-3.35C50.27,7.98,47.85,7.51,45.4,7.12z"/>
			<path class="st3" d="M49.83,37.88c0.89,0.26,1.39,1.15,1.13,1.99c-0.26,0.84-1.16,1.31-2.02,1.06c-0.86-0.25-1.37-1.14-1.14-1.99
				C48.03,38.1,48.94,37.62,49.83,37.88z"/>
			<path class="st3" d="M57.07,15.12c1.23,0.35,1.94,1.35,1.6,2.21c-0.34,0.86-1.54,1.27-2.71,0.94c-1.16-0.33-1.9-1.29-1.63-2.17
				C54.62,15.22,55.84,14.77,57.07,15.12z"/>
		</g>
		<g>
			<path class="st2" d="M67.8,8.74c-4.68,11.64-9.19,23.39-10.93,35.37c-5.78-0.84-11.54-1.68-17.37-2.52
				C40.69,29.57,39.87,17.7,40.56,5C49.9,5.13,58.84,6.46,67.8,8.74z"/>
			<path class="st3" d="M52.04,17.64c5.16,0.7,8.29,4.57,7.1,8.33c-1.2,3.79-5.27,6.37-9.37,5.8c-4.08-0.58-7.44-4.13-7.39-8.01
				C42.44,19.89,46.88,16.97,52.04,17.64z"/>
			<path class="st3" d="M39.5,41.59c1.55,0.22,3.09,0.45,4.63,0.67c0.34-2.54-1.55-4.9-4.25-5.27C39.8,38.53,39.67,40.06,39.5,41.59
				z"/>
			<g>
				<g>
					<path class="st4" d="M48.8,22.97c-0.65-0.03-1.04,0.43-1.14,1.37c-0.11,0.95,0.13,1.46,0.72,1.54
						c0.36,0.05,0.64-0.07,0.84-0.36c0.21-0.28,0.47-0.87,0.82-1.77c0.35-0.9,0.81-1.53,1.39-1.9c0.58-0.37,1.29-0.5,2.11-0.38
						c0.96,0.14,1.63,0.6,1.98,1.36c0.36,0.76,0.42,1.59,0.21,2.47c-0.5,2.14-1.69,3.21-3.59,3.25c0.05-0.6,0.1-1.2,0.15-1.8
						c1.02,0.01,1.64-0.56,1.88-1.69c0.23-1.07-0.09-1.67-0.97-1.79c-0.39-0.05-0.7,0.03-0.94,0.27c-0.24,0.24-0.55,0.82-0.93,1.75
						c-0.38,0.93-0.82,1.58-1.32,1.95c-0.5,0.37-1.07,0.51-1.72,0.42c-0.69-0.09-1.26-0.44-1.7-1.05c-0.44-0.61-0.62-1.44-0.52-2.49
						c0.18-2.08,1.15-3.09,2.88-2.99C48.9,21.75,48.85,22.36,48.8,22.97z"/>
				</g>
				<path class="st4" d="M46.37,23.22c-0.05,0.57-0.11,1.14-0.16,1.71c-0.61-0.07-1.23-0.14-1.85-0.21
					c0.04-0.57,0.08-1.14,0.12-1.71C45.11,23.08,45.74,23.15,46.37,23.22z"/>
				<path class="st4" d="M57.42,24.72c-0.15,0.56-0.29,1.12-0.43,1.68c-0.6-0.09-1.21-0.18-1.81-0.27c0.13-0.56,0.25-1.12,0.39-1.69
					C56.18,24.53,56.8,24.62,57.42,24.72z"/>
			</g>
			<path class="st3" d="M56.59,44.07c0.24-1.53,0.51-3.06,0.81-4.58c-2.61-0.38-5.05,1.37-5.42,3.91
				C53.52,43.62,55.06,43.85,56.59,44.07z"/>
			<path class="st3" d="M67.37,8.64c-2.39-0.6-4.76-1.13-7.15-1.59c-0.74,2.65,1.65,5.27,5.41,6.08
				C66.21,11.62,66.8,10.13,67.37,8.64z"/>
			<path class="st3" d="M40.56,5c-0.07,1.62-0.13,3.23-0.18,4.83c3.87,0.14,7.15-1.74,7.55-4.48C45.49,5.15,43.03,5.03,40.56,5z"/>
			<path class="st3" d="M49.34,34.8c0.91,0.13,1.54,0.94,1.4,1.81c-0.13,0.86-0.96,1.46-1.85,1.34c-0.89-0.13-1.52-0.93-1.41-1.8
				C47.59,35.28,48.42,34.68,49.34,34.8z"/>
			<path class="st3" d="M53.25,11.24c1.27,0.17,2.11,1.06,1.9,1.96c-0.21,0.9-1.34,1.48-2.54,1.32c-1.19-0.16-2.06-1-1.92-1.91
				C50.83,11.69,51.98,11.07,53.25,11.24z"/>
		</g>
		<path class="st5" d="M39.56,43.16l-10-12.85c0,0,0.23-3.98,6.68-3.75c6.45,0.22,13.33,3,19.37,3.28
			c8.65,0.4,16.39-2.14,16.39-2.14L61.56,43.16H39.56z"/>
		<path class="st5" d="M74.26,66.78c-3.21-7.9-8.15-16.15-12.7-23.62h-22c-4.5,7.47-9.05,15.83-12.6,23.62
			c-7.59,16.63-3.26,22.1,5.64,26.03c6.61,2.91,29.41,2.91,36.02,0C77.53,88.89,79.77,80.33,74.26,66.78z"/>
		<path class="st6" d="M51.03,29.26c-4.81-0.91-9.91-2.53-14.78-2.7c-6.45-0.22-6.68,3.75-6.68,3.75l10,12.85h11.46V29.26z"/>
		<path class="st6" d="M51.03,43.16H39.56c-4.5,7.47-9.05,15.83-12.6,23.62c-7.59,16.63-3.26,22.1,5.64,26.03
			c3.36,1.48,10.93,2.21,18.42,2.18V43.16z"/>
		<g>
			<g>
				<path class="st7" d="M54.58,65.02c-0.13-1.58-1.59-2.38-4.38-2.39c-2.8-0.01-4.21,0.73-4.21,2.23c0,0.91,0.44,1.58,1.35,1.99
					c0.9,0.42,2.72,0.89,5.44,1.42c2.73,0.53,4.73,1.41,6,2.64c1.27,1.23,1.91,2.83,1.9,4.79c-0.01,2.29-1.04,4.06-3.09,5.3
					c-2.05,1.24-4.4,1.85-7.05,1.85c-6.39-0.02-10.02-2.48-10.9-7.38l5.29-0.41c0.38,2.57,2.27,3.86,5.65,3.87
					c3.17,0.01,4.76-1.06,4.77-3.21c0-0.95-0.38-1.66-1.15-2.13c-0.77-0.47-2.57-0.99-5.42-1.55c-2.84-0.57-4.89-1.42-6.15-2.56
					c-1.26-1.15-1.88-2.57-1.88-4.27c0.01-1.83,0.83-3.37,2.45-4.62c1.63-1.26,3.99-1.88,7.09-1.87c6.14,0.02,9.35,2.07,9.63,6.13
					L54.58,65.02z"/>
			</g>
			
				<rect x="48.24" y="54.41" transform="matrix(4.007832e-03 -1 1 4.007832e-03 -6.598 107.2263)" class="st7" width="4.58" height="5.04"/>
			
				<rect x="48.14" y="81.75" transform="matrix(3.680414e-03 -1 1 3.680414e-03 -34.0191 134.3955)" class="st7" width="4.58" height="5.04"/>
		</g>
		<path class="st8" d="M63.6,43.64c0,0.44-0.44,0.8-0.98,0.8H38.19c-0.54,0-0.98-0.35-0.98-0.8v-0.65c0-0.44,0.44-0.8,0.98-0.8
			h24.42c0.54,0,0.98,0.36,0.98,0.8V43.64z"/>
	</g>
</g>
</svg>
