<?xml version="1.0" encoding="utf-8"?>
<!-- Generator: Adobe Illustrator 26.1.0, SVG Export Plug-In . SVG Version: 6.00 Build 0)  -->
<svg version="1.1" id="Layer_1" xmlns="http://www.w3.org/2000/svg" xmlns:xlink="http://www.w3.org/1999/xlink" x="0px" y="0px"
	 viewBox="0 0 100 100" style="enable-background:new 0 0 100 100;" xml:space="preserve">
<style type="text/css">
	.st0{fill-rule:evenodd;clip-rule:evenodd;fill:#873834;}
	.st1{fill-rule:evenodd;clip-rule:evenodd;fill:#A35450;}
	.st2{fill-rule:evenodd;clip-rule:evenodd;fill:#C9928F;}
	.st3{fill-rule:evenodd;clip-rule:evenodd;fill:#76AA60;}
	.st4{fill-rule:evenodd;clip-rule:evenodd;fill:#90C67B;}
	.st5{fill:#90C67B;}
	.st6{fill-rule:evenodd;clip-rule:evenodd;fill:#FFD573;}
	.st7{fill-rule:evenodd;clip-rule:evenodd;fill:#F2A900;}
</style>
<g>
	<path class="st0" d="M24.3,19.7h51.4c6.6,0,11.9,5.4,11.9,11.9v25.7H12.4V31.7C12.4,25.1,17.7,19.7,24.3,19.7z"/>
	<path class="st0" d="M87.6,57.4v25.7c0,6.6-5.4,11.9-11.9,11.9H24.3c-6.6,0-11.9-5.4-11.9-11.9V57.4H87.6z"/>
	<path class="st1" d="M21.2,29.5h57.6c4.9,0,8.8,4,8.8,8.8v19.1H12.4V38.3C12.4,33.5,16.3,29.5,21.2,29.5z"/>
	<path class="st2" d="M87.6,57.4v19.1c0,4.9-4,8.8-8.8,8.8H21.2c-4.9,0-8.8-4-8.8-8.8V57.4H87.6z"/>
	<path class="st0" d="M22.9,33.1h54.2c4.2,0,7.6,3.5,7.6,7.7v16.6H15.3V40.8C15.3,36.6,18.7,33.1,22.9,33.1z"/>
	<path class="st1" d="M84.7,57.4v16.6c0,4.2-3.4,7.7-7.6,7.7H22.9c-4.2,0-7.6-3.5-7.6-7.7V57.4H84.7z"/>
	<g>
		<path class="st0" d="M40.8,5h18.4c3.9,0,7.2,3.2,7.2,7.2v13.3H63V16c0-2.8-2.3-5.1-5.1-5.1H42.1c-2.8,0-5.1,2.3-5.1,5.1v9.4h-3.3
			V12.2C33.6,8.2,36.9,5,40.8,5z"/>
		<path class="st1" d="M40.8,8.2h18.4c3.9,0,7.2,3.2,7.2,7.2v10.1h-4.9v-7.6c0-2.8-2.3-5.1-5.1-5.1H43.7c-2.8,0-5.1,2.3-5.1,5.1v7.6
			h-5V15.4C33.6,11.4,36.9,8.2,40.8,8.2z"/>
	</g>
	<g>
		<g>
			<rect x="41.5" y="48.5" class="st3" width="40.2" height="18.8"/>
			<rect x="43.8" y="50.8" class="st4" width="35.5" height="14.3"/>
			<path class="st3" d="M48.3,50.8c0,2.5-2,4.4-4.4,4.4v-4.4H48.3z"/>
			<path class="st3" d="M74.9,50.8c0,2.5,2,4.4,4.4,4.4v-4.4H74.9z"/>
			<path class="st3" d="M48.3,65.4c0-2.5-2-4.4-4.4-4.4v4.4H48.3z"/>
			<path class="st3" d="M74.9,65.4c0-2.5,2-4.4,4.4-4.4v4.4H74.9z"/>
			<path class="st3" d="M61.6,52.7c2.9,0,5.2,2.3,5.2,5.2c0,2.9-2.3,5.2-5.2,5.2s-5.2-2.3-5.2-5.2C56.4,55,58.7,52.7,61.6,52.7z"/>
		</g>
		<rect x="41.5" y="44.3" class="st3" width="40.2" height="4.2"/>
		<g>
			<rect x="41.5" y="48.3" class="st5" width="40.2" height="0.4"/>
			<rect x="41.5" y="47.2" class="st5" width="40.2" height="0.4"/>
			<rect x="41.5" y="46.1" class="st5" width="40.2" height="0.4"/>
			<rect x="41.5" y="45" class="st5" width="40.2" height="0.4"/>
		</g>
		<rect x="59.7" y="44.3" class="st6" width="3.7" height="23.1"/>
		<rect x="59.7" y="44.3" class="st7" width="3.7" height="4.2"/>
	</g>
	<g>
		<g>
			<rect x="19.3" y="58.7" class="st3" width="40.2" height="18.8"/>
			<rect x="21.7" y="61" class="st4" width="35.5" height="14.3"/>
			<path class="st3" d="M26.1,61c0,2.5-2,4.4-4.4,4.4V61H26.1z"/>
			<path class="st3" d="M52.7,61c0,2.5,2,4.4,4.4,4.4V61H52.7z"/>
			<path class="st3" d="M26.1,75.6c0-2.5-2-4.4-4.4-4.4v4.4H26.1z"/>
			<path class="st3" d="M52.7,75.6c0-2.5,2-4.4,4.4-4.4v4.4H52.7z"/>
			<path class="st3" d="M39.4,62.9c2.9,0,5.2,2.3,5.2,5.2c0,2.9-2.3,5.2-5.2,5.2c-2.9,0-5.2-2.3-5.2-5.2
				C34.2,65.2,36.5,62.9,39.4,62.9z"/>
		</g>
		<rect x="19.3" y="54.5" class="st3" width="40.2" height="4.2"/>
		<g>
			<rect x="19.3" y="58.5" class="st5" width="40.2" height="0.4"/>
			<rect x="19.3" y="57.4" class="st5" width="40.2" height="0.4"/>
			<rect x="19.3" y="56.3" class="st5" width="40.2" height="0.4"/>
			<rect x="19.3" y="55.3" class="st5" width="40.2" height="0.4"/>
		</g>
		<rect x="37.5" y="54.5" class="st6" width="3.7" height="23.1"/>
		<rect x="37.5" y="54.5" class="st7" width="3.7" height="4.2"/>
	</g>
</g>
</svg>
