<?xml version="1.0" encoding="utf-8"?>
<!-- Generator: Adobe Illustrator 26.1.0, SVG Export Plug-In . SVG Version: 6.00 Build 0)  -->
<svg version="1.1" id="Layer_1" xmlns="http://www.w3.org/2000/svg" xmlns:xlink="http://www.w3.org/1999/xlink" x="0px" y="0px"
	 viewBox="0 0 100 100" style="enable-background:new 0 0 100 100;" xml:space="preserve">
<style type="text/css">
	.st0{fill-rule:evenodd;clip-rule:evenodd;fill:#75AD5F;}
	.st1{fill-rule:evenodd;clip-rule:evenodd;fill:#90C67B;}
	.st2{fill-rule:evenodd;clip-rule:evenodd;fill:#FFD573;}
	.st3{fill:#FFFFFF;}
	.st4{fill:none;stroke:#FFD573;stroke-width:4.7999;stroke-linecap:round;stroke-linejoin:round;stroke-miterlimit:22.9256;}
</style>
<g>
	<path class="st0" d="M40.5,34.5c-0.2-1.7-1.6-6.6-5.5-13.7c-3.9-7.1-0.8-11.4,5.2-11.1c6,0.3,5.2-4.6,10-4.6c4.8,0,4.1,4.9,10,4.6
		c6-0.3,9.1,4.1,5.2,11.1c-3.9,7.1-5.3,12-5.5,13.7C58.5,49.5,41.9,49.5,40.5,34.5z"/>
	<path class="st0" d="M50,32c17.5,0,31.8,14.1,31.8,31.5C81.8,80.9,83.2,95,50,95c-33.2,0-31.8-14.1-31.8-31.5
		C18.2,46.1,32.5,32,50,32z"/>
	<path class="st1" d="M50,32c8.8,0,16.7,3.5,22.5,9.3c2,4.1,3.1,8.7,3.1,13.5c0,17.4,1.4,31.5-31.8,31.5c-12.1,0-19.6-1.9-24.2-5.1
		c-1.5-5-1.3-11.1-1.3-17.7C18.2,46.1,32.5,32,50,32z"/>
	<path class="st2" d="M37,26.9H63c1,0,1.8,0.8,1.8,1.8l0,0c0,1-0.8,1.8-1.8,1.8H37c-1,0-1.8-0.8-1.8-1.8l0,0
		C35.2,27.7,36,26.9,37,26.9z"/>
	<path class="st2" d="M37,30.5H63c1,0,1.8,0.8,1.8,1.8l0,0c0,1-0.8,1.8-1.8,1.8H37c-1,0-1.8-0.8-1.8-1.8l0,0
		C35.2,31.3,36,30.5,37,30.5z"/>
	<path class="st3" d="M53.4,46.8c1.4,0.4,2.7,1.1,3.6,2c1.3,1.3,2.2,3,2.6,5.1l-5.4,0.7c-0.1-0.8-0.4-1.4-0.8-1.9V46.8L53.4,46.8z
		 M53.4,60.1c2.5,0.8,4.2,1.9,5.2,3.1c1.2,1.5,1.9,3.4,1.9,5.7c0,2.6-0.8,4.8-2.3,6.5c-1.2,1.4-2.8,2.3-4.7,2.9v-5.1
		c0.3-0.2,0.6-0.5,0.8-0.7c0.7-0.8,1-1.7,1-2.8c0-1-0.3-1.8-0.8-2.5c-0.3-0.3-0.6-0.6-1-0.8V60.1z M48.5,73.6v-9
		c-0.5-0.1-0.9-0.3-1.4-0.5v-6.5c0.4,0.3,0.8,0.6,1.4,0.8v-7.4c-0.5,0.2-1,0.4-1.4,0.8v-5.2c0.4-0.1,0.9-0.2,1.4-0.2v-2.1h3.1v2.1
		c0.6,0.1,1.2,0.2,1.8,0.4v5.9c-0.4-0.7-1-1.2-1.8-1.5v8.4c0.6,0.2,1.2,0.4,1.8,0.6v6.2c-0.5-0.3-1.1-0.6-1.8-0.8v8.4
		c0.7-0.1,1.3-0.4,1.8-0.7v5.1c-0.6,0.2-1.2,0.3-1.8,0.4v4h-3.1v-3.9c-0.5-0.1-0.9-0.1-1.4-0.2v-5.9C47.5,73.1,48,73.4,48.5,73.6z
		 M47.1,64.2c-2.1-0.8-3.7-1.8-4.8-3.2c-1.3-1.6-2-3.6-2-5.9c0-2.3,0.7-4.3,2.2-5.9c1.2-1.3,2.7-2.1,4.5-2.5v5.2
		c-0.2,0.2-0.4,0.4-0.6,0.7c-0.5,0.7-0.7,1.5-0.7,2.3c0,0.8,0.2,1.5,0.7,2.1c0.2,0.3,0.4,0.5,0.7,0.8V64.2L47.1,64.2z M47.1,78.5
		c-1.9-0.4-3.4-1.3-4.7-2.5c-1.5-1.5-2.5-3.7-3-6.5l5.6-0.6c0.2,1.1,0.7,2.1,1.3,3c0.2,0.3,0.5,0.6,0.7,0.8V78.5z"/>
	<path class="st4" d="M60,32.7c4.8,5.7,7.2,12.7,5.1,23.6"/>
	<path class="st4" d="M60,32.7c6.7,3.4,11.6,8.9,14,19.8"/>
	<path class="st1" d="M36.2,23.1c-0.4-0.8-0.8-1.6-1.3-2.4c-3.9-7.1-0.8-11.4,5.2-11.1c6,0.3,5.2-4.6,10-4.6c4.8,0,4.1,4.9,10,4.6
		c1.2,0,2.2,0.1,3.1,0.4c-0.8,2.2-1.1,3.8-1.6,4.9C58.1,23.9,45.4,26.4,36.2,23.1z"/>
</g>
</svg>
