<?xml version="1.0" encoding="utf-8"?>
<!-- Generator: Adobe Illustrator 26.1.0, SVG Export Plug-In . SVG Version: 6.00 Build 0)  -->
<svg version="1.1" id="Layer_1" xmlns="http://www.w3.org/2000/svg" xmlns:xlink="http://www.w3.org/1999/xlink" x="0px" y="0px"
	 viewBox="0 0 100 100" style="enable-background:new 0 0 100 100;" xml:space="preserve">
<style type="text/css">
	.st0{fill:#F7BF6D;}
	.st1{opacity:0.2;fill:#230D07;}
	.st2{fill:#3F3A35;}
	.st3{fill:#966929;}
</style>
<g>
	<path class="st0" d="M16.1,66.5c0-22.2,15.2-40.1,33.9-40.1c18.7,0,33.9,18,33.9,40.1C83.9,88.7,68.7,95,50,95
		C31.3,95,16.1,88.7,16.1,66.5z"/>
	<path class="st1" d="M50,85.7c-17.4,0-31.7-5.4-33.7-24c-0.2,1.6-0.2,3.1-0.2,4.8C16.1,88.7,31.3,95,50,95
		c18.7,0,33.9-6.3,33.9-28.5c0-1.6-0.1-3.2-0.2-4.8C81.7,80.3,67.4,85.7,50,85.7z"/>
	<g>
		<g>
			<path class="st2" d="M55.4,53.1c0-3.1-2.4-4.8-5.3-4.8c-1.2,0-2.9,0.7-2.9,2.2c0,4.3,16.4,3.3,16.4,13c0,6.5-6.1,8.8-11,8.8
				c-0.5,0-1,0-1.5-0.1v2.7h-2.7v-3.3c-2-0.7-3.6-1.9-4.6-3.1l-0.5,3.2h-7.3V61.2H44c0,3.5,3.5,4.1,5.2,4.1c1.5,0,3.5-0.3,3.5-2.1
				c0-3.2-15.9-1.9-15.9-12.4c0-6.1,5.8-8.9,9.9-8.9c0.6,0,1.2,0,1.9,0.1V39h2.7v3.7c1.7,0.7,3.2,1.7,4.1,3.5l0.4-3.5h7.1v10.4H55.4
				z"/>
		</g>
	</g>
	<path class="st0" d="M63.4,6.3c-5.4-1.2-9.7,7.2-9.7,3c0-3.7-2.9-4.3-3.6-4.3v0c0,0,0,0-0.1,0C50,5,50,5,50,5v0
		c-0.6,0.1-3.6,0.6-3.6,4.3c0,4.2-4.3-4.2-9.7-3c-5.4,1.2,4.8,17.3,4.8,17.3H50h0.1h8.4C58.6,23.6,68.8,7.5,63.4,6.3z"/>
	<path class="st3" d="M59,25c0,1.5-1.3,2.8-2.8,2.8H44.1c-1.5,0-2.8-1.3-2.8-2.8l0,0c0-1.5,1.3-2.8,2.8-2.8h12.1
		C57.7,22.2,59,23.5,59,25L59,25z"/>
	<path class="st1" d="M56.2,26.4H44.1c-1.3,0-2.4-0.9-2.7-2.1c-0.1,0.2-0.1,0.5-0.1,0.7c0,1.5,1.3,2.8,2.8,2.8h12.1
		c1.5,0,2.8-1.3,2.8-2.8c0-0.2,0-0.5-0.1-0.7C58.6,25.5,57.5,26.4,56.2,26.4z"/>
</g>
</svg>
