<?xml version="1.0" encoding="utf-8"?>
<!-- Generator: Adobe Illustrator 26.1.0, SVG Export Plug-In . SVG Version: 6.00 Build 0)  -->
<svg version="1.1" id="Layer_1" xmlns="http://www.w3.org/2000/svg" xmlns:xlink="http://www.w3.org/1999/xlink" x="0px" y="0px"
	 viewBox="0 0 100 100" style="enable-background:new 0 0 100 100;" xml:space="preserve">
<style type="text/css">
	.st0{fill:#FDCE5E;}
	.st1{fill:#F2994F;}
	.st2{opacity:0.18;fill:#F2994F;}
	.st3{fill:#FFFFFF;}
</style>
<g>
	<path class="st0" d="M87.9,64c0-20.9-17-37.9-37.9-37.9c-20.9,0-37.9,17-37.9,37.9c0,20.9,17,31,37.9,31C70.9,95,87.9,84.9,87.9,64
		z"/>
	<rect x="41.3" y="20.7" class="st1" width="17.4" height="6.5"/>
	<path class="st0" d="M59,5c-0.9,0-1.8,0.6-2.5,1.5c-0.5,0.6-1.2,0.6-1.6-0.1C54.4,5.5,53.7,5,52.8,5c-0.8,0-1.6,0.5-2.2,1.3
		c-0.2,0.3-0.4,0.4-0.7,0.4c-0.2,0-0.5-0.2-0.7-0.4C48.6,5.5,47.9,5,47,5c-0.9,0-1.6,0.5-2.1,1.4c-0.4,0.7-1.1,0.7-1.6,0.1
		C42.6,5.6,41.7,5,40.9,5c-4.9,0.8-4.3,6.5-2.6,11.1c1.2,3.2,3.1,5.8,3.1,5.8h8.6h0h8.6c0,0,1.9-2.6,3.1-5.8
		C63.3,11.5,63.8,5.8,59,5z"/>
	<path class="st2" d="M43.7,13.3c-1.3-1.1-1.4-5.4-1.4-7.3c0.2,0.2,0.3,0.3,0.4,0.5c0.6,0.7,1.3,0.6,1.7-0.1
		c0.1-0.1,0.1-0.2,0.2-0.3C44.6,9.1,44.9,14.4,43.7,13.3z"/>
	<path class="st2" d="M56.1,13.3c-1.3,1.1-0.9-4.3-1-7.3c0.1,0.1,0.2,0.3,0.3,0.4c0.4,0.7,1.2,0.8,1.7,0.1c0.1-0.2,0.2-0.3,0.4-0.4
		C57.5,8,57.3,12.2,56.1,13.3z"/>
	<path class="st2" d="M51.5,5.4c0,4.1-0.7,9.5-1.6,9.5c-0.8,0-1.5-5.3-1.6-9.4c0.3,0.2,0.5,0.5,0.8,0.8c0.2,0.3,0.5,0.5,0.8,0.5
		c0.3,0,0.5-0.2,0.8-0.5C50.9,6,51.2,5.7,51.5,5.4z"/>
	<path class="st2" d="M43.7,13.3c-1.3-1.1-1.4-5.4-1.4-7.3c0.2,0.2,0.3,0.3,0.4,0.5c0.6,0.7,1.3,0.6,1.7-0.1
		c0.1-0.1,0.1-0.2,0.2-0.3C44.6,9.1,44.9,14.4,43.7,13.3z"/>
	<path class="st2" d="M51.5,5.4c0,4.1-0.7,9.5-1.6,9.5c-0.8,0-1.5-5.3-1.6-9.4c0.3,0.2,0.5,0.5,0.8,0.8c0.2,0.3,0.5,0.5,0.8,0.5
		c0.3,0,0.5-0.2,0.8-0.5C50.9,6,51.2,5.7,51.5,5.4z"/>
	<path class="st2" d="M56.1,13.3c-1.3,1.1-0.9-4.3-1-7.3c0.1,0.1,0.2,0.3,0.3,0.4c0.4,0.7,1.2,0.8,1.7,0.1c0.1-0.2,0.2-0.3,0.4-0.4
		C57.5,8,57.3,12.2,56.1,13.3z"/>
	<g>
		<path class="st3" d="M53.6,74.6V81H48v-6.5c-4-0.5-7.8-2.2-10.6-4.5l3-6c3,2.6,7.6,4.5,10.7,4.5c2.3,0,3.7-0.8,3.7-2.4
			c0-5-15.6-2-15.6-12.4c0-4.7,3.4-7.9,8.8-8.8v-6.2h5.6v6.2c3.5,0.4,6.7,1.6,9.2,3.2L60,54c-3.1-1.8-7.1-3.2-9.5-3.2
			c-1.9,0-3.1,0.7-3.1,2c0,4.9,15.6,2.1,15.6,12.7C62.9,70.8,58.9,73.8,53.6,74.6z"/>
	</g>
</g>
</svg>
