<?xml version="1.0" encoding="utf-8"?>
<!-- Generator: Adobe Illustrator 26.1.0, SVG Export Plug-In . SVG Version: 6.00 Build 0)  -->
<svg version="1.1" id="Layer_1" xmlns="http://www.w3.org/2000/svg" xmlns:xlink="http://www.w3.org/1999/xlink" x="0px" y="0px"
	 viewBox="0 0 100 100" style="enable-background:new 0 0 100 100;" xml:space="preserve">
<style type="text/css">
	.st0{fill:none;}
	.st1{fill:#CB9A2B;}
	.st2{fill:#FFD120;}
	.st3{fill:#BB7D2B;}
	.st4{fill:#FFE186;}
	.st5{fill:#946429;}
	.st6{fill:#FFFFFF;}
</style>
<g>
	<polygon class="st0" points="73.34,51.03 73.34,47.06 67.1,47.06 67.1,51.03 67.1,77.66 67.1,82.76 73.34,82.76 73.34,77.66 	"/>
	<polygon class="st0" points="31.98,51.03 31.98,47.06 26.88,47.06 26.88,51.03 26.88,77.66 26.88,82.76 31.98,82.76 31.98,77.66 	
		"/>
	<polygon class="st0" points="59.17,51.03 59.17,47.06 53.51,47.06 53.51,51.03 53.51,77.66 53.51,82.76 59.17,82.76 59.17,77.66 	
		"/>
	<polygon class="st0" points="46.14,51.03 46.14,47.06 39.91,47.06 39.91,51.03 39.91,77.66 39.91,82.76 46.14,82.76 46.14,77.66 	
		"/>
	<rect x="17.81" y="77.66" class="st1" width="9.06" height="5.1"/>
	<rect x="17.81" y="47.06" class="st1" width="9.06" height="3.97"/>
	<rect x="17.81" y="51.03" class="st2" width="9.06" height="26.63"/>
	<rect x="73.34" y="77.66" class="st1" width="7.93" height="5.1"/>
	<rect x="73.34" y="47.06" class="st1" width="7.93" height="3.97"/>
	<rect x="73.34" y="51.03" class="st2" width="7.93" height="26.63"/>
	<rect x="59.17" y="77.66" class="st1" width="7.93" height="5.1"/>
	<rect x="59.17" y="47.06" class="st1" width="7.93" height="3.97"/>
	<rect x="59.17" y="51.03" class="st2" width="7.93" height="26.63"/>
	<rect x="31.98" y="77.66" class="st1" width="7.93" height="5.1"/>
	<rect x="31.98" y="47.06" class="st1" width="7.93" height="3.97"/>
	<rect x="31.98" y="51.03" class="st2" width="7.93" height="26.63"/>
	<rect x="46.14" y="77.66" class="st1" width="7.37" height="5.1"/>
	<rect x="46.14" y="47.06" class="st1" width="7.37" height="3.97"/>
	<rect x="46.14" y="51.03" class="st2" width="7.37" height="26.63"/>
	<path class="st3" d="M31.98,47.06h7.93h6.23h7.37h5.67h7.93h6.23h7.93H90L50.76,9.88L10,47.06h7.81h9.06H31.98z M50.68,17.42
		l9.09,8.68h0.27l11.32,10.76h-0.27l3.78,3.4H25.56L50.68,17.42z"/>
	<polygon class="st4" points="71.09,36.86 29.74,36.86 41.5,26.1 59.77,26.1 50.68,17.42 25.56,40.26 74.87,40.26 	"/>
	<path class="st2" d="M43.92,32.46c0-0.2-0.05-0.4-0.16-0.5c-0.11-0.1-0.27-0.2-0.48-0.2h-0.54v1.13h0.54
		c0.21,0,0.37,0.03,0.48-0.07C43.86,32.73,43.92,32.66,43.92,32.46z"/>
	<polygon class="st2" points="47.91,30.53 47.34,32.33 48.46,32.33 	"/>
	<path class="st2" d="M29.74,36.86h41.35h0.27L60.04,26.1h-0.27H41.5L29.74,36.86z M55.77,29.5h1.13v1.48l1.69-1.48h1.23l-1.97,2.15
		l2.17,2.39h-1.32l-1.8-1.96v1.96h-1.13V29.5z M51.24,29.5h0.9l1.37,2.93V29.5h1.13v4.53h-1.19l-1.64-3.29v3.29h-0.57V29.5z
		 M47.28,29.5h1.26l1.51,4.53h-1.06l-0.26-1.13h-1.65l-0.26,1.13h-1.06L47.28,29.5z M41.61,29.5h1.58c0.57,0,0.98,0.01,1.23,0.2
		s0.38,0.45,0.38,0.87c0,0.22-0.05,0.39-0.14,0.54c-0.09,0.16-0.23,0.26-0.41,0.33c0.23,0.07,0.4,0.2,0.53,0.4
		c0.12,0.2,0.19,0.44,0.19,0.72c0,0.44-0.13,0.85-0.4,1.06c-0.27,0.22-0.67,0.41-1.22,0.41h-1.74V29.5z"/>
	<path class="st2" d="M43.62,30.96c0.09-0.08,0.13-0.2,0.13-0.36c0-0.16-0.04-0.28-0.13-0.36c-0.09-0.08-0.21-0.12-0.38-0.12h-0.58
		v0.96h0.58C43.41,31.08,43.53,31.04,43.62,30.96z"/>
	<polygon class="st5" points="83.53,82.76 81.27,82.76 73.34,82.76 67.1,82.76 59.17,82.76 53.51,82.76 46.14,82.76 39.91,82.76 
		31.98,82.76 26.88,82.76 17.81,82.76 15.55,82.76 15.55,85.59 83.53,85.59 	"/>
	<polygon class="st1" points="15.55,85.59 10.45,85.59 10.45,90.12 88.63,90.12 88.63,85.59 83.53,85.59 	"/>
	<path class="st6" d="M44.57,33.62c0.27-0.21,0.4-0.58,0.4-1.02c0-0.29-0.06-0.55-0.19-0.75c-0.12-0.2-0.3-0.34-0.53-0.42
		c0.18-0.08,0.31-0.2,0.41-0.35c0.09-0.15,0.14-0.35,0.14-0.57c0-0.42-0.13-0.64-0.38-0.83c-0.25-0.19-0.67-0.2-1.23-0.2h-1.58v4.53
		h1.74C43.9,34.03,44.3,33.84,44.57,33.62z M42.66,30.12h0.58c0.17,0,0.29,0.04,0.38,0.12c0.09,0.08,0.13,0.2,0.13,0.36
		c0,0.16-0.04,0.28-0.13,0.36c-0.09,0.08-0.21,0.12-0.38,0.12h-0.58V30.12z M42.74,32.9v-1.13h0.54c0.21,0,0.37,0.1,0.48,0.2
		c0.11,0.1,0.16,0.27,0.16,0.47c0,0.2-0.05,0.28-0.16,0.38c-0.11,0.1-0.27,0.08-0.48,0.08H42.74z"/>
	<path class="st6" d="M47.08,32.9h1.65l0.26,1.13h1.06l-1.51-4.53h-1.26l-1.51,4.53h1.06L47.08,32.9z M47.91,30.53l0.56,1.81h-1.12
		L47.91,30.53z"/>
	<polygon class="st6" points="51.81,30.75 53.45,34.03 54.64,34.03 54.64,29.5 53.51,29.5 53.51,32.43 52.14,29.5 51.24,29.5 
		51.24,34.03 51.81,34.03 	"/>
	<polygon class="st6" points="56.91,32.07 58.71,34.03 60.03,34.03 57.85,31.65 59.82,29.5 58.6,29.5 56.91,30.98 56.91,29.5 
		55.77,29.5 55.77,34.03 56.91,34.03 	"/>
</g>
</svg>
