<?xml version="1.0" ?>
<!-- Uploaded to: SVG Repo, www.svgrepo.com, Generator: SVG Repo Mixer Tools -->
<svg width="800px" height="800px" viewBox="0 0 24 24" xmlns="http://www.w3.org/2000/svg">
<defs>
<style>.cls-1{fill:#ffeabb;}.cls-1,.cls-2,.cls-7{fill-rule:evenodd;}.cls-2{fill:#f7bf75;}.cls-3{fill:#f94060;}.cls-4{fill:#6f73d5;}.cls-5{fill:#96ccee;}.cls-6{fill:#d62657;}.cls-7{fill:#f1734d;}</style>
</defs>
<g data-name="Bank Card" id="Bank_Card">
<path class="cls-1" d="M22,5.53a1,1,0,0,0-1-1H3a1,1,0,0,0-1,1V18.47a1,1,0,0,0,1,1H21a1,1,0,0,0,1-1Z"/>
<path class="cls-2" d="M22,5.53a1,1,0,0,0-1-1H19.58v15H21a1,1,0,0,0,1-1Z"/>
<rect class="cls-3" height="2.44" width="20" x="2" y="7.02"/>
<path class="cls-4" d="M7.79,15.34H11.1a1.2,1.2,0,1,1,0,2.4H7.79Z"/>
<path class="cls-5" d="M5.15,15.34H8.46a1.2,1.2,0,0,1,0,2.4H5.15a1.2,1.2,0,0,1,0-2.4"/>
<rect class="cls-6" height="2.44" width="2.42" x="19.58" y="7.02"/>
<path class="cls-7" d="M18.23,13.17v-.23a.51.51,0,0,1,.5-.5.5.5,0,0,1,.5.5v.23a1.42,1.42,0,0,1,.52.34,1.39,1.39,0,0,1,.31.45.5.5,0,0,1-.92.4.38.38,0,0,0-.09-.15.45.45,0,0,0-.76.32.44.44,0,0,0,.44.44,1.44,1.44,0,0,1,.5,2.79V18a.5.5,0,0,1-.5.5.5.5,0,0,1-.5-.5v-.23a1.58,1.58,0,0,1-.52-.33,1.41,1.41,0,0,1-.3-.46.5.5,0,0,1,.26-.65.51.51,0,0,1,.66.26.42.42,0,0,0,.09.14.44.44,0,1,0,.31-.75,1.45,1.45,0,0,1-.5-2.8Z"/>
</g>
</svg>