<?xml version="1.0" encoding="utf-8"?>
<!-- Uploaded to: SVG Repo, www.svgrepo.com, Generator: SVG Repo Mixer Tools -->
<svg width="800px" height="800px" viewBox="0 0 1024 1024" class="icon"  version="1.1" xmlns="http://www.w3.org/2000/svg"><path d="M617.1 671.2H148.2c-46.3 0-83.9-37.6-83.9-83.9v-307c0-46.3 37.6-83.9 83.9-83.9h468.9c46.3 0 83.9 37.6 83.9 83.9v306.9c0 46.4-37.5 84-83.9 84z" fill="#248CBE" /><path d="M64.3 302.3h636.8v96.1H64.3z" fill="#183351" /><path d="M304 531.8H128.3c-12.1 0-22-9.9-22-22s9.9-22 22-22H304c12.1 0 22 9.9 22 22s-9.9 22-22 22zM437.4 601.2H128.3c-12.1 0-22-9.9-22-22s9.9-22 22-22h309.1c12.1 0 22 9.9 22 22s-9.9 22-22 22z" fill="#FBFAEE" /><path d="M875.8 827.6H406.9c-46.3 0-83.9-37.6-83.9-83.9v-307c0-46.3 37.6-83.9 83.9-83.9h468.9c46.3 0 83.9 37.6 83.9 83.9v306.9c0 46.4-37.5 84-83.9 84z" fill="#F5DB6F" /><path d="M788.3 607.2H387c-12.1 0-22-9.9-22-22s9.9-22 22-22h401.3c12.1 0 22 9.9 22 22s-9.9 22-22 22z" fill="#AEB8C4" /><path d="M562.7 688.2H387c-12.1 0-22-9.9-22-22s9.9-22 22-22h175.8c12.1 0 22 9.9 22 22-0.1 12.1-10 22-22.1 22zM696.1 757.6H387c-12.1 0-22-9.9-22-22s9.9-22 22-22h309.1c12.1 0 22 9.9 22 22s-9.9 22-22 22z" fill="#FBFAEE" /><path d="M510.4 520.3H401.8c-20.3 0-36.8-16.5-36.8-36.8v-50.8c0-20.3 16.5-36.8 36.8-36.8h108.6c20.3 0 36.8 16.5 36.8 36.8v50.8c0 20.3-16.5 36.8-36.8 36.8z" fill="#F3C262" /><path d="M547.2 438.1h-34.3v-42.2H479v124.4h33.9v-47.7h34.3zM402.6 395.9v42.2H365v34.5h37.6v47.7h33.9V395.9z" fill="#F7A04D" /><path d="M959.7 577.8V484c-80.6-0.3-148.2-56.4-166.1-131.6h-95.5c19.2 127.2 129.2 225.1 261.6 225.4z" fill="#F7F9DD" /></svg>