<?xml version="1.0" encoding="iso-8859-1"?>
<!-- Uploaded to: SVG Repo, www.svgrepo.com, Generator: SVG Repo Mixer Tools -->
<svg height="800px" width="800px" version="1.1" id="Layer_1" xmlns="http://www.w3.org/2000/svg" xmlns:xlink="http://www.w3.org/1999/xlink" 
	 viewBox="0 0 512 512" xml:space="preserve">
<g>
	<path style="fill:#808080;" d="M121.53,405.099c-4.661,0-8.44-3.778-8.44-8.44v-70.898c0-4.662,3.779-8.44,8.44-8.44
		c4.661,0,8.44,3.778,8.44,8.44v70.898C129.969,401.321,126.191,405.099,121.53,405.099z"/>
	<path style="fill:#808080;" d="M121.53,190.171c-4.661,0-8.44-3.778-8.44-8.44v-70.898c0-4.662,3.779-8.44,8.44-8.44
		c4.661,0,8.44,3.778,8.44,8.44v70.898C129.969,186.394,126.191,190.171,121.53,190.171z"/>
	<path style="fill:#808080;" d="M257.586,405.099c-4.661,0-8.44-3.778-8.44-8.44V361.77c0-4.662,3.779-8.44,8.44-8.44
		c4.661,0,8.44,3.778,8.44,8.44v34.889C266.025,401.321,262.246,405.099,257.586,405.099z"/>
	<path style="fill:#808080;" d="M257.586,226.18c-4.661,0-8.44-3.778-8.44-8.44V110.834c0-4.662,3.779-8.44,8.44-8.44
		c4.661,0,8.44,3.778,8.44,8.44v106.907C266.025,222.403,262.246,226.18,257.586,226.18z"/>
	<path style="fill:#808080;" d="M393.641,405.099c-4.661,0-8.44-3.778-8.44-8.44V294.254c0-4.662,3.779-8.44,8.44-8.44
		s8.44,3.778,8.44,8.44v102.406C402.081,401.321,398.302,405.099,393.641,405.099z"/>
	<path style="fill:#808080;" d="M393.641,158.664c-4.661,0-8.44-3.778-8.44-8.44v-39.39c0-4.662,3.779-8.44,8.44-8.44
		s8.44,3.778,8.44,8.44v39.39C402.081,154.886,398.302,158.664,393.641,158.664z"/>
</g>
<path style="fill:#FFDB56;" d="M159.84,173.292H85.163c-4.661,0-8.44,3.778-8.44,8.44v144.03c0,4.662,3.779,8.44,8.44,8.44h74.678
	c4.661,0,8.44-3.778,8.44-8.44v-144.03C168.279,177.07,164.501,173.292,159.84,173.292z"/>
<path style="fill:#FBA806;" d="M159.84,173.292h-33.758v160.909h33.758c4.661,0,8.44-3.778,8.44-8.44v-144.03
	C168.279,177.07,164.501,173.292,159.84,173.292z"/>
<path style="fill:#808080;" d="M502.998,512H9.002c-4.661,0-8.44-3.778-8.44-8.44V8.44C0.563,3.778,4.341,0,9.002,0
	s8.44,3.778,8.44,8.44v486.681h485.556c4.661,0,8.44,3.778,8.44,8.44S507.659,512,502.998,512z"/>
<path style="fill:#F77935;" d="M295.897,209.301h-74.678c-4.661,0-8.44,3.778-8.44,8.44v144.03c0,4.662,3.779,8.44,8.44,8.44h74.678
	c4.661,0,8.44-3.778,8.44-8.44v-144.03C304.336,213.079,300.557,209.301,295.897,209.301z"/>
<path style="fill:#D9510D;" d="M295.897,209.301h-33.758V370.21h33.758c4.661,0,8.44-3.778,8.44-8.44v-144.03
	C304.336,213.079,300.557,209.301,295.897,209.301z"/>
<path style="fill:#894BA2;" d="M431.952,141.785h-74.678c-4.661,0-8.44,3.778-8.44,8.44v144.03c0,4.662,3.779,8.44,8.44,8.44h74.678
	c4.661,0,8.44-3.778,8.44-8.44v-144.03C440.392,145.562,436.613,141.785,431.952,141.785z"/>
<path style="fill:#763794;" d="M431.952,141.785h-33.758v160.909h33.758c4.661,0,8.44-3.778,8.44-8.44v-144.03
	C440.392,145.562,436.613,141.785,431.952,141.785z"/>
</svg>