<?xml version="1.0" encoding="iso-8859-1"?>
<!-- Uploaded to: SVG Repo, www.svgrepo.com, Generator: SVG Repo Mixer Tools -->
<svg height="800px" width="800px" version="1.1" id="Layer_1" xmlns="http://www.w3.org/2000/svg" xmlns:xlink="http://www.w3.org/1999/xlink" 
	 viewBox="0 0 512 512" xml:space="preserve">
<path style="fill:#30767A;" d="M202.991,224.558h-75.128c-9.18,0-16.623,7.443-16.623,16.623v254.196
	c0,9.18,7.443,16.623,16.623,16.623h75.128c9.18,0,16.623-7.443,16.623-16.623V241.18C219.613,232,212.171,224.558,202.991,224.558z
	"/>
<path style="fill:#FF9800;" d="M336.989,177.28h-75.128c-9.18,0-16.623,7.443-16.623,16.623v301.473
	c0,9.18,7.443,16.623,16.623,16.623h75.128c9.18,0,16.623-7.443,16.623-16.623V193.903
	C353.611,184.723,346.169,177.28,336.989,177.28z"/>
<path style="fill:#4EA4D9;" d="M470.987,294.252h-75.129c-9.18,0-16.623,7.443-16.623,16.623v184.501
	c0,9.18,7.443,16.623,16.623,16.623h75.129c9.18,0,16.623-7.443,16.623-16.623V310.875
	C487.609,301.695,480.167,294.252,470.987,294.252z"/>
<path style="fill:#F7DC4D;" d="M299.425,177.28h-37.564c-9.18,0-16.623,7.443-16.623,16.623v301.473
	c0,9.18,7.443,16.623,16.623,16.623h37.564V177.28z"/>
<path style="fill:#81BEE3;" d="M433.423,294.252h-37.564c-9.18,0-16.623,7.443-16.623,16.623v184.501
	c0,9.18,7.443,16.623,16.623,16.623h37.564V294.252z"/>
<path style="fill:#4AB6BF;" d="M165.427,224.558h-37.564c-9.18,0-16.623,7.443-16.623,16.623v254.196
	c0,9.18,7.443,16.623,16.623,16.623h37.564V224.558z"/>
<g>
	<path style="fill:#4EA4D9;" d="M18.84,87.556h51.539c9.18,0,16.623-7.443,16.623-16.623s-7.443-16.623-16.623-16.623H18.84
		c-9.18,0-16.623,7.443-16.623,16.623S9.659,87.556,18.84,87.556z"/>
	<path style="fill:#4EA4D9;" d="M70.379,121.467H18.84c-9.18,0-16.623,7.443-16.623,16.623s7.443,16.623,16.623,16.623h51.539
		c9.18,0,16.623-7.443,16.623-16.623C87.002,128.909,79.559,121.467,70.379,121.467z"/>
	<path style="fill:#4EA4D9;" d="M70.379,188.623H18.84c-9.18,0-16.623,7.443-16.623,16.623s7.443,16.623,16.623,16.623h51.539
		c9.18,0,16.623-7.443,16.623-16.623S79.559,188.623,70.379,188.623z"/>
	<path style="fill:#4EA4D9;" d="M70.379,255.778H18.84c-9.18,0-16.623,7.443-16.623,16.623s7.443,16.623,16.623,16.623h51.539
		c9.18,0,16.623-7.443,16.623-16.623S79.559,255.778,70.379,255.778z"/>
	<path style="fill:#4EA4D9;" d="M70.379,322.934H18.84c-9.18,0-16.623,7.443-16.623,16.623S9.659,356.18,18.84,356.18h51.539
		c9.18,0,16.623-7.443,16.623-16.623S79.559,322.934,70.379,322.934z"/>
	<path style="fill:#4EA4D9;" d="M70.379,390.09H18.84c-9.18,0-16.623,7.443-16.623,16.623c0,9.18,7.443,16.623,16.623,16.623h51.539
		c9.18,0,16.623-7.443,16.623-16.623C87.002,397.533,79.559,390.09,70.379,390.09z"/>
</g>
<path style="fill:#00558A;" d="M495.377,512H34.64c-19.1,0-34.64-15.54-34.64-34.641V16.623C0.001,7.443,7.443,0,16.623,0
	s16.623,7.443,16.623,16.623v460.737c0,0.769,0.625,1.395,1.394,1.395h460.737c9.18,0,16.623,7.443,16.623,16.623
	S504.557,512,495.377,512z"/>
</svg>