<?xml version="1.0" ?><!-- Uploaded to: SVG Repo, www.svgrepo.com, Generator: SVG Repo Mixer Tools -->
<svg width="800px" height="800px" viewBox="0 0 128 128" data-name="Layer 1" id="Layer_1" xmlns="http://www.w3.org/2000/svg"><defs><style>.cls-1{fill:#00adfe;}.cls-2,.cls-6{fill:#ffffff;}.cls-14,.cls-2{opacity:0.3;}.cls-3{fill:#393c54;}.cls-4{fill:#fba875;}.cls-5{fill:#b56b63;}.cls-10,.cls-11,.cls-13,.cls-14,.cls-7,.cls-9{fill:none;stroke-linecap:round;}.cls-10,.cls-7{stroke:#fba875;}.cls-10,.cls-11,.cls-13,.cls-7{stroke-miterlimit:10;}.cls-7{stroke-width:20px;}.cls-8{fill:#ffbb94;}.cls-9{stroke:#515570;opacity:0.4;}.cls-14,.cls-9{stroke-linejoin:round;stroke-width:2px;}.cls-10,.cls-11,.cls-13{stroke-width:4px;}.cls-11{stroke:#393c54;}.cls-12{fill:#515570;}.cls-13{stroke:#ffffff;}.cls-13,.cls-15{opacity:0.1;}.cls-14{stroke:#f85565;}.cls-15{fill:#f85565;}</style></defs><title/><circle class="cls-1" cx="64" cy="64" r="60"/><circle class="cls-2" cx="64" cy="64" r="48"/><path class="cls-3" d="M31.08,61.57V45.92a32.92,32.92,0,0,1,65.84,0V61.57Z"/><circle class="cls-4" cx="91.32" cy="60.43" r="7.93"/><path class="cls-5" d="M64,124.1a59.78,59.78,0,0,0,40-15.28l-2.39-5.68c-1.71-4-6.22-6.64-11.29-6.64H37.69c-5.07,0-9.58,2.66-11.29,6.64L24,108.82A59.78,59.78,0,0,0,64,124.1Z"/><path class="cls-6" d="M81.72,98.25a3.06,3.06,0,0,0-3.08-2.88H49.36a3.07,3.07,0,0,0-3.08,2.93c0,.11,0,.21,0,.32-.17,7.32,10.52,16.64,10.52,16.64L64,108.05l7.17,7.17s10.56-9,10.56-16.22C81.73,98.74,81.73,98.49,81.72,98.25Z"/><line class="cls-7" x1="64" x2="64" y1="84.75" y2="98.5"/><circle class="cls-4" cx="36.68" cy="60.43" r="7.93"/><path class="cls-8" d="M64,94.37A28.31,28.31,0,0,1,35.68,66.05V47.43a28.32,28.32,0,1,1,56.64,0V66.05A28.31,28.31,0,0,1,64,94.37Z"/><circle class="cls-3" cx="77.5" cy="59.28" r="3"/><circle class="cls-3" cx="50.5" cy="59.28" r="3"/><line class="cls-9" x1="74.69" x2="84.31" y1="53" y2="52.75"/><line class="cls-9" x1="53.31" x2="43.69" y1="53" y2="52.75"/><path class="cls-3" d="M92.32,64.81h-1.1A3.22,3.22,0,0,0,88,68h0a3.22,3.22,0,0,1-3.22,3.22H43.22A3.22,3.22,0,0,1,40,68h0a3.22,3.22,0,0,0-3.22-3.22h-1.1V82.28c0,15.43,12.1,28.47,27.52,28.9A28.32,28.32,0,0,0,92.32,82.87Z"/><path class="cls-6" d="M71.55,75a1,1,0,0,1,.94,1.07,8.56,8.56,0,0,1-17,0A1,1,0,0,1,56.45,75Z"/><line class="cls-10" x1="64" x2="64" y1="60.75" y2="67.25"/><line class="cls-10" x1="66.5" x2="61.5" y1="68" y2="68"/><line class="cls-11" x1="36" x2="36" y1="56" y2="36"/><line class="cls-11" x1="92" x2="92" y1="56" y2="35"/><path class="cls-12" d="M31,23.83A15.17,15.17,0,0,0,46.17,39H91.5a1,1,0,0,0,1-1.29A29.92,29.92,0,0,0,64,17H31Z"/><path class="cls-13" d="M70.5,33H47.73a10,10,0,0,1-10-10"/><line class="cls-14" x1="65" x2="67" y1="67" y2="67"/><ellipse class="cls-15" cx="50.42" cy="67.67" rx="4.58" ry="2.98"/><ellipse class="cls-15" cx="77.58" cy="67.67" rx="4.58" ry="2.98"/></svg>