<?xml version="1.0" encoding="utf-8"?>
<!-- Generator: Adobe Illustrator 26.1.0, SVG Export Plug-In . SVG Version: 6.00 Build 0)  -->
<svg version="1.1" id="Layer_1" xmlns="http://www.w3.org/2000/svg" xmlns:xlink="http://www.w3.org/1999/xlink" x="0px" y="0px"
	 viewBox="0 0 100 100" style="enable-background:new 0 0 100 100;" xml:space="preserve">
<style type="text/css">
	.st0{fill:#BC7C1D;}
	.st1{fill:#FF8700;}
	.st2{fill:#CD9A00;}
	.st3{fill:#FFD01F;}
	.st4{fill:#FFFFFF;}
</style>
<g>
	<g>
		<g>
			<polyline class="st0" points="10.44,38.08 10.44,77.02 80.54,77.02 80.54,38.08 10.44,38.08 			"/>
		</g>
		<g>
			<path class="st1" d="M85.85,22.5H20.15c0,0-10.15,0-10.15,16.69h71.08L85.85,22.5z"/>
		</g>
		<g>
			<defs>
				<path id="SVGID_1_" d="M80.14,77.5L90,71.53V32.86c0-6.73-1.63-12.11-5.24-9.83c-4.8,3.02-4.47,17.17-4.47,17.17L80.14,77.5z"/>
			</defs>
			<use xlink:href="#SVGID_1_"  style="overflow:visible;fill:#94632A;"/>
			<clipPath id="SVGID_00000016049749403924894330000016972812862953453729_">
				<use xlink:href="#SVGID_1_"  style="overflow:visible;"/>
			</clipPath>
		</g>
		<g>
			<defs>
				<path id="SVGID_00000040543577132606874760000003665590500534742405_" d="M89.88,32.86c0-6.73-1.56-12.11-5.18-9.83
					c-4.37,2.75-4.49,14.69-4.48,16.84C80.24,39.9,89.88,32.86,89.88,32.86z"/>
			</defs>
			<use xlink:href="#SVGID_00000040543577132606874760000003665590500534742405_"  style="overflow:visible;fill:#BF6500;"/>
			<clipPath id="SVGID_00000072270198897145540810000001961470330635815858_">
				<use xlink:href="#SVGID_00000040543577132606874760000003665590500534742405_"  style="overflow:visible;"/>
			</clipPath>
		</g>
		<g>
			<path class="st2" d="M45.93,30.43c-5.3,0-10.08,2.24-13.45,5.81c3.31-3.12,7.77-5.03,12.67-5.03c10.21,0,18.49,8.27,18.49,18.49
				c0,10.03-7.98,18.18-17.94,18.47c0.17,0,0.33,0.01,0.5,0.01c10.21,0,18.86-8.28,19.27-18.49C65.98,36.68,56.14,30.43,45.93,30.43
				z"/>
			<path class="st3" d="M63.63,49.69c0-10.21-8.27-18.49-18.49-18.49c-4.91,0-9.36,1.91-12.67,5.03c-3.58,3.37-5.81,8.15-5.81,13.45
				c0,10.21,8.28,18.49,18.48,18.49c0.18,0,0.36-0.01,0.54-0.01C55.65,67.88,63.63,59.72,63.63,49.69z"/>
		</g>
	</g>
	<g>
		<g>
			<path class="st4" d="M45.59,63.55h-2.18l-0.01-4.49c-1.13-0.05-2.21-0.19-3.25-0.42c-1.04-0.23-2.06-0.55-3.06-0.96v-3.91
				c1.02,0.59,2.06,1.04,3.12,1.35c1.05,0.31,2.12,0.49,3.21,0.53v-4.64l-0.45-0.09c-2.14-0.42-3.66-1.07-4.56-1.97
				c-0.9-0.9-1.35-2.18-1.35-3.86c0-1.78,0.55-3.17,1.64-4.17c1.09-1,2.66-1.54,4.7-1.63l0.01-3.45h2.18v3.39
				c0.9,0.08,1.79,0.2,2.69,0.37c0.9,0.17,1.79,0.39,2.69,0.66v3.79c-0.9-0.42-1.79-0.74-2.69-0.98c-0.9-0.23-1.79-0.37-2.69-0.42
				v4.28l0.42,0.09c2.28,0.4,3.88,1.06,4.79,1.99c0.91,0.93,1.37,2.31,1.37,4.13c0,1.83-0.55,3.24-1.63,4.22
				c-1.09,0.98-2.74,1.54-4.95,1.68V63.55z M43.42,46.58v-3.89c-0.64,0.04-1.15,0.23-1.53,0.57c-0.38,0.34-0.57,0.78-0.57,1.31
				c0,0.59,0.18,1.05,0.53,1.38C42.19,46.28,42.72,46.49,43.42,46.58z M45.59,51.45v4.15c0.78-0.01,1.36-0.18,1.75-0.51
				c0.39-0.33,0.58-0.82,0.58-1.48c0-0.68-0.18-1.18-0.54-1.51C47.03,51.76,46.43,51.55,45.59,51.45z"/>
		</g>
	</g>
</g>
</svg>
