<?xml version="1.0" ?>
<!-- Uploaded to: SVG Repo, www.svgrepo.com, Generator: SVG Repo Mixer Tools -->
<svg width="800px" height="800px" viewBox="0 0 128 128" data-name="Layer 1" id="Layer_1" xmlns="http://www.w3.org/2000/svg" xmlns:xlink="http://www.w3.org/1999/xlink">
<defs>
<style>.cls-1,.cls-17,.cls-18,.cls-19,.cls-20,.cls-21,.cls-7,.cls-9{fill:none;}.cls-2{fill:#4bc190;}.cls-3{fill:#356cb6;opacity:0.3;}.cls-4{fill:#393c54;}.cls-5{fill:#fba875;}.cls-6{fill:#ffbb94;}.cls-7{stroke:#fba875;stroke-miterlimit:10;stroke-width:14px;}.cls-17,.cls-18,.cls-19,.cls-20,.cls-21,.cls-7,.cls-9{stroke-linecap:round;}.cls-13,.cls-8{fill:#ffffff;}.cls-18,.cls-9{stroke:#515570;}.cls-17,.cls-18,.cls-19,.cls-20,.cls-21,.cls-9{stroke-linejoin:round;}.cls-9{stroke-width:1.89px;opacity:0.4;}.cls-10{fill:#f85565;}.cls-11{fill:#515570;}.cls-12{fill:#f8dc25;}.cls-13{opacity:0.5;}.cls-14{clip-path:url(#clip-path);}.cls-15{fill:#ff8475;}.cls-16{fill:#f2bc0f;}.cls-17{stroke:#eaa78f;stroke-width:4px;}.cls-18,.cls-19,.cls-20,.cls-21{stroke-width:2px;}.cls-19{stroke:#f85565;}.cls-20,.cls-21{stroke:#ffffff;}.cls-21{stroke-dasharray:0.1 3.04;}</style>
<clipPath id="clip-path">
<rect class="cls-1" height="10" rx="1.99" width="56" x="36" y="50.04"/>
</clipPath>
</defs>
<title/>
<circle class="cls-2" cx="64" cy="64" r="60"/>
<circle class="cls-3" cx="64" cy="64" r="48"/>
<path class="cls-4" d="M64.94,25A31.19,31.19,0,0,0,32.85,56.15V91A2.26,2.26,0,0,0,35,93.2l1.63,3.37a1.07,1.07,0,0,0,1.84,0l2-3.35h1.29l2,3.35a1.07,1.07,0,0,0,1.84,0l2-3.35H80.4l2,3.35a1.07,1.07,0,0,0,1.84,0l2-3.35h1.29l2,3.36a1.07,1.07,0,0,0,1.84,0L93,93.2a2.3,2.3,0,0,0,2.11-2.29V56.81C95.15,39.86,81.88,25.52,64.94,25Z"/>
<circle class="cls-5" cx="89.84" cy="70.87" r="7.5"/>
<path class="cls-6" d="M64,124a59.75,59.75,0,0,0,37.53-13.2l-2-5.53C98,101.5,93.68,99,88.89,99H39.11c-4.79,0-9.07,2.51-10.68,6.28l-2,5.53A59.75,59.75,0,0,0,64,124Z"/>
<line class="cls-7" x1="64" x2="64" y1="88.88" y2="100.88"/>
<circle class="cls-5" cx="38.16" cy="70.87" r="7.5"/>
<path class="cls-6" d="M64,98A26.78,26.78,0,0,1,37.21,71.19V61.57a26.79,26.79,0,0,1,53.58,0v9.62A26.78,26.78,0,0,1,64,98Z"/>
<path class="cls-8" d="M87,48.36,91.25,53l4.25-4.64V39.5l-2,.5,2-3.75V27.11a4.25,4.25,0,0,0-4.25-4.25h0A4.25,4.25,0,0,0,87,27.11V32l2.5,5L87,34.93Z"/>
<line class="cls-9" x1="91.5" x2="91.5" y1="31" y2="55"/>
<path class="cls-10" d="M91.25,22.86a4.25,4.25,0,0,1,4.25,4.25v2.25L91.25,34,87,29.36V27.11A4.25,4.25,0,0,1,91.25,22.86Z"/>
<path class="cls-11" d="M91,56.88v-.7c0-14.69-11.5-27.13-26.18-27.56A27,27,0,0,0,37,55.61v1.31a2,2,0,0,0,2,2H89A2,2,0,0,0,91,56.88Z"/>
<rect class="cls-12" height="10" rx="1.99" width="56" x="36" y="50"/>
<circle class="cls-13" cx="44.48" cy="55.04" r="1.77"/>
<circle class="cls-13" cx="54.48" cy="55.04" r="1.77"/>
<circle class="cls-13" cx="64.48" cy="55.04" r="1.77"/>
<circle class="cls-13" cx="74.48" cy="55.04" r="1.77"/>
<circle class="cls-13" cx="84.48" cy="55.04" r="1.77"/>
<g class="cls-14">
<polygon class="cls-15" points="94.11 60.03 89.14 55.1 84.18 60.03 79.21 55.1 74.25 60.03 69.29 55.1 64.32 60.03 59.36 55.1 54.39 60.03 49.43 55.1 44.46 60.03 39.5 55.1 35 60.03 35.42 65.7 93.07 64.14 94.11 60.03"/>
<polygon class="cls-16" points="29.59 50.13 34.55 55.07 39.52 50.13 44.48 55.07 49.45 50.13 54.41 55.07 59.38 50.13 64.34 55.07 69.3 50.13 74.27 55.07 79.23 50.13 84.2 55.07 88.7 50.13 93.67 55.1 98.41 50.36 97.34 44.7 75.59 40.7 53.92 40.37 29.59 47.2 29.59 50.13"/>
</g>
<path class="cls-9" d="M74.12,66.84c3.07-2.07,6.1-1.8,9.09-.24"/>
<path class="cls-9" d="M53.88,66.84a8.33,8.33,0,0,0-9.09-.24"/>
<line class="cls-17" x1="64" x2="64" y1="73" y2="80"/>
<path class="cls-4" d="M71.55,85a1,1,0,0,1,.94,1.07,8.56,8.56,0,0,1-17,0A1,1,0,0,1,56.45,85Z"/>
<path class="cls-10" d="M59,91.91a8.52,8.52,0,0,0,10.08,0C68,90.16,66.17,90,64,90S60,90.16,59,91.91Z"/>
<path class="cls-8" d="M58,85H70a0,0,0,0,1,0,0v0a2,2,0,0,1-2,2H60a2,2,0,0,1-2-2v0A0,0,0,0,1,58,85Z"/>
<path class="cls-18" d="M80,72.87a3,3,0,0,0-6,0"/>
<path class="cls-18" d="M54,72.87a3,3,0,0,0-6,0"/>
<line class="cls-19" x1="71" x2="78" y1="77" y2="77"/>
<line class="cls-19" x1="71" x2="78" y1="80" y2="80"/>
<line class="cls-19" x1="50" x2="57" y1="77" y2="77"/>
<line class="cls-19" x1="50" x2="57" y1="80" y2="80"/>
<path class="cls-20" d="M79,99v0"/>
<path class="cls-21" d="M78.68,102.07a15,15,0,0,1-29.6-1.5"/>
<path class="cls-20" d="M49,99.05v0"/>
<line class="cls-20" x1="65.63" x2="66.5" y1="114" y2="120"/>
<line class="cls-20" x1="62.44" x2="61.81" y1="114" y2="120"/>
<line class="cls-20" x1="68.52" x2="69.75" y1="113.31" y2="117"/>
<line class="cls-20" x1="59.48" x2="58.06" y1="113.31" y2="116.56"/>
</svg>