<?xml version="1.0" encoding="utf-8"?>
<!-- Generator: Adobe Illustrator 26.1.0, SVG Export Plug-In . SVG Version: 6.00 Build 0)  -->
<svg version="1.1" id="Layer_1" xmlns="http://www.w3.org/2000/svg" xmlns:xlink="http://www.w3.org/1999/xlink" x="0px" y="0px"
	 viewBox="0 0 100 100" style="enable-background:new 0 0 100 100;" xml:space="preserve">
<style type="text/css">
	.st0{fill:none;}
	.st1{fill:#946429;}
	.st2{fill:#849E3C;}
	.st3{fill:#FFD120;}
	.st4{fill:#EABD1E;}
	.st5{fill:#FFFFFF;}
</style>
<g>
	<path class="st0" d="M58.09,22.56H40.75c-1.82,0-3.3,1.48-3.3,3.3v0.79h23.94v-0.79C61.39,24.04,59.91,22.56,58.09,22.56z"/>
	<path class="st1" d="M37.45,25.86c0-1.82,1.48-3.3,3.3-3.3h17.34c1.82,0,3.3,1.48,3.3,3.3v0.79h4.09v-0.79
		c0-4.07-3.31-7.39-7.39-7.39H40.75c-4.07,0-7.39,3.31-7.39,7.39v0.79h4.09V25.86z"/>
	<path class="st2" d="M84.66,26.64H65.47h-4.09H37.45h-4.09H15.35c-2.95,0-5.34,2.39-5.34,5.34v7.19c0.29,0.02,0.59,0.04,0.88,0.04
		c6.22,0,11.41-5.32,11.41-11.58c0-0.3-0.02-0.41-0.04-1h55.6c-0.02,0.58-0.04,0.7-0.04,1c0,6.28,5.35,11.57,11.6,11.57
		c0.15,0,0.01,0.05,0.59,0.04v30.63c-6.42,0-11.84,5.23-11.84,11.65H22.47c0.02-0.58,0.04-0.61,0.04-0.91
		c0-6.38-5.29-11.7-11.63-11.7c-0.3,0-0.59,0.01-0.88,0.03v7.24c0,2.95,2.39,5.34,5.34,5.34h69.31c2.95,0,5.34-2.39,5.34-5.34v-44.2
		C90,29.04,87.61,26.64,84.66,26.64z"/>
	<path class="st3" d="M22.51,80.62c0,0.3-0.02,0.33-0.04,0.91h55.69c0-6.42,5.42-11.65,11.84-11.65V39.25
		c-0.58,0.01-0.44,0.01-0.59,0.01c-6.24,0-11.53-5.34-11.53-11.63c0-0.3-0.06-0.41-0.03-1h-55.6c0.02,0.58,0.04,0.7,0.04,1
		c0,6.26-5.19,11.39-11.41,11.39c-0.3,0-0.59,0.46-0.88-0.12c0,0,0,0,0,0v29.78c0,0,0,0,0,0c0.29,0,0.59,0.1,0.88,0.1
		C17.22,68.79,22.51,74.25,22.51,80.62z M48.36,39.42l0.01-1.68h2.51v1.55c12.26,0.41,21.5,6.91,21.5,14.87
		c0,7.96-9.24,14.46-21.5,14.87v2.58h-2.51l-0.01-2.64c-11.85-0.5-21.23-6.88-21.23-14.78C27.13,46.3,36.51,39.92,48.36,39.42z"/>
	<path class="st4" d="M50.88,61.89c1.17-0.01,1.77-0.22,2.25-0.63c0.48-0.4,0.76-1.01,0.76-1.82c0-0.83-0.29-1.46-0.73-1.87
		c-0.44-0.41-1.11-0.68-2.28-0.8V61.89z"/>
	<path class="st4" d="M54.38,42.15c1.1,0.21,2.34,0.48,3.5,0.81v4.68c-1.17-0.52-2.4-0.92-3.5-1.21c-1.1-0.29-2.34-0.46-3.5-0.53
		v5.28l0.61,0.11c2.81,0.49,4.83,1.31,5.96,2.46c1.13,1.15,1.72,2.84,1.72,5.09c0,2.26-0.75,3.99-2.1,5.2
		c-1.34,1.21-3.26,1.9-6.18,2.07v2.91c12.26-0.41,21.5-6.91,21.5-14.87c0-7.96-9.24-14.45-21.5-14.87v2.4
		C52.04,41.79,53.28,41.94,54.38,42.15z"/>
	<path class="st4" d="M48.36,69.01l-0.01-2.86c-1.39-0.06-2.82-0.23-4.11-0.52c-1.29-0.28-2.71-0.68-3.87-1.18v-4.82
		c1.75,0.72,2.73,1.28,4.03,1.67c1.3,0.39,2.39,0.6,4.14,0.65v-5.73l-0.64-0.11c-2.64-0.52-4.56-1.33-5.67-2.43
		c-1.11-1.1-1.69-2.69-1.69-4.77c0-2.2,0.66-3.91,2.01-5.15c1.35-1.23,3.28-1.91,5.79-2.02l0.01-2.46
		c-11.85,0.5-21.23,6.96-21.23,14.85C27.13,62.05,36.51,68.51,48.36,69.01z"/>
	<path class="st4" d="M48.54,45.96c-1.17,0.05-1.5,0.29-1.97,0.71c-0.47,0.42-0.75,0.96-0.75,1.61c0,0.72,0.28,1.29,0.72,1.7
		c0.44,0.41,0.84,0.67,2.01,0.78V45.96z"/>
	<path class="st5" d="M42.55,43.78c-1.35,1.23-2.02,2.95-2.02,5.15c0,2.07,0.55,3.66,1.67,4.77c1.11,1.11,3.07,1.91,5.71,2.43
		l0.64,0.11v5.73c-1.75-0.05-2.84-0.27-4.14-0.65c-1.3-0.39-2.28-0.94-4.03-1.67v4.82c1.17,0.5,2.58,0.9,3.87,1.18
		c1.29,0.28,2.68,0.45,4.06,0.52l0.03,2.81l0.03,2.64h2.51v-2.58v-2.91c2.92-0.17,4.85-0.86,6.2-2.07c1.34-1.21,2.06-2.94,2.06-5.2
		c0-2.25-0.54-3.94-1.67-5.09c-1.13-1.15-3.18-1.97-5.99-2.46l-0.6-0.11V45.9c1.17,0.06,2.4,0.24,3.5,0.53
		c1.1,0.29,2.34,0.69,3.5,1.21v-4.68c-1.17-0.33-2.4-0.6-3.5-0.81c-1.1-0.21-2.34-0.36-3.5-0.46v-2.4v-1.55h-2.51l-0.01,1.68
		l-0.01,2.4C45.84,41.93,43.9,42.54,42.55,43.78z M46.51,49.98c-0.44-0.41-0.7-0.98-0.7-1.7c0-0.65,0.3-1.19,0.77-1.61
		c0.47-0.42,0.78-0.66,1.95-0.71v4.81C47.37,50.66,46.95,50.39,46.51,49.98z M53.18,57.57c0.44,0.41,0.71,1.03,0.71,1.87
		c0,0.81-0.31,1.42-0.79,1.82c-0.48,0.41-1.05,0.61-2.22,0.63v-5.12C52.04,56.89,52.74,57.16,53.18,57.57z"/>
</g>
</svg>
