<?xml version="1.0" encoding="utf-8"?>
<!-- Generator: Adobe Illustrator 26.1.0, SVG Export Plug-In . SVG Version: 6.00 Build 0)  -->
<svg version="1.1" id="Layer_1" xmlns="http://www.w3.org/2000/svg" xmlns:xlink="http://www.w3.org/1999/xlink" x="0px" y="0px"
	 viewBox="0 0 100 100" style="enable-background:new 0 0 100 100;" xml:space="preserve">
<style type="text/css">
	.st0{fill:#8FAE30;}
	.st1{fill:#7E961D;}
	.st2{fill:#A5C346;}
	.st3{fill:#CC4941;}
	.st4{fill:#A02A27;}
	.st5{fill:#BB413A;}
	.st6{fill:#F6BD3B;}
</style>
<g>
	<g>
		<g>
			
				<rect x="14.7" y="25.4" transform="matrix(0.4032 -0.9151 0.9151 0.4032 -21.229 40.9327)" class="st0" width="12.2" height="22.6"/>
			<path class="st1" d="M9.3,34.7c1.6,0.8,2.4,2.7,1.6,4.3l0,0l-3-1.3L9.3,34.7z"/>
			<path class="st1" d="M12.9,26.6l3,1.3l0,0c-0.7,1.7-2.6,2.4-4.3,1.7L12.9,26.6z"/>
			<path class="st1" d="M29.9,43.8C30,43.8,30,43.8,29.9,43.8l-1.3,3.1l-3.1-1.4l0,0C26.3,43.9,28.3,43.1,29.9,43.8z"/>
			<path class="st1" d="M30.5,34.4l3.1,1.4l-1.3,3c0,0,0,0-0.1,0C30.5,38,29.8,36,30.5,34.4L30.5,34.4z"/>
		</g>
		<path class="st2" d="M17.2,34.9c0.9-2,3.2-2.9,5.2-2c2,0.9,2.9,3.2,2,5.2c-0.9,2-3.2,2.9-5.2,2C17.3,39.3,16.4,36.9,17.2,34.9z"/>
		<g>
			<path class="st1" d="M26.5,39c0.3-0.7,1.1-1,1.8-0.7c0.7,0.3,1,1.1,0.7,1.8c-0.3,0.7-1.1,1-1.8,0.7C26.5,40.5,26.2,39.7,26.5,39z
				"/>
			<path class="st1" d="M12.7,32.9c0.3-0.7,1.1-1,1.8-0.7s1,1.1,0.7,1.8s-1.1,1-1.8,0.7C12.8,34.4,12.4,33.6,12.7,32.9z"/>
		</g>
	</g>
	<g>
		<g>
			
				<rect x="64.7" y="30.8" transform="matrix(0.8735 -0.4868 0.4868 0.8735 -8.3336 41.6777)" class="st0" width="22.6" height="12.2"/>
			<path class="st1" d="M67.5,44.8c1.6-0.8,3.6-0.3,4.4,1.3l0,0l-2.8,1.6L67.5,44.8z"/>
			<path class="st1" d="M63.2,37.1l2.8-1.6l0,0c0.9,1.6,0.3,3.6-1.2,4.5L63.2,37.1z"/>
			<path class="st1" d="M87.2,33.8C87.2,33.8,87.3,33.8,87.2,33.8l1.7,2.9l-2.9,1.6l0,0C85.1,36.7,85.6,34.7,87.2,33.8z"/>
			<path class="st1" d="M80,27.7l2.9-1.6l1.6,2.9c0,0,0,0-0.1,0C82.9,29.9,80.9,29.3,80,27.7L80,27.7z"/>
		</g>
		<path class="st2" d="M72.4,38.6c-1.1-1.9-0.4-4.3,1.5-5.4c1.9-1.1,4.3-0.4,5.4,1.5c1.1,1.9,0.4,4.3-1.5,5.4
			C75.9,41.2,73.5,40.5,72.4,38.6z"/>
		<g>
			<path class="st1" d="M81.3,33.7c-0.4-0.7-0.1-1.5,0.5-1.9c0.7-0.4,1.5-0.1,1.9,0.5c0.4,0.7,0.1,1.5-0.5,1.9
				C82.5,34.6,81.6,34.3,81.3,33.7z"/>
			<path class="st1" d="M68.2,41c-0.4-0.7-0.1-1.5,0.5-1.9c0.7-0.4,1.5-0.1,1.9,0.5c0.4,0.7,0.1,1.5-0.5,1.9
				C69.4,41.9,68.5,41.6,68.2,41z"/>
		</g>
	</g>
	<g>
		<g>
			
				<rect x="52.8" y="28.3" transform="matrix(0.3835 -0.9235 0.9235 0.3835 7.7977 80.4176)" class="st0" width="22.6" height="12.2"/>
			<path class="st1" d="M62.4,45.9c0.7-1.6,2.6-2.4,4.3-1.7l0,0l-1.2,3L62.4,45.9z"/>
			<path class="st1" d="M54.2,42.5l1.2-3l0,0c1.7,0.7,2.5,2.6,1.8,4.3L54.2,42.5z"/>
			<path class="st1" d="M71,25C71,25,71,25,71,25l3.1,1.2l-1.3,3.1l0,0C71.1,28.7,70.3,26.7,71,25z"/>
			<path class="st1" d="M61.6,24.7l1.3-3.1l3.1,1.3c0,0,0,0,0,0.1C65.2,24.6,63.2,25.4,61.6,24.7L61.6,24.7z"/>
		</g>
		<path class="st2" d="M62.4,37.9c-2-0.8-3-3.2-2.1-5.2c0.8-2,3.2-3,5.2-2.1c2,0.8,3,3.2,2.1,5.2C66.7,37.8,64.4,38.8,62.4,37.9z"/>
		<g>
			<path class="st1" d="M66.3,28.6c-0.7-0.3-1-1.1-0.7-1.8c0.3-0.7,1.1-1,1.8-0.7c0.7,0.3,1,1.1,0.7,1.8
				C67.8,28.6,67,28.9,66.3,28.6z"/>
			<path class="st1" d="M60.5,42.5c-0.7-0.3-1-1.1-0.7-1.8c0.3-0.7,1.1-1,1.8-0.7c0.7,0.3,1,1.1,0.7,1.8
				C62,42.4,61.2,42.8,60.5,42.5z"/>
		</g>
	</g>
	<g>
		<g>
			
				<rect x="37.1" y="30.4" transform="matrix(0.2282 -0.9736 0.9736 0.2282 1.8136 75.3017)" class="st0" width="22.6" height="12.2"/>
			<path class="st1" d="M48.5,48.2c0.4-1.7,2.2-2.8,4-2.4l0,0l-0.7,3.2L48.5,48.2z"/>
			<path class="st1" d="M39.9,46.1l0.7-3.2l0,0c1.8,0.4,2.9,2.2,2.5,3.9L39.9,46.1z"/>
			<path class="st1" d="M53.7,26.2C53.7,26.2,53.7,26.1,53.7,26.2l3.2,0.7l-0.8,3.3l0,0C54.4,29.7,53.3,28,53.7,26.2z"/>
			<path class="st1" d="M44.3,27.4l0.8-3.3l3.2,0.8c0,0,0,0,0,0.1C47.8,26.7,46.1,27.8,44.3,27.4L44.3,27.4z"/>
		</g>
		<path class="st2" d="M47.3,40.3c-2.1-0.5-3.5-2.6-3-4.8c0.5-2.1,2.6-3.5,4.8-3c2.1,0.5,3.5,2.6,3,4.8
			C51.5,39.5,49.4,40.8,47.3,40.3z"/>
		<g>
			<path class="st1" d="M49.6,30.5c-0.7-0.2-1.2-0.9-1-1.6c0.2-0.7,0.9-1.2,1.6-1s1.2,0.9,1,1.6C51,30.2,50.3,30.7,49.6,30.5z"/>
			<path class="st1" d="M46.1,45.1c-0.7-0.2-1.2-0.9-1-1.6c0.2-0.7,0.9-1.2,1.6-1c0.7,0.2,1.2,0.9,1,1.6
				C47.6,44.8,46.9,45.3,46.1,45.1z"/>
		</g>
	</g>
	<g>
		<g>
			
				<rect x="27.4" y="24.7" transform="matrix(0.8993 -0.4374 0.4374 0.8993 -12.3684 18.3004)" class="st0" width="12.2" height="22.6"/>
			<path class="st1" d="M41,45c-0.8-1.6-0.1-3.6,1.6-4.4l0,0l1.4,2.9L41,45z"/>
			<path class="st1" d="M33,48.8l-1.4-2.9l0,0c1.6-0.8,3.6-0.1,4.4,1.5L33,48.8z"/>
			<path class="st1" d="M31.1,24.7C31.1,24.6,31.1,24.6,31.1,24.7l2.9-1.5l1.5,3l0,0C33.9,27,31.9,26.3,31.1,24.7z"/>
			<path class="st1" d="M24.6,31.5l-1.5-3l3-1.4c0,0,0,0,0,0.1C26.9,28.7,26.2,30.7,24.6,31.5L24.6,31.5z"/>
		</g>
		<ellipse transform="matrix(0.1001 -0.995 0.995 0.1001 -5.9427 65.6499)" class="st2" cx="33.3" cy="36.1" rx="4" ry="4"/>
		<g>
			<path class="st1" d="M30.6,30.6c-0.7,0.3-1.5,0-1.8-0.6c-0.3-0.7,0-1.5,0.6-1.8c0.7-0.3,1.5,0,1.8,0.6
				C31.6,29.4,31.3,30.3,30.6,30.6z"/>
			<path class="st1" d="M37.2,44.1c-0.7,0.3-1.5,0-1.8-0.6c-0.3-0.7,0-1.5,0.6-1.8c0.7-0.3,1.5,0,1.8,0.6
				C38.2,42.9,37.9,43.8,37.2,44.1z"/>
		</g>
	</g>
	<g>
		<g>
			
				<rect x="72" y="37.6" transform="matrix(0.9975 -7.126644e-02 7.126644e-02 0.9975 -2.9006 6.0461)" class="st0" width="22.6" height="12.2"/>
			<path class="st1" d="M72.2,47.3c1.8-0.1,3.3,1.3,3.5,3.1l0,0l-3.2,0.2L72.2,47.3z"/>
			<path class="st1" d="M71.6,38.4l3.2-0.2l0,0c0.1,1.8-1.2,3.4-3,3.5L71.6,38.4z"/>
			<path class="st1" d="M94.7,45.7C94.7,45.7,94.7,45.6,94.7,45.7l0.3,3.3l-3.4,0.2l0,0C91.5,47.4,92.9,45.8,94.7,45.7z"/>
			<path class="st1" d="M90.8,37l3.4-0.2l0.2,3.3c0,0,0,0-0.1,0C92.5,40.2,90.9,38.8,90.8,37L90.8,37z"/>
		</g>
		<path class="st2" d="M79.3,43.7c-0.2-2.2,1.5-4.1,3.7-4.2c2.2-0.2,4.1,1.5,4.2,3.7c0.2,2.2-1.5,4.1-3.7,4.2
			C81.4,47.5,79.5,45.9,79.3,43.7z"/>
		<g>
			<ellipse transform="matrix(0.9896 -0.1436 0.1436 0.9896 -5.2183 13.4751)" class="st1" cx="90.7" cy="42.9" rx="1.4" ry="1.4"/>
			<path class="st1" d="M74.4,44.1c-0.1-0.8,0.5-1.4,1.3-1.5c0.8-0.1,1.4,0.5,1.5,1.3c0.1,0.8-0.5,1.4-1.3,1.5
				C75.1,45.4,74.5,44.8,74.4,44.1z"/>
		</g>
	</g>
	<g>
		<g>
			
				<rect x="6.2" y="38.4" transform="matrix(0.9692 -0.2462 0.2462 0.9692 -10.427 5.6719)" class="st0" width="22.6" height="12.2"/>
			<path class="st1" d="M7.2,50c1.8-0.4,3.5,0.7,4,2.4l0,0L8,53.2L7.2,50z"/>
			<path class="st1" d="M5,41.4l3.1-0.8l0,0c0.4,1.8-0.6,3.5-2.3,4L5,41.4z"/>
			<path class="st1" d="M29.1,44.5C29.1,44.5,29.1,44.5,29.1,44.5l0.9,3.2l-3.3,0.8l0,0C26.2,46.7,27.3,44.9,29.1,44.5z"/>
			<path class="st1" d="M23.7,36.7l3.3-0.8l0.8,3.2c0,0,0,0-0.1,0C25.9,39.5,24.1,38.4,23.7,36.7L23.7,36.7z"/>
		</g>
		<path class="st2" d="M13.6,45.3c-0.5-2.1,0.7-4.3,2.9-4.8c2.1-0.5,4.3,0.7,4.8,2.9c0.5,2.1-0.7,4.3-2.9,4.8
			C16.3,48.7,14.1,47.4,13.6,45.3z"/>
		<g>
			<path class="st1" d="M23.3,42.8c-0.2-0.7,0.3-1.5,1-1.7c0.7-0.2,1.5,0.3,1.7,1c0.2,0.7-0.3,1.5-1,1.7
				C24.3,44,23.5,43.5,23.3,42.8z"/>
			<ellipse transform="matrix(0.9359 -0.3524 0.3524 0.9359 -15.6081 6.5303)" class="st1" cx="10.1" cy="46.1" rx="1.4" ry="1.4"/>
		</g>
	</g>
	<path class="st3" d="M82.4,37.9v35.6c0,2.7-2.2,4.9-4.9,4.9H21.3c-2.7,0-4.9-2.2-4.9-4.9V37.9c0-1.8,1.5-3.3,3.3-3.3h59.4
		C80.9,34.6,82.4,36.1,82.4,37.9z"/>
	<polygon class="st4" points="16.4,46.6 16.4,55 49.5,59.2 82.4,55 82.4,46.6 	"/>
	<path class="st5" d="M62.3,33.3h-2.6v-5.1c0-2.3-1.8-4.1-4.1-4.1H43.3c-2.3,0-4.1,1.8-4.1,4.1v5.1h-2.6v-5.1c0-3.7,3-6.7,6.7-6.7
		h12.3c3.7,0,6.7,3,6.7,6.7V33.3z"/>
	<rect x="35.2" y="32" class="st4" width="5.5" height="2.6"/>
	<rect x="58.3" y="32" class="st4" width="5.5" height="2.6"/>
	<g>
		<g>
			<rect x="72.8" y="37.9" transform="matrix(0.585 -0.811 0.811 0.585 -7.2026 84.4056)" class="st0" width="12.2" height="22.6"/>
			<path class="st1" d="M89.7,53.6c-1.4-1.1-1.8-3.1-0.7-4.6l0,0l2.6,1.9L89.7,53.6z"/>
			<path class="st1" d="M84.5,60.8l-2.6-1.9l0,0c1.1-1.5,3.1-1.8,4.6-0.8L84.5,60.8z"/>
			<path class="st1" d="M71.4,40.4C71.4,40.4,71.3,40.4,71.4,40.4l1.9-2.7l2.7,2l0,0C74.9,41.1,72.9,41.5,71.4,40.4z"/>
			<path class="st1" d="M68.9,49.5l-2.7-2l1.9-2.7c0,0,0,0,0.1,0C69.6,46,69.9,48.1,68.9,49.5L68.9,49.5z"/>
		</g>
		<ellipse transform="matrix(0.4859 -0.874 0.874 0.4859 -2.7366 94.2315)" class="st2" cx="78.7" cy="49.4" rx="4" ry="4"/>
		<g>
			<path class="st1" d="M73.8,45.9c-0.4,0.6-1.3,0.8-1.9,0.3c-0.6-0.4-0.8-1.3-0.3-1.9c0.4-0.6,1.3-0.8,1.9-0.3
				C74.1,44.4,74.2,45.2,73.8,45.9z"/>
			<path class="st1" d="M85.9,54.6c-0.4,0.6-1.3,0.8-1.9,0.3c-0.6-0.4-0.8-1.3-0.3-1.9c0.4-0.6,1.3-0.8,1.9-0.3
				C86.2,53.2,86.4,54,85.9,54.6z"/>
		</g>
	</g>
	<g>
		<g>
			
				<rect x="9.5" y="46" transform="matrix(0.5764 -0.8172 0.8172 0.5764 -33.7517 39.0388)" class="st0" width="22.6" height="12.2"/>
			<path class="st1" d="M16.5,62.9c1.1-1.5,3.1-1.8,4.6-0.7l0,0l-1.9,2.7L16.5,62.9z"/>
			<path class="st1" d="M9.3,57.8l1.9-2.7l0,0c1.5,1,1.8,3.1,0.8,4.6L9.3,57.8z"/>
			<path class="st1" d="M29.5,44.5C29.6,44.5,29.6,44.5,29.5,44.5l2.7,1.9l-1.9,2.8l0,0C28.8,48,28.5,46,29.5,44.5z"/>
			<path class="st1" d="M20.4,42.1l1.9-2.8l2.7,1.9c0,0,0,0,0,0.1C23.9,42.8,21.9,43.1,20.4,42.1L20.4,42.1z"/>
		</g>
		<path class="st2" d="M18.3,55.2c-1.8-1.3-2.2-3.7-1-5.5c1.3-1.8,3.7-2.2,5.5-1c1.8,1.3,2.2,3.7,1,5.5C22.6,56,20.1,56.4,18.3,55.2
			z"/>
		<g>
			<path class="st1" d="M24.1,46.9c-0.6-0.4-0.8-1.3-0.3-1.9c0.4-0.6,1.3-0.8,1.9-0.3c0.6,0.4,0.8,1.3,0.3,1.9
				C25.6,47.2,24.7,47.4,24.1,46.9z"/>
			<path class="st1" d="M15.5,59.2c-0.6-0.4-0.8-1.3-0.3-1.9c0.4-0.6,1.3-0.8,1.9-0.3c0.6,0.4,0.8,1.3,0.3,1.9
				C16.9,59.5,16.1,59.6,15.5,59.2z"/>
		</g>
	</g>
	<path class="st5" d="M82.4,37.5v15.6l-32.9,4.1l-33.1-4.1V37.5c0-1.6,1.3-3,3-3h60.1C81.1,34.6,82.4,35.9,82.4,37.5z"/>
	<polygon class="st4" points="53.8,52.3 45.3,52.3 45.3,65.1 49.5,67 53.8,65.1 	"/>
	<path class="st6" d="M52.1,61.9c0-1.4-1.1-2.5-2.5-2.5S47,60.5,47,61.9c0,1.4,1.1,2.5,2.5,2.5S52.1,63.3,52.1,61.9z"/>
</g>
</svg>
