<?xml version="1.0" encoding="iso-8859-1"?>
<!-- Uploaded to: SVG Repo, www.svgrepo.com, Generator: SVG Repo Mixer Tools -->
<svg version="1.1" id="Layer_1" xmlns="http://www.w3.org/2000/svg" xmlns:xlink="http://www.w3.org/1999/xlink" 
	 viewBox="0 0 505 505" xml:space="preserve">
<circle style="fill:#324A5E;" cx="252.5" cy="252.5" r="252.5"/>
<path style="fill:#FFFFFF;" d="M97.5,162.1v182.4c0,16.7,13.5,30.2,30.2,30.2h249.6c16.7,0,30.2-13.5,30.2-30.2V162.1H97.5z"/>
<path style="fill:#E6E9EE;" d="M97.5,184.1v-23.5c0-16.7,13.5-30.2,30.2-30.2h249.6c16.7,0,30.2,13.5,30.2,30.2v23.5H97.5z"/>
<circle style="fill:#FF7058;" cx="369.5" cy="158.8" r="10.1"/>
<circle style="fill:#4CDBC4;" cx="331.4" cy="158.8" r="10.1"/>
<circle style="fill:#FFD05B;" cx="293.4" cy="158.8" r="10.1"/>
<g>
	<rect x="143.1" y="282.9" style="fill:#54C0EB;" width="27" height="55.2"/>
	<rect x="191" y="232.9" style="fill:#54C0EB;" width="27" height="105.2"/>
	<rect x="239" y="272.8" style="fill:#54C0EB;" width="27" height="65.3"/>
	<rect x="287" y="252.5" style="fill:#54C0EB;" width="27" height="85.6"/>
	<rect x="334.9" y="222" style="fill:#54C0EB;" width="27" height="116.1"/>
</g>
</svg>