<?xml version="1.0" ?><!-- Uploaded to: SVG Repo, www.svgrepo.com, Generator: SVG Repo Mixer Tools -->
<svg width="800px" height="800px" viewBox="0 0 128 128" data-name="Layer 1" id="Layer_1" xmlns="http://www.w3.org/2000/svg"><defs><style>.cls-1{fill:#515570;}.cls-12,.cls-2,.cls-7{fill:#393c54;}.cls-2{opacity:0.5;}.cls-3{fill:#fbc0aa;}.cls-4{fill:#f8dc25;}.cls-10,.cls-5{fill:none;stroke-linecap:round;stroke-linejoin:round;}.cls-5{stroke:#fbc0aa;stroke-width:20px;}.cls-6{fill:#ffd8c9;}.cls-8{fill:#8f5653;}.cls-9{fill:#f2bc0f;}.cls-10{stroke:#515570;stroke-width:2px;opacity:0.4;}.cls-11{fill:#356cb6;}.cls-12{opacity:0.2;}.cls-13{fill:#ffffff;}.cls-14{fill:#f85565;}</style></defs><title/><circle class="cls-1" cx="64" cy="64" r="60"/><circle class="cls-1" cx="64" cy="64" r="60"/><circle class="cls-2" cx="64" cy="64" r="48"/><circle class="cls-3" cx="91.32" cy="60.43" r="7.93"/><path class="cls-4" d="M64,124a59.75,59.75,0,0,0,39.8-15.12l-2.2-5.24c-1.71-4-6.22-6.64-11.29-6.64H37.69c-5.07,0-9.58,2.66-11.29,6.64l-2.2,5.24A59.75,59.75,0,0,0,64,124Z"/><line class="cls-5" x1="64" x2="64" y1="84.75" y2="98.5"/><circle class="cls-3" cx="36.68" cy="60.43" r="7.93"/><path class="cls-6" d="M64,94.37A28.31,28.31,0,0,1,35.68,66.05V47.43a28.32,28.32,0,1,1,56.64,0V66.05A28.31,28.31,0,0,1,64,94.37Z"/><circle class="cls-7" cx="76.67" cy="59.28" r="3"/><path class="cls-8" d="M32,46l2.87,15.45a1,1,0,0,0,1.94.1C38.51,55.74,42,46,46,46c5.75,0,2.19-8,2.19-8Z"/><path class="cls-8" d="M96,46,93.13,61.45a1,1,0,0,1-1.94.1C89.49,55.74,86,46,82,46c-5.75,0-2.19-8-2.19-8Z"/><circle class="cls-7" cx="49.67" cy="59.28" r="3"/><path class="cls-9" d="M33,45V43.45a31,31,0,0,1,62,0V45"/><line class="cls-10" x1="74.39" x2="84" y1="53" y2="52.75"/><line class="cls-10" x1="53" x2="43.39" y1="53" y2="52.75"/><line class="cls-10" x1="60" x2="68" y1="86" y2="86"/><path class="cls-11" d="M39,118.54a60,60,0,0,0,50,0V113H39Z"/><path class="cls-12" d="M56.5,39h15l6.78-23.06a31,31,0,0,0-28.56,0Z"/><path class="cls-9" d="M64,11.45a69.94,69.94,0,0,0-7.72.43,1.09,1.09,0,0,0-1,1L56.5,44h15l1.25-31.13a1.09,1.09,0,0,0-1-1A69.94,69.94,0,0,0,64,11.45Z"/><path class="cls-2" d="M39,118.54a60,60,0,0,0,50,0V113H39Z"/><path class="cls-11" d="M39,97h8a0,0,0,0,1,0,0v17a4,4,0,0,1-4,4h0a4,4,0,0,1-4-4V97A0,0,0,0,1,39,97Z"/><path class="cls-11" d="M81,97h8a0,0,0,0,1,0,0v17a4,4,0,0,1-4,4h0a4,4,0,0,1-4-4V97A0,0,0,0,1,81,97Z"/><circle class="cls-7" cx="43" cy="114" r="2"/><circle class="cls-7" cx="85" cy="114" r="2"/><path class="cls-3" d="M63.11,57.23,58.59,67.59a1,1,0,0,0,.89,1.35h9a1,1,0,0,0,.89-1.35L64.89,57.23A1,1,0,0,0,63.11,57.23Z"/><path class="cls-7" d="M69.5,82h-11a3.5,3.5,0,0,1,0-7h11a3.5,3.5,0,0,1,0,7Z"/><path class="cls-13" d="M58,75H70a0,0,0,0,1,0,0v0a2,2,0,0,1-2,2H60a2,2,0,0,1-2-2v0A0,0,0,0,1,58,75Z"/><path class="cls-14" d="M60,82h9.5A3.5,3.5,0,0,0,73,78.5a4,4,0,0,0,0-.5H66A6.5,6.5,0,0,0,60,82Z"/><path class="cls-9" d="M75.61,49.45H51.39A44.66,44.66,0,0,1,30,44H97A44.66,44.66,0,0,1,75.61,49.45Z"/><rect class="cls-4" height="4" rx="1" width="67" x="30" y="41"/><path class="cls-8" d="M77,75a5,5,0,0,0-5-5H56a5,5,0,0,0-5,5H45a5,5,0,0,0,8.18,3.86,15.77,15.77,0,0,1,10-3.86h1.68a15.77,15.77,0,0,1,10,3.86A5,5,0,0,0,83,75Z"/></svg>