<?xml version="1.0" encoding="utf-8"?>
<!-- Generator: Adobe Illustrator 26.1.0, SVG Export Plug-In . SVG Version: 6.00 Build 0)  -->
<svg version="1.1" id="Layer_1" xmlns="http://www.w3.org/2000/svg" xmlns:xlink="http://www.w3.org/1999/xlink" x="0px" y="0px"
	 viewBox="0 0 100 100" style="enable-background:new 0 0 100 100;" xml:space="preserve">
<style type="text/css">
	.st0{fill:#7ED4A7;}
	.st1{fill:#C2ECF3;}
	.st2{fill:#59A57C;}
	.st3{fill:#FD605D;}
	.st4{fill:#FFFFFF;}
</style>
<g>
	<path class="st0" d="M77.7,5H22.3c-5.9,0-10.7,4.8-10.7,10.7v68.6c0,5.9,4.8,10.7,10.7,10.7h55.5c5.9,0,10.7-4.8,10.7-10.7V15.7
		C88.4,9.8,83.6,5,77.7,5z"/>
	<path class="st1" d="M78.9,32.3H21.1c-1.8,0-3.3-1.5-3.3-3.3V14.5c0-1.8,1.5-3.3,3.3-3.3h57.8c1.8,0,3.3,1.5,3.3,3.3v14.6
		C82.2,30.9,80.7,32.3,78.9,32.3z"/>
	<g>
		<path class="st2" d="M28.4,49h-7.3c-1.8,0-3.3-1.5-3.3-3.3v-4.1c0-1.8,1.5-3.3,3.3-3.3h7.3c1.8,0,3.3,1.5,3.3,3.3v4.1
			C31.6,47.5,30.2,49,28.4,49z"/>
		<path class="st2" d="M45.2,49h-7.3c-1.8,0-3.3-1.5-3.3-3.3v-4.1c0-1.8,1.5-3.3,3.3-3.3h7.3c1.8,0,3.3,1.5,3.3,3.3v4.1
			C48.5,47.5,47,49,45.2,49z"/>
		<path class="st2" d="M62.1,49h-7.3c-1.8,0-3.3-1.5-3.3-3.3v-4.1c0-1.8,1.5-3.3,3.3-3.3h7.3c1.8,0,3.3,1.5,3.3,3.3v4.1
			C65.3,47.5,63.9,49,62.1,49z"/>
		<path class="st2" d="M78.9,49h-7.3c-1.8,0-3.3-1.5-3.3-3.3v-4.1c0-1.8,1.5-3.3,3.3-3.3h7.3c1.8,0,3.3,1.5,3.3,3.3v4.1
			C82.2,47.5,80.7,49,78.9,49z"/>
	</g>
	<g>
		<path class="st2" d="M28.4,61.6h-7.3c-1.8,0-3.3-1.5-3.3-3.3v-4.1c0-1.8,1.5-3.3,3.3-3.3h7.3c1.8,0,3.3,1.5,3.3,3.3v4.1
			C31.6,60.1,30.2,61.6,28.4,61.6z"/>
		<path class="st2" d="M45.2,61.6h-7.3c-1.8,0-3.3-1.5-3.3-3.3v-4.1c0-1.8,1.5-3.3,3.3-3.3h7.3c1.8,0,3.3,1.5,3.3,3.3v4.1
			C48.5,60.1,47,61.6,45.2,61.6z"/>
		<path class="st2" d="M62.1,61.6h-7.3c-1.8,0-3.3-1.5-3.3-3.3v-4.1c0-1.8,1.5-3.3,3.3-3.3h7.3c1.8,0,3.3,1.5,3.3,3.3v4.1
			C65.3,60.1,63.9,61.6,62.1,61.6z"/>
		<path class="st2" d="M78.9,61.6h-7.3c-1.8,0-3.3-1.5-3.3-3.3v-4.1c0-1.8,1.5-3.3,3.3-3.3h7.3c1.8,0,3.3,1.5,3.3,3.3v4.1
			C82.2,60.1,80.7,61.6,78.9,61.6z"/>
	</g>
	<g>
		<path class="st2" d="M28.4,74.2h-7.3c-1.8,0-3.3-1.5-3.3-3.3v-4.1c0-1.8,1.5-3.3,3.3-3.3h7.3c1.8,0,3.3,1.5,3.3,3.3v4.1
			C31.6,72.7,30.2,74.2,28.4,74.2z"/>
		<path class="st2" d="M45.2,74.2h-7.3c-1.8,0-3.3-1.5-3.3-3.3v-4.1c0-1.8,1.5-3.3,3.3-3.3h7.3c1.8,0,3.3,1.5,3.3,3.3v4.1
			C48.5,72.7,47,74.2,45.2,74.2z"/>
		<path class="st2" d="M62.1,74.2h-7.3c-1.8,0-3.3-1.5-3.3-3.3v-4.1c0-1.8,1.5-3.3,3.3-3.3h7.3c1.8,0,3.3,1.5,3.3,3.3v4.1
			C65.3,72.7,63.9,74.2,62.1,74.2z"/>
	</g>
	<path class="st2" d="M28.4,86.8h-7.3c-1.8,0-3.3-1.5-3.3-3.3v-4.1c0-1.8,1.5-3.3,3.3-3.3h7.3c1.8,0,3.3,1.5,3.3,3.3v4.1
		C31.6,85.3,30.2,86.8,28.4,86.8z"/>
	<path class="st2" d="M45.2,86.8h-7.3c-1.8,0-3.3-1.5-3.3-3.3v-4.1c0-1.8,1.5-3.3,3.3-3.3h7.3c1.8,0,3.3,1.5,3.3,3.3v4.1
		C48.5,85.3,47,86.8,45.2,86.8z"/>
	<path class="st2" d="M62.1,86.8h-7.3c-1.8,0-3.3-1.5-3.3-3.3v-4.1c0-1.8,1.5-3.3,3.3-3.3h7.3c1.8,0,3.3,1.5,3.3,3.3v4.1
		C65.3,85.3,63.9,86.8,62.1,86.8z"/>
	<path class="st3" d="M78.9,63.5h-7.3c-1.8,0-3.3,1.5-3.3,3.3v1.4v2.7v12.6c0,1.8,1.5,3.3,3.3,3.3h7.3c1.8,0,3.3-1.5,3.3-3.3V70.9
		v-2.7v-1.4C82.2,64.9,80.7,63.5,78.9,63.5z"/>
	<g>
		<rect x="71.8" y="71.7" class="st4" width="6.8" height="2.4"/>
		<rect x="71.8" y="75.9" class="st4" width="6.8" height="2.4"/>
	</g>
	<g>
		
			<rect x="21.4" y="42.5" transform="matrix(6.123234e-17 -1 1 6.123234e-17 -18.8852 68.4763)" class="st4" width="6.8" height="2.4"/>
		<rect x="21.4" y="42.5" class="st4" width="6.8" height="2.4"/>
	</g>
	<g>
		<rect x="40.3" y="42.5" class="st4" width="2.4" height="2.4"/>
		<rect x="38.1" y="42.5" class="st4" width="6.8" height="2.4"/>
	</g>
	<g>
		<rect x="57" y="40.2" class="st4" width="2.4" height="2.2"/>
		<rect x="57" y="44.8" class="st4" width="2.4" height="2.2"/>
	</g>
	<g>
		
			<rect x="71.9" y="42.8" transform="matrix(-0.7071 -0.7071 0.7071 -0.7071 97.528 128.3737)" class="st4" width="6.8" height="2.4"/>
		
			<rect x="71.9" y="42.8" transform="matrix(0.7071 -0.7071 0.7071 0.7071 -9.0348 66.1645)" class="st4" width="6.8" height="2.4"/>
	</g>
</g>
</svg>
