<?xml version="1.0" encoding="utf-8"?>
<!-- Generator: Adobe Illustrator 26.1.0, SVG Export Plug-In . SVG Version: 6.00 Build 0)  -->
<svg version="1.1" id="Layer_1" xmlns="http://www.w3.org/2000/svg" xmlns:xlink="http://www.w3.org/1999/xlink" x="0px" y="0px"
	 viewBox="0 0 100 100" style="enable-background:new 0 0 100 100;" xml:space="preserve">
<style type="text/css">
	.st0{fill-rule:evenodd;clip-rule:evenodd;fill:#F2A900;}
	.st1{fill-rule:evenodd;clip-rule:evenodd;fill:#E68B03;}
	.st2{fill-rule:evenodd;clip-rule:evenodd;fill:#FFD573;}
	.st3{fill:#FFFFFF;}
	.st4{font-family:'Roboto-Black';}
	.st5{font-size:10.27px;}
	.st6{font-size:8.3264px;}
</style>
<g>
	<g>
		<path class="st0" d="M7,39.4l64.8-23.3c1.6-0.6,3.4,0.3,4,1.9l13.9,38.6c0.6,1.6-0.3,3.4-1.9,4L23.1,83.9c-1.6,0.6-3.4-0.3-4-1.9
			L5.2,43.4C4.6,41.8,5.4,40,7,39.4z"/>
		<path class="st1" d="M8.8,41.1l62.7-22.6c1-0.4,2.2,0.2,2.5,1.2l13.2,36.6c0.4,1-0.2,2.2-1.2,2.5L23.3,81.5
			c-1,0.4-2.2-0.2-2.5-1.2L7.6,43.7C7.2,42.6,7.8,41.5,8.8,41.1z"/>
		<rect x="12.5" y="51.8" transform="matrix(0.9408 -0.339 0.339 0.9408 -16.3973 20.33)" class="st0" width="75" height="10.7"/>
	</g>
	<g>
		<path class="st2" d="M23.1,36.6h68.9c1.7,0,3.1,1.4,3.1,3.1v41.1c0,1.7-1.4,3.1-3.1,3.1H23.1c-1.7,0-3.1-1.4-3.1-3.1V39.7
			C20,38,21.4,36.6,23.1,36.6z"/>
		<path class="st0" d="M24.1,38.8h66.7c1.1,0,2,0.9,2,2v38.9c0,1.1-0.9,2-2,2H24.1c-1.1,0-2-0.9-2-2V40.8
			C22.2,39.7,23,38.8,24.1,38.8z"/>
		<text transform="matrix(1 0 0 1 25.9784 51.3607)" class="st3 st4 st5">CREDIT CARD</text>
		<path class="st2" d="M27.8,55.3H44c0.4,0,0.8,0.4,0.8,0.8v10.8c0,0.4-0.4,0.8-0.8,0.8H27.8c-0.4,0-0.8-0.4-0.8-0.8V56.1
			C27,55.7,27.3,55.3,27.8,55.3z"/>
		<text transform="matrix(1 0 0 1 25.9784 78.1156)" class="st3 st4 st6">000 000 000 000</text>
	</g>
</g>
</svg>
