<?xml version="1.0" encoding="utf-8"?>
<!-- Generator: Adobe Illustrator 26.1.0, SVG Export Plug-In . SVG Version: 6.00 Build 0)  -->
<svg version="1.1" id="Layer_1" xmlns="http://www.w3.org/2000/svg" xmlns:xlink="http://www.w3.org/1999/xlink" x="0px" y="0px"
	 viewBox="0 0 100 100" style="enable-background:new 0 0 100 100;" xml:space="preserve">
<style type="text/css">
	.st0{fill:#63A6AD;}
	.st1{fill:#2D5759;}
	.st2{fill:#C2ECF3;}
	.st3{fill:#FDCE5E;}
	.st4{fill:#F2B741;}
	.st5{fill:#7ED4A7;}
	.st6{fill:#FD605D;}
</style>
<g>
	<g>
		<path class="st0" d="M95,22.7v37.5c0,2.8-2.3,5-5,5H29.5c-2.8,0-5-2.3-5-5V22.7c0-2.8,2.3-5,5-5H90C92.7,17.6,95,19.9,95,22.7z"/>
		<rect x="24.5" y="29.1" class="st1" width="70.5" height="9.5"/>
	</g>
	<g>
		<path class="st2" d="M70.5,34.8H10c-2.8,0-5,2.3-5,5v37.5c0,2.8,2.3,5,5,5h60.4c2.8,0,5-2.3,5-5V39.9
			C75.5,37.1,73.3,34.8,70.5,34.8z"/>
		<g>
			<path class="st3" d="M26.8,43.9v6.7c0,0.1,0,0.2,0,0.3c-0.2,1.1-1.1,1.9-2.3,1.9H12.3c-1.1,0-2.1-0.8-2.3-1.9c0-0.1,0-0.2,0-0.3
				v-6.7c0-0.1,0-0.2,0-0.3c0.2-1.1,1.1-1.9,2.3-1.9h12.3c1.1,0,2.1,0.8,2.3,1.9C26.8,43.6,26.8,43.7,26.8,43.9z"/>
			<path class="st4" d="M21.1,45.3c0-1.6-1.3-2.8-2.8-2.8c-1.6,0-2.8,1.3-2.8,2.8c0,0.7,0.3,1.4,0.7,1.9c-0.5,0.5-0.7,1.2-0.7,1.9
				c0,1.6,1.3,2.8,2.8,2.8c1.6,0,2.8-1.3,2.8-2.8c0-0.7-0.3-1.4-0.7-1.9C20.8,46.7,21.1,46,21.1,45.3z"/>
			<g>
				<path class="st4" d="M26.8,43.9v1H10v-1c0-0.1,0-0.2,0-0.3h16.8C26.8,43.6,26.8,43.7,26.8,43.9z"/>
				<rect x="10" y="46.5" class="st4" width="16.8" height="1.3"/>
				<path class="st4" d="M26.8,49.5v1c0,0.1,0,0.2,0,0.3H10c0-0.1,0-0.2,0-0.3v-1H26.8z"/>
			</g>
		</g>
		<g>
			<circle class="st5" cx="61" cy="72.9" r="4.6"/>
			<circle class="st6" cx="66.7" cy="72.9" r="4.6"/>
		</g>
		<rect x="50.4" y="43.4" class="st0" width="14.1" height="2.1"/>
		<rect x="9.1" y="68.1" class="st0" width="7.6" height="2.1"/>
		<rect x="9.1" y="73.4" class="st0" width="27.4" height="2.1"/>
		<rect x="19" y="68.1" class="st0" width="7.6" height="2.1"/>
		<rect x="28.8" y="68.1" class="st0" width="7.6" height="2.1"/>
		<rect x="38.6" y="68.1" class="st0" width="7.6" height="2.1"/>
		<rect x="50.4" y="47.6" class="st0" width="19.5" height="2.2"/>
	</g>
</g>
</svg>
