<?xml version="1.0" encoding="utf-8"?>
<!-- Uploaded to: SVG Repo, www.svgrepo.com, Generator: SVG Repo Mixer Tools -->
<svg width="800px" height="800px" viewBox="0 -5.4 85.375 85.375" xmlns="http://www.w3.org/2000/svg">
  <g id="chart_graphic" data-name="chart graphic" transform="translate(-1263.801 -241.35)">
    <path id="Path_181" data-name="Path 181" d="M1329.493,251.1l-22.3,22.3-1.167-1.17.024-.023-9.965-9.973L1263.8,294.521l9.966,9.971,22.294-22.3,1.171,1.17-.025.023,9.971,9.968,32.279-32.286Z" fill="#a4d322"/>
    <path id="Path_182" data-name="Path 182" d="M1349.153,241.35l.022,29.427-29.389-29.387Z" fill="#a4d322"/>
    <path id="Path_183" data-name="Path 183" d="M1333.026,267.5l6.43-6.435-9.963-9.968-1.533,1.533Z" fill="#739142"/>
    <path id="Path_184" data-name="Path 184" d="M1339.464,265.172l-9.815,9.808v40.936h14.529V269.888Z" fill="#27b7ff"/>
    <path id="Path_185" data-name="Path 185" d="M1311.012,315.917h14.522V279.1l-14.522,14.524Z" fill="#27b7ff"/>
    <path id="Path_186" data-name="Path 186" d="M1296.043,286.33,1292.372,290v25.919H1306.9V297.183l-1.782-1.779Z" fill="#27b7ff"/>
    <path id="Path_187" data-name="Path 187" d="M1273.767,308.6l-.033-.041v7.356h14.521V294.109l-12.433,12.43Z" fill="#27b7ff"/>
  </g>
</svg>