<?xml version="1.0" encoding="iso-8859-1"?>
<!-- Uploaded to: SVG Repo, www.svgrepo.com, Generator: SVG Repo Mixer Tools -->
<svg height="800px" width="800px" version="1.1" id="Layer_1" xmlns="http://www.w3.org/2000/svg" xmlns:xlink="http://www.w3.org/1999/xlink" 
	 viewBox="0 0 512.001 512.001" xml:space="preserve">
<path style="fill:#7DD2F0;" d="M296.204,0h-80.408c-12.38,0-22.415,10.036-22.415,22.415v467.17
	c0,12.379,10.036,22.415,22.415,22.415h80.408c12.379,0,22.415-10.036,22.415-22.415V22.415C318.62,10.036,308.584,0,296.204,0z"/>
<path style="opacity:0.1;enable-background:new    ;" d="M239.159,489.585V22.415C239.159,10.036,249.195,0,261.575,0h-45.778
	c-12.38,0-22.415,10.036-22.415,22.415v467.17c0,12.379,10.036,22.415,22.415,22.415h45.778
	C249.195,512,239.159,501.964,239.159,489.585z"/>
<path style="fill:#FF6465;" d="M130.449,255.999H50.042c-12.38,0-22.415,10.036-22.415,22.415v211.17
	c0,12.379,10.036,22.415,22.415,22.415h80.408c12.38,0,22.415-10.036,22.415-22.415v-211.17
	C152.863,266.035,142.829,255.999,130.449,255.999z"/>
<path style="opacity:0.1;enable-background:new    ;" d="M73.404,489.585v-211.17c0-12.38,10.036-22.415,22.415-22.415H50.042
	c-12.38,0-22.415,10.036-22.415,22.415v211.17c0,12.379,10.036,22.415,22.415,22.415H95.82C83.44,512,73.404,501.964,73.404,489.585
	z"/>
<path style="fill:#FFD782;" d="M461.96,162.072h-80.408c-12.379,0-22.415,10.036-22.415,22.415v305.099
	c0,12.379,10.036,22.415,22.415,22.415h80.408c12.379,0,22.415-10.036,22.415-22.415V184.487
	C484.375,172.108,474.339,162.072,461.96,162.072z"/>
<path style="opacity:0.1;enable-background:new    ;" d="M404.916,489.585V184.486c0-12.38,10.036-22.415,22.415-22.415h-45.778
	c-12.379,0-22.415,10.036-22.415,22.415v305.099c0,12.379,10.036,22.415,22.415,22.415h45.778
	C414.951,512,404.916,501.964,404.916,489.585z"/>
</svg>