<?xml version="1.0" ?><!-- Uploaded to: SVG Repo, www.svgrepo.com, Generator: SVG Repo Mixer Tools -->
<svg width="800px" height="800px" viewBox="0 0 128 128" data-name="Layer 1" id="Layer_1" xmlns="http://www.w3.org/2000/svg"><defs><style>.cls-1{fill:#00adfe;}.cls-2,.cls-8{fill:#ffffff;}.cls-14,.cls-2{opacity:0.2;}.cls-3{fill:#ff6d00;}.cls-4{fill:#4bc190;}.cls-5{fill:#fbc0aa;}.cls-6{fill:#393c54;}.cls-7{fill:#515570;}.cls-11,.cls-13,.cls-14,.cls-9{fill:none;stroke-linecap:round;}.cls-13,.cls-9{stroke:#fbc0aa;}.cls-13,.cls-14,.cls-9{stroke-linejoin:round;}.cls-9{stroke-width:12px;}.cls-10{fill:#ffd8c9;}.cls-11{stroke:#ffffff;stroke-miterlimit:10;stroke-width:3.68px;opacity:0.1;}.cls-12{fill:#ff8b2c;}.cls-13{stroke-width:4.71px;}.cls-14{stroke:#515570;stroke-width:2px;}.cls-15{fill:#f85565;}</style></defs><title/><circle class="cls-1" cx="64" cy="64" r="60"/><circle class="cls-2" cx="64" cy="64" r="48"/><path class="cls-3" d="M106,57a4,4,0,0,1-4-4V39h0a13,13,0,0,0-25.9,0h0l6,18a12,12,0,0,0,24,0Z"/><circle class="cls-4" cx="82" cy="41" r="10"/><path class="cls-3" d="M20,57a4,4,0,0,0,4-4V39h.05A13,13,0,0,1,50,39h0L44,57a12,12,0,0,1-24,0Z"/><circle class="cls-4" cx="44" cy="41" r="10"/><path class="cls-3" d="M63,28h0A29.41,29.41,0,0,1,92.41,57.41v6.12A10.94,10.94,0,0,1,81.47,74.47H44.53A10.94,10.94,0,0,1,33.59,63.53V57.41A29.41,29.41,0,0,1,63,28Z"/><circle class="cls-5" cx="85.98" cy="74.31" r="6.43"/><path class="cls-6" d="M64,124a59.62,59.62,0,0,0,33-9.92l-2.66-7.44A10,10,0,0,0,85,100H41.05a10,10,0,0,0-9.42,6.64L29.36,113A59.74,59.74,0,0,0,64,124Z"/><polygon class="cls-7" points="77.92 100 48.09 100 45.46 106.3 54 110 51 115 63 121 74 115 72 110 80 106.3 77.92 100"/><path class="cls-8" d="M72,101.25c0,5-4,16-9,16s-9-11-9-16,4-3,9-3S72,96.28,72,101.25Z"/><line class="cls-9" x1="63" x2="63" y1="87.75" y2="101.5"/><circle class="cls-5" cx="40.02" cy="74.31" r="6.43"/><path class="cls-10" d="M63,98.84a23,23,0,0,1-23-23V60.76a23,23,0,0,1,46,0V75.87A23,23,0,0,1,63,98.84Z"/><path class="cls-11" d="M44.82,51A19.9,19.9,0,0,1,62.4,38.54"/><path class="cls-12" d="M88.82,58.82A25.82,25.82,0,0,0,62.27,33c-14.06.39-25.09,12.28-25.09,26.35v4a4.83,4.83,0,0,0,1.48,3.51,5.93,5.93,0,0,0,1.36,1V64a4,4,0,0,1,4-4h5.38a1,1,0,0,0,.9-.55L52,56l1.72,3.45a1,1,0,0,0,.9.55h1.24a1,1,0,0,0,.91-.58l1.65-3.5,1.8,3.53a1,1,0,0,0,.89.55H71.89a1,1,0,0,0,.89-.55l1.8-3.53,1.65,3.5a1,1,0,0,0,.91.58H82a4,4,0,0,1,4,4v3.89a5.93,5.93,0,0,0,1.36-1,4.83,4.83,0,0,0,1.48-3.51Z"/><line class="cls-13" x1="62.5" x2="62.5" y1="77.5" y2="81.5"/><line class="cls-14" x1="72" x2="79" y1="68" y2="68"/><line class="cls-14" x1="54" x2="47" y1="68" y2="68"/><path class="cls-6" d="M70.55,86a1,1,0,0,1,.94,1.07,8.56,8.56,0,0,1-17,0A1,1,0,0,1,55.45,86Z"/><path class="cls-15" d="M58,92.91a8.52,8.52,0,0,0,10.08,0C67,91.16,65.17,91,63,91S59,91.16,58,92.91Z"/><path class="cls-8" d="M68,88H58a1.84,1.84,0,0,1-1.73-2H69.77A1.84,1.84,0,0,1,68,88Z"/><circle class="cls-7" cx="74" cy="74" r="3"/><circle class="cls-7" cx="52" cy="74" r="3"/><circle class="cls-12" cx="71" cy="79" r="1"/><circle class="cls-12" cx="69" cy="82" r="1"/><circle class="cls-12" cx="63" cy="82" r="1"/><circle class="cls-12" cx="74" cy="81" r="1"/><circle class="cls-12" cx="77" cy="78" r="1"/><circle class="cls-12" cx="55" cy="78" r="1"/><circle class="cls-12" cx="57" cy="81" r="1"/><circle class="cls-12" cx="52" cy="80" r="1"/><circle class="cls-12" cx="47" cy="78" r="1"/><circle class="cls-12" cx="49" cy="81" r="1"/></svg>