<?xml version="1.0" ?><!-- Uploaded to: SVG Repo, www.svgrepo.com, Generator: SVG Repo Mixer Tools -->
<svg width="800px" height="800px" viewBox="0 0 128 128" data-name="Layer 1" id="Layer_1" xmlns="http://www.w3.org/2000/svg"><defs><style>.cls-1{fill:#515570;}.cls-13,.cls-14,.cls-2{fill:#393c54;}.cls-2{opacity:0.5;}.cls-3{fill:#ffd8c9;}.cls-4{fill:#f85565;}.cls-11,.cls-12,.cls-5{fill:none;stroke:#515570;stroke-linecap:round;stroke-linejoin:round;}.cls-12,.cls-5{stroke-width:2px;}.cls-10,.cls-5{opacity:0.2;}.cls-6{fill:#ffffff;}.cls-7,.cls-9{fill:#ff8475;}.cls-7{opacity:0.4;}.cls-8{fill:#356cb6;opacity:0.1;}.cls-10{fill:#00adfe;}.cls-11{stroke-width:2.33px;}.cls-13{opacity:0.25;}</style></defs><title/><circle class="cls-1" cx="64" cy="64" r="60"/><circle class="cls-2" cx="64" cy="64" r="48"/><path class="cls-3" d="M35,68.36V52.42c0-14.69,10.41-27.62,24.9-30A30,30,0,0,1,95,52V68.78A30,30,0,0,1,59.9,98.36C45.41,96,35,83.05,35,68.36Z"/><path class="cls-4" d="M79.62,86H48.38A38.67,38.67,0,0,0,17.3,101.65a60,60,0,0,0,93.4,0A38.67,38.67,0,0,0,79.62,86Z"/><path class="cls-5" d="M56.69,41.56s-6.43.76-10.82,4.56"/><path class="cls-6" d="M93.14,41.91C86.49,32.52,77.69,24.8,65.35,24.8S43.14,31.39,37.11,41.06c-2,3.18,1.66,2.31,5.15.24S61,37,61,37s-4,2-5.63,4.71c4.26.46,11.4-3.95,11.4-3.95a11.55,11.55,0,0,0-1.55,3.95c4-1.22,6.87-2.58,8.54-4.41S96.23,46.28,93.14,41.91Z"/><path class="cls-4" d="M92.7,40.9s-.47-19.73-19.16-25S39.12,20.76,31.47,28.44C24,36,20.69,42.72,19.32,43.33,26,39.16,34.92,39,37.25,41.2c0,0,10-13.67,28.1-13.67A34.59,34.59,0,0,1,92.7,40.9Z"/><circle class="cls-7" cx="78.64" cy="63.09" r="7.02"/><circle class="cls-7" cx="52.67" cy="63.09" r="7.02"/><path class="cls-6" d="M65,102.59a42.5,42.5,0,0,0,32.31-23.7c10.82-22-3.73-36-3.73-36a109,109,0,0,1,1.09,12.29c.29,7.46-2.48,11.56-5.41,13.9s-7.46,2.34-9.87-2.2S71.3,65.43,65,65.43s-12-3.07-14.39,1.46-6.94,4.54-9.87,2.2-5.7-6.44-5.41-13.9.88-11.35.88-11.35-14.93,13.1-4.1,35.05A43,43,0,0,0,65,102.59Z"/><path class="cls-8" d="M33.34,50.19c-.18,4.77.89,8.16,2.44,10.6a22.44,22.44,0,0,1-.44-5.6c.29-7.46.88-11.35.88-11.35A20.68,20.68,0,0,0,33.5,47C33.44,48,33.39,49,33.34,50.19Z"/><path class="cls-8" d="M98.06,49.33c1.85,6.15,2.21,14.52-2.74,24.56l-.33.65c-13.47,26.28-51,26.29-64.54,0l-.33-.66c-.11-.22-.2-.44-.3-.65a40.72,40.72,0,0,0,2.3,5.65A43,43,0,0,0,65,102.59a42.5,42.5,0,0,0,32.31-23.7C103.78,65.78,101.19,55.49,98.06,49.33Z"/><ellipse class="cls-9" cx="65.42" cy="63.09" rx="6.78" ry="4.49"/><circle class="cls-10" cx="77.91" cy="54.46" r="7.03"/><circle class="cls-10" cx="52.75" cy="54.46" r="7.03"/><circle class="cls-11" cx="77.91" cy="54.46" r="7.03"/><circle class="cls-11" cx="52.75" cy="54.46" r="7.03"/><path class="cls-12" d="M55.45,54.6a2.71,2.71,0,1,1-5.41,0"/><path class="cls-12" d="M80.61,54.6a2.71,2.71,0,1,1-5.41,0"/><path class="cls-11" d="M70.89,53.7c-.78,1.34-3,2.3-5.55,2.3s-4.72-.94-5.52-2.26"/><line class="cls-11" x1="84.09" x2="91.32" y1="51.11" y2="47.43"/><line class="cls-11" x1="46.26" x2="39.03" y1="51.11" y2="47.43"/><path class="cls-13" d="M37.25,41.2c-.71-5.26,2.32-10.52,2.32-10.52S29.29,32.86,24.83,41.2C30.66,39.7,36.42,39.32,37.25,41.2Z"/><path class="cls-5" d="M74.54,42.73s6.44-.41,10.83,3.39"/><circle class="cls-6" cx="21.23" cy="42.42" r="6.68"/><path class="cls-14" d="M72.55,71a1,1,0,0,1,1,1.06,8.55,8.55,0,0,1-17,0,1,1,0,0,1,1-1.06Z"/><path class="cls-4" d="M65,79.66a8.51,8.51,0,0,0,6.29-2.79,9.06,9.06,0,0,0-12.58,0A8.51,8.51,0,0,0,65,79.66Z"/><circle class="cls-6" cx="64" cy="114" r="4"/><path class="cls-13" d="M86.88,119.46a59.79,59.79,0,0,0,6.82-3.34L89.7,105Z"/><path class="cls-13" d="M41.12,119.46,38.3,105l-4,11.12A59.79,59.79,0,0,0,41.12,119.46Z"/></svg>