<?xml version="1.0" encoding="utf-8"?>
<!-- Generator: Adobe Illustrator 26.1.0, SVG Export Plug-In . SVG Version: 6.00 Build 0)  -->
<svg version="1.1" id="Layer_1" xmlns="http://www.w3.org/2000/svg" xmlns:xlink="http://www.w3.org/1999/xlink" x="0px" y="0px"
	 viewBox="0 0 100 100" style="enable-background:new 0 0 100 100;" xml:space="preserve">
<style type="text/css">
	.st0{fill:#FDCE5E;}
	.st1{fill:#EFB94D;}
	.st2{opacity:0.45;}
	.st3{fill:#FFFFFF;}
	.st4{opacity:0.28;}
	.st5{opacity:0.35;fill:#C69030;}
</style>
<g>
	<g>
		
			<ellipse transform="matrix(0.9882 -0.1531 0.1531 0.9882 -7.5653 10.3107)" class="st0" cx="63.2" cy="54.3" rx="31.8" ry="31.8"/>
		<path class="st1" d="M63.2,29.1C49.3,29.1,38,40.4,38,54.3c0,13.9,11.3,25.2,25.2,25.2s25.2-11.3,25.2-25.2
			C88.4,40.4,77.1,29.1,63.2,29.1z M63.2,75.4c-11.7,0-21.1-9.4-21.1-21.1c0-11.7,9.4-21.1,21.1-21.1s21.1,9.4,21.1,21.1
			C84.3,65.9,74.8,75.4,63.2,75.4z"/>
		
			<ellipse transform="matrix(0.9958 -9.201317e-02 9.201317e-02 0.9958 -4.7265 6.0427)" class="st0" cx="63.2" cy="54.3" rx="21.1" ry="21.1"/>
		<g class="st2">
			<path class="st3" d="M38,54.3c0,0.6,0,1.3,0.1,1.9h-6.7c0-0.6-0.1-1.3-0.1-1.9c0-0.6,0-1.3,0.1-1.9h6.7C38,53,38,53.6,38,54.3z"
				/>
			<path class="st3" d="M39.4,45.9L39.4,45.9c-0.4,1.2-0.8,2.4-1,3.7L32,47.9c0.3-1.3,0.6-2.5,1-3.7L39.4,45.9z"/>
			<path class="st3" d="M39.4,62.6L39.4,62.6L33,64.4c-0.4-1.2-0.7-2.4-1-3.7l6.4-1.7C38.6,60.2,39,61.4,39.4,62.6z"/>
			<path class="st3" d="M42.4,68.5l-5.8,3.3c-0.7-1.1-1.3-2.2-1.9-3.3l5.8-3.3C41,66.3,41.7,67.4,42.4,68.5z"/>
			<path class="st3" d="M42.4,40.1c-0.7,1.1-1.4,2.2-1.9,3.3l-5.8-3.3c0.6-1.1,1.2-2.3,1.9-3.3L42.4,40.1z"/>
			<path class="st3" d="M46.8,73.4l-4.7,4.7c-1-0.8-1.9-1.8-2.7-2.7l4.7-4.7L46.8,73.4z"/>
			<path class="st3" d="M46.8,35.2c-1,0.8-1.9,1.7-2.7,2.7l-4.7-4.7c0.8-1,1.8-1.9,2.7-2.7L46.8,35.2z"/>
			<path class="st3" d="M52.3,77l-3.3,5.8c-1.1-0.6-2.3-1.2-3.3-1.9l3.3-5.8C50,75.8,51.1,76.4,52.3,77z"/>
			<path class="st3" d="M52.3,31.6c-1.2,0.6-2.3,1.2-3.3,1.9l-3.3-5.8c1.1-0.7,2.2-1.3,3.3-1.9L52.3,31.6z"/>
			<path class="st3" d="M58.5,79l-1.7,6.4c-1.3-0.3-2.5-0.6-3.7-1l1.7-6.4L58.5,79z"/>
			<path class="st3" d="M58.5,29.5c-1.3,0.2-2.5,0.6-3.7,1h0l-1.7-6.4c1.2-0.4,2.4-0.7,3.7-1L58.5,29.5z"/>
			<path class="st3" d="M65.1,22.5v6.7c-0.6,0-1.3-0.1-1.9-0.1c-0.6,0-1.3,0-1.9,0.1v-6.7c0.6,0,1.3-0.1,1.9-0.1
				C63.8,22.4,64.5,22.5,65.1,22.5z"/>
			<path class="st3" d="M63.2,79.5c0.6,0,1.3,0,1.9-0.1v6.7c-0.6,0-1.3,0.1-1.9,0.1c-0.6,0-1.3,0-1.9-0.1v-6.7
				C61.9,79.4,62.5,79.5,63.2,79.5z"/>
			<path class="st3" d="M73.2,84.5c-1.2,0.4-2.4,0.7-3.7,1L67.8,79c1.3-0.2,2.5-0.6,3.7-1L73.2,84.5z"/>
			<path class="st3" d="M73.2,24.1l-1.7,6.4h0c-1.2-0.4-2.4-0.8-3.7-1l1.7-6.4C70.8,23.3,72,23.7,73.2,24.1z"/>
			<path class="st3" d="M80.7,80.8c-1.1,0.7-2.2,1.3-3.3,1.9L74.1,77c1.2-0.6,2.3-1.2,3.3-1.9L80.7,80.8z"/>
			<path class="st3" d="M80.7,27.7l-3.3,5.8c-1.1-0.7-2.2-1.4-3.3-1.9l3.3-5.8C78.5,26.4,79.7,27,80.7,27.7z"/>
			<path class="st3" d="M87,75.4c-0.8,1-1.8,1.9-2.7,2.7l-4.7-4.7c1-0.8,1.9-1.7,2.7-2.7L87,75.4z"/>
			<path class="st3" d="M87,33.2l-4.7,4.7c-0.8-1-1.7-1.9-2.7-2.7l4.7-4.7C85.2,31.3,86.1,32.2,87,33.2z"/>
			<path class="st3" d="M91.6,68.5c-0.6,1.1-1.2,2.3-1.9,3.3L84,68.5c0.7-1.1,1.4-2.2,1.9-3.3L91.6,68.5z"/>
			<path class="st3" d="M91.6,40.1l-5.8,3.3c-0.6-1.2-1.2-2.3-1.9-3.3l5.8-3.3C90.4,37.8,91.1,38.9,91.6,40.1z"/>
			<path class="st3" d="M94.4,60.7c-0.3,1.3-0.6,2.5-1,3.7l-6.4-1.7v0c0.4-1.2,0.8-2.4,1-3.7L94.4,60.7z"/>
			<path class="st3" d="M94.4,47.9l-6.4,1.7l-1-3.7v0l6.4-1.7C93.8,45.4,94.1,46.6,94.4,47.9z"/>
			<path class="st3" d="M95,54.3c0,0.6,0,1.3-0.1,1.9h-6.7c0-0.6,0.1-1.3,0.1-1.9s0-1.3-0.1-1.9h6.7C95,53,95,53.6,95,54.3z"/>
			<g class="st4">
				<path class="st3" d="M38.4,58.9L32,60.7c0.3,1.3,0.6,2.5,1,3.7l6.4-1.7v0C39,61.4,38.6,60.2,38.4,58.9z M33,44.2
					c-0.4,1.2-0.7,2.4-1,3.7l6.4,1.7c0.2-1.3,0.6-2.5,1-3.7v0L33,44.2z M42.1,30.5c-1,0.8-1.9,1.8-2.7,2.7l4.7,4.7
					c0.8-1,1.7-1.9,2.7-2.7L42.1,30.5z M56.8,23.1c-1.3,0.3-2.5,0.6-3.7,1l1.7,6.4h0c1.2-0.4,2.4-0.8,3.7-1L56.8,23.1z M69.5,23.1
					l-1.7,6.4c1.3,0.2,2.5,0.6,3.7,1h0l1.7-6.4C72,23.7,70.8,23.3,69.5,23.1z M84.3,30.5l-4.7,4.7c1,0.8,1.9,1.7,2.7,2.7l4.7-4.7
					C86.1,32.2,85.2,31.3,84.3,30.5z M93.4,44.2l-6.4,1.7v0c0.4,1.2,0.8,2.4,1,3.7l6.4-1.7C94.1,46.6,93.8,45.4,93.4,44.2z
					 M94.9,52.4h-6.7c0,0.6,0.1,1.3,0.1,1.9s0,1.3-0.1,1.9h6.7c0-0.6,0.1-1.3,0.1-1.9C95,53.6,95,53,94.9,52.4z M85.9,65.2
					c-0.6,1.2-1.2,2.3-1.9,3.3l5.8,3.3c0.7-1.1,1.3-2.2,1.9-3.3L85.9,65.2z M77.4,75.1c-1.1,0.7-2.2,1.4-3.3,1.9l3.3,5.8
					c1.1-0.6,2.3-1.2,3.3-1.9L77.4,75.1z M48.9,75.1l-3.3,5.8c1.1,0.7,2.2,1.3,3.3,1.9l3.3-5.8C51.1,76.4,50,75.8,48.9,75.1z
					 M44.1,70.7l-4.7,4.7c0.8,1,1.8,1.9,2.7,2.7l4.7-4.7C45.8,72.6,44.9,71.7,44.1,70.7z M54.8,78l-1.7,6.4c1.2,0.4,2.4,0.7,3.7,1
					l1.7-6.4C57.2,78.8,56,78.5,54.8,78z M71.5,78c-1.2,0.4-2.4,0.8-3.7,1l1.7,6.4c1.3-0.3,2.5-0.6,3.7-1L71.5,78z M82.3,70.7
					c-0.8,1-1.7,1.9-2.7,2.7l4.7,4.7c1-0.8,1.9-1.8,2.7-2.7L82.3,70.7z M87.9,58.9c-0.2,1.3-0.6,2.5-1,3.7v0l6.4,1.7
					c0.4-1.2,0.7-2.4,1-3.7L87.9,58.9z M89.7,36.7L84,40.1c0.7,1.1,1.4,2.2,1.9,3.3l5.8-3.3C91.1,38.9,90.4,37.8,89.7,36.7z
					 M77.4,25.8l-3.3,5.8c1.2,0.6,2.3,1.2,3.3,1.9l3.3-5.8C79.7,27,78.5,26.4,77.4,25.8z M63.2,22.4c-0.6,0-1.3,0-1.9,0.1v6.7
					c0.6,0,1.3-0.1,1.9-0.1c0.6,0,1.3,0,1.9,0.1v-6.7C64.5,22.5,63.8,22.4,63.2,22.4z M48.9,25.8c-1.1,0.6-2.3,1.2-3.3,1.9l3.3,5.8
					c1.1-0.7,2.2-1.4,3.3-1.9L48.9,25.8z M36.6,36.7c-0.7,1.1-1.3,2.2-1.9,3.3l5.8,3.3c0.6-1.2,1.2-2.3,1.9-3.3L36.6,36.7z
					 M38.1,52.4h-6.7c0,0.6-0.1,1.3-0.1,1.9c0,0.6,0,1.3,0.1,1.9h6.7c0-0.6-0.1-1.3-0.1-1.9S38,53,38.1,52.4z M40.5,65.2l-5.8,3.3
					c0.6,1.1,1.2,2.3,1.9,3.3l5.8-3.3C41.7,67.4,41,66.3,40.5,65.2z M63.2,79.5c-0.6,0-1.3,0-1.9-0.1v6.7h3.8v-6.7
					C64.5,79.4,63.8,79.5,63.2,79.5z"/>
				<g>
					<path class="st3" d="M65.1,22.5v6.7c-0.6,0-1.3-0.1-1.9-0.1c-0.6,0-1.3,0-1.9,0.1v-6.7c0.6,0,1.3-0.1,1.9-0.1
						C63.8,22.4,64.5,22.5,65.1,22.5z"/>
					<path class="st3" d="M65.1,86.1v-6.7c-0.6,0-1.3,0.1-1.9,0.1c-0.6,0-1.3,0-1.9-0.1v6.7H65.1z"/>
				</g>
				<g>
					<path class="st3" d="M58.5,29.5c-1.3,0.2-2.5,0.6-3.7,1h0l-1.7-6.4c1.2-0.4,2.4-0.7,3.7-1L58.5,29.5z"/>
					<path class="st3" d="M73.2,84.5c-1.2,0.4-2.4,0.7-3.7,1L67.8,79c1.3-0.2,2.5-0.6,3.7-1L73.2,84.5z"/>
				</g>
				<g>
					<path class="st3" d="M52.3,31.6c-1.2,0.6-2.3,1.2-3.3,1.9l-3.3-5.8c1.1-0.7,2.2-1.3,3.3-1.9L52.3,31.6z"/>
					<path class="st3" d="M80.7,80.8c-1.1,0.7-2.2,1.3-3.3,1.9L74.1,77c1.2-0.6,2.3-1.2,3.3-1.9L80.7,80.8z"/>
				</g>
				<g>
					<path class="st3" d="M46.8,35.2c-1,0.8-1.9,1.7-2.7,2.7l-4.7-4.7c0.8-1,1.8-1.9,2.7-2.7L46.8,35.2z"/>
					<path class="st3" d="M87,75.4c-0.8,1-1.8,1.9-2.7,2.7l-4.7-4.7c1-0.8,1.9-1.7,2.7-2.7L87,75.4z"/>
				</g>
				<g>
					<path class="st3" d="M42.4,40.1c-0.7,1.1-1.4,2.2-1.9,3.3l-5.8-3.3c0.6-1.1,1.2-2.3,1.9-3.3L42.4,40.1z"/>
					<path class="st3" d="M91.6,68.5c-0.6,1.1-1.2,2.3-1.9,3.3L84,68.5c0.7-1.1,1.4-2.2,1.9-3.3L91.6,68.5z"/>
				</g>
				<g>
					<path class="st3" d="M39.4,45.9L39.4,45.9c-0.4,1.2-0.8,2.4-1,3.7L32,47.9c0.3-1.3,0.6-2.5,1-3.7L39.4,45.9z"/>
					<path class="st3" d="M94.4,60.7c-0.3,1.3-0.6,2.5-1,3.7l-6.4-1.7v0c0.4-1.2,0.8-2.4,1-3.7L94.4,60.7z"/>
				</g>
				<g>
					<path class="st3" d="M38,54.3c0,0.6,0,1.3,0.1,1.9h-6.7c0-0.6-0.1-1.3-0.1-1.9c0-0.6,0-1.3,0.1-1.9h6.7C38,53,38,53.6,38,54.3z
						"/>
					<path class="st3" d="M95,54.3c0,0.6,0,1.3-0.1,1.9h-6.7c0-0.6,0.1-1.3,0.1-1.9s0-1.3-0.1-1.9h6.7C95,53,95,53.6,95,54.3z"/>
				</g>
				<g>
					<path class="st3" d="M39.4,62.6L39.4,62.6L33,64.4c-0.4-1.2-0.7-2.4-1-3.7l6.4-1.7C38.6,60.2,39,61.4,39.4,62.6z"/>
					<path class="st3" d="M94.4,47.9l-6.4,1.7l-1-3.7v0l6.4-1.7C93.8,45.4,94.1,46.6,94.4,47.9z"/>
				</g>
				<g>
					<path class="st3" d="M42.4,68.5l-5.8,3.3c-0.7-1.1-1.3-2.2-1.9-3.3l5.8-3.3C41,66.3,41.7,67.4,42.4,68.5z"/>
					<path class="st3" d="M91.6,40.1l-5.8,3.3c-0.6-1.2-1.2-2.3-1.9-3.3l5.8-3.3C90.4,37.8,91.1,38.9,91.6,40.1z"/>
				</g>
				<g>
					<path class="st3" d="M46.8,73.4l-4.7,4.7c-1-0.8-1.9-1.8-2.7-2.7l4.7-4.7L46.8,73.4z"/>
					<path class="st3" d="M87,33.2l-4.7,4.7c-0.8-1-1.7-1.9-2.7-2.7l4.7-4.7C85.2,31.3,86.1,32.2,87,33.2z"/>
				</g>
				<g>
					<path class="st3" d="M52.3,77l-3.3,5.8c-1.1-0.6-2.3-1.2-3.3-1.9l3.3-5.8C50,75.8,51.1,76.4,52.3,77z"/>
					<path class="st3" d="M80.7,27.7l-3.3,5.8c-1.1-0.7-2.2-1.4-3.3-1.9l3.3-5.8C78.5,26.4,79.7,27,80.7,27.7z"/>
				</g>
				<g>
					<path class="st3" d="M58.5,79l-1.7,6.4c-1.3-0.3-2.5-0.6-3.7-1l1.7-6.4L58.5,79z"/>
					<path class="st3" d="M73.2,24.1l-1.7,6.4h0c-1.2-0.4-2.4-0.8-3.7-1l1.7-6.4C70.8,23.3,72,23.7,73.2,24.1z"/>
				</g>
			</g>
		</g>
		<g>
			<path class="st3" d="M65.2,66v5.1h-4.4V66c-3.1-0.4-6.1-1.7-8.4-3.6l2.4-4.7c2.4,2.1,6,3.5,8.4,3.5c1.8,0,2.9-0.7,2.9-1.9
				c0-3.9-12.2-1.6-12.2-9.8c0-3.7,2.7-6.2,6.9-6.9v-4.9h4.4v4.8c2.7,0.3,5.3,1.2,7.3,2.5l-2.3,4.8c-2.5-1.4-5.6-2.5-7.5-2.5
				c-1.5,0-2.4,0.5-2.4,1.6c0,3.8,12.2,1.7,12.2,10C72.5,63,69.4,65.4,65.2,66z"/>
		</g>
	</g>
	<path class="st5" d="M75,45.7C75,45.7,75,45.8,75,45.7c0,0.3,0,0.5,0,0.7c0,0.1,0,0.1,0,0.2c0,0.2,0,0.4,0,0.6c0,0.1,0,0.2,0,0.3
		c0,0,0,0.1,0,0.1c-0.1,1.6-0.3,3.2-0.6,4.7c0,0.1-0.1,0.3-0.1,0.4c0,0.1,0,0.2-0.1,0.3c0,0.2-0.1,0.4-0.1,0.6c0,0.1,0,0.2-0.1,0.2
		c0,0.2-0.1,0.3-0.1,0.5c0,0.1,0,0.2-0.1,0.2c0,0.2-0.1,0.3-0.1,0.5c0,0.1-0.1,0.2-0.1,0.3c-0.1,0.2-0.1,0.3-0.2,0.5
		c-0.5,1.4-1.1,2.8-1.7,4.1l0,0c0,0,0,0.1,0,0.1c-0.1,0.1-0.1,0.2-0.2,0.3c-0.1,0.2-0.2,0.3-0.2,0.5c-0.1,0.1-0.1,0.2-0.2,0.3
		c-0.1,0.1-0.1,0.2-0.2,0.3c-0.1,0.1-0.1,0.2-0.2,0.3c-0.1,0.2-0.2,0.3-0.3,0.5l-0.2,0.3c-0.1,0.1-0.1,0.2-0.2,0.3
		C70,62.8,70,62.9,69.9,63c0,0.1-0.1,0.2-0.1,0.2h0c-0.8,1.3-1.7,2.4-2.7,3.6l0,0c0,0-0.1,0.1-0.1,0.1c-0.1,0.2-0.3,0.3-0.4,0.5
		c-0.1,0.1-0.1,0.1-0.2,0.2c-0.2,0.2-0.4,0.4-0.6,0.6c0,0,0,0,0,0c-0.2,0.2-0.4,0.4-0.6,0.6C65,68.9,64.9,69,64.9,69
		c-0.2,0.1-0.3,0.3-0.5,0.4c0,0-0.1,0.1-0.1,0.1l0,0c-1.1,1-2.3,1.9-3.6,2.7v0c-0.1,0.1-0.2,0.1-0.3,0.2c-0.1,0.1-0.2,0.1-0.3,0.2
		c-0.1,0.1-0.2,0.2-0.4,0.2c-0.1,0.1-0.2,0.1-0.2,0.2c-0.2,0.1-0.3,0.2-0.5,0.3c-0.1,0-0.1,0.1-0.2,0.1c-0.1,0.1-0.2,0.1-0.4,0.2
		c-0.1,0-0.1,0.1-0.2,0.1c-0.2,0.1-0.3,0.2-0.5,0.3c-0.1,0-0.2,0.1-0.3,0.1c0,0-0.1,0-0.1,0l0,0c-1.3,0.7-2.7,1.2-4.1,1.7
		c-0.2,0.1-0.3,0.1-0.5,0.2c-0.1,0-0.2,0.1-0.3,0.1c-0.2,0-0.3,0.1-0.5,0.1c-0.1,0-0.2,0-0.3,0.1c-0.2,0-0.3,0.1-0.5,0.1
		c-0.1,0-0.2,0-0.3,0.1c-0.2,0-0.4,0.1-0.6,0.1c-0.1,0-0.2,0-0.3,0.1c-0.1,0-0.2,0.1-0.4,0.1c-0.8,0.2-1.5,0.3-2.3,0.4
		c-0.8,0.1-1.6,0.2-2.4,0.2c0,0-0.1,0-0.1,0c-0.1,0-0.2,0-0.3,0c-0.2,0-0.4,0-0.6,0c-0.1,0-0.1,0-0.2,0c-0.2,0-0.4,0-0.6,0
		c0,0-0.1,0-0.1,0c0,0-0.1,0-0.1,0c-0.2,0-0.4,0-0.6,0c-0.1,0-0.1,0-0.2,0c-0.2,0-0.4,0-0.6,0c-0.1,0-0.2,0-0.3,0
		c0,0-0.1-0.1-0.1-0.1c-0.2-0.2-0.4-0.4-0.6-0.6l0,0c-0.2-0.2-0.4-0.4-0.6-0.6C40,76.1,39.9,76,39.9,76c-0.1-0.2-0.3-0.3-0.4-0.5
		c0,0-0.1-0.1-0.1-0.1l0,0c-1-1.1-1.9-2.3-2.7-3.6h0c0,0,0-0.1-0.1-0.1c-0.1-0.2-0.3-0.4-0.4-0.6c0-0.1-0.1-0.1-0.1-0.1
		c-0.2-0.2-0.3-0.5-0.4-0.7c0,0,0,0,0,0c-0.2-0.3-0.3-0.5-0.5-0.8c0,0,0,0,0-0.1c-0.1-0.3-0.3-0.5-0.4-0.8c0,0,0,0,0-0.1v0
		c-0.7-1.3-1.2-2.7-1.7-4.1c0,0,0,0,0,0c-0.1-0.3-0.2-0.5-0.3-0.8c0-0.1,0-0.1-0.1-0.2c-0.1-0.2-0.1-0.4-0.2-0.7
		c0-0.1,0-0.1-0.1-0.2c-0.1-0.3-0.1-0.5-0.2-0.8c0,0,0-0.1,0-0.1c-0.4-1.7-0.7-3.5-0.8-5.4h0c0,0,0,0,0,0c0-0.3,0-0.5,0-0.8
		c0-0.1,0-0.1,0-0.2c0-0.3,0-0.6,0-0.9c0-0.3,0-0.6,0-0.9c0-0.1,0-0.1,0-0.2c0-0.3,0-0.5,0-0.8c0,0,0,0,0,0h0
		c0.1-1.8,0.4-3.6,0.8-5.4c0,0,0-0.1,0-0.1c0.1-0.3,0.1-0.5,0.2-0.8c0-0.1,0-0.1,0.1-0.2c0.1-0.2,0.1-0.4,0.2-0.7
		c0-0.1,0-0.1,0.1-0.2c0.1-0.3,0.2-0.5,0.3-0.8c0,0,0,0,0,0c0.5-1.4,1.1-2.8,1.7-4.1v0c0,0,0,0,0-0.1c0.1-0.3,0.3-0.5,0.4-0.8
		c0,0,0,0,0-0.1c0.1-0.3,0.3-0.5,0.5-0.8c0,0,0,0,0,0c0.1-0.2,0.3-0.5,0.4-0.7c0-0.1,0.1-0.1,0.1-0.2c0.1-0.2,0.3-0.4,0.4-0.6
		c0,0,0-0.1,0.1-0.1l0,0c0.8-1.3,1.7-2.4,2.7-3.6l0,0c0,0,0.1-0.1,0.1-0.1c0.1-0.2,0.3-0.3,0.4-0.5c0.1-0.1,0.1-0.1,0.2-0.2
		c0.2-0.2,0.4-0.4,0.6-0.6l0.1-0.1c0.2-0.2,0.4-0.4,0.6-0.6c0.1-0.1,0.1-0.1,0.2-0.2c0.2-0.1,0.3-0.3,0.5-0.4c0,0,0.1-0.1,0.1-0.1
		l0,0c1.1-1,2.3-1.9,3.6-2.7l0,0c0,0,0.1,0,0.1-0.1c0.2-0.1,0.4-0.3,0.6-0.4c0.1,0,0.1-0.1,0.1-0.1c0.5-0.3,1.1-0.6,1.6-0.9
		c0,0,0,0,0,0c0.3-0.1,0.5-0.3,0.8-0.4c0,0,0,0,0.1,0v0c1.3-0.7,2.7-1.2,4.1-1.7c0,0,0,0,0,0c0.3-0.1,0.5-0.2,0.8-0.3
		c0.1,0,0.1,0,0.2-0.1c0.2-0.1,0.4-0.1,0.7-0.2c0.1,0,0.1,0,0.2-0.1c0.3-0.1,0.5-0.1,0.8-0.2c0,0,0.1,0,0.1,0
		c0.9-0.2,1.8-0.4,2.7-0.5c0.9-0.1,1.8-0.2,2.7-0.3c0,0,0,0,0,0c0.3,0,0.5,0,0.8,0c0.1,0,0.1,0,0.2,0c0.3,0,0.6,0,0.9,0
		c0.3,0,0.6,0,0.9,0c0.1,0,0.1,0,0.2,0c0.2,0,0.5,0,0.7,0c0,0,0.1,0.1,0.1,0.1c0.2,0.2,0.4,0.4,0.6,0.6c0,0,0,0,0.1,0.1
		c0.2,0.2,0.4,0.4,0.6,0.6c0.1,0.1,0.1,0.1,0.2,0.2c0.1,0.1,0.3,0.3,0.4,0.5c0,0,0.1,0.1,0.1,0.1l0,0c1,1.1,1.9,2.3,2.7,3.6h0
		c0.1,0.1,0.1,0.2,0.2,0.2c0.1,0.1,0.1,0.2,0.2,0.3c0.1,0.1,0.2,0.2,0.2,0.4c0.1,0.1,0.1,0.2,0.2,0.3c0.1,0.2,0.2,0.3,0.3,0.5
		c0,0.1,0.1,0.2,0.1,0.3c0.1,0.1,0.1,0.2,0.2,0.3c0.1,0.1,0.1,0.2,0.1,0.3c0.1,0.2,0.2,0.3,0.2,0.5c0.1,0.1,0.1,0.2,0.2,0.3
		c0,0,0,0.1,0,0.1l0,0c0.7,1.3,1.2,2.7,1.7,4.1c0.1,0.2,0.1,0.3,0.2,0.5c0,0.1,0.1,0.2,0.1,0.2c0,0.2,0.1,0.3,0.1,0.5
		c0,0.1,0,0.2,0.1,0.2c0,0.2,0.1,0.3,0.1,0.5c0,0.1,0,0.2,0.1,0.2c0,0.2,0.1,0.4,0.1,0.6c0,0.1,0,0.2,0.1,0.3c0,0.1,0.1,0.3,0.1,0.4
		c0.3,1.5,0.5,3.1,0.6,4.7c0,0,0,0.1,0,0.1c0,0.1,0,0.2,0,0.3c0,0.2,0,0.4,0,0.6c0,0.1,0,0.1,0,0.2C75,45.2,75,45.4,75,45.7
		C75,45.7,75,45.7,75,45.7z"/>
	<g>
		
			<ellipse transform="matrix(0.9716 -0.2366 0.2366 0.9716 -9.7723 10.0131)" class="st0" cx="36.8" cy="45.7" rx="31.8" ry="31.8"/>
		<path class="st1" d="M36.8,20.5c-13.9,0-25.2,11.3-25.2,25.2c0,13.9,11.3,25.2,25.2,25.2C50.7,70.9,62,59.6,62,45.7
			C62,31.8,50.7,20.5,36.8,20.5z M36.8,66.8c-11.7,0-21.1-9.4-21.1-21.1c0-11.7,9.4-21.1,21.1-21.1c11.7,0,21.1,9.4,21.1,21.1
			C57.9,57.4,48.5,66.8,36.8,66.8z"/>
		
			<ellipse transform="matrix(0.7071 -0.7071 0.7071 0.7071 -21.5414 39.4342)" class="st0" cx="36.8" cy="45.7" rx="21.1" ry="21.1"/>
		<g class="st2">
			<path class="st3" d="M11.6,45.7c0,0.6,0,1.3,0.1,1.9H5.1C5,47,5,46.4,5,45.7c0-0.6,0-1.3,0.1-1.9h6.7
				C11.7,44.4,11.6,45.1,11.6,45.7z"/>
			<path class="st3" d="M13.1,37.4L13.1,37.4c-0.4,1.2-0.8,2.4-1,3.7l-6.4-1.7c0.3-1.3,0.6-2.5,1-3.7L13.1,37.4z"/>
			<path class="st3" d="M13.1,54.1L13.1,54.1l-6.4,1.7c-0.4-1.2-0.7-2.4-1-3.7l6.4-1.7C12.3,51.6,12.6,52.9,13.1,54.1z"/>
			<path class="st3" d="M16,59.9l-5.8,3.3c-0.7-1.1-1.3-2.2-1.9-3.3l5.8-3.3C14.7,57.8,15.3,58.9,16,59.9z"/>
			<path class="st3" d="M16,31.5c-0.7,1.1-1.4,2.2-1.9,3.3l-5.8-3.3c0.6-1.1,1.2-2.3,1.9-3.3L16,31.5z"/>
			<path class="st3" d="M20.4,64.8l-4.7,4.7c-1-0.8-1.9-1.8-2.7-2.7l4.7-4.7L20.4,64.8z"/>
			<path class="st3" d="M20.4,26.6c-1,0.8-1.9,1.7-2.7,2.7L13,24.6c0.8-1,1.8-1.9,2.7-2.7L20.4,26.6z"/>
			<path class="st3" d="M25.9,68.4l-3.3,5.8c-1.1-0.6-2.3-1.2-3.3-1.9l3.3-5.8C23.7,67.2,24.8,67.9,25.9,68.4z"/>
			<path class="st3" d="M25.9,23c-1.2,0.6-2.3,1.2-3.3,1.9l-3.3-5.8c1.1-0.7,2.2-1.3,3.3-1.9L25.9,23z"/>
			<path class="st3" d="M32.2,70.5l-1.7,6.4c-1.3-0.3-2.5-0.6-3.7-1l1.7-6.4L32.2,70.5z"/>
			<path class="st3" d="M32.2,21c-1.3,0.2-2.5,0.6-3.7,1h0l-1.7-6.4c1.2-0.4,2.4-0.7,3.7-1L32.2,21z"/>
			<path class="st3" d="M38.7,13.9v6.7c-0.6,0-1.3-0.1-1.9-0.1c-0.6,0-1.3,0-1.9,0.1v-6.7c0.6,0,1.3-0.1,1.9-0.1
				C37.5,13.9,38.1,13.9,38.7,13.9z"/>
			<path class="st3" d="M36.8,70.9c0.6,0,1.3,0,1.9-0.1v6.7c-0.6,0-1.3,0.1-1.9,0.1c-0.6,0-1.3,0-1.9-0.1v-6.7
				C35.5,70.9,36.2,70.9,36.8,70.9z"/>
			<path class="st3" d="M46.9,75.9c-1.2,0.4-2.4,0.7-3.7,1l-1.7-6.4c1.3-0.2,2.5-0.6,3.7-1L46.9,75.9z"/>
			<path class="st3" d="M46.9,15.5L45.2,22h0c-1.2-0.4-2.4-0.8-3.7-1l1.7-6.4C44.5,14.8,45.7,15.1,46.9,15.5z"/>
			<path class="st3" d="M54.4,72.3c-1.1,0.7-2.2,1.3-3.3,1.9l-3.3-5.8c1.2-0.6,2.3-1.2,3.3-1.9L54.4,72.3z"/>
			<path class="st3" d="M54.4,19.2l-3.3,5.8c-1.1-0.7-2.2-1.4-3.3-1.9l3.3-5.8C52.2,17.8,53.3,18.5,54.4,19.2z"/>
			<path class="st3" d="M60.7,66.8c-0.8,1-1.8,1.9-2.7,2.7l-4.7-4.7c1-0.8,1.9-1.7,2.7-2.7L60.7,66.8z"/>
			<path class="st3" d="M60.7,24.6l-4.7,4.7c-0.8-1-1.7-1.9-2.7-2.7l4.7-4.7C58.9,22.7,59.8,23.7,60.7,24.6z"/>
			<path class="st3" d="M65.3,59.9c-0.6,1.1-1.2,2.3-1.9,3.3l-5.8-3.3c0.7-1.1,1.4-2.2,1.9-3.3L65.3,59.9z"/>
			<path class="st3" d="M65.3,31.5l-5.8,3.3c-0.6-1.2-1.2-2.3-1.9-3.3l5.8-3.3C64.1,29.2,64.7,30.3,65.3,31.5z"/>
			<path class="st3" d="M68,52.1c-0.3,1.3-0.6,2.5-1,3.7l-6.4-1.7v0c0.4-1.2,0.8-2.4,1-3.7L68,52.1z"/>
			<path class="st3" d="M68,39.3l-6.4,1.7l-1-3.7v0l6.4-1.7C67.4,36.8,67.8,38.1,68,39.3z"/>
			<path class="st3" d="M68.7,45.7c0,0.6,0,1.3-0.1,1.9h-6.7c0-0.6,0.1-1.3,0.1-1.9c0-0.6,0-1.3-0.1-1.9h6.7
				C68.6,44.4,68.7,45.1,68.7,45.7z"/>
			<g class="st4">
				<path class="st3" d="M12.1,50.4l-6.4,1.7c0.3,1.3,0.6,2.5,1,3.7l6.4-1.7v0C12.6,52.9,12.3,51.6,12.1,50.4z M6.6,35.6
					c-0.4,1.2-0.7,2.4-1,3.7l6.4,1.7c0.2-1.3,0.6-2.5,1-3.7v0L6.6,35.6z M15.7,21.9c-1,0.8-1.9,1.8-2.7,2.7l4.7,4.7
					c0.8-1,1.7-1.9,2.7-2.7L15.7,21.9z M30.5,14.5c-1.3,0.3-2.5,0.6-3.7,1l1.7,6.4h0c1.2-0.4,2.4-0.8,3.7-1L30.5,14.5z M43.2,14.5
					L41.5,21c1.3,0.2,2.5,0.6,3.7,1h0l1.7-6.4C45.7,15.1,44.5,14.8,43.2,14.5z M57.9,21.9l-4.7,4.7c1,0.8,1.9,1.7,2.7,2.7l4.7-4.7
					C59.8,23.7,58.9,22.7,57.9,21.9z M67,35.6l-6.4,1.7v0c0.4,1.2,0.8,2.4,1,3.7l6.4-1.7C67.8,38.1,67.4,36.8,67,35.6z M68.6,43.8
					h-6.7c0,0.6,0.1,1.3,0.1,1.9c0,0.6,0,1.3-0.1,1.9h6.7c0-0.6,0.1-1.3,0.1-1.9C68.7,45.1,68.6,44.4,68.6,43.8z M59.5,56.6
					c-0.6,1.2-1.2,2.3-1.9,3.3l5.8,3.3c0.7-1.1,1.3-2.2,1.9-3.3L59.5,56.6z M51.1,66.5c-1.1,0.7-2.2,1.4-3.3,1.9l3.3,5.8
					c1.1-0.6,2.3-1.2,3.3-1.9L51.1,66.5z M22.6,66.5l-3.3,5.8c1.1,0.7,2.2,1.3,3.3,1.9l3.3-5.8C24.8,67.9,23.7,67.2,22.6,66.5z
					 M17.7,62.1L13,66.8c0.8,1,1.8,1.9,2.7,2.7l4.7-4.7C19.5,64,18.5,63.1,17.7,62.1z M28.5,69.5l-1.7,6.4c1.2,0.4,2.4,0.7,3.7,1
					l1.7-6.4C30.9,70.2,29.7,69.9,28.5,69.5z M45.2,69.5c-1.2,0.4-2.4,0.8-3.7,1l1.7,6.4c1.3-0.3,2.5-0.6,3.7-1L45.2,69.5z
					 M55.9,62.1c-0.8,1-1.7,1.9-2.7,2.7l4.7,4.7c1-0.8,1.9-1.8,2.7-2.7L55.9,62.1z M61.6,50.4c-0.2,1.3-0.6,2.5-1,3.7v0l6.4,1.7
					c0.4-1.2,0.7-2.4,1-3.7L61.6,50.4z M63.4,28.2l-5.8,3.3c0.7,1.1,1.4,2.2,1.9,3.3l5.8-3.3C64.7,30.3,64.1,29.2,63.4,28.2z
					 M51.1,17.2L47.7,23c1.2,0.6,2.3,1.2,3.3,1.9l3.3-5.8C53.3,18.5,52.2,17.8,51.1,17.2z M36.8,13.9c-0.6,0-1.3,0-1.9,0.1v6.7
					c0.6,0,1.3-0.1,1.9-0.1c0.6,0,1.3,0,1.9,0.1v-6.7C38.1,13.9,37.5,13.9,36.8,13.9z M22.6,17.2c-1.1,0.6-2.3,1.2-3.3,1.9l3.3,5.8
					c1.1-0.7,2.2-1.4,3.3-1.9L22.6,17.2z M10.3,28.2c-0.7,1.1-1.3,2.2-1.9,3.3l5.8,3.3c0.6-1.2,1.2-2.3,1.9-3.3L10.3,28.2z
					 M11.7,43.8H5.1C5,44.4,5,45.1,5,45.7c0,0.6,0,1.3,0.1,1.9h6.7c0-0.6-0.1-1.3-0.1-1.9C11.6,45.1,11.7,44.4,11.7,43.8z
					 M14.1,56.6l-5.8,3.3c0.6,1.1,1.2,2.3,1.9,3.3l5.8-3.3C15.3,58.9,14.7,57.8,14.1,56.6z M36.8,70.9c-0.6,0-1.3,0-1.9-0.1v6.7h3.8
					v-6.7C38.1,70.9,37.5,70.9,36.8,70.9z"/>
				<g>
					<path class="st3" d="M38.7,13.9v6.7c-0.6,0-1.3-0.1-1.9-0.1c-0.6,0-1.3,0-1.9,0.1v-6.7c0.6,0,1.3-0.1,1.9-0.1
						C37.5,13.9,38.1,13.9,38.7,13.9z"/>
					<path class="st3" d="M38.7,77.5v-6.7c-0.6,0-1.3,0.1-1.9,0.1c-0.6,0-1.3,0-1.9-0.1v6.7H38.7z"/>
				</g>
				<g>
					<path class="st3" d="M32.2,21c-1.3,0.2-2.5,0.6-3.7,1h0l-1.7-6.4c1.2-0.4,2.4-0.7,3.7-1L32.2,21z"/>
					<path class="st3" d="M46.9,75.9c-1.2,0.4-2.4,0.7-3.7,1l-1.7-6.4c1.3-0.2,2.5-0.6,3.7-1L46.9,75.9z"/>
				</g>
				<g>
					<path class="st3" d="M25.9,23c-1.2,0.6-2.3,1.2-3.3,1.9l-3.3-5.8c1.1-0.7,2.2-1.3,3.3-1.9L25.9,23z"/>
					<path class="st3" d="M54.4,72.3c-1.1,0.7-2.2,1.3-3.3,1.9l-3.3-5.8c1.2-0.6,2.3-1.2,3.3-1.9L54.4,72.3z"/>
				</g>
				<g>
					<path class="st3" d="M20.4,26.6c-1,0.8-1.9,1.7-2.7,2.7L13,24.6c0.8-1,1.8-1.9,2.7-2.7L20.4,26.6z"/>
					<path class="st3" d="M60.7,66.8c-0.8,1-1.8,1.9-2.7,2.7l-4.7-4.7c1-0.8,1.9-1.7,2.7-2.7L60.7,66.8z"/>
				</g>
				<g>
					<path class="st3" d="M16,31.5c-0.7,1.1-1.4,2.2-1.9,3.3l-5.8-3.3c0.6-1.1,1.2-2.3,1.9-3.3L16,31.5z"/>
					<path class="st3" d="M65.3,59.9c-0.6,1.1-1.2,2.3-1.9,3.3l-5.8-3.3c0.7-1.1,1.4-2.2,1.9-3.3L65.3,59.9z"/>
				</g>
				<g>
					<path class="st3" d="M13.1,37.4L13.1,37.4c-0.4,1.2-0.8,2.4-1,3.7l-6.4-1.7c0.3-1.3,0.6-2.5,1-3.7L13.1,37.4z"/>
					<path class="st3" d="M68,52.1c-0.3,1.3-0.6,2.5-1,3.7l-6.4-1.7v0c0.4-1.2,0.8-2.4,1-3.7L68,52.1z"/>
				</g>
				<g>
					<path class="st3" d="M11.6,45.7c0,0.6,0,1.3,0.1,1.9H5.1C5,47,5,46.4,5,45.7c0-0.6,0-1.3,0.1-1.9h6.7
						C11.7,44.4,11.6,45.1,11.6,45.7z"/>
					<path class="st3" d="M68.7,45.7c0,0.6,0,1.3-0.1,1.9h-6.7c0-0.6,0.1-1.3,0.1-1.9c0-0.6,0-1.3-0.1-1.9h6.7
						C68.6,44.4,68.7,45.1,68.7,45.7z"/>
				</g>
				<g>
					<path class="st3" d="M13.1,54.1L13.1,54.1l-6.4,1.7c-0.4-1.2-0.7-2.4-1-3.7l6.4-1.7C12.3,51.6,12.6,52.9,13.1,54.1z"/>
					<path class="st3" d="M68,39.3l-6.4,1.7l-1-3.7v0l6.4-1.7C67.4,36.8,67.8,38.1,68,39.3z"/>
				</g>
				<g>
					<path class="st3" d="M16,59.9l-5.8,3.3c-0.7-1.1-1.3-2.2-1.9-3.3l5.8-3.3C14.7,57.8,15.3,58.9,16,59.9z"/>
					<path class="st3" d="M65.3,31.5l-5.8,3.3c-0.6-1.2-1.2-2.3-1.9-3.3l5.8-3.3C64.1,29.2,64.7,30.3,65.3,31.5z"/>
				</g>
				<g>
					<path class="st3" d="M20.4,64.8l-4.7,4.7c-1-0.8-1.9-1.8-2.7-2.7l4.7-4.7L20.4,64.8z"/>
					<path class="st3" d="M60.7,24.6l-4.7,4.7c-0.8-1-1.7-1.9-2.7-2.7l4.7-4.7C58.9,22.7,59.8,23.7,60.7,24.6z"/>
				</g>
				<g>
					<path class="st3" d="M25.9,68.4l-3.3,5.8c-1.1-0.6-2.3-1.2-3.3-1.9l3.3-5.8C23.7,67.2,24.8,67.9,25.9,68.4z"/>
					<path class="st3" d="M54.4,19.2l-3.3,5.8c-1.1-0.7-2.2-1.4-3.3-1.9l3.3-5.8C52.2,17.8,53.3,18.5,54.4,19.2z"/>
				</g>
				<g>
					<path class="st3" d="M32.2,70.5l-1.7,6.4c-1.3-0.3-2.5-0.6-3.7-1l1.7-6.4L32.2,70.5z"/>
					<path class="st3" d="M46.9,15.5L45.2,22h0c-1.2-0.4-2.4-0.8-3.7-1l1.7-6.4C44.5,14.8,45.7,15.1,46.9,15.5z"/>
				</g>
			</g>
		</g>
		<g>
			<path class="st3" d="M38.9,57.4v5.1h-4.4v-5.1c-3.1-0.4-6.1-1.7-8.4-3.6l2.4-4.7c2.4,2.1,6,3.5,8.4,3.5c1.8,0,2.9-0.7,2.9-1.9
				c0-3.9-12.2-1.6-12.2-9.8c0-3.7,2.7-6.2,6.9-6.9v-4.9h4.4V34c2.7,0.3,5.3,1.2,7.3,2.5l-2.3,4.8c-2.5-1.4-5.6-2.5-7.5-2.5
				c-1.5,0-2.4,0.5-2.4,1.6c0,3.8,12.2,1.7,12.2,10C46.2,54.5,43.1,56.9,38.9,57.4z"/>
		</g>
	</g>
</g>
</svg>
