<?xml version="1.0" encoding="utf-8"?>
<!-- Generator: Adobe Illustrator 26.1.0, SVG Export Plug-In . SVG Version: 6.00 Build 0)  -->
<svg version="1.1" id="Layer_1" xmlns="http://www.w3.org/2000/svg" xmlns:xlink="http://www.w3.org/1999/xlink" x="0px" y="0px"
	 viewBox="0 0 100 100" style="enable-background:new 0 0 100 100;" xml:space="preserve">
<style type="text/css">
	.st0{fill:#BA8A2A;}
	.st1{fill:#F4CE62;}
	.st2{fill:#CEA932;}
	.st3{fill:#EFBE35;}
	.st4{fill:#FFDC83;}
</style>
<g>
	<circle class="st0" cx="50" cy="50" r="45"/>
	<ellipse transform="matrix(0.1602 -0.9871 0.9871 0.1602 -7.3634 91.3452)" class="st1" cx="50" cy="50" rx="39.8" ry="39.8"/>
	<circle class="st2" cx="50" cy="50" r="37.5"/>
	<circle class="st1" cx="50" cy="50" r="35.2"/>
	<circle class="st3" cx="50" cy="50" r="32.9"/>
	<g>
		<path class="st4" d="M42.5,18c-3,0.7-5.9,1.8-8.5,3.3L78.8,66c1.5-2.6,2.6-5.5,3.3-8.5L42.5,18z"/>
		<path class="st4" d="M30.1,23.8c-6.4,4.9-11,12.1-12.5,20.3l38.2,38.2c8.3-1.5,15.5-6,20.3-12.5L30.1,23.8z"/>
	</g>
	<g>
		<g>
			<path class="st0" d="M56.7,45.7c0-3.8-3-6-6.6-6c-1.5,0-3.6,0.9-3.6,2.7c0,5.3,20.4,4.1,20.4,16.2c0,8-7.5,10.9-13.7,10.9
				c-0.6,0-1.2-0.1-1.8-0.1v3.3h-3.3v-4.1c-2.5-0.9-4.4-2.4-5.7-3.9l-0.6,4h-9v-13h9.6c0,4.3,4.3,5,6.5,5.2c1.8,0,4.4-0.4,4.4-2.6
				c0-4-19.8-2.3-19.8-15.5c0-7.6,7.2-11.1,12.3-11.1c0.8,0,1.5,0.1,2.3,0.2v-3.8h3.3v4.6c2.2,0.8,4,2.2,5.2,4.3l0.5-4.3h8.9v12.9
				H56.7z"/>
		</g>
	</g>
</g>
</svg>
