<?xml version="1.0" encoding="iso-8859-1"?>
<!-- Uploaded to: SVG Repo, www.svgrepo.com, Generator: SVG Repo Mixer Tools -->
<svg height="800px" width="800px" version="1.1" id="Layer_1" xmlns="http://www.w3.org/2000/svg" xmlns:xlink="http://www.w3.org/1999/xlink" 
	 viewBox="0 0 505 505" xml:space="preserve">
<circle style="fill:#324A5E;" cx="252.5" cy="252.5" r="252.5"/>
<circle style="fill:#FFD05B;" cx="255.9" cy="252.5" r="177.5"/>
<circle style="fill:#F9B54C;" cx="255.9" cy="252.5" r="139.5"/>
<path style="fill:#FFD05B;" d="M250.4,356.5v-18.3c-22.9-2.3-43.5-11.5-61.7-27.3l18.3-21.8c14,12.2,28.5,19.5,43.4,21.8v-48.7
	c-18.9-4.5-32.7-10.5-41.5-17.8c-8.8-7.4-13.2-18.3-13.2-32.7c0-14.5,5-26.3,15.2-35.5c10.1-9.2,23.3-14.2,39.5-15v-12.7h16v12.8
	c18.4,1.3,35.8,7.6,52.2,18.8l-16.3,23.1c-11-7.9-23-12.7-35.9-14.5v47.2h0.8c19.2,4.5,33.4,10.6,42.4,18.3
	c9,7.7,13.6,18.9,13.6,33.5s-5.2,26.5-15.6,35.7s-24.1,14.2-41.1,15v18.1H250.4z M232.7,194.6c-4.3,3.8-6.4,8.4-6.4,14
	s1.7,10,5,13.3s9.7,6.4,19.1,9.4v-43.4C242.8,188.6,236.9,190.8,232.7,194.6z M285.5,304.5c4.7-3.8,7-8.7,7-14.5s-1.8-10.5-5.5-13.9
	s-10.6-6.6-20.6-9.7v45.2C274.4,310.7,280.8,308.4,285.5,304.5z"/>
<polygon style="fill:#FFFFFF;" points="411.7,300.2 263.4,260.2 303.5,408.5 332.8,359.3 376.9,403.4 406.6,373.6 362.5,329.5 "/>
</svg>