<?xml version="1.0" encoding="utf-8"?>
<!-- Uploaded to: SVG Repo, www.svgrepo.com, Generator: SVG Repo Mixer Tools -->
<svg width="800px" height="800px" viewBox="0 0 1024 1024" class="icon"  version="1.1" xmlns="http://www.w3.org/2000/svg"><path d="M809.3 362c0-164.2-133.1-297.3-297.3-297.3S214.7 197.8 214.7 362c0 50.6 12.7 98.2 34.9 139.9h-1.3l262.4 457.4 262.5-454.6h-0.3c23.2-42.3 36.4-91 36.4-142.7z" fill="#F15322" /><path d="M809.3 362c0-164.2-133.1-297.3-297.3-297.3-13.6 0-26.9 0.9-40 2.7 145.3 19.5 257.3 144 257.3 294.6 0 51.7-13.2 100.3-36.5 142.7h0.3L470.9 889.8l39.9 69.5 262.5-454.6h-0.3c23.1-42.3 36.3-91 36.3-142.7z" fill="#FF8564" /><path d="M512 350.7m-186.4 0a186.4 186.4 0 1 0 372.8 0 186.4 186.4 0 1 0-372.8 0Z" fill="#25A0C8" /><path d="M580.7 177.4c-2.6 1.4-5.1 2.9-7.6 4.5-20.7 13.4-34.8 36.1-27.1 56.7 7.7 20.8 33.5 32.8 50.9 49.3 25.2 23.8 30.5 63.2 3.7 85.9-9.2 7.8-21.3 13.2-29.5 21.6-20.6 21.4-7.4 55 19 71.7 14.9 9.4 32.5 14.7 51 18.1 35.3-33.9 57.3-81.6 57.3-134.4 0-78.7-48.7-146-117.7-173.4zM392.3 373.3c-2.9-28.6 26.7-56.4 15.5-82.9-9.3-21.9-39.2-24.6-62.6-20.3l-1.5 0.3c-11.7 24.4-18.2 51.6-18.2 80.4 0 72.9 41.8 136 102.8 166.6 3.1-2.1 6.1-4.5 8.8-7.2 18.6-19 17.5-51.8 2-73.4-15.5-21.8-44.1-36.8-46.8-63.5z" fill="#AFD555" /><path d="M553.1 222m-25 0a25 25 0 1 0 50 0 25 25 0 1 0-50 0Z" fill="#FFFDFD" /></svg>