<?xml version="1.0" encoding="iso-8859-1"?>
<!-- Uploaded to: SVG Repo, www.svgrepo.com, Generator: SVG Repo Mixer Tools -->
<svg version="1.1" id="Layer_1" xmlns="http://www.w3.org/2000/svg" xmlns:xlink="http://www.w3.org/1999/xlink" 
	 viewBox="0 0 511.882 511.882" xml:space="preserve">
<path style="fill:#E6E9ED;" d="M511.882,373.258c0,23.557-19.089,42.646-42.646,42.646H42.654C19.097,415.904,0,396.814,0,373.258
	V138.641c0-23.557,19.098-42.662,42.654-42.662h426.582c23.558,0,42.646,19.105,42.646,42.662V373.258z"/>
<rect y="159.962" style="fill:#5D9CEC;" width="511.88" height="63.985"/>
<g>
	<path style="fill:#434A54;" d="M149.301,351.921H53.324c-5.89,0-10.67,4.779-10.67,10.668c0,5.891,4.78,10.67,10.67,10.67h95.978
		c5.89,0,10.662-4.779,10.662-10.67C159.963,356.699,155.191,351.921,149.301,351.921z"/>
	<path style="fill:#434A54;" d="M458.551,309.273h-63.985c-5.873,0-10.654,4.764-10.654,10.654c0,5.904,4.781,10.668,10.654,10.668
		h63.985c5.905,0,10.685-4.764,10.685-10.668C469.236,314.038,464.457,309.273,458.551,309.273z"/>
	<path style="fill:#434A54;" d="M245.28,309.273H53.324c-5.89,0-10.67,4.764-10.67,10.654c0,5.904,4.78,10.668,10.67,10.668H245.28
		c5.889,0,10.661-4.764,10.661-10.668C255.941,314.038,251.169,309.273,245.28,309.273z"/>
</g>
</svg>