<?xml version="1.0" encoding="utf-8"?>
<!-- Generator: Adobe Illustrator 26.1.0, SVG Export Plug-In . SVG Version: 6.00 Build 0)  -->
<svg version="1.1" id="Layer_1" xmlns="http://www.w3.org/2000/svg" xmlns:xlink="http://www.w3.org/1999/xlink" x="0px" y="0px"
	 viewBox="0 0 100 100" style="enable-background:new 0 0 100 100;" xml:space="preserve">
<style type="text/css">
	.st0{fill:#6AC3EF;}
	.st1{fill:#7FD5EF;}
	.st2{fill:#5396D3;}
	.st3{fill:#5FB4D6;}
	.st4{fill:#426DBA;}
	.st5{fill:#B6F1FF;}
	.st6{fill:#73ACFF;}
	.st7{fill:#9CECFF;}
</style>
<g>
	<polygon class="st0" points="82.2,12.4 50,12.4 17.8,12.4 5,32.7 50,87.6 95,32.7 	"/>
	<polygon class="st1" points="25.3,32.7 50,87.6 50,12.4 	"/>
	<polygon class="st2" points="5,32.7 95,32.7 82.2,12.4 50,12.4 17.8,12.4 	"/>
	<polygon class="st3" points="50,12.4 17.8,12.4 50,32.7 82.2,12.4 	"/>
	<polygon class="st4" points="50,12.4 25.3,32.7 50,32.7 	"/>
	<polygon class="st1" points="36,23.9 50,32.7 50,12.4 	"/>
	<polygon class="st5" points="74.7,32.7 50,87.6 50,12.4 	"/>
	<polygon class="st6" points="50,12.4 74.7,32.7 50,32.7 	"/>
	<polygon class="st7" points="64,23.9 50,32.7 50,12.4 	"/>
</g>
</svg>
