<?xml version="1.0" ?>
<!-- Uploaded to: SVG Repo, www.svgrepo.com, Generator: SVG Repo Mixer Tools -->
<svg width="800px" height="800px" viewBox="0 0 120 120" id="Layer_1" version="1.1" xml:space="preserve" xmlns="http://www.w3.org/2000/svg" xmlns:xlink="http://www.w3.org/1999/xlink">
<style type="text/css">
	.st0{fill:#EF4B4B;}
	.st1{opacity:0.15;}
	.st2{fill:#F2E3C9;}
</style>
<g>
<path class="st0" d="M99.5,52.8l-1.9,4.7c-0.6,1.6-0.6,3.3,0,4.9l1.9,4.7c1.1,2.8,0.2,6-2.3,7.8l-4.2,2.9c-1.4,1-2.3,2.5-2.7,4.1   l-0.9,5c-0.6,3-3.1,5.2-6.1,5.3l-5.1,0.2c-1.7,0.1-3.3,0.8-4.5,2l-3.5,3.7c-2.1,2.2-5.4,2.7-8,1.2l-4.4-2.6   c-1.5-0.9-3.2-1.1-4.9-0.7l-5,1.2c-2.9,0.7-6-0.7-7.4-3.4l-2.3-4.6c-0.8-1.5-2.1-2.7-3.7-3.2l-4.8-1.6c-2.9-1-4.7-3.8-4.4-6.8   l0.5-5.1c0.2-1.7-0.3-3.4-1.4-4.7l-3.2-4c-1.9-2.4-1.9-5.7,0-8.1l3.2-4c1.1-1.3,1.6-3,1.4-4.7l-0.5-5.1c-0.3-3,1.5-5.8,4.4-6.8   l4.8-1.6c1.6-0.5,2.9-1.7,3.7-3.2l2.3-4.6c1.4-2.7,4.4-4.1,7.4-3.4l5,1.2c1.6,0.4,3.4,0.2,4.9-0.7l4.4-2.6c2.6-1.5,5.9-1.1,8,1.2   l3.5,3.7c1.2,1.2,2.8,2,4.5,2l5.1,0.2c3,0.1,5.6,2.3,6.1,5.3l0.9,5c0.3,1.7,1.3,3.2,2.7,4.1l4.2,2.9C99.7,46.8,100.7,50,99.5,52.8z   "/>
<g class="st1">
<path d="M43.6,93.8l-2.3-4.6c-0.8-1.5-2.1-2.7-3.7-3.2l-4.8-1.6c-2.9-1-4.7-3.8-4.4-6.8l0.5-5.1c0.2-1.7-0.3-3.4-1.4-4.7l-3.2-4    c-1.9-2.4-1.9-5.7,0-8.1l3.2-4c1.1-1.3,1.6-3,1.4-4.7l-0.5-5.1c-0.3-3,1.5-5.8,4.4-6.8l4.8-1.6c1.6-0.5,2.9-1.7,3.7-3.2l2.3-4.6    c0.8-1.6,2.2-2.7,3.7-3.2c-2.7-0.4-5.4,1-6.6,3.5l-2.3,4.6c-0.8,1.5-2.1,2.7-3.7,3.2l-4.8,1.6c-2.9,1-4.7,3.8-4.4,6.8l0.5,5.1    c0.2,1.7-0.3,3.4-1.4,4.7l-3.2,4c-1.9,2.4-1.9,5.7,0,8.1l3.2,4c1.1,1.3,1.6,3,1.4,4.7l-0.5,5.1c-0.3,3,1.5,5.8,4.4,6.8l4.8,1.6    c1.6,0.5,2.9,1.7,3.7,3.2l2.3,4.6c1.4,2.7,4.4,4.1,7.4,3.4l0.6-0.1C46.5,97,44.6,95.8,43.6,93.8z"/>
<path d="M60.8,22.8l4.4-2.6c0.4-0.2,0.8-0.4,1.2-0.5c-1.4-0.2-2.9,0.1-4.1,0.8l-4.4,2.6c-0.4,0.2-0.8,0.4-1.2,0.5    C58.1,23.8,59.5,23.6,60.8,22.8z"/>
<path d="M81.2,92.3c-0.5,0-1,0.1-1.4,0.2l3.6-0.2c0.5,0,0.9-0.1,1.4-0.2L81.2,92.3z"/>
<path d="M65.2,99.2l-4.4-2.6c-1.5-0.9-3.2-1.1-4.9-0.7l-0.6,0.1c0.9,0.1,1.7,0.4,2.5,0.8l4.4,2.6c1.7,1,3.6,1.1,5.4,0.5    C66.8,99.9,66,99.7,65.2,99.2z"/>
</g>
<g class="st1">
<path d="M45.3,62.1c-1.9,0-3.5-0.4-5-1.2c-1.5-0.8-2.7-2-3.5-3.5c-0.9-1.5-1.3-3.4-1.3-5.6c0-2.2,0.4-4,1.3-5.6    c0.9-1.5,2-2.7,3.5-3.5c1.5-0.8,3.2-1.2,5-1.2c1.9,0,3.5,0.4,5,1.2c1.5,0.8,2.7,2,3.5,3.5c0.9,1.5,1.3,3.4,1.3,5.6    c0,2.2-0.4,4.1-1.3,5.6c-0.9,1.6-2,2.7-3.5,3.5C48.9,61.7,47.2,62.1,45.3,62.1z M41.8,79l25.3-37H76L50.7,79H41.8z M45.3,56.4    c0.6,0,1.1-0.3,1.6-1c0.5-0.7,0.7-1.9,0.7-3.6c0-1.8-0.2-3-0.7-3.6c-0.5-0.7-1-1-1.6-1c-0.6,0-1.1,0.3-1.6,1    c-0.5,0.7-0.7,1.9-0.7,3.6c0,1.8,0.2,3,0.7,3.6C44.2,56.1,44.8,56.4,45.3,56.4z M72.4,79.6c-1.9,0-3.5-0.4-5-1.2s-2.7-2-3.5-3.5    c-0.9-1.5-1.3-3.4-1.3-5.6c0-2.2,0.4-4,1.3-5.6c0.9-1.5,2-2.7,3.5-3.5c1.5-0.8,3.2-1.2,5-1.2s3.5,0.4,5,1.2c1.5,0.8,2.7,2,3.5,3.5    c0.9,1.5,1.3,3.4,1.3,5.6c0,2.2-0.4,4.1-1.3,5.6c-0.9,1.6-2,2.7-3.5,3.5C76,79.2,74.3,79.6,72.4,79.6z M72.4,73.9    c0.6,0,1.1-0.3,1.6-1c0.5-0.7,0.7-1.9,0.7-3.6c0-1.8-0.2-3-0.7-3.6c-0.5-0.7-1-1-1.6-1c-0.6,0-1.1,0.3-1.6,1    c-0.5,0.7-0.7,1.9-0.7,3.6c0,1.8,0.2,3,0.7,3.6C71.4,73.5,71.9,73.9,72.4,73.9z"/>
</g>
<g>
<path class="st2" d="M46.8,61.3c-1.9,0-3.5-0.4-5-1.2c-1.5-0.8-2.7-2-3.5-3.5C37.4,55,37,53.2,37,51c0-2.2,0.4-4,1.3-5.6    c0.9-1.5,2-2.7,3.5-3.5c1.5-0.8,3.2-1.2,5-1.2c1.9,0,3.5,0.4,5,1.2c1.5,0.8,2.7,2,3.5,3.5c0.9,1.5,1.3,3.4,1.3,5.6    c0,2.2-0.4,4.1-1.3,5.6c-0.9,1.6-2,2.7-3.5,3.5C50.3,60.9,48.7,61.3,46.8,61.3z M43.3,78.2l25.3-37h8.9l-25.3,37H43.3z M46.8,55.6    c0.6,0,1.1-0.3,1.6-1c0.5-0.7,0.7-1.9,0.7-3.6c0-1.8-0.2-3-0.7-3.6c-0.5-0.7-1-1-1.6-1c-0.6,0-1.1,0.3-1.6,1    c-0.5,0.7-0.7,1.9-0.7,3.6c0,1.8,0.2,3,0.7,3.6C45.7,55.3,46.2,55.6,46.8,55.6z M73.9,78.7c-1.9,0-3.5-0.4-5-1.2s-2.7-2-3.5-3.5    c-0.9-1.5-1.3-3.4-1.3-5.6c0-2.2,0.4-4,1.3-5.6c0.9-1.5,2-2.7,3.5-3.5c1.5-0.8,3.2-1.2,5-1.2s3.5,0.4,5,1.2c1.5,0.8,2.7,2,3.5,3.5    c0.9,1.5,1.3,3.4,1.3,5.6c0,2.2-0.4,4.1-1.3,5.6c-0.9,1.6-2,2.7-3.5,3.5C77.4,78.3,75.8,78.7,73.9,78.7z M73.9,73    c0.6,0,1.1-0.3,1.6-1c0.5-0.7,0.7-1.9,0.7-3.6c0-1.8-0.2-3-0.7-3.6c-0.5-0.7-1-1-1.6-1c-0.6,0-1.1,0.3-1.6,1    c-0.5,0.7-0.7,1.9-0.7,3.6c0,1.8,0.2,3,0.7,3.6C72.8,72.7,73.3,73,73.9,73z"/>
</g>
</g>
</svg>