<?xml version="1.0" encoding="utf-8"?>
<!-- Generator: Adobe Illustrator 26.1.0, SVG Export Plug-In . SVG Version: 6.00 Build 0)  -->
<svg version="1.1" id="Layer_1" xmlns="http://www.w3.org/2000/svg" xmlns:xlink="http://www.w3.org/1999/xlink" x="0px" y="0px"
	 viewBox="0 0 100 100" style="enable-background:new 0 0 100 100;" xml:space="preserve">
<style type="text/css">
	.st0{fill:#54666F;}
	.st1{fill:#FFE076;}
	.st2{opacity:0.15;}
	.st3{fill:#F5F5F5;}
</style>
<g>
	<polygon class="st0" points="95,34.7 50,53 5,34.7 50,16.5 	"/>
	<path class="st0" d="M50,56L20,43.8v19c0,2,13.4,12.4,30,12.4c16.6,0,30-10.4,30-12.4v-19L50,56z"/>
	<path class="st1" d="M88.6,61c1.6,0,2.9-1.4,2.9-3.1c0-1.3-0.8-2.5-2-2.9V39.9l-1.8,0.7V55c-1.2,0.4-2.1,1.5-2.1,2.9
		C85.6,59.6,87,61,88.6,61z"/>
	<path class="st1" d="M91.5,61c-2.9,2.6-5.9-0.1-5.9-0.1s-1.1,4.2-1.3,7.1c-0.2,2.8,1.2,5.5,0.8,7.9c-0.4,2.4,0,5.2,0.5,6.7
		c0.5,1.5,1.4,0.7,1.4,0.7s-0.6-0.6-0.6-1.1c0-0.6,1.2-0.5,1.2-0.5v1.6c0,0,0.7,0,0.9-0.6c0.2-0.6,1.3-0.5,1.3-0.5l0.5-1.7
		c0,0,0.2,0.7,0.2,1.6c0,0.8,0.8,1.1,1.5,0C94.2,72.7,92.3,63.7,91.5,61z"/>
	<g class="st2">
		<polygon class="st3" points="50,53.2 95,35 60.6,21 40.9,49.5 		"/>
		<path class="st3" d="M39.3,51.9L27.4,69.2c5.5,3.1,13.6,6.2,22.6,6.2c16.6,0,30-10.4,30-12.4V44L50,56.2L39.3,51.9z"/>
	</g>
</g>
</svg>
