<?xml version="1.0" encoding="utf-8"?>
<!-- Generator: Adobe Illustrator 26.1.0, SVG Export Plug-In . SVG Version: 6.00 Build 0)  -->
<svg version="1.1" id="Layer_1" xmlns="http://www.w3.org/2000/svg" xmlns:xlink="http://www.w3.org/1999/xlink" x="0px" y="0px"
	 viewBox="0 0 100 100" style="enable-background:new 0 0 100 100;" xml:space="preserve">
<style type="text/css">
	.st0{fill:#FECE31;}
	.st1{fill:#F6BD3B;}
	.st2{fill:#FFFFFF;}
	.st3{fill:#CC4941;}
</style>
<g>
	<g>
		<circle class="st0" cx="51.2" cy="50.5" r="30.2"/>
		
			<ellipse transform="matrix(0.7071 -0.7071 0.7071 0.7071 -20.7168 50.9752)" class="st1" cx="51.2" cy="50.5" rx="21.9" ry="21.9"/>
		<g>
			<path class="st2" d="M49.5,61.5c-2.5-0.1-4.9-0.7-7.2-1.7v-5.6c1.3,0.7,2.7,1.2,4.3,1.7c1.5,0.4,2.9,0.7,4.1,0.7
				c1,0,1.7-0.1,2.1-0.3c0.4-0.2,0.7-0.6,0.7-1.2c0-0.4-0.2-0.7-0.5-1c-0.3-0.3-0.9-0.6-1.6-0.9c-0.8-0.3-1.8-0.7-3.1-1.2
				c-1.4-0.5-2.6-1.1-3.5-1.8c-0.9-0.7-1.5-1.4-1.9-2.2c-0.4-0.8-0.6-1.8-0.6-3.1c0-1.9,0.6-3.3,1.8-4.4c1.2-1.1,3-1.7,5.4-2v-2.3
				H53v2.3c2.3,0.1,4.5,0.7,6.8,1.7l-2,4.8c-2.4-1.1-4.5-1.6-6.4-1.6c-0.9,0-1.5,0.1-1.9,0.3c-0.4,0.2-0.6,0.5-0.6,1
				c0,0.4,0.1,0.7,0.4,0.9c0.3,0.2,0.7,0.5,1.4,0.8c0.7,0.3,1.6,0.6,2.7,1c2.4,0.8,4.1,1.8,5.1,2.9c1,1.1,1.5,2.5,1.5,4.1
				c0,1.9-0.6,3.5-1.8,4.6c-1.2,1.2-3,1.9-5.3,2.2v3.3h-3.5V61.5z"/>
		</g>
	</g>
	<g>
		<path class="st3" d="M9.9,74.6c9.3,22.1,34,16.9,34,16.9C32,90.5,21.9,83,17.2,72.6l4.5-1.2L9.6,59.1L5,75.8L9.9,74.6z"/>
		<path class="st3" d="M90.1,25.4c-9.3-22.1-34-16.9-34-16.9C68,9.5,78.1,17,82.8,27.4l-4.5,1.2l12.2,12.3L95,24.2L90.1,25.4z"/>
	</g>
	<g>
		<path class="st3" d="M9.9,74.6c9.3,22.1,34,16.9,34,16.9C32,90.5,21.9,83,17.2,72.6l4.5-1.2L9.6,59.1L5,75.8L9.9,74.6z"/>
		<path class="st3" d="M90.1,25.4c-9.3-22.1-34-16.9-34-16.9C68,9.5,78.1,17,82.8,27.4l-4.5,1.2l12.2,12.3L95,24.2L90.1,25.4z"/>
	</g>
</g>
</svg>
