<?xml version="1.0" encoding="utf-8"?>
<!-- Generator: Adobe Illustrator 26.1.0, SVG Export Plug-In . SVG Version: 6.00 Build 0)  -->
<svg version="1.1" id="Layer_1" xmlns="http://www.w3.org/2000/svg" xmlns:xlink="http://www.w3.org/1999/xlink" x="0px" y="0px"
	 viewBox="0 0 100 100" style="enable-background:new 0 0 100 100;" xml:space="preserve">
<style type="text/css">
	.st0{fill:#FABE7C;}
	.st1{clip-path:url(#SVGID_00000093899130988366428270000007052870114078237581_);}
	.st2{fill-rule:evenodd;clip-rule:evenodd;fill:#92653D;}
	.st3{fill-rule:evenodd;clip-rule:evenodd;fill:#878AA0;}
	.st4{fill:#878AA0;}
	.st5{fill:#767678;}
	.st6{fill:#FFFFFF;}
	.st7{fill-rule:evenodd;clip-rule:evenodd;fill:#FFDEC4;}
	.st8{fill:none;stroke:#E75E51;stroke-miterlimit:10;}
</style>
<g>
	<ellipse transform="matrix(2.595883e-03 -1 1 2.595883e-03 -0.1295 99.8701)" class="st0" cx="50" cy="50" rx="45" ry="45"/>
	<g>
		<defs>
			<ellipse id="SVGID_1_" transform="matrix(3.167399e-03 -1 1 3.167399e-03 -0.1584 99.8414)" cx="50" cy="50" rx="45" ry="45"/>
		</defs>
		<clipPath id="SVGID_00000110459244624162514640000015575620859414542776_">
			<use xlink:href="#SVGID_1_"  style="overflow:visible;"/>
		</clipPath>
		<g style="clip-path:url(#SVGID_00000110459244624162514640000015575620859414542776_);">
			<path class="st2" d="M69,77.6c3.6-40.8,0.3-57.8-17.8-57.3c-23.6,0.6-23.4,20.9-17.1,56.6C44.6,75.8,61.3,77.5,69,77.6z"/>
			<path class="st3" d="M56.8,67.9c-0.1,0.2-13.6,0.4-13.7,0.6c-4.2,6-13.3,8.7-20.6,10.3c-7.2,1.6-7.5,10.8-7.5,16.9h70.4
				c0-6.1-0.1-15.2-7.5-16.9C70.4,77.2,60.8,74.2,56.8,67.9z"/>
			<g id="XMLID_1_">
				<g>
					<path class="st4" d="M85.3,95.7H63l4.1-9.2L65,84.4l2.8-4.7l-7.9-8.4c4.8,4,12,6.1,17.9,7.4C85.2,80.5,85.3,89.6,85.3,95.7z"/>
					<path class="st5" d="M59.9,71.4l7.9,8.4L65,84.4l2.1,2.1L63,95.7h-4L59.9,71.4C59.9,71.4,59.9,71.4,59.9,71.4z"/>
					<polygon class="st5" points="63,95.7 61.1,100.1 58.8,100.4 59,95.7 					"/>
					<path class="st5" d="M59.9,71.4C59.9,71.4,59.9,71.4,59.9,71.4L59.9,71.4L59.9,71.4z"/>
					<path class="st6" d="M59.9,71.4L59,95.7H41.4l-0.9-24.4c1-0.8,1.8-1.8,2.6-2.8c0.2-0.2,13.6-0.4,13.7-0.6
						C57.6,69.2,58.7,70.4,59.9,71.4z"/>
					<polygon class="st5" points="41.4,95.7 41.6,100.4 39.3,100.1 37.4,95.7 					"/>
					<path class="st5" d="M40.5,71.4l0.9,24.4h-4l-4.1-9.3l2.1-2.1l-2.8-4.7L40.5,71.4C40.4,71.4,40.5,71.4,40.5,71.4z"/>
					<path class="st5" d="M40.5,71.3L40.5,71.3C40.5,71.4,40.4,71.4,40.5,71.3L40.5,71.3z"/>
					<path class="st4" d="M40.4,71.4l-7.8,8.3l2.8,4.7l-2.1,2.1l4.1,9.3H14.9c0-6.1,0.3-15.3,7.5-16.9
						C28.4,77.5,35.7,75.5,40.4,71.4z"/>
				</g>
			</g>
			<polygon class="st6" points="59.9,71.4 63.1,79.4 59.5,75.8 			"/>
			<polygon class="st6" points="40.5,71.4 37.1,79.4 41.1,76.5 40.9,71.4 			"/>
			<path class="st7" d="M43.1,55.1v11.6v5.7c1.7,5.2,4.6,8.9,7.2,8.8c2.5,0,6.4-3.6,6.9-8.8v-5.7V55.1
				C57.2,45.7,43.1,45.7,43.1,55.1z"/>
			<path class="st7" d="M68.8,47.2c-1.4-0.6-3.4,0.9-4.5,3.3C63.3,53,63.6,55.4,65,56c1.4,0.6,3.4-0.9,4.5-3.3
				C70.5,50.3,70.2,47.8,68.8,47.2z"/>
			<path class="st7" d="M31.4,47.2c1.4-0.6,3.4,0.9,4.5,3.3c1.1,2.4,0.8,4.9-0.7,5.5c-1.4,0.6-3.4-0.9-4.5-3.3
				C29.7,50.3,30,47.8,31.4,47.2z"/>
			<path class="st7" d="M50.1,67c-4.6,0-14.3-7.2-17.3-17.6C29.8,39,35.5,24,50.1,24c14.6,0,20.3,15,17.3,25.4
				C64.4,59.8,54.7,67,50.1,67z"/>
			<path class="st2" d="M32.3,49.2c-3.6-19.6,8-25.8,17.8-25.8c11,0,22.4,8.4,17.1,26.4c-10.5-0.5-20.1-6.7-29.3-19
				C36.3,37.1,35.2,45.2,32.3,49.2z"/>
			<g>
				<path class="st2" d="M41.4,24.3L41.4,24.3C41.5,24.3,41.4,24.3,41.4,24.3z"/>
			</g>
			<path class="st7" d="M43.1,67.7v2.9c4.9,1.4,9.3-0.9,14.1-0.2v-3.8v-0.5C52.7,64.1,47.4,66,43.1,67.7z"/>
			<path class="st8" d="M34,62c-0.9,0-1.6-1.8-1.6-3.9c0-2.2,0.7-3.9,1.6-3.9c0.1,0,0.3,0,0.4,0.1c0.7,0.4,1.2,2,1.2,3.8
				c0,1.9-0.5,3.5-1.3,3.8C34.3,62,34.2,62,34,62z"/>
			<path class="st7" d="M36.5,52.8c-0.1,0-0.3,0-0.4,0c-0.4-0.1-1.1,0-1.7,0.2c-0.3,0.3-0.7,0.7-1,0.9c0.5,0.5,0.6,1.4,0.2,2.1
				c0.6,0.2,1.1,0.3,1.6,0.1C36.2,55.6,36.7,54.3,36.5,52.8z"/>
			<path class="st8" d="M65.9,62.5c-0.9,0-1.6-1.8-1.6-3.9c0-2.2,0.7-3.9,1.6-3.9c0.1,0,0.3,0,0.4,0.1c0.7,0.4,1.2,2,1.2,3.8
				c0,1.9-0.5,3.5-1.3,3.8C66.1,62.5,66,62.5,65.9,62.5z"/>
			<path class="st7" d="M65.9,55.4c0-0.7,0.4-1.2,1-1.5c-0.7-0.2-1.5-0.4-2.2-0.7c-0.3-0.1-0.6-0.2-0.9-0.3c-0.1,1.4,0.4,2.6,1.3,3
				c0.3,0.1,0.7,0.2,1,0.1C65.9,55.9,65.9,55.7,65.9,55.4z"/>
			<g>
				<g>
					<g>
						<g>
							<path class="st2" d="M48.6,45.6c-3-1.3-5.6-3.5-7.7-6.1c-2.1-2.6-3.6-5.7-4.6-9l2.7-0.6c0.5,3.1,1.5,6.1,3,8.8
								C43.6,41.4,45.8,43.8,48.6,45.6z"/>
						</g>
					</g>
				</g>
			</g>
		</g>
	</g>
</g>
</svg>
