<?xml version="1.0" encoding="utf-8"?>
<!-- Generator: Adobe Illustrator 26.1.0, SVG Export Plug-In . SVG Version: 6.00 Build 0)  -->
<svg version="1.1" id="Layer_1" xmlns="http://www.w3.org/2000/svg" xmlns:xlink="http://www.w3.org/1999/xlink" x="0px" y="0px"
	 viewBox="0 0 100 100" style="enable-background:new 0 0 100 100;" xml:space="preserve">
<style type="text/css">
	.st0{fill:#A5DAE8;}
	.st1{opacity:0.1;}
	.st2{clip-path:url(#SVGID_00000173856750441260244920000016709922037047845024_);}
	.st3{fill:#FEE1B9;}
	.st4{fill:#FFD9AC;}
	.st5{fill:#482B1B;}
	.st6{fill:#3886C6;}
	.st7{fill:#23588C;}
	.st8{fill:#F1F2F2;}
	.st9{fill:#FFFFFF;}
	.st10{fill:#726658;}
</style>
<g id="ava_02_00000168077169729141031160000012269317066644050871_">
	<circle class="st0" cx="50" cy="50" r="45"/>
	<path class="st1" d="M95,48.4L54.2,7.6L33.3,28.5l9.2,9.2l-10,10L43,58.1l-1.9,1.9l29.8,29.8C85.2,82.3,95,67.3,95,50
		C95,49.5,95,48.9,95,48.4z"/>
	<g>
		<g>
			<defs>
				<circle id="SVGID_1_" cx="50" cy="50" r="45"/>
			</defs>
			<clipPath id="SVGID_00000047749028161724249450000002181107805329126072_">
				<use xlink:href="#SVGID_1_"  style="overflow:visible;"/>
			</clipPath>
			<g style="clip-path:url(#SVGID_00000047749028161724249450000002181107805329126072_);">
				<path class="st3" d="M76.9,73c-4.2-5.1-19.7-2.2-19.7-8.8v-6.1H42.8v5.6c0,0.1,0,0.3,0,0.4c0,6.6-15.5,3.7-19.7,8.8
					c-3.3,4.6-5.6,22-5.6,22H50H50h32.5C82.5,95,80.2,77.6,76.9,73z"/>
				<path class="st4" d="M57.2,64.2v-6.1H50V95H50h32.5c0,0-2.3-17.4-5.6-22C72.7,67.9,57.2,70.8,57.2,64.2z"/>
				<path class="st5" d="M68,32.6c0-10.9-8.4-19.7-18.8-19.7s-18.8,8.8-18.8,19.7s8.4,19.7,18.8,19.7S68,43.5,68,32.6z"/>
				<path class="st4" d="M30.7,44.2c-0.2-2.4,1.1-4.5,2.9-4.8c1.9-0.3,3.6,1.5,3.8,3.9c0.2,2.4-1.1,4.5-2.9,4.8
					C32.6,48.3,30.9,46.6,30.7,44.2z"/>
				<g>
					<g>
						<g>
							<path class="st4" d="M69.4,44.1c0.3-2.4-0.9-4.5-2.8-4.7c-1.8-0.2-3.6,1.6-3.9,4c-0.3,2.4,0.9,4.5,2.8,4.7
								C67.3,48.3,69.1,46.5,69.4,44.1z"/>
						</g>
						<g>
							<g>
								<path class="st3" d="M50,24.8c0,0-15.2,1.9-15.2,10c0,0,0,11,0,14.2c0,3.2,5.2,12.4,9.8,12.7C47,62,50,62.2,50,62.2
									s3.1-0.3,5.4-0.5c4.7-0.4,9.8-9.5,9.8-12.7c0-3.2,0-14.2,0-14.2C65.3,26.7,50,24.8,50,24.8z"/>
							</g>
							<g>
								<path class="st4" d="M65.2,34.9c0,0,0,11,0,14.2c0,3.2-5.2,12.4-9.8,12.7C53,62,50,62.2,50,62.2V24.8
									C50,24.8,65.2,26.7,65.2,34.9z"/>
							</g>
						</g>
					</g>
				</g>
				<path class="st5" d="M48,17.1c-11.7,0-15.2,10.2-15.2,15c-4.2,5.9,0.4,11.2,3.7,13c0-1.1,0-1.5,0-2.9c0-3.8,3.6-7.3,9.1-6.8
					c4.9,0.5,7.9-2.2,10.5-6.9C59.2,22.3,55.2,17.1,48,17.1z"/>
				<path class="st5" d="M56.4,26.1c0,0,2.7,11.1,10.2,14.8c1.3-3.5,2.6-8.8,0.5-14.1c-2.1-5.3-10.7-8.2-10.7-8.2V26.1z"/>
				<path class="st5" d="M56.6,12.9c0-3.6-3-6.6-6.6-6.6c-3.6,0-6.6,3-6.6,6.6s3,6.6,6.6,6.6C53.7,19.5,56.6,16.5,56.6,12.9z"/>
				<path class="st6" d="M50,69.9V95H29.5V70c0,0,8.3-1.2,9.8-2C40.8,67.2,50,69.9,50,69.9z"/>
				<path class="st7" d="M50,69.9V95h20.5V70c0,0-8.3-1.2-9.8-2C59.2,67.2,50,69.9,50,69.9z"/>
				<polygon class="st8" points="50,69.9 57.8,66 61.8,68.3 55.2,77.7 				"/>
				<polygon class="st9" points="50,69.9 42.2,66 38.2,68.3 46.1,77.7 				"/>
				<path class="st9" d="M70.5,70v25h12c0,0-2.3-17.4-5.6-22C75.6,71.4,73.2,70.6,70.5,70z"/>
				<path class="st9" d="M29.5,70c-2.7,0.6-5.1,1.4-6.4,3c-3.3,4.6-5.6,22-5.6,22h12V70z"/>
				<g>
					<path class="st9" d="M49.9,57.3c2.1,0,3.9-1.5,3.9-3.4H46C46,55.8,47.8,57.3,49.9,57.3z"/>
					<path class="st10" d="M59,44.8c0-0.7-0.6-1.3-1.3-1.3c-0.7,0-1.3,0.6-1.3,1.3c0,0.7,0.6,1.3,1.3,1.3C58.4,46.2,59,45.6,59,44.8
						z"/>
					<path class="st10" d="M43.6,44.3c0-0.7-0.6-1.3-1.3-1.3c-0.7,0-1.3,0.6-1.3,1.3c0,0.7,0.6,1.3,1.3,1.3
						C43,45.6,43.6,45,43.6,44.3z"/>
					<g>
						<g>
							<g>
								<path class="st5" d="M45,41.8c-0.1,0-0.2,0-0.2-0.1c-0.5-0.6-1.4-1-2.5-1c-1.1,0-2,0.4-2.5,1c-0.1,0.1-0.3,0.1-0.4,0.1
									c-0.1-0.1-0.1-0.3-0.1-0.4c0.6-0.8,1.7-1.2,2.9-1.2c1.2,0,2.3,0.5,2.9,1.2c0.1,0.1,0.1,0.3-0.1,0.4
									C45.1,41.8,45,41.8,45,41.8z"/>
							</g>
						</g>
					</g>
					<g>
						<g>
							<g>
								<path class="st5" d="M60.4,41.8c-0.1,0-0.2,0-0.2-0.1c-0.5-0.6-1.4-1-2.5-1c-1.1,0-2,0.4-2.5,1c-0.1,0.1-0.3,0.1-0.4,0.1
									c-0.1-0.1-0.1-0.3-0.1-0.4c0.6-0.8,1.7-1.2,2.9-1.2c1.2,0,2.3,0.5,2.9,1.2c0.1,0.1,0.1,0.3-0.1,0.4
									C60.5,41.8,60.4,41.8,60.4,41.8z"/>
							</g>
						</g>
					</g>
				</g>
			</g>
		</g>
	</g>
</g>
</svg>
