<?xml version="1.0" encoding="utf-8"?>
<!-- Generator: Adobe Illustrator 26.1.0, SVG Export Plug-In . SVG Version: 6.00 Build 0)  -->
<svg version="1.1" id="Layer_1" xmlns="http://www.w3.org/2000/svg" xmlns:xlink="http://www.w3.org/1999/xlink" x="0px" y="0px"
	 viewBox="0 0 100 100" style="enable-background:new 0 0 100 100;" xml:space="preserve">
<style type="text/css">
	.st0{clip-path:url(#SVGID_00000056414052994825374800000008533888445733502911_);}
	.st1{fill:#EBA45C;}
	.st2{fill:none;stroke:#F8D9DE;stroke-width:0;stroke-linecap:round;stroke-linejoin:round;}
	.st3{fill:#F8D9DE;}
	.st4{fill:#DC6013;}
	.st5{fill:#CB3525;}
</style>
<g>
	<defs>
		<ellipse id="SVGID_1_" transform="matrix(0.1611 -0.9869 0.9869 0.1611 -7.4024 91.2913)" cx="50" cy="50" rx="45" ry="45"/>
	</defs>
	<use xlink:href="#SVGID_1_"  style="overflow:visible;fill:#00AFA9;"/>
	<clipPath id="SVGID_00000145743969906191078320000013988826638096315282_">
		<use xlink:href="#SVGID_1_"  style="overflow:visible;"/>
	</clipPath>
	<g style="clip-path:url(#SVGID_00000145743969906191078320000013988826638096315282_);">
		<path class="st1" d="M74.94,69.07c0-2.22-1.23-4.14-3.05-5.14c0.74-1.17,1.16-2.55,1.16-4.03c0-1.8-0.63-3.45-1.68-4.75
			c-0.59,0.71-1.48,1.17-2.48,1.17c-0.07,0-0.15-0.01-0.22-0.01c-1.24,8.62-7.56,12.88-15.61,13.75v1.87
			c2.11,0.32,4.12,0.96,5.98,1.85c0.05,0.02,0.1,0.05,0.14,0.07c0.2,0.1,0.39,0.2,0.58,0.3c0.07,0.04,0.13,0.07,0.2,0.11
			c0.18,0.1,0.36,0.2,0.54,0.31c0.07,0.04,0.15,0.09,0.22,0.13c0.17,0.1,0.34,0.21,0.51,0.32c0.07,0.05,0.15,0.1,0.22,0.15
			c0.17,0.11,0.33,0.22,0.5,0.33c0.07,0.05,0.14,0.1,0.22,0.15c0.16,0.12,0.33,0.24,0.49,0.36c0.07,0.05,0.13,0.1,0.19,0.15
			c0.16,0.13,0.33,0.26,0.49,0.39c0.04,0.04,0.09,0.07,0.13,0.11c0.56,0.47,1.09,0.96,1.59,1.48c0.04,0.04,0.09,0.09,0.13,0.13
			c0.13,0.13,0.25,0.27,0.38,0.41c0.07,0.08,0.15,0.16,0.22,0.24c0.11,0.13,0.22,0.26,0.33,0.39c0.08,0.09,0.16,0.19,0.23,0.28
			c0.1,0.13,0.2,0.26,0.3,0.39c0.08,0.1,0.16,0.21,0.24,0.31c0.09,0.13,0.19,0.26,0.28,0.39c0.08,0.11,0.16,0.22,0.23,0.34
			c0.09,0.13,0.17,0.26,0.26,0.39c0.08,0.12,0.15,0.24,0.23,0.36c0.08,0.13,0.16,0.26,0.24,0.39c0.08,0.13,0.15,0.26,0.22,0.39
			c0.07,0.13,0.14,0.25,0.21,0.38c0.08,0.14,0.15,0.29,0.22,0.44c0.06,0.12,0.12,0.23,0.18,0.35c0.11,0.23,0.22,0.46,0.32,0.69
			c0.05,0.11,0.1,0.23,0.14,0.34c0.08,0.19,0.16,0.39,0.24,0.58c0.04,0.11,0.08,0.23,0.12,0.34c0.06,0.17,0.12,0.34,0.18,0.51
			c0.04,0.12,0.08,0.24,0.12,0.37c0.05,0.16,0.1,0.33,0.15,0.5c0.04,0.13,0.07,0.25,0.1,0.38c0.04,0.17,0.09,0.33,0.13,0.5
			c0.03,0.13,0.06,0.26,0.09,0.39c0.01,0.05,0.02,0.1,0.04,0.15c1.52-1.77,2.44-4.07,2.44-6.59c0-2.7-1.07-5.16-2.8-6.97
			c0.01-0.03,0.02-0.06,0.03-0.08C72.94,74.24,74.94,71.89,74.94,69.07z"/>
		<path class="st1" d="M29.22,87.89c0.04-0.17,0.08-0.33,0.13-0.5c0.03-0.13,0.07-0.26,0.1-0.38c0.05-0.17,0.1-0.33,0.15-0.5
			c0.04-0.12,0.08-0.25,0.12-0.37c0.06-0.17,0.12-0.34,0.18-0.5c0.04-0.11,0.08-0.23,0.13-0.35c0.08-0.19,0.15-0.39,0.23-0.58
			c0.05-0.12,0.1-0.24,0.15-0.36c0.1-0.23,0.2-0.45,0.31-0.68c0.06-0.12,0.12-0.24,0.18-0.36c0.07-0.14,0.14-0.29,0.22-0.43
			c0.07-0.13,0.14-0.26,0.22-0.39c0.07-0.13,0.14-0.26,0.22-0.38c0.08-0.13,0.16-0.26,0.24-0.39c0.07-0.12,0.15-0.24,0.22-0.35
			c0.08-0.13,0.17-0.26,0.26-0.39c0.08-0.11,0.15-0.22,0.23-0.33c0.09-0.13,0.19-0.26,0.28-0.39c0.08-0.1,0.15-0.2,0.23-0.31
			c0.1-0.13,0.2-0.26,0.31-0.39c0.08-0.09,0.15-0.18,0.23-0.28c0.11-0.13,0.22-0.27,0.34-0.4c0.07-0.08,0.14-0.16,0.21-0.24
			c0.13-0.14,0.25-0.28,0.38-0.41c0.04-0.04,0.08-0.08,0.12-0.13c0.51-0.52,1.05-1.02,1.61-1.49c0.04-0.04,0.08-0.07,0.12-0.11
			c0.16-0.13,0.33-0.26,0.49-0.39c0.06-0.05,0.13-0.1,0.19-0.15c0.16-0.12,0.32-0.24,0.49-0.36c0.07-0.05,0.14-0.1,0.21-0.15
			c0.16-0.11,0.33-0.23,0.5-0.33c0.07-0.05,0.15-0.1,0.22-0.15c0.17-0.11,0.34-0.21,0.51-0.32c0.07-0.04,0.15-0.09,0.22-0.13
			c0.18-0.1,0.36-0.21,0.54-0.31c0.07-0.04,0.13-0.07,0.2-0.11c0.19-0.1,0.38-0.2,0.58-0.3c0.05-0.02,0.1-0.05,0.15-0.07
			c1.86-0.89,3.86-1.53,5.97-1.85v-1.86c-8.05-0.86-14.38-5.13-15.62-13.75c-0.07,0-0.14,0.01-0.21,0.01
			c-0.82,0-1.56-0.31-2.13-0.81c-1.08,1.31-1.73,2.99-1.73,4.82c0,1.48,0.43,2.86,1.16,4.03c-1.82,0.99-3.05,2.92-3.05,5.14
			c0,2.82,2,5.17,4.66,5.72c0.01,0.03,0.02,0.06,0.03,0.08c-1.73,1.81-2.8,4.27-2.8,6.98c0,2.34,0.8,4.5,2.14,6.21
			c0.01-0.07,0.03-0.13,0.04-0.2C29.16,88.15,29.19,88.02,29.22,87.89z"/>
		<path class="st2" d="M71.08,95.54c0,0,0,0.21,0,0.19"/>
		<path class="st2" d="M28.62,95.54c0,0.22,0,0.3,0,0.3"/>
		<path class="st3" d="M28.95,89.18c0.02-0.13,0.05-0.26,0.07-0.39C29,88.92,28.97,89.05,28.95,89.18z"/>
		<path class="st3" d="M70.96,90.65c0.01,0.12,0.03,0.24,0.04,0.37C70.99,90.9,70.97,90.78,70.96,90.65z"/>
		<path class="st3" d="M28.71,91.02c0.01-0.12,0.02-0.24,0.04-0.37C28.73,90.78,28.72,90.9,28.71,91.02z"/>
		<path class="st3" d="M28.64,91.96c0-0.1,0.01-0.21,0.02-0.31C28.66,91.75,28.65,91.85,28.64,91.96z"/>
		<path class="st3" d="M28.81,90.1c0.02-0.13,0.04-0.26,0.06-0.38C28.85,89.84,28.83,89.97,28.81,90.1z"/>
		<path class="st3" d="M71.04,91.65c0.01,0.1,0.02,0.21,0.02,0.31C71.05,91.85,71.05,91.75,71.04,91.65z"/>
		<path class="st3" d="M70.68,88.79c0.03,0.13,0.05,0.26,0.07,0.39C70.73,89.05,70.7,88.92,70.68,88.79z"/>
		<path class="st3" d="M70.84,89.71c0.02,0.13,0.04,0.26,0.06,0.38C70.88,89.97,70.86,89.84,70.84,89.71z"/>
		<path class="st3" d="M66.91,80.27c0.09,0.13,0.19,0.26,0.28,0.39C67.1,80.53,67,80.4,66.91,80.27z"/>
		<path class="st3" d="M67.42,80.99c0.09,0.13,0.17,0.26,0.26,0.39C67.6,81.25,67.51,81.12,67.42,80.99z"/>
		<path class="st3" d="M69.98,86.15c0.04,0.12,0.08,0.24,0.12,0.37C70.06,86.39,70.02,86.27,69.98,86.15z"/>
		<path class="st3" d="M70.25,87.01c0.04,0.13,0.07,0.25,0.1,0.38C70.32,87.27,70.29,87.14,70.25,87.01z"/>
		<path class="st3" d="M67.91,81.74c0.08,0.13,0.16,0.26,0.24,0.39C68.07,82,67.99,81.87,67.91,81.74z"/>
		<path class="st3" d="M66.67,79.96c-0.1-0.13-0.2-0.26-0.3-0.39C66.47,79.7,66.57,79.83,66.67,79.96z"/>
		<path class="st3" d="M70.48,87.89c0.03,0.13,0.06,0.26,0.09,0.39C70.54,88.15,70.51,88.02,70.48,87.89z"/>
		<path class="st3" d="M68.8,83.33c0.06,0.12,0.12,0.23,0.18,0.35C68.92,83.56,68.86,83.45,68.8,83.33z"/>
		<path class="st3" d="M69.3,84.38c0.05,0.11,0.1,0.23,0.14,0.34C69.39,84.6,69.35,84.49,69.3,84.38z"/>
		<path class="st3" d="M69.68,85.3c0.04,0.11,0.08,0.23,0.12,0.34C69.76,85.53,69.72,85.41,69.68,85.3z"/>
		<path class="st3" d="M68.36,82.51c0.07,0.13,0.14,0.25,0.21,0.38C68.51,82.77,68.44,82.64,68.36,82.51z"/>
		<path class="st3" d="M62.18,75.62c0.16,0.12,0.33,0.24,0.49,0.36C62.51,75.86,62.34,75.74,62.18,75.62z"/>
		<path class="st3" d="M62.86,76.13c0.16,0.13,0.33,0.26,0.49,0.39C63.19,76.39,63.03,76.26,62.86,76.13z"/>
		<path class="st3" d="M61.47,75.14c0.17,0.11,0.33,0.22,0.5,0.33C61.8,75.36,61.64,75.25,61.47,75.14z"/>
		<path class="st3" d="M60.73,74.67c0.17,0.1,0.34,0.21,0.51,0.32C61.07,74.88,60.9,74.78,60.73,74.67z"/>
		<path class="st3" d="M65.21,78.25c0.13,0.13,0.25,0.27,0.38,0.41C65.46,78.52,65.34,78.38,65.21,78.25z"/>
		<path class="st3" d="M65.07,78.11c-0.51-0.52-1.04-1.01-1.59-1.48C64.04,77.1,64.57,77.59,65.07,78.11z"/>
		<path class="st3" d="M59.97,74.24c0.18,0.1,0.36,0.2,0.54,0.31C60.33,74.44,60.15,74.34,59.97,74.24z"/>
		<path class="st3" d="M65.8,78.9c0.11,0.13,0.22,0.26,0.33,0.39C66.02,79.16,65.91,79.02,65.8,78.9z"/>
		<path class="st3" d="M59.19,73.83c0.2,0.1,0.39,0.2,0.58,0.3C59.58,74.03,59.38,73.93,59.19,73.83z"/>
		<path class="st3" d="M31.01,56.3c1.24,8.62,7.57,12.88,15.62,13.75v1.86c-2.11,0.32-4.11,0.96-5.97,1.85
			c0.97-0.47,1.99-0.87,3.04-1.18l6.15,10.66l6.15-10.66c1.05,0.32,2.06,0.72,3.04,1.18c-1.86-0.89-3.86-1.53-5.98-1.85v-1.87
			c8.04-0.87,14.37-5.13,15.61-13.75c0.07,0,0.15,0.01,0.22,0.01c1,0,1.89-0.45,2.48-1.17c0.46-0.56,0.74-1.27,0.74-2.05
			c0-0.93-0.4-1.76-1.03-2.35c-0.38-0.35-0.84-0.61-1.35-0.75c-0.01,0.02-0.02,0.03-0.04,0.03c-16.99,0-19.59-9.64-19.88-14.16
			c-0.44,4.52-3.31,14.16-19.8,14.16c-0.01,0-0.03-0.01-0.04-0.03c-0.51,0.14-0.98,0.4-1.35,0.75c-0.63,0.59-1.03,1.42-1.03,2.35
			c0,0.96,0.42,1.81,1.08,2.4c0.57,0.5,1.31,0.81,2.13,0.81C30.88,56.32,30.95,56.31,31.01,56.3z M44.88,63.22h9.95
			C49.97,66.68,44.88,63.22,44.88,63.22z"/>
		<path class="st3" d="M30.41,84.36c-0.05,0.12-0.1,0.24-0.15,0.36C30.31,84.6,30.36,84.48,30.41,84.36z"/>
		<path class="st3" d="M29.72,86.15c-0.04,0.12-0.08,0.25-0.12,0.37C29.64,86.39,29.68,86.27,29.72,86.15z"/>
		<path class="st3" d="M32.28,80.99c-0.09,0.13-0.18,0.26-0.26,0.39C32.11,81.25,32.19,81.12,32.28,80.99z"/>
		<path class="st3" d="M30.03,85.3c-0.04,0.11-0.08,0.23-0.13,0.35C29.94,85.53,29.98,85.41,30.03,85.3z"/>
		<path class="st3" d="M29.45,87.01c-0.04,0.13-0.07,0.25-0.1,0.38C29.38,87.27,29.42,87.14,29.45,87.01z"/>
		<path class="st3" d="M32.79,80.27c-0.1,0.13-0.19,0.26-0.28,0.39C32.6,80.53,32.7,80.4,32.79,80.27z"/>
		<path class="st3" d="M31.8,81.74c-0.08,0.13-0.16,0.26-0.24,0.39C31.64,82,31.72,81.87,31.8,81.74z"/>
		<path class="st3" d="M30.91,83.32c-0.06,0.12-0.12,0.24-0.18,0.36C30.78,83.56,30.85,83.44,30.91,83.32z"/>
		<path class="st3" d="M31.34,82.51c-0.07,0.13-0.15,0.26-0.22,0.39C31.2,82.77,31.27,82.64,31.34,82.51z"/>
		<path class="st3" d="M29.22,87.89c-0.03,0.13-0.06,0.26-0.09,0.39C29.16,88.15,29.19,88.02,29.22,87.89z"/>
		<path class="st3" d="M39.73,74.24c-0.18,0.1-0.36,0.2-0.54,0.31C39.37,74.44,39.55,74.34,39.73,74.24z"/>
		<path class="st3" d="M40.51,73.83c-0.2,0.1-0.39,0.2-0.58,0.3C40.12,74.03,40.32,73.93,40.51,73.83z"/>
		<path class="st3" d="M33.9,78.89c-0.11,0.13-0.23,0.26-0.34,0.4C33.68,79.16,33.79,79.02,33.9,78.89z"/>
		<path class="st3" d="M34.62,78.12c0.51-0.52,1.05-1.02,1.61-1.49C35.67,77.1,35.13,77.59,34.62,78.12z"/>
		<path class="st3" d="M37.52,75.62c-0.16,0.12-0.33,0.24-0.49,0.36C37.19,75.86,37.36,75.74,37.52,75.62z"/>
		<path class="st3" d="M38.23,75.14c-0.17,0.11-0.33,0.22-0.5,0.33C37.9,75.36,38.07,75.24,38.23,75.14z"/>
		<path class="st3" d="M33.33,79.57c-0.1,0.13-0.21,0.26-0.31,0.39C33.13,79.83,33.23,79.7,33.33,79.57z"/>
		<path class="st3" d="M36.84,76.13c-0.17,0.13-0.33,0.26-0.49,0.39C36.51,76.39,36.68,76.26,36.84,76.13z"/>
		<path class="st3" d="M34.5,78.25c-0.13,0.14-0.26,0.28-0.38,0.41C34.24,78.52,34.37,78.38,34.5,78.25z"/>
		<path class="st3" d="M38.97,74.67c-0.17,0.1-0.34,0.21-0.51,0.32C38.63,74.88,38.8,74.78,38.97,74.67z"/>
		<path class="st4" d="M44.88,63.22c0,0,5.09,3.46,9.95,0H44.88z"/>
		<path class="st1" d="M30.01,50.03c16.48,0,19.36-9.64,19.8-14.16c0.29,4.52,2.89,14.16,19.88,14.16c0.01,0,0.03-0.01,0.04-0.03
			c0.51,0.14,0.97,0.4,1.35,0.75c0-0.87,0-2.12,0-3.84c0-11.72-9.5-21.23-21.23-21.23c-11.72,0-21.23,9.5-21.23,21.23
			c0,1.77,0,3,0,3.84C29,50.4,29.46,50.14,29.98,50C29.99,50.02,30,50.03,30.01,50.03z"/>
		<path class="st5" d="M70.48,87.89c-0.04-0.17-0.08-0.33-0.13-0.5c-0.03-0.13-0.07-0.26-0.1-0.38c-0.05-0.17-0.1-0.33-0.15-0.5
			c-0.04-0.12-0.08-0.25-0.12-0.37c-0.06-0.17-0.12-0.34-0.18-0.51c-0.04-0.11-0.08-0.23-0.12-0.34c-0.08-0.2-0.16-0.39-0.24-0.58
			c-0.05-0.11-0.09-0.23-0.14-0.34c-0.1-0.23-0.21-0.47-0.32-0.69c-0.06-0.12-0.12-0.24-0.18-0.35c-0.07-0.15-0.15-0.29-0.22-0.44
			c-0.07-0.13-0.14-0.25-0.21-0.38c-0.07-0.13-0.15-0.26-0.22-0.39c-0.08-0.13-0.16-0.26-0.24-0.39c-0.08-0.12-0.15-0.24-0.23-0.36
			c-0.08-0.13-0.17-0.26-0.26-0.39c-0.08-0.11-0.15-0.22-0.23-0.34c-0.09-0.13-0.19-0.26-0.28-0.39c-0.08-0.1-0.16-0.21-0.24-0.31
			c-0.1-0.13-0.2-0.26-0.3-0.39c-0.08-0.09-0.16-0.19-0.23-0.28c-0.11-0.13-0.22-0.26-0.33-0.39c-0.07-0.08-0.14-0.16-0.22-0.24
			c-0.12-0.14-0.25-0.28-0.38-0.41c-0.04-0.05-0.09-0.09-0.13-0.13c-0.51-0.52-1.04-1.01-1.59-1.48c-0.04-0.04-0.09-0.08-0.13-0.11
			c-0.16-0.13-0.32-0.26-0.49-0.39c-0.06-0.05-0.13-0.1-0.19-0.15c-0.16-0.12-0.32-0.24-0.49-0.36c-0.07-0.05-0.14-0.1-0.22-0.15
			c-0.16-0.11-0.33-0.22-0.5-0.33c-0.07-0.05-0.15-0.1-0.22-0.15c-0.17-0.11-0.34-0.21-0.51-0.32c-0.07-0.04-0.15-0.09-0.22-0.13
			c-0.18-0.1-0.36-0.21-0.54-0.31c-0.07-0.04-0.13-0.07-0.2-0.11c-0.19-0.1-0.39-0.2-0.58-0.3c-0.05-0.02-0.1-0.05-0.14-0.07
			c-0.97-0.47-1.99-0.87-3.04-1.18l-6.15,10.66L43.7,72.58c-1.05,0.32-2.06,0.71-3.04,1.18c-0.05,0.02-0.1,0.05-0.15,0.07
			c-0.2,0.1-0.39,0.2-0.58,0.3c-0.07,0.04-0.13,0.07-0.2,0.11c-0.18,0.1-0.36,0.2-0.54,0.31c-0.07,0.04-0.15,0.09-0.22,0.13
			c-0.17,0.1-0.34,0.21-0.51,0.32c-0.08,0.05-0.15,0.1-0.22,0.15c-0.17,0.11-0.33,0.22-0.5,0.33c-0.07,0.05-0.14,0.1-0.21,0.15
			c-0.16,0.12-0.33,0.24-0.49,0.36c-0.06,0.05-0.13,0.1-0.19,0.15c-0.17,0.13-0.33,0.26-0.49,0.39c-0.04,0.04-0.08,0.07-0.12,0.11
			c-0.56,0.47-1.1,0.97-1.61,1.49c-0.04,0.04-0.08,0.08-0.12,0.13c-0.13,0.14-0.26,0.28-0.38,0.41c-0.07,0.08-0.14,0.16-0.21,0.24
			c-0.11,0.13-0.23,0.26-0.34,0.4c-0.08,0.09-0.15,0.19-0.23,0.28c-0.1,0.13-0.21,0.26-0.31,0.39c-0.08,0.1-0.16,0.2-0.23,0.31
			c-0.1,0.13-0.19,0.26-0.28,0.39c-0.08,0.11-0.15,0.22-0.23,0.33c-0.09,0.13-0.18,0.26-0.26,0.39c-0.08,0.12-0.15,0.24-0.22,0.35
			c-0.08,0.13-0.16,0.26-0.24,0.39c-0.08,0.13-0.15,0.25-0.22,0.38c-0.07,0.13-0.15,0.26-0.22,0.39c-0.08,0.14-0.15,0.28-0.22,0.43
			c-0.06,0.12-0.12,0.24-0.18,0.36c-0.11,0.22-0.21,0.45-0.31,0.68c-0.05,0.12-0.1,0.24-0.15,0.36c-0.08,0.19-0.16,0.38-0.23,0.58
			c-0.04,0.11-0.08,0.23-0.13,0.35c-0.06,0.17-0.12,0.33-0.18,0.5c-0.04,0.12-0.08,0.25-0.12,0.37c-0.05,0.17-0.1,0.33-0.15,0.5
			c-0.04,0.13-0.07,0.25-0.1,0.38c-0.04,0.17-0.09,0.33-0.13,0.5c-0.03,0.13-0.06,0.26-0.09,0.39c-0.01,0.07-0.03,0.13-0.04,0.2
			c-0.02,0.1-0.04,0.21-0.06,0.31c-0.03,0.13-0.05,0.26-0.07,0.39c-0.03,0.17-0.06,0.35-0.08,0.53c-0.02,0.13-0.04,0.26-0.06,0.38
			c-0.02,0.19-0.04,0.37-0.06,0.56c-0.01,0.12-0.03,0.24-0.04,0.37c-0.02,0.21-0.03,0.41-0.04,0.62c-0.01,0.1-0.01,0.21-0.02,0.31
			c-0.01,0.31-0.02,0.63-0.02,0.94c0,1.5,0,2.27,0,2.63h42.46c0-0.3,0-1.03,0-2.63c0-0.32-0.01-0.63-0.02-0.94
			c0-0.1-0.01-0.21-0.02-0.31c-0.01-0.21-0.02-0.42-0.04-0.63c-0.01-0.12-0.03-0.24-0.04-0.37c-0.02-0.19-0.04-0.37-0.06-0.56
			c-0.02-0.13-0.04-0.26-0.06-0.38c-0.03-0.18-0.05-0.35-0.09-0.53c-0.02-0.13-0.05-0.26-0.07-0.39c-0.02-0.12-0.05-0.24-0.07-0.36
			c-0.01-0.05-0.02-0.1-0.04-0.15C70.54,88.15,70.51,88.02,70.48,87.89z"/>
	</g>
</g>
</svg>
