<?xml version="1.0" encoding="utf-8"?>
<!-- Generator: Adobe Illustrator 26.1.0, SVG Export Plug-In . SVG Version: 6.00 Build 0)  -->
<svg version="1.1" id="Layer_1" xmlns="http://www.w3.org/2000/svg" xmlns:xlink="http://www.w3.org/1999/xlink" x="0px" y="0px"
	 viewBox="0 0 100 100" style="enable-background:new 0 0 100 100;" xml:space="preserve">
<style type="text/css">
	.st0{clip-path:url(#SVGID_00000033349178001696389820000014889416601243864245_);}
	.st1{fill:#F8D9DE;}
	.st2{fill:#FF4612;}
	.st3{fill:#BB6124;}
	.st4{fill:#FF8087;}
	.st5{fill:#FF595A;}
</style>
<g>
	<defs>
		<circle id="SVGID_1_" cx="50" cy="50" r="45"/>
	</defs>
	<use xlink:href="#SVGID_1_"  style="overflow:visible;fill:#F3C200;"/>
	<clipPath id="SVGID_00000124851062641841770160000007040478900828690084_">
		<use xlink:href="#SVGID_1_"  style="overflow:visible;"/>
	</clipPath>
	<g style="clip-path:url(#SVGID_00000124851062641841770160000007040478900828690084_);">
		<path class="st1" d="M31.29,84.3c-1.44,2.86-2.25,6.1-2.25,9.52c0,2.64,0,2.64,0,2.64h9.17v-7.92L31.29,84.3z"/>
		<path class="st1" d="M69.17,57.15c0.07,0.01,0.15,0.01,0.22,0.01c1.78,0,3.22-1.44,3.22-3.22c0-1.47-0.99-2.72-2.35-3.1
			c-0.03,0-0.06,0-0.1,0l-2.73,1.88c-6.76,0.39-25.07-1.89-27.11-10.15c0,0-0.47,8.49-6.75,10.15l-2.73-1.88
			c-0.02-0.02-0.03-0.05-0.05-0.09c-1.57,0.22-2.78,1.56-2.78,3.19c0,1.78,1.44,3.22,3.22,3.22c0.07,0,0.14-0.01,0.21-0.01
			c1.24,8.64,7.58,12.91,15.65,13.77v1.72c0.1,0.78,1.5,1.41,3.23,1.41c1.71,0,3.11-0.61,3.22-1.39v-1.73
			C61.6,70.05,67.93,65.79,69.17,57.15z M45.33,64.08h9.97C50.43,67.55,45.33,64.08,45.33,64.08z"/>
		<path class="st1" d="M62.41,96.46h9.17c0,0,0,0,0-2.64c0-3.42-0.81-6.65-2.25-9.52l-6.92,4.24V96.46z"/>
		<path class="st2" d="M45.33,64.08c0,0,5.1,3.46,9.97,0H45.33z"/>
		<path class="st3" d="M33.58,52.72c6.28-1.66,6.75-10.15,6.75-10.15c2.04,8.27,20.35,10.54,27.11,10.15l2.73-1.88
			c0.04,0,0.07,0,0.1,0c0.19,0,0.09-0.08-0.03-0.12c0.97-1.48,0.94-4.54,0.83-6.03c-0.71-9.36-5.14-14.91-13.22-17.48
			c-5.55-1.96-11.84-2.25-15.7-2.2c-0.06,0-0.13-0.01-0.19-0.01c-5.84,0-14.57,0.16-14.57,0.16s4.37,4.59,3.9,13.72
			c-0.09,1.75-1.11,10.59-0.49,11.87c0.02,0.03,0.03,0.06,0.05,0.09L33.58,52.72z"/>
		<path class="st4" d="M50.32,75.38c-2.39,0-4.39-1.01-4.98-2.39c-6.21,1.48-11.37,5.66-14.17,11.23l0.1,0.06l0.02,0.01l6.92,4.24
			v7.92h24.2v-7.92l6.92-4.24l0.02-0.01l0.1-0.06c-2.8-5.58-7.96-9.75-14.17-11.23C54.7,74.37,52.7,75.38,50.32,75.38z"/>
		<path class="st5" d="M50.32,74.05c-1.73,0-3.13-0.62-3.23-1.41c0-0.02-0.01-0.03-0.01-0.05c-0.01,0-0.01,0-0.02,0
			c-0.59,0.09-1.17,0.21-1.75,0.35c0.01,0.01,0.01,0.03,0.02,0.04c0,0,0,0.01,0.01,0.01c0.59,1.37,2.59,2.39,4.98,2.39
			c2.38,0,4.39-1.01,4.98-2.39c0,0,0,0,0,0c0.01-0.02,0.02-0.03,0.02-0.05c-0.58-0.14-1.17-0.26-1.77-0.35
			c0,0.02-0.01,0.03-0.01,0.05c0,0.01,0,0.01,0,0.01C53.43,73.43,52.03,74.05,50.32,74.05z"/>
	</g>
</g>
</svg>
