<?xml version="1.0" encoding="utf-8"?>
<!-- Generator: Adobe Illustrator 26.1.0, SVG Export Plug-In . SVG Version: 6.00 Build 0)  -->
<svg version="1.1" id="Layer_1" xmlns="http://www.w3.org/2000/svg" xmlns:xlink="http://www.w3.org/1999/xlink" x="0px" y="0px"
	 viewBox="0 0 100 100" style="enable-background:new 0 0 100 100;" xml:space="preserve">
<style type="text/css">
	.st0{clip-path:url(#SVGID_00000082352869525224239110000013116135280948598716_);}
	.st1{fill:#FC90A2;}
	.st2{fill:none;stroke:#F8D9DE;stroke-width:0;stroke-linecap:round;stroke-linejoin:round;}
	.st3{fill:#F8D9DE;}
	.st4{fill:#5C6670;}
</style>
<g>
	<defs>
		<path id="SVGID_1_" d="M95,50c0,24.85-20.15,45-45,45C25.15,95,5,74.85,5,50C5,25.15,25.15,5,50,5C74.85,5,95,25.15,95,50z"/>
	</defs>
	<use xlink:href="#SVGID_1_"  style="overflow:visible;fill:#CDDE00;"/>
	<clipPath id="SVGID_00000156576270365449080700000013873570280335076740_">
		<use xlink:href="#SVGID_1_"  style="overflow:visible;"/>
	</clipPath>
	<g style="clip-path:url(#SVGID_00000156576270365449080700000013873570280335076740_);">
		<path class="st1" d="M68.82,56.3c-1.24,8.62-7.56,12.88-15.61,13.75v1.87c1.6,0.24,3.15,0.67,4.61,1.25h13.4c0,0,0-9.93,0-17.71
			c-0.57,0.53-1.34,0.86-2.19,0.86C68.97,56.31,68.9,56.31,68.82,56.3z"/>
		<path class="st1" d="M46.78,70.05c-8.05-0.86-14.38-5.12-15.62-13.75c-0.07,0-0.14,0.01-0.21,0.01c-0.85,0-1.61-0.33-2.19-0.86
			c0,7.8,0,17.71,0,17.71h13.4c1.46-0.58,3.01-1,4.61-1.25V70.05z"/>
		<path class="st2" d="M28.77,95.53c0,0.22,0,0.3,0,0.3"/>
		<path class="st2" d="M71.23,95.73c0,0.02,0-0.19,0-0.19"/>
		<path class="st3" d="M28.95,90.14c0.01-0.08,0.02-0.16,0.03-0.24C28.97,89.98,28.96,90.06,28.95,90.14z"/>
		<path class="st3" d="M30.44,84.63c0.04-0.11,0.09-0.21,0.14-0.31C30.53,84.42,30.49,84.53,30.44,84.63z"/>
		<path class="st3" d="M71.19,91.72c0,0.09,0.01,0.19,0.01,0.28C71.2,91.91,71.2,91.81,71.19,91.72z"/>
		<path class="st3" d="M29.3,88.19c0.02-0.1,0.05-0.2,0.07-0.3C29.35,87.99,29.32,88.09,29.3,88.19z"/>
		<path class="st3" d="M28.79,92c0-0.09,0.01-0.19,0.01-0.28C28.8,91.81,28.8,91.91,28.79,92z"/>
		<path class="st3" d="M28.85,91.09c0.01-0.1,0.02-0.2,0.03-0.3C28.87,90.89,28.86,90.99,28.85,91.09z"/>
		<path class="st3" d="M30.13,85.42c0.03-0.09,0.07-0.18,0.11-0.27C30.2,85.24,30.16,85.33,30.13,85.42z"/>
		<path class="st3" d="M29.51,87.33c0.03-0.1,0.05-0.2,0.08-0.3C29.57,87.13,29.54,87.23,29.51,87.33z"/>
		<path class="st3" d="M69.06,83.54c0.05,0.1,0.1,0.2,0.14,0.3C69.15,83.74,69.11,83.64,69.06,83.54z"/>
		<path class="st3" d="M29.12,89.04c0.01-0.06,0.03-0.12,0.04-0.19C29.15,88.92,29.13,88.98,29.12,89.04z"/>
		<path class="st3" d="M69.77,85.15c0.04,0.09,0.07,0.18,0.11,0.27C69.84,85.33,69.8,85.24,69.77,85.15z"/>
		<path class="st3" d="M71.12,90.79c0.01,0.1,0.02,0.2,0.03,0.3C71.14,90.99,71.13,90.89,71.12,90.79z"/>
		<path class="st3" d="M70.41,87.03c0.03,0.1,0.06,0.2,0.08,0.3C70.46,87.23,70.43,87.13,70.41,87.03z"/>
		<path class="st3" d="M69.42,84.32c0.05,0.1,0.09,0.21,0.14,0.31C69.51,84.53,69.47,84.42,69.42,84.32z"/>
		<path class="st3" d="M70.15,86.21c0.02,0.07,0.04,0.13,0.06,0.2C70.19,86.34,70.17,86.28,70.15,86.21z"/>
		<path class="st3" d="M71.02,89.9c0.01,0.08,0.02,0.16,0.03,0.24C71.04,90.06,71.03,89.98,71.02,89.9z"/>
		<path class="st3" d="M70.84,88.86c0.01,0.06,0.03,0.12,0.04,0.19C70.87,88.98,70.85,88.92,70.84,88.86z"/>
		<path class="st3" d="M70.63,87.89c0.02,0.1,0.05,0.2,0.07,0.3C70.68,88.09,70.65,87.99,70.63,87.89z"/>
		<path class="st3" d="M29.79,86.41c0.02-0.07,0.04-0.13,0.06-0.2C29.83,86.28,29.81,86.34,29.79,86.41z"/>
		<path class="st3" d="M37.62,75.66c0.3-0.22,0.61-0.42,0.92-0.62C38.23,75.24,37.92,75.44,37.62,75.66z"/>
		<path class="st3" d="M30.8,83.84c0.05-0.1,0.09-0.2,0.14-0.3C30.89,83.64,30.85,83.74,30.8,83.84z"/>
		<path class="st3" d="M34.94,77.94c0.23-0.23,0.46-0.45,0.69-0.66C35.4,77.5,35.17,77.72,34.94,77.94z"/>
		<path class="st3" d="M35.8,77.12c0.12-0.11,0.25-0.22,0.38-0.33C36.05,76.9,35.93,77.01,35.8,77.12z"/>
		<path class="st3" d="M37.05,76.09c0.14-0.11,0.28-0.21,0.42-0.31C37.32,75.87,37.19,75.98,37.05,76.09z"/>
		<path class="st3" d="M72.26,53.1c0-0.93-0.4-1.76-1.03-2.35c-0.45-0.42-1.02-0.71-1.66-0.82H58.09l-4.24-7.85l1.26,7.85H30.43
			c-0.64,0.1-1.21,0.39-1.66,0.82c-0.63,0.59-1.03,1.42-1.03,2.35c0,0.93,0.4,1.77,1.03,2.35c0.57,0.53,1.34,0.86,2.19,0.86
			c0.07,0,0.14-0.01,0.21-0.01c1.24,8.62,7.57,12.88,15.62,13.75v1.86c-1.6,0.24-3.15,0.67-4.61,1.25c-0.71,0.28-1.4,0.6-2.07,0.96
			c0.16-0.09,0.33-0.17,0.49-0.25c1.61,2.08,5.21,3.53,9.41,3.53c4.19,0,7.8-1.45,9.4-3.53c0.17,0.08,0.33,0.17,0.49,0.25
			c-0.67-0.35-1.36-0.68-2.07-0.96c-1.46-0.58-3.01-1-4.61-1.25v-1.87c8.04-0.87,14.37-5.13,15.61-13.75c0.07,0,0.15,0.01,0.22,0.01
			c0.85,0,1.61-0.33,2.19-0.86C71.86,54.87,72.26,54.03,72.26,53.1z M45.03,63.22h9.95C50.12,66.68,45.03,63.22,45.03,63.22z"/>
		<path class="st3" d="M39.41,74.5c0.16-0.09,0.31-0.18,0.47-0.26C39.72,74.33,39.57,74.41,39.41,74.5z"/>
		<path class="st3" d="M38.71,74.92c0.15-0.1,0.31-0.19,0.46-0.28C39.02,74.73,38.86,74.83,38.71,74.92z"/>
		<path class="st3" d="M36.42,76.59c0.13-0.11,0.26-0.21,0.39-0.32C36.68,76.38,36.55,76.48,36.42,76.59z"/>
		<path class="st3" d="M31.72,82.1c0.06-0.11,0.13-0.21,0.2-0.32C31.85,81.89,31.78,82,31.72,82.1z"/>
		<path class="st3" d="M32.16,81.39c0.07-0.11,0.14-0.22,0.22-0.33C32.31,81.17,32.23,81.28,32.16,81.39z"/>
		<path class="st3" d="M34.38,78.53c0.1-0.11,0.21-0.23,0.32-0.34C34.59,78.3,34.49,78.41,34.38,78.53z"/>
		<path class="st3" d="M31.24,82.95c0.06-0.11,0.12-0.22,0.18-0.33C31.36,82.73,31.3,82.84,31.24,82.95z"/>
		<path class="st3" d="M33.84,79.14c0.1-0.11,0.2-0.23,0.3-0.34C34.03,78.92,33.94,79.03,33.84,79.14z"/>
		<path class="st3" d="M33.3,79.8c0.09-0.12,0.19-0.23,0.28-0.35C33.49,79.57,33.39,79.68,33.3,79.8z"/>
		<path class="st3" d="M32.64,80.69c0.08-0.11,0.15-0.21,0.23-0.32C32.78,80.48,32.71,80.59,32.64,80.69z"/>
		<path class="st3" d="M68.08,81.78c0.07,0.11,0.13,0.21,0.2,0.32C68.22,82,68.15,81.89,68.08,81.78z"/>
		<path class="st3" d="M64.37,77.28c0.24,0.22,0.47,0.44,0.69,0.66C64.83,77.72,64.6,77.5,64.37,77.28z"/>
		<path class="st3" d="M63.19,76.27c0.13,0.1,0.26,0.21,0.39,0.32C63.45,76.48,63.32,76.38,63.19,76.27z"/>
		<path class="st3" d="M63.82,76.79c0.13,0.11,0.26,0.22,0.38,0.33C64.07,77.01,63.95,76.9,63.82,76.79z"/>
		<path class="st3" d="M66.42,79.45c0.09,0.12,0.19,0.23,0.28,0.35C66.61,79.68,66.51,79.57,66.42,79.45z"/>
		<path class="st3" d="M65.3,78.19c0.11,0.11,0.21,0.22,0.32,0.34C65.51,78.41,65.41,78.3,65.3,78.19z"/>
		<path class="st3" d="M65.87,78.8c0.1,0.11,0.2,0.22,0.3,0.34C66.07,79.03,65.97,78.92,65.87,78.8z"/>
		<path class="st3" d="M61.46,75.04c0.31,0.2,0.62,0.41,0.92,0.62C62.08,75.44,61.77,75.24,61.46,75.04z"/>
		<path class="st3" d="M60.12,74.24c0.16,0.09,0.31,0.17,0.47,0.26C60.43,74.41,60.28,74.33,60.12,74.24z"/>
		<path class="st3" d="M60.83,74.64c0.15,0.09,0.31,0.18,0.46,0.28C61.14,74.83,60.98,74.73,60.83,74.64z"/>
		<path class="st3" d="M62.54,75.77c0.14,0.1,0.28,0.21,0.41,0.31C62.82,75.98,62.68,75.87,62.54,75.77z"/>
		<path class="st3" d="M67.62,81.06c0.08,0.11,0.15,0.22,0.22,0.33C67.77,81.28,67.69,81.17,67.62,81.06z"/>
		<path class="st3" d="M67.14,80.37c0.08,0.11,0.15,0.21,0.23,0.32C67.29,80.59,67.22,80.48,67.14,80.37z"/>
		<path class="st3" d="M68.57,82.62c0.06,0.11,0.12,0.22,0.18,0.33C68.7,82.84,68.64,82.73,68.57,82.62z"/>
		<path class="st1" d="M55.11,49.93l-1.26-7.85l4.24,7.85h11.48c0.64,0.1,1.21,0.39,1.66,0.82c0-1.74,0-3.11,0-3.84
			c0-11.72-9.5-21.23-21.23-21.23c-11.72,0-21.23,9.5-21.23,21.23c0,0.77,0,2.13,0,3.84c0.45-0.42,1.02-0.71,1.66-0.82H55.11z"/>
		<path class="st1" d="M54.98,63.22h-9.95C45.03,63.22,50.12,66.68,54.98,63.22z"/>
		<path class="st4" d="M50,77.4c-4.19,0-7.8-1.45-9.41-3.53c-0.16,0.08-0.33,0.17-0.49,0.25c-0.08,0.04-0.15,0.08-0.23,0.12
			c-0.16,0.09-0.31,0.17-0.47,0.26c-0.08,0.05-0.16,0.09-0.24,0.14c-0.15,0.09-0.31,0.18-0.46,0.28c-0.06,0.04-0.12,0.08-0.18,0.11
			c-0.31,0.2-0.62,0.41-0.92,0.62c-0.05,0.04-0.1,0.07-0.16,0.11c-0.14,0.1-0.28,0.21-0.42,0.31c-0.08,0.06-0.16,0.12-0.24,0.19
			c-0.13,0.1-0.26,0.21-0.39,0.32c-0.08,0.07-0.16,0.13-0.24,0.2c-0.13,0.11-0.25,0.22-0.38,0.33c-0.06,0.05-0.11,0.11-0.17,0.16
			c-0.24,0.22-0.47,0.44-0.69,0.66c-0.08,0.08-0.16,0.16-0.24,0.25c-0.11,0.11-0.21,0.22-0.32,0.34c-0.08,0.09-0.17,0.18-0.25,0.27
			c-0.1,0.11-0.2,0.22-0.3,0.34c-0.09,0.1-0.17,0.21-0.26,0.31c-0.09,0.12-0.19,0.23-0.28,0.35c-0.15,0.19-0.29,0.38-0.44,0.57
			c-0.08,0.11-0.15,0.21-0.23,0.32c-0.09,0.12-0.17,0.24-0.25,0.37c-0.07,0.11-0.15,0.22-0.22,0.33c-0.08,0.13-0.16,0.26-0.24,0.39
			c-0.07,0.11-0.13,0.21-0.2,0.32c-0.1,0.17-0.2,0.34-0.3,0.52c-0.06,0.11-0.12,0.22-0.18,0.33c-0.1,0.19-0.2,0.39-0.3,0.59
			c-0.05,0.1-0.1,0.2-0.14,0.3c-0.07,0.16-0.15,0.32-0.22,0.48c-0.05,0.1-0.09,0.21-0.14,0.31c-0.07,0.17-0.14,0.34-0.21,0.52
			c-0.04,0.09-0.07,0.18-0.11,0.27c-0.1,0.26-0.19,0.52-0.28,0.78c-0.02,0.07-0.04,0.13-0.06,0.2c-0.07,0.21-0.13,0.42-0.19,0.63
			c-0.03,0.1-0.06,0.2-0.08,0.3c-0.05,0.19-0.1,0.37-0.14,0.56c-0.02,0.1-0.05,0.2-0.07,0.3c-0.05,0.22-0.1,0.44-0.14,0.67
			c-0.01,0.06-0.03,0.12-0.04,0.19c-0.05,0.28-0.1,0.57-0.14,0.86c-0.01,0.08-0.02,0.16-0.03,0.24c-0.03,0.21-0.05,0.43-0.07,0.65
			c-0.01,0.1-0.02,0.2-0.03,0.3c-0.02,0.21-0.03,0.42-0.04,0.63c-0.01,0.09-0.01,0.19-0.01,0.28c-0.01,0.3-0.02,0.6-0.02,0.9
			c0,1.5,0,2.26,0,2.63h42.46c0-0.3,0-1.03,0-2.63c0-0.3-0.01-0.6-0.02-0.9c0-0.09-0.01-0.19-0.01-0.28
			c-0.01-0.21-0.03-0.42-0.04-0.63c-0.01-0.1-0.02-0.2-0.03-0.3c-0.02-0.22-0.05-0.43-0.08-0.65c-0.01-0.08-0.02-0.16-0.03-0.24
			c-0.04-0.29-0.09-0.58-0.14-0.86c-0.01-0.06-0.03-0.12-0.04-0.19c-0.04-0.23-0.09-0.45-0.14-0.67c-0.02-0.1-0.05-0.2-0.07-0.3
			c-0.05-0.19-0.09-0.38-0.14-0.56c-0.03-0.1-0.05-0.2-0.08-0.3c-0.06-0.21-0.12-0.42-0.19-0.63c-0.02-0.07-0.04-0.13-0.06-0.2
			c-0.09-0.26-0.18-0.52-0.28-0.78c-0.03-0.09-0.07-0.18-0.11-0.27c-0.07-0.17-0.14-0.35-0.21-0.52c-0.04-0.11-0.09-0.21-0.14-0.31
			c-0.07-0.16-0.14-0.32-0.22-0.48c-0.05-0.1-0.09-0.2-0.14-0.3c-0.1-0.2-0.2-0.39-0.3-0.59c-0.06-0.11-0.12-0.22-0.18-0.33
			c-0.1-0.17-0.19-0.35-0.3-0.52c-0.06-0.11-0.13-0.21-0.2-0.32c-0.08-0.13-0.16-0.26-0.24-0.39c-0.07-0.11-0.14-0.22-0.22-0.33
			c-0.08-0.12-0.17-0.25-0.25-0.37c-0.08-0.11-0.15-0.21-0.23-0.32c-0.14-0.19-0.29-0.39-0.44-0.57c-0.09-0.12-0.19-0.23-0.28-0.35
			c-0.09-0.1-0.17-0.21-0.26-0.31c-0.1-0.11-0.2-0.23-0.3-0.34c-0.08-0.09-0.17-0.18-0.25-0.27c-0.1-0.11-0.21-0.23-0.32-0.34
			c-0.08-0.08-0.16-0.16-0.24-0.25c-0.23-0.23-0.46-0.45-0.69-0.66c-0.06-0.05-0.11-0.11-0.17-0.16c-0.12-0.11-0.25-0.22-0.38-0.33
			c-0.08-0.07-0.16-0.14-0.24-0.2c-0.13-0.11-0.26-0.21-0.39-0.32c-0.08-0.06-0.16-0.12-0.24-0.19c-0.14-0.11-0.27-0.21-0.41-0.31
			c-0.05-0.04-0.11-0.08-0.16-0.11c-0.3-0.22-0.6-0.42-0.92-0.62c-0.06-0.04-0.12-0.08-0.18-0.11c-0.15-0.1-0.31-0.19-0.46-0.28
			c-0.08-0.05-0.16-0.09-0.24-0.14c-0.16-0.09-0.31-0.18-0.47-0.26c-0.08-0.04-0.15-0.08-0.23-0.12c-0.16-0.09-0.33-0.17-0.49-0.25
			C57.8,75.95,54.19,77.4,50,77.4z"/>
	</g>
</g>
</svg>
