<?xml version="1.0" encoding="utf-8"?>
<!-- Generator: Adobe Illustrator 26.1.0, SVG Export Plug-In . SVG Version: 6.00 Build 0)  -->
<svg version="1.1" id="Layer_1" xmlns="http://www.w3.org/2000/svg" xmlns:xlink="http://www.w3.org/1999/xlink" x="0px" y="0px"
	 viewBox="0 0 100 100" style="enable-background:new 0 0 100 100;" xml:space="preserve">
<style type="text/css">
	.st0{fill:#12B3BD;}
	.st1{opacity:0.1;}
	.st2{clip-path:url(#SVGID_00000148624779952592290170000012906806794100037507_);}
	.st3{fill:#881300;}
	.st4{fill:#FEE1B9;}
	.st5{fill:#FFD9AC;}
	.st6{fill:#FFFFFF;}
	.st7{fill:#726658;}
	.st8{fill:#A0352A;}
	.st9{fill:#90C53F;}
	.st10{fill:#5FA63C;}
	.st11{fill:#B7472F;}
	.st12{fill:#FAA21C;}
</style>
<g id="ava_06_00000099639953148797651140000005610140203608088744_">
	<g>
		<g>
			<path class="st0" d="M95,50C95,25.1,74.9,5,50,5C25.1,5,5,25.1,5,50c0,24.9,20.1,45,45,45C74.9,95,95,74.9,95,50z"/>
		</g>
	</g>
	<path class="st1" d="M62.2,93.3C81.1,88,95,70.6,95,50c0-0.9,0-1.8-0.1-2.6L65.5,17.9l-6.3,6.3l-4-4L30.1,45.4l7.9,7.9l-7.9,7.9
		L62.2,93.3z"/>
	<g>
		<defs>
			<path id="SVGID_1_" d="M95,50C95,25.1,74.9,5,50,5C25.1,5,5,25.1,5,50c0,24.9,20.1,45,45,45C74.9,95,95,74.9,95,50z"/>
		</defs>
		<clipPath id="SVGID_00000163765495503636181020000017813817854965810854_">
			<use xlink:href="#SVGID_1_"  style="overflow:visible;"/>
		</clipPath>
		<g style="clip-path:url(#SVGID_00000163765495503636181020000017813817854965810854_);">
			<path class="st3" d="M40.8,62.8c0,0,18.4,0,22.3,0c3.9,0,8-16.8,6.9-23.8C68.8,32,34,27.5,34,27.5l-0.2,26.1
				C33.7,53.6,31.3,61,40.8,62.8z"/>
			<polygon class="st4" points="57.4,74.2 50.1,95 43,74.2 43,58.1 57.4,58.1 			"/>
			<polygon class="st5" points="57.4,74.2 57.4,58.1 50.2,58.1 50.2,94.7 			"/>
			<path class="st5" d="M30.9,44.2c-0.2-2.4,1.1-4.5,2.9-4.8c1.9-0.3,3.6,1.5,3.8,3.9c0.2,2.4-1.1,4.5-2.9,4.8
				C32.8,48.3,31.1,46.5,30.9,44.2z"/>
			<g>
				<g>
					<g>
						<path class="st4" d="M69.6,44.1c0.3-2.4-0.9-4.5-2.8-4.7c-1.8-0.2-3.6,1.6-3.9,4c-0.3,2.4,0.9,4.5,2.8,4.7
							C67.5,48.3,69.3,46.5,69.6,44.1z"/>
					</g>
					<g>
						<g>
							<path class="st4" d="M50.2,24.8c0,0-15.2,1.9-15.2,10c0,0,0,11,0,14.2c0,3.2,5.2,12.4,9.8,12.7c2.3,0.2,5.4,0.5,5.4,0.5
								s3.1-0.3,5.4-0.5c4.7-0.4,9.8-9.5,9.8-12.7c0-3.2,0-14.2,0-14.2C65.5,26.7,50.2,24.8,50.2,24.8z"/>
						</g>
						<g>
							<path class="st5" d="M65.4,34.9c0,0,0,11,0,14.2c0,3.2-5.2,12.4-9.8,12.7c-2.3,0.2-5.4,0.5-5.4,0.5V24.8
								C50.2,24.8,65.4,26.7,65.4,34.9z"/>
						</g>
					</g>
					<g>
						<path class="st6" d="M50.1,56.2c2.1,0,3.9-1.5,3.9-3.4h-7.7C46.2,54.7,48,56.2,50.1,56.2z"/>
						<path class="st7" d="M59.2,43.8c0-0.7-0.6-1.3-1.3-1.3c-0.7,0-1.3,0.6-1.3,1.3c0,0.7,0.6,1.3,1.3,1.3
							C58.6,45.1,59.2,44.5,59.2,43.8z"/>
						<path class="st7" d="M43.8,43.2c0-0.7-0.6-1.3-1.3-1.3c-0.7,0-1.3,0.6-1.3,1.3c0,0.7,0.6,1.3,1.3,1.3
							C43.2,44.6,43.8,44,43.8,43.2z"/>
						<g>
							<g>
								<g>
									<path class="st8" d="M45.2,40.7c-0.1,0-0.2,0-0.2-0.1c-0.5-0.6-1.4-1-2.5-1c-1.1,0-2,0.4-2.5,1c-0.1,0.1-0.3,0.1-0.4,0.1
										c-0.1-0.1-0.1-0.3-0.1-0.4c0.6-0.8,1.7-1.2,2.9-1.2c1.2,0,2.3,0.5,2.9,1.2c0.1,0.1,0.1,0.3-0.1,0.4
										C45.3,40.7,45.2,40.7,45.2,40.7z"/>
								</g>
							</g>
						</g>
						<g>
							<g>
								<g>
									<path class="st8" d="M60.6,40.7c-0.1,0-0.2,0-0.2-0.1c-0.5-0.6-1.4-1-2.5-1c-1.1,0-2,0.4-2.5,1c-0.1,0.1-0.3,0.1-0.4,0.1
										c-0.1-0.1-0.1-0.3-0.1-0.4c0.6-0.8,1.7-1.2,2.9-1.2c1.2,0,2.3,0.5,2.9,1.2c0.1,0.1,0.1,0.3-0.1,0.4
										C60.7,40.7,60.6,40.7,60.6,40.7z"/>
								</g>
							</g>
						</g>
					</g>
				</g>
			</g>
			<path class="st4" d="M50.2,95V69.4c0,0-5.5-1.4-6.7-5.8C43,61.5,43,62,43,64.1c0,6.6-15.5,3.7-19.7,8.8c-3.3,4.6-5.6,22-5.6,22
				H50.2z"/>
			<path class="st5" d="M50.2,95V68.1c0,0,5.2-0.1,6.2-2.6c0.4-0.9,1-3.4,1-1.2c0,6.6,15.5,3.7,19.7,8.8c3.3,4.6,5.6,22,5.6,22H50.2
				z"/>
			<path class="st9" d="M50.2,80.4c-6.1,0-11.1-5.7-11.2-12.8c-2.4,1-8.1,1.3-9.9,2.4V95h21.1V80.4z"/>
			<path class="st10" d="M50.2,80.4c6.1,0,11.1-5.7,11.2-12.8c2.4,1,8.1,1.3,9.9,2.4V95H50.2V80.4z"/>
			<path class="st11" d="M50.2,12.5v19.7c0,0-9,0.6-14.7,8.7c0,6.8,0,10.4,0,12.6c0,2.3,0.6,8.1,5.3,9.3c-6.8,0-13.2,1.7-13.2-10.1
				c0-8.5,0-13.7,0-18.4C27.6,29.5,31.2,12.5,50.2,12.5z"/>
			<path class="st8" d="M50.2,12.5v19.7c0,0,10.1,1.1,14.7,8.7c0,6.8,0,10.4,0,12.6c0,2.3-0.6,8.1-5.3,9.3c6.8,0,13.2,1.7,13.2-10.1
				c0-8.5,0-13.7,0-18.4C72.7,29.5,69.2,12.5,50.2,12.5z"/>
			<path class="st12" d="M50.2,24c7.9,0,14.4,6.1,15,13.8c0-0.4,0.1-0.8,0.1-1.2c0-8.3-6.7-15-15-15c-8.3,0-15,6.7-15,15
				c0,0.4,0,0.8,0.1,1.2C35.8,30.1,42.3,24,50.2,24z"/>
		</g>
	</g>
</g>
</svg>
