<?xml version="1.0" encoding="utf-8"?>
<!-- Generator: Adobe Illustrator 26.1.0, SVG Export Plug-In . SVG Version: 6.00 Build 0)  -->
<svg version="1.1" id="Layer_1" xmlns="http://www.w3.org/2000/svg" xmlns:xlink="http://www.w3.org/1999/xlink" x="0px" y="0px"
	 viewBox="0 0 100 100" style="enable-background:new 0 0 100 100;" xml:space="preserve">
<style type="text/css">
	.st0{clip-path:url(#SVGID_00000153674095861815583330000000981404892668561312_);}
	.st1{fill:#CB3525;}
	.st2{fill:#F8D9DE;}
	.st3{fill:none;stroke:#CB3525;stroke-width:0;stroke-linecap:round;stroke-linejoin:round;}
	.st4{fill:#FC90A2;}
	.st5{fill:none;stroke:#B8CAE9;stroke-width:0;stroke-linecap:round;stroke-linejoin:round;}
	.st6{fill:#B8CAE9;}
	.st7{fill:#0C3182;}
</style>
<g>
	<defs>
		<path id="SVGID_1_" d="M95,50c0,24.85-20.15,45-45,45C25.15,95,5,74.85,5,50S25.15,5,50,5C74.85,5,95,25.15,95,50z"/>
	</defs>
	<use xlink:href="#SVGID_1_"  style="overflow:visible;fill:#CC93B3;"/>
	<clipPath id="SVGID_00000049193239997088697250000009075452014361044895_">
		<use xlink:href="#SVGID_1_"  style="overflow:visible;"/>
	</clipPath>
	<g style="clip-path:url(#SVGID_00000049193239997088697250000009075452014361044895_);">
		<path class="st1" d="M75.28,47.85c1.43-1.37,2.31-3.29,2.31-5.42c0-2-0.79-3.82-2.07-5.16c0.34-0.85,0.53-1.78,0.53-2.76
			c0-4-3.14-7.27-7.09-7.49c-0.99-3.64-4.32-6.32-8.28-6.32c-1.05,0-2.05,0.19-2.98,0.53c-1.5-3.08-4.65-5.2-8.31-5.2
			c-3.63,0-6.77,2.09-8.27,5.14c-0.87-0.23-1.78-0.36-2.72-0.36c-5.83,0-10.56,4.73-10.56,10.56c0,0.7,0.07,1.38,0.2,2.04
			c-3.29,1.17-5.65,4.31-5.65,8.01c0,2.48,1.06,4.7,2.75,6.26c-0.85,1.32-1.34,2.89-1.34,4.57c0,2.77,1.32,5.23,3.37,6.78
			c1,3.59,4.28,6.22,8.19,6.22c0.2,0,0.4-0.01,0.6-0.02c-2.23-2.19-3.77-5.14-4.31-8.93c-0.07,0-0.13,0.01-0.2,0.01
			c-1.77,0-3.21-1.44-3.21-3.21c0-1.54,1.08-2.82,2.52-3.14c2.81,0.09,14.82-0.17,15.75-11.22c0.21,3.24,2.88,10.98,23.51,11.18
			c1.54,0.23,2.73,1.56,2.73,3.17c0,1.77-1.44,3.21-3.21,3.21c-0.07,0-0.15-0.01-0.22-0.01c-0.55,3.81-2.09,6.76-4.33,8.95
			c0.09,0,0.18,0.01,0.27,0.01c3.2,0,5.92-2,7-4.82c3.09-0.93,5.34-3.79,5.34-7.18C77.6,51.14,76.71,49.22,75.28,47.85z
			 M70.83,49.93c2.09,0,2.81,0,2.83,0C73.64,49.93,72.92,49.93,70.83,49.93z"/>
		<path class="st2" d="M29.36,90.93c0.01-0.12,0.03-0.25,0.04-0.37C29.39,90.68,29.37,90.81,29.36,90.93z"/>
		<path class="st2" d="M71.69,91.69c0,0.07,0.01,0.15,0.02,0.22C71.7,91.84,71.69,91.76,71.69,91.69z"/>
		<path class="st2" d="M29.29,91.91c0-0.07,0.01-0.15,0.02-0.22C29.3,91.76,29.29,91.84,29.29,91.91z"/>
		<path class="st2" d="M70.13,84.83c0.07,0.17,0.15,0.35,0.21,0.52C70.28,85.18,70.2,85.01,70.13,84.83z"/>
		<path class="st2" d="M29.62,89.01c0.02-0.13,0.05-0.26,0.08-0.39C29.68,88.75,29.65,88.88,29.62,89.01z"/>
		<path class="st2" d="M29.82,88.07c0.03-0.14,0.07-0.28,0.11-0.41C29.89,87.8,29.85,87.93,29.82,88.07z"/>
		<path class="st2" d="M71.46,89.58c0.02,0.13,0.04,0.26,0.06,0.38C71.51,89.84,71.48,89.71,71.46,89.58z"/>
		<path class="st2" d="M71.07,87.66c0.04,0.14,0.07,0.28,0.11,0.41C71.14,87.93,71.1,87.8,71.07,87.66z"/>
		<path class="st2" d="M70.81,86.74c0.04,0.14,0.09,0.27,0.12,0.41C70.9,87.01,70.85,86.88,70.81,86.74z"/>
		<path class="st2" d="M71.29,88.62c0.03,0.13,0.06,0.26,0.08,0.39C71.35,88.88,71.32,88.75,71.29,88.62z"/>
		<path class="st2" d="M71.59,90.56c0.01,0.12,0.03,0.25,0.04,0.37C71.62,90.81,71.61,90.68,71.59,90.56z"/>
		<path class="st2" d="M70.5,85.78c0.06,0.16,0.11,0.31,0.17,0.47C70.61,86.09,70.55,85.93,70.5,85.78z"/>
		<path class="st2" d="M29.47,89.96c0.02-0.13,0.04-0.26,0.06-0.38C29.51,89.71,29.49,89.84,29.47,89.96z"/>
		<path class="st2" d="M34.44,79.01c0.18-0.21,0.37-0.42,0.56-0.62C34.82,78.59,34.63,78.8,34.44,79.01z"/>
		<path class="st2" d="M35.06,78.32c0.2-0.21,0.41-0.42,0.62-0.62C35.47,77.9,35.26,78.11,35.06,78.32z"/>
		<path class="st2" d="M30.33,86.25c0.05-0.16,0.11-0.31,0.17-0.47C30.44,85.93,30.38,86.09,30.33,86.25z"/>
		<path class="st2" d="M33.85,79.72c0.16-0.21,0.33-0.41,0.51-0.61C34.19,79.31,34.02,79.51,33.85,79.72z"/>
		<path class="st2" d="M45.51,72.26c-3.75,0.9-7.12,2.8-9.8,5.41C38.39,75.06,41.76,73.17,45.51,72.26
			C45.52,72.26,45.52,72.26,45.51,72.26z"/>
		<path class="st2" d="M63.17,75.87c-2.26-1.69-4.87-2.93-7.7-3.61c0,0,0,0,0,0C58.3,72.94,60.91,74.19,63.17,75.87z"/>
		<path class="st2" d="M33.3,80.46c0.14-0.2,0.29-0.39,0.44-0.58C33.59,80.06,33.44,80.26,33.3,80.46z"/>
		<path class="st2" d="M31,84.49c0.08-0.18,0.16-0.35,0.24-0.53C31.16,84.14,31.08,84.31,31,84.49z"/>
		<path class="st2" d="M32.77,81.22c0.13-0.2,0.26-0.39,0.4-0.58C33.03,80.83,32.9,81.02,32.77,81.22z"/>
		<path class="st2" d="M31.39,83.64c0.09-0.18,0.18-0.35,0.27-0.53C31.57,83.28,31.48,83.46,31.39,83.64z"/>
		<path class="st2" d="M30.65,85.36c0.07-0.18,0.14-0.35,0.21-0.52C30.79,85.01,30.71,85.18,30.65,85.36z"/>
		<path class="st2" d="M31.81,82.81c0.1-0.19,0.21-0.38,0.32-0.57C32.03,82.43,31.92,82.62,31.81,82.81z"/>
		<path class="st2" d="M32.28,82c0.11-0.19,0.23-0.37,0.35-0.56C32.51,81.63,32.39,81.81,32.28,82z"/>
		<path class="st2" d="M30.06,87.15c0.04-0.14,0.08-0.27,0.13-0.41C30.14,86.88,30.09,87.01,30.06,87.15z"/>
		<path class="st2" d="M67.27,79.9c0.14,0.18,0.29,0.37,0.42,0.56C67.56,80.27,67.42,80.08,67.27,79.9z"/>
		<path class="st2" d="M66.67,79.15c0.16,0.19,0.32,0.37,0.47,0.56C66.99,79.53,66.83,79.34,66.67,79.15z"/>
		<path class="st2" d="M67.85,80.67c0.13,0.18,0.26,0.36,0.38,0.55C68.1,81.03,67.97,80.85,67.85,80.67z"/>
		<path class="st2" d="M68.39,81.48c0.11,0.17,0.22,0.35,0.33,0.52C68.61,81.82,68.5,81.65,68.39,81.48z"/>
		<path class="st2" d="M63.18,75.87c0.25,0.18,0.49,0.37,0.73,0.57C63.66,76.24,63.42,76.06,63.18,75.87z"/>
		<path class="st2" d="M68.88,82.28c0.1,0.17,0.2,0.35,0.3,0.53C69.08,82.63,68.98,82.46,68.88,82.28z"/>
		<path class="st2" d="M66.03,78.43c0.18,0.19,0.35,0.38,0.52,0.58C66.38,78.81,66.2,78.62,66.03,78.43z"/>
		<path class="st2" d="M64.66,77.09c0.21,0.19,0.42,0.38,0.63,0.58C65.08,77.47,64.87,77.27,64.66,77.09z"/>
		<path class="st2" d="M65.35,77.74c0.2,0.19,0.39,0.39,0.58,0.59C65.74,78.12,65.55,77.93,65.35,77.74z"/>
		<path class="st2" d="M63.95,76.48c0.22,0.18,0.44,0.37,0.66,0.56C64.39,76.85,64.17,76.66,63.95,76.48z"/>
		<path class="st2" d="M69.35,83.14c0.09,0.17,0.17,0.33,0.26,0.5C69.52,83.47,69.43,83.3,69.35,83.14z"/>
		<path class="st2" d="M69.75,83.96c0.08,0.18,0.16,0.35,0.24,0.53C69.92,84.31,69.83,84.14,69.75,83.96z"/>
		<path class="st2" d="M69.32,56.3c0.07,0,0.15,0.01,0.22,0.01c1.78,0,3.21-1.44,3.21-3.21c0-1.61-1.18-2.94-2.73-3.17
			c-20.63-0.2-23.3-7.94-23.51-11.18C45.58,49.8,33.57,50.06,30.76,49.96c-1.44,0.32-2.52,1.6-2.52,3.14c0,1.77,1.44,3.21,3.21,3.21
			c0.07,0,0.14-0.01,0.2-0.01c0.54,3.8,2.08,6.75,4.31,8.93c2.84,2.78,6.8,4.33,11.31,4.81v1.62v0.05v0.14v0.05c0,0-0.01,0-0.01,0
			c0.09,0.79,1.5,1.41,3.23,1.41c1.73,0,3.13-0.62,3.23-1.41c0,0-0.01,0-0.01,0v-0.05v-0.14v-0.05v-1.62
			c4.49-0.49,8.44-2.03,11.28-4.79C67.23,63.07,68.77,60.11,69.32,56.3z M45.52,63.22h9.95C50.62,66.68,45.52,63.22,45.52,63.22z"/>
		<path class="st3" d="M73.66,49.93c-0.02,0-0.74,0-2.83,0"/>
		<path class="st4" d="M55.47,63.22h-9.95C45.52,63.22,50.62,66.68,55.47,63.22z"/>
		<path class="st5" d="M29.27,95.54c0,0.22,0,0.3,0,0.3"/>
		<path class="st5" d="M71.73,95.54c0,0,0,0.21,0,0.19"/>
		<path class="st6" d="M50.5,74.66c-2.39,0-4.4-1.02-4.98-2.39c-3.75,0.9-7.12,2.8-9.8,5.4c-0.01,0.01-0.02,0.02-0.03,0.03
			c-0.21,0.2-0.42,0.41-0.62,0.62c-0.02,0.02-0.04,0.04-0.06,0.06c-0.19,0.2-0.38,0.41-0.56,0.62c-0.03,0.03-0.06,0.07-0.08,0.1
			c-0.17,0.2-0.34,0.4-0.51,0.61c-0.04,0.05-0.08,0.1-0.11,0.15c-0.15,0.19-0.3,0.39-0.44,0.58c-0.04,0.06-0.08,0.12-0.13,0.18
			c-0.14,0.19-0.27,0.38-0.4,0.58c-0.05,0.07-0.09,0.15-0.14,0.23c-0.12,0.19-0.24,0.37-0.35,0.56c-0.05,0.08-0.09,0.16-0.14,0.24
			c-0.11,0.19-0.22,0.38-0.32,0.57c-0.05,0.1-0.1,0.2-0.15,0.3c-0.09,0.18-0.18,0.35-0.27,0.53c-0.05,0.11-0.1,0.22-0.15,0.32
			c-0.08,0.18-0.16,0.35-0.24,0.53c-0.05,0.11-0.09,0.23-0.14,0.35c-0.07,0.17-0.15,0.35-0.21,0.52c-0.05,0.14-0.1,0.28-0.15,0.42
			c-0.06,0.16-0.11,0.31-0.17,0.47c-0.05,0.16-0.1,0.33-0.15,0.49c-0.04,0.14-0.09,0.27-0.13,0.41c-0.05,0.17-0.09,0.34-0.13,0.51
			c-0.04,0.14-0.07,0.28-0.11,0.41c-0.04,0.18-0.08,0.37-0.11,0.55c-0.03,0.13-0.06,0.26-0.08,0.39c-0.03,0.19-0.06,0.38-0.09,0.57
			c-0.02,0.13-0.04,0.26-0.06,0.38c-0.03,0.2-0.05,0.4-0.07,0.6c-0.01,0.12-0.03,0.25-0.04,0.37c-0.02,0.25-0.04,0.51-0.05,0.76
			c0,0.07-0.01,0.15-0.02,0.22c-0.02,0.33-0.02,0.66-0.02,0.99c0,1.5,0,2.27,0,2.63h42.46c0-0.3,0-1.03,0-2.63
			c0-0.33-0.01-0.66-0.02-0.99c0-0.07-0.01-0.15-0.02-0.22c-0.01-0.25-0.03-0.51-0.05-0.76c-0.01-0.12-0.03-0.25-0.04-0.37
			c-0.02-0.2-0.04-0.4-0.07-0.6c-0.02-0.13-0.04-0.26-0.06-0.38c-0.03-0.19-0.06-0.38-0.09-0.57c-0.02-0.13-0.05-0.26-0.08-0.39
			c-0.04-0.18-0.07-0.37-0.12-0.55c-0.03-0.14-0.07-0.28-0.11-0.41c-0.04-0.17-0.08-0.34-0.13-0.51c-0.04-0.14-0.08-0.27-0.12-0.41
			c-0.05-0.16-0.1-0.33-0.15-0.49c-0.05-0.16-0.11-0.31-0.17-0.47c-0.05-0.14-0.1-0.28-0.15-0.42c-0.07-0.18-0.14-0.35-0.21-0.52
			c-0.05-0.11-0.09-0.23-0.14-0.35c-0.08-0.18-0.16-0.35-0.24-0.53c-0.05-0.11-0.1-0.22-0.15-0.32c-0.08-0.17-0.17-0.33-0.26-0.5
			c-0.06-0.11-0.11-0.22-0.17-0.33c-0.1-0.18-0.2-0.35-0.3-0.53c-0.05-0.09-0.11-0.19-0.16-0.28c-0.11-0.18-0.22-0.35-0.33-0.52
			c-0.06-0.09-0.11-0.17-0.16-0.26c-0.12-0.19-0.25-0.37-0.38-0.55c-0.05-0.07-0.1-0.15-0.15-0.22c-0.14-0.19-0.28-0.37-0.42-0.56
			c-0.05-0.06-0.09-0.12-0.14-0.18c-0.15-0.19-0.31-0.38-0.47-0.56c-0.04-0.05-0.08-0.1-0.12-0.15c-0.17-0.2-0.35-0.39-0.52-0.58
			c-0.03-0.04-0.06-0.07-0.1-0.11c-0.19-0.2-0.38-0.39-0.58-0.59c-0.02-0.02-0.05-0.05-0.07-0.07c-0.2-0.2-0.41-0.39-0.63-0.58
			c-0.02-0.02-0.03-0.03-0.05-0.05c-0.21-0.19-0.43-0.38-0.66-0.56c-0.02-0.01-0.03-0.03-0.05-0.04c-0.24-0.19-0.48-0.38-0.73-0.57
			c0,0,0,0,0,0c-2.26-1.69-4.87-2.93-7.7-3.61C54.89,73.64,52.89,74.66,50.5,74.66z"/>
		<polygon class="st6" points="47.26,71.86 47.26,71.87 47.26,71.87 		"/>
		<path class="st6" d="M47.27,71.92C47.27,71.92,47.28,71.91,47.27,71.92l0.01-0.05c-0.01,0-0.01,0-0.02,0
			C47.26,71.88,47.27,71.9,47.27,71.92z"/>
		<polygon class="st6" points="53.73,71.87 53.73,71.86 53.73,71.87 		"/>
		<path class="st6" d="M53.73,71.87c-0.01,0-0.01,0-0.02,0v0.05c0,0,0.01,0,0.01,0C53.72,71.9,53.73,71.88,53.73,71.87z"/>
		<path class="st7" d="M53.72,71.92c-0.09,0.79-1.5,1.41-3.23,1.41c-1.73,0-3.13-0.62-3.23-1.41c0-0.02-0.01-0.03-0.01-0.05
			c0,0,0,0,0,0c-0.6,0.09-1.19,0.21-1.77,0.35c0.01,0.02,0.01,0.03,0.02,0.04c0,0,0,0,0,0c0.58,1.38,2.59,2.39,4.98,2.39
			c2.39,0,4.4-1.02,4.98-2.39c0,0,0,0,0,0c0.01-0.01,0.02-0.03,0.02-0.04c-0.58-0.14-1.17-0.26-1.77-0.35c0,0,0,0,0,0
			C53.73,71.88,53.72,71.9,53.72,71.92z"/>
		<path class="st7" d="M47.28,71.87v-0.14v-0.05c-0.01,0.05-0.02,0.11-0.02,0.16c0,0.01,0,0.02,0,0.03c0,0,0,0,0,0.01
			C47.27,71.87,47.27,71.87,47.28,71.87z"/>
		<path class="st7" d="M53.71,71.87c0.01,0,0.01,0,0.02,0c0,0,0,0,0-0.01c0-0.01,0-0.02,0-0.03c0-0.06-0.01-0.11-0.02-0.16v0.05
			V71.87z"/>
	</g>
</g>
</svg>
