<?xml version="1.0" encoding="utf-8"?>
<!-- Generator: Adobe Illustrator 26.1.0, SVG Export Plug-In . SVG Version: 6.00 Build 0)  -->
<svg version="1.1" id="Layer_1" xmlns="http://www.w3.org/2000/svg" xmlns:xlink="http://www.w3.org/1999/xlink" x="0px" y="0px"
	 viewBox="0 0 100 100" style="enable-background:new 0 0 100 100;" xml:space="preserve">
<style type="text/css">
	.st0{fill:#909FAB;}
	.st1{clip-path:url(#SVGID_00000128480706371265167670000006998976808283073673_);}
	
		.st2{fill-rule:evenodd;clip-rule:evenodd;fill:#179E85;stroke:#179E85;stroke-width:1.1223;stroke-linecap:round;stroke-linejoin:round;stroke-miterlimit:10;}
	.st3{fill-rule:evenodd;clip-rule:evenodd;fill:#FFCEAD;}
	.st4{fill-rule:evenodd;clip-rule:evenodd;fill:none;stroke:#EBA946;stroke-width:4;stroke-miterlimit:10;}
	.st5{fill-rule:evenodd;clip-rule:evenodd;fill:#EBA946;}
	.st6{fill:none;stroke:#FFFFFF;stroke-miterlimit:10;}
	.st7{fill-rule:evenodd;clip-rule:evenodd;fill:#00C6FF;}
	.st8{fill-rule:evenodd;clip-rule:evenodd;fill:#FFFFFF;}
	.st9{fill-rule:evenodd;clip-rule:evenodd;fill:#51877E;}
	.st10{fill-rule:evenodd;clip-rule:evenodd;fill:#179E85;}
	
		.st11{fill-rule:evenodd;clip-rule:evenodd;fill:none;stroke:#406B64;stroke-width:3;stroke-linecap:round;stroke-linejoin:round;stroke-miterlimit:10;}
</style>
<g>
	<path class="st0" d="M50,5c24.8,0,45,20.2,45,45c0,24.9-20.1,45-45,45C25.2,95,5,74.9,5,50C5,25.1,25.2,5,50,5z"/>
	<g>
		<defs>
			<path id="SVGID_1_" d="M50,95C25.2,95,5,74.9,5,50S25.2,5,50,5c24.8,0,45,20.1,45,45S74.8,95,50,95z"/>
		</defs>
		<clipPath id="SVGID_00000026165242340131189490000012498168408512136352_">
			<use xlink:href="#SVGID_1_"  style="overflow:visible;"/>
		</clipPath>
		<g style="clip-path:url(#SVGID_00000026165242340131189490000012498168408512136352_);">
			<path class="st2" d="M56.6,70.1c-0.1,0.2-13.6,0.4-13.7,0.6c-4.2,6-13.3,8.7-20.6,10.3c-7.2,1.6-7.5,10.8-7.5,16.9h70.4
				c0-6.1-0.1-15.2-7.5-16.9C70.3,79.4,60.7,76.4,56.6,70.1z"/>
			<path class="st3" d="M42.9,57.2v11.6v5.7c-2.4,4.6,4.4,19.3,7.1,19.2c2.5,0,9.3-13.5,7-19.2v-5.7V57.2
				C57.1,47.9,42.9,47.9,42.9,57.2z"/>
			<path class="st3" d="M68.7,49.4c-1.4-0.6-3.4,0.9-4.5,3.3c-1.1,2.4-0.8,4.9,0.7,5.5c1.4,0.6,3.4-0.9,4.5-3.3
				C70.4,52.4,70.1,50,68.7,49.4z"/>
			<path class="st3" d="M31.3,49.4c1.4-0.6,3.4,0.9,4.5,3.3c1.1,2.4,0.8,4.9-0.7,5.5c-1.4,0.6-3.4-0.9-4.5-3.3
				C29.6,52.4,29.9,50,31.3,49.4z"/>
			<path class="st4" d="M40.3,63.6c0,0-5.5,5.7-5,12.3c0.5,6.6,4.1,7.8,7.4,14.6"/>
			<g>
				<g>
					<g>
						<g>
							
								<ellipse transform="matrix(0.844 -0.5363 0.5363 0.844 -41.7787 36.9331)" class="st5" cx="42.6" cy="90.3" rx="3.8" ry="5.5"/>
						</g>
						<g>
							
								<ellipse transform="matrix(0.9379 -0.347 0.347 0.9379 -26.0525 18.1153)" class="st5" cx="37.6" cy="81.8" rx="3.8" ry="5.5"/>
						</g>
						<g>
							
								<ellipse transform="matrix(0.2557 -0.9668 0.9668 0.2557 -43.0029 88.9875)" class="st5" cx="36.3" cy="72.4" rx="5.5" ry="3.8"/>
						</g>
						<g>
							
								<ellipse transform="matrix(0.5865 -0.81 0.81 0.5865 -34.8084 58.9505)" class="st5" cx="40.3" cy="63.6" rx="5.5" ry="3.8"/>
						</g>
					</g>
				</g>
			</g>
			<path class="st3" d="M50,69.2c-4.6,0-14.3-7.2-17.3-17.6c-3-10.4,2.7-25.4,17.3-25.4c14.6,0,20.3,15,17.3,25.4
				C64.3,62,54.6,69.2,50,69.2z"/>
			<path class="st5" d="M67.8,51.4c3.6-19.6-8-25.8-17.8-25.8c-11,0-22.4,8.4-17.1,26.4c6.8-12.3,20.1-1.6,29.3-13.8
				C63.8,44.5,64.9,47.4,67.8,51.4z"/>
			<g>
				<g>
					<path class="st6" d="M72.7,55.1"/>
				</g>
			</g>
			<g>
				<g>
					<path class="st6" d="M27.9,56"/>
				</g>
			</g>
			<g>
				<g>
					<path class="st6" d="M33.7,51.6"/>
				</g>
			</g>
			<g>
				<g>
					<path class="st3" d="M42.9,70.9v2.9c4.9,1.4,9.3-0.9,14.1-0.2v-3.8v-0.5C52.5,67.3,47.3,69.2,42.9,70.9z"/>
				</g>
			</g>
			<g>
				<path class="st5" d="M41.3,89.6L41.3,89.6C41.3,89.5,41.3,89.6,41.3,89.6c0,0.2,0,0.2,0,0.2C41.3,89.8,41.3,89.7,41.3,89.6
					C41.3,89.6,41.3,89.6,41.3,89.6z"/>
				<path class="st5" d="M46,97.6c0-0.1,0-0.2,0-0.4c0-1,0.1-2.3,0-3.7c-0.1-0.7-0.2-1.4-0.3-2.1c-0.2-0.7-0.4-1.3-1-2
					c-0.6-0.6-1.5-0.8-2-0.8c-0.3,0-0.5,0.1-0.6,0.1c-0.1,0-0.2,0.1-0.2,0.1l0.3,0.7l-0.7,0.2c0,0,0,0,0,0c0,0.2,0,0.5,0,0.8
					c0,0.1,0,0.2,0,0.4c0,0.1,0,0.3,0,0.5c0,0.2,0.1,0.3,0.1,0.4c0,0.1,0.1,0.3,0.1,0.4c0.2,0.5,0.5,1.1,0.8,1.5
					c0.4,0.5,0.7,1,1.1,1.5c0.1,0.2,0.2,0.5,0.4,0.7c0.6,1.1,1.1,2.1,1.5,3c0.2,0.4,0.3,0.8,0.4,1c0.1,0.2,0.1,0.4,0.1,0.4
					s0,0,0-0.1c0.2,0.6,0.3,0.9,0.3,0.9s0-0.5,0-1.3C46.1,99.3,46,98.5,46,97.6z"/>
			</g>
			<polygon class="st7" points="41.3,89.8 40.9,89.3 42.6,88 43,88.7 			"/>
			<ellipse class="st5" cx="31.9" cy="-36.1" rx="1.9" ry="2.8"/>
			<path class="st8" d="M50,93.7c-2.6,0-9.5-14.4-7.1-19.2c2.1,1.2,4.5,1.9,7.1,1.9c2.6,0,5-0.7,7.1-1.9
				C59.2,80.4,52.5,93.7,50,93.7z"/>
			<g>
				<path class="st9" d="M31.7,41.6L31,42.8c0,0,9.5-2.4,18.9-2.1s18.3,1.1,19.2,1.5l-0.8-1.4l-9-1.7l-10.2-0.8l-11.4,1.1L31.7,41.6
					z"/>
				<path class="st10" d="M31.7,41.6c0,0,13.1-5,36.6-0.9l-0.4-12c0,0-2.6-7.5-18-7.5s-16.8,6.7-17.3,7.7
					C32.1,29.9,31.7,41.6,31.7,41.6z"/>
				<path class="st8" d="M33.8,39.6c0,0,11.5-4.1,32.2-0.7l-0.4-9.7c0,0-2.3-6-15.8-6c-13.6,0-14.8,5.4-15.2,6.2
					C34.2,30.2,33.8,39.6,33.8,39.6z"/>
				<path class="st11" d="M31.7,43.2c0,0,13.1-5,36.6-0.9"/>
			</g>
		</g>
	</g>
</g>
</svg>
