<?xml version="1.0" encoding="utf-8"?>
<!-- Generator: Adobe Illustrator 26.1.0, SVG Export Plug-In . SVG Version: 6.00 Build 0)  -->
<svg version="1.1" id="Layer_1" xmlns="http://www.w3.org/2000/svg" xmlns:xlink="http://www.w3.org/1999/xlink" x="0px" y="0px"
	 viewBox="0 0 100 100" style="enable-background:new 0 0 100 100;" xml:space="preserve">
<style type="text/css">
	.st0{fill:#39B29F;}
	.st1{opacity:0.1;}
	.st2{clip-path:url(#SVGID_00000044159103691454308940000014896443114432847790_);}
	.st3{fill:#FBBE16;}
	.st4{fill:#EC9A1C;}
	.st5{fill:#FEE1B9;}
	.st6{fill:#FFD9AC;}
	.st7{fill:#FFFFFF;}
	.st8{fill:#726658;}
	.st9{fill:#8399AE;}
	.st10{fill:#546C86;}
	.st11{fill:#243549;}
	.st12{fill:#162336;}
</style>
<g id="ava_04_00000164501732987304078900000016157789045071382179_">
	<path class="st0" d="M95,50C95,25.1,74.9,5,50,5C25.1,5,5,25.1,5,50c0,24.9,20.1,45,45,45C74.9,95,95,74.9,95,50z"/>
	<path class="st1" d="M64,20.9L38.8,46.1l8.7,8.7l-3.1,3.1l6,6L39.2,75.1l19.1,19.1C78.6,90.5,94.1,73.1,95,51.9L64,20.9z"/>
	<g>
		<defs>
			<ellipse id="SVGID_1_" transform="matrix(0.9872 -0.1595 0.1595 0.9872 -7.3352 8.6155)" cx="50" cy="50" rx="45" ry="45"/>
		</defs>
		<clipPath id="SVGID_00000005261215410639981550000006447605524580675992_">
			<use xlink:href="#SVGID_1_"  style="overflow:visible;"/>
		</clipPath>
		<g style="clip-path:url(#SVGID_00000005261215410639981550000006447605524580675992_);">
			<path class="st3" d="M73.2,46.2c0-20.5-10.4-30.3-23.2-30.3c-12.8,0-23.2,9.9-23.2,30.3c0,20.5,10.4,45.6,23.2,45.6
				C62.8,91.8,73.2,66.6,73.2,46.2z"/>
			<path class="st4" d="M73.2,46.2c0-20.5-10.4-30.3-23.2-30.3v75.9C62.8,91.8,73.2,66.6,73.2,46.2z"/>
			<g>
				<path class="st5" d="M76.9,73c-4.2-5.1-19.7-2.2-19.7-8.8v-6.1H42.8v5.6c0,0.1,0,0.3,0,0.4c0,6.6-15.5,3.7-19.7,8.8
					c-3.3,4.6-5.6,22-5.6,22H50H50h32.5C82.5,95,80.2,77.6,76.9,73z"/>
				<path class="st6" d="M57.2,64.2v-6.1H50V95H50h32.5c0,0-2.3-17.4-5.6-22C72.7,67.9,57.2,70.8,57.2,64.2z"/>
				<path class="st5" d="M30.7,44.2c-0.2-2.4,1.1-4.5,2.9-4.8c1.9-0.3,3.6,1.5,3.8,3.9c0.2,2.4-1.1,4.5-2.9,4.8
					C32.6,48.3,30.9,46.6,30.7,44.2z"/>
				<g>
					<g>
						<g>
							<path class="st6" d="M69.4,44.1c0.3-2.4-0.9-4.5-2.8-4.7c-1.8-0.2-3.6,1.6-3.9,4c-0.3,2.4,0.9,4.5,2.8,4.7
								C67.3,48.3,69.1,46.5,69.4,44.1z"/>
						</g>
						<g>
							<g>
								<path class="st5" d="M50,24.8c0,0-15.2,1.9-15.2,10c0,0,0,11,0,14.2c0,3.2,5.2,12.4,9.8,12.7C47,62,50,62.3,50,62.3
									s3.1-0.3,5.4-0.5c4.7-0.4,9.8-9.5,9.8-12.7c0-3.2,0-14.2,0-14.2C65.3,26.7,50,24.8,50,24.8z"/>
							</g>
							<g>
								<path class="st6" d="M65.2,34.9c0,0,0,11,0,14.2c0,3.2-5.2,12.4-9.8,12.7C53,62,50,62.3,50,62.3V24.8
									C50,24.8,65.2,26.7,65.2,34.9z"/>
							</g>
						</g>
					</g>
				</g>
				<g>
					<path class="st7" d="M49.9,57c2.1,0,3.9-1.5,3.9-3.4H46C46,55.5,47.8,57,49.9,57z"/>
					<path class="st8" d="M59,44.5c0-0.7-0.6-1.3-1.3-1.3c-0.7,0-1.3,0.6-1.3,1.3c0,0.7,0.6,1.3,1.3,1.3C58.4,45.9,59,45.3,59,44.5z
						"/>
					<path class="st8" d="M43.6,44c0-0.7-0.6-1.3-1.3-1.3c-0.7,0-1.3,0.6-1.3,1.3c0,0.7,0.6,1.3,1.3,1.3C43,45.3,43.6,44.7,43.6,44z
						"/>
					<g>
						<g>
							<g>
								<path class="st4" d="M45,41.5c-0.1,0-0.2,0-0.2-0.1c-0.5-0.6-1.4-1-2.5-1c-1.1,0-2,0.4-2.5,1c-0.1,0.1-0.3,0.1-0.4,0.1
									c-0.1-0.1-0.1-0.3-0.1-0.4c0.6-0.8,1.7-1.2,2.9-1.2c1.2,0,2.3,0.5,2.9,1.2c0.1,0.1,0.1,0.3-0.1,0.4
									C45.1,41.5,45,41.5,45,41.5z"/>
							</g>
						</g>
					</g>
					<g>
						<g>
							<g>
								<path class="st4" d="M60.4,41.5c-0.1,0-0.2,0-0.2-0.1c-0.5-0.6-1.4-1-2.5-1c-1.1,0-2,0.4-2.5,1c-0.1,0.1-0.3,0.1-0.4,0.1
									c-0.1-0.1-0.1-0.3-0.1-0.4c0.6-0.8,1.7-1.2,2.9-1.2c1.2,0,2.3,0.5,2.9,1.2c0.1,0.1,0.1,0.3-0.1,0.4
									C60.5,41.5,60.4,41.5,60.4,41.5z"/>
							</g>
						</g>
					</g>
				</g>
			</g>
			<polygon class="st9" points="33.4,76.6 33.4,95 52.7,95 52.8,95 66.6,95 66.6,76.6 			"/>
			<polygon class="st10" points="50.2,76.6 50.2,95 59.7,95 59.8,95 66.6,95 66.6,76.6 			"/>
			<path class="st11" d="M23.1,73c-3.3,4.6-5.6,22-5.6,22h29.3l-4.1-30.9C42.8,70.7,27.3,67.9,23.1,73z"/>
			<path class="st12" d="M76.9,73c3.3,4.6,5.6,22,5.6,22h-28l2.7-30.9C57.2,70.7,72.7,67.9,76.9,73z"/>
			<path class="st3" d="M34.8,38c0,0,12.5-1.9,15.2-8.7c0-5.1,0-7.5,0-7.5S31.3,21.8,34.8,38z"/>
			<path class="st4" d="M65.3,38c0,0-12.5-1.9-15.2-8.7c0-5.1,0-7.5,0-7.5S68.8,21.8,65.3,38z"/>
		</g>
	</g>
</g>
</svg>
