<?xml version="1.0" encoding="utf-8"?>
<!-- Generator: Adobe Illustrator 26.1.0, SVG Export Plug-In . SVG Version: 6.00 Build 0)  -->
<svg version="1.1" id="Layer_1" xmlns="http://www.w3.org/2000/svg" xmlns:xlink="http://www.w3.org/1999/xlink" x="0px" y="0px"
	 viewBox="0 0 100 100" style="enable-background:new 0 0 100 100;" xml:space="preserve">
<style type="text/css">
	.st0{fill:#F48C7A;}
	.st1{clip-path:url(#SVGID_00000144313245291346636230000017145381829836676783_);}
	.st2{fill-rule:evenodd;clip-rule:evenodd;fill:#DF5E6E;}
	.st3{fill:#B34B58;}
	.st4{fill:#767678;}
	.st5{fill:#FFFFFF;}
	.st6{fill-rule:evenodd;clip-rule:evenodd;fill:#474748;}
	.st7{fill-rule:evenodd;clip-rule:evenodd;fill:#FFDEC4;}
	.st8{fill:#474748;}
</style>
<g>
	<ellipse transform="matrix(2.857826e-03 -1 1 2.857826e-03 -0.1426 99.857)" class="st0" cx="50" cy="50" rx="45" ry="45"/>
	<g>
		<defs>
			<path id="SVGID_1_" d="M50,95C25.2,95,5,74.9,5,50C5,25.1,25.2,5,50,5c24.8,0,45,20.2,45,45C95,74.9,74.8,95,50,95z"/>
		</defs>
		<clipPath id="SVGID_00000014636562312676984390000008913341705105021059_">
			<use xlink:href="#SVGID_1_"  style="overflow:visible;"/>
		</clipPath>
		<g style="clip-path:url(#SVGID_00000014636562312676984390000008913341705105021059_);">
			<path class="st2" d="M56.2,67.7c-0.1,0.2-13.5,0.4-13.6,0.6c-4.2,6-13.3,8.6-20.5,10.2c-7.2,1.6-7.5,10.7-7.5,16.8h69.9
				c0-6.1-0.1-15.1-7.5-16.8C69.7,76.9,60.2,74,56.2,67.7z"/>
			<path class="st3" d="M59.5,71.1l7.9,8.4l-2.8,4.7l2.1,2.1l-4.1,9.2h-4L59.5,71.1C59.5,71.1,59.5,71.1,59.5,71.1z"/>
			<polygon class="st4" points="62.6,95.4 60.7,99.7 58.4,100.1 58.6,95.4 			"/>
			<path class="st4" d="M59.5,71.1C59.5,71.1,59.5,71.1,59.5,71.1L59.5,71.1L59.5,71.1z"/>
			<polygon class="st4" points="41,95.4 41.2,100 38.9,99.7 37,95.4 			"/>
			<g>
				<path class="st3" d="M40.1,71L41,95.4h-4l-4.1-9.3L35,84l-2.8-4.7L40.1,71C40.1,71,40.1,71,40.1,71z"/>
			</g>
			<path class="st4" d="M40.1,71L40.1,71C40.1,71,40.1,71,40.1,71L40.1,71z"/>
			<path class="st5" d="M59.5,71l-0.9,24.3H41L40.1,71c1-0.8,1.8-1.8,2.6-2.8c0.2-0.2,13.6-0.4,13.7-0.6C57.2,68.9,58.3,70,59.5,71z
				"/>
			<g>
				<g>
					<g>
						<g>
							<path class="st6" d="M62.2,66.2c-1.5,0.4-3.2,0.3-4.8-0.1c-0.8-0.2-1.7-0.5-2.6-1C54,64.7,53,64,52.2,62.4l7-1.6
								c0,0-0.1,0-0.1,0l-0.1,0l0,0l0,0l0,0c0.1,0-0.6,0.3-0.3,0.1l0,0l0,0l0.1,0l0.1,0l0,0l0,0c0,0-0.1,0.1-0.1,0.1
								c-0.1,0.2-0.1,0.4-0.1,0.6c0.1,0.5,0.3,1.1,0.6,1.7C60,64.3,60.9,65.4,62.2,66.2z"/>
						</g>
					</g>
				</g>
			</g>
			<g>
				<g>
					<g>
						<g>
							<path class="st6" d="M62.6,63.9c-1.6-0.1-3.2-0.3-4.8-0.9c-0.8-0.3-1.8-0.7-2.7-1.7c-0.9-1-1.4-2.4-1.3-3.8l6.8,0.8
								c-0.3,0-0.6,0.1-0.8,0.4c-0.2,0.3-0.1,0.9,0.2,1.5C60.6,61.5,61.6,62.7,62.6,63.9z"/>
						</g>
					</g>
				</g>
			</g>
			<g>
				<g>
					<g>
						<g>
							<path class="st6" d="M38.5,67.3c1-1.2,1.7-2.6,2-3.9c0.3-1.3,0.1-2.6-0.4-3.2l7.2,0.6c-0.8,2.3-2.4,3.9-3.9,4.9
								C41.8,66.6,40.1,67.1,38.5,67.3z"/>
						</g>
					</g>
				</g>
			</g>
			<g>
				<g>
					<g>
						<g>
							<path class="st6" d="M38.4,64.8c0.2-1.2,0.5-2.5,0.3-3.5c-0.1-0.5-0.3-0.9-0.6-1c-0.3-0.2-0.6-0.2-0.9-0.2l6.8-2.3
								c0,1-0.1,2.1-0.5,3c-0.4,0.9-1,1.6-1.6,2.1C40.7,63.9,39.5,64.3,38.4,64.8z"/>
						</g>
					</g>
				</g>
			</g>
			<g>
				<g>
					<g>
						<g>
							<path class="st6" d="M36.8,62.6c-0.2-1-0.5-1.9-0.9-2.8c-0.2-0.4-0.4-0.9-0.6-1.3l-0.3-0.6l-0.2-0.3
								c-0.1-0.1-0.1-0.2-0.1-0.6l6.9,1.9c0-0.1-0.1-0.1-0.2,0l-0.3,0.3l-0.6,0.6c-0.4,0.4-0.8,0.7-1.2,1.1
								C38.6,61.5,37.7,62.1,36.8,62.6z"/>
						</g>
					</g>
				</g>
			</g>
			<g>
				<g>
					<g>
						<g>
							<path class="st6" d="M62.5,62.6c-0.9-0.5-1.7-1.1-2.6-1.8c-0.4-0.3-0.8-0.7-1.2-1.1l-0.6-0.6L57.8,59c-0.1-0.1-0.2-0.2-0.2,0
								l6.9-1.9c0,0.3,0,0.5-0.1,0.6l-0.2,0.3l-0.3,0.6c-0.2,0.4-0.4,0.9-0.6,1.3C63,60.7,62.7,61.6,62.5,62.6z"/>
						</g>
					</g>
				</g>
			</g>
			<path class="st7" d="M42.6,54.9v11.5v5.7c3.5,7.2,9.8,7.4,14,0v-5.7V54.9C56.6,45.6,42.6,45.6,42.6,54.9z"/>
			<polygon class="st5" points="40.1,71 36.7,79.1 48.5,77.5 48.3,72.4 			"/>
			<polygon class="st5" points="59.4,71 62.8,79.1 51,77.5 51.2,72.4 			"/>
			<path class="st7" d="M67.9,46.9c-1.5-0.6-3.5,0.9-4.6,3.5c-1.1,2.5-0.8,5.1,0.7,5.7c1.5,0.6,3.5-0.9,4.6-3.5
				C69.7,50.1,69.4,47.5,67.9,46.9z"/>
			<path class="st7" d="M30.8,46.9c1.5-0.6,3.5,0.9,4.6,3.5c1.1,2.5,0.8,5.1-0.7,5.7c-1.5,0.6-3.5-0.9-4.6-3.5
				C29.1,50.1,29.4,47.5,30.8,46.9z"/>
			<path class="st7" d="M49.6,66.8c-4.6,0-14.2-7.2-17.2-17.4C29.4,39,35,24.1,49.6,24.1c14.5,0,20.2,14.9,17.2,25.2
				C63.8,59.6,54.1,66.8,49.6,66.8z"/>
			<path class="st6" d="M48.4,31.9c2,9.2,11.3,14.3,19.4,12.6c-0.2-10.3-6.3-21.2-18.3-21.2c-12.8,0-18.9,12.5-18.2,23.4
				C39.6,47.8,41.8,43,48.4,31.9z"/>
			<path class="st6" d="M31.6,23.6c0,4.7,3.9,8.6,8.8,8.6c4.8,0,8.8-3.8,8.8-8.6c0-4.7-3.9-8.6-8.8-8.6C35.5,15,31.6,18.8,31.6,23.6
				z"/>
			<g>
				<path class="st5" d="M49.5,23.5C43.8,24,39.3,27,35.5,31.1C35.3,24.6,44.2,19.4,49.5,23.5L49.5,23.5z"/>
			</g>
			<path class="st3" d="M53,77.2c-1-0.3-2.2-0.1-3.2,0.5c0,0-0.1-0.1-0.2-0.1c-1.2-0.4-3-0.5-3.9,0.5c-0.7,0.8-0.1,2.4,1,2.4
				c0.5,0,0.9-0.2,1.3-0.5c-0.8,2.3-0.3,5.4-0.2,7.5c0,0.4,0.6,0.4,0.6,0c0.1-2.7-0.6-6.1,0.9-8.6c0.1-0.1,0.1-0.1,0.2-0.2
				c0,0,0,0,0,0c-0.3,2.7,1.6,5.2,2,7.8c0.1,0.3,0.6,0.2,0.6-0.1c-0.1-2.5-1.9-4.7-2-7.2c1,0.8,2.4,1.4,3.3,0.7
				C54.5,79.2,54.4,77.6,53,77.2z M46.2,79c-0.2-1.3,1.9-1.1,3-0.9c0,0,0,0,0,0.1c-0.1,0.1-0.2,0.2-0.3,0.3
				C48.1,79.2,46.4,80.5,46.2,79z M51,79c-0.3-0.2-0.6-0.4-0.9-0.6c0,0,0,0,0-0.1c0,0,0-0.1,0-0.1c0.1-0.1,0.2-0.1,0.3-0.2
				c0.7-0.3,2.9-0.8,3.1,0.4C53.7,80.3,51.6,79.4,51,79z"/>
			<g>
				<path class="st8" d="M69.2,61c-0.2-0.2-0.4-0.5-0.6-0.8c-0.2-0.3-0.4-0.7-0.6-1.1c-0.4-0.8-0.6-1.9-0.7-3.1
					c-0.1-1.2,0.1-2.4,0.2-3.7c0.2-1.3,0.4-2.5,0.5-3.8c0.1-1.2,0.2-2.5,0-3.7c-0.1-0.6-0.3-1.2-0.6-1.7c-0.3-0.5-0.7-0.9-1-1.2
					c-0.3-0.3-0.6-0.5-0.8-0.6c-0.2-0.1-0.3-0.2-0.3-0.2l-1.4,3.4c0,0,0.2,0,0.4,0.1c0.2,0.1,0.5,0.3,0.8,1c0.3,0.7,0.4,1.7,0.5,2.9
					c0.1,1.1,0.1,2.4,0.2,3.8c0.1,1.3,0.2,2.7,0.5,3.9c0.3,1.2,0.7,2.4,1.3,3.2c0.3,0.4,0.6,0.8,0.9,1.1c0.3,0.3,0.6,0.5,0.8,0.7
					c0.5,0.3,0.7,0.5,0.7,0.5S69.6,61.4,69.2,61z"/>
				<path class="st8" d="M34.3,54.8c-0.2-0.7-0.4-1.3-0.5-2c-0.1-0.7-0.3-1.3-0.4-1.9c-0.2-1.2-0.3-2.4-0.3-3.2c0-0.4,0.1-0.8,0.2-1
					c0.1-0.2,0.2-0.3,0.2-0.3c0,0,0.1,0.1,0.1,0.1l-1.4-3.4c0,0-0.7,0.2-1.5,1.2c-0.4,0.5-0.6,1.1-0.7,1.7c-0.1,0.6-0.1,1.2,0,1.8
					c0.1,1.2,0.5,2.5,1,3.8c0.1,0.3,0.3,0.7,0.4,1c0.1,0.3,0.3,0.6,0.4,1c0.3,0.6,0.6,1.3,0.9,1.9c0.6,1.3,1.2,2.5,1.6,3.7
					c0.5,1.2,0.8,2.3,0.9,3.3c0.2,1,0.1,1.9,0.1,2.5c-0.1,0.6-0.1,0.9-0.1,0.9s0.1-0.3,0.3-0.9c0.1-0.6,0.3-1.5,0.3-2.5
					c0-1.1-0.1-2.3-0.4-3.6C35,57.5,34.7,56.1,34.3,54.8z"/>
				<path class="st8" d="M50.1,32.1C50.1,32.1,50.1,32.1,50.1,32.1C50.1,32.1,50.1,32.1,50.1,32.1z"/>
				<path class="st8" d="M50.3,32.3L50.3,32.3C50.3,32.3,50.3,32.3,50.3,32.3C50.3,32.3,50.3,32.3,50.3,32.3z"/>
				<path class="st8" d="M54.8,44.8c-0.2-0.2-0.5-0.5-0.8-0.8c-1.1-1.3-2.3-3.1-3.1-5.1c-0.1-0.2-0.2-0.5-0.3-0.7
					c-0.1-0.2-0.2-0.5-0.2-0.7c-0.1-0.5-0.2-1-0.3-1.4C50,35.1,50,34.1,50,33.4c0-0.6,0.1-1,0.2-1.2l-0.2-0.2c0,0,0,0,0,0l0,0l0,0v0
					l-2.2-2.6c0,0-0.1,0.1-0.3,0.3c-0.2,0.2-0.5,0.6-0.6,1.1c-0.1,0.2-0.1,0.4-0.2,0.7c0,0.2-0.1,0.5-0.1,0.7c0,0.5,0,0.9,0.1,1.4
					c0.1,1,0.4,1.9,0.8,3c0.2,0.5,0.4,1.1,0.7,1.6c0.1,0.3,0.3,0.5,0.4,0.8c0.1,0.3,0.3,0.5,0.5,0.8c1.3,2,3,3.6,4.3,4.6
					c0.3,0.2,0.7,0.5,0.9,0.7c0.3,0.2,0.6,0.3,0.8,0.5c0.4,0.2,0.7,0.4,0.7,0.4s-0.2-0.2-0.6-0.5C55.2,45.3,55,45.1,54.8,44.8z"/>
				<polygon class="st8" points="50.1,32.1 50.1,32.1 50.1,32.1 				"/>
				<path class="st8" d="M50.1,32.1L50.1,32.1L50.1,32.1c0.1,0.1,0.2,0.1,0.2,0.1l0,0c0,0,0,0-0.1,0.1l0,0c0,0,0,0,0-0.1
					c0,0,0,0,0,0l0,0v0C50.2,32.1,50.2,32.1,50.1,32.1C50.1,32.1,50.1,32.1,50.1,32.1L50.1,32.1z"/>
			</g>
		</g>
	</g>
</g>
</svg>
