<?xml version="1.0" encoding="utf-8"?>
<!-- Generator: Adobe Illustrator 26.1.0, SVG Export Plug-In . SVG Version: 6.00 Build 0)  -->
<svg version="1.1" id="Layer_1" xmlns="http://www.w3.org/2000/svg" xmlns:xlink="http://www.w3.org/1999/xlink" x="0px" y="0px"
	 viewBox="0 0 100 100" style="enable-background:new 0 0 100 100;" xml:space="preserve">
<style type="text/css">
	.st0{fill:#548C90;}
	.st1{clip-path:url(#SVGID_00000129913476785749692130000014020970969556419758_);}
	.st2{fill-rule:evenodd;clip-rule:evenodd;fill:#F5704D;}
	.st3{fill-rule:evenodd;clip-rule:evenodd;fill:#474748;}
	.st4{fill-rule:evenodd;clip-rule:evenodd;fill:#FFCEAD;}
	.st5{fill-rule:evenodd;clip-rule:evenodd;fill:#474748;stroke:#474748;stroke-miterlimit:10;}
	.st6{fill-rule:evenodd;clip-rule:evenodd;fill:#FFFFFF;}
	.st7{fill-rule:evenodd;clip-rule:evenodd;fill:#FF2EFC;}
</style>
<g>
	<path class="st0" d="M50,5c24.9,0,45,20.2,45,45c0,24.9-20.1,45-45,45C25.1,95,5,74.9,5,50C5,25.1,25.1,5,50,5z"/>
	<g>
		<defs>
			<path id="SVGID_1_" d="M50,95C25.1,95,5,74.9,5,50S25.1,5,50,5c24.9,0,45,20.2,45,45S74.9,95,50,95z"/>
		</defs>
		<clipPath id="SVGID_00000116941020566251445910000017588112350092025533_">
			<use xlink:href="#SVGID_1_"  style="overflow:visible;"/>
		</clipPath>
		<g style="clip-path:url(#SVGID_00000116941020566251445910000017588112350092025533_);">
			<path class="st2" d="M38.3,59.8c0,0,2.8,13.9,2.2,14.3c-0.6,0.4,18.1,0,18.1,0l2.7-14.6L38.3,59.8z"/>
			<path class="st3" d="M56.3,67.8c-0.1,0.2-13.5,0.4-13.6,0.6c-4.2,6-13.3,8.6-20.5,10.2c-7.2,1.6-7.4,10.7-7.5,16.8h69.9
				c0-6.1-0.1-15.1-7.5-16.8C69.9,77,60.3,74.1,56.3,67.8z"/>
			<path class="st4" d="M42.7,55v11.5v5.7c3.5,7.2,9.8,7.4,14,0v-5.7V55C56.7,45.8,42.7,45.8,42.7,55z"/>
			<path class="st5" d="M42.7,64.4v2.1v5.7c3.5,7.2,9.8,7.4,14,0v-5.7v-2.1C53.1,70.3,46.1,69.3,42.7,64.4z"/>
			<rect x="49" y="68.1" class="st6" width="1.4" height="27.3"/>
			<path class="st4" d="M69.1,47c-1.5-0.6-3.5,0.9-4.6,3.5c-1.1,2.5-0.8,5.1,0.7,5.7c1.5,0.6,3.5-0.9,4.6-3.5
				C70.9,50.2,70.6,47.6,69.1,47z"/>
			<path class="st4" d="M31,47c1.5-0.6,3.5,0.9,4.6,3.5c1.1,2.5,0.8,5.1-0.7,5.7c-1.5,0.6-3.5-0.9-4.6-3.5
				C29.2,50.2,29.5,47.6,31,47z"/>
			<path class="st4" d="M49.7,66.9c-4.6,0-14.2-7.2-17.2-17.4c-3-10.4,2.7-25.2,17.2-25.2c14.5,0,20.2,14.9,17.2,25.2
				C63.9,59.7,54.3,66.9,49.7,66.9z"/>
			<path class="st2" d="M52.5,37.1c3.6,7.1,5,9.2,9.7,7.3c4.7-1.9,4.4,3.4,3.5,7.2c4.2-5.1,3.2-9.9,1.9-14.8
				c-1.4-5.4-8.6-13.6-15.4-13.4c-3.7-0.4-9.2,0.1-15.2,4.1c-10.3,7.1-6.9,23.1-4.1,24.9c-2.7-14.8,3.9-11.8,8.5-19.5
				C42.9,29.5,48.6,29.3,52.5,37.1z"/>
			<circle class="st7" cx="33.2" cy="55" r="0.6"/>
			<circle class="st7" cx="66.8" cy="55" r="0.6"/>
			<g>
				<path class="st2" d="M62.4,48.7c0.1-0.1,0.2-0.2,0.3-0.3c0.2-0.2,0.3-0.2,0.3-0.2s-0.1,0.1-0.3,0.2
					C62.7,48.5,62.6,48.6,62.4,48.7c-0.2,0.1-0.3,0.2-0.5,0.3c-0.8,0.4-2,0.6-3.4,0.1c-1.4-0.5-2.9-1.4-3.9-2.9
					c-1-1.5-1.7-3.3-2.4-5.2c-0.6-1.8-1.3-3.8-2.2-5.4c-0.9-1.7-2.3-3-3.7-3.8c-1.4-0.8-2.7-1-3.6-1.1c-0.5-0.1-0.8-0.1-1-0.1
					c-0.2,0-0.4,0-0.4,0v0.9c-0.3,0.1-0.6,0.1-0.7,0.2c-0.2,0.1-0.3,0.1-0.3,0.1l0.6,1.3c0,0,0.1,0,0.2-0.1c0.2-0.1,0.4-0.2,0.7-0.2
					c0.3,0,0.7-0.1,1.1,0.1c0.4,0.1,0.8,0.4,1.3,0.8c0.9,0.8,1.6,2.2,2.3,3.6c0.7,1.5,1.3,3.2,1.9,4.8c0.6,1.7,1.2,3.4,1.9,4.9
					c0.7,1.5,1.5,2.9,2.5,3.8c0.5,0.4,1.1,0.7,1.7,0.7c0.6,0,1-0.1,1.4-0.3c0.4-0.2,0.6-0.3,0.8-0.5c0.2-0.1,0.3-0.2,0.3-0.2
					s-0.1,0.1-0.3,0.2c-0.2,0.1-0.4,0.3-0.8,0.4c-0.4,0.1-0.8,0.3-1.4,0.2c-0.5-0.1-1.1-0.3-1.6-0.8c-1-0.9-1.6-2.3-2.2-3.9
					c-0.6-1.5-1.1-3.2-1.7-4.9c-0.5-1.7-1.1-3.4-1.7-5c-0.6-1.6-1.3-3-2.4-4.1c-0.1-0.1-0.2-0.2-0.4-0.4c0.4,0.1,0.7,0.2,1.1,0.4
					c1.2,0.6,2.5,1.7,3.4,3.2c1,1.5,1.7,3.3,2.4,5.1c0.7,1.8,1.5,3.7,2.7,5.2l0.2,0.3l0.2,0.3c0.2,0.2,0.3,0.3,0.5,0.5
					c0.3,0.3,0.7,0.6,1.1,0.8c0.7,0.5,1.5,0.8,2.2,1c1.5,0.4,2.8,0.2,3.5-0.3C62.2,48.9,62.3,48.8,62.4,48.7z"/>
				<path class="st2" d="M67.2,44c0-0.1,0-0.2,0-0.3c0-0.1,0-0.2,0-0.2l-1.4-0.4c0,0,0,0.1,0,0.3c0,0.2,0,0.5,0,0.8
					c0,0.6,0.2,1.4,0.3,2.2c-0.1,0.9-0.4,2-0.8,3.1c-0.5,1.3-1.3,2.6-2.2,3.2c-0.2,0.1-0.4,0.3-0.6,0.4c-0.2,0.1-0.4,0.2-0.5,0.2
					c-0.3,0.1-0.5,0.1-0.5,0.1s0.2,0,0.5,0c0.2,0,0.4-0.1,0.6-0.1c0.2,0,0.5-0.2,0.7-0.3c0.8-0.4,1.6-1.3,2.3-2.3
					c-0.2,0.9-0.5,1.8-0.8,2.7C64.2,54.7,64,56,64,57.2c0,1.2,0.3,2.4,0.8,3.3c0.5,0.9,1.1,1.4,1.6,1.8c0.5,0.3,0.7,0.5,0.7,0.5
					s-0.3-0.2-0.7-0.6c-0.4-0.4-1-1-1.4-1.8c-0.4-0.9-0.6-2-0.5-3.2c0.1-1.2,0.4-2.4,0.9-3.6c0.5-1.2,1-2.4,1.3-3.6
					c0.2-0.6,0.3-1.2,0.4-1.8c0.1-0.6,0.1-1.1,0.2-1.6c0-0.1,0-0.3,0-0.4c0-0.1,0-0.2,0.1-0.3c0.1-0.6,0.2-1.1,0.2-1.4
					c0-0.4,0-0.6,0-0.6L67.2,44z"/>
				<path class="st2" d="M37.8,54.9c-0.3,0.1-0.8,0.3-1.4,0.2c-0.6-0.1-1.1-0.5-1.6-1c-0.5-0.5-0.9-1.2-1.2-1.9
					c-0.7-1.4-1.1-2.9-1.3-4c-0.1-0.6-0.2-1-0.2-1.4c0-0.3,0-0.5,0-0.5l-0.1,0c0-0.3,0-0.6,0.1-0.8c0,0.1,0.1,0.2,0.1,0.2
					c0.3,0.8,0.6,1.4,0.8,2c0.1,0.3,0.2,0.6,0.2,0.8c0.1,0.2,0.1,0.5,0.1,0.7c0,0.4,0.1,0.6,0.1,0.6s0-0.2,0.1-0.6
					c0-0.2,0-0.4,0-0.7c0-0.3,0-0.6-0.1-0.9c-0.1-1.2-0.6-2.9-0.5-4.3c0,0,0,0.1,0,0.1c0.1,0.4,0.3,0.7,0.5,1.1
					c0.3,0.7,0.6,1.3,0.8,1.8c0.1,0.3,0.2,0.5,0.2,0.8c0,0.1,0.1,0.2,0.1,0.3c0,0.1,0,0.2,0,0.3c0,0.3,0,0.5,0,0.5s0-0.2,0.1-0.5
					c0-0.1,0-0.2,0-0.3c0-0.1,0-0.2,0-0.3c0-0.2,0-0.5-0.1-0.8c-0.2-1.2-0.8-2.8-0.7-4.2c0-1.2,0.4-2.4,0.8-3.3c0,0,0,0,0,0
					c0.1-0.2,0.3-0.3,0.4-0.4c0.2-0.2,0.4-0.3,0.4-0.3l-0.2-0.2c0,0,0.1-0.1,0.1-0.1c0.1-0.2,0.2-0.3,0.3-0.4
					c0.2-0.2,0.3-0.3,0.3-0.3l-2.2-1.6c0,0-0.1,0.2-0.3,0.6c-0.1,0.1-0.1,0.2-0.2,0.3c-0.1,0.1-0.2,0.2-0.3,0.4
					c-0.1,0.2-0.3,0.4-0.4,0.7c-0.2,0.3-0.3,0.6-0.5,0.9c-0.2,0.3-0.3,0.7-0.4,1.1c-0.1,0.4-0.2,0.8-0.3,1.3c-0.1,0.9-0.2,1.8,0,2.7
					c0,0.5,0.1,0.9,0.3,1.4l-1.1-0.1c0,0,0,0.3,0,0.9c0,0.3,0,0.7,0,1.1l0,0c0,0,0,0.1,0,0.2c0,0.3,0,0.6,0.1,1
					c0.1,1,0.4,2.1,0.8,3.3c0.1,0.3,0.3,0.6,0.4,0.9c0.1,0.3,0.3,0.6,0.5,0.8c0.3,0.5,0.6,1.1,0.9,1.6c1.2,2.2,1.8,4.7,2,6.6
					c0.1,0.9,0.2,1.7,0.2,2.3c0,0.6,0,0.9,0,0.9s0-0.3,0-0.9c0-0.6,0-1.3,0-2.3c-0.1-1-0.1-2.1-0.4-3.3c-0.2-1.2-0.6-2.4-1.1-3.6
					c0-0.1-0.1-0.2-0.1-0.3c0.2,0.3,0.5,0.5,0.7,0.7c0.3,0.3,0.6,0.5,0.9,0.6c0.3,0.1,0.7,0.3,1,0.3C37.1,55.3,37.6,55.1,37.8,54.9
					c0.2,0,0.3-0.1,0.4-0.2c0.1-0.1,0.1-0.1,0.1-0.1s0,0-0.1,0.1C38.1,54.8,38,54.8,37.8,54.9z"/>
			</g>
		</g>
	</g>
</g>
</svg>
