<?xml version="1.0" encoding="utf-8"?>
<!-- Generator: Adobe Illustrator 26.1.0, SVG Export Plug-In . SVG Version: 6.00 Build 0)  -->
<svg version="1.1" id="Layer_1" xmlns="http://www.w3.org/2000/svg" xmlns:xlink="http://www.w3.org/1999/xlink" x="0px" y="0px"
	 viewBox="0 0 100 100" style="enable-background:new 0 0 100 100;" xml:space="preserve">
<style type="text/css">
	.st0{clip-path:url(#SVGID_00000032638074618796603460000008655344091743015814_);}
	.st1{fill:none;}
	.st2{fill:#F8D9DE;}
	.st3{fill:#FF4612;}
	.st4{fill:none;stroke:#F8D9DE;stroke-width:0;stroke-linecap:round;stroke-linejoin:round;}
	.st5{fill:#0A1F2D;}
</style>
<g>
	<defs>
		<path id="SVGID_1_" d="M95,50c0,24.85-20.15,45-45,45C25.15,95,5,74.85,5,50C5,25.15,25.15,5,50,5C74.85,5,95,25.15,95,50z"/>
	</defs>
	<use xlink:href="#SVGID_1_"  style="overflow:visible;fill:#FF8572;"/>
	<clipPath id="SVGID_00000170258217693791391110000010133002045653115010_">
		<use xlink:href="#SVGID_1_"  style="overflow:visible;"/>
	</clipPath>
	<g style="clip-path:url(#SVGID_00000170258217693791391110000010133002045653115010_);">
		<path class="st1" d="M53.24,71.88c0,0.01,0,0.02,0,0.03c0,0,0.01,0,0.01,0c0-0.02,0.01-0.03,0.01-0.05c-0.01,0-0.01,0-0.01,0
			C53.24,71.87,53.24,71.88,53.24,71.88z"/>
		<path class="st2" d="M68.82,56.3c0.07,0.01,0.14,0.01,0.22,0.01c1.78,0,3.21-1.44,3.21-3.22c0-0.93-0.4-1.76-1.03-2.35
			c-0.38-0.35-0.84-0.61-1.35-0.75c-0.01,0.02-0.03,0.04-0.04,0.04c-17.39,0-19.71-10.1-19.9-14.47
			C49.51,39.95,46.68,50.1,29.8,50.1c-0.39,0.15-0.74,0.37-1.03,0.65c-0.63,0.59-1.03,1.42-1.03,2.35c0,1.78,1.44,3.22,3.21,3.22
			c0.07,0,0.14-0.01,0.21-0.01c1.24,8.62,7.57,12.88,15.62,13.75v1.67c-0.01,0.05-0.02,0.1-0.02,0.15c0.01,0,0.01,0,0.02,0
			c0-0.01,0-0.02,0-0.03c0-0.05,0.01-0.11,0.02-0.16v0.19c0,0-0.01,0-0.02,0c0.04,0.81,1.47,1.46,3.23,1.46
			c1.73,0,3.13-0.62,3.23-1.41c0,0-0.01,0-0.01,0c0-0.01,0-0.02,0-0.03c0-0.01,0-0.01,0-0.02c0,0,0,0,0,0v-0.01
			c0-0.04-0.01-0.09-0.02-0.13v-1.67C61.26,69.18,67.59,64.92,68.82,56.3z M45.03,63.22h9.95C50.12,66.68,45.03,63.22,45.03,63.22z"
			/>
		<path class="st3" d="M45.03,63.22c0,0,5.09,3.46,9.95,0H45.03z"/>
		<path class="st4" d="M71.23,95.53c0,0,0,0.21,0,0.19"/>
		<path class="st4" d="M28.77,95.53c0,0.22,0,0.3,0,0.3"/>
		<path class="st2" d="M50.02,74.66c-2.39,0-4.4-1.02-4.98-2.4c-4.07,0.98-7.69,3.12-10.47,6.07c-0.01,0.01-0.01,0.01-0.02,0.02
			c-0.2,0.22-0.4,0.44-0.6,0.66c-0.01,0.02-0.03,0.03-0.04,0.05c-0.19,0.22-0.37,0.44-0.55,0.66c-0.03,0.03-0.05,0.07-0.08,0.1
			c-0.16,0.21-0.33,0.42-0.48,0.64c-0.03,0.04-0.06,0.09-0.1,0.14c-0.15,0.21-0.29,0.41-0.43,0.62c-0.03,0.04-0.05,0.09-0.08,0.13
			c-0.14,0.22-0.28,0.43-0.41,0.66c-0.03,0.05-0.06,0.11-0.09,0.16c-0.13,0.21-0.25,0.43-0.37,0.65c-0.04,0.08-0.08,0.16-0.12,0.24
			c-0.1,0.2-0.21,0.39-0.3,0.59c-0.04,0.08-0.07,0.16-0.11,0.23c-0.1,0.2-0.19,0.41-0.28,0.62c-0.04,0.09-0.08,0.19-0.11,0.28
			c-0.08,0.2-0.16,0.39-0.24,0.59c-0.04,0.11-0.08,0.23-0.12,0.34c-0.07,0.18-0.13,0.36-0.19,0.54c-0.04,0.13-0.08,0.27-0.12,0.41
			c-0.05,0.17-0.1,0.33-0.15,0.5c-0.04,0.14-0.07,0.28-0.11,0.41c-0.04,0.17-0.09,0.34-0.13,0.51c-0.03,0.14-0.06,0.28-0.09,0.41
			c-0.04,0.17-0.08,0.35-0.11,0.52c-0.03,0.16-0.05,0.33-0.08,0.5c-0.02,0.15-0.05,0.3-0.07,0.45c-0.03,0.2-0.05,0.4-0.07,0.6
			c-0.01,0.12-0.03,0.24-0.04,0.37c-0.02,0.18-0.03,0.36-0.04,0.54c-0.01,0.15-0.02,0.29-0.03,0.44c-0.02,0.33-0.02,0.66-0.02,0.99
			c0,1.5,0,2.26,0,2.63h9.22v-9.21c0-2.99,2.79-5.42,6.24-5.42c2.61,0,4.84,1.39,5.77,3.35c0.93-1.97,3.16-3.35,5.77-3.35
			c3.44,0,6.24,2.42,6.24,5.42v9.21h9.22c0-0.3,0-1.03,0-2.63c0-0.33-0.01-0.66-0.02-0.99c0-0.07-0.01-0.15-0.02-0.22
			c-0.01-0.25-0.03-0.51-0.05-0.76c-0.01-0.12-0.03-0.25-0.04-0.37c-0.02-0.2-0.04-0.4-0.07-0.6c-0.02-0.13-0.04-0.26-0.06-0.38
			c-0.03-0.19-0.06-0.38-0.09-0.57c-0.02-0.13-0.05-0.26-0.08-0.39c-0.04-0.18-0.07-0.37-0.11-0.55c-0.03-0.14-0.07-0.28-0.11-0.41
			c-0.04-0.17-0.08-0.34-0.13-0.51c-0.04-0.14-0.08-0.27-0.13-0.41c-0.05-0.17-0.1-0.33-0.15-0.49c-0.05-0.16-0.11-0.31-0.17-0.47
			c-0.05-0.14-0.1-0.28-0.15-0.42c-0.07-0.18-0.14-0.35-0.21-0.52c-0.05-0.11-0.09-0.23-0.14-0.35c-0.08-0.18-0.16-0.35-0.24-0.53
			c-0.05-0.11-0.1-0.22-0.15-0.32c-0.08-0.17-0.17-0.34-0.26-0.5c-0.06-0.11-0.11-0.22-0.17-0.33c-0.1-0.18-0.2-0.35-0.3-0.53
			c-0.05-0.09-0.11-0.19-0.16-0.28c-0.11-0.18-0.22-0.35-0.33-0.52c-0.06-0.09-0.11-0.18-0.16-0.26c-0.12-0.19-0.25-0.37-0.38-0.55
			c-0.05-0.07-0.1-0.14-0.15-0.21c-0.14-0.19-0.28-0.37-0.42-0.56c-0.05-0.06-0.09-0.12-0.14-0.18c-0.15-0.19-0.31-0.38-0.47-0.56
			c-0.04-0.05-0.08-0.1-0.12-0.15c-0.17-0.2-0.35-0.39-0.52-0.58c-0.03-0.04-0.06-0.07-0.1-0.11c-0.19-0.2-0.38-0.39-0.58-0.59
			c-0.02-0.02-0.05-0.05-0.07-0.07c-0.2-0.2-0.41-0.39-0.63-0.58c-0.02-0.02-0.03-0.03-0.05-0.05c-0.22-0.19-0.43-0.38-0.66-0.56
			c-0.02-0.01-0.03-0.03-0.05-0.04c-0.24-0.19-0.48-0.38-0.73-0.57c0,0,0,0,0,0c-2.26-1.68-4.86-2.93-7.68-3.61
			C54.41,73.64,52.41,74.66,50.02,74.66z"/>
		<path class="st5" d="M49.94,35.56c0.19,4.37,2.51,14.47,19.9,14.47c0.01,0,0.03-0.01,0.04-0.04c0.51,0.14,0.97,0.4,1.35,0.75
			c0-0.87,0-2.12,0-3.84c0-8.93-5.52-16.57-13.32-19.71c0.69-1.28,1.09-2.75,1.09-4.31c0-5.01-4.06-9.06-9.06-9.06
			c-5.01,0-9.06,4.06-9.06,9.06c0,1.58,0.4,3.06,1.11,4.36c-7.75,3.16-13.21,10.77-13.21,19.66c0,1.77,0,3,0,3.84
			c0.3-0.28,0.65-0.5,1.03-0.65C46.68,50.1,49.51,39.95,49.94,35.56z"/>
		<path class="st5" d="M55.77,80.91c-2.61,0-4.84,1.39-5.77,3.35c-0.93-1.97-3.16-3.35-5.77-3.35c-3.45,0-6.24,2.42-6.24,5.42v9.21
			v0.1h24.02v-0.1v-9.21C62.01,83.34,59.21,80.91,55.77,80.91z"/>
		<path class="st5" d="M50.02,73.32c-1.76,0-3.2-0.65-3.23-1.46c-0.01,0-0.01,0-0.02,0c-0.59,0.09-1.17,0.21-1.75,0.35
			c0.01,0.01,0.01,0.03,0.02,0.04c0.58,1.38,2.59,2.4,4.98,2.4c2.39,0,4.39-1.01,4.98-2.39c0.01-0.02,0.02-0.03,0.02-0.05
			c-0.58-0.14-1.17-0.26-1.77-0.35c0,0.02-0.01,0.03-0.01,0.05C53.15,72.7,51.74,73.32,50.02,73.32z"/>
		<path class="st5" d="M46.8,71.86v-0.19c-0.01,0.05-0.02,0.11-0.02,0.16c0,0.01,0,0.02,0,0.03C46.79,71.87,46.79,71.87,46.8,71.86z
			"/>
		<path class="st5" d="M53.24,71.86c0,0,0.01,0,0.01,0c0-0.01,0-0.02,0-0.03c0-0.06-0.01-0.11-0.02-0.16v0.18L53.24,71.86
			C53.23,71.86,53.24,71.86,53.24,71.86z"/>
	</g>
</g>
</svg>
