<?xml version="1.0" encoding="utf-8"?>
<!-- Generator: Adobe Illustrator 26.1.0, SVG Export Plug-In . SVG Version: 6.00 Build 0)  -->
<svg version="1.1" id="Layer_1" xmlns="http://www.w3.org/2000/svg" xmlns:xlink="http://www.w3.org/1999/xlink" x="0px" y="0px"
	 viewBox="0 0 100 100" style="enable-background:new 0 0 100 100;" xml:space="preserve">
<style type="text/css">
	.st0{opacity:0.1;}
	.st1{fill:#A5DAE8;}
	.st2{clip-path:url(#SVGID_00000034069709871956542430000006614486213054734266_);}
	.st3{fill:#243547;}
	.st4{fill:#162135;}
	.st5{fill:#FEE1B9;}
	.st6{fill:#FFD9AC;}
	.st7{fill:#D69400;}
	.st8{fill:#FDBD13;}
	.st9{fill:#F1F2F2;}
	.st10{fill:#FFFFFF;}
	.st11{fill:#726658;}
</style>
<g id="ava_07_00000005972127579285705000000003707716779996335014_">
	<path class="st0" d="M60.4,93.8C79.3,89.3,93.6,73,94.9,53L65.6,23.7L40.4,48.9l2.1,2.1L31.1,62.4l7.4,7.4l-1.1,1.1L60.4,93.8z"/>
	<g>
		<path class="st1" d="M95,50C95,25.1,74.9,5,50,5C25.1,5,5,25.1,5,50c0,24.9,20.1,45,45,45C74.9,95,95,74.9,95,50z"/>
		<path class="st0" d="M60.4,93.8C79.3,89.3,93.6,73,94.9,53L65.6,23.7L40.4,48.9l2.1,2.1L31.1,62.4l7.4,7.4l-1.1,1.1L60.4,93.8z"/>
		<g>
			<defs>
				<path id="SVGID_1_" d="M95,50C95,25.1,74.9,5,50,5C25.1,5,5,25.1,5,50c0,24.9,20.1,45,45,45C74.9,95,95,74.9,95,50z"/>
			</defs>
			<clipPath id="SVGID_00000007423661678949443740000011783480746784945052_">
				<use xlink:href="#SVGID_1_"  style="overflow:visible;"/>
			</clipPath>
			<g style="clip-path:url(#SVGID_00000007423661678949443740000011783480746784945052_);">
				<path class="st3" d="M70.2,70.7c0,11.1-9,20-20,20l0,0c-11.1,0-20-9-20-20v-34c0-11.1,9-20,20-20l0,0c11.1,0,20,9,20,20V70.7z"
					/>
				<path class="st4" d="M50.2,16.6c-0.1,0-0.1,0-0.2,0v74c0.1,0,0.1,0,0.2,0c11.1,0,20-9,20-20v-34C70.2,25.6,61.2,16.6,50.2,16.6z
					"/>
				<g>
					<path class="st5" d="M76.9,73c-4.2-5.1-19.7-2.2-19.7-8.8v-6.1H42.8v5.6c0,0.1,0,0.3,0,0.4c0,6.6-15.5,3.7-19.7,8.8
						c-3.3,4.6-5.6,22-5.6,22H50H50h32.5C82.5,95,80.2,77.6,76.9,73z"/>
					<path class="st6" d="M57.2,64.2v-6.1H50V95H50h32.5c0,0-2.3-17.4-5.6-22C72.7,67.9,57.2,70.8,57.2,64.2z"/>
					<path class="st6" d="M30.7,44.2c-0.2-2.4,1.1-4.5,2.9-4.8c1.9-0.3,3.6,1.5,3.8,3.9c0.2,2.4-1.1,4.5-2.9,4.8
						C32.6,48.3,30.9,46.6,30.7,44.2z"/>
					<g>
						<g>
							<g>
								<path class="st6" d="M69.4,44.1c0.3-2.4-0.9-4.5-2.8-4.7c-1.8-0.2-3.6,1.6-3.9,4c-0.3,2.4,0.9,4.5,2.8,4.7
									C67.3,48.3,69.1,46.5,69.4,44.1z"/>
							</g>
							<g>
								<g>
									<path class="st5" d="M50,24.8c0,0-15.2,1.9-15.2,10c0,0,0,11,0,14.2c0,3.2,5.2,12.4,9.8,12.7C47,62,50,62.2,50,62.2
										s3.1-0.3,5.4-0.5c4.7-0.4,9.8-9.5,9.8-12.7c0-3.2,0-14.2,0-14.2C65.3,26.7,50,24.8,50,24.8z"/>
								</g>
								<g>
									<path class="st6" d="M65.2,34.9c0,0,0,11,0,14.2c0,3.2-5.2,12.4-9.8,12.7C53,62,50,62.2,50,62.2V24.8
										C50,24.8,65.2,26.7,65.2,34.9z"/>
								</g>
							</g>
						</g>
					</g>
					<path class="st7" d="M76.9,73c-1.3-1.6-3.7-2.4-6.4-3V70c0,0-8.3-1.2-9.8-2c-1.5-0.7-10.7,2-10.7,2V95h20.5h12
						C82.5,95,80.2,77.6,76.9,73z"/>
					<path class="st8" d="M39.3,68c-1.5,0.7-9.8,2-9.8,2V70c-2.7,0.6-5.1,1.4-6.4,3c-3.3,4.6-5.6,22-5.6,22h12H50V69.9
						C50,69.9,40.8,67.2,39.3,68z"/>
					<polygon class="st9" points="50,69.9 57.8,66 61.8,68.3 55.2,77.7 					"/>
					<polygon class="st10" points="50,69.9 42.2,66 38.2,68.3 46.1,77.7 					"/>
					<g>
						<path class="st10" d="M49.9,56.9c2.1,0,3.9-1.5,3.9-3.4h-7.7C46.1,55.4,47.8,56.9,49.9,56.9z"/>
						<path class="st11" d="M59,44.4c0-0.7-0.6-1.3-1.3-1.3c-0.7,0-1.3,0.6-1.3,1.3c0,0.7,0.6,1.3,1.3,1.3
							C58.4,45.7,59,45.1,59,44.4z"/>
						<path class="st11" d="M43.6,43.9c0-0.7-0.6-1.3-1.3-1.3c-0.7,0-1.3,0.6-1.3,1.3c0,0.7,0.6,1.3,1.3,1.3
							C43,45.2,43.6,44.6,43.6,43.9z"/>
						<g>
							<g>
								<g>
									<path class="st4" d="M45,41.4c-0.1,0-0.2,0-0.2-0.1c-0.5-0.6-1.4-1-2.5-1s-2,0.4-2.5,1c-0.1,0.1-0.3,0.1-0.4,0.1
										c-0.1-0.1-0.1-0.3-0.1-0.4c0.6-0.8,1.7-1.2,2.9-1.2c1.2,0,2.3,0.5,2.9,1.2c0.1,0.1,0.1,0.3-0.1,0.4
										C45.1,41.4,45.1,41.4,45,41.4z"/>
								</g>
							</g>
						</g>
						<g>
							<g>
								<g>
									<path class="st4" d="M60.4,41.4c-0.1,0-0.2,0-0.2-0.1c-0.5-0.6-1.4-1-2.5-1c-1.1,0-2,0.4-2.5,1c-0.1,0.1-0.3,0.1-0.4,0.1
										c-0.1-0.1-0.1-0.3-0.1-0.4c0.6-0.8,1.7-1.2,2.9-1.2c1.2,0,2.3,0.5,2.9,1.2c0.1,0.1,0.1,0.3-0.1,0.4
										C60.5,41.4,60.5,41.4,60.4,41.4z"/>
								</g>
							</g>
						</g>
					</g>
				</g>
				<path class="st3" d="M34.8,39.5c0,0,14-6.5,15.2-14.7c0-5.2-7-2.1-7-2.1L32.9,29L34.8,39.5z"/>
				<path class="st4" d="M65.2,39.5c0,0-14-6.5-15.2-14.7c0-5.2,7-2.1,7-2.1L67,29L65.2,39.5z"/>
			</g>
		</g>
	</g>
</g>
</svg>
