<?xml version="1.0" ?>
<!-- Uploaded to: SVG Repo, www.svgrepo.com, Generator: SVG Repo Mixer Tools -->
<svg width="800px" height="800px" viewBox="0 0 128 128" data-name="Layer 1" id="Layer_1" xmlns="http://www.w3.org/2000/svg">
<defs>
<style>.cls-1{fill:#ff8475;}.cls-15,.cls-2{fill:#f85565;}.cls-2{opacity:0.4;}.cls-3{fill:#356cb6;}.cls-4{fill:#ffd8c9;}.cls-10,.cls-11,.cls-5,.cls-9{fill:none;stroke-linecap:round;stroke-linejoin:round;}.cls-5{stroke:#fbc0aa;stroke-width:26px;}.cls-6{fill:#ffbb94;}.cls-7{fill:#00adfe;}.cls-8{opacity:0.5;}.cls-10,.cls-11,.cls-9{stroke:#393c54;stroke-width:2px;}.cls-10{stroke-dasharray:0.1 2.92;}.cls-11{stroke-dasharray:0.1 2.94;}.cls-12{fill:#393c54;}.cls-13,.cls-14{fill:#ffffff;}.cls-13{opacity:0.3;}.cls-16{fill:#f8dc25;}</style>
</defs>
<title/>
<circle class="cls-1" cx="64" cy="64" r="60"/>
<circle class="cls-2" cx="64" cy="64" r="48"/>
<circle class="cls-3" cx="91.32" cy="60.43" r="7.93"/>
<path class="cls-4" d="M28.14,96.5A21.9,21.9,0,0,0,15.9,99.88a60,60,0,0,0,96.2,0A21.9,21.9,0,0,0,99.86,96.5Z"/>
<line class="cls-5" x1="64" x2="64" y1="83.75" y2="97.5"/>
<circle class="cls-3" cx="36.68" cy="60.43" r="7.93"/>
<path class="cls-6" d="M64,94.37A28.31,28.31,0,0,1,35.68,66.05V47.43a28.32,28.32,0,1,1,56.64,0V66.05A28.31,28.31,0,0,1,64,94.37Z"/>
<path class="cls-7" d="M64,96.38A30.36,30.36,0,0,1,33.68,66.05V47.43a30.32,30.32,0,1,1,60.64,0V66.05A30.36,30.36,0,0,1,64,96.38Z"/>
<g class="cls-8">
<path class="cls-9" d="M40.26,28.61l0,0"/>
<path class="cls-10" d="M43,29.61c3.4,1,10.08,2.39,21,2.39,12.63,0,19.59-1.87,22.34-2.84"/>
<path class="cls-9" d="M87.7,28.63l0,0"/>
</g>
<g class="cls-8">
<path class="cls-9" d="M46,23l0,0"/>
<path class="cls-11" d="M48.87,24A59.58,59.58,0,0,0,64,25.59c9,0,14.25-1.27,16.54-2"/>
<path class="cls-9" d="M81.92,23l0,0"/>
</g>
<path class="cls-12" d="M74,18.82a30.09,30.09,0,0,0-20,0V60H74Z"/>
<path class="cls-13" d="M64,17.11a29.3,29.3,0,0,0-4,.3V58h8V17.41A29.3,29.3,0,0,0,64,17.11Z"/>
<path class="cls-14" d="M95,56.75V46a2,2,0,0,0-2-2H78.25a14.21,14.21,0,0,0-11.06,5.28A5.3,5.3,0,0,0,64,48.19a5.24,5.24,0,0,0-3.19,1.1A14.19,14.19,0,0,0,49.75,44H35a2,2,0,0,0-2,2V56.75A14.24,14.24,0,0,0,43.86,70.57,11.93,11.93,0,0,0,43,75v6a21.15,21.15,0,0,0,2.37,9,30.2,30.2,0,0,0,37.26,0A21.15,21.15,0,0,0,85,81V75a11.93,11.93,0,0,0-.86-4.43A14.24,14.24,0,0,0,95,56.75Z"/>
<path class="cls-12" d="M54,94.68a30.26,30.26,0,0,0,20,0V86.82H54Z"/>
<path class="cls-15" d="M70,46h8.75A10.25,10.25,0,0,1,89,56.25V69a0,0,0,0,1,0,0H80.25A10.25,10.25,0,0,1,70,58.75V46A0,0,0,0,1,70,46Z" transform="translate(137 -22) rotate(90)"/>
<path class="cls-15" d="M49.25,46H58a0,0,0,0,1,0,0V58.75A10.25,10.25,0,0,1,47.75,69H39a0,0,0,0,1,0,0V56.25A10.25,10.25,0,0,1,49.25,46Z" transform="translate(106 9) rotate(90)"/>
<path class="cls-6" d="M78.25,52H87a0,0,0,0,1,0,0v4.75A6.25,6.25,0,0,1,80.75,63H72a0,0,0,0,1,0,0V58.25A6.25,6.25,0,0,1,78.25,52Z"/>
<path class="cls-6" d="M41,52h8.75A6.25,6.25,0,0,1,56,58.25V63a0,0,0,0,1,0,0H47.25A6.25,6.25,0,0,1,41,56.75V52A0,0,0,0,1,41,52Z" transform="translate(97 115) rotate(180)"/>
<circle class="cls-12" cx="78.5" cy="58.28" r="3"/>
<circle class="cls-12" cx="49.5" cy="58.28" r="3"/>
<rect class="cls-15" height="34" rx="8" transform="translate(142 14) rotate(90)" width="22" x="53" y="61"/>
<rect class="cls-6" height="14" rx="4" width="26" x="51" y="71"/>
<path class="cls-12" d="M62.84,53,56.93,66.49a1.27,1.27,0,0,0,1.16,1.78H69.91a1.27,1.27,0,0,0,1.16-1.78L65.16,53A1.27,1.27,0,0,0,62.84,53Z"/>
<path class="cls-16" d="M63.27,68.12a2.52,2.52,0,1,0-5,0s0,.1,0,.15h5A.77.77,0,0,0,63.27,68.12Z"/>
<path class="cls-16" d="M67.25,65.6a2.52,2.52,0,0,0-2.52,2.52.77.77,0,0,0,0,.15h5s0-.1,0-.15A2.52,2.52,0,0,0,67.25,65.6Z"/>
<path class="cls-12" d="M69.5,81h-11a3.5,3.5,0,0,1,0-7h11a3.5,3.5,0,0,1,0,7Z"/>
<path class="cls-14" d="M68,77H60a2,2,0,0,1-2-2V74H70v1A2,2,0,0,1,68,77Z"/>
<path class="cls-14" d="M70,81H58V80a2,2,0,0,1,2-2h8a2,2,0,0,1,2,2Z"/>
<path class="cls-7" d="M88.32,96.5v.17A22,22,0,0,1,77.92,115l-14.65,9,.73,0a59.72,59.72,0,0,0,31.5-9V96.5Z"/>
<path class="cls-12" d="M80,118.39l-8.14,5.08a59.68,59.68,0,0,0,25.6-9.7V96.5H92.32v.19A25.89,25.89,0,0,1,80,118.39Z"/>
</svg>