<?xml version="1.0" encoding="utf-8"?>
<!-- Uploaded to: SVG Repo, www.svgrepo.com, Generator: SVG Repo Mixer Tools -->
<svg width="800px" height="800px" viewBox="0 0 78.523 78.523" xmlns="http://www.w3.org/2000/svg">
  <g id="football" transform="translate(-263.544 -809.686)">
    <path id="Path_99" data-name="Path 99" d="M342.067,848.947a39.261,39.261,0,1,1-39.261-39.261A39.261,39.261,0,0,1,342.067,848.947Z" fill="#f4f4f4"/>
    <path id="Path_100" data-name="Path 100" d="M292.3,862.679l-.157.191-4.163,5.625-.14.2h.415l.165.36.11-.172,4.148-5.6.165-.2h-.431Zm10.432-35.524-.361.234-.321-.214-.026.181v8.191c0,.01,0,.112.008.267l.339-.262.34.269v-.274l-.008-8.158Zm9.862,35.721-.146-.214-.118.426h-.413l.127.183,4.261,5.519.111.136.165-.34.438.005-.182-.22Zm13.286-18.866.1-.431-.252.114-8.994,2.967-.153.107.265.216-.153.535.357-.27,8.93-2.914.194-.09Zm-37.988,2.973.329-.257-.234-.073-8.14-2.963-.206-.043.094.363-.352.274.284.058,8.108,2.957.224.062Z" fill="#c9d1d1"/>
    <path id="Path_101" data-name="Path 101" d="M275.572,827.247l-5.461-.016a39.035,39.035,0,0,0-6.567,21.716c0,1.292.07,2.566.193,3.82l2.37,1.854,13.624-10.611Zm41.005,41.339-7.182,15.7,3.265,2.625a39.248,39.248,0,0,0,21.94-14.993l-.76-3.152Zm-45.589.295-.551,2.274a39.293,39.293,0,0,0,22.021,15.632l2.974-2.384L288.251,868.7Zm64.513-41.65-5.466.016-4.159,16.763L339.5,854.621l2.375-1.854c.123-1.254.193-2.528.193-3.82A39.042,39.042,0,0,0,335.5,827.231Zm-18.655-9.249-2.207-6.479a39.067,39.067,0,0,0-24.667.371l-2.084,6.108,14.479,9.407Zm-4.52,45.106,4.52-16.105-14.479-11.431-14.479,11.431,4.52,16.105Z" fill="#163844"/>
  </g>
</svg>