<?xml version="1.0" ?><!-- Uploaded to: SVG Repo, www.svgrepo.com, Generator: SVG Repo Mixer Tools -->
<svg width="800px" height="800px" viewBox="0 0 128 128" data-name="Layer 1" id="Layer_1" xmlns="http://www.w3.org/2000/svg"><defs><style>.cls-1{fill:#515570;}.cls-2,.cls-7,.cls-9{fill:#393c54;}.cls-2{opacity:0.5;}.cls-3,.cls-6{fill:#8f5653;}.cls-4{fill:#fba875;}.cls-5{fill:#ffbb94;}.cls-6{opacity:0.7;}.cls-8{fill:#ffffff;}.cls-9{opacity:0.2;}.cls-10{fill:#f85565;}.cls-11{fill:#356cb6;opacity:0.3;}</style></defs><title/><circle class="cls-1" cx="64" cy="64" r="60"/><circle class="cls-2" cx="64" cy="64" r="48"/><path class="cls-3" d="M106,104.41C104.1,100,99.05,97,93.39,97H34.61C29,97,23.9,100,22,104.41l-.48,2a60,60,0,0,0,85,0Z"/><circle class="cls-4" cx="92.56" cy="60.67" r="8.29"/><circle class="cls-4" cx="35.44" cy="60.67" r="8.29"/><path class="cls-5" d="M64,96.15A29.61,29.61,0,0,1,34.4,66.54V47.08a29.6,29.6,0,1,1,59.2,0V66.54A29.61,29.61,0,0,1,64,96.15Z"/><path class="cls-6" d="M34.4,53.54V47.08a29.6,29.6,0,1,1,59.2,0v6.46Z"/><path class="cls-7" d="M44.56,97c2.1,8.36,10,23.59,19.44,23.59S81.34,105.36,83.44,97Z"/><path class="cls-8" d="M64,99.9c-12.79,0-26.38-12.24-26.38-27.34l-1-24.74a27.34,27.34,0,0,1,54.68,0l-1,24.74C90.38,87.66,77.28,99.9,64,99.9Z"/><path class="cls-9" d="M76,23.25a27.28,27.28,0,0,1,9.34,20.57l-1,24.74c0,15.1-13.1,27.34-26.38,27.34a23.62,23.62,0,0,1-10.44-2.59A25.77,25.77,0,0,0,64,99.9c13.28,0,26.38-12.24,26.38-27.34l1-24.74A27.34,27.34,0,0,0,76,23.25Z"/><path class="cls-7" d="M60,17h8a0,0,0,0,1,0,0v7a1,1,0,0,1-1,1H61a1,1,0,0,1-1-1V17A0,0,0,0,1,60,17Z"/><path class="cls-7" d="M87,45h8a0,0,0,0,1,0,0v5a1,1,0,0,1-1,1H88a1,1,0,0,1-1-1V45A0,0,0,0,1,87,45Z" transform="translate(139 -43) rotate(90)"/><path class="cls-7" d="M34,45h6a1,1,0,0,1,1,1v5a0,0,0,0,1,0,0H33a0,0,0,0,1,0,0V46A1,1,0,0,1,34,45Z" transform="translate(85 11) rotate(90)"/><circle class="cls-7" cx="75.5" cy="59.5" r="5.5"/><circle class="cls-7" cx="52.5" cy="59.5" r="5.5"/><polygon class="cls-10" points="52 50 64 55 75 50 52 50"/><path class="cls-11" d="M61.68,66.51,60,71.28A2,2,0,0,0,61.93,74h4.19a2,2,0,0,0,1.93-2.72l-1.67-4.77A2.49,2.49,0,0,0,61.68,66.51Z"/><polygon class="cls-10" points="57 67 46.5 76 53 76 57 67"/><polygon class="cls-10" points="70.5 67 81 76 74.5 76 70.5 67"/><circle class="cls-7" cx="68" cy="82" r="1.5"/><circle class="cls-7" cx="75" cy="82" r="1.5"/><circle class="cls-7" cx="81" cy="84" r="1.5"/><circle class="cls-7" cx="68" cy="88" r="1.5"/><circle class="cls-7" cx="68" cy="94" r="1.5"/><circle class="cls-7" cx="60" cy="82" r="1.5"/><circle class="cls-7" cx="53" cy="82" r="1.5"/><circle class="cls-7" cx="47" cy="84" r="1.5"/><circle class="cls-7" cx="60" cy="88" r="1.5"/><circle class="cls-7" cx="60" cy="94" r="1.5"/><circle class="cls-7" cx="53.5" cy="30.5" r="1.5"/><circle class="cls-7" cx="53.5" cy="36.5" r="1.5"/><circle class="cls-7" cx="53.5" cy="42.5" r="1.5"/><circle class="cls-7" cx="45.5" cy="36.5" r="1.5"/><circle class="cls-7" cx="45.5" cy="42.5" r="1.5"/><circle class="cls-7" cx="60.5" cy="44.5" r="1.5"/><circle class="cls-7" cx="74.5" cy="30.5" r="1.5"/><circle class="cls-7" cx="74.5" cy="36.5" r="1.5"/><circle class="cls-7" cx="74.5" cy="42.5" r="1.5"/><circle class="cls-7" cx="82.5" cy="36.5" r="1.5"/><circle class="cls-7" cx="82.5" cy="42.5" r="1.5"/><circle class="cls-7" cx="67.5" cy="44.5" r="1.5"/></svg>