<?xml version="1.0" encoding="utf-8"?>
<!-- Uploaded to: SVG Repo, www.svgrepo.com, Generator: SVG Repo Mixer Tools -->
<svg width="800px" height="800px" viewBox="0 0 80.54 80.54" xmlns="http://www.w3.org/2000/svg">
  <g id="help_desk" data-name="help desk" transform="translate(-664.011 -48.256)">
    <path id="Path_37" data-name="Path 37" d="M704.28,128.8a40.27,40.27,0,1,1,40.268-40.273A40.317,40.317,0,0,1,704.28,128.8Zm0-61.289A21.021,21.021,0,1,0,725.3,88.523a21.039,21.039,0,0,0-21.02-21.016Z" fill="#f4f4f4"/>
    <path id="Path_38" data-name="Path 38" d="M704.28,128.8a40.27,40.27,0,1,1,40.268-40.273A40.317,40.317,0,0,1,704.28,128.8Zm0-61.289A21.021,21.021,0,1,0,725.3,88.523a21.039,21.039,0,0,0-21.02-21.016Z" fill="#f4f4f4"/>
    <path id="Path_39" data-name="Path 39" d="M669.694,68.007l15.086,12.7a21.147,21.147,0,0,1,11.687-11.686l-12.7-15.078A40.532,40.532,0,0,0,669.694,68.007Zm54.088,12.7,15.083-12.7a40.5,40.5,0,0,0-14.057-14.062L712.09,69.028A21.138,21.138,0,0,1,723.782,80.709ZM712.09,108.027l12.718,15.088a40.585,40.585,0,0,0,14.057-14.062L723.782,96.348A21.1,21.1,0,0,1,712.09,108.027ZM684.78,96.348l-15.086,12.705a40.608,40.608,0,0,0,14.068,14.062l12.7-15.08A21.149,21.149,0,0,1,684.78,96.348Z" fill="#ea3b36"/>
    <path id="Path_40" data-name="Path 40" d="M692.634,64.471l-8.024-9.509a36.935,36.935,0,0,0-13.641,14.109l9.633,8.123A24.708,24.708,0,0,1,692.634,64.471Zm33.808,14,9.743-8.206a37.009,37.009,0,0,0-12.906-14.507l-7.945,9.428A24.65,24.65,0,0,1,726.442,78.47Zm-13.453,30.623,8.092,9.592a36.975,36.975,0,0,0,13.6-13.15l-9.478-7.994A24.687,24.687,0,0,1,712.989,109.093Zm-31-10.392-9.432,7.94a36.918,36.918,0,0,0,14.336,12.753l8.205-9.732A24.65,24.65,0,0,1,681.99,98.7Z" fill="#ff5245"/>
    <path id="Path_41" data-name="Path 41" d="M684.61,54.962l8.024,9.509a24.309,24.309,0,0,1,22.7.714l7.945-9.428a36.478,36.478,0,0,0-38.669-.795Zm51.575,15.3-9.743,8.206a24.256,24.256,0,0,1-1.234,19.071l9.478,7.994a36.347,36.347,0,0,0,1.5-35.271Zm-32.893,40.829a24.413,24.413,0,0,1-8.193-1.431l-8.205,9.732a36.526,36.526,0,0,0,34.187-.709l-8.092-9.592A24.324,24.324,0,0,1,703.292,111.093Zm-22.69-33.9-9.633-8.123a36.613,36.613,0,0,0,1.589,37.57l9.432-7.94A24.39,24.39,0,0,1,680.6,77.194Z" fill="#f7f7f7"/>
  </g>
</svg>