<?xml version="1.0" ?><!-- Uploaded to: SVG Repo, www.svgrepo.com, Generator: SVG Repo Mixer Tools -->
<svg width="800px" height="800px" viewBox="0 0 128 128" data-name="Layer 1" id="Layer_1" xmlns="http://www.w3.org/2000/svg"><defs><style>.cls-1{fill:#a7aece;}.cls-2,.cls-4{fill:#ffffff;}.cls-2{opacity:0.3;}.cls-3{fill:#fba875;}.cls-13,.cls-5,.cls-7{fill:none;stroke-linecap:round;}.cls-13,.cls-5{stroke:#fba875;stroke-miterlimit:10;}.cls-5{stroke-width:18px;}.cls-6{fill:#ffbb94;}.cls-7{stroke:#515570;stroke-linejoin:round;stroke-width:2px;opacity:0.4;}.cls-8{fill:#356cb6;}.cls-10,.cls-11,.cls-9{fill:#393c54;}.cls-9{opacity:0.2;}.cls-10{opacity:0.1;}.cls-12{fill:#f85565;}.cls-13{stroke-width:6px;}.cls-14{fill:#ff8475;}</style></defs><title/><circle class="cls-1" cx="64" cy="64" r="60"/><circle class="cls-2" cx="64" cy="64" r="48"/><circle class="cls-3" cx="91.32" cy="60.43" r="7.93"/><path class="cls-4" d="M64,124.1A59.73,59.73,0,0,0,103.8,109l-2.2-5.36c-1.71-4-6.22-6.64-11.29-6.64H37.69c-5.07,0-9.58,2.66-11.29,6.64L24.2,109A59.73,59.73,0,0,0,64,124.1Z"/><polygon class="cls-1" points="74 100 54 100 53.22 94.52 74.78 94.52 74 100"/><line class="cls-5" x1="64" x2="64" y1="84.75" y2="98.5"/><circle class="cls-3" cx="36.68" cy="60.43" r="7.93"/><path class="cls-6" d="M64,94.37A28.31,28.31,0,0,1,35.68,66.05V53.43a28.32,28.32,0,1,1,56.64,0V66.05A28.31,28.31,0,0,1,64,94.37Z"/><line class="cls-7" x1="74.39" x2="84" y1="53" y2="52.75"/><line class="cls-7" x1="53" x2="43.39" y1="53" y2="52.75"/><rect class="cls-4" height="17.1" width="45" x="41.5" y="27.7"/><path class="cls-8" d="M91.09,21.15A35.14,35.14,0,0,0,28.87,43.53c0,6.4,3.82,12.68,6.81,17.85C36.11,61.28,48,35,91.09,21.15Z"/><path class="cls-8" d="M36.77,21.15A35.14,35.14,0,0,1,99,43.53c0,6.28-3.79,12.58-6.68,17.68C91.85,61.4,77.85,35,36.77,21.15Z"/><path class="cls-9" d="M36.77,21.15A35.14,35.14,0,0,1,99,43.53c0,6.28-3.79,12.58-6.68,17.68C91.85,61.4,77.85,35,36.77,21.15Z"/><path class="cls-9" d="M63.86,8.4a35,35,0,0,0-15.17,3.43C77.48,22,92.52,38.31,98.75,46.37A16.94,16.94,0,0,0,99,43.53,35.13,35.13,0,0,0,63.86,8.4Z"/><path class="cls-4" d="M64,103.3a11,11,0,0,1-10.78-8.8A11.4,11.4,0,0,0,53,96.7a11,11,0,0,0,22,0,11.4,11.4,0,0,0-.22-2.2A11,11,0,0,1,64,103.3Z"/><path class="cls-10" d="M64,103.3a11,11,0,0,1-10.78-8.8A11.4,11.4,0,0,0,53,96.7a11,11,0,0,0,22,0,11.4,11.4,0,0,0-.22-2.2A11,11,0,0,1,64,103.3Z"/><path class="cls-11" d="M71.55,76a1,1,0,0,1,1,1.06,8.55,8.55,0,0,1-17,0,1,1,0,0,1,1-1.06Z"/><path class="cls-11" d="M48.91,75c-1.15,0-2-.37-1.89-.78,1.06-3,17-5.38,17-5.38s15.92,2.35,17,5.38"/><path class="cls-12" d="M64,84.66a8.51,8.51,0,0,0,6.29-2.79,9.06,9.06,0,0,0-12.58,0A8.51,8.51,0,0,0,64,84.66Z"/><path class="cls-4" d="M58,76a2,2,0,0,0,2,2h8a2,2,0,0,0,2-2Z"/><circle class="cls-11" cx="78" cy="59.28" r="3"/><circle class="cls-11" cx="50" cy="59.28" r="3"/><line class="cls-13" x1="64" x2="64" y1="60.75" y2="69.25"/><path class="cls-12" d="M38,118.09a59.92,59.92,0,0,0,11,4V97H38Z"/><path class="cls-12" d="M79,122.11a59.92,59.92,0,0,0,11-4V97H79Z"/><circle class="cls-14" cx="64" cy="114" r="1.5"/><circle class="cls-14" cx="64" cy="120" r="1.5"/></svg>