<?xml version="1.0" ?><!-- Uploaded to: SVG Repo, www.svgrepo.com, Generator: SVG Repo Mixer Tools -->
<svg width="800px" height="800px" viewBox="0 0 128 128" data-name="Layer 1" id="Layer_1" xmlns="http://www.w3.org/2000/svg"><defs><style>.cls-1{fill:#00adfe;}.cls-2,.cls-5{fill:#ffffff;}.cls-2{opacity:0.3;}.cls-3{fill:#515570;}.cls-4{fill:#fba875;}.cls-6{fill:#a7aece;}.cls-13,.cls-14,.cls-7,.cls-9{fill:none;stroke-linecap:round;}.cls-13,.cls-7{stroke:#fba875;stroke-miterlimit:10;}.cls-7{stroke-width:18px;}.cls-8{fill:#ffbb94;}.cls-9{stroke:#515570;opacity:0.4;}.cls-14,.cls-9{stroke-linejoin:round;stroke-width:2px;}.cls-10,.cls-11,.cls-15{fill:#393c54;}.cls-10{opacity:0.1;}.cls-12{fill:#f85565;}.cls-13{stroke-width:6px;}.cls-14{stroke:#393c54;}.cls-15{opacity:0.5;}</style></defs><title/><circle class="cls-1" cx="64" cy="64" r="60"/><circle class="cls-2" cx="64" cy="64" r="48"/><path class="cls-3" d="M91.34,25.88c-7.8-7.18-16-10.77-23.71-11.61l-.24,0-.93-.08-.55,0-.67,0-.62,0H63.38l-.62,0-.67,0-.55,0-.93.08-.24,0c-7.72.84-15.91,4.43-23.71,11.61a17.91,17.91,0,0,0-5,11.47V59c0,17.83,64.64,17.83,64.64,0V37.35A17.91,17.91,0,0,0,91.34,25.88Z"/><circle class="cls-4" cx="91.32" cy="60.38" r="7.93"/><path class="cls-5" d="M64,124.1A59.73,59.73,0,0,0,103.8,109l-2.2-5.41c-1.71-4-6.22-6.64-11.29-6.64H37.69c-5.07,0-9.58,2.66-11.29,6.64L24.2,109A59.73,59.73,0,0,0,64,124.1Z"/><polygon class="cls-6" points="74 99.95 54 99.95 53.22 94.47 74.78 94.47 74 99.95"/><line class="cls-7" x1="64" x2="64" y1="84.7" y2="98.45"/><path class="cls-6" d="M64,124.05l1,0V106a1,1,0,1,0-2,0V124Z"/><circle class="cls-4" cx="36.68" cy="60.38" r="7.93"/><path class="cls-8" d="M64,94.32A28.31,28.31,0,0,1,35.68,66V53.38a28.32,28.32,0,1,1,56.64,0V66A28.31,28.31,0,0,1,64,94.32Z"/><line class="cls-9" x1="74.39" x2="84" y1="52.95" y2="52.7"/><line class="cls-9" x1="53" x2="43.39" y1="52.95" y2="52.7"/><path class="cls-5" d="M64,103.25a11,11,0,0,1-10.78-8.8,11.4,11.4,0,0,0-.22,2.2,11,11,0,0,0,22,0,11.4,11.4,0,0,0-.22-2.2A11,11,0,0,1,64,103.25Z"/><path class="cls-10" d="M64,103.25a11,11,0,0,1-10.78-8.8,11.4,11.4,0,0,0-.22,2.2,11,11,0,0,0,22,0,11.4,11.4,0,0,0-.22-2.2A11,11,0,0,1,64,103.25Z"/><path class="cls-11" d="M71.55,76a1,1,0,0,1,1,1.06,8.55,8.55,0,0,1-17,0,1,1,0,0,1,1-1.06Z"/><path class="cls-12" d="M64,84.61a8.51,8.51,0,0,0,6.29-2.79,9.06,9.06,0,0,0-12.58,0A8.51,8.51,0,0,0,64,84.61Z"/><path class="cls-11" d="M64,86.09a8.33,8.33,0,0,1-3.24-.65.5.5,0,0,0-.59.75l2.28,3.41a1.86,1.86,0,0,0,3.1,0l2.28-3.41a.5.5,0,0,0-.59-.75A8.33,8.33,0,0,1,64,86.09Z"/><path class="cls-5" d="M58,76h5a0,0,0,0,1,0,0v2a0,0,0,0,1,0,0H60a2,2,0,0,1-2-2v0A0,0,0,0,1,58,76Z"/><path class="cls-5" d="M65,76h5a0,0,0,0,1,0,0v0a2,2,0,0,1-2,2H65a0,0,0,0,1,0,0V76A0,0,0,0,1,65,76Z"/><path class="cls-11" d="M63.56,73.13h0a2.59,2.59,0,0,1-2.15,3l-2.33.37a19,19,0,0,1-13.67-3.07L60.6,71A2.59,2.59,0,0,1,63.56,73.13Z"/><path class="cls-11" d="M64.44,73.13h0a2.59,2.59,0,0,0,2.15,3l2.33.37a19,19,0,0,0,13.67-3.07L67.4,71A2.59,2.59,0,0,0,64.44,73.13Z"/><circle class="cls-11" cx="78" cy="59.23" r="3"/><circle class="cls-11" cx="50" cy="59.23" r="3"/><line class="cls-13" x1="64" x2="64" y1="60.7" y2="69.2"/><path class="cls-2" d="M82.1,65H74.18a4.77,4.77,0,0,1-4.65-3.73L69,58.64a2.64,2.64,0,0,1,2.16-3.19,45.34,45.34,0,0,1,13.76,0,2.64,2.64,0,0,1,2.21,2.9l-.26,2.31A4.77,4.77,0,0,1,82.1,65Z"/><path class="cls-2" d="M45.9,65h7.92a4.77,4.77,0,0,0,4.65-3.73L59,58.64a2.64,2.64,0,0,0-2.16-3.19,45.34,45.34,0,0,0-13.76,0,2.64,2.64,0,0,0-2.21,2.9l.26,2.31A4.77,4.77,0,0,0,45.9,65Z"/><path class="cls-2" d="M73.64,55.16,69.2,59.59a.41.41,0,0,1,0,.11l.34,1.52a4.72,4.72,0,0,0,1.34,2.36l8.6-8.6A43.63,43.63,0,0,0,73.64,55.16Z"/><path class="cls-2" d="M82.12,55.16,72.6,64.68a4.9,4.9,0,0,0,1.58.27h1l9.48-9.49Q83.38,55.28,82.12,55.16Z"/><path class="cls-14" d="M82.1,65H74.18a4.77,4.77,0,0,1-4.65-3.73L69,58.64a2.64,2.64,0,0,1,2.16-3.19,45.34,45.34,0,0,1,13.76,0,2.64,2.64,0,0,1,2.21,2.9l-.26,2.31A4.77,4.77,0,0,1,82.1,65Z"/><path class="cls-2" d="M42.72,63.73,51.48,55a46,46,0,0,0-5.87.22l-4.41,4.4c0,.21,0,.42,0,.64s0,.49,0,.73A4.74,4.74,0,0,0,42.72,63.73Z"/><path class="cls-2" d="M54.14,55.14l-9.59,9.59A4.65,4.65,0,0,0,45.9,65h1.26l9.52-9.52C55.83,55.3,55,55.21,54.14,55.14Z"/><path class="cls-14" d="M45.9,65h7.92a4.77,4.77,0,0,0,4.65-3.73L59,58.64a2.64,2.64,0,0,0-2.16-3.19,45.34,45.34,0,0,0-13.76,0,2.64,2.64,0,0,0-2.21,2.9l.26,2.31A4.77,4.77,0,0,0,45.9,65Z"/><line class="cls-14" x1="59" x2="69" y1="58.95" y2="58.95"/><circle class="cls-3" cx="68" cy="112.95" r="1.5"/><circle class="cls-3" cx="68" cy="119.95" r="1.5"/><path class="cls-11" d="M92.24,36a12.58,12.58,0,0,0-4.86-8L87,27.6c0-.21,0-.43,0-.65,0-7.73-10.3-14-23-14S41,19.22,41,27a7.73,7.73,0,0,0,.06,1h0A12.53,12.53,0,0,0,36.2,36L33.44,53.15l2.24,9.08s1-25.37,10.64-25.33a10.52,10.52,0,0,0,1.39-.07A31.71,31.71,0,0,0,64,41,31.76,31.76,0,0,0,80.35,36.8a12.54,12.54,0,0,0,1.76.1c9.68,0,10.65,25.33,10.65,25.33L95,53.15Z"/><path class="cls-15" d="M69.64,96a31.9,31.9,0,0,1-11.28,0C57.06,96,56,94.49,56,92.7V92a48.27,48.27,0,0,0,16,0v.75C72,94.49,70.94,96,69.64,96Z"/></svg>