<?xml version="1.0" encoding="iso-8859-1"?>
<!-- Uploaded to: SVG Repo, www.svgrepo.com, Generator: SVG Repo Mixer Tools -->
<svg height="800px" width="800px" version="1.1" id="Layer_1" xmlns="http://www.w3.org/2000/svg" xmlns:xlink="http://www.w3.org/1999/xlink" 
	 viewBox="0 0 505 505" xml:space="preserve">
<circle style="fill:#90DFAA;" cx="252.5" cy="252.5" r="252.5"/>
<circle style="fill:#2B3B4E;" cx="252.5" cy="410.3" r="38.4"/>
<path style="fill:#E6E9EE;" d="M193.6,299.3c13.5,12.1,21.3,29.3,21.3,47.4v12h75.2v-12c0-17.8,7.2-35.1,20.6-46.8
	c18.5-16.2,30.2-40,30.2-66.5c0-50.7-42.7-91.4-94.1-88.2c-43.3,2.8-78.7,37.5-82.2,80.7C162.1,255.1,173.8,281.6,193.6,299.3z"/>
<path style="fill:#ACB3BA;" d="M270.5,232.2c-7.3,0-13.7,3.3-18.1,8.4c-4.4-5.1-10.9-8.4-18.1-8.4c-13.2,0-23.9,10.7-23.9,23.9
	s10.7,23.9,23.9,23.9c4.5,0,8.7-1.3,12.4-3.5v98.1h11.8v-98c3.5,2.1,7.7,3.3,12.1,3.3c13.2,0,23.9-10.7,23.9-23.9
	C294.4,242.9,283.6,232.2,270.5,232.2z M234.2,268.2c-6.7,0-12.1-5.4-12.1-12.1c0-6.7,5.4-12.1,12.1-12.1c6.7,0,12.1,5.4,12.1,12.1
	C246.3,262.7,240.9,268.2,234.2,268.2z M270.5,268.2c-6.7,0-12.1-5.4-12.1-12.1c0-6.7,5.4-12.1,12.1-12.1s12.1,5.4,12.1,12.1
	C282.5,262.7,277.1,268.2,270.5,268.2z"/>
<path style="fill:#324A5E;" d="M297.3,358.7h-89.5c-0.9,0-1.7,0.8-1.7,1.7v58.2c0,1.5,1.2,2.7,2.7,2.7h87.6c1.5,0,2.7-1.2,2.7-2.7
	v-58.2C299,359.5,298.2,358.7,297.3,358.7z"/>
<g>
	<path style="fill:#FFFFFF;" d="M252.5,123.4L252.5,123.4c-4.1,0-7.4-3.3-7.4-7.4V91.2c0-4.1,3.3-7.4,7.4-7.4l0,0
		c4.1,0,7.4,3.3,7.4,7.4v24.9C259.9,120.1,256.6,123.4,252.5,123.4z"/>
	<path style="fill:#FFFFFF;" d="M362.2,233.1L362.2,233.1c0-4.1,3.3-7.4,7.4-7.4h24.9c4.1,0,7.4,3.3,7.4,7.4l0,0
		c0,4.1-3.3,7.4-7.4,7.4h-24.9C365.5,240.5,362.2,237.2,362.2,233.1z"/>
	<path style="fill:#FFFFFF;" d="M103.1,233.1L103.1,233.1c0-4.1,3.3-7.4,7.4-7.4h24.9c4.1,0,7.4,3.3,7.4,7.4l0,0
		c0,4.1-3.3,7.4-7.4,7.4h-24.9C106.4,240.5,103.1,237.2,103.1,233.1z"/>
	<path style="fill:#FFFFFF;" d="M330.1,155.6L330.1,155.6c-2.9-2.9-2.9-7.6,0-10.5l17.6-17.6c2.9-2.9,7.6-2.9,10.5,0l0,0
		c2.9,2.9,2.9,7.6,0,10.5l-17.7,17.6C337.7,158.5,333,158.5,330.1,155.6z"/>
	<path style="fill:#FFFFFF;" d="M146.9,338.8L146.9,338.8c-2.9-2.9-2.9-7.6,0-10.5l17.6-17.6c2.9-2.9,7.6-2.9,10.5,0l0,0
		c2.9,2.9,2.9,7.6,0,10.5l-17.6,17.6C154.4,341.7,149.8,341.7,146.9,338.8z"/>
	<path style="fill:#FFFFFF;" d="M330.1,310.7L330.1,310.7c2.9-2.9,7.6-2.9,10.5,0l17.6,17.6c2.9,2.9,2.9,7.6,0,10.5l0,0
		c-2.9,2.9-7.6,2.9-10.5,0l-17.6-17.6C327.2,318.3,327.2,313.6,330.1,310.7z"/>
	<path style="fill:#FFFFFF;" d="M146.9,127.5L146.9,127.5c2.9-2.9,7.6-2.9,10.5,0l17.6,17.6c2.9,2.9,2.9,7.6,0,10.5l0,0
		c-2.9,2.9-7.6,2.9-10.5,0L146.9,138C144,135.1,144,130.4,146.9,127.5z"/>
</g>
</svg>