<?xml version="1.0" encoding="iso-8859-1"?>
<!-- Uploaded to: SVG Repo, www.svgrepo.com, Generator: SVG Repo Mixer Tools -->
<svg height="800px" width="800px" version="1.1" id="Layer_1" xmlns="http://www.w3.org/2000/svg" xmlns:xlink="http://www.w3.org/1999/xlink" 
	 viewBox="0 0 512 512" xml:space="preserve">
<path d="M509.561,298.837l-22.271-22.554c-3.284-3.326-8.639-3.359-11.96-0.076c-3.323,3.282-3.358,8.637-0.076,11.96l8.052,8.153
	H8.458c-4.672,0-8.458,3.786-8.458,8.458s3.786,8.458,8.458,8.458h474.846l-8.052,8.153c-3.282,3.323-3.248,8.679,0.076,11.96
	c1.649,1.627,3.795,2.439,5.943,2.439c2.182,0,4.363-0.839,6.019-2.515l22.271-22.554
	C512.813,307.427,512.813,302.129,509.561,298.837z"/>
<g>
	<path style="fill:#3FC8F2;" d="M369.33,363.194c-0.444,0-0.893-0.035-1.345-0.107c-4.612-0.737-7.753-5.075-7.017-9.688
		c1.298-8.118,2.562-16.521,3.785-24.647c4.82-32.044,9.804-65.178,18.237-90.002c3.856-11.349,15.588-45.889,45.989-45.889
		c4.672,0,8.458,3.786,8.458,8.458s-3.786,8.458-8.458,8.458c-29.223,0-38.932,64.544-47.499,121.49
		c-1.228,8.165-2.498,16.608-3.808,24.804C377.008,360.231,373.414,363.194,369.33,363.194z"/>
	<path style="fill:#3FC8F2;" d="M315.774,469.205c-44.006,0-55.921-89.387-69.718-192.887
		c-11.385-85.414-25.555-191.716-60.274-191.716c-25.793,0-39.87,51.573-49.253,96.504c-0.955,4.574-5.434,7.499-10.008,6.551
		c-4.573-0.955-7.505-5.436-6.551-10.008c11.927-57.112,28.155-109.962,65.811-109.962c49.531,0,62.893,100.255,77.041,206.396
		c6.081,45.612,12.367,92.777,21.424,126.915c6.209,23.399,16.717,51.291,31.527,51.291c17.815,0,30.064-21.034,39.718-68.202
		c0.936-4.577,5.403-7.524,9.982-6.59c4.576,0.936,7.526,5.405,6.59,9.982C364.276,425.529,350.841,469.205,315.774,469.205z"/>
	<path style="fill:#3FC8F2;" d="M72.846,283.45c-3.285,0-6.233-0.329-8.663-0.849c-4.568-0.978-7.478-5.474-6.5-10.041
		c0.974-4.551,5.445-7.46,9.99-6.509c0.248,0.046,6.756,1.251,14.444-0.81c9.952-2.665,17.473-9.541,22.353-20.438
		c3.285-7.333,6.387-21.918,9.037-35.012c0.926-4.578,5.389-7.541,9.967-6.612c4.578,0.926,7.54,5.388,6.612,9.967
		c-3.611,17.846-6.573,30.523-10.177,38.572C108.61,276.942,87.436,283.45,72.846,283.45z"/>
</g>
<path d="M65.903,127.6c-4.672,0-8.458,3.786-8.458,8.458v367.484c0,4.672,3.786,8.458,8.458,8.458s8.458-3.786,8.458-8.458V136.058
	C74.36,131.386,70.574,127.6,65.903,127.6z"/>
<path d="M94.399,24.711L71.845,2.44c-3.293-3.253-8.592-3.253-11.885,0L37.406,24.711c-3.323,3.282-3.358,8.637-0.076,11.96
	c3.283,3.324,8.638,3.358,11.96,0.076l8.153-8.052v73.53c0,4.672,3.786,8.458,8.458,8.458s8.458-3.786,8.458-8.458V28.696
	l8.153,8.052c1.649,1.627,3.795,2.439,5.943,2.439c2.182,0,4.363-0.839,6.019-2.515C97.757,33.348,97.723,27.993,94.399,24.711z"/>
</svg>