<?xml version="1.0" encoding="utf-8"?>
<!-- Generator: Adobe Illustrator 26.1.0, SVG Export Plug-In . SVG Version: 6.00 Build 0)  -->
<svg version="1.1" id="Layer_1" xmlns="http://www.w3.org/2000/svg" xmlns:xlink="http://www.w3.org/1999/xlink" x="0px" y="0px"
	 viewBox="0 0 100 100" style="enable-background:new 0 0 100 100;" xml:space="preserve">
<style type="text/css">
	.st0{fill:#8597C6;}
	.st1{clip-path:url(#SVGID_00000170239714396686767590000013539737742404078740_);}
	.st2{fill-rule:evenodd;clip-rule:evenodd;fill:#F5BE92;}
	.st3{fill-rule:evenodd;clip-rule:evenodd;fill:#474748;}
	.st4{fill-rule:evenodd;clip-rule:evenodd;fill:#F0F0F0;}
	.st5{fill:#474748;}
	.st6{clip-path:url(#SVGID_00000096019341400357528830000006413479208603504005_);}
	.st7{fill:#E75E51;stroke:#E75E51;stroke-width:1.1223;stroke-linecap:round;stroke-linejoin:round;stroke-miterlimit:10;}
</style>
<g>
	<ellipse transform="matrix(2.852025e-03 -1 1 2.852025e-03 -0.1423 99.8573)" class="st0" cx="50" cy="50" rx="45" ry="45"/>
	<g>
		<defs>
			<ellipse id="SVGID_1_" transform="matrix(2.863496e-03 -1 1 2.863496e-03 -0.1431 99.8565)" cx="50" cy="50" rx="45" ry="45"/>
		</defs>
		<clipPath id="SVGID_00000103979205603754366080000000292076516225549186_">
			<use xlink:href="#SVGID_1_"  style="overflow:visible;"/>
		</clipPath>
		<g style="clip-path:url(#SVGID_00000103979205603754366080000000292076516225549186_);">
			<path class="st2" d="M31.9,39.1c1.2-0.4,2.8,1,3.5,3.2c0.7,2.2,0.3,4.2-1,4.6c-1.2,0.4-2.8-1-3.5-3.2
				C30.2,41.6,30.6,39.5,31.9,39.1z"/>
			<path class="st2" d="M68.3,39.1c-1.2-0.4-2.8,1-3.5,3.2c-0.7,2.2-0.3,4.2,1,4.6c1.2,0.4,2.8-1,3.5-3.2
				C69.9,41.6,69.5,39.5,68.3,39.1z"/>
			<path class="st3" d="M61.9,22.1c3.5,0.6,5.4,2.9,6.2,6.2c2.1,8.4-2.3,26.7-17.9,26.9c-8,0.1-13.8-1.9-15.9-8.4
				c-2.1-6.5-3-17,1.6-22.8C41.7,16.6,53.8,16.5,61.9,22.1z"/>
			<path class="st4" d="M43.5,65.1c-14.6,6.4-18.9,9.8-20.7,11.3c-2.7,2.4-4.2,11.4-5.8,18.9H50h32.9c-1.6-7.5-3-16.5-5.6-18.9
				c-1.7-1.5-5.9-4.8-20.5-11.2L43.5,65.1z"/>
			<path class="st2" d="M43,52.4v10.8v6.5c3.9,4.6,10.2,4.8,14.1,0v-6.5V52.4C57.2,43.7,43,43.7,43,52.4z"/>
			<path class="st2" d="M50.1,23.4c-23.7,0-15.2,30.9-13.6,33.2c1.7,2.5,9.8,6.9,13.6,6.9c3.8,0,11.9-5,13.6-7.5
				C65.3,53.8,73.8,23.4,50.1,23.4z"/>
			<g>
				<path class="st5" d="M33.7,36c0-0.2,0-0.5,0.1-0.7c0.1-0.5,0.2-1.1,0.4-1.8c0.2-0.6,0.4-1.3,0.6-2c0.2-0.7,0.4-1.3,0.5-1.9
					c0.1-0.6,0.2-1.2,0.3-1.6c0-0.2,0-0.5,0-0.6c0-0.2,0-0.4,0-0.5c0-0.3,0-0.4,0-0.4h1.7l0.2-0.9c0,0,0.4,0.1,1,0.3
					c0.2,0.1,0.5,0.2,0.8,0.2l0-1.3c0,0,0.3,0,0.7,0.1c0.2,0,0.5,0,0.8,0.1c0.3,0,0.7,0.1,1,0.1c1.5,0.2,3.5,0.6,5.4,1.1
					c1.9,0.5,3.8,0.9,5.3,1.2c0.4,0.1,0.7,0.1,1,0.1c0.3,0,0.6,0.1,0.8,0.1c0.4,0,0.7,0.1,0.7,0.1s-0.2,0-0.7,0c-0.2,0-0.5,0-0.8,0
					c-0.3,0-0.6,0-1,0c-1.5,0-3.5-0.2-5.5-0.4c-1.9-0.2-3.9-0.4-5.3-0.3c2.1,0.8,4.6,1.8,7.2,2.7c1.4,0.4,2.9,0.8,4.3,0.9
					c0.7,0.1,1.4,0.1,2,0.1c0.6,0,1.3,0,1.8-0.1c0.6,0,1.1-0.1,1.5-0.2c0.5-0.1,0.8-0.2,1.2-0.2c0.6-0.2,1-0.3,1-0.3s-0.4,0.1-1,0.3
					c-0.3,0.1-0.7,0.3-1.2,0.4c-0.5,0.1-1,0.3-1.5,0.4c-0.6,0.1-1.2,0.2-1.8,0.2c-0.7,0.1-1.4,0.1-2.1,0.1c-1.5-0.1-3-0.3-4.5-0.6
					c-3-0.7-5.9-1.6-8.1-2.2c-0.5-0.1-1-0.3-1.5-0.4c-0.4-0.1-0.8-0.2-1.1-0.2c-0.1,0-0.3-0.1-0.4-0.1c0,0.2-0.1,0.3-0.1,0.5
					c-0.1,0.6-0.4,1.2-0.7,1.8c-0.3,0.6-0.6,1.3-1,1.9c-0.7,1.2-1.3,2.4-1.6,3.4C34,35.6,34,35.8,33.9,36c-0.1,0.2-0.1,0.4-0.1,0.5
					c-0.1,0.3-0.1,0.5-0.1,0.5s0-0.2,0-0.5C33.7,36.4,33.7,36.2,33.7,36z"/>
			</g>
			<g>
				<path class="st3" d="M66.2,32.9c-0.1-0.3-0.3-0.7-0.6-1.1c-0.1-0.2-0.2-0.5-0.4-0.7c-0.2-0.2-0.3-0.5-0.5-0.7
					c-0.2-0.4-0.6-0.8-0.9-1.1c-0.3-0.7-0.6-1.3-0.7-1.8C63,27,63,26.7,63,26.5c0-0.1,0.1-0.2,0.1-0.2h-2.5
					c-0.8-0.6-1.7-1.1-2.6-1.6c-1.4-0.8-3-1.4-4.4-2c-1.5-0.5-2.9-0.9-4.1-1.2c-0.6-0.1-1.2-0.2-1.7-0.3c-0.5-0.1-0.9-0.2-1.3-0.2
					C45.7,21,45.3,21,45.3,21v1.9c-0.4-0.1-0.8-0.1-1.2-0.2c-1.1-0.2-2.1-0.2-2.8-0.3c-0.7-0.1-1.1-0.1-1.1-0.1V26c0,0,0,0,0.1,0
					l-0.4,2.3c0,0,0.2,0,0.6,0.1c0.4,0,1,0.2,1.8,0.3c0.8,0.2,1.7,0.5,2.7,0.7c0.3,0.1,0.5,0.1,0.8,0.2c0.3,0.1,0.6,0.1,0.8,0.2
					c0.6,0.1,1.1,0.2,1.7,0.3c2.3,0.3,4.6,0.1,6.2,0c1.7-0.1,2.8-0.3,2.8-0.3s-1.1-0.1-2.8-0.3c-1.6-0.2-3.8-0.6-5.8-1.2
					c-0.5-0.2-1-0.4-1.5-0.6c-0.1-0.1-0.3-0.1-0.4-0.2c1.1,0.1,2.2,0.3,3.3,0.4c2.4,0.2,4.8,0.4,6.6,0.5c1.8,0.1,3,0.1,3,0.1
					s-1.2-0.3-2.9-0.7c-1.8-0.4-4.1-1.1-6.4-1.7c-0.1,0-0.3-0.1-0.4-0.1c0.6,0.1,1.2,0.1,1.7,0.2c1.5,0.2,2.9,0.5,4.2,0.8
					c1.3,0.4,2.6,0.7,3.6,1.1c0.1,0,0.1,0,0.1,0.1c0.1,0.3,0.3,0.5,0.5,0.8c0.4,0.6,0.9,1.1,1.3,1.7c0.2,0.3,0.4,0.6,0.6,0.9
					c0.2,0.3,0.4,0.6,0.6,1c0.8,1.3,1.4,2.8,1.7,3.9c0.1,0.3,0.1,0.6,0.2,0.8c0,0.2,0.1,0.5,0.1,0.6c0.1,0.3,0.1,0.5,0.1,0.5
					s0-0.2,0.1-0.6c0-0.2,0-0.4,0.1-0.6c0-0.2,0-0.5,0-0.8c0-1.2-0.1-2.9-0.6-4.6c-0.1-0.3-0.2-0.6-0.3-0.9c0.2,0.2,0.3,0.3,0.5,0.5
					c0.2,0.2,0.3,0.4,0.5,0.6c0.3,0.4,0.5,0.7,0.7,1c0.3,0.6,0.5,0.9,0.5,0.9S66.5,33.6,66.2,32.9z"/>
				<path class="st3" d="M36,26.8c0,0.1,0,0.3,0,0.5c0,0.2,0,0.4-0.1,0.7c-0.1,0.6-0.4,1.3-0.6,2.3c-0.1,0.5-0.2,0.9-0.3,1.4
					c-0.1,0.5-0.1,1-0.2,1.4c-0.2,1.9-0.1,3.8,0.1,5.2c0.1,0.7,0.1,1.3,0.2,1.7c0,0.4,0.1,0.6,0.1,0.6s0-0.2,0.1-0.6
					c0-0.4,0.1-1,0.2-1.7c0.2-1.4,0.6-3.2,1.2-4.9c0.2-0.4,0.3-0.8,0.5-1.2c0.2-0.4,0.4-0.8,0.5-1.1c0.4-0.7,0.9-1.4,1.2-2.1
					c0.2-0.3,0.3-0.7,0.5-1c0.1-0.3,0.2-0.7,0.3-1c0.1-0.6,0.1-1,0.1-1l-3.7,0.3C35.9,26.4,35.9,26.6,36,26.8z"/>
			</g>
			<g>
				<path class="st5" d="M48,52.6c-0.2,0-0.5,0.1-0.8,0.1c-0.3,0-0.6,0-0.8,0c-0.3,0-0.6-0.1-0.8-0.2c-0.2-0.1-0.4-0.2-0.5-0.4
					C45,52.1,45,52,45,52c0,0-0.1-0.1-0.1-0.2c-0.1-0.1-0.1-0.2-0.1-0.4c0-0.3,0-0.5,0.1-0.6c0.1-0.2,0.3-0.3,0.5-0.3
					c0.2-0.1,0.5-0.1,0.7,0c0.2,0,0.4,0.1,0.5,0.2c0.1,0.1,0.2,0.2,0.1,0.4c0,0.1-0.1,0.2-0.1,0.3c0,0.1-0.1,0.1-0.1,0.1
					s0,0,0.1-0.1c0.1-0.1,0.1-0.1,0.2-0.3c0.1-0.1,0.1-0.4,0-0.6c-0.1-0.2-0.4-0.4-0.6-0.5c-0.3-0.1-0.6-0.2-0.9-0.1
					c-0.3,0-0.7,0.2-1,0.5c-0.3,0.3-0.4,0.8-0.3,1.2c0,0.2,0.1,0.4,0.1,0.6c0,0.1,0.1,0.1,0.1,0.2l0.2,0.3c0.2,0.4,0.6,0.7,1,0.8
					c0.4,0.1,0.8,0.2,1.1,0.1c0.3,0,0.7-0.1,1-0.2c0.3-0.1,0.6-0.2,0.8-0.3c0.5-0.2,0.8-0.4,1.1-0.6c0.1-0.1,0.2-0.2,0.3-0.2
					c0.1,0,0.1-0.1,0.1-0.1s-0.2,0-0.5,0.1C48.9,52.4,48.5,52.5,48,52.6z"/>
			</g>
			<g>
				<path class="st5" d="M53.1,52.6c0.2,0,0.5,0.1,0.8,0.1c0.3,0,0.6,0,0.8,0c0.3,0,0.6-0.1,0.8-0.2c0.2-0.1,0.4-0.2,0.5-0.4
					c0-0.1,0.1-0.1,0.1-0.2c0,0,0.1-0.1,0.1-0.2c0.1-0.1,0.1-0.2,0.1-0.4c0-0.3,0-0.5-0.1-0.6c-0.1-0.2-0.3-0.3-0.5-0.3
					c-0.2-0.1-0.5-0.1-0.7,0c-0.2,0-0.4,0.1-0.5,0.2c-0.1,0.1-0.2,0.2-0.1,0.4c0,0.1,0.1,0.2,0.1,0.3c0,0.1,0.1,0.1,0.1,0.1
					s0,0-0.1-0.1c-0.1-0.1-0.1-0.1-0.2-0.3c-0.1-0.1-0.1-0.4,0-0.6c0.1-0.2,0.4-0.4,0.6-0.5c0.3-0.1,0.6-0.2,0.9-0.1
					c0.3,0,0.7,0.2,1,0.5c0.3,0.3,0.4,0.8,0.3,1.2c0,0.2-0.1,0.4-0.1,0.6c0,0.1-0.1,0.1-0.1,0.2l-0.2,0.3c-0.2,0.4-0.6,0.7-1,0.8
					c-0.4,0.1-0.8,0.2-1.1,0.1c-0.3,0-0.7-0.1-1-0.2c-0.3-0.1-0.6-0.2-0.8-0.3c-0.5-0.2-0.8-0.4-1.1-0.6c-0.1-0.1-0.2-0.2-0.3-0.2
					c-0.1,0-0.1-0.1-0.1-0.1s0.2,0,0.5,0.1C52.2,52.4,52.6,52.5,53.1,52.6z"/>
			</g>
			<g>
				<path class="st5" d="M50.8,58.1c1.1,0.4,2.8,1.4,2.2,2.5c-0.3,0.5-0.6,1.1-0.8,1.7c-0.4,0.8-0.9,1.7-1.4,2.5c0,0-0.5,0-0.5,0
					c-0.6-0.8-1-1.6-1.4-2.5c-0.2-0.5-0.5-1.2-0.8-1.7c-0.6-1.1,1.2-2.1,2.2-2.5C50.3,58.1,50.8,58.1,50.8,58.1L50.8,58.1z"/>
			</g>
			<g>
				<defs>
					<path id="SVGID_00000157996402772095912420000003731445409479218820_" d="M43.5,65.1c-14.6,6.4-18.9,9.8-20.7,11.3
						c-2.7,2.4-4.2,11.4-5.8,18.9H50h32.9c-1.6-7.5-3-16.5-5.6-18.9c-1.7-1.5-5.9-4.8-20.5-11.2L43.5,65.1z"/>
				</defs>
				<clipPath id="SVGID_00000147921326325624745830000017838026663527784834_">
					<use xlink:href="#SVGID_00000157996402772095912420000003731445409479218820_"  style="overflow:visible;"/>
				</clipPath>
				<g style="clip-path:url(#SVGID_00000147921326325624745830000017838026663527784834_);">
					<rect x="30.7" y="68.6" class="st7" width="3.5" height="26.1"/>
					<rect x="65.6" y="68.6" class="st7" width="3.5" height="26.1"/>
				</g>
			</g>
		</g>
	</g>
</g>
</svg>
