<?xml version="1.0" encoding="utf-8"?>
<!-- Generator: Adobe Illustrator 26.1.0, SVG Export Plug-In . SVG Version: 6.00 Build 0)  -->
<svg version="1.1" id="Layer_1" xmlns="http://www.w3.org/2000/svg" xmlns:xlink="http://www.w3.org/1999/xlink" x="0px" y="0px"
	 viewBox="0 0 100 100" style="enable-background:new 0 0 100 100;" xml:space="preserve">
<style type="text/css">
	.st0{clip-path:url(#SVGID_00000116936297718209046350000013229422136781753777_);}
	.st1{fill:#F8D9DE;}
	.st2{fill:#CDA0A5;}
	.st3{fill:none;stroke:#FFFFFF;stroke-width:0;stroke-linecap:round;stroke-linejoin:round;}
	.st4{fill:#FFFFFF;}
	.st5{fill:#CB3525;}
	.st6{fill:#0A1F2D;}
	.st7{fill:none;stroke:#0A1F2D;stroke-width:0;stroke-linecap:round;stroke-linejoin:round;}
</style>
<g>
	<defs>
		<path id="SVGID_1_" d="M95,50c0,24.85-20.15,45-45,45C25.15,95,5,74.85,5,50C5,25.15,25.15,5,50,5C74.85,5,95,25.15,95,50z"/>
	</defs>
	<use xlink:href="#SVGID_1_"  style="overflow:visible;fill:#8EC6E7;"/>
	<clipPath id="SVGID_00000121978934227725344700000007341391057951954874_">
		<use xlink:href="#SVGID_1_"  style="overflow:visible;"/>
	</clipPath>
	<g style="clip-path:url(#SVGID_00000121978934227725344700000007341391057951954874_);">
		<path class="st1" d="M62.67,75.64c-1.65-1.18-3.47-2.14-5.42-2.81C59.2,73.51,61.02,74.46,62.67,75.64L62.67,75.64z"/>
		<path class="st1" d="M43.37,72.83c-1.95,0.68-3.77,1.63-5.42,2.81h0C39.59,74.46,41.41,73.51,43.37,72.83z"/>
		<path class="st1" d="M55.42,72.29c-0.18-0.04-0.36-0.08-0.54-0.12l0,0C55.06,72.21,55.24,72.25,55.42,72.29z"/>
		<path class="st1" d="M45.74,72.17c-0.18,0.04-0.36,0.08-0.54,0.12C45.37,72.25,45.55,72.21,45.74,72.17L45.74,72.17z"/>
		<path class="st1" d="M55.5,72.31c0.28,0.07,0.56,0.15,0.84,0.23C56.06,72.46,55.78,72.38,55.5,72.31z"/>
		<path class="st1" d="M69.13,56.3c0.07,0.01,0.14,0.01,0.22,0.01c1.77,0,3.21-1.44,3.21-3.21c0-1.05-0.51-1.98-1.29-2.57
			c-0.48-0.36-1.07-0.59-1.72-0.64l-2.67,1.84l-0.21-1.63c-6.62,0.38-23.01,0.67-32.11-4.9l-0.85,6.53l-2.67-1.84
			c-0.61,0.04-1.18,0.25-1.65,0.59c-0.82,0.58-1.35,1.54-1.35,2.62c0,1.78,1.44,3.21,3.21,3.21c0.07,0,0.14-0.01,0.2-0.01
			c1.24,8.62,7.57,12.88,15.62,13.75v1.14l3.22,1.86l3.22-1.86v-1.14C61.57,69.18,67.89,64.92,69.13,56.3z M45.33,63.22h9.95
			C50.43,66.68,45.33,63.22,45.33,63.22z"/>
		<path class="st1" d="M44.27,72.54c0.28-0.08,0.56-0.16,0.84-0.23C44.83,72.38,44.55,72.46,44.27,72.54z"/>
		<path class="st1" d="M43.37,72.83c0.29-0.1,0.58-0.19,0.87-0.28C43.95,72.64,43.66,72.73,43.37,72.83z"/>
		<path class="st1" d="M56.37,72.55c0.29,0.09,0.58,0.18,0.87,0.28C56.95,72.73,56.66,72.64,56.37,72.55z"/>
		<path class="st2" d="M45.33,63.22c0,0,5.09,3.46,9.95,0H45.33z"/>
		<path class="st3" d="M71.53,95.53c0,0,0,0.21,0,0.19"/>
		<path class="st3" d="M29.08,95.84c0,0,0-0.08,0-0.3"/>
		<path class="st4" d="M54.87,76.94l-4.57-2.64l-4.57,2.64v-4.77c-0.18,0.04-0.36,0.08-0.54,0.12c-0.03,0.01-0.05,0.02-0.08,0.02
			c-0.28,0.07-0.56,0.15-0.84,0.23c-0.01,0-0.02,0.01-0.03,0.01c-0.29,0.09-0.58,0.18-0.87,0.28c0,0,0,0-0.01,0
			c-1.95,0.68-3.77,1.63-5.42,2.81l11.48,19.89H29.08c0,0,0,0,0,0h42.46c0,0,0,0,0,0H51.18l11.48-19.89
			c-1.65-1.18-3.47-2.14-5.42-2.81c0,0,0,0-0.01,0c-0.29-0.1-0.58-0.19-0.87-0.28c-0.01,0-0.02-0.01-0.03-0.01
			c-0.28-0.08-0.56-0.16-0.84-0.23c-0.03-0.01-0.05-0.02-0.08-0.02c-0.18-0.04-0.36-0.08-0.54-0.12V76.94z"/>
		<path class="st5" d="M33.72,51.74l0.85-6.53c9.09,5.57,25.49,5.28,32.11,4.9l0.21,1.63l2.67-1.84c0.64,0.04,1.23,0.27,1.72,0.64
			c0.22-0.91,0.36-2.12,0.26-3.62c-0.74-10.7-6.13-17.64-14.04-20.16c-5.43-1.92-11.6-2.21-15.37-2.16c-0.06,0-0.12,0-0.19,0
			c-5.72,0-14.27,0.15-14.27,0.15s-0.93,7.18,0.97,13.09c0,0,0,0,0,0c0.29,1.1,0.74,2.1,1.32,3.02c-0.57,1.92-0.88,3.95-0.88,6.06
			c0,1.52,0.14,2.69,0.33,3.57c0.47-0.34,1.04-0.55,1.65-0.59L33.72,51.74z"/>
		<polygon class="st6" points="47.09,71.19 45.74,70.41 45.74,72.17 45.74,72.17 45.74,76.94 50.31,74.3 54.87,76.94 54.87,72.17 
			54.87,72.17 54.87,70.41 53.52,71.19 50.31,73.05 		"/>
		<path class="st7" d="M29.04,95.53c0,0.22,0,0.3,0,0.31"/>
		<path class="st7" d="M71.57,95.73c0,0.01,0-0.19,0-0.19"/>
		<path class="st6" d="M37.95,75.64L37.95,75.64l-0.02-0.03c-5.38,3.86-8.88,10.16-8.88,17.28c0,1.5,0,2.27,0,2.64h0.03h20.35
			L37.95,75.64z"/>
		<path class="st6" d="M51.18,95.53h20.35h0.03c0-0.3,0-1.03,0-2.64c0-7.12-3.51-13.42-8.88-17.28l-0.02,0.03l0,0L51.18,95.53z"/>
	</g>
</g>
</svg>
