<?xml version="1.0" encoding="utf-8"?>
<!-- Generator: Adobe Illustrator 26.1.0, SVG Export Plug-In . SVG Version: 6.00 Build 0)  -->
<svg version="1.1" id="Layer_1" xmlns="http://www.w3.org/2000/svg" xmlns:xlink="http://www.w3.org/1999/xlink" x="0px" y="0px"
	 viewBox="0 0 100 100" style="enable-background:new 0 0 100 100;" xml:space="preserve">
<style type="text/css">
	.st0{fill:#D6D6D6;}
	.st1{opacity:0.1;}
	.st2{clip-path:url(#SVGID_00000125584990930435156470000005123643745685768870_);}
	.st3{fill:#FEE1B9;}
	.st4{fill:#FFD9AC;}
	.st5{fill:#8B5854;}
	.st6{fill:#5E3531;}
	.st7{fill:#3886C6;}
	.st8{fill:#24578C;}
	.st9{fill:#FCBD18;}
	.st10{fill:#F2AE16;}
	.st11{fill:#FFFFFF;}
	.st12{fill:#726658;}
</style>
<g id="ava_03_00000016060657965465883860000007631351606005932446_">
	<g>
		<g>
			<path class="st0" d="M95,50C95,25.1,74.9,5,50,5C25.1,5,5,25.1,5,50c0,24.9,20.1,45,45,45C74.9,95,95,74.9,95,50z"/>
		</g>
	</g>
	<path class="st1" d="M62.3,21l-3,3l-1.8-1.8L32.4,47.4l10.3,10.3l-2,2l9.7,9.7l-5.2,5.2l18.4,18.4c17.2-5.4,29.9-20.8,31.4-39.4
		L62.3,21z"/>
	<g>
		<defs>
			<path id="SVGID_1_" d="M95,50C95,25.1,74.9,5,50,5C25.1,5,5,25.1,5,50c0,24.9,20.1,45,45,45C74.9,95,95,74.9,95,50z"/>
		</defs>
		<clipPath id="SVGID_00000175301286565273214910000007235363116580927919_">
			<use xlink:href="#SVGID_1_"  style="overflow:visible;"/>
		</clipPath>
		<g style="clip-path:url(#SVGID_00000175301286565273214910000007235363116580927919_);">
			<polygon class="st3" points="57.3,74.2 50,95 42.9,74.2 42.9,58.1 57.3,58.1 			"/>
			<path class="st3" d="M30.8,44.2c-0.2-2.4,1.1-4.5,2.9-4.8c1.9-0.3,3.6,1.5,3.8,3.9c0.2,2.4-1.1,4.5-2.9,4.8
				C32.7,48.3,31,46.6,30.8,44.2z"/>
			<g>
				<g>
					<g>
						<g>
							<path class="st4" d="M65.3,48c-1.8-0.2-3.1-2.3-2.8-4.7c0.3-2.4,2.1-4.2,3.9-4c1.8,0.2,3.1,2.3,2.8,4.7
								C68.8,46.5,67.1,48.3,65.3,48z"/>
						</g>
					</g>
					<g>
						<g>
							<path class="st3" d="M50.1,24.8c0,0-15.2,1.9-15.2,10c0,0,0,11,0,14.2c0,3.2,5.2,12.4,9.8,12.7c2.3,0.2,5.4,0.5,5.4,0.5
								s3.1-0.3,5.4-0.5c4.7-0.4,9.8-9.5,9.8-12.7c0-3.2,0-14.2,0-14.2C65.4,26.7,50.1,24.8,50.1,24.8z"/>
						</g>
						<g>
							<path class="st4" d="M65.3,34.9c0,0,0,11,0,14.2c0,3.2-5.2,12.4-9.8,12.7c-2.3,0.2-5.4,0.5-5.4,0.5V24.8
								C50.1,24.8,65.3,26.7,65.3,34.9z"/>
						</g>
					</g>
				</g>
			</g>
			<path class="st3" d="M49.9,95V69.4c0,0-5.2-1.4-6.4-5.8c-0.6-2.1-0.6-1.7-0.6,0.5c0,6.6-15.7,3.7-19.9,8.8
				c-3.3,4.6-5.6,22-5.6,22H49.9z"/>
			<path class="st4" d="M50.1,95V68.1c0,0,5.2-0.1,6.2-2.6c0.4-0.9,1-3.4,1-1.2c0,6.6,15.5,3.7,19.7,8.8c3.3,4.6,5.6,22,5.6,22H50.1
				z"/>
			<path class="st5" d="M31.8,33.4v7c0.5-0.6,1.1-1,1.9-1.1c0.6-0.1,1.1,0,1.6,0.3v-5.3H50V17C32.6,17,31.8,33.4,31.8,33.4z"/>
			<path class="st6" d="M68.3,33.4v7c-0.5-0.6-1.1-1-1.9-1.1c-0.6-0.1-1.1,0-1.6,0.3v-5.3H50V17C67.4,17,68.3,33.4,68.3,33.4z"/>
			<polygon class="st4" points="50.1,94.7 57.3,74.2 57.3,58.1 50.1,58.1 			"/>
			<path class="st7" d="M71.3,86h10.2c-1-5.7-2.3-12.2-3.9-14.2c-3.3-4.2-18.4-4.7-18.4-4.7l0,0c-0.6,3.6-4.5,6.4-9.1,6.4
				c-4.6,0-8.5-2.8-9.1-6.4l0,0c0,0-15.1,0.6-18.4,4.7c-1.6,2-2.9,8.5-3.9,14.2H29v9c15.4,0,21,0,21.1,0c0,0,0,0,0,0
				c0.1,0,5.8,0,21.2,0V86z"/>
			<path class="st8" d="M50.1,95c0.1,0,5.8,0,21.2,0v-9h10.2c-1-5.7-2.3-12.2-3.9-14.2c-3.3-4.2-18.4-4.7-18.4-4.7l0,0
				c-0.6,3.6-4.5,6.4-9.1,6.4L50.1,95C50.1,95,50.1,95,50.1,95z"/>
			<path class="st9" d="M50.1,76.1c6.3,0,11.5-3.9,12.3-8.8c-1.9-0.2-3.2-0.2-3.2-0.2l0,0c-0.6,3.6-4.5,6.4-9.1,6.4
				c-4.6,0-8.5-2.8-9.1-6.4l0,0c0,0-1.3,0-3.2,0.2C38.6,72.3,43.8,76.1,50.1,76.1z"/>
			<path class="st9" d="M18.7,86H29v-2.9h-9.8C19,84.1,18.9,85.1,18.7,86z"/>
			<path class="st10" d="M81,83.1h-9.7V86h10.2C81.3,85.1,81.2,84.1,81,83.1z"/>
			<path class="st10" d="M62.4,67.3c-1.9-0.2-3.2-0.2-3.2-0.2l0,0c-0.6,3.6-4.5,6.4-9.1,6.4v2.6C56.4,76.1,61.6,72.3,62.4,67.3z"/>
			<g>
				<path class="st11" d="M49.9,55.7c2.1,0,3.9-1.5,3.9-3.4h-7.7C46.1,54.2,47.8,55.7,49.9,55.7z"/>
				<path class="st12" d="M59,43.2c0-0.7-0.6-1.3-1.3-1.3s-1.3,0.6-1.3,1.3c0,0.7,0.6,1.3,1.3,1.3S59,43.9,59,43.2z"/>
				<path class="st12" d="M43.6,42.7c0-0.7-0.6-1.3-1.3-1.3c-0.7,0-1.3,0.6-1.3,1.3c0,0.7,0.6,1.3,1.3,1.3
					C43,44,43.6,43.4,43.6,42.7z"/>
				<g>
					<g>
						<g>
							<path class="st6" d="M45,40.2c-0.1,0-0.2,0-0.2-0.1c-0.5-0.6-1.4-1-2.5-1c-1.1,0-2,0.4-2.5,1c-0.1,0.1-0.3,0.1-0.4,0.1
								c-0.1-0.1-0.1-0.3-0.1-0.4c0.6-0.8,1.7-1.2,2.9-1.2c1.2,0,2.3,0.5,2.9,1.2c0.1,0.1,0.1,0.3-0.1,0.4
								C45.1,40.1,45,40.2,45,40.2z"/>
						</g>
					</g>
				</g>
				<g>
					<g>
						<g>
							<path class="st6" d="M60.4,40.2c-0.1,0-0.2,0-0.2-0.1c-0.5-0.6-1.4-1-2.5-1c-1.1,0-2,0.4-2.5,1c-0.1,0.1-0.3,0.1-0.4,0.1
								c-0.1-0.1-0.1-0.3-0.1-0.4c0.6-0.8,1.7-1.2,2.9-1.2c1.2,0,2.3,0.5,2.9,1.2c0.1,0.1,0.1,0.3-0.1,0.4
								C60.5,40.1,60.4,40.2,60.4,40.2z"/>
						</g>
					</g>
				</g>
			</g>
		</g>
	</g>
</g>
</svg>
