<?xml version="1.0" encoding="utf-8"?>
<!-- Generator: Adobe Illustrator 26.1.0, SVG Export Plug-In . SVG Version: 6.00 Build 0)  -->
<svg version="1.1" id="Layer_1" xmlns="http://www.w3.org/2000/svg" xmlns:xlink="http://www.w3.org/1999/xlink" x="0px" y="0px"
	 viewBox="0 0 100 100" style="enable-background:new 0 0 100 100;" xml:space="preserve">
<style type="text/css">
	.st0{clip-path:url(#SVGID_00000055670927244062831450000006127498226990572463_);}
	.st1{fill:none;}
	.st2{fill:none;stroke:#F8D9DE;stroke-width:0;stroke-linecap:round;stroke-linejoin:round;}
	.st3{fill:#F8D9DE;}
	.st4{fill:#CDA0A5;}
	.st5{fill:#0A1F2D;}
	.st6{fill:none;stroke:#71CFEA;stroke-width:0;stroke-linecap:round;stroke-linejoin:round;}
	.st7{fill:#71CFEA;}
</style>
<g>
	<defs>
		<path id="SVGID_1_" d="M95,50c0,24.85-20.15,45-45,45C25.15,95,5,74.85,5,50S25.15,5,50,5C74.85,5,95,25.15,95,50z"/>
	</defs>
	<use xlink:href="#SVGID_1_"  style="overflow:visible;fill:#FFBE3B;"/>
	<clipPath id="SVGID_00000088121164178234946950000013253166062428424362_">
		<use xlink:href="#SVGID_1_"  style="overflow:visible;"/>
	</clipPath>
	<g style="clip-path:url(#SVGID_00000088121164178234946950000013253166062428424362_);">
		<path class="st1" d="M46.78,71.91c-0.01,0-0.01,0-0.01,0l0,0C46.77,71.92,46.78,71.92,46.78,71.91z"/>
		<path class="st1" d="M53.22,71.91c0.01,0,0.01,0,0.01,0l0,0C53.23,71.92,53.22,71.92,53.22,71.91z"/>
		<path class="st2" d="M71.23,95.54c0,0,0,0.21,0,0.19"/>
		<path class="st3" d="M71.23,50.75c-0.38-0.35-0.84-0.61-1.35-0.75c-0.01,0.02-0.02,0.03-0.04,0.03c-17.39,0-19.71-10.1-19.9-14.47
			C49.51,39.95,46.68,50.1,29.8,50.1c-0.39,0.15-0.73,0.37-1.03,0.65c-0.63,0.59-1.03,1.42-1.03,2.35c0,1.78,1.44,3.21,3.21,3.21
			c0.07,0,0.14-0.01,0.21-0.01c1.24,8.62,7.57,12.88,15.62,13.75v1.67c-0.01,0.05-0.02,0.1-0.02,0.16c0,0.01,0,0.02,0.01,0.04
			c0.01,0,0.01,0,0.01,0c-0.01,0-0.01,0-0.01,0c0.17,0.75,1.55,1.34,3.23,1.34c1.68,0,3.06-0.59,3.23-1.34c0,0-0.01,0-0.01,0
			c0.01,0,0.01,0,0.01,0c0-0.01,0-0.02,0.01-0.04c0-0.05-0.01-0.11-0.02-0.16v-1.67c8.04-0.87,14.37-5.13,15.61-13.75
			c0.07,0,0.15,0.01,0.22,0.01c1.78,0,3.21-1.44,3.21-3.21C72.26,52.17,71.86,51.34,71.23,50.75z M52.82,64.33
			c-2.02,0.69-3.95,0.43-5.38-0.02c-2.4,0.24-4.25-2.41-4.25-2.41s2.02,1.02,3.33-0.38c1.31-1.4,2.72-0.76,3.13-0.36
			c0.39,0.38,0.6,1.25-0.06,2.05h0.85c-0.66-0.79-0.45-1.67-0.06-2.05c0.41-0.4,1.82-1.04,3.12,0.36c1.31,1.4,3.33,0.38,3.33,0.38
			S55.11,64.39,52.82,64.33z"/>
		<path class="st4" d="M50.44,63.22h-0.85c-0.19,0.23-0.46,0.46-0.82,0.66c-0.46,0.26-0.9,0.39-1.33,0.44
			c1.43,0.44,3.36,0.7,5.38,0.02c-0.5-0.01-1.02-0.15-1.56-0.45C50.9,63.68,50.64,63.45,50.44,63.22z"/>
		<path class="st2" d="M28.77,95.54c0,0.22,0,0.3,0,0.3"/>
		<path class="st3" d="M62.06,87.63v7.89H37.94v-7.89l-6.92-4.24c-0.18,0.36-0.36,0.73-0.52,1.1c-0.01,0.02-0.02,0.05-0.03,0.07
			c-0.11,0.26-0.22,0.53-0.32,0.8c-0.01,0.03-0.02,0.07-0.04,0.1c-0.1,0.26-0.19,0.52-0.28,0.79c-0.02,0.07-0.04,0.14-0.06,0.2
			c-0.07,0.23-0.15,0.47-0.21,0.7c-0.02,0.08-0.04,0.17-0.06,0.25c-0.06,0.22-0.12,0.45-0.17,0.67c-0.02,0.08-0.03,0.17-0.05,0.25
			c-0.05,0.23-0.1,0.46-0.14,0.69c-0.02,0.12-0.04,0.25-0.06,0.37c-0.03,0.19-0.07,0.39-0.09,0.58c-0.02,0.17-0.04,0.34-0.06,0.52
			c-0.02,0.15-0.04,0.3-0.05,0.45c-0.02,0.17-0.02,0.34-0.03,0.51c-0.01,0.16-0.03,0.31-0.03,0.47c-0.02,0.33-0.02,0.66-0.02,0.99
			c0,1.5,0,2.27,0,2.63h42.46c0-0.3,0-1.03,0-2.63c0-0.33-0.01-0.66-0.02-0.99c0-0.09-0.01-0.17-0.02-0.26
			c-0.01-0.24-0.03-0.48-0.05-0.72c-0.01-0.15-0.03-0.3-0.05-0.45c-0.02-0.17-0.04-0.34-0.06-0.52c-0.02-0.16-0.05-0.33-0.08-0.49
			c-0.03-0.15-0.05-0.31-0.08-0.46c-0.03-0.18-0.07-0.36-0.11-0.55c-0.03-0.13-0.05-0.26-0.08-0.39c-0.05-0.19-0.1-0.38-0.15-0.57
			c-0.03-0.12-0.06-0.23-0.09-0.35c-0.06-0.21-0.12-0.41-0.19-0.61c-0.03-0.1-0.06-0.2-0.09-0.29c-0.08-0.24-0.16-0.47-0.25-0.71
			c-0.02-0.06-0.04-0.12-0.06-0.18c-0.09-0.25-0.2-0.49-0.3-0.74c-0.02-0.04-0.04-0.09-0.05-0.13c-0.11-0.26-0.23-0.51-0.35-0.76
			c-0.01-0.03-0.03-0.06-0.04-0.09c-0.04-0.08-0.09-0.17-0.13-0.25L62.06,87.63z"/>
		<path class="st5" d="M49.94,35.56c0.19,4.38,2.51,14.47,19.9,14.47c0.01,0,0.03-0.01,0.04-0.03c0.51,0.14,0.98,0.4,1.35,0.75
			c0-0.87,0-2.12,0-3.84c0-11.72-9.5-21.23-21.23-21.23c-11.72,0-21.23,9.5-21.23,21.23c0,1.77,0,3,0,3.84
			c0.3-0.28,0.65-0.5,1.03-0.65C46.68,50.1,49.51,39.95,49.94,35.56z"/>
		<path class="st5" d="M53.51,61.53c-1.31-1.4-2.72-0.76-3.12-0.36c-0.39,0.38-0.6,1.25,0.06,2.05c0.19,0.23,0.46,0.46,0.82,0.66
			c0.54,0.31,1.06,0.44,1.56,0.45c2.29,0.06,4.02-2.42,4.02-2.42S54.82,62.93,53.51,61.53z"/>
		<path class="st5" d="M49.59,63.22c0.66-0.79,0.45-1.67,0.06-2.05c-0.41-0.4-1.82-1.04-3.13,0.36c-1.31,1.4-3.33,0.38-3.33,0.38
			s1.85,2.65,4.25,2.41c0.43-0.04,0.87-0.18,1.33-0.44C49.13,63.68,49.4,63.45,49.59,63.22z"/>
		<path class="st6" d="M28.71,95.53c0,0.22,0,0.3,0,0.31"/>
		<path class="st6" d="M71.29,95.53c0,0,0,0.21,0,0.19"/>
		<path class="st7" d="M53.23,71.92c-0.17,0.75-1.55,1.34-3.23,1.34c-1.68,0-3.06-0.59-3.23-1.34l0,0c0-0.01,0-0.02-0.01-0.04
			c-0.01-0.03-0.01-0.06-0.01-0.09c-6.95,1.06-12.79,5.48-15.83,11.54l0.1,0.06l6.92,4.24v7.89h24.12v-7.89l6.92-4.24l0.1-0.06
			c-3.04-6.06-8.88-10.48-15.83-11.54c0,0.03-0.01,0.06-0.01,0.09C53.24,71.89,53.23,71.9,53.23,71.92L53.23,71.92z"/>
	</g>
</g>
</svg>
