<?xml version="1.0" encoding="utf-8"?>
<!-- Generator: Adobe Illustrator 26.1.0, SVG Export Plug-In . SVG Version: 6.00 Build 0)  -->
<svg version="1.1" id="Layer_1" xmlns="http://www.w3.org/2000/svg" xmlns:xlink="http://www.w3.org/1999/xlink" x="0px" y="0px"
	 viewBox="0 0 100 100" style="enable-background:new 0 0 100 100;" xml:space="preserve">
<style type="text/css">
	.st0{clip-path:url(#SVGID_00000076574915949479506510000004708042183796614553_);}
	.st1{fill:none;}
	.st2{fill:#F8D9DE;}
	.st3{fill:#CDA0A5;}
	.st4{fill:none;stroke:#F8D9DE;stroke-width:0;stroke-linecap:round;stroke-linejoin:round;}
	.st5{fill:#6DCAB8;}
	.st6{fill:#0A1F2D;}
</style>
<g>
	<defs>
		<ellipse id="SVGID_1_" transform="matrix(0.9249 -0.3803 0.3803 0.9249 -15.258 22.7715)" cx="50" cy="50" rx="45" ry="45"/>
	</defs>
	<use xlink:href="#SVGID_1_"  style="overflow:visible;fill:#FF8200;"/>
	<clipPath id="SVGID_00000092422004759776562010000003161130243850563469_">
		<use xlink:href="#SVGID_1_"  style="overflow:visible;"/>
	</clipPath>
	<g style="clip-path:url(#SVGID_00000092422004759776562010000003161130243850563469_);">
		<path class="st1" d="M53.23,71.92L53.23,71.92c-0.01,0-0.01,0-0.02,0C53.22,71.92,53.23,71.92,53.23,71.92z"/>
		<path class="st1" d="M46.78,71.91c-0.01,0-0.01,0-0.02,0l0,0C46.77,71.92,46.78,71.92,46.78,71.91z"/>
		<path class="st2" d="M36.98,76.14c0.69-0.54,1.42-1.04,2.18-1.49c-3.29,1.96-6.01,4.78-7.84,8.16c0,0,0,0.01-0.01,0.01
			c-0.29,0.54-0.56,1.1-0.81,1.67c-0.01,0.02-0.02,0.05-0.03,0.07c-0.11,0.26-0.22,0.53-0.32,0.8c-0.01,0.03-0.02,0.07-0.04,0.1
			c-0.1,0.26-0.19,0.52-0.28,0.78c-0.02,0.07-0.04,0.14-0.06,0.2c-0.07,0.23-0.15,0.47-0.21,0.7c-0.02,0.08-0.04,0.17-0.06,0.25
			c-0.06,0.22-0.12,0.45-0.17,0.67c-0.02,0.08-0.03,0.17-0.05,0.25c-0.05,0.23-0.1,0.46-0.14,0.69c-0.02,0.12-0.04,0.25-0.06,0.37
			c-0.03,0.19-0.07,0.39-0.09,0.58c-0.02,0.17-0.04,0.34-0.06,0.51c-0.02,0.15-0.04,0.3-0.05,0.45c-0.02,0.17-0.02,0.34-0.03,0.51
			c-0.01,0.16-0.02,0.31-0.03,0.47c-0.02,0.33-0.02,0.66-0.02,0.99c0,1.5,0,2.26,0,2.63h8.21V76.14z"/>
		<path class="st2" d="M68.82,56.3c0.07,0.01,0.15,0.01,0.22,0.01c1.77,0,3.21-1.44,3.21-3.21c0-1.77-1.44-3.21-3.21-3.21
			c-0.07,0-0.14,0.01-0.21,0.01c-1.22-9.47-7.77-16.95-16.04-18.35l0.01,0.03h0c0,0.04,0.01,0.07,0.01,0.11V42.1
			c0,2-1.2,3.62-2.67,3.62h-0.27c-1.48,0-2.67-1.62-2.67-3.62V31.69c0-0.04,0.01-0.07,0.01-0.11h0l0.01-0.03
			c-8.29,1.39-14.84,8.88-16.06,18.35c-0.06,0-0.13-0.01-0.19-0.01c-1.77,0-3.21,1.44-3.21,3.21c0,1.78,1.44,3.21,3.21,3.21
			c0.07,0,0.14-0.01,0.21-0.01c1.24,8.62,7.57,12.88,15.62,13.75v1.67c-0.01,0.05-0.02,0.11-0.02,0.16c0,0.01,0,0.02,0,0.03
			c0.01,0,0.01,0,0.02,0c-0.01,0-0.01,0-0.02,0c0.04,0.81,1.47,1.46,3.23,1.46c1.76,0,3.2-0.65,3.23-1.46c-0.01,0-0.01,0-0.02,0
			c0.01,0,0.01,0,0.02,0c0-0.01,0-0.02,0-0.03c0-0.05-0.01-0.11-0.02-0.16v-1.67C61.26,69.18,67.59,64.92,68.82,56.3z M45.02,63.22
			h9.95C50.12,66.68,45.02,63.22,45.02,63.22z"/>
		<path class="st3" d="M45.02,63.22c0,0,5.09,3.46,9.95,0H45.02z"/>
		<path class="st4" d="M71.23,95.53c0,0,0,0.21,0,0.19"/>
		<path class="st4" d="M28.77,95.53c0,0.22,0,0.3,0,0.3"/>
		<path class="st2" d="M44.05,72.52c-0.1,0.03-0.2,0.06-0.3,0.09C43.86,72.58,43.96,72.55,44.05,72.52z"/>
		<path class="st2" d="M57.09,72.89c-0.12-0.04-0.24-0.08-0.36-0.12C56.85,72.8,56.97,72.85,57.09,72.89z"/>
		<path class="st2" d="M54.32,72.12c0,0-0.01,0-0.01,0c-0.04-0.01-0.09-0.02-0.13-0.03c-0.04-0.01-0.08-0.01-0.12-0.02
			C54.15,72.08,54.24,72.1,54.32,72.12z"/>
		<path class="st2" d="M58.19,73.31c-0.23-0.09-0.45-0.19-0.68-0.27C57.73,73.13,57.96,73.22,58.19,73.31z"/>
		<path class="st2" d="M58.96,73.65c-0.15-0.07-0.31-0.14-0.47-0.21C58.65,73.51,58.8,73.58,58.96,73.65z"/>
		<path class="st2" d="M45.94,72.06c-0.04,0.01-0.08,0.01-0.12,0.02c-0.03,0.01-0.07,0.02-0.1,0.02c-0.01,0-0.03,0.01-0.04,0.01
			C45.76,72.1,45.85,72.08,45.94,72.06z"/>
		<path class="st2" d="M55.18,72.31c-0.02-0.01-0.05-0.01-0.07-0.02c-0.06-0.02-0.13-0.03-0.19-0.04
			C55.01,72.27,55.1,72.29,55.18,72.31z"/>
		<path class="st2" d="M45.08,72.25c-0.06,0.02-0.13,0.03-0.19,0.04c-0.01,0-0.03,0.01-0.04,0.01c-0.01,0-0.02,0.01-0.03,0.01
			C44.9,72.29,44.99,72.27,45.08,72.25z"/>
		<path class="st2" d="M56.24,72.61c-0.06-0.02-0.12-0.04-0.19-0.06c-0.01,0-0.01,0-0.02-0.01c-0.03-0.01-0.06-0.02-0.09-0.02
			C56.04,72.55,56.14,72.58,56.24,72.61z"/>
		<path class="st2" d="M63.02,76.14v19.39h8.21c0-0.3,0-1.03,0-2.63c0-0.33-0.01-0.66-0.02-0.99c-0.01-0.16-0.02-0.31-0.03-0.47
			c-0.01-0.17-0.02-0.34-0.03-0.51c-0.01-0.15-0.04-0.3-0.05-0.45c-0.02-0.17-0.03-0.34-0.06-0.51c-0.03-0.2-0.06-0.39-0.09-0.58
			c-0.02-0.12-0.04-0.25-0.06-0.37c-0.04-0.23-0.09-0.46-0.14-0.69c-0.02-0.08-0.03-0.17-0.05-0.25c-0.05-0.23-0.11-0.45-0.17-0.67
			c-0.02-0.08-0.04-0.17-0.06-0.25c-0.07-0.24-0.14-0.47-0.21-0.7c-0.02-0.07-0.04-0.14-0.06-0.2c-0.09-0.26-0.18-0.53-0.28-0.78
			c-0.01-0.03-0.02-0.07-0.04-0.1c-0.1-0.27-0.21-0.53-0.32-0.8c-0.01-0.02-0.02-0.05-0.03-0.07c-0.25-0.57-0.52-1.13-0.81-1.67
			c0,0,0-0.01,0-0.01c-1.83-3.38-4.55-6.2-7.84-8.16C61.6,75.1,62.33,75.6,63.02,76.14z"/>
		<path class="st2" d="M40.82,73.76c-0.55,0.27-1.09,0.55-1.62,0.87C39.73,74.31,40.27,74.02,40.82,73.76z"/>
		<path class="st2" d="M43.27,72.76c-0.12,0.04-0.24,0.08-0.36,0.13C43.03,72.85,43.15,72.8,43.27,72.76z"/>
		<path class="st2" d="M41.51,73.44c-0.16,0.07-0.31,0.14-0.46,0.21C41.2,73.58,41.35,73.51,41.51,73.44z"/>
		<path class="st2" d="M60.81,74.63c-0.53-0.31-1.07-0.6-1.63-0.87C59.73,74.03,60.28,74.32,60.81,74.63z"/>
		<path class="st2" d="M42.5,73.04c-0.23,0.09-0.46,0.18-0.68,0.27C42.04,73.22,42.27,73.13,42.5,73.04z"/>
		<path class="st5" d="M47.2,31.58c0,0.04-0.01,0.07-0.01,0.11V42.1c0,2,1.2,3.62,2.67,3.62h0.27c1.48,0,2.67-1.62,2.67-3.62V31.69
			c0-0.04-0.01-0.07-0.01-0.11h0l-0.01-0.03l0-0.01c0-0.02-0.01-0.04-0.01-0.06L50,15.82l-2.78,15.65c0,0.02-0.01,0.04-0.01,0.06
			l0,0.01L47.2,31.58L47.2,31.58z"/>
		<path class="st6" d="M50,73.38c-1.76,0-3.19-0.65-3.23-1.46l0,0c-0.28,0.04-0.55,0.09-0.82,0.14c-0.09,0.02-0.18,0.04-0.27,0.06
			c-0.2,0.04-0.4,0.08-0.59,0.13c-0.09,0.02-0.18,0.04-0.26,0.06c-0.26,0.06-0.51,0.13-0.76,0.21c-0.1,0.03-0.2,0.06-0.3,0.09
			c-0.16,0.05-0.32,0.1-0.49,0.16c-0.12,0.04-0.24,0.08-0.36,0.13c-0.14,0.05-0.28,0.1-0.41,0.15c-0.23,0.09-0.46,0.18-0.68,0.27
			c-0.1,0.04-0.2,0.09-0.31,0.13c-0.16,0.07-0.31,0.14-0.46,0.21c-0.07,0.03-0.15,0.07-0.22,0.11c-0.55,0.27-1.09,0.55-1.62,0.87
			c-0.01,0.01-0.03,0.02-0.04,0.03c-0.76,0.45-1.48,0.95-2.18,1.49v19.4h26.04V76.14c-0.69-0.54-1.42-1.04-2.18-1.49
			c-0.01-0.01-0.02-0.01-0.04-0.02c-0.53-0.31-1.07-0.6-1.63-0.87c-0.07-0.04-0.15-0.07-0.22-0.1c-0.15-0.07-0.31-0.14-0.47-0.21
			c-0.1-0.04-0.2-0.08-0.3-0.13c-0.23-0.09-0.45-0.19-0.68-0.27c-0.14-0.05-0.28-0.1-0.41-0.15c-0.12-0.04-0.24-0.08-0.36-0.12
			c-0.16-0.05-0.32-0.11-0.49-0.16c-0.1-0.03-0.19-0.06-0.29-0.09c-0.25-0.07-0.51-0.14-0.76-0.21c-0.09-0.02-0.17-0.04-0.26-0.06
			c-0.2-0.05-0.4-0.09-0.6-0.13c-0.09-0.02-0.18-0.04-0.26-0.05c-0.27-0.05-0.55-0.1-0.83-0.15l0,0
			C53.19,72.73,51.76,73.38,50,73.38z"/>
	</g>
</g>
</svg>
