<?xml version="1.0" encoding="utf-8"?>
<!-- Generator: Adobe Illustrator 26.1.0, SVG Export Plug-In . SVG Version: 6.00 Build 0)  -->
<svg version="1.1" id="Layer_1" xmlns="http://www.w3.org/2000/svg" xmlns:xlink="http://www.w3.org/1999/xlink" x="0px" y="0px"
	 viewBox="0 0 100 100" style="enable-background:new 0 0 100 100;" xml:space="preserve">
<style type="text/css">
	.st0{fill:#E5777D;}
	.st1{clip-path:url(#SVGID_00000088833157038871493940000005881443981414654119_);}
	.st2{fill-rule:evenodd;clip-rule:evenodd;fill:#F5BE92;}
	.st3{fill-rule:evenodd;clip-rule:evenodd;fill:#FFFFFF;}
	.st4{fill-rule:evenodd;clip-rule:evenodd;fill:#548C90;}
	.st5{fill:#474748;}
	.st6{fill:none;stroke:#474748;stroke-width:1.1415;stroke-miterlimit:10;}
</style>
<g>
	
		<ellipse transform="matrix(3.145522e-03 -1 1 3.145522e-03 -4.238422e-02 100.8361)" class="st0" cx="50.6" cy="50.4" rx="45" ry="45"/>
	<g>
		<defs>
			
				<ellipse id="SVGID_1_" transform="matrix(2.576499e-03 -1 1 2.576499e-03 -1.395697e-02 100.8646)" cx="50.6" cy="50.4" rx="45" ry="45"/>
		</defs>
		<clipPath id="SVGID_00000010270408957570106920000000640942291973246877_">
			<use xlink:href="#SVGID_1_"  style="overflow:visible;"/>
		</clipPath>
		<g style="clip-path:url(#SVGID_00000010270408957570106920000000640942291973246877_);">
			<path class="st2" d="M33.4,39.7c1.2-0.4,2.8,1,3.5,3.2c0.7,2.2,0.3,4.2-1,4.6c-1.2,0.4-2.8-1-3.5-3.2
				C31.7,42.2,32.2,40.1,33.4,39.7z"/>
			<path class="st2" d="M69.8,39.7c-1.2-0.4-2.8,1-3.5,3.2c-0.7,2.2-0.3,4.2,1,4.6c1.2,0.4,2.8-1,3.5-3.2
				C71.5,42.2,71.1,40.1,69.8,39.7z"/>
			<path class="st3" d="M40.9,22.7c-3.5,0.6-5.4,2.9-6.2,6.2c-2.1,8.4,2.3,26.7,17.9,26.9c8,0.1,13.8-1.9,15.9-8.4
				c2.1-6.5,3-17-1.6-22.8C61.1,17.2,49.1,17.1,40.9,22.7z"/>
			<path class="st4" d="M45.1,65.7C30.5,72.1,26.1,75.5,24.4,77c-2.7,2.4-4.2,11.4-5.8,18.9h32.9h32.9c-1.6-7.5-3-16.5-5.6-18.9
				c-1.7-1.5-5.9-4.8-20.5-11.2L45.1,65.7z"/>
			<path class="st2" d="M58.7,53v15.2c-3.9,4.8-10.3,4.6-14.1,0V53C44.6,44.3,58.7,44.3,58.7,53z"/>
			<path class="st2" d="M51.7,24C27.9,24,36.5,54.9,38,57.2c1.7,2.5,9.8,6.9,13.6,6.9c3.8,0,11.9-5,13.6-7.5
				C66.9,54.4,75.4,24,51.7,24z"/>
			<g>
				<circle class="st5" cx="45.6" cy="43.8" r="3.6"/>
				<circle class="st5" cx="58.3" cy="43.8" r="3.6"/>
				<path class="st6" d="M48.3,42.2c0,0,1.7-0.5,3.6-0.5c2.1,0,3.8,0.5,3.8,0.5"/>
			</g>
			<g>
				<path class="st3" d="M40.2,55.3c0.1-0.2,0.1-0.3,0.1-0.3l-3-0.3c0,0,0,0.1,0,0.2c0,0.2,0.1,0.4,0.1,0.7c0.1,0.6,0.1,1.3,0,2
					c-0.1,0.7-0.2,1.5-0.4,2c-0.1,0.3-0.2,0.5-0.3,0.6c-0.1,0.2-0.1,0.2-0.1,0.2s0.1-0.1,0.2-0.1c0.1-0.1,0.4-0.2,0.6-0.4
					c0.5-0.4,1-1.1,1.5-1.8c0.4-0.7,0.8-1.5,1-2.1C40.1,55.8,40.1,55.5,40.2,55.3z"/>
				<path class="st3" d="M66.4,60c-0.1-0.1-0.2-0.3-0.2-0.6c-0.2-0.5-0.4-1.2-0.4-1.8c-0.1-0.7,0-1.3,0.1-1.7c0-0.2,0.1-0.4,0.1-0.5
					C66,55.1,66,55,66,55h-3c0,0,0,0.1,0.1,0.3c0.1,0.2,0.1,0.4,0.2,0.7c0.2,0.6,0.5,1.4,1,2c0.5,0.7,1,1.2,1.4,1.6
					c0.2,0.2,0.4,0.3,0.5,0.4c0.1,0.1,0.2,0.2,0.2,0.2S66.5,60.1,66.4,60z"/>
				<path class="st3" d="M62.9,61.4c-0.1-0.4-0.1-1.1-0.1-1.7c0.1-0.6,0.2-1.2,0.3-1.8c0.1-0.5,0.1-0.9,0.1-0.9l-2.9,0.6
					c0,0,0.1,0.2,0.3,0.7c0.2,0.4,0.5,1.1,0.8,1.7c0.3,0.6,0.7,1.3,1.1,1.6c0.2,0.2,0.4,0.3,0.5,0.4c0.1,0.1,0.2,0.1,0.2,0.1
					s0-0.1-0.1-0.2C63,61.8,62.9,61.6,62.9,61.4z"/>
				<path class="st3" d="M40.4,58.8c0,0.1,0,0.4,0,0.6c0,0.5,0,1,0,1.6c-0.1,0.6-0.2,1.1-0.4,1.5c-0.1,0.2-0.2,0.3-0.4,0.4
					c-0.1,0.1-0.2,0.1-0.2,0.1c0,0,0.3,0.2,0.8-0.1c0.5-0.2,1-0.7,1.4-1.2c0.4-0.5,0.8-1.1,1.1-1.5c0.1-0.2,0.2-0.4,0.3-0.5
					c0.1-0.1,0.1-0.1,0.1-0.1l-2.8-1C40.5,58.6,40.5,58.6,40.4,58.8z"/>
			</g>
			<path class="st3" d="M61.7,54.9c-1,1.6-2.6-1-4.1-2.1c-3.6-2.2-7.6-1.8-10.9,0c-2.4,1.3-2.9,3.7-4.1,2.6c-2.8-1.8-3.6-7-7-7.9
				c0.6,4.7,2,9.3,2.5,10.1c1.7,2.5,9.8,6.9,13.6,6.9c3.8,0,11.9-5,13.6-7.5c0.5-0.8,1.9-4.9,2.5-9.9C64.5,47.5,63.5,52.2,61.7,54.9
				z"/>
			<path class="st2" d="M45.7,56.4c0-1.7,1.4-2.8,5.9-3.1c4.4-0.2,6.3,1.2,6.3,2.8c0,0.8-0.2,1.5-1.1,2.2c-1.2,1-3.5,0-5.1,0
				c-1.6,0-3.6,1.4-4.8,0.5C46,58.2,45.7,57.4,45.7,56.4z"/>
		</g>
	</g>
</g>
</svg>
