<?xml version="1.0" encoding="utf-8"?>
<!-- Generator: Adobe Illustrator 26.1.0, SVG Export Plug-In . SVG Version: 6.00 Build 0)  -->
<svg version="1.1" id="Layer_1" xmlns="http://www.w3.org/2000/svg" xmlns:xlink="http://www.w3.org/1999/xlink" x="0px" y="0px"
	 viewBox="0 0 100 100" style="enable-background:new 0 0 100 100;" xml:space="preserve">
<style type="text/css">
	.st0{fill:#84C5C0;}
	.st1{clip-path:url(#SVGID_00000012430114187894005000000010845309971786196124_);}
	.st2{fill-rule:evenodd;clip-rule:evenodd;fill:#F5BE92;}
	.st3{fill-rule:evenodd;clip-rule:evenodd;fill:#474748;}
	.st4{fill-rule:evenodd;clip-rule:evenodd;fill:#FFFFFF;}
	.st5{fill-rule:evenodd;clip-rule:evenodd;fill:#767678;}
	.st6{fill:#FFFFFF;}
</style>
<g>
	<ellipse transform="matrix(2.549121e-03 -1 1 2.549121e-03 -0.127 99.8726)" class="st0" cx="50" cy="50" rx="45" ry="45"/>
	<g>
		<defs>
			
				<ellipse id="SVGID_1_" transform="matrix(1 -1.733601e-03 1.733601e-03 1 -8.660474e-02 8.675534e-02)" cx="50" cy="50" rx="45" ry="45"/>
		</defs>
		<clipPath id="SVGID_00000154385575458739151840000015065931192215086724_">
			<use xlink:href="#SVGID_1_"  style="overflow:visible;"/>
		</clipPath>
		<g style="clip-path:url(#SVGID_00000154385575458739151840000015065931192215086724_);">
			<path class="st2" d="M32.8,38.8c1.2-0.4,2.8,1,3.5,3.2c0.7,2.2,0.3,4.2-1,4.6c-1.2,0.4-2.8-1-3.5-3.2
				C31.1,41.3,31.5,39.2,32.8,38.8z"/>
			<path class="st2" d="M69.2,38.8c-1.2-0.4-2.8,1-3.5,3.2c-0.7,2.2-0.3,4.2,1,4.6c1.2,0.4,2.8-1,3.5-3.2
				C70.9,41.3,70.4,39.2,69.2,38.8z"/>
			<path class="st3" d="M62.8,21.8c3.5,0.6,5.4,2.9,6.2,6.2c2.1,8.4-2.3,26.7-17.9,26.9c-8,0.1-13.8-1.9-15.9-8.4
				c-2.1-6.5-3-17,1.6-22.8C42.6,16.3,54.7,16.2,62.8,21.8z"/>
			<path class="st4" d="M44.4,64.8c-14.6,6.4-18.9,9.8-20.7,11.3C21.1,78.5,19.6,87.6,18,95h33h32.8c-1.6-7.5-3-16.5-5.6-18.9
				c-1.7-1.5-5.9-4.8-20.5-11.2L44.4,64.8z"/>
			<path class="st3" d="M46.6,64.8l-2.2,0c-14.6,6.4-18.9,9.8-20.7,11.3C21.2,78.5,19.6,87.6,18,95H43c-0.5-8.3-1.4-16.3-1.4-24.6
				C41.6,67.7,45.8,67.7,46.6,64.8z"/>
			<polygon class="st5" points="41.9,66 34,74.4 36.7,79 34.7,81.1 40.7,94.7 43,95 			"/>
			<path class="st3" d="M55.5,64.8l2.2,0c14.6,6.4,18.9,9.8,20.7,11.3c2.7,2.4,4.2,11.4,5.8,18.9H59.2c0.5-8.3,1.4-16.3,1.4-24.6
				C60.5,67.7,56.4,67.7,55.5,64.8z"/>
			<polygon class="st5" points="60.2,66 68.1,74.4 65.4,79 67.4,81.1 61.4,94.7 59.1,95 			"/>
			<path class="st2" d="M44,52.1v10.8v6.5c3.9,4.6,10.2,4.8,14.1,0v-6.5V52.1C58.1,43.4,44,43.4,44,52.1z"/>
			<path class="st3" d="M47.9,74.3l1.8,3.2c0.9,0,1.8,0,2.7,0l1.8-3.2L51,70.4L47.9,74.3z"/>
			<polygon class="st3" points="49.6,77.5 47.1,98 54.9,98 52.4,77.5 			"/>
			<path class="st2" d="M51,23.1c-23.7,0-15.2,30.9-13.6,33.2c1.7,2.5,9.8,6.9,13.6,6.9c3.8,0,11.9-5,13.6-7.5
				C66.2,53.5,74.7,23.1,51,23.1z"/>
			<polygon class="st6" points="51,70.4 47.9,74.3 42.4,79.8 41.9,66 44,65 			"/>
			<polygon class="st6" points="51,70.4 54.2,74.3 59.7,79.8 60.2,66 58.1,65 			"/>
			<path class="st3" d="M66.8,32.6c-0.1-2-0.6-4.1-1.2-5.5c-0.1-0.4-0.3-0.7-0.4-1c-0.1-0.3-0.2-0.5-0.3-0.7
				c-0.2-0.4-0.3-0.7-0.3-0.7l-2.4,1.6c-0.1-0.3-0.3-0.6-0.5-1c-0.8-1.2-1.8-2.3-2.9-3c-1.1-0.7-2.3-1.3-3.4-1.5
				c-0.3-0.1-0.5-0.2-0.7-0.2c-0.2,0-0.5-0.1-0.7-0.1c-0.4-0.1-0.8-0.2-1.1-0.2c-0.6-0.1-1-0.1-1-0.1V21c-0.1,0-0.2,0-0.3,0
				c-1,0-1.8,0.2-2.3,0.4c-0.5,0.2-0.8,0.2-0.8,0.2l0.2,0.5c-0.3-0.1-0.6-0.1-0.9-0.1c-0.1,0-0.3,0-0.4,0c-0.1,0-0.2,0-0.3,0.1
				c-0.5,0.1-0.8,0.2-1,0.3c-0.1,0-0.1,0.1-0.2,0.1l-0.4-1.1c0,0-0.2,0.1-0.7,0.4c-0.1,0.1-0.2,0.1-0.3,0.2
				c-0.1,0.1-0.2,0.2-0.4,0.3c-0.1,0.1-0.3,0.2-0.4,0.3c0,0,0,0,0,0l-0.3-0.8c0,0-0.3,0.2-0.8,0.4c-0.1,0.1-0.2,0.1-0.4,0.2
				c-0.1,0.1-0.3,0.2-0.4,0.3c-0.3,0.2-0.6,0.5-0.9,0.9c-0.2,0.2-0.3,0.4-0.5,0.5c-0.1,0.2-0.3,0.4-0.4,0.6
				c-0.1,0.1-0.1,0.2-0.2,0.3c-0.1,0.1-0.1,0.2-0.2,0.4c0,0.1-0.1,0.2-0.1,0.3l-1.2-1.5c0,0-0.2,0.2-0.6,0.7c-0.3,0.4-0.7,1.1-1,1.9
				c-0.6,1.6-0.6,3.6-0.5,5.6c0.2,1.9,0.6,3.8,1,5.1c0.2,0.7,0.4,1.2,0.5,1.6c0.1,0.4,0.2,0.6,0.2,0.6s0-0.2-0.1-0.6
				c0-0.4-0.1-1-0.1-1.7c0-1.4,0-3.2,0.3-5c0.2-1,0.4-2,0.8-2.9c0,2,0.3,3.8,0.6,5.2c0.3,1.4,0.5,2.4,0.5,2.4s0-1,0.1-2.4
				c0.1-1.5,0.2-3.4,0.7-5.2c0.2-0.8,0.6-1.6,0.9-2.3c0,0.2,0,0.4,0,0.6c0,1.8,0.3,3.4,0.6,4.6c0.3,1.2,0.6,2,0.6,2s0-0.8,0-2
				c0-1.2,0.2-2.8,0.7-4.2c0.2-0.7,0.5-1.4,0.9-1.9c0.4-0.5,0.7-0.9,1.1-1.1c0.5-0.3,0.9-0.4,1.1-0.4l0.6,1c0,0,0.1-0.1,0.4-0.3
				c0.2-0.2,0.5-0.3,0.7-0.4c0.1,0,0.2-0.1,0.3,0c0.2,0.1,0.4,0.2,0.6,0.5c0.4,0.6,0.8,1.4,1,2.2c0.6,1.7,0.8,3.6,1,5.1
				c0.1,0.7,0.2,1.3,0.2,1.7c0,0.4,0.1,0.7,0.1,0.7s0-0.2,0.1-0.7c0.1-0.4,0.1-1,0.2-1.7c0.2-1.4,0.4-3.4,0.2-5.4
				c-0.1-1-0.2-2.1-0.6-3.1c0-0.1-0.1-0.2-0.1-0.3c0.2-0.1,0.4-0.2,0.6-0.2c0.3-0.1,0.6-0.1,0.9-0.1c0.3,0,0.6,0,0.9,0.2
				c0.6,0.3,1.2,0.9,1.6,1.8c0.4,0.9,0.8,1.9,1,2.8c0.2,1,0.4,1.9,0.6,2.7c0.3,1.6,0.5,2.6,0.5,2.6s0-1.1,0.1-2.7c0-0.8,0-1.8,0-2.8
				c0-1-0.1-2.1-0.4-3.3c-0.1-0.3-0.2-0.7-0.4-1.1c0.3,0.1,0.6,0.2,0.9,0.3c1,0.4,1.9,1.1,2.7,1.9c0.3,0.4,0.7,0.9,0.9,1.4
				c0.3,0.5,0.5,1.1,0.6,1.6c0.3,1.1,0.4,2.2,0.5,3.2c0.1,1.9,0.2,3.2,0.2,3.2s0.1-1.3,0.3-3.2c0.1-1,0.2-2.1,0.1-3.4
				c0-0.2-0.1-0.5-0.1-0.8c0,0,0,0,0,0c0.8,1.1,1.6,2.6,2.2,4.4c0.5,1.7,0.7,3.6,0.7,5.1c0,0.7,0,1.3-0.1,1.7c0,0.4,0,0.7,0,0.7
				s0.1-0.2,0.2-0.6c0.1-0.4,0.3-1,0.5-1.7C66.6,36.6,66.9,34.7,66.8,32.6z"/>
		</g>
	</g>
</g>
</svg>
