<?xml version="1.0" encoding="utf-8"?>
<!-- Generator: Adobe Illustrator 26.1.0, SVG Export Plug-In . SVG Version: 6.00 Build 0)  -->
<svg version="1.1" id="Layer_1" xmlns="http://www.w3.org/2000/svg" xmlns:xlink="http://www.w3.org/1999/xlink" x="0px" y="0px"
	 viewBox="0 0 100 100" style="enable-background:new 0 0 100 100;" xml:space="preserve">
<style type="text/css">
	.st0{fill:#7F4A38;}
	.st1{opacity:0.1;}
	.st2{fill:none;}
	.st3{clip-path:url(#SVGID_00000145053890086993577970000015335609243475194293_);}
	.st4{fill:#FEE1B9;}
	.st5{fill:#FFD9AC;}
	.st6{fill:#875527;}
	.st7{fill:#393939;}
	.st8{fill:#232323;}
	.st9{fill:#B9C7D0;}
	.st10{fill:#3D6B8C;}
	.st11{fill:#2F5876;}
	.st12{fill:#5F6269;}
	.st13{fill:#4A4A4A;}
	.st14{fill:#D2D5DA;}
	.st15{fill:#FFFFFF;}
	.st16{fill:#915F2C;}
	.st17{fill:#152235;}
	.st18{fill:#111D2B;}
	.st19{fill:#243549;}
	.st20{fill:#213242;}
	.st21{fill:#3E4E70;}
	.st22{fill:#374963;}
	.st23{fill:#726658;}
</style>
<g id="ava_05_00000158001419732610549750000000007719591377239731_">
	<path class="st0" d="M95,50C95,25.1,74.9,5,50,5C25.1,5,5,25.1,5,50c0,24.9,20.1,45,45,45C74.9,95,95,74.9,95,50z"/>
	<path class="st1" d="M94.2,41.4L66.3,13.5l-6.9,6.9l-3.1-3.1l-2.9,2.9l-6.7-6.7L25.8,34.4l6.7,6.7L31,42.5l14.4,14.5L41,61.5
		l28.9,28.9C84.8,83,95,67.7,95,50C95,47.1,94.7,44.2,94.2,41.4z"/>
	<ellipse transform="matrix(0.3807 -0.9247 0.9247 0.3807 -15.27 77.1993)" class="st2" cx="50" cy="50" rx="45" ry="45"/>
	<g>
		<defs>
			<path id="SVGID_1_" d="M95,50C95,25.1,74.9,5,50,5C25.1,5,5,25.1,5,50c0,24.9,20.1,45,45,45C74.9,95,95,74.9,95,50z"/>
		</defs>
		<clipPath id="SVGID_00000111156510964796551120000016352233595245699517_">
			<use xlink:href="#SVGID_1_"  style="overflow:visible;"/>
		</clipPath>
		<g style="clip-path:url(#SVGID_00000111156510964796551120000016352233595245699517_);">
			<g>
				<g>
					<polygon class="st4" points="57.4,73.5 49.9,95.2 42.5,73.5 42.5,56.7 57.4,56.7 					"/>
					<polygon class="st5" points="49.9,95.2 57.4,73.5 57.4,56.7 49.9,56.7 					"/>
					<path class="st5" d="M29.8,39.5c-0.3-2.5,1.1-4.7,3-5c1.9-0.3,3.7,1.6,4,4.1c0.3,2.5-1.1,4.7-3,5C31.8,43.8,30.1,42,29.8,39.5z
						"/>
					<g>
						<g>
							<g>
								<path class="st4" d="M70.2,39.4c0.3-2.5-1-4.7-2.9-4.9c-1.9-0.2-3.7,1.6-4.1,4.2c-0.3,2.5,1,4.7,2.9,4.9
									C68,43.8,69.9,41.9,70.2,39.4z"/>
							</g>
							<g>
								<g>
									<path class="st4" d="M50,18.5c0,0-15.9,0.7-15.9,9.2c0,0,0,16.3,0,19.6s5.4,12.9,10.3,13.3C46.8,60.8,50,61,50,61
										s3.2-0.3,5.6-0.5c4.9-0.4,10.2-9.9,10.2-13.3s0-19.2,0-19.2C65.8,19.6,50,18.5,50,18.5z"/>
								</g>
								<g>
									<path class="st4" d="M50,18.5c0,0-15.9,0.7-15.9,9.2c0,0,0,16.3,0,19.6s5.4,12.9,10.3,13.3C46.8,60.8,50,61,50,61
										s3.2-0.3,5.6-0.5c4.9-0.4,10.2-9.9,10.2-13.3s0-19.2,0-19.2C65.8,19.6,50,18.5,50,18.5z"/>
								</g>
								<g>
									<path class="st5" d="M65.8,28.1c0,0,0,15.8,0,19.2s-5.4,12.9-10.3,13.3c-2.4,0.2-5.6,0.5-5.6,0.5V18.5
										C49.9,18.5,65.8,19.6,65.8,28.1z"/>
								</g>
							</g>
						</g>
					</g>
					<path class="st4" d="M50,95.2V68.5c0,0-5.7-1.4-7-6c-0.6-2.2-0.6-1.7-0.6,0.6c0,6.9-16.1,3.9-20.5,9.2c-3.4,4.8-5.8,23-5.8,23
						H50z"/>
					<path class="st5" d="M49.9,95.2V67.1c0,0,5.4-0.1,6.5-2.7c0.4-1,1-3.6,1-1.3c0,6.9,16.2,3.9,20.6,9.2c3.4,4.8,5.8,23,5.8,23
						H49.9z"/>
				</g>
				<g>
					<g>
						<path class="st6" d="M44.8,40c-0.1,0-0.2,0-0.2-0.1c-0.5-0.6-1.4-1-2.5-1c-1.1,0-2,0.4-2.5,1c-0.1,0.1-0.3,0.1-0.4,0.1
							c-0.1-0.1-0.1-0.3-0.1-0.4c0.6-0.8,1.7-1.2,2.9-1.2c1.2,0,2.3,0.5,2.9,1.2c0.1,0.1,0.1,0.3-0.1,0.4C44.9,40,44.9,40,44.8,40z"
							/>
					</g>
				</g>
				<g>
					<g>
						<path class="st6" d="M60.2,40c-0.1,0-0.2,0-0.2-0.1c-0.5-0.6-1.4-1-2.5-1c-1.1,0-2,0.4-2.5,1C55,40,54.8,40.1,54.7,40
							c-0.1-0.1-0.1-0.3-0.1-0.4c0.6-0.8,1.7-1.2,2.9-1.2c1.2,0,2.3,0.5,2.9,1.2c0.1,0.1,0.1,0.3-0.1,0.4C60.4,40,60.3,40,60.2,40z"
							/>
					</g>
				</g>
				<g>
					<path class="st7" d="M40.5,66.1c0,0-15.6,2-19.1,6.3c-2.8,3.5-4.8,18.7-5.7,22.8c25.6,0,34.3,0,34.3,0V68.6L40.5,66.1z"/>
					<path class="st8" d="M59.5,66.1c0,0,15,1.8,18.5,6.2c2.8,3.5,5.4,18.9,6.3,23c-25.6,0-34.3,0-34.3,0V68.6L59.5,66.1z"/>
					<polyline class="st9" points="59.7,65.7 50,67.6 40.3,65.7 50,95.2 					"/>
					<polygon class="st10" points="51.1,73.2 53.3,71 50,67.7 46.7,71 48.9,73.2 45.9,89.3 50,95.2 54.1,89.3 					"/>
					<polygon class="st11" points="53.3,71 50,67.7 49.9,67.7 49.9,95.1 50,95.2 54.1,89.3 51.1,73.2 					"/>
					<polygon class="st12" points="43,78.4 31.9,67.7 42,65.1 50,95.2 38.9,79.2 					"/>
					<polygon class="st13" points="57,78.4 68.1,67.7 58.1,65.1 50,95.2 61.1,79.2 					"/>
					<polygon class="st14" points="50,67.6 57.8,63.7 61.8,66.1 55.2,75.4 					"/>
					<polygon class="st15" points="50,67.6 42.2,63.7 38.2,66.1 46.1,75.4 					"/>
				</g>
				<path class="st16" d="M40,20.6V21v6.4l-3.1,7.2l-2.7,5.9c0,0-1.2-7.7-1.1-10.4c0.1-2.8,1.3-5.5,2.6-6.8C37,21.9,40,20.6,40,20.6
					z"/>
				<path class="st16" d="M59.7,20.6V21v6.4l3.1,7.2l2.7,5.9c0,0,1.2-7.7,1.1-10.4c-0.1-2.8-1.3-5.5-2.6-6.8
					C62.7,21.9,59.7,20.6,59.7,20.6z"/>
			</g>
			<g>
				<ellipse class="st17" cx="50" cy="33.7" rx="24.5" ry="5.3"/>
				<path class="st18" d="M74.5,33.7c0-2.9-11-5.3-24.5-5.3V39C63.5,39,74.5,36.6,74.5,33.7z"/>
				<path class="st19" d="M33.4,14.5v17.1c0,2.5,7.5,4.6,16.6,4.6c9.2,0,16.6-2,16.6-4.6V14.5H33.4z"/>
				<path class="st20" d="M50,36.1c9.2,0,16.6-2,16.6-4.6V14.5H50V36.1z"/>
				<path class="st21" d="M50,31c-9.2,0-16.6-2-16.6-4.6v5.1c0,2.5,7.5,4.6,16.6,4.6c9.2,0,16.6-2,16.6-4.6v-5.1
					C66.6,28.9,59.2,31,50,31z"/>
				<ellipse class="st21" cx="50" cy="14.5" rx="16.6" ry="3.8"/>
				<path class="st22" d="M66.6,14.5c0-2.1-7.5-3.8-16.6-3.8v7.7C59.2,18.3,66.6,16.6,66.6,14.5z"/>
				<path class="st22" d="M66.6,31.5v-5.1c0,2.5-7.5,4.6-16.6,4.6v5.1C59.2,36.1,66.6,34,66.6,31.5z"/>
			</g>
			<path class="st16" d="M55.6,60.2c-2.4,0.2-5.6,0.5-5.6,0.5s-3.2-0.3-5.6-0.5c-4.9-0.4-10.3-9.9-10.3-13.3c0,0.6,0,1.1,0,1.5
				c0,3.3,5.4,14.4,10.3,14.8c2.4,0.2,5.6,0.5,5.6,0.5s3.2-0.3,5.6-0.5c4.9-0.4,10.2-11.5,10.2-14.8c0-0.4,0-0.9,0-1.5
				C65.8,50.3,60.5,59.8,55.6,60.2z"/>
			<path class="st16" d="M49.9,53.4c-2.4,0-4.4,2-4.4,4.4v2.3c0,0.2,0,0.4,0,0.6C47.8,60.8,50,61,50,61s2.2-0.2,4.3-0.4
				c0-0.2,0-0.4,0-0.6v-2.3C54.3,55.3,52.4,53.4,49.9,53.4z"/>
			<path class="st6" d="M50,61c0,0,2.2-0.2,4.3-0.4c0-0.2,0-0.4,0-0.6v-2.3c0-2.4-2-4.4-4.4-4.4L50,61C50,61,50,61,50,61z"/>
			<path class="st6" d="M65.3,49.4c-1.5,4.2-5.7,10.5-9.7,10.9c-2.4,0.2-5.6,0.5-5.6,0.5s0,0-0.1,0v3c0,0,0.1,0,0.1,0
				s3.2-0.3,5.6-0.5c4.5-0.4,9.3-9.8,10.1-13.9H65.3z"/>
			<path class="st15" d="M49.9,58.4c1.2,0,2.2-0.8,2.2-1.9h-4.3C47.7,57.5,48.7,58.4,49.9,58.4z"/>
			<g>
				<path class="st23" d="M58.9,43.1c0-0.7-0.6-1.3-1.3-1.3c-0.7,0-1.3,0.6-1.3,1.3c0,0.7,0.6,1.3,1.3,1.3
					C58.3,44.4,58.9,43.8,58.9,43.1z"/>
				<path class="st23" d="M43.5,42.5c0-0.7-0.6-1.3-1.3-1.3c-0.7,0-1.3,0.6-1.3,1.3c0,0.7,0.6,1.3,1.3,1.3
					C42.9,43.9,43.5,43.3,43.5,42.5z"/>
			</g>
		</g>
	</g>
</g>
</svg>
