<?xml version="1.0" encoding="utf-8"?>
<!-- Generator: Adobe Illustrator 26.1.0, SVG Export Plug-In . SVG Version: 6.00 Build 0)  -->
<svg version="1.1" id="Layer_1" xmlns="http://www.w3.org/2000/svg" xmlns:xlink="http://www.w3.org/1999/xlink" x="0px" y="0px"
	 viewBox="0 0 100 100" style="enable-background:new 0 0 100 100;" xml:space="preserve">
<style type="text/css">
	.st0{fill:#EDF7AF;}
	.st1{clip-path:url(#SVGID_00000174591624343013138190000011594452639605129861_);}
	.st2{fill-rule:evenodd;clip-rule:evenodd;fill:#FFC785;}
	.st3{fill-rule:evenodd;clip-rule:evenodd;fill:#92653D;}
	.st4{fill-rule:evenodd;clip-rule:evenodd;fill:#DF5E6E;}
	.st5{fill-rule:evenodd;clip-rule:evenodd;fill:#474748;}
	.st6{fill-rule:evenodd;clip-rule:evenodd;fill:#767678;}
	.st7{fill:#474748;}
	.st8{opacity:0.9;fill:#DCE6F7;}
	.st9{fill:#FFFFFF;}
	.st10{fill:#E6E6E6;}
	.st11{opacity:0.1;fill:#333333;}
</style>
<g>
	<ellipse transform="matrix(1 -3.185455e-03 3.185455e-03 1 -0.159 0.1595)" class="st0" cx="50" cy="50" rx="45" ry="45"/>
	<g>
		<defs>
			<ellipse id="SVGID_1_" transform="matrix(1 -2.603281e-03 2.603281e-03 1 -0.13 0.1303)" cx="50" cy="50" rx="45" ry="45"/>
		</defs>
		<clipPath id="SVGID_00000033370146907795680560000012753269140108589737_">
			<use xlink:href="#SVGID_1_"  style="overflow:visible;"/>
		</clipPath>
		<g style="clip-path:url(#SVGID_00000033370146907795680560000012753269140108589737_);">
			<path class="st2" d="M32.3,39.1c1.2-0.4,2.8,1,3.5,3.2c0.7,2.2,0.3,4.2-1,4.6c-1.2,0.4-2.8-1-3.5-3.2
				C30.6,41.6,31,39.5,32.3,39.1z"/>
			<path class="st2" d="M68.7,39.1c-1.2-0.4-2.8,1-3.5,3.2c-0.7,2.2-0.3,4.2,1,4.6c1.2,0.4,2.8-1,3.5-3.2
				C70.4,41.6,69.9,39.5,68.7,39.1z"/>
			<path class="st3" d="M62.3,22.1c3.5,0.6,5.4,2.9,6.2,6.2c2.1,8.4-2.3,26.7-17.9,26.9c-8,0.1-13.8-1.9-15.9-8.4
				c-2.1-6.5-3-17,1.6-22.8C42.1,16.6,54.2,16.5,62.3,22.1z"/>
			<path class="st4" d="M43.9,65.1C29.4,71.5,25,74.9,23.3,76.4c-2.7,2.4-4.2,11.4-5.8,18.9h32.9h32.9c-1.6-7.5-3-16.5-5.6-18.9
				c-1.7-1.5-5.9-4.8-20.5-11.2L43.9,65.1z"/>
			<path class="st5" d="M46.1,65.1l-2.2,0C29.4,71.5,25,74.9,23.3,76.4c-2.7,2.4-4.2,11.4-5.8,18.9h24.9C41.9,87,41,79,41,70.7
				C41,68,45.2,68,46.1,65.1z"/>
			<polygon class="st6" points="41.3,66.3 33.4,74.7 36.2,79.3 34.1,81.4 40.1,95 42.4,95.3 			"/>
			<path class="st5" d="M55,65.1l2.2,0c14.6,6.4,18.9,9.8,20.7,11.3c2.7,2.4,4.2,11.4,5.8,18.9H58.6C59.2,87,60,79,60,70.6
				C60,68,55.8,68,55,65.1z"/>
			<polygon class="st6" points="59.7,66.3 67.6,74.7 64.8,79.3 66.9,81.4 60.9,95 58.6,95.3 			"/>
			<path class="st2" d="M43.4,52.4v10.8v6.5c3.9,4.6,10.2,4.8,14.1,0v-6.5V52.4C57.6,43.7,43.4,43.7,43.4,52.4z"/>
			<path class="st2" d="M50.5,23.4c-23.7,0-15.2,30.9-13.6,33.2c1.7,2.5,9.8,6.9,13.6,6.9c3.8,0,11.9-5,13.6-7.5
				C65.7,53.8,74.2,23.4,50.5,23.4z"/>
			<g>
				<path class="st7" d="M52.6,44.7c-2.3-0.8-4.1,0-4.1,0v-1.6c0,0,1.8-0.8,4.1,0V44.7z"/>
				<path class="st7" d="M47.1,48.8c-1.1,1-2.5,1.4-3.9,1.4c-1.5,0-2.8-0.1-3.9-0.9c-0.9-0.6-1.4-1.4-1.8-2.3
					c-0.3-0.8-0.5-1.3-0.5-3.1c0-1.5,0.6-2.2,2-2.5c2.1-0.5,5.7-0.6,7.9,0.1c0.7,0.2,2.5,0.5,2.5,1.9C49.4,46,48,47.9,47.1,48.8z"/>
				<path class="st7" d="M39.4,41.3c0,0-0.5,0.2-2.7,0.2c-0.7,0-0.8,2.6-0.3,2.8c0.3,0.1,0.5,0.3,0.6,0.8L39.4,41.3z"/>
				<path class="st8" d="M46.5,48.3c-0.9,0.8-2.1,1.2-3.4,1.2c-1.2,0-2.4-0.1-3.3-0.7c-0.8-0.5-1.2-1.2-1.5-2
					c-0.3-0.7-0.4-1.1-0.5-2.6c0-1.3,0.5-1.8,1.7-2.1c1.8-0.5,4.9-0.5,6.8,0.1c0.6,0.2,2.1,0.4,2.1,1.7
					C48.5,45.9,47.3,47.6,46.5,48.3z"/>
				<g>
					<path class="st9" d="M37.2,42.9c0,0.1-0.1,0.1-0.3,0.1c-0.2,0-0.3-0.1-0.3-0.1c0-0.1,0.1-0.1,0.3-0.1
						C37,42.8,37.2,42.8,37.2,42.9z"/>
					<path class="st10" d="M36.9,43c-0.1,0-0.2,0-0.3-0.1c0,0,0,0,0,0C36.6,43,36.7,43.1,36.9,43c0.2,0.1,0.3,0,0.3-0.1c0,0,0,0,0,0
						C37.1,42.9,37,43,36.9,43z"/>
				</g>
				<path class="st7" d="M53.9,48.8c1.1,1,2.5,1.4,3.9,1.4c1.5,0,2.8-0.1,3.9-0.9c0.9-0.6,1.4-1.4,1.8-2.3c0.3-0.8,0.5-1.3,0.5-3.1
					c0-1.5-0.6-2.2-2-2.5c-2.1-0.5-5.7-0.6-7.9,0.1c-0.7,0.2-2.5,0.5-2.5,1.9C51.6,46,53,47.9,53.9,48.8z"/>
				<path class="st7" d="M61.6,41.3c0,0,0.5,0.2,2.7,0.2c0.7,0,0.8,2.6,0.3,2.8c-0.3,0.1-0.5,0.3-0.6,0.8L61.6,41.3z"/>
				<path class="st8" d="M54.5,48.3c0.9,0.8,2.1,1.2,3.4,1.2c1.2,0,2.4-0.1,3.3-0.7c0.8-0.5,1.2-1.2,1.5-2c0.3-0.7,0.4-1.1,0.5-2.6
					c0-1.3-0.5-1.8-1.7-2.1c-1.8-0.5-4.9-0.5-6.8,0.1c-0.6,0.2-2.1,0.4-2.1,1.7C52.6,45.9,53.7,47.6,54.5,48.3z"/>
				<g>
					<path class="st9" d="M64.4,42.9c0,0.1-0.1,0.1-0.3,0.1c-0.2,0-0.3-0.1-0.3-0.1c0-0.1,0.1-0.1,0.3-0.1
						C64.3,42.8,64.4,42.8,64.4,42.9z"/>
					<path class="st10" d="M64.1,43c-0.1,0-0.2,0-0.3-0.1c0,0,0,0,0,0C63.8,43,64,43.1,64.1,43c0.2,0.1,0.3,0,0.3-0.1c0,0,0,0,0,0
						C64.4,42.9,64.3,43,64.1,43z"/>
				</g>
				<path class="st9" d="M53.6,47.2c1.7-1.7,3.7-3.7,5.5-5.5c-0.7,0-1.5,0-2.2,0c-1.3,1.3-2.8,2.8-4,4
					C53.1,46.3,53.3,46.8,53.6,47.2z"/>
				<path class="st9" d="M52.6,44.3c0,0.2,0,0.4,0.1,0.6l2.9-2.9c-0.3,0-0.5,0.1-0.8,0.2L52.6,44.3z"/>
				<path class="st9" d="M37.8,44.4c0,0.2,0,0.4,0,0.6l3.2-3.2c-0.2,0-0.5,0.1-0.7,0.1L37.8,44.4z"/>
				<path class="st9" d="M42.2,41.7c-1.4,1.4-2.8,2.8-4.3,4.3c0.1,0.3,0.2,0.6,0.3,0.9c0.1,0.2,0.2,0.5,0.3,0.7
					c1.9-1.9,3.8-3.8,5.7-5.7C43.7,41.7,42.9,41.7,42.2,41.7z"/>
				<path class="st11" d="M62.7,46.2c-0.3,0.8-0.8,1.4-1.5,2c-0.9,0.6-2.1,0.8-3.3,0.7c-1.2,0-2.5-0.4-3.4-1.2
					c-0.8-0.7-1.8-2.2-1.9-4.1c0,0.1,0,0.1,0,0.2c0,2.2,1.1,3.8,1.9,4.6c0.9,0.8,2.1,1.2,3.4,1.2c1.2,0,2.4-0.1,3.3-0.7
					c0.8-0.5,1.2-1.2,1.5-2c0.3-0.7,0.4-1.1,0.5-2.6c0-0.1,0-0.2,0-0.4C63.1,45.1,63,45.5,62.7,46.2z"/>
				<path class="st11" d="M46.5,47.7c-0.9,0.8-2.1,1.2-3.4,1.2c-1.2,0-2.4-0.1-3.3-0.7c-0.8-0.5-1.2-1.2-1.5-2
					c-0.3-0.6-0.4-1-0.4-2.4c0,0.1,0,0.2,0,0.4c0,1.5,0.2,2,0.5,2.6c0.3,0.8,0.8,1.4,1.5,2c0.9,0.6,2.1,0.8,3.3,0.7
					c1.2,0,2.5-0.4,3.4-1.2c0.8-0.7,2-2.4,1.9-4.6c0-0.1,0-0.1,0-0.2C48.3,45.5,47.3,47,46.5,47.7z"/>
			</g>
		</g>
		<g style="clip-path:url(#SVGID_00000033370146907795680560000012753269140108589737_);">
			<path class="st3" d="M66.2,33.6c-0.1-1.7-0.5-3.4-1.2-4.5c-0.1-0.1-0.2-0.3-0.2-0.4c-0.1-0.1-0.2-0.2-0.2-0.4
				c-0.2-0.2-0.3-0.4-0.4-0.6c-0.3-0.3-0.4-0.5-0.4-0.5l-0.4,0.5c-0.1-0.2-0.2-0.3-0.4-0.5c0.3,0.1,0.5,0.2,0.5,0.2
				s-0.2-0.1-0.7-0.3c-0.2-0.2-0.4-0.4-0.6-0.5c-0.2-0.2-0.4-0.3-0.5-0.4c-0.1,0-0.1-0.1-0.2-0.1l0.3,0l0,0c0.1,0.1,0.2,0.1,0.2,0.1
				s-0.1-0.1-0.2-0.2c-0.1-0.1-0.3-0.3-0.5-0.4c-0.4-0.3-1-0.7-1.6-1.1c-0.6-0.4-1.3-0.7-1.8-0.9c-0.3-0.1-0.5-0.1-0.7-0.2
				c-0.2,0-0.3-0.1-0.3-0.1v0.9c-0.4-0.2-0.8-0.3-1.2-0.5c-1-0.4-2.1-0.7-3.1-1c-1-0.2-2-0.4-2.8-0.5c-0.4-0.1-0.8-0.1-1.2-0.1
				c-0.3,0-0.7,0-0.9,0c-0.5,0-0.8,0-0.8,0l0,0.2c-0.4-0.1-0.9-0.1-1.2-0.1c-1.2-0.1-2.2-0.2-2.9-0.3c-0.7-0.1-1.1-0.1-1.1-0.1v2.4
				c-1.4,0-2.4,0-2.4,0l0.1,1.6c-0.1,0-0.2,0-0.2,0l0,0.2C38.8,26,38.3,26,38,26c-0.5,0-0.8,0-0.8,0l0.1,2c0,0,0,0,0,0
				c-0.4,0.1-0.8,0.1-1.1,0.2c-0.6,0.2-1,0.2-1,0.2l0.5,1.5c-0.8,0.6-1.4,1.2-1.8,1.6c-0.3,0.3-0.4,0.5-0.5,0.7
				c-0.1,0.2-0.2,0.3-0.2,0.3l1.3,0.8c0,0,0-0.1,0.1-0.2c0.1-0.1,0.1-0.2,0.2-0.4l0.3,0.2c0,0,0.1-0.4,0.6-0.8
				c0.5-0.4,1.6-0.6,2.7-0.5c1.1,0.1,2.2,0.3,3,0.6c0.8,0.3,1.3,0.5,1.3,0.5s-0.5-0.3-1.3-0.7c-0.8-0.4-1.9-0.8-3-1.1
				c-0.2,0-0.4-0.1-0.7-0.1c0.2-0.1,0.3-0.1,0.5-0.2c0.2-0.1,0.4-0.1,0.7-0.2c0.9-0.3,2-0.5,3.2-0.7c1.2-0.2,2.5-0.2,3.8-0.2
				c1.3,0,2.6,0.1,3.9,0.3c1.2,0.2,2.4,0.4,3.4,0.7c0.2,0.1,0.5,0.1,0.7,0.2c0.2,0.1,0.4,0.1,0.6,0.2c0.6,0.2,1.1,0.4,1.5,0.6
				c0.3,0.1,0.6,0.3,0.7,0.3c0.2,0.1,0.3,0.1,0.3,0.1s-0.1,0-0.3-0.1c-0.2-0.1-0.4-0.2-0.7-0.4c-0.1,0-0.2-0.1-0.2-0.1
				c0.4,0.2,0.7,0.2,0.7,0.2s-0.3-0.2-0.8-0.4c-0.3-0.1-0.6-0.3-1-0.5c-0.2-0.1-0.4-0.2-0.6-0.3c-0.2-0.1-0.4-0.2-0.7-0.3
				c-0.9-0.4-2.1-0.8-3.3-1.1c-1.2-0.3-2.6-0.6-4-0.8c-0.6-0.1-1.1-0.1-1.7-0.2c1.8-0.3,4-0.6,6.2-0.6c2.8,0,5.6,0.4,7.5,1.2
				c0.5,0.2,0.9,0.4,1.3,0.6c0.4,0.2,0.7,0.4,1,0.6c0.5,0.4,0.8,0.6,0.8,0.6s-0.3-0.2-0.7-0.7c-0.2-0.2-0.5-0.4-0.9-0.7
				c-0.3-0.3-0.8-0.5-1.2-0.8c-0.6-0.4-1.4-0.7-2.2-1c-0.1,0-0.3-0.2-0.6-0.3c-0.2-0.1-0.5-0.2-0.8-0.4c-0.2-0.1-0.3-0.1-0.5-0.2
				c-0.2-0.1-0.4-0.1-0.6-0.2c-0.3-0.1-0.6-0.2-0.9-0.3c0.3,0,0.5,0.1,0.8,0.1c1.5,0.2,3,0.5,4.4,1c0.8,0.3,1.5,0.5,2.1,0.8l0,0.1
				c0,0,0.1,0,0.3,0.1c0,0,0.1,0,0.1,0c0.4,0.2,0.7,0.3,1.1,0.5c0,0,0.1,0,0.1,0.1c0.2,0.1,0.3,0.3,0.5,0.4c0.3,0.3,0.6,0.8,0.8,1.2
				c0.4,0.9,0.7,2,0.8,2.8c0.1,0.8,0.2,1.4,0.2,1.4s0.1-0.5,0.1-1.4c0-0.7,0-1.5-0.2-2.4c0.6,0.9,1,2.2,1.3,3.6
				c0.3,1.6,0.3,3.2,0.4,4.4c0.1,1.2,0.1,2,0.1,2s0.1-0.8,0.1-2C66.2,36.9,66.3,35.3,66.2,33.6z M59.5,25.1
				C59.5,25.1,59.5,25.1,59.5,25.1L59.5,25.1c-0.1,0-0.2,0-0.3-0.1C59.3,25.1,59.4,25.1,59.5,25.1z M60.9,25.9
				C60.9,25.9,60.9,25.8,60.9,25.9L60.8,26c-0.2-0.1-0.3-0.2-0.5-0.3c0,0-0.1,0-0.1-0.1c0,0,0,0,0,0c-0.3-0.2-0.5-0.4-0.7-0.4
				c0.5,0.2,1,0.3,1.4,0.5C61,25.7,61,25.8,60.9,25.9z M54.6,26.1c0.2,0.1,0.3,0.1,0.5,0.1c0.3,0.1,0.6,0.2,0.8,0.3
				c0.1,0,0.2,0.1,0.3,0.1c-0.7-0.2-1.4-0.5-2.1-0.6C54.2,26.1,54.4,26.1,54.6,26.1z"/>
			<path class="st3" d="M62.7,22.8c0-0.1,0.2-0.4,0.5-0.5c0.3-0.1,0.7-0.2,1-0.2c0.3,0,0.5,0,0.5,0s-0.2-0.1-0.5-0.3
				c-0.3-0.1-0.7-0.3-1.2-0.3c-0.5,0-1.1,0.1-1.4,0.5c-0.1,0.1-0.2,0.2-0.2,0.3c-0.1,0.1-0.1,0.2-0.1,0.2c0,0.1-0.1,0.2-0.1,0.2
				l1.5,0.2C62.7,23,62.7,22.9,62.7,22.8z"/>
		</g>
	</g>
</g>
</svg>
