<?xml version="1.0" encoding="utf-8"?>
<!-- Generator: Adobe Illustrator 26.1.0, SVG Export Plug-In . SVG Version: 6.00 Build 0)  -->
<svg version="1.1" id="Layer_1" xmlns="http://www.w3.org/2000/svg" xmlns:xlink="http://www.w3.org/1999/xlink" x="0px" y="0px"
	 viewBox="0 0 100 100" style="enable-background:new 0 0 100 100;" xml:space="preserve">
<style type="text/css">
	.st0{fill:#F15C32;}
	.st1{opacity:0.1;}
	.st2{clip-path:url(#SVGID_00000067222233330334879070000006540866464851583934_);}
	.st3{fill:#FEE1B9;}
	.st4{fill:#FFD9AC;}
	.st5{fill:#FFFFFF;}
	.st6{fill:#726658;}
	.st7{fill:#7BD2E5;}
	.st8{fill:#75CCDB;}
	.st9{fill:#891400;}
	.st10{fill:#BA4830;}
</style>
<g id="ava_01_00000018922382985218126810000008640862846081168032_">
	<circle class="st0" cx="50" cy="50" r="45"/>
	<path class="st1" d="M65.1,22.2L61.3,26l-4-4L32.2,47.2l10.1,10.1l-2,2l5.8,5.8l-3.7,3.7l23.3,23.3C82.2,86,94.1,70.5,94.9,52
		L65.1,22.2z"/>
	<g>
		<defs>
			<circle id="SVGID_1_" cx="50" cy="50" r="45"/>
		</defs>
		<clipPath id="SVGID_00000011726470397227288460000006656519954721729188_">
			<use xlink:href="#SVGID_1_"  style="overflow:visible;"/>
		</clipPath>
		<g style="clip-path:url(#SVGID_00000011726470397227288460000006656519954721729188_);">
			<path class="st3" d="M30.8,44.2c-0.2-2.4,1.1-4.5,2.9-4.8c1.9-0.3,3.6,1.5,3.8,3.9c0.2,2.4-1.1,4.5-2.9,4.8
				C32.7,48.3,31,46.6,30.8,44.2z"/>
			<g>
				<g>
					<g>
						<g>
							<path class="st4" d="M65.3,48c-1.8-0.2-3.1-2.3-2.8-4.7c0.3-2.4,2.1-4.2,3.9-4c1.8,0.2,3.1,2.3,2.8,4.7
								C68.8,46.5,67.1,48.3,65.3,48z"/>
						</g>
					</g>
					<g>
						<g>
							<path class="st3" d="M50.1,24.8c0,0-15.2,1.9-15.2,10c0,0,0,11,0,14.2c0,3.2,5.2,12.4,9.8,12.7c2.3,0.2,5.4,0.5,5.4,0.5
								s3.1-0.3,5.4-0.5c4.7-0.4,9.8-9.5,9.8-12.7c0-3.2,0-14.2,0-14.2C65.4,26.7,50.1,24.8,50.1,24.8z"/>
						</g>
						<g>
							<path class="st4" d="M65.3,34.9c0,0,0,11,0,14.2c0,3.2-5.2,12.4-9.8,12.7c-2.3,0.2-5.4,0.5-5.4,0.5V24.8
								C50.1,24.8,65.3,26.7,65.3,34.9z"/>
						</g>
					</g>
					<path class="st5" d="M50,57.1c2.1,0,3.9-1.5,3.9-3.4h-7.7C46.1,55.6,47.9,57.1,50,57.1z"/>
					<path class="st6" d="M59.1,44.6c0-0.7-0.6-1.3-1.3-1.3c-0.7,0-1.3,0.6-1.3,1.3c0,0.7,0.6,1.3,1.3,1.3
						C58.5,46,59.1,45.4,59.1,44.6z"/>
					<path class="st6" d="M43.7,44.1c0-0.7-0.6-1.3-1.3-1.3c-0.7,0-1.3,0.6-1.3,1.3c0,0.7,0.6,1.3,1.3,1.3
						C43.1,45.4,43.7,44.8,43.7,44.1z"/>
				</g>
			</g>
			<path class="st3" d="M82.6,95c0,0-2.3-17.4-5.6-22c-4.2-5.1-19.7-2.2-19.7-8.8c0,0,0,0,0-0.1v-6H42.9v6.1
				C42.8,70.7,27.2,67.9,23,73c-3.3,4.6-5.6,22-5.6,22H82.6z"/>
			<path class="st4" d="M50,58.1V95h32.6c0,0-2.3-17.4-5.6-22c-4.2-5.1-19.7-2.2-19.7-8.8c0,0,0,0,0-0.1v-6H50z"/>
			<path class="st7" d="M77,73c-4.1-4.9-18.9-2.4-19.7-8.3c-2,1-4.5,1.5-7.2,1.5c-2.7,0-5.2-0.6-7.2-1.5C42,70.6,27.1,68,23,73
				c-3.3,4.6-5.6,22-5.6,22h65.2C82.6,95,80.3,77.6,77,73z"/>
			<path class="st8" d="M57.3,64.7c-2,1-4.5,1.5-7.2,1.5c0,0,0,0-0.1,0V95h32.6c0,0-2.3-17.4-5.6-22C72.9,68,58.1,70.6,57.3,64.7z"
				/>
			<path class="st9" d="M62.9,41v-8.8c0,0-6.2-3.2-12.8-3.1c0-9,0-12.6,0-12.6s17,2.1,17,10.1c0,8.1-1.3,12.9-1.3,12.9
				S63.7,39.5,62.9,41z"/>
			<path class="st10" d="M37.3,41v-8.8c0,0,6.2-3.2,12.8-3.1c0-9,0-12.6,0-12.6s-16.5,2.1-16.5,10.1c0,8.1,0.8,12.9,0.8,12.9
				S36.5,39.5,37.3,41z"/>
		</g>
		<g style="clip-path:url(#SVGID_00000011726470397227288460000006656519954721729188_);">
			<g>
				<g>
					<path class="st9" d="M45.1,41.6c-0.1,0-0.2,0-0.2-0.1c-0.5-0.6-1.4-1-2.5-1c-1.1,0-2,0.4-2.5,1c-0.1,0.1-0.3,0.1-0.4,0.1
						c-0.1-0.1-0.1-0.3-0.1-0.4c0.6-0.8,1.7-1.2,2.9-1.2s2.3,0.5,2.9,1.2c0.1,0.1,0.1,0.3-0.1,0.4C45.2,41.6,45.1,41.6,45.1,41.6z"
						/>
				</g>
			</g>
		</g>
		<g style="clip-path:url(#SVGID_00000011726470397227288460000006656519954721729188_);">
			<g>
				<path class="st9" d="M60.5,41.6c-0.1,0-0.2,0-0.2-0.1c-0.5-0.6-1.4-1-2.5-1c-1.1,0-2,0.4-2.5,1c-0.1,0.1-0.3,0.1-0.4,0.1
					c-0.1-0.1-0.1-0.3-0.1-0.4c0.6-0.8,1.7-1.2,2.9-1.2c1.2,0,2.3,0.5,2.9,1.2c0.1,0.1,0.1,0.3-0.1,0.4
					C60.6,41.6,60.5,41.6,60.5,41.6z"/>
			</g>
		</g>
	</g>
</g>
</svg>
