<?xml version="1.0" encoding="utf-8"?>
<!-- Generator: Adobe Illustrator 26.1.0, SVG Export Plug-In . SVG Version: 6.00 Build 0)  -->
<svg version="1.1" id="Layer_1" xmlns="http://www.w3.org/2000/svg" xmlns:xlink="http://www.w3.org/1999/xlink" x="0px" y="0px"
	 viewBox="0 0 100 100" style="enable-background:new 0 0 100 100;" xml:space="preserve">
<style type="text/css">
	.st0{fill:#2D5B73;}
	.st1{opacity:0.1;}
	.st2{clip-path:url(#SVGID_00000035512098229763994470000011584563284282594213_);}
	.st3{fill:#FEE1B9;}
	.st4{fill:#FFD9AC;}
	.st5{fill:#726658;}
	.st6{fill:#303030;}
	.st7{fill:#2F343A;}
	.st8{fill:#152235;}
	.st9{fill:#B9C7D0;}
	.st10{fill:#B84830;}
	.st11{fill:#891400;}
	.st12{fill:#314260;}
	.st13{fill:#28374E;}
	.st14{fill:#D0D4D7;}
	.st15{fill:#FFFFFF;}
	.st16{fill:#4A4C4B;}
</style>
<g id="ava_09_00000067936152215991222870000004139138302280030364_">
	<g>
		<g>
			<path class="st0" d="M95,50C95,25.1,74.9,5,50,5C25.1,5,5,25.1,5,50c0,24.9,20.1,45,45,45C74.9,95,95,74.9,95,50z"/>
			<path class="st1" d="M70,90.3c13.8-6.8,23.5-20.5,24.9-36.6l-31-31l-1.1,1.1L60.9,22L30.7,42l10.8,10.8L37,57.3L70,90.3z"/>
		</g>
	</g>
	<g>
		<defs>
			<path id="SVGID_1_" d="M95,50C95,25.1,74.9,5,50,5C25.1,5,5,25.1,5,50c0,24.9,20.1,45,45,45C74.9,95,95,74.9,95,50z"/>
		</defs>
		<clipPath id="SVGID_00000004538810915536369530000003332515007748829317_">
			<use xlink:href="#SVGID_1_"  style="overflow:visible;"/>
		</clipPath>
		<g style="clip-path:url(#SVGID_00000004538810915536369530000003332515007748829317_);">
			<g>
				<polygon class="st3" points="57.4,73.3 49.9,95 42.5,73.3 42.5,56.6 57.4,56.6 				"/>
				<polygon class="st4" points="49.9,95 57.4,73.3 57.4,56.6 49.9,56.6 				"/>
				<path class="st4" d="M29.8,39.3c-0.3-2.5,1.1-4.7,3-5c1.9-0.3,3.7,1.6,4,4.1c0.3,2.5-1.1,4.7-3,5C31.8,43.7,30.1,41.8,29.8,39.3
					z"/>
				<g>
					<g>
						<g>
							<path class="st3" d="M70.2,39.2c0.3-2.5-1-4.7-2.9-4.9c-1.9-0.2-3.7,1.6-4.1,4.2c-0.3,2.5,1,4.7,2.9,4.9
								C68,43.6,69.9,41.8,70.2,39.2z"/>
						</g>
						<g>
							<g>
								<path class="st3" d="M50,18.3c0,0-15.9,0.7-15.9,9.2c0,0,0,16.3,0,19.6c0,3.3,5.4,12.9,10.3,13.3c2.4,0.2,5.6,0.5,5.6,0.5
									s3.2-0.3,5.6-0.5c4.9-0.4,10.2-9.9,10.2-13.3c0-3.3,0-19.2,0-19.2C65.8,19.5,50,18.3,50,18.3z"/>
							</g>
							<g>
								<path class="st3" d="M50,18.3c0,0-15.9,0.7-15.9,9.2c0,0,0,16.3,0,19.6c0,3.3,5.4,12.9,10.3,13.3c2.4,0.2,5.6,0.5,5.6,0.5
									s3.2-0.3,5.6-0.5c4.9-0.4,10.2-9.9,10.2-13.3c0-3.3,0-19.2,0-19.2C65.8,19.5,50,18.3,50,18.3z"/>
							</g>
							<g>
								<path class="st4" d="M65.8,28c0,0,0,15.8,0,19.2c0,3.3-5.4,12.9-10.3,13.3c-2.4,0.2-5.6,0.5-5.6,0.5V18.3
									C49.9,18.3,65.8,19.5,65.8,28z"/>
							</g>
						</g>
					</g>
				</g>
				<path class="st3" d="M50,95V68.3c0,0-5.7-1.4-7-6c-0.6-2.2-0.6-1.7-0.6,0.6c0,6.9-16.1,3.9-20.5,9.2c-3.4,4.8-5.8,23-5.8,23H50z
					"/>
				<path class="st4" d="M49.9,95V66.9c0,0,5.4-0.1,6.5-2.7c0.4-1,1-3.6,1-1.3c0,6.9,16.2,3.9,20.6,9.2c3.4,4.8,5.8,23,5.8,23H49.9z
					"/>
				<g>
					<path class="st5" d="M59,40.6c0-0.7-0.6-1.3-1.3-1.3c-0.7,0-1.3,0.6-1.3,1.3c0,0.7,0.6,1.3,1.3,1.3C58.4,41.9,59,41.3,59,40.6z
						"/>
					<path class="st5" d="M43.6,40c0-0.7-0.6-1.3-1.3-1.3S41,39.3,41,40c0,0.7,0.6,1.3,1.3,1.3S43.6,40.8,43.6,40z"/>
					<g>
						<g>
							<g>
								<path class="st6" d="M45,37.5c-0.1,0-0.2,0-0.2-0.1c-0.5-0.6-1.4-1-2.5-1c-1.1,0-2,0.4-2.5,1c-0.1,0.1-0.3,0.1-0.4,0.1
									c-0.1-0.1-0.1-0.3-0.1-0.4c0.6-0.8,1.7-1.2,2.9-1.2c1.2,0,2.3,0.5,2.9,1.2c0.1,0.1,0.1,0.3-0.1,0.4
									C45.1,37.5,45,37.5,45,37.5z"/>
							</g>
						</g>
					</g>
					<g>
						<g>
							<g>
								<path class="st6" d="M60.4,37.5c-0.1,0-0.2,0-0.2-0.1c-0.5-0.6-1.4-1-2.5-1c-1.1,0-2,0.4-2.5,1c-0.1,0.1-0.3,0.1-0.4,0.1
									c-0.1-0.1-0.1-0.3-0.1-0.4c0.6-0.8,1.7-1.2,2.9-1.2c1.2,0,2.3,0.5,2.9,1.2c0.1,0.1,0.1,0.3-0.1,0.4
									C60.5,37.5,60.4,37.5,60.4,37.5z"/>
							</g>
						</g>
					</g>
				</g>
			</g>
			<g>
				<path class="st7" d="M40.5,65.9c0,0-15.6,2-19.1,6.3c-2.8,3.5-4.8,18.7-5.7,22.8C41.3,95,50,95,50,95V68.5L40.5,65.9z"/>
				<path class="st8" d="M59.5,65.9c0,0,15,1.8,18.5,6.2c2.8,3.5,5.4,18.9,6.3,23C58.7,95,50,95,50,95V68.5L59.5,65.9z"/>
				<polyline class="st9" points="59.7,65.5 50,67.5 40.3,65.5 50,95 				"/>
				<polygon class="st10" points="51.1,73 53.3,70.8 50,67.5 46.7,70.8 48.9,73 45.9,89.2 50,95 54.1,89.2 				"/>
				<polygon class="st11" points="53.3,70.8 50,67.5 49.9,67.5 49.9,94.9 50,95 54.1,89.2 51.1,73 				"/>
				<polygon class="st12" points="43,78.2 31.9,67.5 42,65 50,95 38.9,79.1 				"/>
				<polygon class="st13" points="57,78.2 68.1,67.5 58.1,65 50,95 61.1,79.1 				"/>
				<polygon class="st14" points="50,67.5 57.8,63.6 61.8,65.9 55.2,75.2 				"/>
				<polygon class="st15" points="50,67.5 42.2,63.6 38.2,65.9 46.1,75.2 				"/>
			</g>
			<path class="st16" d="M40,20.4v0.5v6.4l-3.1,7.2l-2.7,5.9c0,0-1.2-7.7-1.1-10.4c0.1-2.8,1.3-5.5,2.6-6.8C37,21.8,40,20.4,40,20.4
				z"/>
			<path class="st6" d="M59.7,20.4v0.5v6.4l3.1,7.2l2.7,5.9c0,0,1.2-7.7,1.1-10.4c-0.1-2.8-1.3-5.5-2.6-6.8
				C62.7,21.8,59.7,20.4,59.7,20.4z"/>
			<path class="st6" d="M59.9,54.1c-3.4,0-5.9-2.8-9.9-2.8c0,0,0,0,0,0V63c0,0,0,0,0,0h0c3.3,0,10-3.1,12-4.9
				c2.5-1.7,3.8-8.5,3.8-8.5v-5.8l-0.8,4.9C64.2,51.1,62.6,54.1,59.9,54.1z"/>
			<path class="st16" d="M40.1,54.1c3.4,0,5.9-2.8,9.9-2.8c0,0,0,0,0,0V63c0,0,0,0,0,0h0c-3.3,0-10-3.1-12-4.9
				c-2.5-1.7-3.8-8.5-3.8-8.5v-5.8l0.8,4.9C35.8,51.1,37.3,54.1,40.1,54.1z"/>
			<path class="st15" d="M50,58.3c1.8,0,3.3-1.3,3.3-2.8h-6.6C46.7,57,48.2,58.3,50,58.3z"/>
		</g>
	</g>
</g>
</svg>
