<?xml version="1.0" encoding="utf-8"?>
<!-- Generator: Adobe Illustrator 26.1.0, SVG Export Plug-In . SVG Version: 6.00 Build 0)  -->
<svg version="1.1" id="Layer_1" xmlns="http://www.w3.org/2000/svg" xmlns:xlink="http://www.w3.org/1999/xlink" x="0px" y="0px"
	 viewBox="0 0 100 100" style="enable-background:new 0 0 100 100;" xml:space="preserve">
<style type="text/css">
	.st0{fill:#13B4BE;}
	.st1{opacity:0.1;}
	.st2{clip-path:url(#SVGID_00000153682354007734362140000001392788803315771299_);}
	.st3{fill:#FEE1B9;}
	.st4{fill:#FFD9AC;}
	.st5{fill:#D0D4D7;}
	.st6{fill:#B9C7D0;}
	.st7{fill:#436B85;}
	.st8{fill:#315D76;}
	.st9{fill:#FFFFFF;}
	.st10{fill:#726658;}
	.st11{fill:#61402F;}
</style>
<g id="ava_08_00000128461996734845542250000003936450987686635415_">
	<g>
		<g>
			<path class="st0" d="M95,50C95,25.1,74.9,5,50,5C25.1,5,5,25.1,5,50c0,24.9,20.1,45,45,45C74.9,95,95,74.9,95,50z"/>
		</g>
	</g>
	<path class="st1" d="M94.8,45.6L71.1,21.9l-3,3l-1.8-1.8L63,26.5L56.4,20L31.2,45.1l11.3,11.3l-2.1,2.1l31,31
		C85.5,81.9,95,67.1,95,50C95,48.5,94.9,47,94.8,45.6z"/>
	<g>
		<defs>
			<path id="SVGID_1_" d="M95,50C95,25.1,74.9,5,50,5C25.1,5,5,25.1,5,50c0,24.9,20.1,45,45,45C74.9,95,95,74.9,95,50z"/>
		</defs>
		<clipPath id="SVGID_00000152222993218975025710000017089544044783220102_">
			<use xlink:href="#SVGID_1_"  style="overflow:visible;"/>
		</clipPath>
		<g style="clip-path:url(#SVGID_00000152222993218975025710000017089544044783220102_);">
			<g>
				<g>
					<polygon class="st3" points="57.4,73.2 49.9,94.9 42.5,73.2 42.5,56.5 57.4,56.5 					"/>
					<polygon class="st4" points="49.9,94.9 57.4,73.2 57.4,56.5 49.9,56.5 					"/>
					<path class="st3" d="M29.8,41.6c-0.3-2.5,1.1-4.7,3-5c1.9-0.3,3.7,1.6,4,4.1c0.3,2.5-1.1,4.7-3,5
						C31.8,45.9,30.1,44.1,29.8,41.6z"/>
					<g>
						<g>
							<g>
								<g>
									<path class="st4" d="M66.1,45.7c-1.9-0.2-3.2-2.4-2.9-4.9c0.3-2.5,2.1-4.4,4.1-4.2c1.9,0.2,3.2,2.4,2.9,4.9
										C69.9,44,68,45.9,66.1,45.7z"/>
								</g>
							</g>
							<g>
								<g>
									<path class="st3" d="M50,20.6c0,0-15.9,0.7-15.9,9.2c0,0,0,13.9,0,17.3c0,3.3,5.4,12.9,10.3,13.3c2.4,0.2,5.6,0.5,5.6,0.5
										s3.2-0.3,5.6-0.5c4.9-0.4,10.2-9.9,10.2-13.3c0-3.3,0-16.8,0-16.8C65.8,21.8,50,20.6,50,20.6z"/>
								</g>
								<g>
									<path class="st3" d="M50,20.6c0,0-15.9,0.7-15.9,9.2c0,0,0,13.9,0,17.3c0,3.3,5.4,12.9,10.3,13.3c2.4,0.2,5.6,0.5,5.6,0.5
										s3.2-0.3,5.6-0.5c4.9-0.4,10.2-9.9,10.2-13.3c0-3.3,0-16.8,0-16.8C65.8,21.8,50,20.6,50,20.6z"/>
								</g>
								<g>
									<path class="st4" d="M65.8,30.2c0,0,0,13.5,0,16.8c0,3.3-5.4,12.9-10.3,13.3c-2.4,0.2-5.6,0.5-5.6,0.5V20.6
										C49.9,20.6,65.8,21.8,65.8,30.2z"/>
								</g>
							</g>
						</g>
					</g>
					<path class="st3" d="M50,94.9V68.2c0,0-5.7-1.4-7-6c-0.6-2.2-0.6-1.7-0.6,0.6c0,6.9-16.1,3.9-20.5,9.2c-3.4,4.8-5.8,23-5.8,23
						H50z"/>
					<path class="st4" d="M49.9,94.9V66.8c0,0,5.4-0.1,6.5-2.7c0.4-1,1-3.6,1-1.3c0,6.9,16.2,3.9,20.6,9.2c3.4,4.8,5.8,23,5.8,23
						H49.9z"/>
				</g>
				<g>
					<path class="st5" d="M40.5,65.9c0,0-15.7,2.1-19.2,6.4c-2.8,3.5-4.7,18.6-5.6,22.7C41.3,95,50,95,50,95V68.5L40.5,65.9z"/>
					<path class="st6" d="M59.5,65.9c0,0,15.8,2.1,19.2,6.5c2.8,3.5,4.6,18.5,5.5,22.6C58.7,95,50,95,50,95V68.5L59.5,65.9z"/>
					<polyline class="st5" points="49.9,86.2 50,67.5 40.3,65.5 50,95 					"/>
					<polygon class="st7" points="51.1,73 53.3,70.8 50,67.5 46.7,70.8 48.9,73 45.9,89.2 50,95 54.1,89.2 					"/>
					<polygon class="st8" points="53.3,70.8 50,67.5 49.9,67.5 49.9,94.9 50,95 54.1,89.2 51.1,73 					"/>
					<polygon class="st5" points="50,67.5 57.8,63.6 61.8,65.9 55.2,75.2 					"/>
					<polygon class="st9" points="50,67.5 42.2,63.6 38.2,65.9 46.1,75.2 					"/>
				</g>
				<g>
					<path class="st9" d="M49.8,55.1c2.1,0,3.9-1.5,3.9-3.4h-7.7C45.9,53.6,47.7,55.1,49.8,55.1z"/>
					<path class="st10" d="M58.9,42.7c0-0.7-0.6-1.3-1.3-1.3c-0.7,0-1.3,0.6-1.3,1.3c0,0.7,0.6,1.3,1.3,1.3
						C58.3,44,58.9,43.4,58.9,42.7z"/>
					<path class="st10" d="M43.5,42.1c0-0.7-0.6-1.3-1.3-1.3c-0.7,0-1.3,0.6-1.3,1.3c0,0.7,0.6,1.3,1.3,1.3
						C42.9,43.5,43.5,42.9,43.5,42.1z"/>
					<g>
						<g>
							<path class="st11" d="M44.9,39.6c-0.1,0-0.2,0-0.2-0.1c-0.5-0.6-1.4-1-2.5-1c-1.1,0-2,0.4-2.5,1c-0.1,0.1-0.3,0.1-0.4,0.1
								c-0.1-0.1-0.1-0.3-0.1-0.4c0.6-0.8,1.7-1.2,2.9-1.2c1.2,0,2.3,0.5,2.9,1.2c0.1,0.1,0.1,0.3-0.1,0.4
								C45,39.6,44.9,39.6,44.9,39.6z"/>
						</g>
					</g>
					<g>
						<g>
							<path class="st11" d="M60.3,39.6c-0.1,0-0.2,0-0.2-0.1c-0.5-0.6-1.4-1-2.5-1c-1.1,0-2,0.4-2.5,1c-0.1,0.1-0.3,0.1-0.4,0.1
								c-0.1-0.1-0.1-0.3-0.1-0.4c0.6-0.8,1.7-1.2,2.9-1.2c1.2,0,2.3,0.5,2.9,1.2c0.1,0.1,0.1,0.3-0.1,0.4
								C60.4,39.6,60.3,39.6,60.3,39.6z"/>
						</g>
					</g>
				</g>
			</g>
			<g>
				<g>
					<path class="st11" d="M32.6,40h1.5l2-14.1c0,0-4.6-1.8-5.6,3.7C29.6,35.2,32.6,40,32.6,40z"/>
					<path class="st11" d="M66.6,40h-1.5l-2-14.1c0,0,4.6-1.8,5.6,3.7C69.6,35.2,66.6,40,66.6,40z"/>
					<path class="st11" d="M34.4,27.3c0,0,6.5,5,15.4,5c9,0,17.4-2.8,21.3-10.3c-0.2,0.1-6.9-1.1-15.2-7.5
						C45.4,6.5,25.7,18.4,34.4,27.3z"/>
				</g>
			</g>
		</g>
	</g>
</g>
</svg>
