<?xml version="1.0" encoding="utf-8"?>
<!-- Generator: Adobe Illustrator 26.1.0, SVG Export Plug-In . SVG Version: 6.00 Build 0)  -->
<svg version="1.1" id="Layer_1" xmlns="http://www.w3.org/2000/svg" xmlns:xlink="http://www.w3.org/1999/xlink" x="0px" y="0px"
	 viewBox="0 0 100 100" style="enable-background:new 0 0 100 100;" xml:space="preserve">
<style type="text/css">
	.st0{clip-path:url(#SVGID_00000150066985584692418570000012459850638897467813_);}
	.st1{fill:none;stroke:#F8D9DE;stroke-width:0;stroke-linecap:round;stroke-linejoin:round;}
	.st2{fill:#F8D9DE;}
	.st3{fill:#CDA0A5;}
	.st4{fill:#EBA45C;}
	.st5{fill:none;stroke:#0A1F2D;stroke-width:0;stroke-linecap:round;stroke-linejoin:round;}
	.st6{fill:#0A1F2D;}
	.st7{fill:none;stroke:#6DCAB8;stroke-width:0;stroke-linecap:round;stroke-linejoin:round;}
	.st8{fill:#6DCAB8;}
</style>
<g>
	<defs>
		<ellipse id="SVGID_1_" transform="matrix(0.7071 -0.7071 0.7071 0.7071 -20.7107 50)" cx="50" cy="50" rx="45" ry="45"/>
	</defs>
	<use xlink:href="#SVGID_1_"  style="overflow:visible;fill:#CB3525;"/>
	<clipPath id="SVGID_00000132779917232690251220000006754898861969345698_">
		<use xlink:href="#SVGID_1_"  style="overflow:visible;"/>
	</clipPath>
	<g style="clip-path:url(#SVGID_00000132779917232690251220000006754898861969345698_);">
		<path class="st1" d="M71.23,95.89c0,0.01,0-0.05,0-0.1"/>
		<path class="st2" d="M45.88,72.24c0.28-0.06,0.57-0.11,0.86-0.15c0,0.1,0.03,0.2,0.08,0.3c0.33,0.67,1.62,1.17,3.18,1.17
			c1.55,0,2.85-0.5,3.18-1.17c0.05-0.1,0.07-0.2,0.08-0.3c0.29,0.04,0.57,0.1,0.86,0.15c0.06,0.01,0.12,0.02,0.18,0.04
			c0.51,0.1,1.01,0.22,1.5,0.36c-0.84-0.24-1.7-0.43-2.58-0.56V71.7c-1.75,0.24-3,0.2-3.28,0.19c-0.27,0.01-1.47,0.04-3.16-0.18
			v0.37c-0.88,0.13-1.74,0.33-2.58,0.56c0.49-0.14,1-0.26,1.5-0.36C45.76,72.27,45.82,72.26,45.88,72.24z"/>
		<path class="st2" d="M57.84,73.33c-0.02-0.01-0.04-0.01-0.05-0.02C57.8,73.31,57.82,73.32,57.84,73.33z"/>
		<path class="st2" d="M56.69,72.91c0.1,0.03,0.21,0.07,0.31,0.1C56.89,72.98,56.79,72.95,56.69,72.91z"/>
		<path class="st2" d="M71.23,93.14c0-0.03,0-0.05,0-0.08c0-3.36-0.78-6.54-2.18-9.37l-0.02,0.01
			C70.43,86.56,71.23,89.76,71.23,93.14z"/>
		<path class="st2" d="M34.91,57.22c-0.14-0.58,1.79,6.65,10.96,2.19c1.26-0.61,2.63-1.06,4.13-1.06c1.46,0,2.84,0.37,4.04,1.02l0,0
			c7.66,3.48,10.72-1.58,10.98-2.19c0.43-1.38,0.67-2.95,0.64-4.75c-0.16-11.37-9.77-13.26-9.77-13.26l-0.09-0.12
			c-0.88,2.35-3.14,4.02-5.8,4.02c-2.69,0-4.98-1.72-5.83-4.12L44,39.17c0,0-9.6,1.89-9.77,13.26c-0.03,1.98,0.26,3.7,0.78,5.17
			C34.97,57.47,34.94,57.35,34.91,57.22z"/>
		<path class="st2" d="M30.95,83.69c-1.39,2.83-2.18,6.01-2.18,9.37c0,0.03,0,0.06,0,0.09c0-3.39,0.79-6.59,2.2-9.44L30.95,83.69z"
			/>
		<path class="st2" d="M43,73.02c0.1-0.04,0.21-0.07,0.31-0.1C43.21,72.95,43.11,72.98,43,73.02z"/>
		<path class="st2" d="M55.82,72.65c0.16,0.04,0.31,0.09,0.47,0.14C56.13,72.74,55.97,72.69,55.82,72.65z"/>
		<path class="st2" d="M50,61.48c-2.26,0-5.8,0.75-6.8,2.67c1.83,1.69,4.8,2.11,6.74,2.11c1.97-0.01,5.83-0.63,7.28-2.11
			C56.24,62.42,52.43,61.48,50,61.48z M45.02,63.38h9.95C50.12,66.84,45.02,63.38,45.02,63.38z"/>
		<path class="st2" d="M43.71,72.79c0.16-0.05,0.31-0.1,0.47-0.14C44.03,72.69,43.87,72.74,43.71,72.79z"/>
		<path class="st2" d="M42.16,73.33c0.02-0.01,0.04-0.02,0.06-0.02C42.2,73.31,42.18,73.32,42.16,73.33z"/>
		<path class="st2" d="M30.72,50.06c-0.51,0.04-0.99,0.2-1.41,0.45c-0.94,0.56-1.57,1.58-1.57,2.76c0,1.78,1.44,3.21,3.22,3.21
			c0.01,0,0.01,0,0.02,0C30.69,54.58,30.58,52.45,30.72,50.06z"/>
		<path class="st2" d="M68.91,56.47c0.05,0,0.09,0.01,0.13,0.01c1.77,0,3.22-1.44,3.22-3.21c0-1.19-0.65-2.23-1.62-2.79
			c-0.44-0.25-0.94-0.4-1.47-0.42C69.3,52.45,69.2,54.57,68.91,56.47z"/>
		<path class="st3" d="M54.97,63.38h-9.95C45.02,63.38,50.12,66.84,54.97,63.38z"/>
		<path class="st4" d="M49.94,71.89c0.27,0.01,1.53,0.04,3.28-0.19c4.96-0.67,13.91-3.52,15.69-15.22c0.29-1.9,0.39-4.02,0.26-6.42
			c0.54,0.02,1.04,0.17,1.47,0.42c0.33-0.88,0.59-2.01,0.59-3.4c0-11.72-9.5-21.23-21.23-21.23c-11.72,0-21.23,9.5-21.23,21.23
			c0,1.5,0.23,2.61,0.54,3.43c0.42-0.25,0.9-0.41,1.41-0.45c-0.14,2.39-0.03,4.52,0.26,6.42c1.8,11.79,10.87,14.59,15.81,15.23
			C48.47,71.93,49.68,71.9,49.94,71.89z M49.94,66.26c-1.94-0.01-4.92-0.43-6.74-2.11c1-1.92,4.54-2.67,6.8-2.67
			c2.43,0,6.24,0.94,7.22,2.67C55.77,65.63,51.92,66.26,49.94,66.26z M34.23,52.43C34.39,41.06,44,39.17,44,39.17l0.17-0.22
			c0.85,2.4,3.14,4.12,5.83,4.12c2.65,0,4.92-1.67,5.8-4.02l0.09,0.12c0,0,9.6,1.89,9.77,13.26c0.03,1.8-0.21,3.37-0.64,4.75
			c-0.26,0.61-3.32,5.67-10.98,2.19l0,0c-1.2-0.65-2.58-1.02-4.04-1.02c-1.5,0-2.87,0.45-4.13,1.06c-9.17,4.45-11.1-2.77-10.96-2.19
			c0.03,0.12,0.06,0.25,0.1,0.38C34.49,56.12,34.2,54.41,34.23,52.43z"/>
		<path class="st5" d="M71.23,95.98c0,0.02,0-0.19,0-0.19"/>
		<path class="st5" d="M28.77,96c0,0.06,0,0.09,0,0.09"/>
		<path class="st5" d="M28.77,95.79c0,0.16,0,0.21,0,0.22"/>
		<path class="st6" d="M37.92,87.96l-6.95-4.25c-1.41,2.85-2.2,6.06-2.2,9.44c0,1.44,0,2.18,0,2.55c0,0.03,0,0.06,0,0.09h9.15V87.96
			z"/>
		<path class="st6" d="M46.82,72.39c-0.05-0.1-0.07-0.2-0.08-0.3C46.75,72.19,46.77,72.29,46.82,72.39z"/>
		<path class="st6" d="M53.26,72.09c0,0.1-0.03,0.2-0.08,0.3C53.23,72.29,53.25,72.19,53.26,72.09z"/>
		<path class="st6" d="M62.08,87.96v7.83h9.15h0c0-0.3,0-1.03,0-2.63c0,0,0-0.01,0-0.01c0-3.38-0.79-6.59-2.2-9.44L62.08,87.96z"/>
		<path class="st6" d="M54.3,72.28c-0.06-0.01-0.12-0.02-0.18-0.04C54.18,72.26,54.24,72.27,54.3,72.28z"/>
		<path class="st6" d="M45.88,72.24c-0.06,0.01-0.12,0.02-0.18,0.04C45.76,72.27,45.82,72.26,45.88,72.24z"/>
		<path class="st7" d="M28.62,95.88c0,0.22,0,0.3,0,0.31"/>
		<path class="st7" d="M71.38,95.88c0,0,0,0.21,0,0.19"/>
		<path class="st8" d="M57,73.02c-0.1-0.04-0.21-0.07-0.31-0.1c-0.13-0.04-0.27-0.09-0.4-0.13c-0.16-0.05-0.31-0.1-0.47-0.14
			c-0.01,0-0.01,0-0.02,0c-0.49-0.14-0.99-0.26-1.5-0.36c-0.06-0.01-0.12-0.02-0.18-0.04c-0.28-0.06-0.57-0.11-0.86-0.15
			c0,0.1-0.03,0.2-0.08,0.3c-0.33,0.67-1.62,1.17-3.18,1.17c-1.55,0-2.85-0.5-3.18-1.17c-0.05-0.1-0.07-0.2-0.08-0.3
			c-0.29,0.04-0.57,0.1-0.86,0.15c-0.06,0.01-0.12,0.02-0.18,0.04c-0.51,0.1-1.01,0.22-1.5,0.36c0,0-0.01,0-0.01,0
			c-0.16,0.04-0.31,0.09-0.47,0.14c-0.13,0.04-0.27,0.08-0.4,0.13c-0.1,0.03-0.21,0.07-0.31,0.1c-0.26,0.09-0.53,0.19-0.78,0.29
			c-0.02,0.01-0.04,0.01-0.06,0.02c-4.91,1.94-8.93,5.64-11.28,10.32l0.07,0.04l0.02,0.01l6.95,4.25v7.83v0.08h24.17v-0.08v-7.83
			l6.95-4.25l0.02-0.01l0.07-0.04c-2.35-4.69-6.37-8.39-11.29-10.32c-0.02-0.01-0.04-0.01-0.05-0.02
			C57.52,73.21,57.26,73.11,57,73.02z"/>
	</g>
</g>
</svg>
