<?xml version="1.0" encoding="utf-8"?>
<!-- Uploaded to: SVG Repo, www.svgrepo.com, Generator: SVG Repo Mixer Tools -->
<svg width="800px" height="800px" viewBox="-7.72 0 76.029 76.029" xmlns="http://www.w3.org/2000/svg">
  <g id="medal_gold" data-name="medal gold" transform="translate(-1075.457 -1001.04)">
    <path id="Path_104" data-name="Path 104" d="M1132.6,1050.226a26.843,26.843,0,1,1-26.847-26.842A26.851,26.851,0,0,1,1132.6,1050.226Z" fill="#fdb53f"/>
    <path id="Path_105" data-name="Path 105" d="M1123.98,1050.226A18.228,18.228,0,1,1,1105.749,1032,18.235,18.235,0,0,1,1123.98,1050.226Z" fill="#fc9a42"/>
    <path id="Path_106" data-name="Path 106" d="M1119.73,1050.226a13.98,13.98,0,1,1-13.981-13.981A13.982,13.982,0,0,1,1119.73,1050.226Z" fill="#f9c543"/>
    <path id="Path_107" data-name="Path 107" d="M1119.192,1001.04l-24.977,24.977a26.621,26.621,0,0,1,25.668,1.423l10.418-10.419,5.747-5.743V1001.04Z" fill="#bc4330"/>
    <path id="Path_108" data-name="Path 108" d="M1091.621,1027.437a26.6,26.6,0,0,1,25.657-1.418l-24.967-24.979h-16.854v10.238l5.741,5.743Z" fill="#ff5245"/>
  </g>
</svg>