<?xml version="1.0" encoding="utf-8"?>
<!-- Generator: Adobe Illustrator 26.1.0, SVG Export Plug-In . SVG Version: 6.00 Build 0)  -->
<svg version="1.1" id="Layer_1" xmlns="http://www.w3.org/2000/svg" xmlns:xlink="http://www.w3.org/1999/xlink" x="0px" y="0px"
	 viewBox="0 0 100 100" style="enable-background:new 0 0 100 100;" xml:space="preserve">
<style type="text/css">
	.st0{clip-path:url(#SVGID_00000013163797691065950100000016933243141756298679_);}
	.st1{fill:#EABD1E;}
	.st2{fill:#FECF07;}
	.st3{fill:#FFFFFF;}
	.st4{clip-path:url(#SVGID_00000132050334478103340140000005483603964661715352_);}
	.st5{clip-path:url(#SVGID_00000075847932202517601460000016608481395256461235_);}
	.st6{clip-path:url(#SVGID_00000102517245137245231450000010113333864583814553_);}
</style>
<g>
	<g>
		<g>
			<defs>
				<path id="SVGID_1_" d="M87.15,77.18c0,7.12-16.11,12.9-35.99,12.9c-19.88,0-35.99-5.77-35.99-12.9c0-2.53-0.89-10.82,0.43-11.92
					c5.63-4.69,22.74-0.97,35.56-0.97c16,0,30.73-4.51,35.41,0.66C87.71,66.2,87.15,75.79,87.15,77.18z"/>
			</defs>
			<use xlink:href="#SVGID_1_"  style="overflow:visible;fill:#CB9A2B;"/>
			<clipPath id="SVGID_00000080191431737346967080000013348950526918318992_">
				<use xlink:href="#SVGID_1_"  style="overflow:visible;"/>
			</clipPath>
			<g style="clip-path:url(#SVGID_00000080191431737346967080000013348950526918318992_);">
				<rect x="18.36" y="59.33" class="st1" width="3.35" height="32.82"/>
			</g>
			<g style="clip-path:url(#SVGID_00000080191431737346967080000013348950526918318992_);">
				<rect x="25.06" y="69.38" class="st1" width="10.05" height="29.48"/>
			</g>
			<g style="clip-path:url(#SVGID_00000080191431737346967080000013348950526918318992_);">
				<rect x="79.99" y="59.33" class="st1" width="4.02" height="32.82"/>
			</g>
			<g style="clip-path:url(#SVGID_00000080191431737346967080000013348950526918318992_);">
				<rect x="39.12" y="68.71" class="st1" width="5.36" height="29.48"/>
			</g>
		</g>
		<g>
			<path class="st2" d="M87.15,67.26c0,7.12-16.11,12.9-35.99,12.9c-19.88,0-35.99-5.77-35.99-12.9c0-7.12,16.11-12.9,35.99-12.9
				C71.04,54.37,87.15,60.14,87.15,67.26z"/>
		</g>
		<g>
			<g>
				<path class="st3" d="M62.64,73.07c-1.52,0.37-3.11,0.64-4.78,0.83c-1.67,0.18-3.39,0.28-5.18,0.28c-4.21,0-7.76-0.43-10.64-1.3
					c-2.88-0.87-4.93-2.11-6.14-3.74H30.7l2.11-1.94h2.35c-0.02-0.09-0.03-0.19-0.04-0.29c-0.01-0.1-0.01-0.25-0.01-0.43
					c0-0.19,0-0.34,0.01-0.45c0.01-0.11,0.02-0.21,0.04-0.31H30.7l2.11-1.94h3.1c1.25-1.63,3.3-2.88,6.17-3.74
					c2.86-0.86,6.4-1.29,10.61-1.29c1.78,0,3.51,0.09,5.18,0.28c1.67,0.19,3.26,0.46,4.78,0.83v3.08c-1.3-0.52-2.69-0.91-4.16-1.17
					c-1.47-0.26-3-0.39-4.59-0.39c-2.05,0-3.79,0.2-5.23,0.61c-1.44,0.41-2.51,1-3.22,1.79h12.98l-2.09,1.94H44.47
					c-0.04,0.11-0.06,0.22-0.07,0.34c-0.01,0.12-0.01,0.3-0.01,0.54c0,0.09,0,0.18,0.01,0.28c0.01,0.1,0.02,0.21,0.04,0.32h10.33
					l-2.14,1.94h-7.2c0.8,0.81,1.9,1.42,3.3,1.82c1.4,0.4,3.12,0.61,5.15,0.61c1.59,0,3.11-0.13,4.56-0.39
					c1.45-0.26,2.85-0.66,4.19-1.18V73.07z"/>
			</g>
		</g>
	</g>
	<g>
		<g>
			<defs>
				<path id="SVGID_00000169557465749331338640000012144432937106472636_" d="M82.28,61.46c0,7.12-16.12,12.9-35.99,12.9
					c-19.88,0-35.99-5.77-35.99-12.9c0-2.53-0.89-10.82,0.43-11.92c5.63-4.69,22.74-0.97,35.56-0.97c16,0,30.73-4.51,35.41,0.66
					C82.83,50.48,82.28,60.07,82.28,61.46z"/>
			</defs>
			<use xlink:href="#SVGID_00000169557465749331338640000012144432937106472636_"  style="overflow:visible;fill:#CB9A2B;"/>
			<clipPath id="SVGID_00000021120695720152241850000003380477870988129939_">
				<use xlink:href="#SVGID_00000169557465749331338640000012144432937106472636_"  style="overflow:visible;"/>
			</clipPath>
			<g style="clip-path:url(#SVGID_00000021120695720152241850000003380477870988129939_);">
				<rect x="13" y="44.59" class="st1" width="2.68" height="31.48"/>
			</g>
			<g style="clip-path:url(#SVGID_00000021120695720152241850000003380477870988129939_);">
				<rect x="21.04" y="53.3" class="st1" width="8.71" height="30.14"/>
			</g>
			<g style="clip-path:url(#SVGID_00000021120695720152241850000003380477870988129939_);">
				<rect x="74.63" y="44.59" class="st1" width="3.35" height="31.48"/>
			</g>
			<g style="clip-path:url(#SVGID_00000021120695720152241850000003380477870988129939_);">
				<rect x="35.1" y="52.63" class="st1" width="4.02" height="30.14"/>
			</g>
		</g>
		<g>
			<path class="st2" d="M82.28,51.54c0,7.12-16.12,12.9-35.99,12.9c-19.88,0-35.99-5.77-35.99-12.9c0-7.12,16.11-12.9,35.99-12.9
				C66.16,38.65,82.28,44.42,82.28,51.54z"/>
		</g>
		<g>
			<g>
				<path class="st3" d="M57.77,57.36c-1.52,0.37-3.11,0.64-4.78,0.83c-1.67,0.19-3.39,0.28-5.18,0.28c-4.21,0-7.76-0.43-10.64-1.3
					c-2.88-0.87-4.93-2.11-6.14-3.74h-5.22l2.11-1.94h2.35c-0.02-0.09-0.03-0.19-0.04-0.29c-0.01-0.1-0.01-0.25-0.01-0.43
					c0-0.19,0-0.34,0.01-0.45c0.01-0.11,0.02-0.21,0.04-0.31h-4.47l2.11-1.94h3.1c1.25-1.63,3.3-2.88,6.17-3.74
					c2.86-0.86,6.4-1.29,10.61-1.29c1.78,0,3.51,0.09,5.18,0.28c1.67,0.19,3.26,0.46,4.78,0.83v3.08c-1.3-0.52-2.69-0.91-4.16-1.17
					c-1.47-0.26-3-0.39-4.59-0.39c-2.05,0-3.79,0.2-5.23,0.61c-1.43,0.41-2.51,1.01-3.22,1.79h12.98l-2.09,1.94H39.6
					c-0.04,0.11-0.06,0.22-0.07,0.34c-0.01,0.12-0.01,0.3-0.01,0.54c0,0.09,0,0.18,0.01,0.28c0.01,0.1,0.02,0.21,0.04,0.32H49.9
					l-2.14,1.94h-7.2c0.8,0.81,1.9,1.42,3.3,1.82c1.4,0.41,3.12,0.61,5.15,0.61c1.59,0,3.11-0.13,4.56-0.39
					c1.45-0.26,2.85-0.66,4.19-1.18V57.36z"/>
			</g>
		</g>
	</g>
	<g>
		<g>
			<defs>
				<path id="SVGID_00000035493601135453212560000007089918030155545731_" d="M89.86,46.83c0,7.12-16.12,12.9-35.99,12.9
					c-19.88,0-35.99-5.77-35.99-12.9c0-2.53-0.89-10.82,0.43-11.92c5.63-4.69,22.74-0.97,35.56-0.97c16,0,30.73-4.51,35.41,0.66
					C90.42,35.85,89.86,45.44,89.86,46.83z"/>
			</defs>
			<use xlink:href="#SVGID_00000035493601135453212560000007089918030155545731_"  style="overflow:visible;fill:#CB9A2B;"/>
			<clipPath id="SVGID_00000145052256776458961870000010209519580871207060_">
				<use xlink:href="#SVGID_00000035493601135453212560000007089918030155545731_"  style="overflow:visible;"/>
			</clipPath>
			<g style="clip-path:url(#SVGID_00000145052256776458961870000010209519580871207060_);">
				<rect x="21.71" y="29.18" class="st1" width="1.34" height="31.48"/>
			</g>
			<g style="clip-path:url(#SVGID_00000145052256776458961870000010209519580871207060_);">
				<rect x="27.74" y="38.56" class="st1" width="9.38" height="30.14"/>
			</g>
			<g style="clip-path:url(#SVGID_00000145052256776458961870000010209519580871207060_);">
				<rect x="83.34" y="29.18" class="st1" width="2.68" height="31.48"/>
			</g>
			<g style="clip-path:url(#SVGID_00000145052256776458961870000010209519580871207060_);">
				<rect x="42.47" y="37.22" class="st1" width="4.69" height="31.48"/>
			</g>
		</g>
		<g>
			<path class="st2" d="M89.86,36.91c0,7.12-16.12,12.9-35.99,12.9c-19.88,0-35.99-5.77-35.99-12.9c0-7.12,16.11-12.9,35.99-12.9
				C73.75,24.01,89.86,29.79,89.86,36.91z"/>
		</g>
		<g>
			<g>
				<path class="st3" d="M65.35,42.72c-1.52,0.37-3.11,0.64-4.78,0.83c-1.67,0.19-3.39,0.28-5.18,0.28c-4.21,0-7.76-0.43-10.64-1.3
					c-2.88-0.87-4.93-2.11-6.14-3.74h-5.22l2.11-1.94h2.36c-0.02-0.09-0.03-0.19-0.04-0.29c-0.01-0.1-0.01-0.25-0.01-0.43
					c0-0.19,0-0.34,0.01-0.45c0.01-0.11,0.02-0.21,0.04-0.31h-4.47l2.11-1.94h3.11c1.25-1.63,3.3-2.88,6.17-3.74
					c2.86-0.86,6.4-1.29,10.61-1.29c1.78,0,3.51,0.09,5.18,0.28c1.67,0.19,3.26,0.46,4.78,0.83v3.08c-1.3-0.52-2.69-0.91-4.16-1.17
					c-1.47-0.26-3-0.39-4.59-0.39c-2.05,0-3.79,0.2-5.23,0.61c-1.44,0.41-2.51,1.01-3.22,1.79h12.98l-2.09,1.94H47.18
					c-0.04,0.11-0.06,0.22-0.07,0.34c-0.01,0.12-0.01,0.3-0.01,0.54c0,0.09,0,0.18,0.01,0.28c0.01,0.1,0.02,0.21,0.04,0.32h10.33
					l-2.14,1.94h-7.2c0.8,0.81,1.9,1.42,3.3,1.82c1.4,0.4,3.12,0.61,5.15,0.61c1.59,0,3.11-0.13,4.56-0.39
					c1.45-0.26,2.85-0.66,4.19-1.18V42.72z"/>
			</g>
		</g>
	</g>
	<g>
		<g>
			<defs>
				<path id="SVGID_00000054959994090039170740000017018590505125475217_" d="M84.99,32.74c0,7.12-16.11,12.9-35.99,12.9
					C29.12,45.63,13,39.86,13,32.74c0-2.53-0.89-10.82,0.43-11.92c5.63-4.69,22.74-0.97,35.56-0.97c16,0,30.73-4.51,35.41,0.66
					C85.54,21.76,84.99,31.35,84.99,32.74z"/>
			</defs>
			<use xlink:href="#SVGID_00000054959994090039170740000017018590505125475217_"  style="overflow:visible;fill:#CB9A2B;"/>
			<clipPath id="SVGID_00000089569322649403254390000000780173361668587188_">
				<use xlink:href="#SVGID_00000054959994090039170740000017018590505125475217_"  style="overflow:visible;"/>
			</clipPath>
			<g style="clip-path:url(#SVGID_00000089569322649403254390000000780173361668587188_);">
				<rect x="15.68" y="15.12" class="st1" width="3.35" height="31.48"/>
			</g>
			<g style="clip-path:url(#SVGID_00000089569322649403254390000000780173361668587188_);">
				<rect x="23.05" y="24.5" class="st1" width="9.38" height="30.14"/>
			</g>
			<g style="clip-path:url(#SVGID_00000089569322649403254390000000780173361668587188_);">
				<rect x="77.98" y="15.12" class="st1" width="3.35" height="31.48"/>
			</g>
			<g style="clip-path:url(#SVGID_00000089569322649403254390000000780173361668587188_);">
				<rect x="37.11" y="23.16" class="st1" width="5.36" height="30.81"/>
			</g>
		</g>
		<g>
			<path class="st2" d="M84.99,22.82c0,7.12-16.11,12.9-35.99,12.9C29.12,35.72,13,29.94,13,22.82c0-7.12,16.11-12.9,35.99-12.9
				C68.87,9.92,84.99,15.7,84.99,22.82z"/>
		</g>
		<g>
			<g>
				<path class="st3" d="M60.48,28.63c-1.52,0.37-3.11,0.64-4.78,0.83c-1.67,0.19-3.39,0.28-5.18,0.28c-4.21,0-7.76-0.43-10.64-1.3
					c-2.88-0.87-4.93-2.11-6.14-3.74h-5.22l2.11-1.94h2.35c-0.02-0.09-0.03-0.19-0.04-0.29c-0.01-0.1-0.01-0.25-0.01-0.43
					c0-0.19,0-0.34,0.01-0.45c0.01-0.11,0.02-0.21,0.04-0.31h-4.47l2.11-1.94h3.1c1.25-1.63,3.3-2.88,6.17-3.74
					c2.86-0.86,6.4-1.29,10.61-1.29c1.78,0,3.51,0.09,5.18,0.28c1.67,0.19,3.26,0.46,4.78,0.83v3.08c-1.3-0.52-2.69-0.91-4.16-1.17
					c-1.47-0.26-3-0.39-4.59-0.39c-2.05,0-3.79,0.2-5.23,0.61c-1.44,0.41-2.51,1.01-3.22,1.79h12.98l-2.09,1.94H42.31
					c-0.04,0.11-0.06,0.22-0.07,0.34c-0.01,0.12-0.01,0.3-0.01,0.54c0,0.09,0,0.18,0.01,0.28c0.01,0.1,0.02,0.21,0.04,0.32h10.33
					l-2.14,1.94h-7.2c0.8,0.81,1.9,1.42,3.3,1.82c1.4,0.4,3.12,0.61,5.15,0.61c1.59,0,3.11-0.13,4.56-0.39
					c1.45-0.26,2.85-0.66,4.19-1.18V28.63z"/>
			</g>
		</g>
	</g>
</g>
</svg>
