<?xml version="1.0" encoding="utf-8"?>
<!-- Generator: Adobe Illustrator 26.1.0, SVG Export Plug-In . SVG Version: 6.00 Build 0)  -->
<svg version="1.1" id="Layer_1" xmlns="http://www.w3.org/2000/svg" xmlns:xlink="http://www.w3.org/1999/xlink" x="0px" y="0px"
	 viewBox="0 0 100 100" style="enable-background:new 0 0 100 100;" xml:space="preserve">
<style type="text/css">
	.st0{fill:#DD4E31;}
	.st1{fill:#F9CA35;}
	.st2{fill:#8BC543;stroke:#006738;stroke-width:8.0844;stroke-miterlimit:10;}
	.st3{fill:#006738;}
	.st4{fill:#8BC543;}
</style>
<g>
	<path class="st0" d="M92.11,47.19c0,23.79-19.29,43.08-43.08,43.08c-23.79,0-43.08-19.29-43.08-43.08
		c0-23.79,19.29-43.08,43.08-43.08C72.82,4.11,92.11,23.4,92.11,47.19z"/>
	<g>
		<g>
			<path class="st1" d="M64.78,85.73l2.2-2.77c1.3,0.56,2.66,0.95,4.03,1.16l0.4,3.51c0.1,0.92,0.93,1.58,1.85,1.48l5.38-0.61
				c0.92-0.1,1.58-0.93,1.48-1.85l-0.4-3.51c1.29-0.52,2.52-1.19,3.67-2.04l2.76,2.2c0.72,0.58,1.78,0.46,2.35-0.27l3.37-4.24
				c0.58-0.72,0.46-1.78-0.27-2.35l-2.76-2.2c0.56-1.3,0.94-2.66,1.15-4.03l3.51-0.4c0.92-0.11,1.58-0.93,1.48-1.85l-0.61-5.38
				c-0.11-0.92-0.94-1.58-1.85-1.47l-3.51,0.4c-0.52-1.29-1.19-2.53-2.03-3.67l2.2-2.77c0.58-0.72,0.46-1.78-0.27-2.35l-4.23-3.37
				c-0.72-0.58-1.78-0.46-2.35,0.27l-2.2,2.77c-1.3-0.56-2.66-0.94-4.03-1.16l-0.4-3.51c-0.1-0.92-0.94-1.58-1.85-1.47l-5.38,0.61
				c-0.92,0.1-1.58,0.94-1.47,1.85l0.4,3.51c-1.29,0.51-2.52,1.19-3.67,2.03l-2.77-2.2c-0.72-0.58-1.78-0.46-2.35,0.27l-3.37,4.23
				c-0.58,0.72-0.46,1.78,0.27,2.35l2.76,2.2c-0.56,1.31-0.94,2.66-1.16,4.03l-3.51,0.4c-0.92,0.1-1.58,0.93-1.47,1.85l0.61,5.38
				c0.1,0.92,0.93,1.58,1.85,1.47l3.51-0.4c0.51,1.29,1.19,2.52,2.03,3.67l-2.2,2.77c-0.57,0.72-0.46,1.78,0.27,2.35l4.23,3.37
				C63.14,86.57,64.2,86.45,64.78,85.73z M66.64,62.17c3.03-3.81,8.59-4.44,12.4-1.41c3.81,3.03,4.45,8.58,1.41,12.4
				c-3.03,3.81-8.58,4.44-12.4,1.41C64.24,71.53,63.61,65.98,66.64,62.17z"/>
			<path class="st1" d="M39.36,95.03l3,0.82c0.51,0.14,1.04-0.16,1.18-0.67l0.54-1.96c0.8,0,1.6-0.1,2.39-0.3l1.01,1.77
				c0.26,0.46,0.85,0.62,1.31,0.36l2.7-1.54c0.46-0.26,0.62-0.85,0.36-1.31l-1.01-1.77c0.58-0.57,1.07-1.21,1.48-1.9l1.96,0.54
				c0.51,0.14,1.04-0.16,1.18-0.67l0.82-3c0.14-0.51-0.16-1.04-0.67-1.18l-1.96-0.54c0-0.8-0.1-1.6-0.3-2.39l1.77-1.01
				c0.46-0.26,0.62-0.85,0.36-1.31l-1.54-2.7c-0.26-0.46-0.85-0.62-1.31-0.36l-1.77,1.01c-0.57-0.58-1.21-1.07-1.9-1.48l0.54-1.96
				c0.14-0.51-0.16-1.04-0.67-1.18l-3-0.82c-0.51-0.14-1.04,0.16-1.18,0.67l-0.54,1.96c-0.8,0-1.6,0.1-2.39,0.3l-1.01-1.77
				c-0.26-0.46-0.85-0.62-1.31-0.36l-2.7,1.54c-0.46,0.26-0.62,0.85-0.36,1.31l1.01,1.77c-0.58,0.58-1.07,1.22-1.48,1.9l-1.96-0.54
				c-0.51-0.14-1.04,0.16-1.18,0.67l-0.82,3c-0.14,0.51,0.16,1.04,0.67,1.18l1.96,0.54c0,0.8,0.09,1.6,0.3,2.39l-1.77,1
				c-0.46,0.26-0.62,0.85-0.36,1.31l1.54,2.7c0.26,0.46,0.85,0.62,1.31,0.36l1.77-1.01c0.58,0.58,1.22,1.07,1.9,1.48l-0.54,1.96
				C38.54,94.36,38.85,94.89,39.36,95.03z M39.69,86.16c-1.39-2.43-0.54-5.53,1.9-6.92c2.43-1.38,5.53-0.53,6.91,1.9
				c1.39,2.43,0.53,5.53-1.9,6.91C44.17,89.44,41.07,88.59,39.69,86.16z"/>
		</g>
		<g>
			
				<rect x="6.73" y="35.16" transform="matrix(0.7069 -0.7073 0.7073 0.7069 -24.6309 46.5236)" class="st2" width="74.17" height="35.64"/>
			<path class="st3" d="M33.7,63.1c-5.59-5.59-5.59-14.65-0.01-20.24c5.59-5.59,14.65-5.59,20.24-0.01c5.59,5.59,5.59,14.65,0,20.24
				C48.35,68.69,39.29,68.69,33.7,63.1z"/>
			<path class="st3" d="M82.64,39.35l-6.7-6.7c-3.7,3.7-3.7,9.7,0,13.4L82.64,39.35z"/>
			<g>
				<g>
					<path class="st4" d="M44.41,57.82c0.83,0.7,1.93,0.38,3.28-0.98c1.36-1.36,1.68-2.4,0.95-3.13c-0.44-0.44-0.98-0.55-1.62-0.31
						c-0.64,0.24-1.75,0.89-3.32,1.96c-1.58,1.07-2.97,1.62-4.19,1.64c-1.22,0.03-2.3-0.44-3.25-1.39
						c-1.11-1.11-1.48-2.47-1.08-4.07c0.38-1.6,1.22-3.04,2.51-4.32c3.1-3.1,6.05-3.68,8.86-1.74l-2.36,2.77
						c-1.43-1.06-2.98-0.76-4.62,0.88c-1.54,1.54-1.79,2.83-0.74,3.88c0.46,0.46,0.99,0.62,1.59,0.47c0.6-0.15,1.73-0.78,3.37-1.89
						c1.65-1.11,3.06-1.7,4.22-1.76c1.17-0.06,2.16,0.32,2.99,1.15c0.88,0.88,1.24,2.03,1.07,3.43c-0.17,1.4-1.01,2.85-2.52,4.36
						c-2.98,2.98-5.52,3.55-7.64,1.73L44.41,57.82z"/>
				</g>
				
					<rect x="48.58" y="58.19" transform="matrix(0.7073 -0.707 0.707 0.7073 -27.5232 53.059)" class="st4" width="3.46" height="3.15"/>
				
					<rect x="35.31" y="44.93" transform="matrix(0.7071 -0.7071 0.7071 0.7071 -22.033 39.8098)" class="st4" width="3.46" height="3.14"/>
			</g>
			<path class="st3" d="M57.83,14.55l-6.7,6.7c3.7,3.7,9.7,3.7,13.4,0L57.83,14.55z"/>
			<path class="st3" d="M5.4,67.01l6.7,6.7c3.7-3.7,3.7-9.7,0-13.4L5.4,67.01z"/>
			<path class="st3" d="M30.21,91.81l6.7-6.7c-3.7-3.7-9.7-3.7-13.4,0L30.21,91.81z"/>
			<path class="st3" d="M58.34,38.46c-1.26-1.26-1.26-3.31,0-4.57c1.26-1.26,3.3-1.26,4.56,0c1.26,1.26,1.26,3.3,0,4.57
				C61.64,39.72,59.6,39.72,58.34,38.46z"/>
			<path class="st3" d="M24.74,72.07c-1.26-1.26-1.26-3.31,0-4.57c1.26-1.26,3.3-1.26,4.57,0c1.26,1.26,1.26,3.31,0,4.57
				C28.05,73.33,26,73.33,24.74,72.07z"/>
		</g>
	</g>
</g>
</svg>
