<?xml version="1.0" encoding="utf-8"?>
<!-- Generator: Adobe Illustrator 26.1.0, SVG Export Plug-In . SVG Version: 6.00 Build 0)  -->
<svg version="1.1" id="Layer_1" xmlns="http://www.w3.org/2000/svg" xmlns:xlink="http://www.w3.org/1999/xlink" x="0px" y="0px"
	 viewBox="0 0 100 100" style="enable-background:new 0 0 100 100;" xml:space="preserve">
<style type="text/css">
	.st0{fill:#61BC8A;}
	.st1{fill:#59A57C;}
	.st2{fill:#7ED4A7;}
	.st3{fill:#EDDFCE;}
	.st4{fill:#DBCBB9;}
</style>
<g>
	<g>
		<polygon class="st0" points="58.1,5.4 5,24.5 5,46.6 17.9,72.4 71,53.3 71,31.2 		"/>
		<g>
			<polygon class="st1" points="58.1,5.4 5,24.5 17.9,50.2 71,31.2 			"/>
			<path class="st2" d="M24.5,36.7c-1.9,0.7-4.1-0.1-4.9-1.8c-0.8-1.6,0-3.5,1.9-4.2c1.9-0.7,4.1,0.1,4.9,1.8
				C27.2,34.1,26.4,36,24.5,36.7"/>
			<path class="st2" d="M53.8,26.1c-1.9,0.7-4.1-0.1-4.9-1.8c-0.8-1.6,0-3.5,1.9-4.2c1.9-0.7,4.1,0.1,4.9,1.8
				C56.6,23.6,55.7,25.5,53.8,26.1"/>
			<path class="st2" d="M41.9,36.6c-5.2,1.9-11.2-0.3-13.5-4.8c-2.3-4.5,0.1-9.7,5.3-11.6c5.2-1.9,11.2,0.3,13.5,4.8
				C49.4,29.6,47,34.7,41.9,36.6"/>
			<path class="st2" d="M63.1,23.4c-0.1,0-0.1,0-0.2,0.1c-3.5,1.2-5,4.7-3.5,7.7c0.1,0.2,0.2,0.3,0.3,0.5L26.1,43.8
				c-0.1-0.2-0.1-0.4-0.2-0.5c-1.5-3-5.5-4.5-9-3.2l-4.1-8.2c3.5-1.2,5-4.7,3.5-7.7c0,0,0,0,0-0.1l33.6-12.1c0,0,0,0,0,0.1
				c1.5,3,5.5,4.5,9,3.2c0.1,0,0.1,0,0.2-0.1L63.1,23.4z"/>
			<path class="st1" d="M33.6,20.2c-5.2,1.9-7.5,7-5.3,11.6c2.3,4.5,8.3,6.7,13.5,4.8c5.2-1.9,7.5-7,5.3-11.6
				C44.8,20.5,38.8,18.3,33.6,20.2"/>
			<path class="st1" d="M21.5,30.7c-1.9,0.7-2.7,2.6-1.9,4.2c0.8,1.6,3,2.4,4.9,1.8c1.9-0.7,2.7-2.6,1.9-4.2
				C25.6,30.8,23.4,30,21.5,30.7"/>
			<path class="st1" d="M50.8,20.2c-1.9,0.7-2.7,2.6-1.9,4.2c0.8,1.6,3,2.4,4.9,1.8c1.9-0.7,2.7-2.6,1.9-4.2
				C54.9,20.3,52.7,19.5,50.8,20.2"/>
		</g>
		<polygon class="st3" points="51.2,38.3 38.3,42.9 25.4,17.2 38.3,12.5 		"/>
		<polygon class="st2" points="17.9,50.2 17.9,72.4 5,46.6 5,24.5 		"/>
		<polygon class="st4" points="51.2,60.5 51.2,38.3 38.3,42.9 38.3,65.1 		"/>
		<polygon class="st0" points="58.1,5.4 5,24.5 5,46.6 17.9,72.4 71,53.3 71,31.2 		"/>
		<g>
			<polygon class="st1" points="58.1,5.4 5,24.5 17.9,50.2 71,31.2 			"/>
			<path class="st2" d="M24.5,36.7c-1.9,0.7-4.1-0.1-4.9-1.8c-0.8-1.6,0-3.5,1.9-4.2c1.9-0.7,4.1,0.1,4.9,1.8
				C27.2,34.1,26.4,36,24.5,36.7"/>
			<path class="st2" d="M53.8,26.1c-1.9,0.7-4.1-0.1-4.9-1.8c-0.8-1.6,0-3.5,1.9-4.2c1.9-0.7,4.1,0.1,4.9,1.8
				C56.6,23.6,55.7,25.5,53.8,26.1"/>
			<path class="st2" d="M41.9,36.6c-5.2,1.9-11.2-0.3-13.5-4.8c-2.3-4.5,0.1-9.7,5.3-11.6c5.2-1.9,11.2,0.3,13.5,4.8
				C49.4,29.6,47,34.7,41.9,36.6"/>
			<path class="st2" d="M63.1,23.4c-0.1,0-0.1,0-0.2,0.1c-3.5,1.2-5,4.7-3.5,7.7c0.1,0.2,0.2,0.3,0.3,0.5L26.1,43.8
				c-0.1-0.2-0.1-0.4-0.2-0.5c-1.5-3-5.5-4.5-9-3.2l-4.1-8.2c3.5-1.2,5-4.7,3.5-7.7c0,0,0,0,0-0.1l33.6-12.1c0,0,0,0,0,0.1
				c1.5,3,5.5,4.5,9,3.2c0.1,0,0.1,0,0.2-0.1L63.1,23.4z"/>
			<path class="st1" d="M33.6,20.2c-5.2,1.9-7.5,7-5.3,11.6c2.3,4.5,8.3,6.7,13.5,4.8c5.2-1.9,7.5-7,5.3-11.6
				C44.8,20.5,38.8,18.3,33.6,20.2"/>
			<path class="st1" d="M21.5,30.7c-1.9,0.7-2.7,2.6-1.9,4.2c0.8,1.6,3,2.4,4.9,1.8c1.9-0.7,2.7-2.6,1.9-4.2
				C25.6,30.8,23.4,30,21.5,30.7"/>
			<path class="st1" d="M50.8,20.2c-1.9,0.7-2.7,2.6-1.9,4.2c0.8,1.6,3,2.4,4.9,1.8c1.9-0.7,2.7-2.6,1.9-4.2
				C54.9,20.3,52.7,19.5,50.8,20.2"/>
		</g>
		<polygon class="st3" points="51.2,38.3 38.3,42.9 25.4,17.2 38.3,12.5 		"/>
		<polygon class="st2" points="17.9,50.2 17.9,72.4 5,46.6 5,24.5 		"/>
		<polygon class="st4" points="51.2,60.5 51.2,38.3 38.3,42.9 38.3,65.1 		"/>
	</g>
	<g>
		<polygon class="st0" points="82.1,35.9 29,55 29,68.8 41.9,94.6 95,75.5 95,61.7 		"/>
		<g>
			<polygon class="st1" points="82.1,35.9 29,55 41.9,80.8 95,61.7 			"/>
			<path class="st2" d="M48.5,67.2c-1.9,0.7-4.1-0.1-4.9-1.8c-0.8-1.6,0-3.5,1.9-4.2c1.9-0.7,4.1,0.1,4.9,1.8
				C51.2,64.6,50.4,66.5,48.5,67.2"/>
			<path class="st2" d="M77.8,56.6c-1.9,0.7-4.1-0.1-4.9-1.8c-0.8-1.6,0-3.5,1.9-4.2c1.9-0.7,4.1,0.1,4.9,1.8
				C80.5,54.1,79.7,56,77.8,56.6"/>
			<path class="st2" d="M65.8,67.1c-5.2,1.9-11.2-0.3-13.5-4.8c-2.3-4.5,0.1-9.7,5.3-11.6c5.2-1.9,11.2,0.3,13.5,4.8
				C73.4,60.1,71,65.2,65.8,67.1"/>
			<path class="st2" d="M87.1,53.9c-0.1,0-0.1,0-0.2,0.1c-3.5,1.2-5,4.7-3.5,7.7c0.1,0.2,0.2,0.3,0.3,0.5L50,74.3
				c-0.1-0.2-0.1-0.4-0.2-0.5c-1.5-3-5.5-4.5-9-3.2l-4.1-8.2c3.5-1.2,5-4.7,3.5-7.7c0,0,0,0,0-0.1l33.6-12.1c0,0,0,0,0,0.1
				c1.5,3,5.5,4.5,9,3.2c0.1,0,0.1,0,0.1-0.1L87.1,53.9z"/>
			<path class="st1" d="M57.6,50.7c-5.2,1.9-7.5,7-5.3,11.6c2.3,4.5,8.3,6.7,13.5,4.8c5.2-1.9,7.5-7,5.3-11.6
				C68.8,51,62.8,48.8,57.6,50.7"/>
			<path class="st1" d="M45.5,61.2c-1.9,0.7-2.7,2.6-1.9,4.2c0.8,1.6,3,2.4,4.9,1.8c1.9-0.7,2.7-2.6,1.9-4.2
				C49.6,61.3,47.4,60.5,45.5,61.2"/>
			<path class="st1" d="M74.8,50.7c-1.9,0.7-2.7,2.6-1.9,4.2c0.8,1.6,3,2.4,4.9,1.8c1.9-0.7,2.7-2.6,1.9-4.2
				C78.9,50.8,76.7,50,74.8,50.7"/>
		</g>
		<polygon class="st3" points="75.2,68.8 62.3,73.5 49.3,47.7 62.3,43 		"/>
		<polygon class="st2" points="41.9,80.8 41.9,94.6 29,68.8 29,55 		"/>
		<polygon class="st4" points="75.2,82.6 75.2,68.8 62.3,73.5 62.3,87.3 		"/>
	</g>
</g>
</svg>
