<?xml version="1.0" encoding="utf-8"?>
<!-- Generator: Adobe Illustrator 26.1.0, SVG Export Plug-In . SVG Version: 6.00 Build 0)  -->
<svg version="1.1" id="Layer_1" xmlns="http://www.w3.org/2000/svg" xmlns:xlink="http://www.w3.org/1999/xlink" x="0px" y="0px"
	 viewBox="0 0 100 100" style="enable-background:new 0 0 100 100;" xml:space="preserve">
<style type="text/css">
	.st0{fill:#EAAA28;}
	.st1{fill:#FECE31;}
	.st2{fill:#FFFFFF;}
	.st3{fill:#F6BD3B;}
</style>
<g>
	<g>
		<path class="st0" d="M48,65.3v3.9c0,4.9-9.4,8.9-21,8.9c-11.6,0-21-4-21-8.9v-3.9c0,4.9,9.4,8.9,21,8.9C38.6,74.2,48,70.2,48,65.3
			z"/>
		<path class="st1" d="M27,56.4c-11.6,0-21,4-21,8.9c0,4.9,9.4,8.9,21,8.9c11.6,0,21-4,21-8.9C48,60.4,38.6,56.4,27,56.4z"/>
		<path class="st0" d="M27,58.9c-8.4,0-15.2,2.9-15.2,6.4c0,3.6,6.8,6.4,15.2,6.4c8.4,0,15.2-2.9,15.2-6.4
			C42.3,61.8,35.5,58.9,27,58.9z"/>
		<path class="st2" d="M28.3,61.1v0.7c1.6,0,3.1,0.2,4.7,0.5l-1.4,1.4c-1.6-0.3-3.1-0.5-4.5-0.5c-0.6,0-1.1,0-1.3,0.1
			c-0.3,0.1-0.4,0.2-0.4,0.3c0,0.1,0.1,0.2,0.3,0.3c0.2,0.1,0.5,0.2,1,0.2c0.5,0.1,1.1,0.2,1.9,0.3c1.6,0.2,2.8,0.5,3.5,0.8
			c0.7,0.3,1.1,0.7,1.1,1.2c0,0.6-0.4,1-1.3,1.4c-0.8,0.3-2.1,0.6-3.7,0.7v1h-2.4v-0.9c-1.7,0-3.4-0.2-5-0.5v-1.7
			c0.9,0.2,1.9,0.4,3,0.5c1.1,0.1,2,0.2,2.8,0.2c0.7,0,1.2,0,1.5-0.1c0.3-0.1,0.5-0.2,0.5-0.3c0-0.1-0.1-0.2-0.3-0.3
			c-0.2-0.1-0.6-0.2-1.1-0.3c-0.5-0.1-1.2-0.2-2.1-0.3c-1-0.2-1.8-0.3-2.4-0.5c-0.6-0.2-1.1-0.4-1.3-0.7c-0.3-0.2-0.4-0.5-0.4-0.9
			c0-0.5,0.4-1,1.3-1.3c0.8-0.3,2.1-0.5,3.8-0.6v-0.7H28.3z"/>
	</g>
	<g>
		<path class="st0" d="M48,59.2v3.9C48,68,38.6,72,27,72c-11.6,0-21-4-21-8.9v-3.9c0,4.9,9.4,8.9,21,8.9C38.6,68.1,48,64.1,48,59.2z
			"/>
		<path class="st1" d="M27,50.4c-11.6,0-21,4-21,8.9c0,4.9,9.4,8.9,21,8.9c11.6,0,21-4,21-8.9C48,54.3,38.6,50.4,27,50.4z"/>
		<path class="st0" d="M27,52.8c-8.4,0-15.2,2.9-15.2,6.4c0,3.6,6.8,6.4,15.2,6.4c8.4,0,15.2-2.9,15.2-6.4
			C42.3,55.7,35.5,52.8,27,52.8z"/>
		<path class="st2" d="M28.3,55v0.7c1.6,0,3.1,0.2,4.7,0.5l-1.4,1.4c-1.6-0.3-3.1-0.5-4.5-0.5c-0.6,0-1.1,0-1.3,0.1
			c-0.3,0.1-0.4,0.2-0.4,0.3c0,0.1,0.1,0.2,0.3,0.3c0.2,0.1,0.5,0.2,1,0.2c0.5,0.1,1.1,0.2,1.9,0.3c1.6,0.2,2.8,0.5,3.5,0.8
			c0.7,0.3,1.1,0.7,1.1,1.2c0,0.6-0.4,1-1.3,1.4c-0.8,0.3-2.1,0.6-3.7,0.7v1h-2.4v-0.9c-1.7,0-3.4-0.2-5-0.5v-1.7
			c0.9,0.2,1.9,0.4,3,0.5c1.1,0.1,2,0.2,2.8,0.2c0.7,0,1.2,0,1.5-0.1c0.3-0.1,0.5-0.2,0.5-0.3c0-0.1-0.1-0.2-0.3-0.3
			c-0.2-0.1-0.6-0.2-1.1-0.3c-0.5-0.1-1.2-0.2-2.1-0.3c-1-0.2-1.8-0.3-2.4-0.5c-0.6-0.2-1.1-0.4-1.3-0.7c-0.3-0.2-0.4-0.5-0.4-0.9
			c0-0.5,0.4-1,1.3-1.3c0.8-0.3,2.1-0.5,3.8-0.6V55H28.3z"/>
	</g>
	<g>
		<path class="st0" d="M48,52.7v3.9c0,4.9-9.4,8.9-21,8.9c-11.6,0-21-4-21-8.9v-3.9c0,4.9,9.4,8.9,21,8.9C38.6,61.5,48,57.6,48,52.7
			z"/>
		<path class="st1" d="M27,43.8c-11.6,0-21,4-21,8.9c0,4.9,9.4,8.9,21,8.9c11.6,0,21-4,21-8.9C48,47.8,38.6,43.8,27,43.8z"/>
		<path class="st0" d="M27,46.2c-8.4,0-15.2,2.9-15.2,6.4c0,3.6,6.8,6.4,15.2,6.4c8.4,0,15.2-2.9,15.2-6.4
			C42.3,49.1,35.5,46.2,27,46.2z"/>
		<path class="st2" d="M28.3,48.5v0.7c1.6,0,3.1,0.2,4.7,0.5l-1.4,1.4c-1.6-0.3-3.1-0.5-4.5-0.5c-0.6,0-1.1,0-1.3,0.1
			c-0.3,0.1-0.4,0.2-0.4,0.3c0,0.1,0.1,0.2,0.3,0.3c0.2,0.1,0.5,0.2,1,0.2c0.5,0.1,1.1,0.2,1.9,0.3c1.6,0.2,2.8,0.5,3.5,0.8
			c0.7,0.3,1.1,0.7,1.1,1.2c0,0.6-0.4,1-1.3,1.4c-0.8,0.3-2.1,0.6-3.7,0.7v1h-2.4v-0.9c-1.7,0-3.4-0.2-5-0.5v-1.7
			c0.9,0.2,1.9,0.4,3,0.5c1.1,0.1,2,0.2,2.8,0.2c0.7,0,1.2,0,1.5-0.1c0.3-0.1,0.5-0.2,0.5-0.3c0-0.1-0.1-0.2-0.3-0.3
			c-0.2-0.1-0.6-0.2-1.1-0.3c-0.5-0.1-1.2-0.2-2.1-0.3c-1-0.2-1.8-0.3-2.4-0.5c-0.6-0.2-1.1-0.4-1.3-0.7c-0.3-0.2-0.4-0.5-0.4-0.9
			c0-0.5,0.4-1,1.3-1.3c0.8-0.3,2.1-0.5,3.8-0.6v-0.7H28.3z"/>
	</g>
	<g>
		<path class="st0" d="M48,46.6v3.9c0,4.9-9.4,8.9-21,8.9c-11.6,0-21-4-21-8.9v-3.9c0,4.9,9.4,8.9,21,8.9C38.6,55.5,48,51.5,48,46.6
			z"/>
		<path class="st1" d="M27,37.7c-11.6,0-21,4-21,8.9c0,4.9,9.4,8.9,21,8.9c11.6,0,21-4,21-8.9C48,41.7,38.6,37.7,27,37.7z"/>
		<path class="st0" d="M27,40.2c-8.4,0-15.2,2.9-15.2,6.4c0,3.6,6.8,6.4,15.2,6.4c8.4,0,15.2-2.9,15.2-6.4
			C42.3,43,35.5,40.2,27,40.2z"/>
		<path class="st2" d="M28.3,42.4v0.7c1.6,0,3.1,0.2,4.7,0.5L31.6,45c-1.6-0.3-3.1-0.5-4.5-0.5c-0.6,0-1.1,0-1.3,0.1
			c-0.3,0.1-0.4,0.2-0.4,0.3c0,0.1,0.1,0.2,0.3,0.3c0.2,0.1,0.5,0.2,1,0.2c0.5,0.1,1.1,0.2,1.9,0.3c1.6,0.2,2.8,0.5,3.5,0.8
			c0.7,0.3,1.1,0.7,1.1,1.2c0,0.6-0.4,1-1.3,1.4c-0.8,0.3-2.1,0.6-3.7,0.7v1h-2.4v-0.9c-1.7,0-3.4-0.2-5-0.5v-1.7
			c0.9,0.2,1.9,0.4,3,0.5c1.1,0.1,2,0.2,2.8,0.2c0.7,0,1.2,0,1.5-0.1c0.3-0.1,0.5-0.2,0.5-0.3c0-0.1-0.1-0.2-0.3-0.3
			c-0.2-0.1-0.6-0.2-1.1-0.3c-0.5-0.1-1.2-0.2-2.1-0.3c-1-0.2-1.8-0.3-2.4-0.5c-0.6-0.2-1.1-0.4-1.3-0.7c-0.3-0.2-0.4-0.5-0.4-0.9
			c0-0.5,0.4-1,1.3-1.3c0.8-0.3,2.1-0.5,3.8-0.6v-0.7H28.3z"/>
	</g>
	<g>
		<path class="st0" d="M48,41.1v3.9c0,4.9-9.4,8.9-21,8.9c-11.6,0-21-4-21-8.9v-3.9c0,4.9,9.4,8.9,21,8.9C38.6,49.9,48,46,48,41.1z"
			/>
		<path class="st1" d="M27,32.2c-11.6,0-21,4-21,8.9c0,4.9,9.4,8.9,21,8.9c11.6,0,21-4,21-8.9C48,36.2,38.6,32.2,27,32.2z"/>
		<path class="st0" d="M27,34.6c-8.4,0-15.2,2.9-15.2,6.4c0,3.6,6.8,6.4,15.2,6.4c8.4,0,15.2-2.9,15.2-6.4
			C42.3,37.5,35.5,34.6,27,34.6z"/>
		<path class="st2" d="M28.3,36.9v0.7c1.6,0,3.1,0.2,4.7,0.5l-1.4,1.4C30,39.2,28.5,39,27.2,39c-0.6,0-1.1,0-1.3,0.1
			c-0.3,0.1-0.4,0.2-0.4,0.3c0,0.1,0.1,0.2,0.3,0.3c0.2,0.1,0.5,0.2,1,0.2c0.5,0.1,1.1,0.2,1.9,0.3c1.6,0.2,2.8,0.5,3.5,0.8
			c0.7,0.3,1.1,0.7,1.1,1.2c0,0.6-0.4,1-1.3,1.4c-0.8,0.3-2.1,0.6-3.7,0.7v1h-2.4v-0.9c-1.7,0-3.4-0.2-5-0.5v-1.7
			c0.9,0.2,1.9,0.4,3,0.5c1.1,0.1,2,0.2,2.8,0.2c0.7,0,1.2,0,1.5-0.1c0.3-0.1,0.5-0.2,0.5-0.3c0-0.1-0.1-0.2-0.3-0.3
			c-0.2-0.1-0.6-0.2-1.1-0.3c-0.5-0.1-1.2-0.2-2.1-0.3c-1-0.2-1.8-0.3-2.4-0.5c-0.6-0.2-1.1-0.4-1.3-0.7c-0.3-0.2-0.4-0.5-0.4-0.9
			c0-0.5,0.4-1,1.3-1.3c0.8-0.3,2.1-0.5,3.8-0.6v-0.7H28.3z"/>
	</g>
	<g>
		<path class="st0" d="M48,35v3.9c0,4.9-9.4,8.9-21,8.9c-11.6,0-21-4-21-8.9V35c0,4.9,9.4,8.9,21,8.9C38.6,43.9,48,39.9,48,35z"/>
		<path class="st1" d="M27,26.1c-11.6,0-21,4-21,8.9c0,4.9,9.4,8.9,21,8.9c11.6,0,21-4,21-8.9C48,30.1,38.6,26.1,27,26.1z"/>
		<path class="st3" d="M27,28.5c-8.4,0-15.2,2.9-15.2,6.4c0,3.6,6.8,6.4,15.2,6.4c8.4,0,15.2-2.9,15.2-6.4
			C42.3,31.4,35.5,28.5,27,28.5z"/>
		<path class="st2" d="M28.3,30.8v0.7c1.6,0,3.1,0.2,4.7,0.5l-1.4,1.4c-1.6-0.3-3.1-0.5-4.5-0.5c-0.6,0-1.1,0-1.3,0.1
			c-0.3,0.1-0.4,0.2-0.4,0.3c0,0.1,0.1,0.2,0.3,0.3c0.2,0.1,0.5,0.2,1,0.2c0.5,0.1,1.1,0.2,1.9,0.3c1.6,0.2,2.8,0.5,3.5,0.8
			c0.7,0.3,1.1,0.7,1.1,1.2c0,0.6-0.4,1-1.3,1.4c-0.8,0.3-2.1,0.6-3.7,0.7v1h-2.4v-0.9c-1.7,0-3.4-0.2-5-0.5v-1.7
			c0.9,0.2,1.9,0.4,3,0.5c1.1,0.1,2,0.2,2.8,0.2c0.7,0,1.2,0,1.5-0.1c0.3-0.1,0.5-0.2,0.5-0.3c0-0.1-0.1-0.2-0.3-0.3
			c-0.2-0.1-0.6-0.2-1.1-0.3c-0.5-0.1-1.2-0.2-2.1-0.3c-1-0.2-1.8-0.3-2.4-0.5c-0.6-0.2-1.1-0.4-1.3-0.7c-0.3-0.2-0.4-0.5-0.4-0.9
			c0-0.5,0.4-1,1.3-1.3c0.8-0.3,2.1-0.5,3.8-0.6v-0.7H28.3z"/>
	</g>
	<g>
		<path class="st0" d="M93.9,68.9v4.8c0,6-11.6,10.9-25.9,10.9c-14.3,0-25.9-4.9-25.9-10.9v-4.8c0,6,11.6,10.9,25.9,10.9
			C82.4,79.9,93.9,75,93.9,68.9z"/>
		<path class="st1" d="M68.1,58c-14.3,0-25.9,4.9-25.9,10.9c0,6,11.6,10.9,25.9,10.9c14.3,0,25.9-4.9,25.9-10.9
			C93.9,62.9,82.4,58,68.1,58z"/>
		<path class="st0" d="M68.1,61c-10.4,0-18.8,3.6-18.8,7.9c0,4.4,8.4,7.9,18.8,7.9c10.4,0,18.8-3.6,18.8-7.9
			C86.9,64.5,78.4,61,68.1,61z"/>
		<path class="st2" d="M69.6,63.8v0.8c1.9,0,3.9,0.2,5.8,0.6L73.7,67c-2-0.4-3.9-0.6-5.5-0.6c-0.8,0-1.3,0-1.6,0.1
			c-0.3,0.1-0.5,0.2-0.5,0.4c0,0.1,0.1,0.2,0.3,0.3c0.2,0.1,0.6,0.2,1.2,0.3c0.6,0.1,1.3,0.2,2.3,0.4c2,0.3,3.5,0.7,4.4,1
			c0.9,0.4,1.3,0.9,1.3,1.5c0,0.7-0.5,1.3-1.6,1.7c-1,0.4-2.5,0.7-4.5,0.8v1.2h-3v-1.2c-2.1,0-4.2-0.2-6.2-0.6v-2
			c1.1,0.2,2.4,0.4,3.7,0.6c1.3,0.2,2.5,0.2,3.5,0.2c0.8,0,1.4,0,1.8-0.1c0.4-0.1,0.6-0.2,0.6-0.4c0-0.1-0.1-0.3-0.4-0.3
			c-0.3-0.1-0.7-0.2-1.4-0.3s-1.5-0.3-2.6-0.4c-1.2-0.2-2.2-0.4-3-0.7c-0.8-0.2-1.3-0.5-1.7-0.8c-0.3-0.3-0.5-0.7-0.5-1.1
			c0-0.7,0.5-1.2,1.5-1.6c1-0.4,2.6-0.6,4.6-0.7v-0.8H69.6z"/>
	</g>
	<g>
		<path class="st0" d="M93.9,61.4v4.8c0,6-11.6,10.9-25.9,10.9c-14.3,0-25.9-4.9-25.9-10.9v-4.8c0,6,11.6,10.9,25.9,10.9
			C82.4,72.3,93.9,67.4,93.9,61.4z"/>
		<path class="st1" d="M68.1,50.5c-14.3,0-25.9,4.9-25.9,10.9c0,6,11.6,10.9,25.9,10.9c14.3,0,25.9-4.9,25.9-10.9
			C93.9,55.4,82.4,50.5,68.1,50.5z"/>
		<path class="st0" d="M68.1,53.5c-10.4,0-18.8,3.6-18.8,7.9c0,4.4,8.4,7.9,18.8,7.9c10.4,0,18.8-3.6,18.8-7.9
			C86.9,57,78.4,53.5,68.1,53.5z"/>
		<path class="st2" d="M69.6,56.3v0.8c1.9,0,3.9,0.2,5.8,0.6l-1.7,1.8c-2-0.4-3.9-0.6-5.5-0.6c-0.8,0-1.3,0-1.6,0.1
			c-0.3,0.1-0.5,0.2-0.5,0.4c0,0.1,0.1,0.2,0.3,0.3c0.2,0.1,0.6,0.2,1.2,0.3c0.6,0.1,1.3,0.2,2.3,0.4c2,0.3,3.5,0.7,4.4,1
			c0.9,0.4,1.3,0.9,1.3,1.5c0,0.7-0.5,1.3-1.6,1.7c-1,0.4-2.5,0.7-4.5,0.8v1.2h-3v-1.2c-2.1,0-4.2-0.2-6.2-0.6v-2
			c1.1,0.2,2.4,0.4,3.7,0.6c1.3,0.2,2.5,0.2,3.5,0.2c0.8,0,1.4,0,1.8-0.1c0.4-0.1,0.6-0.2,0.6-0.4c0-0.1-0.1-0.3-0.4-0.3
			c-0.3-0.1-0.7-0.2-1.4-0.3s-1.5-0.3-2.6-0.4c-1.2-0.2-2.2-0.4-3-0.7c-0.8-0.2-1.3-0.5-1.7-0.8c-0.3-0.3-0.5-0.7-0.5-1.1
			c0-0.7,0.5-1.2,1.5-1.6c1-0.4,2.6-0.6,4.6-0.7v-0.8H69.6z"/>
	</g>
	<g>
		<path class="st0" d="M93.9,53.3v4.8c0,6-11.6,10.9-25.9,10.9c-14.3,0-25.9-4.9-25.9-10.9v-4.8c0,6,11.6,10.9,25.9,10.9
			C82.4,64.3,93.9,59.4,93.9,53.3z"/>
		<path class="st1" d="M68.1,42.4c-14.3,0-25.9,4.9-25.9,10.9c0,6,11.6,10.9,25.9,10.9c14.3,0,25.9-4.9,25.9-10.9
			C93.9,47.3,82.4,42.4,68.1,42.4z"/>
		<path class="st0" d="M68.1,45.4c-10.4,0-18.8,3.6-18.8,7.9c0,4.4,8.4,7.9,18.8,7.9c10.4,0,18.8-3.6,18.8-7.9
			C86.9,49,78.4,45.4,68.1,45.4z"/>
		<path class="st2" d="M69.6,48.2V49c1.9,0,3.9,0.2,5.8,0.6l-1.7,1.8c-2-0.4-3.9-0.6-5.5-0.6c-0.8,0-1.3,0-1.6,0.1
			c-0.3,0.1-0.5,0.2-0.5,0.4c0,0.1,0.1,0.2,0.3,0.3c0.2,0.1,0.6,0.2,1.2,0.3c0.6,0.1,1.3,0.2,2.3,0.4c2,0.3,3.5,0.7,4.4,1
			c0.9,0.4,1.3,0.9,1.3,1.5c0,0.7-0.5,1.3-1.6,1.7c-1,0.4-2.5,0.7-4.5,0.8v1.2h-3v-1.2c-2.1,0-4.2-0.2-6.2-0.6v-2
			c1.1,0.2,2.4,0.4,3.7,0.6c1.3,0.2,2.5,0.2,3.5,0.2c0.8,0,1.4,0,1.8-0.1c0.4-0.1,0.6-0.2,0.6-0.4c0-0.1-0.1-0.3-0.4-0.3
			c-0.3-0.1-0.7-0.2-1.4-0.3c-0.6-0.1-1.5-0.3-2.6-0.4c-1.2-0.2-2.2-0.4-3-0.7c-0.8-0.2-1.3-0.5-1.7-0.8c-0.3-0.3-0.5-0.7-0.5-1.1
			c0-0.7,0.5-1.2,1.5-1.6c1-0.4,2.6-0.6,4.6-0.7v-0.8H69.6z"/>
	</g>
	<g>
		<path class="st0" d="M93.9,45.8v4.8c0,6-11.6,10.9-25.9,10.9c-14.3,0-25.9-4.9-25.9-10.9v-4.8c0,6,11.6,10.9,25.9,10.9
			C82.4,56.8,93.9,51.9,93.9,45.8z"/>
		<path class="st1" d="M68.1,34.9c-14.3,0-25.9,4.9-25.9,10.9c0,6,11.6,10.9,25.9,10.9c14.3,0,25.9-4.9,25.9-10.9
			C93.9,39.8,82.4,34.9,68.1,34.9z"/>
		<path class="st0" d="M68.1,37.9c-10.4,0-18.8,3.6-18.8,7.9c0,4.4,8.4,7.9,18.8,7.9c10.4,0,18.8-3.6,18.8-7.9
			C86.9,41.4,78.4,37.9,68.1,37.9z"/>
		<path class="st2" d="M69.6,40.7v0.8c1.9,0,3.9,0.2,5.8,0.6l-1.7,1.8c-2-0.4-3.9-0.6-5.5-0.6c-0.8,0-1.3,0-1.6,0.1
			c-0.3,0.1-0.5,0.2-0.5,0.4c0,0.1,0.1,0.2,0.3,0.3c0.2,0.1,0.6,0.2,1.2,0.3c0.6,0.1,1.3,0.2,2.3,0.4c2,0.3,3.5,0.7,4.4,1
			c0.9,0.4,1.3,0.9,1.3,1.5c0,0.7-0.5,1.3-1.6,1.7c-1,0.4-2.5,0.7-4.5,0.8V51h-3v-1.2c-2.1,0-4.2-0.2-6.2-0.6v-2
			c1.1,0.2,2.4,0.4,3.7,0.6c1.3,0.2,2.5,0.2,3.5,0.2c0.8,0,1.4,0,1.8-0.1c0.4-0.1,0.6-0.2,0.6-0.4c0-0.1-0.1-0.3-0.4-0.3
			c-0.3-0.1-0.7-0.2-1.4-0.3s-1.5-0.3-2.6-0.4c-1.2-0.2-2.2-0.4-3-0.7c-0.8-0.2-1.3-0.5-1.7-0.8c-0.3-0.3-0.5-0.7-0.5-1.1
			c0-0.7,0.5-1.2,1.5-1.6c1-0.4,2.6-0.6,4.6-0.7v-0.8H69.6z"/>
	</g>
	<g>
		<path class="st0" d="M93.9,39v4.8c0,6-11.6,10.9-25.9,10.9c-14.3,0-25.9-4.9-25.9-10.9V39c0,6,11.6,10.9,25.9,10.9
			C82.4,50,93.9,45.1,93.9,39z"/>
		<path class="st1" d="M68.1,28.1C53.8,28.1,42.2,33,42.2,39c0,6,11.6,10.9,25.9,10.9c14.3,0,25.9-4.9,25.9-10.9
			C93.9,33,82.4,28.1,68.1,28.1z"/>
		<path class="st0" d="M68.1,31.1c-10.4,0-18.8,3.6-18.8,7.9c0,4.4,8.4,7.9,18.8,7.9c10.4,0,18.8-3.6,18.8-7.9
			C86.9,34.6,78.4,31.1,68.1,31.1z"/>
		<path class="st2" d="M69.6,33.9v0.8c1.9,0,3.9,0.2,5.8,0.6l-1.7,1.8c-2-0.4-3.9-0.6-5.5-0.6c-0.8,0-1.3,0-1.6,0.1
			c-0.3,0.1-0.5,0.2-0.5,0.4c0,0.1,0.1,0.2,0.3,0.3c0.2,0.1,0.6,0.2,1.2,0.3c0.6,0.1,1.3,0.2,2.3,0.4c2,0.3,3.5,0.7,4.4,1
			c0.9,0.4,1.3,0.9,1.3,1.5c0,0.7-0.5,1.3-1.6,1.7c-1,0.4-2.5,0.7-4.5,0.8v1.2h-3V43c-2.1,0-4.2-0.2-6.2-0.6v-2
			c1.1,0.2,2.4,0.4,3.7,0.6c1.3,0.2,2.5,0.2,3.5,0.2c0.8,0,1.4,0,1.8-0.1c0.4-0.1,0.6-0.2,0.6-0.4c0-0.1-0.1-0.3-0.4-0.3
			c-0.3-0.1-0.7-0.2-1.4-0.3s-1.5-0.3-2.6-0.4c-1.2-0.2-2.2-0.4-3-0.7c-0.8-0.2-1.3-0.5-1.7-0.8c-0.3-0.3-0.5-0.7-0.5-1.1
			c0-0.7,0.5-1.2,1.5-1.6c1-0.4,2.6-0.6,4.6-0.7v-0.8H69.6z"/>
	</g>
	<g>
		<path class="st0" d="M93.9,31.5v4.8c0,6-11.6,10.9-25.9,10.9c-14.3,0-25.9-4.9-25.9-10.9v-4.8c0,6,11.6,10.9,25.9,10.9
			C82.4,42.4,93.9,37.6,93.9,31.5z"/>
		<path class="st1" d="M68.1,20.6c-14.3,0-25.9,4.9-25.9,10.9c0,6,11.6,10.9,25.9,10.9c14.3,0,25.9-4.9,25.9-10.9
			C93.9,25.5,82.4,20.6,68.1,20.6z"/>
		<path class="st0" d="M68.1,23.6c-10.4,0-18.8,3.6-18.8,7.9c0,4.4,8.4,7.9,18.8,7.9c10.4,0,18.8-3.6,18.8-7.9
			C86.9,27.1,78.4,23.6,68.1,23.6z"/>
		<path class="st2" d="M69.6,26.4v0.8c1.9,0,3.9,0.2,5.8,0.6l-1.7,1.8c-2-0.4-3.9-0.6-5.5-0.6c-0.8,0-1.3,0-1.6,0.1
			c-0.3,0.1-0.5,0.2-0.5,0.4c0,0.1,0.1,0.2,0.3,0.3c0.2,0.1,0.6,0.2,1.2,0.3c0.6,0.1,1.3,0.2,2.3,0.4c2,0.3,3.5,0.7,4.4,1
			c0.9,0.4,1.3,0.9,1.3,1.5c0,0.7-0.5,1.3-1.6,1.7c-1,0.4-2.5,0.7-4.5,0.8v1.2h-3v-1.2c-2.1,0-4.2-0.2-6.2-0.6v-2
			c1.1,0.2,2.4,0.4,3.7,0.6c1.3,0.2,2.5,0.2,3.5,0.2c0.8,0,1.4,0,1.8-0.1c0.4-0.1,0.6-0.2,0.6-0.4c0-0.1-0.1-0.3-0.4-0.3
			c-0.3-0.1-0.7-0.2-1.4-0.3s-1.5-0.3-2.6-0.4c-1.2-0.2-2.2-0.4-3-0.7c-0.8-0.2-1.3-0.5-1.7-0.8c-0.3-0.3-0.5-0.7-0.5-1.1
			c0-0.7,0.5-1.2,1.5-1.6c1-0.4,2.6-0.6,4.6-0.7v-0.8H69.6z"/>
	</g>
	<g>
		<path class="st0" d="M93.9,23.4v4.8c0,6-11.6,10.9-25.9,10.9c-14.3,0-25.9-4.9-25.9-10.9v-4.8c0,6,11.6,10.9,25.9,10.9
			C82.4,34.4,93.9,29.5,93.9,23.4z"/>
		<path class="st1" d="M68.1,12.5c-14.3,0-25.9,4.9-25.9,10.9c0,6,11.6,10.9,25.9,10.9c14.3,0,25.9-4.9,25.9-10.9
			C93.9,17.4,82.4,12.5,68.1,12.5z"/>
		<path class="st0" d="M68.1,15.5c-10.4,0-18.8,3.6-18.8,7.9c0,4.4,8.4,7.9,18.8,7.9c10.4,0,18.8-3.6,18.8-7.9
			C86.9,19.1,78.4,15.5,68.1,15.5z"/>
		<path class="st2" d="M69.6,18.3v0.8c1.9,0,3.9,0.2,5.8,0.6l-1.7,1.8c-2-0.4-3.9-0.6-5.5-0.6c-0.8,0-1.3,0-1.6,0.1
			c-0.3,0.1-0.5,0.2-0.5,0.4c0,0.1,0.1,0.2,0.3,0.3c0.2,0.1,0.6,0.2,1.2,0.3c0.6,0.1,1.3,0.2,2.3,0.4c2,0.3,3.5,0.7,4.4,1
			c0.9,0.4,1.3,0.9,1.3,1.5c0,0.7-0.5,1.3-1.6,1.7c-1,0.4-2.5,0.7-4.5,0.8v1.2h-3v-1.2c-2.1,0-4.2-0.2-6.2-0.6v-2
			c1.1,0.2,2.4,0.4,3.7,0.6c1.3,0.2,2.5,0.2,3.5,0.2c0.8,0,1.4,0,1.8-0.1c0.4-0.1,0.6-0.2,0.6-0.4c0-0.1-0.1-0.3-0.4-0.3
			c-0.3-0.1-0.7-0.2-1.4-0.3c-0.6-0.1-1.5-0.3-2.6-0.4c-1.2-0.2-2.2-0.4-3-0.7c-0.8-0.2-1.3-0.5-1.7-0.8c-0.3-0.3-0.5-0.7-0.5-1.1
			c0-0.7,0.5-1.2,1.5-1.6c1-0.4,2.6-0.6,4.6-0.7v-0.8H69.6z"/>
	</g>
	<g>
		<path class="st0" d="M93.9,15.9v4.8c0,6-11.6,10.9-25.9,10.9c-14.3,0-25.9-4.9-25.9-10.9v-4.8c0,6,11.6,10.9,25.9,10.9
			C82.4,26.9,93.9,22,93.9,15.9z"/>
		<path class="st1" d="M68.1,5C53.8,5,42.2,9.9,42.2,15.9c0,6,11.6,10.9,25.9,10.9c14.3,0,25.9-4.9,25.9-10.9
			C93.9,9.9,82.4,5,68.1,5z"/>
		<path class="st3" d="M68.1,8c-10.4,0-18.8,3.6-18.8,7.9c0,4.4,8.4,7.9,18.8,7.9c10.4,0,18.8-3.6,18.8-7.9C86.9,11.6,78.4,8,68.1,8
			z"/>
		<path class="st2" d="M69.6,10.8v0.8c1.9,0,3.9,0.2,5.8,0.6L73.7,14c-2-0.4-3.9-0.6-5.5-0.6c-0.8,0-1.3,0-1.6,0.1
			c-0.3,0.1-0.5,0.2-0.5,0.4c0,0.1,0.1,0.2,0.3,0.3c0.2,0.1,0.6,0.2,1.2,0.3c0.6,0.1,1.3,0.2,2.3,0.4c2,0.3,3.5,0.7,4.4,1
			c0.9,0.4,1.3,0.9,1.3,1.5c0,0.7-0.5,1.3-1.6,1.7c-1,0.4-2.5,0.7-4.5,0.8v1.2h-3v-1.2c-2.1,0-4.2-0.2-6.2-0.6v-2
			c1.1,0.2,2.4,0.4,3.7,0.6c1.3,0.2,2.5,0.2,3.5,0.2c0.8,0,1.4,0,1.8-0.1c0.4-0.1,0.6-0.2,0.6-0.4c0-0.1-0.1-0.3-0.4-0.3
			c-0.3-0.1-0.7-0.2-1.4-0.3c-0.6-0.1-1.5-0.3-2.6-0.4c-1.2-0.2-2.2-0.4-3-0.7c-0.8-0.2-1.3-0.5-1.7-0.8c-0.3-0.3-0.5-0.7-0.5-1.1
			c0-0.7,0.5-1.2,1.5-1.6c1-0.4,2.6-0.6,4.6-0.7v-0.8H69.6z"/>
	</g>
	<g>
		<path class="st0" d="M73.1,82.3v3.9c0,4.9-9.4,8.9-21,8.9c-11.6,0-21-4-21-8.9v-3.9c0,4.9,9.4,8.9,21,8.9
			C63.8,91.1,73.1,87.2,73.1,82.3z"/>
		<path class="st1" d="M52.2,73.4c-11.6,0-21,4-21,8.9c0,4.9,9.4,8.9,21,8.9c11.6,0,21-4,21-8.9C73.1,77.4,63.8,73.4,52.2,73.4z"/>
		<path class="st3" d="M52.2,75.8c-8.4,0-15.2,2.9-15.2,6.4c0,3.6,6.8,6.4,15.2,6.4c8.4,0,15.2-2.9,15.2-6.4
			C67.4,78.7,60.6,75.8,52.2,75.8z"/>
		<path class="st2" d="M53.4,78.1v0.7c1.6,0,3.1,0.2,4.7,0.5l-1.4,1.4c-1.6-0.3-3.1-0.5-4.5-0.5c-0.6,0-1.1,0-1.3,0.1
			c-0.3,0.1-0.4,0.2-0.4,0.3c0,0.1,0.1,0.2,0.3,0.3c0.2,0.1,0.5,0.2,1,0.2c0.5,0.1,1.1,0.2,1.9,0.3c1.6,0.2,2.8,0.5,3.5,0.8
			c0.7,0.3,1.1,0.7,1.1,1.2c0,0.6-0.4,1-1.3,1.4c-0.8,0.3-2.1,0.6-3.7,0.7v1H51v-0.9c-1.7,0-3.4-0.2-5-0.5v-1.7
			c0.9,0.2,1.9,0.4,3,0.5C50,84,51,84,51.8,84c0.7,0,1.2,0,1.5-0.1c0.3-0.1,0.5-0.2,0.5-0.3c0-0.1-0.1-0.2-0.3-0.3
			c-0.2-0.1-0.6-0.2-1.1-0.3c-0.5-0.1-1.2-0.2-2.1-0.3c-1-0.2-1.8-0.3-2.4-0.5c-0.6-0.2-1.1-0.4-1.3-0.7C46.1,81.3,46,81,46,80.6
			c0-0.5,0.4-1,1.3-1.3c0.8-0.3,2.1-0.5,3.8-0.6v-0.7H53.4z"/>
	</g>
	<g>
		<path class="st0" d="M59.3,72.5v3.9c0,4.9-9.4,8.9-21,8.9c-11.6,0-21-4-21-8.9v-3.9c0,4.9,9.4,8.9,21,8.9
			C49.9,81.4,59.3,77.4,59.3,72.5z"/>
		<path class="st1" d="M38.3,63.6c-11.6,0-21,4-21,8.9c0,4.9,9.4,8.9,21,8.9c11.6,0,21-4,21-8.9C59.3,67.6,49.9,63.6,38.3,63.6z"/>
		<path class="st3" d="M38.3,66.1c-8.4,0-15.2,2.9-15.2,6.4c0,3.6,6.8,6.4,15.2,6.4c8.4,0,15.2-2.9,15.2-6.4
			C53.5,68.9,46.7,66.1,38.3,66.1z"/>
		<path class="st2" d="M39.6,68.3V69c1.6,0,3.1,0.2,4.7,0.5l-1.4,1.4c-1.6-0.3-3.1-0.5-4.5-0.5c-0.6,0-1.1,0-1.3,0.1
			c-0.3,0.1-0.4,0.2-0.4,0.3c0,0.1,0.1,0.2,0.3,0.3c0.2,0.1,0.5,0.2,1,0.2c0.5,0.1,1.1,0.2,1.9,0.3c1.6,0.2,2.8,0.5,3.5,0.8
			c0.7,0.3,1.1,0.7,1.1,1.2c0,0.6-0.4,1-1.3,1.4c-0.8,0.3-2.1,0.6-3.7,0.7v1h-2.4v-0.9c-1.7,0-3.4-0.2-5-0.5v-1.7
			c0.9,0.2,1.9,0.4,3,0.5c1.1,0.1,2,0.2,2.8,0.2c0.7,0,1.2,0,1.5-0.1c0.3-0.1,0.5-0.2,0.5-0.3c0-0.1-0.1-0.2-0.3-0.3
			c-0.2-0.1-0.6-0.2-1.1-0.3c-0.5-0.1-1.2-0.2-2.1-0.3c-1-0.2-1.8-0.3-2.4-0.5c-0.6-0.2-1.1-0.4-1.3-0.7c-0.3-0.2-0.4-0.5-0.4-0.9
			c0-0.5,0.4-1,1.3-1.3s2.1-0.5,3.8-0.6v-0.7H39.6z"/>
	</g>
	<path class="st2" d="M83.5,36.1l1.4,2.6c0.7,1.2,1.7,2.2,2.9,2.9l2.6,1.4l-2.6,1.4c-1.2,0.7-2.2,1.7-2.9,2.9l-1.4,2.6l-1.4-2.6
		c-0.7-1.2-1.7-2.2-2.9-2.9l-2.6-1.4l2.6-1.4c1.2-0.7,2.2-1.7,2.9-2.9L83.5,36.1z"/>
	<path class="st2" d="M50.4,17.8l1.2,2.1c0.6,1,1.4,1.8,2.4,2.4l2.1,1.2l-2.1,1.2c-1,0.6-1.8,1.4-2.4,2.4l-1.2,2.1L49.2,27
		c-0.6-1-1.4-1.8-2.4-2.4l-2.1-1.2l2.1-1.2c1-0.6,1.8-1.4,2.4-2.4L50.4,17.8z"/>
	<path class="st2" d="M16.4,38.4l1,1.8c0.5,0.9,1.2,1.6,2,2l1.8,1l-1.8,1c-0.9,0.5-1.6,1.2-2,2l-1,1.8l-1-1.8c-0.5-0.9-1.2-1.6-2-2
		l-1.8-1l1.8-1c0.9-0.5,1.6-1.2,2-2L16.4,38.4z"/>
	<path class="st2" d="M42.9,57.3l1.1,2.1c0.5,1,1.4,1.8,2.4,2.4l2.1,1.1l-2.1,1.1c-1,0.5-1.8,1.4-2.4,2.4l-1.1,2.1l-1.1-2.1
		c-0.5-1-1.4-1.8-2.4-2.4l-2.1-1.1l2.1-1.1c1-0.5,1.8-1.4,2.4-2.4L42.9,57.3z"/>
	<path class="st2" d="M72.4,73.4l1,1.8c0.5,0.9,1.2,1.6,2,2l1.8,1l-1.8,1c-0.9,0.5-1.6,1.2-2,2l-1,1.8l-1-1.8c-0.5-0.9-1.2-1.6-2-2
		l-1.8-1l1.8-1c0.9-0.5,1.6-1.2,2-2L72.4,73.4z"/>
	<path class="st2" d="M57.3,44.2l1,1.8c0.5,0.9,1.2,1.6,2,2l1.8,1l-1.8,1c-0.9,0.5-1.6,1.2-2,2l-1,1.8l-1-1.8c-0.5-0.9-1.2-1.6-2-2
		l-1.8-1l1.8-1c0.9-0.5,1.6-1.2,2-2L57.3,44.2z"/>
</g>
</svg>
