<?xml version="1.0" encoding="utf-8"?>
<!-- Generator: Adobe Illustrator 26.1.0, SVG Export Plug-In . SVG Version: 6.00 Build 0)  -->
<svg version="1.1" id="Layer_1" xmlns="http://www.w3.org/2000/svg" xmlns:xlink="http://www.w3.org/1999/xlink" x="0px" y="0px"
	 viewBox="0 0 100 100" style="enable-background:new 0 0 100 100;" xml:space="preserve">
<style type="text/css">
	.st0{fill-rule:evenodd;clip-rule:evenodd;fill:#F2A900;}
	.st1{fill-rule:evenodd;clip-rule:evenodd;fill:#FFD573;}
	.st2{fill:#F2A900;}
</style>
<g>
	<ellipse class="st0" cx="33" cy="74.5" rx="21.9" ry="10.4"/>
	<rect x="11.1" y="70.3" class="st0" width="43.8" height="4.3"/>
	<g>
		<path class="st0" d="M33,80.6c12.1,0,21.9-4.7,21.9-10.4c0-5.7-9.8-10.4-21.9-10.4c-12.1,0-21.9,4.7-21.9,10.4
			C11.1,76,20.9,80.6,33,80.6z"/>
		<path class="st1" d="M33,78.6c10.5,0,19-3.8,19-8.4c0-4.6-8.6-8.4-19-8.4c-10.5,0-19,3.8-19,8.4C14,74.9,22.5,78.6,33,78.6z"/>
		<path class="st2" d="M35.1,65.3c0.9,0.1,1.6,0.3,2.2,0.6c0.8,0.4,1.4,0.9,1.6,1.5l-3.4,0.2c-0.1-0.2-0.2-0.4-0.5-0.6V65.3
			L35.1,65.3z M35.1,69.3c1.5,0.2,2.6,0.5,3.2,0.9c0.8,0.4,1.2,1,1.2,1.7c0,0.8-0.5,1.4-1.5,1.9c-0.8,0.4-1.7,0.7-2.9,0.8v-1.5
			c0.2-0.1,0.3-0.1,0.5-0.2c0.4-0.2,0.6-0.5,0.6-0.8c0-0.3-0.2-0.5-0.5-0.7c-0.2-0.1-0.4-0.2-0.6-0.2V69.3z M32.1,73.2v-2.6
			c-0.3,0-0.6-0.1-0.9-0.1v-1.9c0.2,0.1,0.5,0.2,0.9,0.2v-2.2c-0.3,0.1-0.6,0.1-0.9,0.2v-1.5c0.3,0,0.6-0.1,0.9-0.1v-0.6H34v0.6
			c0.4,0,0.8,0.1,1.1,0.1v1.7c-0.3-0.2-0.7-0.3-1.1-0.4v2.5c0.4,0.1,0.8,0.1,1.1,0.2v1.8c-0.3-0.1-0.7-0.2-1.1-0.2v2.5
			c0.4,0,0.8-0.1,1.1-0.2v1.5c-0.4,0-0.7,0.1-1.1,0.1v1.2h-1.9v-1.1c-0.3,0-0.6,0-0.9-0.1v-1.7C31.5,73.1,31.8,73.2,32.1,73.2z
			 M31.2,70.5c-1.3-0.2-2.3-0.5-3-0.9c-0.8-0.5-1.2-1.1-1.2-1.7c0-0.7,0.5-1.3,1.4-1.7c0.7-0.4,1.7-0.6,2.8-0.7v1.5
			c-0.1,0.1-0.3,0.1-0.4,0.2c-0.3,0.2-0.5,0.4-0.5,0.7c0,0.2,0.1,0.4,0.4,0.6c0.1,0.1,0.3,0.2,0.4,0.2V70.5L31.2,70.5z M31.2,74.7
			c-1.1-0.1-2.1-0.4-2.9-0.7c-1-0.5-1.6-1.1-1.8-1.9l3.5-0.2c0.1,0.3,0.4,0.6,0.8,0.9c0.1,0.1,0.3,0.2,0.4,0.2V74.7z"/>
	</g>
	<path class="st0" d="M47.8,79.4c12.1,0,21.9-4.7,21.9-10.4c0-5.7-9.8-10.4-21.9-10.4c-12.1,0-21.9,4.7-21.9,10.4
		C25.9,74.7,35.7,79.4,47.8,79.4z"/>
	<rect x="25.9" y="64.7" class="st0" width="43.8" height="4.3"/>
	<g>
		<ellipse class="st0" cx="47.8" cy="64.7" rx="21.9" ry="10.4"/>
		<ellipse class="st1" cx="47.8" cy="64.7" rx="19" ry="8.4"/>
		<path class="st2" d="M49.9,59.8c0.9,0.1,1.6,0.3,2.2,0.6c0.8,0.4,1.4,0.9,1.6,1.5l-3.4,0.2c-0.1-0.2-0.2-0.4-0.5-0.6V59.8
			L49.9,59.8z M49.9,63.7c1.5,0.2,2.6,0.5,3.2,0.9c0.8,0.4,1.2,1,1.2,1.7c0,0.8-0.5,1.4-1.5,1.9c-0.8,0.4-1.7,0.7-2.9,0.8v-1.5
			c0.2-0.1,0.3-0.1,0.5-0.2c0.4-0.2,0.6-0.5,0.6-0.8c0-0.3-0.2-0.5-0.5-0.7c-0.2-0.1-0.4-0.2-0.6-0.2V63.7z M46.8,67.7v-2.6
			c-0.3,0-0.6-0.1-0.9-0.1V63c0.2,0.1,0.5,0.2,0.9,0.2v-2.2c-0.3,0.1-0.6,0.1-0.9,0.2v-1.5c0.3,0,0.6-0.1,0.9-0.1v-0.6h1.9v0.6
			c0.4,0,0.8,0.1,1.1,0.1v1.7c-0.3-0.2-0.7-0.3-1.1-0.4v2.5c0.4,0.1,0.8,0.1,1.1,0.2v1.8c-0.3-0.1-0.7-0.2-1.1-0.2v2.5
			c0.4,0,0.8-0.1,1.1-0.2v1.5c-0.4,0-0.7,0.1-1.1,0.1v1.2h-1.9v-1.1c-0.3,0-0.6,0-0.9-0.1v-1.7C46.3,67.6,46.5,67.6,46.8,67.7z
			 M46,64.9c-1.3-0.2-2.3-0.5-3-0.9c-0.8-0.5-1.2-1.1-1.2-1.7c0-0.7,0.5-1.3,1.4-1.7c0.7-0.4,1.7-0.6,2.8-0.7v1.5
			c-0.1,0.1-0.3,0.1-0.4,0.2c-0.3,0.2-0.5,0.4-0.5,0.7c0,0.2,0.1,0.4,0.4,0.6c0.1,0.1,0.3,0.2,0.4,0.2V64.9L46,64.9z M46,69.2
			c-1.1-0.1-2.1-0.4-2.9-0.7c-1-0.5-1.6-1.1-1.8-1.9l3.5-0.2c0.1,0.3,0.4,0.6,0.8,0.9c0.1,0.1,0.3,0.2,0.4,0.2V69.2z"/>
	</g>
	<path class="st0" d="M30.1,70.4c12.1,0,21.9-4.7,21.9-10.4c0-5.7-9.8-10.4-21.9-10.4C18,49.7,8.2,54.4,8.2,60.1
		C8.2,65.8,18,70.4,30.1,70.4z"/>
	<rect x="8.2" y="55.8" class="st0" width="43.8" height="4.3"/>
	<g>
		<ellipse class="st0" cx="30.1" cy="55.8" rx="21.9" ry="10.4"/>
		<ellipse class="st1" cx="30.1" cy="55.8" rx="19" ry="8.4"/>
		<path class="st2" d="M32.2,50.9c0.9,0.1,1.6,0.3,2.2,0.6c0.8,0.4,1.4,0.9,1.6,1.5l-3.4,0.2c-0.1-0.2-0.2-0.4-0.5-0.6V50.9
			L32.2,50.9z M32.2,54.8c1.5,0.2,2.6,0.5,3.2,0.9c0.8,0.4,1.2,1,1.2,1.7c0,0.8-0.5,1.4-1.5,1.9c-0.8,0.4-1.7,0.7-2.9,0.8v-1.5
			c0.2-0.1,0.3-0.1,0.5-0.2c0.4-0.2,0.6-0.5,0.6-0.8c0-0.3-0.2-0.5-0.5-0.7c-0.2-0.1-0.4-0.2-0.6-0.2V54.8z M29.1,58.8v-2.6
			c-0.3,0-0.6-0.1-0.9-0.1v-1.9c0.2,0.1,0.5,0.2,0.9,0.2v-2.2c-0.3,0.1-0.6,0.1-0.9,0.2v-1.5c0.3,0,0.6-0.1,0.9-0.1v-0.6h1.9v0.6
			c0.4,0,0.8,0.1,1.1,0.1v1.7c-0.3-0.2-0.7-0.3-1.1-0.4v2.5c0.4,0.1,0.8,0.1,1.1,0.2v1.8c-0.3-0.1-0.7-0.2-1.1-0.2v2.5
			c0.4,0,0.8-0.1,1.1-0.2v1.5c-0.4,0-0.7,0.1-1.1,0.1v1.2h-1.9v-1.1c-0.3,0-0.6,0-0.9-0.1v-1.7C28.5,58.6,28.8,58.7,29.1,58.8z
			 M28.3,56c-1.3-0.2-2.3-0.5-3-0.9c-0.8-0.5-1.2-1.1-1.2-1.7c0-0.7,0.5-1.3,1.4-1.7c0.7-0.4,1.7-0.6,2.8-0.7v1.5
			c-0.1,0.1-0.3,0.1-0.4,0.2c-0.3,0.2-0.5,0.4-0.5,0.7c0,0.2,0.1,0.4,0.4,0.6c0.1,0.1,0.3,0.2,0.4,0.2V56L28.3,56z M28.3,60.2
			c-1.1-0.1-2.1-0.4-2.9-0.7c-1-0.5-1.6-1.1-1.8-1.9l3.5-0.2c0.1,0.3,0.4,0.6,0.8,0.9c0.1,0.1,0.3,0.2,0.4,0.2V60.2z"/>
	</g>
	<ellipse class="st0" cx="45.7" cy="52.5" rx="21.9" ry="10.4"/>
	<rect x="23.8" y="48.3" class="st0" width="43.8" height="4.3"/>
	<g>
		<ellipse class="st0" cx="45.7" cy="48.3" rx="21.9" ry="10.4"/>
		<path class="st1" d="M45.7,56.6c10.5,0,19-3.8,19-8.4c0-4.6-8.6-8.4-19-8.4c-10.5,0-19,3.8-19,8.4C26.7,52.9,35.3,56.6,45.7,56.6z
			"/>
		<path class="st2" d="M47.9,43.4c0.9,0.1,1.6,0.3,2.2,0.6c0.8,0.4,1.4,0.9,1.6,1.5l-3.4,0.2c-0.1-0.2-0.2-0.4-0.5-0.6V43.4
			L47.9,43.4z M47.9,47.3c1.5,0.2,2.6,0.5,3.2,0.9c0.8,0.4,1.2,1,1.2,1.7c0,0.8-0.5,1.4-1.5,1.9c-0.7,0.4-1.7,0.7-2.9,0.8v-1.5
			c0.2-0.1,0.3-0.1,0.5-0.2c0.4-0.2,0.6-0.5,0.6-0.8c0-0.3-0.2-0.5-0.5-0.7c-0.2-0.1-0.4-0.2-0.6-0.2V47.3z M44.8,51.3v-2.6
			c-0.3,0-0.6-0.1-0.9-0.1v-1.9c0.2,0.1,0.5,0.2,0.9,0.2v-2.2c-0.3,0.1-0.6,0.1-0.9,0.2v-1.5c0.3,0,0.6-0.1,0.9-0.1v-0.6h1.9v0.6
			c0.4,0,0.8,0.1,1.1,0.1v1.7c-0.3-0.2-0.7-0.3-1.1-0.4v2.5c0.4,0.1,0.8,0.1,1.1,0.2v1.8c-0.3-0.1-0.7-0.2-1.1-0.2v2.5
			c0.4,0,0.8-0.1,1.1-0.2v1.5c-0.4,0-0.7,0.1-1.1,0.1v1.2h-1.9v-1.1c-0.3,0-0.6,0-0.9-0.1V51C44.2,51.1,44.5,51.2,44.8,51.3z
			 M44,48.5c-1.3-0.2-2.3-0.5-3-0.9c-0.8-0.5-1.2-1.1-1.2-1.7c0-0.7,0.5-1.3,1.4-1.7c0.7-0.4,1.7-0.6,2.8-0.7v1.5
			c-0.1,0.1-0.3,0.1-0.4,0.2c-0.3,0.2-0.5,0.4-0.5,0.7c0,0.2,0.1,0.4,0.4,0.6c0.1,0.1,0.3,0.2,0.4,0.2V48.5L44,48.5z M44,52.7
			c-1.1-0.1-2.1-0.4-2.9-0.7c-1-0.5-1.6-1.1-1.8-1.9l3.5-0.2c0.1,0.3,0.4,0.6,0.8,0.9c0.1,0.1,0.3,0.2,0.4,0.2V52.7z"/>
	</g>
	<ellipse class="st0" cx="39" cy="45" rx="21.9" ry="10.4"/>
	<rect x="17.1" y="40.8" class="st0" width="43.8" height="4.3"/>
	<g>
		<path class="st0" d="M39,51.1c12.1,0,21.9-4.7,21.9-10.4c0-5.7-9.8-10.4-21.9-10.4C27,30.4,17.1,35,17.1,40.8
			C17.1,46.5,27,51.1,39,51.1z"/>
		<path class="st1" d="M39,49.1c10.5,0,19-3.8,19-8.4c0-4.6-8.6-8.4-19-8.4c-10.5,0-19,3.8-19,8.4C20,45.4,28.5,49.1,39,49.1z"/>
		<path class="st2" d="M41.1,35.8c0.9,0.1,1.6,0.3,2.2,0.6c0.8,0.4,1.4,0.9,1.6,1.5l-3.4,0.2c-0.1-0.2-0.2-0.4-0.5-0.6V35.8
			L41.1,35.8z M41.1,39.8c1.5,0.2,2.6,0.5,3.2,0.9c0.8,0.4,1.2,1,1.2,1.7c0,0.8-0.5,1.4-1.5,1.9c-0.7,0.4-1.7,0.7-2.9,0.8v-1.5
			c0.2-0.1,0.3-0.1,0.5-0.2c0.4-0.2,0.6-0.5,0.6-0.8c0-0.3-0.2-0.5-0.5-0.7c-0.2-0.1-0.4-0.2-0.6-0.2V39.8z M38.1,43.7v-2.6
			c-0.3,0-0.6-0.1-0.9-0.1v-1.9c0.2,0.1,0.5,0.2,0.9,0.2v-2.2c-0.3,0.1-0.6,0.1-0.9,0.2v-1.5c0.3,0,0.6-0.1,0.9-0.1v-0.6H40v0.6
			c0.4,0,0.8,0.1,1.1,0.1v1.7c-0.3-0.2-0.7-0.3-1.1-0.4v2.5c0.4,0.1,0.8,0.1,1.1,0.2v1.8c-0.3-0.1-0.7-0.2-1.1-0.2v2.5
			c0.4,0,0.8-0.1,1.1-0.2v1.5c-0.4,0-0.7,0.1-1.1,0.1v1.2h-1.9v-1.1c-0.3,0-0.6,0-0.9-0.1v-1.7C37.5,43.6,37.8,43.7,38.1,43.7z
			 M37.2,41c-1.3-0.2-2.3-0.5-3-0.9C33.4,39.5,33,39,33,38.3c0-0.7,0.5-1.3,1.4-1.7c0.7-0.4,1.7-0.6,2.8-0.7v1.5
			c-0.1,0.1-0.3,0.1-0.4,0.2c-0.3,0.2-0.5,0.4-0.5,0.7c0,0.2,0.1,0.4,0.4,0.6c0.1,0.1,0.3,0.2,0.4,0.2V41L37.2,41z M37.2,45.2
			c-1.1-0.1-2.1-0.4-2.9-0.7c-1-0.5-1.6-1.1-1.8-1.9l3.5-0.2c0.1,0.3,0.4,0.6,0.8,0.9c0.1,0.1,0.3,0.2,0.4,0.2V45.2z"/>
	</g>
	<path class="st0" d="M44.6,49.5c12.1,0,21.9-4.7,21.9-10.4s-9.8-10.4-21.9-10.4c-12.1,0-21.9,4.7-21.9,10.4S32.6,49.5,44.6,49.5z"
		/>
	<rect x="22.7" y="34.8" class="st0" width="43.8" height="4.3"/>
	<g>
		<path class="st0" d="M44.6,45.2c12.1,0,21.9-4.7,21.9-10.4c0-5.7-9.8-10.4-21.9-10.4c-12.1,0-21.9,4.7-21.9,10.4
			C22.7,40.5,32.6,45.2,44.6,45.2z"/>
		<path class="st1" d="M44.6,43.2c10.5,0,19-3.8,19-8.4c0-4.6-8.6-8.4-19-8.4c-10.5,0-19,3.8-19,8.4C25.6,39.4,34.1,43.2,44.6,43.2z
			"/>
		<path class="st2" d="M46.7,29.9c0.9,0.1,1.6,0.3,2.2,0.6c0.8,0.4,1.4,0.9,1.6,1.5l-3.4,0.2c-0.1-0.2-0.2-0.4-0.5-0.6V29.9
			L46.7,29.9z M46.7,33.8c1.5,0.2,2.6,0.5,3.2,0.9c0.8,0.4,1.2,1,1.2,1.7c0,0.8-0.5,1.4-1.5,1.9c-0.8,0.4-1.7,0.7-2.9,0.8v-1.5
			c0.2-0.1,0.3-0.1,0.5-0.2c0.4-0.2,0.6-0.5,0.6-0.8c0-0.3-0.2-0.5-0.5-0.7c-0.2-0.1-0.4-0.2-0.6-0.2V33.8z M43.7,37.8v-2.6
			c-0.3,0-0.6-0.1-0.9-0.1v-1.9c0.2,0.1,0.5,0.2,0.9,0.2v-2.2c-0.3,0.1-0.6,0.1-0.9,0.2v-1.5c0.3,0,0.6-0.1,0.9-0.1v-0.6h1.9v0.6
			c0.4,0,0.8,0.1,1.1,0.1v1.7c-0.3-0.2-0.7-0.3-1.1-0.4v2.5c0.4,0.1,0.8,0.1,1.1,0.2v1.8c-0.3-0.1-0.7-0.2-1.1-0.2v2.5
			c0.4,0,0.8-0.1,1.1-0.2v1.5c-0.4,0-0.7,0.1-1.1,0.1v1.2h-1.9v-1.1c-0.3,0-0.6,0-0.9-0.1v-1.7C43.1,37.6,43.4,37.7,43.7,37.8z
			 M42.8,35c-1.3-0.2-2.3-0.5-3-0.9c-0.8-0.5-1.2-1.1-1.2-1.7c0-0.7,0.5-1.3,1.4-1.7c0.7-0.4,1.7-0.6,2.8-0.7v1.5
			c-0.1,0.1-0.3,0.1-0.4,0.2C42.1,31.8,42,32,42,32.3c0,0.2,0.1,0.4,0.4,0.6c0.1,0.1,0.3,0.2,0.4,0.2V35L42.8,35z M42.8,39.2
			c-1.1-0.1-2.1-0.4-2.9-0.7c-1-0.5-1.6-1.1-1.8-1.9l3.5-0.2c0.1,0.3,0.4,0.6,0.8,0.9c0.1,0.1,0.3,0.2,0.4,0.2V39.2z"/>
	</g>
	<ellipse class="st0" cx="37.1" cy="32.9" rx="21.9" ry="10.4"/>
	<rect x="15.2" y="28.6" class="st0" width="43.8" height="4.3"/>
	<g>
		<path class="st0" d="M37.1,39C49.2,39,59,34.3,59,28.6c0-5.7-9.8-10.4-21.9-10.4c-12.1,0-21.9,4.7-21.9,10.4
			C15.2,34.3,25,39,37.1,39z"/>
		<path class="st1" d="M37.1,37c10.5,0,19-3.8,19-8.4c0-4.6-8.6-8.4-19-8.4c-10.5,0-19,3.8-19,8.4C18,33.2,26.6,37,37.1,37z"/>
		<path class="st2" d="M39.2,23.7c0.9,0.1,1.6,0.3,2.2,0.6c0.8,0.4,1.4,0.9,1.6,1.5L39.7,26c-0.1-0.2-0.2-0.4-0.5-0.6V23.7
			L39.2,23.7z M39.2,27.6c1.5,0.2,2.6,0.5,3.2,0.9c0.8,0.4,1.2,1,1.2,1.7c0,0.8-0.5,1.4-1.5,1.9c-0.8,0.4-1.7,0.7-2.9,0.8v-1.5
			c0.2-0.1,0.3-0.1,0.5-0.2c0.4-0.2,0.6-0.5,0.6-0.8c0-0.3-0.2-0.5-0.5-0.7c-0.2-0.1-0.4-0.2-0.6-0.2V27.6z M36.2,31.6v-2.6
			c-0.3,0-0.6-0.1-0.9-0.1v-1.9c0.2,0.1,0.5,0.2,0.9,0.2V25c-0.3,0.1-0.6,0.1-0.9,0.2v-1.5c0.3,0,0.6-0.1,0.9-0.1V23h1.9v0.6
			c0.4,0,0.8,0.1,1.1,0.1v1.7c-0.3-0.2-0.7-0.3-1.1-0.4v2.5c0.4,0.1,0.8,0.1,1.1,0.2v1.8c-0.3-0.1-0.7-0.2-1.1-0.2v2.5
			c0.4,0,0.8-0.1,1.1-0.2v1.5c-0.4,0-0.7,0.1-1.1,0.1v1.2h-1.9v-1.1c-0.3,0-0.6,0-0.9-0.1v-1.7C35.6,31.4,35.9,31.5,36.2,31.6z
			 M35.3,28.8c-1.3-0.2-2.3-0.5-3-0.9c-0.8-0.5-1.2-1.1-1.2-1.7c0-0.7,0.5-1.3,1.4-1.7c0.7-0.4,1.7-0.6,2.8-0.7v1.5
			c-0.1,0.1-0.3,0.1-0.4,0.2c-0.3,0.2-0.5,0.4-0.5,0.7c0,0.2,0.1,0.4,0.4,0.6c0.1,0.1,0.3,0.2,0.4,0.2V28.8L35.3,28.8z M35.3,33
			c-1.1-0.1-2.1-0.4-2.9-0.7c-1-0.5-1.6-1.1-1.8-1.9l3.5-0.2c0.1,0.3,0.4,0.6,0.8,0.9c0.1,0.1,0.3,0.2,0.4,0.2V33z"/>
	</g>
	<ellipse class="st0" cx="31.6" cy="27.1" rx="21.9" ry="10.4"/>
	<rect x="9.7" y="22.9" class="st0" width="43.8" height="4.3"/>
	<g>
		<path class="st0" d="M31.6,33.2c12.1,0,21.9-4.7,21.9-10.4c0-5.7-9.8-10.4-21.9-10.4S9.7,17.1,9.7,22.9
			C9.7,28.6,19.6,33.2,31.6,33.2z"/>
		<path class="st1" d="M31.6,31.2c10.5,0,19-3.8,19-8.4c0-4.6-8.6-8.4-19-8.4c-10.5,0-19,3.8-19,8.4C12.6,27.5,21.1,31.2,31.6,31.2z
			"/>
		<path class="st2" d="M33.8,17.9c0.9,0.1,1.6,0.3,2.2,0.6c0.8,0.4,1.4,0.9,1.6,1.5l-3.4,0.2c-0.1-0.2-0.2-0.4-0.5-0.6V17.9
			L33.8,17.9z M33.8,21.9c1.5,0.2,2.6,0.5,3.2,0.9c0.8,0.4,1.2,1,1.2,1.7c0,0.8-0.5,1.4-1.5,1.9c-0.8,0.4-1.7,0.7-2.9,0.8v-1.5
			c0.2-0.1,0.3-0.1,0.5-0.2c0.4-0.2,0.6-0.5,0.6-0.8c0-0.3-0.2-0.5-0.5-0.7c-0.2-0.1-0.4-0.2-0.6-0.2V21.9z M30.7,25.8v-2.6
			c-0.3,0-0.6-0.1-0.9-0.1v-1.9c0.2,0.1,0.5,0.2,0.9,0.2v-2.2c-0.3,0.1-0.6,0.1-0.9,0.2v-1.5c0.3,0,0.6-0.1,0.9-0.1v-0.6h1.9v0.6
			c0.4,0,0.8,0.1,1.1,0.1v1.7c-0.3-0.2-0.7-0.3-1.1-0.4v2.5c0.4,0.1,0.8,0.1,1.1,0.2v1.8c-0.3-0.1-0.7-0.2-1.1-0.2v2.5
			c0.4,0,0.8-0.1,1.1-0.2v1.5c-0.4,0-0.7,0.1-1.1,0.1v1.2h-1.9v-1.1c-0.3,0-0.6,0-0.9-0.1v-1.7C30.1,25.7,30.4,25.8,30.7,25.8z
			 M29.8,23.1c-1.3-0.2-2.3-0.5-3-0.9c-0.8-0.5-1.2-1.1-1.2-1.7c0-0.7,0.5-1.3,1.4-1.7c0.7-0.4,1.7-0.6,2.8-0.7v1.5
			c-0.1,0.1-0.3,0.1-0.4,0.2c-0.3,0.2-0.5,0.4-0.5,0.7c0,0.2,0.1,0.4,0.4,0.6c0.1,0.1,0.3,0.2,0.4,0.2V23.1L29.8,23.1z M29.8,27.3
			c-1.1-0.1-2.1-0.4-2.9-0.7c-1-0.5-1.6-1.1-1.8-1.9l3.5-0.2c0.1,0.3,0.4,0.6,0.8,0.9c0.1,0.1,0.3,0.2,0.4,0.2V27.3z"/>
	</g>
	<ellipse class="st0" cx="41.5" cy="19.6" rx="21.9" ry="10.4"/>
	<rect x="19.6" y="15.4" class="st0" width="43.8" height="4.3"/>
	<g>
		<path class="st0" d="M41.5,25.7c12.1,0,21.9-4.7,21.9-10.4C63.5,9.7,53.6,5,41.5,5C29.5,5,19.6,9.7,19.6,15.4
			C19.6,21.1,29.5,25.7,41.5,25.7z"/>
		<path class="st1" d="M41.5,23.7c10.5,0,19-3.8,19-8.4c0-4.6-8.6-8.4-19-8.4c-10.5,0-19,3.8-19,8.4C22.5,20,31.1,23.7,41.5,23.7z"
			/>
		<path class="st2" d="M43.7,10.5c0.9,0.1,1.6,0.3,2.2,0.6c0.8,0.4,1.4,0.9,1.6,1.5l-3.4,0.2c-0.1-0.2-0.2-0.4-0.5-0.6V10.5
			L43.7,10.5z M43.7,14.4c1.5,0.2,2.6,0.5,3.2,0.9c0.8,0.4,1.2,1,1.2,1.7c0,0.8-0.5,1.4-1.5,1.9c-0.8,0.4-1.7,0.7-2.9,0.8v-1.5
			c0.2-0.1,0.3-0.1,0.5-0.2c0.4-0.2,0.6-0.5,0.6-0.8c0-0.3-0.2-0.5-0.5-0.7c-0.2-0.1-0.4-0.2-0.6-0.2V14.4z M40.6,18.3v-2.6
			c-0.3,0-0.6-0.1-0.9-0.1v-1.9c0.2,0.1,0.5,0.2,0.9,0.2v-2.2c-0.3,0.1-0.6,0.1-0.9,0.2v-1.5c0.3,0,0.6-0.1,0.9-0.1V9.7h1.9v0.6
			c0.4,0,0.8,0.1,1.1,0.1v1.7c-0.3-0.2-0.7-0.3-1.1-0.4v2.5c0.4,0.1,0.8,0.1,1.1,0.2v1.8C43.4,16.1,43,16,42.5,16v2.5
			c0.4,0,0.8-0.1,1.1-0.2v1.5c-0.4,0-0.7,0.1-1.1,0.1V21h-1.9v-1.1c-0.3,0-0.6,0-0.9-0.1v-1.7C40,18.2,40.3,18.3,40.6,18.3z
			 M39.8,15.6c-1.3-0.2-2.3-0.5-3-0.9c-0.8-0.5-1.2-1.1-1.2-1.7c0-0.7,0.5-1.3,1.4-1.7c0.7-0.4,1.7-0.6,2.8-0.7V12
			c-0.1,0.1-0.3,0.1-0.4,0.2c-0.3,0.2-0.5,0.4-0.5,0.7c0,0.2,0.1,0.4,0.4,0.6c0.1,0.1,0.3,0.2,0.4,0.2V15.6L39.8,15.6z M39.8,19.8
			c-1.1-0.1-2.1-0.4-2.9-0.7c-1-0.5-1.6-1.1-1.8-1.9l3.5-0.2c0.1,0.3,0.4,0.6,0.8,0.9c0.1,0.1,0.3,0.2,0.4,0.2V19.8z"/>
	</g>
	<g>
		<path class="st0" d="M69.9,95c12.1,0,21.9-9.8,21.9-21.9c0-12.1-9.8-21.9-21.9-21.9C57.9,51.2,48,61,48,73.1
			C48,85.2,57.9,95,69.9,95z"/>
		<path class="st1" d="M69.9,90.7c9.7,0,17.7-7.9,17.7-17.7c0-9.7-7.9-17.7-17.7-17.7c-9.7,0-17.7,7.9-17.7,17.7
			C52.3,82.8,60.2,90.7,69.9,90.7z"/>
		<path class="st2" d="M72.1,62.7c0.9,0.2,1.6,0.7,2.2,1.2c0.8,0.8,1.4,1.9,1.6,3.2l-3.4,0.4c-0.1-0.5-0.2-0.9-0.5-1.2V62.7
			L72.1,62.7z M72.1,71c1.5,0.5,2.6,1.2,3.2,1.9c0.8,0.9,1.2,2.1,1.2,3.5c0,1.6-0.5,3-1.5,4.1c-0.8,0.9-1.7,1.4-2.9,1.8v-3.2
			c0.2-0.1,0.3-0.3,0.5-0.5c0.4-0.5,0.6-1.1,0.6-1.7c0-0.6-0.2-1.1-0.5-1.5c-0.2-0.2-0.4-0.4-0.6-0.5V71z M69,79.4v-5.6
			c-0.3-0.1-0.6-0.2-0.9-0.3v-4c0.2,0.2,0.5,0.4,0.9,0.5v-4.6c-0.3,0.1-0.6,0.3-0.9,0.5v-3.2c0.3-0.1,0.6-0.1,0.9-0.1v-1.3h1.9v1.3
			c0.4,0,0.8,0.1,1.1,0.2v3.7c-0.3-0.4-0.7-0.7-1.1-0.9v5.2c0.4,0.1,0.8,0.2,1.1,0.3v3.9c-0.3-0.2-0.7-0.3-1.1-0.5v5.2
			c0.4-0.1,0.8-0.2,1.1-0.5v3.2c-0.4,0.1-0.7,0.2-1.1,0.2V85H69v-2.4c-0.3,0-0.6-0.1-0.9-0.2v-3.7C68.4,79,68.7,79.2,69,79.4z
			 M68.1,73.5c-1.3-0.5-2.3-1.1-3-2c-0.8-1-1.2-2.2-1.2-3.7c0-1.5,0.5-2.7,1.4-3.7c0.7-0.8,1.7-1.3,2.8-1.6v3.2
			c-0.1,0.1-0.3,0.3-0.4,0.4c-0.3,0.4-0.5,0.9-0.5,1.4c0,0.5,0.1,0.9,0.4,1.3c0.1,0.2,0.3,0.3,0.4,0.5V73.5L68.1,73.5z M68.1,82.4
			c-1.1-0.3-2.1-0.8-2.9-1.6c-1-1-1.6-2.3-1.8-4.1l3.5-0.4c0.1,0.7,0.4,1.3,0.8,1.8c0.1,0.2,0.3,0.4,0.4,0.5V82.4z"/>
	</g>
</g>
</svg>
