<?xml version="1.0" encoding="utf-8"?>
<!-- Generator: Adobe Illustrator 26.1.0, SVG Export Plug-In . SVG Version: 6.00 Build 0)  -->
<svg version="1.1" id="Layer_1" xmlns="http://www.w3.org/2000/svg" xmlns:xlink="http://www.w3.org/1999/xlink" x="0px" y="0px"
	 viewBox="0 0 100 100" style="enable-background:new 0 0 100 100;" xml:space="preserve">
<style type="text/css">
	.st0{fill:#F9CA35;}
	.st1{fill:#8BC543;stroke:#006738;stroke-width:8.3028;stroke-miterlimit:10;}
	.st2{fill:#006738;}
	.st3{fill:#8BC543;}
	.st4{fill:#3BB1D1;}
	.st5{fill:#2697B2;}
	.st6{fill:#D0D2D3;}
	.st7{fill:#A6A8AB;}
	.st8{fill:#2B2B38;}
	.st9{opacity:0.3;fill:#E6E6E7;}
	.st10{opacity:0.5;fill:#FFFFFF;}
</style>
<g>
	<path class="st0" d="M95,50c0,24.85-20.15,45-45,45S5,74.85,5,50C5,25.15,25.15,5,50,5S95,25.15,95,50z"/>
	<g>
		<g>
			<rect x="10.25" y="24.87" class="st1" width="79.58" height="38.24"/>
			<path class="st2" d="M65.39,43.98c0,8.48-6.87,15.35-15.35,15.36c-8.48,0-15.36-6.87-15.36-15.35c0-8.48,6.87-15.36,15.35-15.36
				C58.52,28.63,65.39,35.5,65.39,43.98z"/>
			<path class="st2" d="M10.25,24.88l0,10.16c5.61,0,10.16-4.55,10.16-10.17L10.25,24.88z"/>
			<g>
				<g>
					<path class="st3" d="M53.27,39.87c-0.1-1.16-1.18-1.75-3.24-1.75c-2.06,0-3.09,0.55-3.09,1.65c0,0.67,0.33,1.16,1,1.46
						c0.66,0.3,2,0.65,4.01,1.03c2.01,0.38,3.48,1.03,4.42,1.93c0.94,0.9,1.41,2.08,1.41,3.52c0,1.69-0.75,2.99-2.26,3.91
						c-1.51,0.92-3.23,1.38-5.18,1.38c-4.7,0-7.38-1.8-8.04-5.4l3.89-0.32c0.29,1.89,1.68,2.84,4.17,2.83c2.34,0,3.5-0.79,3.5-2.38
						c0-0.7-0.28-1.22-0.85-1.57c-0.57-0.34-1.9-0.72-3.99-1.13c-2.09-0.41-3.61-1.03-4.54-1.87c-0.93-0.84-1.39-1.89-1.39-3.14
						c0-1.34,0.6-2.48,1.79-3.41c1.19-0.93,2.93-1.4,5.22-1.4c4.52,0,6.89,1.5,7.11,4.49L53.27,39.87z"/>
				</g>
				<rect x="48.41" y="32.23" class="st3" width="3.71" height="3.37"/>
				<rect x="48.42" y="52.36" class="st3" width="3.71" height="3.37"/>
			</g>
			<path class="st2" d="M10.26,62.51l10.16,0c0-5.61-4.55-10.16-10.17-10.16L10.26,62.51z"/>
			<path class="st2" d="M89.83,62.49l0-10.16c-5.61,0-10.16,4.55-10.16,10.17L89.83,62.49z"/>
			<path class="st2" d="M89.82,24.86l-10.16,0c0,5.61,4.55,10.16,10.17,10.16L89.82,24.86z"/>
			<path class="st2" d="M28.01,43.99c0,1.91-1.55,3.47-3.46,3.47c-1.91,0-3.47-1.55-3.46-3.46c0-1.91,1.55-3.46,3.46-3.47
				C26.46,40.53,28.01,42.08,28.01,43.99z"/>
			<path class="st2" d="M79,43.98c0,1.92-1.55,3.46-3.47,3.46c-1.91,0-3.47-1.55-3.47-3.46c0-1.91,1.55-3.47,3.47-3.47
				C77.45,40.51,79,42.06,79,43.98z"/>
		</g>
		<g>
			<path class="st4" d="M43.51,64.3L28.85,93.34c-0.3,0.53-0.98,0.72-1.52,0.42l-8.32-4.72c-0.53-0.3-0.72-0.98-0.42-1.52
				l17.39-27.49L43.51,64.3z"/>
			<path class="st5" d="M37.25,66.4l-3.89-2.21l2.63-4.16l7.53,4.26L28.85,93.34c-0.3,0.53-0.98,0.72-1.52,0.42l-4.24-2.4
				L37.25,66.4z"/>
			<polygon class="st6" points="32.32,65.82 35.98,60.04 43.51,64.3 40.42,70.41 			"/>
			<polygon class="st7" points="36.3,68.07 39.81,62.21 43.65,64.39 40.43,70.41 			"/>
			<path class="st8" d="M30.19,33.17c-6.16,10.86-2.34,24.66,8.52,30.82c10.86,6.16,24.66,2.34,30.82-8.52
				c6.16-10.86,2.34-24.66-8.52-30.82C50.14,18.49,36.35,22.31,30.19,33.17z M33.25,34.91c5.2-9.17,16.85-12.4,26.03-7.2
				c9.17,5.2,12.4,16.85,7.2,26.03c-5.2,9.17-16.85,12.4-26.03,7.19C31.27,55.73,28.05,44.08,33.25,34.91z"/>
			<path class="st9" d="M32.47,34.47c-5.44,9.6-2.07,21.8,7.53,27.25c9.6,5.44,21.8,2.07,27.25-7.53c5.44-9.6,2.07-21.8-7.53-27.25
				C50.11,21.49,37.91,24.86,32.47,34.47z"/>
			<path class="st10" d="M65.95,38.53c2.28,6.86,0,14.68-6.17,19.14c-6.16,4.46-14.31,4.19-20.11-0.12c0,0,9.87-3.99,15.05-7.74
				C60.06,45.94,65.95,38.53,65.95,38.53z"/>
		</g>
	</g>
</g>
</svg>
