<?xml version="1.0" ?>
<!-- Uploaded to: SVG Repo, www.svgrepo.com, Generator: SVG Repo Mixer Tools -->
<svg width="800px" height="800px" viewBox="0 0 120 120" id="Layer_1" version="1.1" xml:space="preserve" xmlns="http://www.w3.org/2000/svg" xmlns:xlink="http://www.w3.org/1999/xlink">
<style type="text/css">
	.st0{fill:#383E56;}
	.st1{fill:#ACAFBF;}
	.st2{opacity:0.15;enable-background:new    ;}
	.st3{fill:none;}
	.st4{fill:#E5CF89;}
</style>
<g>
<g>
<path class="st0" d="M103.9,76.6L34.6,91.7c-2.6,0.6-5.2-1.1-5.7-3.7l-9.7-44c-0.6-2.6,1.1-5.2,3.7-5.7l69.3-15.1    c2.6-0.6,5.2,1.1,5.7,3.7l9.6,44.1C108.1,73.5,106.5,76.1,103.9,76.6z"/>
<path class="st0" d="M28.8,88l-9.6-44"/>
<rect class="st1" height="9.2" transform="matrix(0.9771 -0.2128 0.2128 0.9771 -8.1615 13.9467)" width="80.6" x="20.4" y="40.3"/>
<path class="st2" d="M105.8,74.4L36.5,89.5c-2.6,0.6-5.2-1.1-5.7-3.7l-9.6-44.1c-0.2-1-0.1-2.1,0.3-3c-1.7,1-2.7,3.1-2.3,5.1    L28.8,88c0.6,2.6,3.1,4.2,5.7,3.7l69.3-15.1c1.6-0.3,2.8-1.4,3.4-2.8C106.8,74.1,106.3,74.3,105.8,74.4z"/>
</g>
<path class="st2" d="M95.7,50.4v45.1c0,1.1-0.4,2.2-1.1,3l0,0c-0.8,0.7-1.9,1.1-3,1.1h-71c-2.7,0-4.8-2.2-4.8-4.8V49.7   c0-1.1,0.4-2.2,1.1-3l0,0c0.8-0.7,1.9-1.1,3-1.1h70.9C93.5,45.5,95.7,47.7,95.7,50.4z"/>
<path class="st2" d="M95.7,50.4v45.1c0,1.1-0.4,2.2-1.1,3l0,0c-0.9,1.1-2.2,1.8-3.7,1.8h-71c-2.7,0-4.8-2.2-4.8-4.8V50.4   c0-1.5,0.7-2.8,1.8-3.7l0,0c0.8-0.7,1.9-1.1,3-1.1h70.9C93.5,45.5,95.7,47.7,95.7,50.4z"/>
<path class="st3" d="M90.8,100.3H19.9c-2.7,0-4.8-2.2-4.8-4.8V50.4c0-2.7,2.2-4.8,4.8-4.8h70.9c2.7,0,4.8,2.2,4.8,4.8v45.1   C95.6,98.1,93.5,100.3,90.8,100.3z"/>
<path class="st0" d="M90.8,100.3H19.9c-2.7,0-4.8-2.2-4.8-4.8V50.4c0-2.7,2.2-4.8,4.8-4.8h70.9c2.7,0,4.8,2.2,4.8,4.8v45.1   C95.6,98.1,93.5,100.3,90.8,100.3z"/>
<path class="st4" d="M38.2,78.7H24.1c-1,0-1.8-0.8-1.8-1.8v-8.1c0-1,0.8-1.8,1.8-1.8h14.1c1,0,1.8,0.8,1.8,1.8V77   C40,77.9,39.2,78.7,38.2,78.7z"/>
<path class="st2" d="M93.2,98.4h-71c-2.7,0-4.8-2.2-4.8-4.8V48.5c0-1.1,0.4-2,0.9-2.8c-1.9,0.6-3.3,2.4-3.3,4.5v45.1   c0,2.7,2.2,4.8,4.8,4.8h70.9c1.6,0,3-0.8,3.9-2C94.2,98.3,93.7,98.4,93.2,98.4z"/>
<g>
<path class="st1" d="M85.9,91.8H69.3c-0.4,0-0.8,0.3-0.8,0.8v0.9c0,0.4,0.3,0.8,0.8,0.8h16.6c0.4,0,0.8-0.3,0.8-0.8v-0.9    C86.7,92.1,86.3,91.8,85.9,91.8z"/>
<path class="st1" d="M65.3,91.8H40.2c-0.4,0-0.8,0.3-0.8,0.8v0.9c0,0.4,0.3,0.8,0.8,0.8h25.1c0.4,0,0.8-0.3,0.8-0.8v-0.9    C66.1,92.1,65.8,91.8,65.3,91.8z"/>
</g>
</g>
</svg>