<?xml version="1.0" encoding="utf-8"?>
<!-- Generator: Adobe Illustrator 26.1.0, SVG Export Plug-In . SVG Version: 6.00 Build 0)  -->
<svg version="1.1" id="Layer_1" xmlns="http://www.w3.org/2000/svg" xmlns:xlink="http://www.w3.org/1999/xlink" x="0px" y="0px"
	 viewBox="0 0 100 100" style="enable-background:new 0 0 100 100;" xml:space="preserve">
<style type="text/css">
	.st0{fill:#63A6AD;}
	.st1{fill:#FFFFFF;}
	.st2{fill:#FDCE5E;}
	.st3{fill:#EFB94D;}
	.st4{fill:#2D5759;}
</style>
<g>
	<path class="st0" d="M69.5,5h-40c-3.7,0-6.8,3-6.8,6.8v76.4c0,3.7,3,6.8,6.8,6.8h40c3.7,0,6.8-3,6.8-6.8V11.8C76.3,8,73.3,5,69.5,5
		z"/>
	<rect x="25.4" y="13.7" class="st1" width="48.2" height="65.7"/>
	<path class="st1" d="M54.1,11.1h-9.2c-0.4,0-0.8-0.3-0.8-0.8v-0.2c0-0.4,0.3-0.8,0.8-0.8h9.2c0.4,0,0.8,0.3,0.8,0.8v0.2
		C54.9,10.8,54.5,11.1,54.1,11.1z"/>
	<g>
		<ellipse transform="matrix(0.75 -0.6615 0.6615 0.75 -24.038 33.1394)" class="st2" cx="31.8" cy="48.4" rx="16.3" ry="16.3"/>
		<path class="st3" d="M32.5,35.5c-7.1-0.4-13.2,5.1-13.6,12.2c-0.4,7.1,5.1,13.2,12.2,13.6c7.1,0.4,13.2-5.1,13.6-12.2
			C45.1,41.9,39.6,35.8,32.5,35.5z M31.2,59.2c-6-0.3-10.6-5.4-10.2-11.4c0.3-6,5.4-10.6,11.4-10.2C38.4,37.9,43,43,42.6,49
			C42.3,54.9,37.2,59.5,31.2,59.2z"/>
		
			<ellipse transform="matrix(0.9197 -0.3926 0.3926 0.9197 -16.4351 16.3761)" class="st2" cx="31.8" cy="48.4" rx="10.8" ry="10.8"/>
		<g>
			<path class="st1" d="M32.5,54.4L32.4,57l-2.3-0.1l0.1-2.6c-1.6-0.3-3.1-1.1-4.2-2.1l1.3-2.4c1.2,1.1,3,2,4.2,2
				c0.9,0,1.5-0.3,1.5-0.9c0.1-2-6.2-1.1-6-5.4c0.1-1.9,1.5-3.1,3.7-3.4l0.1-2.5l2.3,0.1l-0.1,2.5c1.4,0.2,2.7,0.8,3.7,1.5l-1.3,2.4
				c-1.2-0.8-2.8-1.4-3.8-1.5c-0.7,0-1.3,0.2-1.3,0.7c-0.1,2,6.2,1.2,6,5.5C36.4,53.1,34.7,54.3,32.5,54.4z"/>
		</g>
	</g>
	<g>
		<path class="st3" d="M81.6,30.6c-3.8-7.3-12.8-10.8-20.2-7.9c-7.4,2.9-10.3,11.1-6.5,18.4c3.8,7.3,12.8,10.8,20.2,7.9
			C82.5,46.2,85.4,37.9,81.6,30.6z"/>
		<path class="st2" d="M82.9,28.4c-3.8-7.3-12.8-10.8-20.2-7.9c-7.4,2.9-10.3,11.1-6.5,18.4C60,46.1,69,49.7,76.4,46.8
			C83.7,43.9,86.6,35.7,82.9,28.4z"/>
		<path class="st2" d="M82.9,28.4c-3.8-7.3-12.8-10.8-20.2-7.9c-7.4,2.9-10.3,11.1-6.5,18.4C60,46.1,69,49.7,76.4,46.8
			C83.7,43.9,86.6,35.7,82.9,28.4z"/>
		<path class="st3" d="M60.7,37.1c-2.5-4.8-0.6-10.3,4.3-12.2c4.9-1.9,10.9,0.4,13.4,5.3c2.5,4.8,0.6,10.3-4.3,12.2
			C69.2,44.3,63.2,41.9,60.7,37.1 M64.1,23.2C58.3,25.5,56,32,59,37.8c3,5.8,10.1,8.6,16,6.3c5.8-2.3,8.1-8.8,5.2-14.6
			C77.1,23.7,70,20.9,64.1,23.2"/>
		<path class="st1" d="M66.8,26.4L65,27.2l1,2c-1.6,1-2.2,2.5-1.4,4c1.8,3.4,6.4,0.4,7.2,2c0.3,0.5-0.1,1-0.8,1.3
			c-1,0.4-2.8,0.4-4.3-0.1l0,2.4c1.3,0.4,2.9,0.4,4.3,0.1l1.1,2.1l1.8-0.7l-1.1-2.1c1.6-0.9,2.4-2.4,1.6-4.1
			c-1.8-3.5-6.5-0.5-7.3-2.1c-0.2-0.4,0.1-0.8,0.7-1.1c0.8-0.3,2.3-0.4,3.7-0.2l-0.1-2.4c-1.1-0.2-2.4-0.2-3.6,0.2L66.8,26.4"/>
	</g>
	<ellipse transform="matrix(0.2288 -0.9735 0.9735 0.2288 -47.3131 115.9524)" class="st1" cx="49.5" cy="87.8" rx="4.3" ry="4.3"/>
	<polygon class="st4" points="64.4,55.8 58.5,52.2 52.6,48.6 52.4,55.6 52.3,62.5 55.8,59.6 57.3,62.4 61.7,60 60.1,57.2 	"/>
</g>
</svg>
