<?xml version="1.0" encoding="iso-8859-1"?>
<!-- Uploaded to: SVG Repo, www.svgrepo.com, Generator: SVG Repo Mixer Tools -->
<svg height="800px" width="800px" version="1.1" id="Layer_1" xmlns="http://www.w3.org/2000/svg" xmlns:xlink="http://www.w3.org/1999/xlink" 
	 viewBox="0 0 512.001 512.001" xml:space="preserve">
<path style="fill:#3FC8F2;" d="M425.647,436.558L341.81,352.72c-2.894-2.891-7.488-3.173-10.714-0.652
	c-21.542,16.844-47.418,25.748-74.827,25.748c-27.41,0-53.282-8.903-74.826-25.748c-3.223-2.519-7.818-2.239-10.714,0.652
	l-83.838,83.838c-1.583,1.584-2.44,3.752-2.366,5.988c0.073,2.237,1.068,4.344,2.751,5.822C134.013,489.403,194.03,512,256.27,512
	s122.257-22.598,168.993-63.631c1.683-1.477,2.677-3.584,2.751-5.822C428.086,440.309,427.23,438.141,425.647,436.558z"/>
<path style="fill:#894BA2;" d="M509.808,266.386c-1.53-1.633-3.668-2.559-5.906-2.559H385.008c-4.097,0-7.547,3.06-8.039,7.126
	c-2.615,21.663-11.072,42.263-24.456,59.573c-2.493,3.224-2.2,7.798,0.68,10.679l83.904,83.903c1.521,1.52,3.581,2.371,5.726,2.371
	c0.087,0,0.175-0.001,0.262-0.004c2.237-0.072,4.344-1.068,5.822-2.751c37.604-42.832,59.416-95.488,63.075-152.279
	C512.126,270.213,511.339,268.019,509.808,266.386z"/>
<path style="fill:#F77935;" d="M511.982,239.017C503.734,111.013,400.987,8.267,272.984,0.019c-2.238-0.155-4.427,0.643-6.059,2.174
	c-1.633,1.53-2.559,3.668-2.559,5.906v119.446c0,4.084,3.042,7.53,7.096,8.034c54.992,6.851,98.334,50.024,105.397,104.99
	c0.518,4.039,3.958,7.065,8.031,7.065h119.011c2.238,0,4.377-0.925,5.906-2.559C511.339,243.443,512.126,241.249,511.982,239.017z"
	/>
<path style="fill:#FFDB56;" d="M245.614,2.193c-1.633-1.531-3.822-2.33-6.059-2.174c-64.885,4.18-125.233,32.634-169.93,80.119
	C24.727,127.834,0.001,190.195,0.001,255.731c0,62.24,22.598,122.257,63.631,168.993c1.477,1.683,3.584,2.677,5.822,2.751
	c0.087,0.003,0.175,0.004,0.262,0.004c2.144,0,4.204-0.851,5.726-2.371l83.904-83.904c2.88-2.881,3.172-7.455,0.68-10.679
	c-16.581-21.444-25.347-47.136-25.347-74.3c0-61.223,45.74-113.09,106.396-120.646c4.054-0.505,7.096-3.95,7.096-8.034V8.099
	C248.173,5.861,247.247,3.723,245.614,2.193z"/>
<path style="fill:#FBA806;" d="M226.007,123.818c-73.002,0-132.182,59.18-132.182,132.182c0,41.223,18.873,78.036,48.448,102.276
	l17.072-17.073c2.88-2.881,3.172-7.455,0.68-10.679c-16.581-21.444-25.347-47.136-25.347-74.3
	c0-61.223,45.74-113.09,106.396-120.646c4.054-0.505,7.096-3.95,7.096-8.034v-1.867
	C240.965,124.461,233.562,123.818,226.007,123.818z"/>
<path style="fill:#763794;" d="M509.808,266.386c-1.53-1.633-3.668-2.559-5.906-2.559h-33.547
	c-1.624,54.032-19.985,103.852-50.082,144.456l16.824,16.824c1.521,1.52,3.581,2.371,5.726,2.371c0.087,0,0.175-0.001,0.262-0.004
	c2.237-0.072,4.344-1.068,5.822-2.751c37.604-42.832,59.415-95.488,63.075-152.279C512.126,270.213,511.339,268.019,509.808,266.386
	z"/>
<g>
	<path style="fill:#0DAACE;" d="M226.007,388.182c21.049,0,40.944-4.928,58.607-13.681c-9.177,2.18-18.662,3.314-28.346,3.314
		c-27.41,0-53.282-8.903-74.826-25.748c-3.223-2.519-7.818-2.239-10.714,0.652l-15.149,15.149
		C175.971,380.732,200.118,388.182,226.007,388.182z"/>
	<path style="fill:#0DAACE;" d="M410.15,421.06c-42.734,50.605-104.73,84.405-174.688,90.08c6.899,0.561,13.838,0.86,20.808,0.86
		c62.24,0,122.257-22.598,168.993-63.631c1.683-1.477,2.677-3.584,2.751-5.822c0.072-2.237-0.785-4.405-2.366-5.989L410.15,421.06z"
		/>
</g>
<path style="fill:#D9510D;" d="M511.982,239.017C503.734,111.013,400.987,8.267,272.984,0.019c-2.238-0.155-4.427,0.643-6.059,2.174
	c-0.846,0.792-1.497,1.751-1.934,2.799C379.541,27.916,466.469,127.28,470.335,247.634h33.567c2.238,0,4.377-0.925,5.906-2.559
	C511.339,243.443,512.126,241.249,511.982,239.017z"/>
</svg>