<?xml version="1.0" encoding="utf-8"?>
<!-- Generator: Adobe Illustrator 26.1.0, SVG Export Plug-In . SVG Version: 6.00 Build 0)  -->
<svg version="1.1" id="Layer_1" xmlns="http://www.w3.org/2000/svg" xmlns:xlink="http://www.w3.org/1999/xlink" x="0px" y="0px"
	 viewBox="0 0 100 100" style="enable-background:new 0 0 100 100;" xml:space="preserve">
<style type="text/css">
	.st0{fill-rule:evenodd;clip-rule:evenodd;fill:#FFD573;}
	.st1{fill-rule:evenodd;clip-rule:evenodd;fill:#FFCC9A;}
	.st2{fill-rule:evenodd;clip-rule:evenodd;fill:#DB9900;}
	.st3{fill-rule:evenodd;clip-rule:evenodd;fill:#FFC02E;}
</style>
<g>
	<path class="st0" d="M47.2,15.6c21.3,0,38.6,13.9,38.6,31c0,17.1-17.3,31-38.6,31c-21.3,0-38.6-13.9-38.6-31
		C8.6,29.5,25.9,15.6,47.2,15.6L47.2,15.6z"/>
	<path class="st0" d="M10,34.7h0.7c2.7,0,5,2.2,5,5v14.8c0,2.7-2.2,5-5,5H10c-2.7,0-5-2.2-5-5V39.6C5,36.9,7.2,34.7,10,34.7L10,34.7
		z"/>
	<path class="st0" d="M22.4,14.5c6,0,11,4.4,12,10.1c-5.5,0.4-10.7,1.8-15.3,3.9c0.4-0.7,0.8-1.4,1.1-2.1c1.5-3.9,0.8-8.2-1.4-11.4
		C20,14.7,21.2,14.5,22.4,14.5L22.4,14.5z"/>
	<path class="st1" d="M82.3,35.5c10.2,7.9,9.5-8.4,4-3.6c-0.5,0.5-0.8,1.1-1.2,1.7l0,0c-0.7-0.7-0.7-0.5-0.7-1.3
		c-0.4-6.5,12.4-5.5,10.5,4.3c-1.7,8.2-10.2,8.2-16.7,4.4c-1.5-1.1-1.8-3.3-0.7-4.8C78.6,34.7,80.7,34.4,82.3,35.5L82.3,35.5z"/>
	<path class="st2" d="M20.9,32.7c0.8,0,1.4,1.8,1.4,4c0,2.2-0.6,4-1.4,4c-0.8,0-1.5-1.8-1.5-4C19.5,34.5,20.1,32.7,20.9,32.7
		L20.9,32.7z"/>
	<path class="st3" d="M47.2,18.1c5.2,0,10.2,0.9,14.7,2.6v5c-4.3-2-9.3-3.1-14.7-3.1c-4,0-7.8,0.6-11.3,1.8v-4.7
		C39.5,18.6,43.3,18.1,47.2,18.1L47.2,18.1z"/>
	<path class="st2" d="M47.2,20.6c5.3,0,10.3,1,14.7,2.8v3.3c-4.3-2.1-9.3-3.2-14.7-3.2c-4,0-7.8,0.7-11.3,1.8v-3.1
		C39.4,21.2,43.2,20.6,47.2,20.6L47.2,20.6z"/>
	<path class="st3" d="M77.6,27.6c5.1,5.3,8.2,11.9,8.2,19.1c0,17.1-17.3,31-38.6,31c-12.9,0-24.4-5.2-31.4-13
		C42.2,76.8,80.3,55.5,77.6,27.6L77.6,27.6z"/>
	<path class="st3" d="M82.3,35.5c10.2,7.9,9.5-8.4,4-3.6c-0.5,0.5-0.8,1.1-1.2,1.7l0,0c-0.7-0.7-0.7-0.5-0.7-1.3
		c-0.4-6.5,12.4-5.5,10.5,4.3c-1.7,8.2-10.2,8.2-16.7,4.4c-1.5-1.1-1.8-3.3-0.7-4.8C78.6,34.7,80.7,34.4,82.3,35.5L82.3,35.5z"/>
	<path class="st3" d="M37,69.1L37,69.1c3.7,0,6.6,3,6.6,6.6v3.1c0,3.7-3,6.6-6.6,6.6l0,0c-3.6,0-6.6-3-6.6-6.6v-3.1
		C30.4,72.1,33.4,69.1,37,69.1L37,69.1z"/>
	<path class="st3" d="M59.3,69.1L59.3,69.1c3.7,0,6.6,3,6.6,6.6v3.1c0,3.7-3,6.6-6.6,6.6l0,0c-3.6,0-6.6-3-6.6-6.6v-3.1
		C52.6,72.1,55.6,69.1,59.3,69.1L59.3,69.1z"/>
</g>
</svg>
