<?xml version="1.0" encoding="iso-8859-1"?>
<!-- Uploaded to: SVG Repo, www.svgrepo.com, Generator: SVG Repo Mixer Tools -->
<svg height="800px" width="800px" version="1.1" id="Layer_1" xmlns="http://www.w3.org/2000/svg" xmlns:xlink="http://www.w3.org/1999/xlink" 
	 viewBox="0 0 511.883 511.883" xml:space="preserve">
<g>
	<path style="fill:#D770AD;" d="M53.317,114.645L95.979,284.59c45.755-11.264,93.15-65.907,81.887-111.662
		C166.619,127.173,99.072,103.381,53.317,114.645z"/>
	<path style="fill:#D770AD;" d="M222.075,403.204c1.031-5.765-2.921-10.498-8.795-10.498h-85.309
		c-5.873,0-11.513,4.733-12.544,10.498l-17.574,98.181c-1.031,5.78,2.922,10.498,8.779,10.498h85.324
		c5.858,0,11.513-4.718,12.544-10.498L222.075,403.204z"/>
	<path style="fill:#D770AD;" d="M247.147,403.204c-1.031-5.765,2.922-10.498,8.795-10.498h85.309
		c5.874,0,11.514,4.733,12.545,10.498l17.574,98.181c1.03,5.78-2.922,10.498-8.795,10.498h-85.309
		c-5.858,0-11.514-4.718-12.545-10.498L247.147,403.204z"/>
	<path style="fill:#D770AD;" d="M455.46,339.234c-1.562,0-3.141-0.062-4.719-0.156c-17.573-1.109-34.055-8.139-45.191-19.276
		c-4.156-4.156-4.156-10.92,0-15.075c4.17-4.171,10.919-4.171,15.09,0c15.84,15.84,47.473,17.699,61.549,3.64
		c5.389-5.404,8.357-12.56,8.357-20.183c0-7.639-2.969-14.81-8.357-20.198c-8.076-8.076-21.199-8.076-29.275,0
		c-5.826,5.826-6.045,13.73-0.531,19.245c0.984,0.984,2.938,1.375,5.077,1c3.671-0.625,6.905-3.202,8.654-6.89
		c2.546-5.311,8.904-7.561,14.231-5.029c5.311,2.53,7.561,8.904,5.029,14.215c-4.748,9.92-13.824,16.918-24.307,18.73
		c-8.998,1.531-17.871-1.047-23.76-6.936c-6.779-6.796-10.404-15.638-10.217-24.932c0.203-9.061,4.016-17.762,10.732-24.479
		c16.387-16.387,43.068-16.387,59.455,0c9.42,9.42,14.605,21.948,14.605,35.273c0,13.31-5.186,25.838-14.605,35.258
		C487.124,333.594,472.081,339.234,455.46,339.234z"/>
</g>
<path style="fill:#EC87C0;" d="M229.276,138.639c-80.56,0-154.839,44.115-183.317,106.632H10.655c-5.89,0-10.654,4.78-10.654,10.67
	v127.971c0,5.889,4.765,10.669,10.654,10.669h47.021c33.195,50.988,100.555,85.309,171.601,85.309
	c106.023,0,197.283-76.389,197.283-170.633C426.559,215.028,335.299,138.639,229.276,138.639z"/>
<g>
	<path style="fill:#434A54;" d="M127.971,266.61c0,5.889-4.78,10.654-10.669,10.654c-5.89,0-10.67-4.766-10.67-10.654
		c0-5.89,4.78-10.669,10.67-10.669C123.191,255.941,127.971,260.72,127.971,266.61z"/>
	<path style="fill:#434A54;" d="M280.374,171.086c-0.905-0.266-20.166-6.015-56.674-6.015c-35.836,0-54.628,5.546-56.19,6.015
		c-4.374,1.343-7.545,5.404-7.545,10.2c0,5.89,4.765,10.67,10.653,10.67c1.125,0,2.219-0.172,3.233-0.5
		c0.438-0.125,17.246-5.062,49.849-5.062c31.93,0,49.145,4.718,50.379,5.077c1,0.312,2.078,0.484,3.188,0.484
		c5.889,0,10.669-4.78,10.669-10.67C287.935,176.49,284.749,172.428,280.374,171.086z"/>
</g>
<path style="fill:#FFCE54;" d="M287.935,63.985c0,35.335-28.649,63.985-63.985,63.985s-63.985-28.65-63.985-63.985
	C159.965,28.649,188.614,0,223.95,0S287.935,28.649,287.935,63.985z"/>
<path style="fill:#E8AA3D;" d="M223.95,43.153c-5.89,0-10.67,4.78-10.67,10.662v21.339c0,5.89,4.78,10.653,10.67,10.653
	c5.889,0,10.653-4.764,10.653-10.653V53.815C234.603,47.933,229.838,43.153,223.95,43.153z"/>
</svg>