<?xml version="1.0" encoding="utf-8"?>
<!-- Generator: Adobe Illustrator 26.1.0, SVG Export Plug-In . SVG Version: 6.00 Build 0)  -->
<svg version="1.1" id="Layer_1" xmlns="http://www.w3.org/2000/svg" xmlns:xlink="http://www.w3.org/1999/xlink" x="0px" y="0px"
	 viewBox="0 0 100 100" style="enable-background:new 0 0 100 100;" xml:space="preserve">
<style type="text/css">
	.st0{fill:#FD605D;}
	.st1{fill:#D84848;}
	.st2{fill:#FFFFFF;}
	.st3{fill:#FDCE5E;}
	.st4{fill:#EFB94D;}
</style>
<g>
	<path class="st0" d="M85.6,54.3c0-16.9-16.5-30.6-36.8-30.6c-8.2,0-15.8,2.2-21.9,6C17.9,35.3,12,44.2,12,54.3
		c0,16.9,16.5,30.6,36.8,30.6S85.6,71.2,85.6,54.3z"/>
	<path class="st1" d="M57.1,28.8c0-0.5-0.3-0.9-0.8-1c-2.4-0.5-4.9-0.7-7.5-0.7c-3.6,0-7,0.5-10.2,1.3c-0.4,0.1-0.7,0.5-0.7,1l0,0
		c0,1.4,1.3,2.4,2.6,2c2.6-0.7,5.4-1,8.3-1c2,0,4,0.2,5.8,0.5C55.9,31.1,57.1,30.1,57.1,28.8L57.1,28.8z"/>
	<path class="st0" d="M20.1,46.7H8.3C6.5,46.7,5,48.2,5,50v10.6c0,1.8,1.5,3.3,3.3,3.3h11.9V46.7z"/>
	<path class="st1" d="M8.6,46.7H8.3C6.5,46.7,5,48.2,5,50v10.6c0,1.8,1.5,3.3,3.3,3.3h0.3V46.7z"/>
	<circle class="st2" cx="18.9" cy="46.6" r="2.1"/>
	<path class="st0" d="M45.3,86.8V66.2H24.9l3.7,21c0.3,1.5,1.7,2.6,3.4,2.6h9.9C43.8,89.9,45.3,88.5,45.3,86.8z"/>
	<path class="st0" d="M53,86.8V66.2h20.4l-3.7,21c-0.3,1.5-1.7,2.6-3.4,2.6h-9.9C54.5,89.9,53,88.5,53,86.8z"/>
	<path class="st0" d="M27,32.7c0,0-4.8-7.6-13.5-8.7c-1.8-0.2-3.2,1.6-2.5,3.3c0.2,0.5,0.5,1.2,0.7,1.9c1,2.7-0.8,5.6,3.7,12.8
		L27,32.7z"/>
	<g>
		<path class="st3" d="M58.2,21.1c0,2.5-0.8,4.8-2.3,6.7c-0.9,1.2-2,2.1-3.3,2.9c-1.2-0.1-2.5-0.2-3.7-0.2c-2.1,0-4.2,0.2-6.2,0.6
			c-1.4-0.6-2.6-1.5-3.5-2.6c-1.7-1.9-2.8-4.5-2.8-7.3c0-6,4.9-10.9,10.9-10.9S58.2,15,58.2,21.1z"/>
		<path class="st4" d="M47.2,12.4c-4.8,0-8.6,3.9-8.6,8.6c0,2.7,1.2,5.1,3.2,6.7c1.5,1.2,3.4,2,5.5,2c2.3,0,4.4-0.9,5.9-2.4
			c1.7-1.6,2.7-3.8,2.7-6.3C55.9,16.3,52,12.4,47.2,12.4z M51.1,27.2c-1.1,0.7-2.5,1.1-3.9,1.1c-1.3,0-2.4-0.3-3.5-0.9
			c-2.3-1.2-3.8-3.6-3.8-6.4c0-4,3.2-7.2,7.2-7.2c4,0,7.2,3.2,7.2,7.2C54.5,23.6,53.2,25.9,51.1,27.2z"/>
		<circle class="st3" cx="47.2" cy="21.1" r="7.2"/>
		<g>
			<path class="st2" d="M46.3,19.2c0-0.4,0.3-0.5,0.8-0.5c0.7,0,1.7,0.4,2.6,0.9l0.8-1.7c-0.7-0.4-1.6-0.8-2.5-0.9v-1.7h-1.5V17
				c-1.5,0.2-2.4,1.1-2.4,2.4c0,2.8,4.2,2,4.2,3.4c0,0.4-0.4,0.6-1,0.6c-0.8,0-2.1-0.5-2.9-1.2l-0.8,1.6c0.8,0.6,1.8,1.1,2.9,1.2
				v1.8h1.5v-1.7c1.4-0.2,2.5-1,2.5-2.4C50.5,19.8,46.3,20.5,46.3,19.2z"/>
		</g>
	</g>
	<path class="st0" d="M91.3,47.9c-0.3-0.1-0.6-0.1-0.9-0.1c-0.8-0.8-1.8-1.4-2.8-1.7c-1.4-0.3-2.8,0-4,0.9c-1.1,0.9-1.8,2.2-1.9,3.5
		c0,0.3,0.1,0.5,0.3,0.7c0.2,0.1,0.5,0.2,0.8,0c0.2-0.1,0.4-0.4,0.4-0.6c0.1-1.6,1.5-3,3.1-3.1c0.8-0.1,1.6,0.2,2.2,0.6
		c-0.4,0.2-0.7,0.4-1,0.6c-1,0.9-1.3,2.4-0.8,3.6c0.4,1.1,1.6,1.8,2.8,1.7c1.2-0.1,2.1-1,2.3-2.3c0.1-0.7,0-1.4-0.2-2.1
		c0.5,0.2,0.9,0.6,1.3,1.1c0.5,0.8,0.8,1.7,0.6,2.6c-0.1,0.4,0.2,0.8,0.6,0.9c0,0,0.1,0,0.1,0c0.3,0,0.6-0.2,0.7-0.6
		C95.4,51.1,93.7,48.4,91.3,47.9z M88.3,52.1c-0.5-0.5-0.4-1.5,0.1-2c0.3-0.4,0.8-0.6,1.3-0.7c0.1,0.2,0.2,0.4,0.3,0.6
		c0.3,0.6,0.4,1.5,0,2.1c-0.2,0.3-0.5,0.4-0.7,0.4C89,52.5,88.6,52.4,88.3,52.1z"/>
</g>
</svg>
