<?xml version="1.0" encoding="utf-8"?>
<!-- Generator: Adobe Illustrator 26.1.0, SVG Export Plug-In . SVG Version: 6.00 Build 0)  -->
<svg version="1.1" id="Layer_1" xmlns="http://www.w3.org/2000/svg" xmlns:xlink="http://www.w3.org/1999/xlink" x="0px" y="0px"
	 viewBox="0 0 100 100" style="enable-background:new 0 0 100 100;" xml:space="preserve">
<style type="text/css">
	.st0{fill:#D77C8B;}
	.st1{fill:#F2A9B0;}
	.st2{fill:#FFD7DF;}
	.st3{fill:#3F3A35;}
</style>
<g>
	<path class="st0" d="M81.5,25.8c0,0,6.9-13.1,4.1-19c-2.8-5.9-20.8,5.1-20.8,5.1S73.9,17.1,81.5,25.8z"/>
	<path class="st0" d="M18.6,25.8c0,0-6.9-13.1-4.1-19c2.8-5.9,20.8,5.1,20.8,5.1S26.2,17.1,18.6,25.8z"/>
	<path class="st1" d="M12.5,46.3C12.5,25.6,29.3,8.9,50,8.9c20.7,0,37.5,16.8,37.5,37.5S70.7,89.1,50,89.1
		C29.3,89.1,12.5,67.1,12.5,46.3z"/>
	<ellipse class="st2" cx="50" cy="52.6" rx="18.7" ry="14.7"/>
	<path class="st3" d="M45.4,52.5c0,3.3-1.1,5.9-2.4,5.9c-1.3,0-2.4-2.6-2.4-5.9s1.1-5.9,2.4-5.9C44.3,46.6,45.4,49.2,45.4,52.5z"/>
	<ellipse class="st3" cx="35.3" cy="30.7" rx="3.9" ry="7.2"/>
	<path class="st0" d="M13.7,56.1c0,0,10,25.1,36.2,25.1s36.5-25.1,36.5-25.1s-7.1,33-36.3,33C20.8,89.1,13.7,56.1,13.7,56.1z"/>
	<path class="st0" d="M37.9,84.7c0,0,1.9,10.3-5.6,10.3s-6.9-16.7-6.9-16.7L37.9,84.7z"/>
	<path class="st3" d="M54.7,52.5c0,3.3,1.1,5.9,2.4,5.9c1.3,0,2.4-2.6,2.4-5.9s-1.1-5.9-2.4-5.9C55.8,46.6,54.7,49.2,54.7,52.5z"/>
	<ellipse class="st3" cx="64.8" cy="30.7" rx="3.9" ry="7.2"/>
	<path class="st0" d="M62.2,84.7c0,0-1.9,10.3,5.6,10.3c7.5,0,6.9-16.7,6.9-16.7L62.2,84.7z"/>
	<path class="st0" d="M52.4,8.9c-0.8,0-1.6-0.1-2.4-0.1c-0.7,0-1.4,0-2,0.1v11.1h4.4V8.9z"/>
</g>
</svg>
