<?xml version="1.0" encoding="utf-8"?>
<!-- Generator: Adobe Illustrator 26.1.0, SVG Export Plug-In . SVG Version: 6.00 Build 0)  -->
<svg version="1.1" id="Layer_1" xmlns="http://www.w3.org/2000/svg" xmlns:xlink="http://www.w3.org/1999/xlink" x="0px" y="0px"
	 viewBox="0 0 100 100" style="enable-background:new 0 0 100 100;" xml:space="preserve">
<style type="text/css">
	.st0{fill:#2B2B38;}
	.st1{fill:#259CAF;}
	.st2{fill:#3BB1D1;}
	.st3{fill:#4B4B70;}
	.st4{fill:#E8AF2E;}
	.st5{fill:#F9CA35;}
	.st6{fill:#FFFFFF;}
</style>
<g>
	<path class="st0" d="M50,5C25.15,5,5,25.15,5,50c0,24.85,20.15,45,45,45c24.85,0,45-20.15,45-45C95,25.15,74.85,5,50,5z"/>
	<g>
		<path class="st1" d="M84.92,45.04h-3.13c-0.62-1.34-1.66-2.22-2.84-2.22c-0.35,0-0.69,0.08-1.01,0.22
			c-3.99-9.23-14.78-15.86-27.47-15.86c-3.49,0-6.83,0.5-9.93,1.42c-2.21-4.19-7.91-6.36-7.91-6.36v9.93
			c-4.41,2.79-7.81,6.59-9.67,10.98h-2.71c-2.39,0-4.32,1.94-4.32,4.32v10.1c0,2.39,1.94,4.32,4.32,4.32h4.4
			c2.67,4.17,6.82,7.61,11.88,9.87v5.08c0,1.19,0.96,2.15,2.15,2.15h5.9c1.19,0,2.15-0.96,2.15-2.15v-2.39
			c1.22,0.13,2.47,0.2,3.73,0.2c3.13,0,6.14-0.41,8.96-1.15v3.34c0,1.19,0.96,2.15,2.15,2.15h5.9c1.19,0,2.15-0.96,2.15-2.15v-8.06
			c5.47-3.91,9.14-9.45,9.83-15.7c1.62-0.36,2.86-2.4,2.93-4.9C84.06,47.29,84.92,45.04,84.92,45.04z"/>
		<path class="st2" d="M52.27,27.23c-0.59-0.03-1.19-0.05-1.79-0.05c-3.49,0-6.83,0.5-9.93,1.42c-2.21-4.19-7.91-6.36-7.91-6.36
			v9.93c-4.41,2.79-7.81,6.59-9.67,10.98h-2.71c-2.39,0-4.32,1.94-4.32,4.32v10.1c0,2.39,1.94,4.32,4.32,4.32h4.4
			c2.67,4.17,6.82,7.61,11.88,9.87v5.08c0,1.19,0.96,2.15,2.15,2.15h5.9c1.19,0,2.15-0.96,2.15-2.15v-2.39
			c1.22,0.13,2.47,0.2,3.73,0.2c0.6,0,1.2-0.02,1.79-0.05V27.23z"/>
		<path class="st3" d="M62.78,32.45c0.82,0.35,1.19,1.24,0.84,1.93c-0.06,0.13-0.13,0.26-0.19,0.39c-0.35,0.69-1.21,0.97-1.93,0.66
			c-4.86-2.09-10.21-2.77-15.43-1.97c-0.78,0.12-1.54-0.36-1.7-1.12c-0.03-0.14-0.06-0.29-0.09-0.43c-0.16-0.76,0.41-1.52,1.3-1.66
			C51.4,29.35,57.36,30.11,62.78,32.45z"/>
		<path class="st3" d="M30.12,39.81c-1.18,0-2.13,0.96-2.13,2.14c0,1.18,0.96,2.14,2.13,2.14c1.18,0,2.14-0.96,2.14-2.14
			C32.25,40.76,31.3,39.81,30.12,39.81z"/>
		<g>
			<path class="st4" d="M63.71,26.24c-1.26,4.27-5.75,6.71-10.02,5.44c-4.27-1.26-6.71-5.75-5.44-10.02
				c1.26-4.27,5.75-6.71,10.02-5.44C62.54,17.48,64.97,21.97,63.71,26.24z"/>
			<path class="st5" d="M62.31,25.83c-1.04,3.5-4.71,5.5-8.21,4.46c-3.5-1.04-5.5-4.71-4.46-8.21c1.04-3.5,4.71-5.5,8.21-4.46
				C61.35,18.65,63.35,22.33,62.31,25.83z"/>
		</g>
		<g>
			<path class="st6" d="M56.96,27.46c0-1.26,0.56-3.17,0.97-3.58c0.41-0.41,2.32-0.97,3.58-0.97c-1.25,0-3.1-0.49-3.58-0.97
				c-0.5-0.5-0.97-2.33-0.97-3.58c0,1.29-0.48,3.1-1.03,3.64c-0.56,0.57-2.29,0.91-3.52,0.91c1.26,0,3.11,0.5,3.58,0.97
				C56.47,24.35,56.96,26.2,56.96,27.46z"/>
		</g>
		<g>
			<g>
				<path class="st3" d="M55.8,48.63c-0.12-1.28-1.3-1.92-3.57-1.91c-2.27,0.01-3.41,0.62-3.4,1.83c0,0.74,0.37,1.28,1.1,1.61
					c0.73,0.33,2.21,0.71,4.42,1.12c2.22,0.42,3.84,1.12,4.88,2.11c1.04,0.99,1.57,2.28,1.57,3.87c0.01,1.86-0.82,3.3-2.48,4.32
					c-1.65,1.02-3.56,1.53-5.7,1.54c-5.18,0.02-8.14-1.95-8.88-5.92l4.29-0.36c0.32,2.08,1.86,3.12,4.61,3.11
					c2.57-0.01,3.86-0.89,3.85-2.63c0-0.77-0.32-1.35-0.94-1.72c-0.63-0.38-2.1-0.79-4.4-1.23c-2.31-0.44-3.98-1.12-5-2.05
					c-1.03-0.92-1.54-2.07-1.55-3.45c-0.01-1.48,0.65-2.74,1.96-3.77c1.31-1.03,3.23-1.55,5.74-1.56c4.98-0.02,7.6,1.62,7.85,4.92
					L55.8,48.63z"/>
			</g>
			
				<rect x="50.43" y="40.23" transform="matrix(1 -3.044992e-03 3.044992e-03 1 -0.1279 0.16)" class="st3" width="4.09" height="3.72"/>
			
				<rect x="50.51" y="62.41" transform="matrix(1 -3.609674e-03 3.609674e-03 1 -0.2316 0.1901)" class="st3" width="4.09" height="3.72"/>
		</g>
	</g>
</g>
</svg>
