<?xml version="1.0" encoding="utf-8"?>
<!-- Generator: Adobe Illustrator 26.1.0, SVG Export Plug-In . SVG Version: 6.00 Build 0)  -->
<svg version="1.1" id="Layer_1" xmlns="http://www.w3.org/2000/svg" xmlns:xlink="http://www.w3.org/1999/xlink" x="0px" y="0px"
	 viewBox="0 0 100 100" style="enable-background:new 0 0 100 100;" xml:space="preserve">
<style type="text/css">
	.st0{fill:url(#SVGID_1_);}
	.st1{opacity:0.2;fill:#FF8633;}
	.st2{opacity:0.22;fill:#FFFFFF;}
	.st3{fill:#1F1F36;}
	.st4{fill:#303051;}
	.st5{opacity:0.56;fill:url(#SVGID_00000101066260940652038140000007180280538063017628_);}
</style>
<g>
	<g>
		<linearGradient id="SVGID_1_" gradientUnits="userSpaceOnUse" x1="46.7591" y1="30.8982" x2="40.2826" y2="11.777">
			<stop  offset="8.887236e-04" style="stop-color:#FCCE3A"/>
			<stop  offset="0.9995" style="stop-color:#FFFF2E"/>
		</linearGradient>
		<path class="st0" d="M64.2,20.9c-0.9-0.3-1.7-0.4-2.5-0.4c1-1,1.5-2.1,1.3-3.2c0-0.2-0.1-0.4-0.2-0.6c0-0.2,0-0.4-0.1-0.6
			c-0.5-2-3.5-3-6.7-2.2c-0.5,0.1-0.9,0.3-1.3,0.4c0-0.1,0-0.2,0-0.3c-0.5-2-3.5-3-6.7-2.2c-1.2,0.3-2.2,0.8-3,1.4
			c-1.1-1.3-3.5-1.8-6.1-1.2c-3.2,0.8-5.4,3-4.9,5.1c0,0.2,0.1,0.4,0.2,0.6c0,0.2,0,0.4,0.1,0.6c0.1,0.3,0.2,0.6,0.4,0.9
			c-1.5,0-3.3,0.8-4.8,2.3c-2.2,2.2-3,5.1-1.8,6.6c-3,0.9-5,3-4.5,5c0,0.2,0.1,0.4,0.2,0.6c0,0.2,0,0.4,0.1,0.6c0.5,2,3.5,3,6.7,2.2
			c1.1-0.3,2-0.7,2.8-1.2c0.1,0,0.1,0.1,0.2,0.1c0.1,0.2,0.2,0.4,0.4,0.5c1.5,1.5,4.5,0.8,6.9-1.5c0.4-0.4,0.7-0.7,1-1.1
			c1.3,0.9,3.4,1.3,5.6,0.7c1.5-0.4,2.8-1.1,3.6-1.9c1.6,1,4.3,0.3,6.5-1.9c0.7-0.7,1.2-1.4,1.6-2.2c0.7,0.5,1.6,1,2.6,1.3
			c3.1,1,6.2,0.2,6.8-1.8c0.1-0.2,0.1-0.4,0.1-0.6c0.1-0.2,0.2-0.4,0.3-0.6C69.4,24.3,67.4,21.9,64.2,20.9z"/>
		<path class="st1" d="M63.5,28.6c-0.8-0.1-1.6-0.2-2.4-0.2c0.9-0.6,1.3-1.3,1-2c-0.1-0.1-0.1-0.2-0.2-0.3c0-0.1,0-0.3-0.1-0.4
			c-0.6-1.2-3.4-1.7-6.4-1.1c-0.4,0.1-0.8,0.2-1.2,0.3c0-0.1,0-0.1-0.1-0.2c-0.6-1.2-3.4-1.7-6.4-1.1c-1.1,0.2-2,0.5-2.7,0.9
			c-1.1-0.7-3.4-1-5.8-0.5c-2.9,0.6-4.9,2-4.3,3.2c0.1,0.1,0.1,0.2,0.2,0.3c0,0.1,0,0.3,0.1,0.4c0.1,0.2,0.2,0.4,0.4,0.5
			c-1.4,0.1-3,0.6-4.3,1.6c-1.9,1.4-2.5,3.2-1.3,4.1c-2.7,0.6-4.5,2-3.9,3.2c0.1,0.1,0.1,0.2,0.2,0.3c0,0.1,0,0.3,0.1,0.4
			c0.6,1.2,3.4,1.7,6.4,1.1c1-0.2,1.8-0.5,2.5-0.8c0.1,0,0.1,0,0.2,0.1c0.1,0.1,0.2,0.2,0.4,0.3c1.4,0.8,4.3,0.3,6.3-1.2
			c0.3-0.2,0.6-0.5,0.8-0.7c1.2,0.5,3.2,0.6,5.3,0.2c1.4-0.3,2.5-0.7,3.3-1.3c1.5,0.6,4,0,5.9-1.4c0.6-0.4,1.1-0.9,1.4-1.4
			c0.7,0.3,1.5,0.5,2.5,0.7c3,0.5,5.8-0.1,6.3-1.3c0-0.1,0.1-0.2,0.1-0.4c0.1-0.1,0.2-0.2,0.2-0.4C68.5,30.4,66.5,29.1,63.5,28.6z"
			/>
		<ellipse class="st1" cx="55.6" cy="20" rx="3.9" ry="1.8"/>
		<ellipse class="st2" cx="46.8" cy="15.5" rx="3.9" ry="1.8"/>
		<ellipse class="st2" cx="41.5" cy="27.7" rx="3.9" ry="1.8"/>
		<ellipse transform="matrix(0.7405 -0.6721 0.6721 0.7405 -3.6835 30.4991)" class="st1" cx="37.7" cy="20" rx="3.9" ry="1.8"/>
		<path class="st3" d="M87,31.7c-0.9-3.6-4.5-5.8-8.1-4.9c-1.5,0.4-2.8,1.3-3.7,2.4c-0.7-0.7-1.5-1.3-2.3-1.9
			c1.8-0.8,2.8-1.3,2.9-1.4c1.5-0.8,2.1-2.7,1.3-4.2c-0.8-1.5-2.7-2.1-4.2-1.3c-0.1,0-9.2,4.7-25.8,8.8c-16.6,4.1-26.6,4-26.8,4
			c-1.7,0-3.1,1.4-3.2,3.1c0,1.7,1.4,3.1,3.1,3.2c0.1,0,1.3,0,3.3-0.1c-0.4,0.9-0.8,1.8-1.2,2.7c-1.3-0.6-2.9-0.8-4.4-0.4
			c-3.6,0.9-5.8,4.5-4.9,8.1c0.8,3.3,4,5.5,7.3,5.1c0.1,1.9,0.4,3.8,0.8,5.7c2.4,9.8,9.3,17.4,18.1,21.2l-1,2.6
			c-0.6,1.6,0.3,3.4,1.9,4c0.6,0.2,1.2,0.2,1.8,0.1c1-0.2,1.8-1,2.2-2l1-2.9c4.8,1.1,10,1.1,15.2-0.2c5.2-1.3,9.8-3.6,13.6-6.8
			l2.3,2.1c1.3,1.2,3.3,1.1,4.4-0.2c1.2-1.3,1.1-3.3-0.2-4.4l-2.1-1.9c6.1-7.4,8.8-17.4,6.4-27.2c-0.5-1.9-1.1-3.7-1.9-5.4
			C86,38.3,87.8,35,87,31.7z M16,49c-0.5-1.9,0.7-3.8,2.6-4.3c1-0.2,1.9-0.1,2.7,0.4c-0.6,2.1-0.9,4.3-1.1,6.5
			C18.4,52,16.5,50.9,16,49z M81.4,36.7c-1.1-1.9-2.5-3.7-4-5.3c0.5-0.8,1.2-1.4,2.2-1.6c1.9-0.5,3.8,0.7,4.3,2.6
			C84.4,34.3,83.3,36.2,81.4,36.7z"/>
		<path class="st4" d="M23.5,39.4c0,0,26.3-0.4,49.4-12.1C72.9,27.3,45.6,37.5,23.5,39.4z"/>
	</g>
	
		<radialGradient id="SVGID_00000047772200638735373850000009618759259468094098_" cx="708.0193" cy="-171.6438" r="12.0712" gradientTransform="matrix(0.8976 -1.0145 1.3859 1.2263 -356.1562 990.9728)" gradientUnits="userSpaceOnUse">
		<stop  offset="0" style="stop-color:#31316D"/>
		<stop  offset="1" style="stop-color:#31316D;stop-opacity:0"/>
	</radialGradient>
	<path style="opacity:0.56;fill:url(#SVGID_00000047772200638735373850000009618759259468094098_);" d="M53.3,48.8
		c9.6,8.5,12.1,21.4,5.5,28.7c-6.5,7.4-19.6,6.5-29.2-2s-12.1-21.4-5.5-28.7S43.8,40.3,53.3,48.8z"/>
</g>
</svg>
