<?xml version="1.0" encoding="utf-8"?>
<!-- Generator: Adobe Illustrator 26.1.0, SVG Export Plug-In . SVG Version: 6.00 Build 0)  -->
<svg version="1.1" id="Layer_1" xmlns="http://www.w3.org/2000/svg" xmlns:xlink="http://www.w3.org/1999/xlink" x="0px" y="0px"
	 viewBox="0 0 100 100" style="enable-background:new 0 0 100 100;" xml:space="preserve">
<style type="text/css">
	.st0{fill:#FFCF00;}
	.st1{fill:#EBBD00;}
	.st2{fill:#FFFFFF;}
	.st3{fill:#BF6500;}
	.st4{fill:#434F14;}
	.st5{fill:#FFD01F;}
	.st6{fill:#859E28;}
	.st7{fill:#FF8700;}
</style>
<g>
	<g>
		<g>
			<path class="st0" d="M87.74,71.32c2.57,7.17-1.16,15.06-8.33,17.63c-7.17,2.57-15.06-1.16-17.63-8.33
				c-2.57-7.17,1.16-15.06,8.33-17.63C77.28,60.42,85.17,64.15,87.74,71.32z"/>
		</g>
		<g>
			<path class="st1" d="M85.01,72.29c2.03,5.66-0.92,11.89-6.58,13.92c-5.66,2.03-11.89-0.92-13.92-6.58
				c-2.03-5.66,0.92-11.89,6.58-13.92C76.75,63.69,82.99,66.63,85.01,72.29z"/>
		</g>
		<g>
			<g>
				<path class="st2" d="M81.83,81.69c-0.47,0.62-1.01,1.15-1.61,1.59c-0.6,0.44-1.27,0.8-1.99,1.06c-1.71,0.61-3.31,0.65-4.82,0.13
					c-1.51-0.53-2.82-1.59-3.95-3.18l-2.12,0.76l0.1-2.42l0.95-0.34c-0.04-0.1-0.09-0.2-0.13-0.31c-0.04-0.11-0.1-0.27-0.18-0.47
					c-0.08-0.21-0.13-0.37-0.17-0.49c-0.04-0.12-0.07-0.23-0.1-0.34L66,78.32l0.1-2.42l1.26-0.45c-0.13-1.96,0.22-3.62,1.04-4.96
					c0.83-1.35,2.09-2.33,3.8-2.94c0.72-0.26,1.46-0.41,2.21-0.45c0.75-0.04,1.5,0.03,2.26,0.21l1.2,3.35
					c-0.73-0.37-1.45-0.6-2.14-0.67c-0.7-0.07-1.37,0.01-2.02,0.24c-0.83,0.3-1.46,0.77-1.88,1.43c-0.42,0.65-0.63,1.46-0.61,2.42
					l5.26-1.89l-0.09,2.42l-4.81,1.72c0.03,0.12,0.06,0.25,0.1,0.38c0.04,0.13,0.11,0.33,0.2,0.59c0.03,0.1,0.07,0.2,0.12,0.31
					c0.04,0.11,0.09,0.23,0.14,0.35l4.19-1.5l-0.11,2.43l-2.92,1.04c0.64,0.77,1.33,1.27,2.05,1.5c0.73,0.24,1.5,0.21,2.33-0.08
					c0.64-0.23,1.21-0.59,1.7-1.09c0.49-0.5,0.9-1.13,1.24-1.9L81.83,81.69z"/>
			</g>
		</g>
	</g>
	<g>
		<g>
			<g>
				<path class="st3" d="M41.41,24.99c0,2.84-2.3,5.15-5.15,5.15c-2.84,0-5.14-2.3-5.14-5.15c0-2.84,2.3-5.14,5.14-5.14
					C39.11,19.85,41.41,22.15,41.41,24.99z"/>
			</g>
			<g>
				<path class="st1" d="M12.48,59.99c0,0,4.63-10.61,4.93-15.78c0.24-4.31,2.8-14.32,10.23-17c7.43-2.69,32.18-5.52,34.7,15.5
					c2.33,19.42-50.89,17.22-50.89,17.22"/>
			</g>
			<g>
				<path class="st4" d="M12.02,60.45c0,0,4.74-6.33,6.4-13.7c0.95-4.21,2.8-14.31,10.23-17c7.43-2.69,32.18-5.52,34.7,15.5
					c2.33,19.42-50.89,17.22-50.89,17.22"/>
			</g>
		</g>
		<g>
			<g>
				<path class="st0" d="M66.19,27.74c-2.18,7.29-9.86,11.44-17.16,9.26c-7.29-2.18-11.44-9.86-9.26-17.16
					c2.18-7.29,9.86-11.44,17.16-9.26C64.23,12.76,68.37,20.45,66.19,27.74z"/>
			</g>
			<g>
				<path class="st1" d="M63.41,26.91c-1.72,5.76-7.79,9.03-13.55,7.31c-5.76-1.72-9.03-7.79-7.31-13.55
					c1.72-5.76,7.79-9.03,13.55-7.31C61.86,15.08,65.14,21.15,63.41,26.91z"/>
			</g>
			<g>
				<g>
					<path class="st2" d="M55.42,32.39c-0.75,0.22-1.5,0.33-2.25,0.33s-1.49-0.11-2.23-0.33c-1.74-0.52-3.06-1.44-3.96-2.76
						c-0.9-1.32-1.33-2.95-1.29-4.9l-2.15-0.64l1.52-1.89l0.97,0.29c0.02-0.11,0.05-0.22,0.08-0.33c0.03-0.11,0.08-0.28,0.14-0.48
						c0.06-0.21,0.12-0.38,0.16-0.5c0.04-0.12,0.08-0.23,0.12-0.34l-1.84-0.55l1.52-1.89l1.28,0.38c1.06-1.66,2.32-2.78,3.78-3.38
						c1.47-0.6,3.07-0.64,4.8-0.12c0.74,0.22,1.42,0.54,2.04,0.95c0.63,0.41,1.19,0.91,1.7,1.51l-1.02,3.41
						c-0.37-0.74-0.81-1.34-1.33-1.81c-0.52-0.47-1.11-0.81-1.76-1c-0.85-0.25-1.63-0.24-2.36,0.03c-0.73,0.28-1.37,0.8-1.92,1.59
						l5.36,1.6l-1.5,1.9l-4.89-1.46c-0.05,0.11-0.1,0.24-0.14,0.37c-0.04,0.13-0.1,0.33-0.18,0.59c-0.03,0.1-0.06,0.2-0.09,0.32
						c-0.03,0.12-0.06,0.24-0.09,0.36l4.26,1.28L52.6,26.8l-2.97-0.89c0.06,1,0.32,1.81,0.76,2.43c0.44,0.62,1.09,1.06,1.92,1.31
						c0.65,0.2,1.33,0.24,2.01,0.13c0.69-0.11,1.39-0.37,2.12-0.79L55.42,32.39z"/>
				</g>
			</g>
		</g>
		<g>
			<g>
				<path class="st5" d="M64.3,45.44c-1.01-8.84-5.74-15.23-21.44-15.23c-15.7,0-20.43,6.39-21.44,15.23
					c-1.01,8.85-9.39,14.92-9.39,14.92l30.83,0.08l26.78-3.12C69.63,57.32,65.31,54.29,64.3,45.44z"/>
			</g>
			<g>
				<path class="st6" d="M69.63,57.41c0,0-8.59-4.56-8.48-11.7c0.1-7.14-5.13-10.72-18.3-11.09c-15.2-0.43-16.93,4.82-18.47,11.8
					c-1.92,8.66-12.36,14.04-12.36,14.04s-2.09,30.9,30.83,29.51C72.2,88.71,69.63,57.41,69.63,57.41z"/>
			</g>
			<g>
				<path class="st7" d="M46.69,29.04c0,2.84-2.3,5.15-5.14,5.15c-2.84,0-5.14-2.3-5.14-5.15c0-2.84,2.3-5.15,5.14-5.15
					C44.39,23.9,46.69,26.2,46.69,29.04z"/>
			</g>
		</g>
	</g>
</g>
</svg>
