<?xml version="1.0" encoding="iso-8859-1"?>
<!-- Uploaded to: SVG Repo, www.svgrepo.com, Generator: SVG Repo Mixer Tools -->
<svg height="800px" width="800px" version="1.1" id="Layer_1" xmlns="http://www.w3.org/2000/svg" xmlns:xlink="http://www.w3.org/1999/xlink" 
	 viewBox="0 0 512.001 512.001" xml:space="preserve">
<path style="fill:#FFDB56;" d="M336.603,160.441L263.355,27.867c-1.479-2.678-4.295-4.339-7.354-4.339
	c-3.059,0-5.876,1.661-7.354,4.339l-73.247,132.576c-1.439,2.603-1.394,5.772,0.118,8.333s4.263,4.133,7.237,4.133H329.25
	c2.973,0,5.726-1.572,7.237-4.133C337.996,166.213,338.041,163.045,336.603,160.441z"/>
<path style="fill:#F77935;" d="M419.135,309.821l-63.963-115.769c-1.479-2.678-4.297-4.339-7.355-4.339H164.184
	c-3.059,0-5.876,1.661-7.355,4.339L92.865,309.821c-1.439,2.603-1.394,5.772,0.118,8.333c1.511,2.561,4.263,4.133,7.237,4.133
	h311.56c2.973,0,5.726-1.572,7.237-4.133C420.529,315.593,420.573,312.424,419.135,309.821z"/>
<path id="SVGCleanerId_0" style="fill:#3FC8F2;" d="M510.953,476.007l-73.247-132.574c-1.479-2.678-4.295-4.339-7.354-4.339H81.651
	c-3.059,0-5.876,1.661-7.355,4.339L1.048,476.007c-1.439,2.603-1.394,5.772,0.118,8.333c1.511,2.561,4.264,4.133,7.237,4.133
	h495.195c2.973,0,5.726-1.572,7.237-4.133C512.346,481.779,512.391,478.609,510.953,476.007z"/>
<g>
	<path id="SVGCleanerId_0_1_" style="fill:#3FC8F2;" d="M510.953,476.007l-73.247-132.574c-1.479-2.678-4.295-4.339-7.354-4.339
		H81.651c-3.059,0-5.876,1.661-7.355,4.339L1.048,476.007c-1.439,2.603-1.394,5.772,0.118,8.333
		c1.511,2.561,4.264,4.133,7.237,4.133h495.195c2.973,0,5.726-1.572,7.237-4.133C512.346,481.779,512.391,478.609,510.953,476.007z"
		/>
</g>
<path style="fill:#FBA806;" d="M301.137,172.907h28.111c2.973,0,5.726-1.572,7.237-4.133c1.511-2.561,1.556-5.731,0.118-8.333
	L263.355,27.867c-1.479-2.678-4.295-4.339-7.354-4.339c-3.059,0-5.876,1.661-7.354,4.339l-13.631,24.672L301.137,172.907z"/>
<path style="fill:#D9510D;" d="M383.197,322.287h28.583c2.973,0,5.726-1.572,7.237-4.133c1.511-2.561,1.556-5.731,0.118-8.333
	l-63.963-115.769c-1.479-2.678-4.297-4.339-7.355-4.339h-37.449L383.197,322.287z"/>
<path style="fill:#0DAACE;" d="M510.953,476.007l-73.247-132.574c-1.479-2.678-4.295-4.339-7.354-4.339H392.43l82.059,149.38h29.109
	c2.973,0,5.726-1.572,7.237-4.133C512.346,481.779,512.391,478.609,510.953,476.007z"/>
</svg>