<?xml version="1.0" encoding="utf-8"?>
<!-- Generator: Adobe Illustrator 26.1.0, SVG Export Plug-In . SVG Version: 6.00 Build 0)  -->
<svg version="1.1" id="Layer_1" xmlns="http://www.w3.org/2000/svg" xmlns:xlink="http://www.w3.org/1999/xlink" x="0px" y="0px"
	 viewBox="0 0 100 100" style="enable-background:new 0 0 100 100;" xml:space="preserve">
<style type="text/css">
	.st0{fill:#FF4942;}
	.st1{fill:#FF9234;}
	.st2{fill:#FFF422;}
	.st3{fill:#00AB39;}
	.st4{fill:#0083D6;}
	.st5{fill:#7F4FD7;}
	.st6{fill:url(#SVGID_1_);}
	.st7{fill:url(#SVGID_00000042014153535448933100000015013025882023510425_);}
	.st8{fill:url(#SVGID_00000040556082664897827240000014740751665493610154_);}
	.st9{fill:#FFFFFF;}
	.st10{fill:url(#SVGID_00000048459778013565430130000005376317526382279065_);}
	.st11{fill:url(#SVGID_00000049919688297806356700000010990165628220993170_);}
</style>
<g>
	<g>
		<g>
			<path class="st0" d="M50.8,15.1c-22.9,0-41.5,18.6-41.5,41.5c0,9.5,3.2,18.3,8.6,25.3h20.1c-2.1-2.7-3.4-6.2-3.4-9.9
				c0-9,7.3-16.2,16.2-16.2c9,0,16.2,7.3,16.2,16.2c0,3.7-1.3,7.1-3.4,9.9h20.1c5.4-7,8.6-15.8,8.6-25.3
				C92.3,33.7,73.7,15.1,50.8,15.1z"/>
		</g>
		<path class="st1" d="M50.8,21.2c-20.8,0-37.7,16.9-37.7,37.7c0,8.7,2.9,16.6,7.8,23h17.1c-2.1-2.7-3.4-6.2-3.4-9.9
			c0-9,7.3-16.2,16.2-16.2c9,0,16.2,7.3,16.2,16.2c0,3.7-1.3,7.1-3.4,9.9h17.1c4.9-6.4,7.8-14.3,7.8-23
			C88.5,38.1,71.6,21.2,50.8,21.2z"/>
		<path class="st2" d="M50.8,27.1c-18.8,0-34.1,15.2-34.1,34.1c0,7.8,2.6,15,7.1,20.7h14.1c-2.1-2.7-3.4-6.2-3.4-9.9
			c0-9,7.3-16.2,16.2-16.2c9,0,16.2,7.3,16.2,16.2c0,3.7-1.3,7.1-3.4,9.9h14.1c4.4-5.7,7.1-12.9,7.1-20.7
			C84.8,42.3,69.6,27.1,50.8,27.1z"/>
		<path class="st3" d="M50.8,34.2c-16.4,0-29.6,13.3-29.6,29.6c0,6.8,2.3,13.1,6.1,18.1h10.6c-2.1-2.7-3.4-6.2-3.4-9.9
			c0-9,7.3-16.2,16.2-16.2c9,0,16.2,7.3,16.2,16.2c0,3.7-1.3,7.1-3.4,9.9h10.6c3.8-5,6.1-11.3,6.1-18.1
			C80.4,47.5,67.2,34.2,50.8,34.2z"/>
		<path class="st4" d="M50.8,40.9c-14.1,0-25.5,11.4-25.5,25.5c0,5.8,2,11.2,5.3,15.5h7.3c-2.1-2.7-3.4-6.2-3.4-9.9
			c0-9,7.3-16.2,16.2-16.2c9,0,16.2,7.3,16.2,16.2c0,3.7-1.3,7.1-3.4,9.9H71c3.3-4.3,5.3-9.7,5.3-15.5
			C76.3,52.3,64.9,40.9,50.8,40.9z"/>
		<path class="st5" d="M50.8,48.5C39.3,48.5,30,57.8,30,69.2c0,4.8,1.6,9.1,4.3,12.6h3.6c-2.1-2.7-3.4-6.2-3.4-9.9
			c0-9,7.3-16.2,16.2-16.2c9,0,16.2,7.3,16.2,16.2c0,3.7-1.3,7.1-3.4,9.9h3.6c2.7-3.5,4.3-7.9,4.3-12.6
			C71.6,57.8,62.3,48.5,50.8,48.5z"/>
	</g>
	<g>
		<linearGradient id="SVGID_1_" gradientUnits="userSpaceOnUse" x1="50.7934" y1="85.2249" x2="50.7934" y2="51.3236">
			<stop  offset="0" style="stop-color:#1F0075"/>
			<stop  offset="1" style="stop-color:#1F0075;stop-opacity:0"/>
		</linearGradient>
		<path class="st6" d="M50.8,15.1c-22.9,0-41.5,18.6-41.5,41.5c0,9.5,3.2,18.3,8.6,25.3h20.1c-2.1-2.7-3.4-6.2-3.4-9.9
			c0-9,7.3-16.2,16.2-16.2c9,0,16.2,7.3,16.2,16.2c0,3.7-1.3,7.1-3.4,9.9h20.1c5.4-7,8.6-15.8,8.6-25.3
			C92.3,33.7,73.7,15.1,50.8,15.1z"/>
	</g>
	
		<linearGradient id="SVGID_00000029005993862171279750000004133752187616878767_" gradientUnits="userSpaceOnUse" x1="26.1558" y1="60.8796" x2="26.1558" y2="86.7509">
		<stop  offset="0" style="stop-color:#A8FFFF"/>
		<stop  offset="0.9964" style="stop-color:#69BEFF"/>
	</linearGradient>
	<path style="fill:url(#SVGID_00000029005993862171279750000004133752187616878767_);" d="M9.5,81.9c-3.8-6.4,5.2-10.5,8.1-5.5
		c-2.6-4.5,0.6-8.9,5.1-8.5c2.7,0.2,4.4,1.8,5,3.6c0.9-4,4.7-7.4,9.2-6.2c5,1.4,5,7.7,3.2,10.4c3.8-2.9,8.7,1.7,5.1,6.4
		c2.7-1.1,2.8,3,0.2,3l-39.1,0C3.3,83.1,5.9,79,9.5,81.9z"/>
	
		<linearGradient id="SVGID_00000065052523736836620680000018032786407727678373_" gradientUnits="userSpaceOnUse" x1="27.0321" y1="73.023" x2="27.0321" y2="87.5842">
		<stop  offset="0" style="stop-color:#A8FFFF"/>
		<stop  offset="0.9964" style="stop-color:#69BEFF"/>
	</linearGradient>
	<path style="fill:url(#SVGID_00000065052523736836620680000018032786407727678373_);" d="M36.9,81.5c1.4-2.1,1.5-7-2.5-8.1
		c-3.5-0.9-6.5,1.8-7.2,4.9c-0.5-1.4-1.8-2.6-3.9-2.8c-3.5-0.3-6.1,3.1-4,6.7c-2-3.4-7.9-1.3-7,2.8l29.4,0
		C42.6,81.9,39.4,79.5,36.9,81.5z"/>
	<g>
		<path class="st9" d="M42.8,76.3c0.1-0.5,0.1-1.1,0.1-1.6C42.8,75.2,42.8,75.8,42.8,76.3z"/>
	</g>
	
		<linearGradient id="SVGID_00000085222449606075814620000004891534038355477646_" gradientUnits="userSpaceOnUse" x1="75.6327" y1="60.8796" x2="75.6327" y2="86.7509">
		<stop  offset="0" style="stop-color:#A8FFFF"/>
		<stop  offset="0.9964" style="stop-color:#69BEFF"/>
	</linearGradient>
	<path style="fill:url(#SVGID_00000085222449606075814620000004891534038355477646_);" d="M58.2,74.6c3.3-3.1,7.3-1,8.7,1.4
		c-0.9-2.7-0.7-5.5,1-7.5s4.9-3,7-1.5c2,1.4,3.2,4.2,2.7,6.5c0.2-0.4,0.5-0.8,0.8-1.2c1.2-1.4,3.4-1.8,4.9-0.9
		c1.5,0.9,2.1,3.2,1.1,4.7c1.3-1.4,3.1-3.4,5.9-2.2c2.8,1.2,2,5.3,0.5,6.4c2.9-2.2,5.8,1.1,3.2,4.5l-34.7,0
		C56.2,82.6,54.9,77.8,58.2,74.6z"/>
	
		<linearGradient id="SVGID_00000153685931298665088790000004231931001879030691_" gradientUnits="userSpaceOnUse" x1="74.3708" y1="74.0369" x2="74.3708" y2="87.3582">
		<stop  offset="0" style="stop-color:#A8FFFF"/>
		<stop  offset="0.9964" style="stop-color:#69BEFF"/>
	</linearGradient>
	<path style="fill:url(#SVGID_00000153685931298665088790000004231931001879030691_);" d="M83.4,81.8c1.3-1.9,1.3-6.4-2.3-7.4
		c-3.2-0.9-6,1.6-6.6,4.5c-0.5-1.3-1.6-2.4-3.6-2.6c-3.2-0.3-5.5,2.9-3.7,6.1c-1.9-3.1-7.2-1.1-6.4,2.5l26.9,0
		C88.6,82.2,85.7,80,83.4,81.8z"/>
</g>
</svg>
