<?xml version="1.0" encoding="utf-8"?>
<!-- Generator: Adobe Illustrator 26.1.0, SVG Export Plug-In . SVG Version: 6.00 Build 0)  -->
<svg version="1.1" id="Layer_1" xmlns="http://www.w3.org/2000/svg" xmlns:xlink="http://www.w3.org/1999/xlink" x="0px" y="0px"
	 viewBox="0 0 100 100" style="enable-background:new 0 0 100 100;" xml:space="preserve">
<style type="text/css">
	.st0{fill-rule:evenodd;clip-rule:evenodd;fill:#B2DAED;}
	.st1{fill-rule:evenodd;clip-rule:evenodd;fill:#7AB2CC;}
	.st2{fill:#68A2BD;}
	.st3{fill:#B2DAED;}
	.st4{fill-rule:evenodd;clip-rule:evenodd;fill:#FFFFFF;}
	.st5{fill:#FFFFFF;}
</style>
<g>
	<g>
		<path class="st0" d="M21.5,6.8h60.5c7.1,0,12.9,5.8,12.9,12.9v60.5c0,7.1-5.8,12.9-12.9,12.9H21.5c-7.1,0-12.9-5.8-12.9-12.9V19.7
			C8.6,12.6,14.4,6.8,21.5,6.8z"/>
		<path class="st1" d="M23.3,11.1h57c5.7,0,10.4,4.7,10.4,10.4v57.1c0,5.7-4.7,10.4-10.4,10.4h-57c-5.7,0-10.4-4.7-10.4-10.4V21.5
			C12.9,15.8,17.5,11.1,23.3,11.1z"/>
		<path class="st2" d="M51.8,10h28.5c3.2,0,6,1.3,8.1,3.4s3.4,5,3.4,8.1v57c0,3.2-1.3,6-3.4,8.1c-2.1,2.1-5,3.4-8.1,3.4H51.8v-2.2
			h28.5c2.6,0,4.9-1,6.6-2.7c1.7-1.7,2.7-4,2.7-6.6v-57c0-2.6-1-4.9-2.7-6.6c-1.7-1.7-4-2.7-6.6-2.7H51.8V10z M23.3,10h28.5v2.2
			H23.3c-2.6,0-4.9,1-6.6,2.7c-1.7,1.7-2.7,4-2.7,6.6v57c0,2.6,1,4.9,2.7,6.6c1.7,1.7,4,2.7,6.6,2.7h28.5V90H23.3
			c-3.2,0-6-1.3-8.1-3.4c-2.1-2.1-3.4-5-3.4-8.1v-57c0-3.2,1.3-6,3.4-8.1C17.2,11.3,20.1,10,23.3,10z"/>
		<path class="st2" d="M62.4,34.4c1.9,0.9,3.5,2.2,5,3.6c3.5,3.5,5.6,8.3,5.6,13.6c0,5.3-2.2,10.1-5.6,13.6c-1.5,1.5-3.1,2.7-5,3.6
			v-4.4c0.8-0.6,1.6-1.2,2.3-1.9c2.4-2.4,4-5.5,4.4-9h-6.7v-3.8h6.7c-0.4-3.5-2-6.6-4.4-9c-0.7-0.7-1.5-1.3-2.3-1.9V34.4z
			 M53.8,32.3c3.1,0,6,0.7,8.6,2v4.4c-2-1.3-4.2-2.2-6.7-2.5v13.4h6.7v3.8h-6.7v13.4c2.5-0.3,4.7-1.2,6.7-2.5v4.4
			c-2.6,1.3-5.5,2-8.6,2c-3.1,0-6-0.7-8.6-2v-4.4c2,1.3,4.2,2.2,6.7,2.5V53.5h-6.7v-3.8h6.7V36.3c-2.5,0.3-4.7,1.2-6.7,2.5v-4.4
			C47.8,33.1,50.7,32.3,53.8,32.3z M45.2,68.8c-1.9-0.9-3.5-2.2-5-3.6c-3.5-3.5-5.6-8.3-5.6-13.6c0-5.3,2.2-10.1,5.6-13.6
			c1.5-1.5,3.1-2.7,5-3.6v4.4c-0.8,0.6-1.6,1.2-2.3,1.9c-2.4,2.4-4,5.5-4.4,9h6.7v3.8h-6.7c0.4,3.5,2,6.6,4.4,9
			c0.7,0.7,1.5,1.3,2.3,1.9V68.8z"/>
		<path class="st3" d="M60.4,32.8c1.9,0.9,3.5,2.2,5,3.6c3.5,3.5,5.6,8.3,5.6,13.6c0,5.3-2.2,10.1-5.6,13.6c-1.5,1.5-3.1,2.7-5,3.6
			v-4.4c0.8-0.6,1.6-1.2,2.3-1.9c2.4-2.4,4-5.5,4.4-9h-6.7v-3.8h6.7c-0.4-3.5-2-6.6-4.4-9c-0.7-0.7-1.5-1.3-2.3-1.9V32.8z
			 M51.8,30.7c3.1,0,6,0.7,8.6,2v4.4c-2-1.3-4.2-2.2-6.7-2.5v13.4h6.7v3.8h-6.7v13.4c2.5-0.3,4.7-1.2,6.7-2.5v4.4
			c-2.6,1.3-5.5,2-8.6,2c-3.1,0-6-0.7-8.6-2v-4.4c2,1.3,4.2,2.2,6.7,2.5V51.9h-6.7v-3.8h6.7V34.7c-2.5,0.3-4.7,1.2-6.7,2.5v-4.4
			C45.8,31.5,48.7,30.7,51.8,30.7z M43.2,67.2c-1.9-0.9-3.5-2.2-5-3.6c-3.5-3.5-5.6-8.3-5.6-13.6c0-5.3,2.2-10.1,5.6-13.6
			c1.5-1.5,3.1-2.7,5-3.6v4.4c-0.8,0.6-1.6,1.2-2.3,1.9c-2.4,2.4-4,5.5-4.4,9h6.7v3.8h-6.7c0.4,3.5,2,6.6,4.4,9
			c0.7,0.7,1.5,1.3,2.3,1.9V67.2z"/>
		<path class="st4" d="M60.5,66.1c1.5-0.8,3-1.9,4.3-3.2c3.4-3.4,5.4-8.1,5.4-12.9c0-4.9-1.9-9.5-5.4-12.9c-1.3-1.3-2.7-2.3-4.3-3.2
			v2.2c1.1,0.7,2,1.4,2.9,2.3c2.6,2.6,4.2,5.9,4.7,9.6l0.1,1.1h-7.7v1.9h7.7L68.1,52c-0.4,3.6-2.1,7-4.7,9.6
			c-0.9,0.9-1.9,1.7-2.9,2.3V66.1z M51.8,31.7c-3.1,0-6,0.8-8.7,2.2v2.2c2-1.3,4.3-2.1,6.6-2.4l1.1-0.1v15.5h-7.7v1.9h7.7v15.5
			l-1.1-0.1c-2.4-0.3-4.6-1.1-6.6-2.4v2.2c2.6,1.4,5.6,2.2,8.7,2.2c3.1,0,6-0.8,8.7-2.2v-2.2c-2,1.3-4.3,2.1-6.6,2.4l-1.1,0.1V50.9
			h7.7v-1.9h-7.7V33.6l1.1,0.1c2.4,0.3,4.6,1.1,6.6,2.4v-2.2C57.8,32.5,54.9,31.7,51.8,31.7z M43.1,33.9c-1.5,0.8-3,1.9-4.3,3.2
			c-3.4,3.4-5.4,8.1-5.4,12.9c0,4.9,1.9,9.5,5.4,12.9c1.3,1.3,2.7,2.3,4.3,3.2v-2.2c-1.1-0.7-2-1.4-2.9-2.3C37.6,59,36,55.7,35.5,52
			l-0.1-1.1h7.7v-1.9h-7.7l0.1-1.1c0.4-3.6,2.1-7,4.7-9.6c0.9-0.9,1.9-1.7,2.9-2.3V33.9z"/>
		<path class="st1" d="M7,23.5h10.4v13.2H7c-1.1,0-2-0.9-2-2v-9.3C5,24.4,5.9,23.5,7,23.5z"/>
		<path class="st1" d="M7,63.2h10.4v13.2H7c-1.1,0-2-0.9-2-2v-9.3C5,64.1,5.9,63.2,7,63.2z"/>
		<path class="st0" d="M7.9,25h8v10.3h-8c-0.8,0-1.5-0.7-1.5-1.5v-7.2C6.4,25.7,7.1,25,7.9,25z"/>
		<path class="st0" d="M7.9,64.7h8V75h-8c-0.8,0-1.5-0.7-1.5-1.5v-7.2C6.4,65.4,7.1,64.7,7.9,64.7z"/>
	</g>
	<g>
		<path class="st0" d="M66.2,34c5.1,0,9.2-4.1,9.2-9.2c0-5.1-4.1-9.2-9.2-9.2c-5.1,0-9.2,4.1-9.2,9.2C57,29.9,61.1,34,66.2,34z"/>
		<path class="st5" d="M65.9,16.8c0-0.2,0.1-0.3,0.3-0.3c0.2,0,0.3,0.1,0.3,0.3v16.1c0,0.2-0.1,0.3-0.3,0.3c-0.2,0-0.3-0.1-0.3-0.3
			V16.8z"/>
		<path class="st5" d="M68.7,17.1c0.1-0.2,0.2-0.2,0.4-0.2c0.2,0.1,0.2,0.2,0.2,0.4l-5.5,15.1c-0.1,0.2-0.2,0.2-0.4,0.2
			c-0.2-0.1-0.2-0.2-0.2-0.4L68.7,17.1z"/>
		<path class="st5" d="M69.2,32.3c0.1,0.2,0,0.3-0.2,0.4c-0.2,0.1-0.3,0-0.4-0.2l-5.5-15.1c-0.1-0.2,0-0.3,0.2-0.4
			c0.2-0.1,0.3,0,0.4,0.2L69.2,32.3z"/>
		<path class="st5" d="M71.1,18.4c0.1-0.1,0.3-0.1,0.4,0c0.1,0.1,0.1,0.3,0,0.4L61.3,31.2c-0.1,0.1-0.3,0.1-0.4,0
			c-0.1-0.1-0.1-0.3,0-0.4L71.1,18.4z"/>
		<path class="st5" d="M73,20.5c0.2-0.1,0.3,0,0.4,0.1c0.1,0.1,0,0.3-0.1,0.4l-13.9,8c-0.1,0.1-0.3,0-0.4-0.1
			c-0.1-0.1,0-0.3,0.1-0.4L73,20.5z"/>
		<path class="st5" d="M74.1,23.1c0.2,0,0.3,0.1,0.4,0.3c0,0.2-0.1,0.3-0.3,0.4l-15.8,2.8c-0.2,0-0.3-0.1-0.4-0.3
			c0-0.2,0.1-0.3,0.3-0.4L74.1,23.1z"/>
		<path class="st5" d="M74.2,25.9c0.2,0,0.3,0.2,0.3,0.4c0,0.2-0.2,0.3-0.4,0.3l-15.8-2.8c-0.2,0-0.3-0.2-0.3-0.4
			c0-0.2,0.2-0.3,0.4-0.3L74.2,25.9z"/>
		<path class="st5" d="M73.3,28.6c0.1,0.1,0.2,0.3,0.1,0.4c-0.1,0.1-0.3,0.2-0.4,0.1l-13.9-8c-0.1-0.1-0.2-0.3-0.1-0.4
			c0.1-0.2,0.3-0.2,0.4-0.1L73.3,28.6z"/>
		<path class="st5" d="M71.6,30.8c0.1,0.1,0.1,0.3,0,0.4c-0.1,0.1-0.3,0.1-0.4,0L60.8,18.9c-0.1-0.1-0.1-0.3,0-0.4
			c0.1-0.1,0.3-0.1,0.4,0L71.6,30.8z"/>
		<ellipse transform="matrix(0.9744 -0.2249 0.2249 0.9744 -3.883 15.5204)" class="st1" cx="66.2" cy="24.8" rx="6.4" ry="6.4"/>
		<path class="st5" d="M68.7,17.1c0.1-0.2,0.2-0.2,0.4-0.2c0.2,0.1,0.2,0.2,0.2,0.4l-2.8,7.6c-0.1,0.2-0.2,0.2-0.4,0.2
			c-0.2-0.1-0.2-0.2-0.2-0.4L68.7,17.1z"/>
		<circle class="st4" cx="66.2" cy="24.8" r="4.4"/>
	</g>
</g>
</svg>
