<?xml version="1.0" encoding="iso-8859-1"?>
<!-- Uploaded to: SVG Repo, www.svgrepo.com, Generator: SVG Repo Mixer Tools -->
<svg version="1.1" id="Layer_1" xmlns="http://www.w3.org/2000/svg" xmlns:xlink="http://www.w3.org/1999/xlink" 
	 viewBox="0 0 511.883 511.883" xml:space="preserve">
<g>
	<rect x="42.599" y="399.913" style="fill:#434A54;" width="106.71" height="74.65"/>
	<rect x="362.591" y="399.913" style="fill:#434A54;" width="106.71" height="74.65"/>
</g>
<g>
	<path style="fill:#656D78;" d="M511.882,431.902c0,5.891-4.764,10.67-10.653,10.67H10.67c-5.89,0-10.67-4.779-10.67-10.67V47.99
		c0-5.889,4.78-10.669,10.67-10.669h490.56c5.89,0,10.653,4.78,10.653,10.669v383.912H511.882z"/>
	<rect x="53.251" y="90.653" style="fill:#656D78;" width="405.38" height="298.59"/>
</g>
<path style="fill:#434A54;" d="M42.599,79.984v319.926h426.699V79.984H42.599z M447.976,378.587H63.922V101.307h384.054
	L447.976,378.587L447.976,378.587z"/>
<g>
	<path style="fill:#CCD1D9;" d="M42.599,197.284c5.89,0,10.654-4.765,10.654-10.653v-42.662c0-5.89-4.765-10.67-10.654-10.67
		s-10.669,4.78-10.669,10.67v42.662C31.93,192.52,36.711,197.284,42.599,197.284z"/>
	<path style="fill:#CCD1D9;" d="M42.662,282.608c-5.889,0-10.669,4.764-10.669,10.654v42.662c0,5.889,4.78,10.668,10.669,10.668
		c5.89,0,10.67-4.779,10.67-10.668v-42.662C53.332,287.372,48.551,282.608,42.662,282.608z"/>
	<path style="fill:#CCD1D9;" d="M266.611,239.946c0,47.114-38.194,85.309-85.309,85.309c-47.13,0-85.324-38.195-85.324-85.309
		s38.194-85.309,85.324-85.309C228.417,154.638,266.611,192.832,266.611,239.946z"/>
</g>
<path style="fill:#F6BB42;" d="M426.574,207.954c0,35.335-28.649,63.985-63.984,63.985c-35.336,0-63.986-28.649-63.986-63.985
	s28.65-63.985,63.986-63.985C397.924,143.969,426.574,172.618,426.574,207.954z"/>
<path style="fill:#E6E9ED;" d="M234.618,250.616c5.89,0,10.67-4.78,10.67-10.67c0-5.889-4.78-10.669-10.67-10.669
	c-0.359,0-0.719,0.031-1.062,0.062c-0.438-2.172-1.015-4.28-1.702-6.327c0.328-0.156,0.641-0.312,0.953-0.484
	c5.092-2.952,6.842-9.466,3.905-14.574c-2.953-5.108-9.467-6.843-14.575-3.905c-0.312,0.187-0.609,0.375-0.906,0.593
	c-1.437-1.64-2.983-3.187-4.624-4.64c0.203-0.281,0.406-0.593,0.578-0.906c2.953-5.093,1.203-11.623-3.89-14.56
	c-5.108-2.952-11.622-1.203-14.574,3.905c-0.172,0.312-0.344,0.625-0.484,0.953c-2.062-0.703-4.171-1.281-6.327-1.718
	c0.031-0.344,0.047-0.687,0.047-1.046c0-5.89-4.765-10.67-10.653-10.67c-5.89,0-10.67,4.78-10.67,10.67
	c0,0.359,0.016,0.703,0.047,1.046c-2.155,0.438-4.265,1.015-6.326,1.718c-0.141-0.328-0.297-0.641-0.484-0.953
	c-2.938-5.108-9.467-6.857-14.56-3.905c-5.108,2.937-6.857,9.467-3.905,14.56c0.172,0.312,0.375,0.625,0.578,0.906
	c-1.641,1.453-3.171,3-4.624,4.64c-0.297-0.219-0.594-0.406-0.906-0.593c-5.108-2.938-11.622-1.188-14.574,3.905
	c-2.938,5.108-1.188,11.622,3.905,14.574c0.312,0.172,0.641,0.328,0.952,0.484c-0.687,2.047-1.265,4.155-1.702,6.327
	c-0.344-0.031-0.703-0.062-1.062-0.062c-5.889,0-10.653,4.78-10.653,10.669c0,5.89,4.765,10.67,10.653,10.67
	c0.359,0,0.719-0.031,1.062-0.062c0.438,2.171,1.016,4.28,1.702,6.326c-0.312,0.157-0.64,0.313-0.952,0.485
	c-5.093,2.953-6.843,9.482-3.905,14.574c2.952,5.109,9.466,6.842,14.574,3.906c0.312-0.188,0.609-0.375,0.906-0.594
	c1.453,1.641,2.983,3.186,4.624,4.639c-0.203,0.281-0.406,0.594-0.578,0.906c-2.952,5.094-1.203,11.623,3.905,14.559
	c5.093,2.953,11.622,1.203,14.56-3.904c0.188-0.312,0.344-0.625,0.484-0.953c2.062,0.703,4.171,1.281,6.326,1.719
	c-0.031,0.344-0.047,0.688-0.047,1.047c0,5.889,4.78,10.668,10.67,10.668c5.889,0,10.653-4.779,10.653-10.668
	c0-0.359-0.016-0.703-0.047-1.047c2.156-0.438,4.265-1.016,6.327-1.719c0.141,0.328,0.312,0.641,0.484,0.953
	c2.952,5.107,9.466,6.857,14.574,3.904c5.093-2.936,6.843-9.465,3.89-14.559c-0.172-0.312-0.375-0.625-0.578-0.906
	c1.641-1.453,3.188-2.998,4.624-4.639c0.297,0.219,0.594,0.406,0.906,0.594c5.108,2.936,11.622,1.203,14.575-3.906
	c2.937-5.107,1.187-11.621-3.905-14.574c-0.312-0.172-0.625-0.328-0.953-0.485c0.688-2.046,1.265-4.155,1.702-6.326
	C233.899,250.585,234.258,250.616,234.618,250.616z"/>
<path style="fill:#FFCE54;" d="M394.707,207.954c0,17.746-0.891,126.643-32.117,126.643c-31.229,0-32.118-108.897-32.118-126.643
	s14.372-32.118,32.118-32.118C380.319,175.836,394.707,190.208,394.707,207.954z"/>
</svg>