<?xml version="1.0" encoding="utf-8"?>
<!-- Generator: Adobe Illustrator 26.1.0, SVG Export Plug-In . SVG Version: 6.00 Build 0)  -->
<svg version="1.1" id="Layer_1" xmlns="http://www.w3.org/2000/svg" xmlns:xlink="http://www.w3.org/1999/xlink" x="0px" y="0px"
	 viewBox="0 0 100 100" style="enable-background:new 0 0 100 100;" xml:space="preserve">
<style type="text/css">
	.st0{fill:#EDDFCE;}
	.st1{fill:#CCB8A2;}
	.st2{fill:#D8C4AD;}
	.st3{fill:#FFFFFF;}
</style>
<g>
	<path class="st0" d="M81.8,8.1H19.3c-7.6,0-13.7,6.1-13.7,13.7v50c0,7.6,6.1,13.7,13.7,13.7h62.6c7.6,0,13.7-6.1,13.7-13.7v-50
		C95.6,14.2,89.4,8.1,81.8,8.1z"/>
	<path class="st1" d="M81.8,80.4H19.3c-4.8,0-8.6-3.9-8.6-8.6v-50c0-4.8,3.9-8.6,8.6-8.6h62.6c4.8,0,8.6,3.9,8.6,8.6v50
		C90.5,76.5,86.6,80.4,81.8,80.4z M19.3,14.9c-3.8,0-6.8,3.1-6.8,6.8v50c0,3.8,3.1,6.8,6.8,6.8h62.6c3.8,0,6.8-3.1,6.8-6.8v-50
		c0-3.8-3.1-6.8-6.8-6.8H19.3z"/>
	<path class="st1" d="M11.7,24.9L11.7,24.9c-1.2,0-2.2,1-2.2,2.2V36c0,1.2,1,2.2,2.2,2.2l0,0c1.2,0,2.2-1,2.2-2.2v-8.9
		C13.9,25.9,12.9,24.9,11.7,24.9z"/>
	<path class="st1" d="M11.7,52.9L11.7,52.9c-1.2,0-2.2,1-2.2,2.2V64c0,1.2,1,2.2,2.2,2.2l0,0c1.2,0,2.2-1,2.2-2.2v-8.9
		C13.9,53.9,12.9,52.9,11.7,52.9z"/>
	<g>
		<path class="st2" d="M58.2,52.3L54,49.8c0.4-1.4,0.6-2.8,0.6-4.3c0-1.5-0.2-2.9-0.6-4.3l4.3-2.5c1.6-1,2.2-3.1,1.3-4.7l0,0
			c-1-1.6-3.1-2.2-4.7-1.3l-4.3,2.5c-2-2.1-4.5-3.6-7.4-4.3v-5c0-1.9-1.5-3.4-3.4-3.4l0,0c-1.9,0-3.4,1.5-3.4,3.4v5
			c-2.9,0.7-5.5,2.2-7.4,4.3l-4.3-2.5c-1.6-1-3.8-0.4-4.7,1.3h0c-1,1.6-0.4,3.8,1.3,4.7l4.3,2.5c-0.4,1.4-0.6,2.8-0.6,4.3
			c0,1.5,0.2,2.9,0.6,4.3L21,52.3c-1.6,1-2.2,3.1-1.3,4.7h0c1,1.6,3.1,2.2,4.7,1.3l4.3-2.5c2,2.1,4.5,3.6,7.4,4.3v5
			c0,1.9,1.5,3.4,3.4,3.4l0,0c1.9,0,3.4-1.5,3.4-3.4v-5c2.9-0.7,5.5-2.2,7.4-4.3l4.3,2.5c1.6,1,3.8,0.4,4.7-1.3l0,0
			C60.5,55.4,59.9,53.3,58.2,52.3z"/>
		<circle class="st1" cx="39.6" cy="45.6" r="9.2"/>
		<circle class="st3" cx="39.6" cy="45.6" r="4"/>
	</g>
	<path class="st1" d="M36.4,85.5H20.8v3.7c0,2.3,1.8,4.1,4.1,4.1h7.4c2.3,0,4.1-1.8,4.1-4.1V85.5z"/>
	<path class="st1" d="M77.9,85.5H62.3v3.7c0,2.3,1.8,4.1,4.1,4.1h7.4c2.3,0,4.1-1.8,4.1-4.1V85.5z"/>
	<path class="st1" d="M78.9,37.5h-2.3c-2.1,0-3.7,1.7-3.7,3.7v10.5c0,2.1,1.7,3.7,3.7,3.7h2.3c2.1,0,3.7-1.7,3.7-3.7V41.2
		C82.6,39.1,80.9,37.5,78.9,37.5z"/>
</g>
</svg>
