<?xml version="1.0" encoding="utf-8"?>
<!-- Uploaded to: SVG Repo, www.svgrepo.com, Generator: SVG Repo Mixer Tools -->
<svg width="800px" height="800px" viewBox="0 -9.77 89.142 89.142" xmlns="http://www.w3.org/2000/svg">
  <g id="shopping_basket" data-name="shopping basket" transform="translate(-659.706 -624.044)">
    <path id="Path_135" data-name="Path 135" d="M667.725,655.938l3.81,34.725a3.437,3.437,0,0,0,3.325,2.979H733.7a3.434,3.434,0,0,0,3.322-2.979l3.806-34.725Zm17.885,23.591a3.006,3.006,0,0,1-3,3h-1.995a2.926,2.926,0,0,1-1.3-.33c0-.016-.01-.031-.01-.046V667.67a3.007,3.007,0,0,1,3-3H684.3a2.916,2.916,0,0,1,1.3.33c0,.016.008.026.008.043Zm13.984,0a3.006,3.006,0,0,1-2.995,3h-2a2.909,2.909,0,0,1-1.3-.33c0-.016-.006-.031-.006-.046V667.67a3,3,0,0,1,3-3h1.995a2.915,2.915,0,0,1,1.3.33c0,.016.01.026.01.043Zm13.981,0a3.006,3.006,0,0,1-2.995,3h-1.995a2.933,2.933,0,0,1-1.308-.33c0-.016-.005-.031-.005-.046V667.67a3.006,3.006,0,0,1,3-3h2a2.925,2.925,0,0,1,1.3.33c0,.016.01.026.01.043Zm13.982,0a3,3,0,0,1-3,3h-1.995a2.911,2.911,0,0,1-1.3-.33c0-.016-.013-.031-.013-.046V667.67a3.008,3.008,0,0,1,3-3h2a2.922,2.922,0,0,1,1.3.33c0,.016.006.026.006.043Z" fill="#ffd504"/>
    <g id="Group_47" data-name="Group 47">
      <path id="Path_136" data-name="Path 136" d="M748.848,652.872a3.078,3.078,0,0,1-3.066,3.066H662.775a3.074,3.074,0,0,1-3.069-3.066v-4.357a3.072,3.072,0,0,1,3.069-3.06h83.007a3.076,3.076,0,0,1,3.066,3.06Z" fill="#ffd504"/>
    </g>
    <path id="Path_137" data-name="Path 137" d="M668.194,660.182h72.173l.462-4.244h-73.1Z" fill="#fdb53f"/>
    <g id="Group_50" data-name="Group 50">
      <g id="Group_48" data-name="Group 48">
        <path id="Path_138" data-name="Path 138" d="M694.908,651.373a3,3,0,0,0,4.214-.451l.317-.391a3,3,0,0,0-.452-4.214l-26.8-21.611a2.993,2.993,0,0,0-4.206.452l-.317.39a3.006,3.006,0,0,0,.452,4.214Z" fill="#163844"/>
      </g>
      <g id="Group_49" data-name="Group 49">
        <path id="Path_139" data-name="Path 139" d="M713.646,651.373a3,3,0,0,1-4.213-.451l-.315-.391a3,3,0,0,1,.449-4.214l26.8-21.611a3,3,0,0,1,4.208.452l.315.39a3,3,0,0,1-.452,4.214Z" fill="#163844"/>
      </g>
    </g>
    <path id="Path_140" data-name="Path 140" d="M699.594,665.055v14.474a3.006,3.006,0,0,1-2.995,3h-2a2.909,2.909,0,0,1-1.3-.33,3,3,0,0,0,2.99,2.949h1.995a3,3,0,0,0,2.995-2.995V667.67A2.928,2.928,0,0,0,699.594,665.055Zm-.01-.051a3.4,3.4,0,0,0-.363-.141,2.928,2.928,0,0,1,.373.192v-.008C699.594,665.03,699.584,665.02,699.584,665Zm-13.974.051v14.474a3.006,3.006,0,0,1-3,3h-1.995a2.926,2.926,0,0,1-1.3-.33,3,3,0,0,0,2.986,2.949H684.3a3,3,0,0,0,3-2.995V667.67A2.923,2.923,0,0,0,685.61,665.055ZM685.6,665a3.171,3.171,0,0,0-.368-.141,2.713,2.713,0,0,1,.376.192v-.008C685.61,665.03,685.6,665.02,685.6,665Zm41.949,0a3.466,3.466,0,0,0-.367-.141,2.629,2.629,0,0,1,.373.192v-.008C727.557,665.03,727.551,665.02,727.551,665Zm.006.051v14.474a3,3,0,0,1-3,3h-1.995a2.911,2.911,0,0,1-1.3-.33,2.993,2.993,0,0,0,2.984,2.949h2a3,3,0,0,0,2.995-2.995V667.67A2.921,2.921,0,0,0,727.557,665.055Zm-13.982,0v14.474a3.006,3.006,0,0,1-2.995,3h-1.995a2.933,2.933,0,0,1-1.308-.33,3.007,3.007,0,0,0,2.993,2.949h2a3,3,0,0,0,2.995-2.995V667.67A2.929,2.929,0,0,0,713.575,665.055Zm-.01-.051a3.214,3.214,0,0,0-.366-.141,2.773,2.773,0,0,1,.376.192v-.008C713.575,665.03,713.565,665.02,713.565,665Z" fill="#fdb53f"/>
  </g>
</svg>