<?xml version="1.0" encoding="utf-8"?>
<!-- Uploaded to: SVG Repo, www.svgrepo.com, Generator: SVG Repo Mixer Tools -->
<svg width="800px" height="800px" viewBox="-6.75 0 79.403 79.403" xmlns="http://www.w3.org/2000/svg">
  <g id="shopping_bag" data-name="shopping bag" transform="translate(-671.322 -429.036)">
    <path id="Path_141" data-name="Path 141" d="M671.322,451.94v51.917a4.594,4.594,0,0,0,4.579,4.582h56.755a4.593,4.593,0,0,0,4.577-4.582V451.94Z" fill="#a4d322"/>
    <path id="Path_142" data-name="Path 142" d="M733.78,450.137l-3.465-1.843,3.465-3.632.018-.018H674.743l.021.018,3.462,3.632-3.462,1.843-3.414,1.8h65.837Z" fill="#739142"/>
    <path id="Path_143" data-name="Path 143" d="M733.78,444.662l-3.465,3.632,3.465,1.843.018.005v-5.5Z" fill="#a4d322"/>
    <path id="Path_144" data-name="Path 144" d="M674.764,450.137l3.462-1.843-3.462-3.632Z" fill="#a4d322"/>
    <path id="Path_145" data-name="Path 145" d="M690.09,468.167a3.815,3.815,0,1,1-3.818-3.82A3.819,3.819,0,0,1,690.09,468.167Z" fill="#739142"/>
    <path id="Path_146" data-name="Path 146" d="M726.67,468.167a3.816,3.816,0,1,1-3.81-3.82A3.812,3.812,0,0,1,726.67,468.167Z" fill="#739142"/>
    <path id="Path_147" data-name="Path 147" d="M704.661,429.036a20.487,20.487,0,0,0-20.49,20.487c0,.165,0,8.544.007,17.537v.034c0,.005-.007.012-.007.02s.007.018.007.023a2.289,2.289,0,0,0,4.577-.023c0-.015-.007-.028-.007-.054h.007V449.523a15.905,15.905,0,0,1,31.811,0c0,.188-.006,7.795-.006,15.4,0,.665,0,1.325,0,1.985-.005.053-.016.1-.021.154v.054c0,.071.016.137.021.2a2.282,2.282,0,0,0,4.556-.2v-.054h.023v-2.137c0-7.6.008-15.21.008-15.4A20.486,20.486,0,0,0,704.661,429.036Z" fill="#163844"/>
  </g>
</svg>