<?xml version="1.0" encoding="utf-8"?>
<!-- Uploaded to: SVG Repo, www.svgrepo.com, Generator: SVG Repo Mixer Tools -->
<svg width="800px" height="800px" viewBox="0 -1.96 82.142 82.142" xmlns="http://www.w3.org/2000/svg">
  <g id="star_gold_orange" data-name="star gold orange" transform="translate(-462.47 -619.736)">
    <rect id="Rectangle_18" data-name="Rectangle 18" width="0.003" height="0.004" transform="translate(503.588 662.924) rotate(-29.055)" fill="gray"/>
    <rect id="Rectangle_19" data-name="Rectangle 19" width="0.002" height="0.002" transform="translate(503.591 662.923)" fill="gray"/>
    <path id="Path_72" data-name="Path 72" d="M503.592,662.926Z" fill="gray"/>
    <path id="Path_73" data-name="Path 73" d="M503.592,662.923v0l41.02-13.494-27.587-5.138-13.433,18.629Z" fill="#f9c543"/>
    <rect id="Rectangle_20" data-name="Rectangle 20" width="0.002" height="0.002" transform="translate(503.591 662.925)" fill="gray"/>
    <path id="Path_74" data-name="Path 74" d="M503.592,662.923Z" fill="gray"/>
    <path id="Path_75" data-name="Path 75" d="M525.465,669.942l19.147-20.51-41.02,13.494Z" fill="#fdb53f"/>
    <path id="Path_76" data-name="Path 76" d="M503.592,662.923Z" fill="gray"/>
    <path id="Path_77" data-name="Path 77" d="M481.772,670.1,478.33,697.95l25.256-35.023Z" fill="#f9c543"/>
    <path id="Path_78" data-name="Path 78" d="M503.586,662.926,478.33,697.95l25.345-12.057-.083-22.967Z" fill="#fc9a42"/>
    <path id="Path_79" data-name="Path 79" d="M517.025,644.294l-13.588-24.559.155,43.188Z" fill="#fc9a42"/>
    <path id="Path_80" data-name="Path 80" d="M503.592,662.926h0L529.1,697.77l-3.632-27.828Z" fill="#fc9a42"/>
    <path id="Path_81" data-name="Path 81" d="M503.592,662.926l.083,22.967L529.1,697.77l-25.505-34.844Z" fill="#fdb53f"/>
    <path id="Path_82" data-name="Path 82" d="M503.592,662.923h0l-.155-43.187-13.416,24.652,13.57,18.535Z" fill="#f9c543"/>
    <path id="Path_83" data-name="Path 83" d="M490.021,644.388l-27.551,5.336,41.122,13.2Z" fill="#fdb53f"/>
    <path id="Path_84" data-name="Path 84" d="M503.592,662.923h0l-41.122-13.2,19.3,20.375,21.814-7.173Z" fill="#fc9a42"/>
  </g>
</svg>