<?xml version="1.0" encoding="utf-8"?>
<!-- Generator: Adobe Illustrator 26.1.0, SVG Export Plug-In . SVG Version: 6.00 Build 0)  -->
<svg version="1.1" id="Layer_1" xmlns="http://www.w3.org/2000/svg" xmlns:xlink="http://www.w3.org/1999/xlink" x="0px" y="0px"
	 viewBox="0 0 100 100" style="enable-background:new 0 0 100 100;" xml:space="preserve">
<style type="text/css">
	.st0{fill:#3BB1D1;}
	.st1{fill:#4B4B70;}
	.st2{fill:#DD4E31;}
	.st3{fill:#FFFFFF;}
	.st4{fill:#E8AF2E;}
	.st5{fill:#F9CA35;}
	.st6{fill:#C38728;}
</style>
<g>
	<path class="st0" d="M93.37,51.56C93.37,75.55,73.92,95,49.93,95C25.93,95,6.49,75.55,6.49,51.56c0-23.99,19.45-43.44,43.44-43.44
		C73.92,8.12,93.37,27.57,93.37,51.56z"/>
	<g>
		<g>
			<path class="st1" d="M72.61,85.52c0.11,0.35-0.08,0.73-0.43,0.84l-2.06,0.67c-0.35,0.11-0.73-0.08-0.84-0.43L43.28,6.54
				c-0.11-0.35,0.08-0.73,0.43-0.84l2.07-0.67c0.35-0.11,0.73,0.08,0.84,0.43L72.61,85.52z"/>
			<g>
				<g>
					<path class="st2" d="M32.75,42.67c1.57-1.9,3.88-3.48,6.66-4.39c2.79-0.9,5.58-0.98,7.97-0.36c1.57-1.89,3.87-3.48,6.66-4.39
						c2.79-0.9,5.58-0.98,7.97-0.36c1.57-1.9,3.88-3.48,6.66-4.39c2.79-0.9,5.58-0.97,7.97-0.36c1.57-1.9,3.88-3.48,6.66-4.39
						c2.88-0.94,5.78-0.98,8.22-0.29c-0.13-0.63-0.29-1.27-0.5-1.89C86.64,8.35,66.65,2.75,46.36,9.34
						C26.08,15.92,13.19,32.2,17.57,45.7c0.18,0.56,0.39,1.11,0.63,1.64c1.57-1.86,3.85-3.41,6.59-4.3
						C27.57,42.13,30.37,42.05,32.75,42.67z"/>
				</g>
				<path class="st3" d="M32.75,42.67c0,0,0.01,0,0.02,0.01c1.57-1.9,3.88-3.5,6.67-4.4c2.77-0.9,5.56-0.98,7.93-0.37
					c-3.92-6.76-7.51-19.38-1.11-28.53C22.82,24.7,32.75,42.67,32.75,42.67z"/>
				<path class="st3" d="M76.65,28.42c0,0,0,0.01-0.01,0.01c-2.39-0.62-5.19-0.55-7.99,0.36c-2.77,0.9-5.07,2.47-6.64,4.36
					c-0.8-7.77-5.2-20.13-15.75-23.78C74.24,8.01,76.65,28.42,76.65,28.42z"/>
			</g>
		</g>
		<g>
			<g>
				<g>
					<path class="st4" d="M63.32,77.3c-2.69,9.08-12.24,14.27-21.32,11.58c-9.09-2.69-14.27-12.24-11.58-21.32
						c2.69-9.09,12.24-14.27,21.32-11.58C60.82,58.67,66.01,68.22,63.32,77.3z"/>
					<path class="st5" d="M60.34,76.42c-2.21,7.45-10.03,11.69-17.47,9.49c-7.45-2.2-11.69-10.03-9.49-17.47
						c2.2-7.44,10.03-11.69,17.47-9.49C58.3,61.16,62.55,68.98,60.34,76.42z"/>
					<g>
						<g>
							<path class="st6" d="M50.89,69.6c0.22-1.08-0.59-1.89-2.44-2.45c-1.86-0.56-2.94-0.34-3.23,0.65
								c-0.18,0.61-0.02,1.14,0.5,1.59c0.52,0.45,1.63,1.12,3.33,2.01c1.71,0.89,2.86,1.86,3.47,2.93c0.6,1.06,0.71,2.25,0.32,3.55
								c-0.45,1.52-1.48,2.49-3.09,2.91c-1.61,0.42-3.29,0.37-5.04-0.16c-4.24-1.27-6.16-3.61-5.78-7.04l3.59,0.77
								c-0.25,1.78,0.75,3.01,2.99,3.68c2.11,0.63,3.37,0.23,3.8-1.19c0.19-0.63,0.08-1.18-0.34-1.64
								c-0.42-0.46-1.51-1.16-3.29-2.09c-1.77-0.93-2.97-1.9-3.58-2.91c-0.61-1.01-0.75-2.08-0.41-3.2
								c0.36-1.21,1.21-2.07,2.54-2.59c1.33-0.52,3.02-0.46,5.07,0.15c4.07,1.22,5.8,3.21,5.19,5.96L50.89,69.6z"/>
						</g>
						
							<rect x="48.21" y="61.69" transform="matrix(0.2871 -0.9579 0.9579 0.2871 -25.2596 92.9201)" class="st6" width="3.17" height="3.49"/>
						
							<rect x="42.77" y="79.82" transform="matrix(0.2876 -0.9578 0.9578 0.2876 -46.5141 100.5928)" class="st6" width="3.17" height="3.49"/>
					</g>
				</g>
			</g>
			<g>
				<g>
					<path class="st4" d="M92.8,77.3c-2.69,9.08-12.24,14.27-21.32,11.58C62.4,86.19,57.21,76.65,59.9,67.56
						c2.69-9.09,12.23-14.27,21.32-11.58C90.31,58.67,95.49,68.22,92.8,77.3z"/>
					<path class="st5" d="M89.83,76.42c-2.21,7.44-10.03,11.69-17.47,9.49c-7.44-2.2-11.69-10.03-9.49-17.47
						c2.2-7.44,10.02-11.69,17.47-9.49C87.79,61.16,92.04,68.98,89.83,76.42z"/>
					<g>
						<g>
							<path class="st6" d="M80.38,69.6c0.22-1.08-0.59-1.89-2.44-2.45C76.08,66.6,75,66.81,74.7,67.8
								c-0.18,0.61-0.01,1.14,0.5,1.59c0.52,0.45,1.63,1.12,3.33,2.01c1.71,0.89,2.86,1.87,3.47,2.94c0.6,1.06,0.71,2.25,0.32,3.55
								c-0.45,1.52-1.48,2.49-3.09,2.91c-1.61,0.42-3.29,0.37-5.04-0.16c-4.23-1.27-6.16-3.62-5.78-7.04L72,74.37
								c-0.25,1.78,0.75,3.01,2.99,3.68c2.11,0.63,3.37,0.23,3.8-1.19c0.19-0.63,0.08-1.18-0.34-1.64
								c-0.42-0.46-1.52-1.16-3.29-2.09c-1.77-0.93-2.97-1.91-3.58-2.91c-0.61-1.01-0.75-2.08-0.41-3.2
								c0.36-1.21,1.21-2.07,2.54-2.59c1.33-0.52,3.02-0.46,5.07,0.15c4.07,1.22,5.8,3.21,5.19,5.96L80.38,69.6z"/>
						</g>
						
							<rect x="77.7" y="61.69" transform="matrix(0.2874 -0.9578 0.9578 0.2874 -4.2571 121.1358)" class="st6" width="3.17" height="3.49"/>
						
							<rect x="72.26" y="79.82" transform="matrix(0.2875 -0.9578 0.9578 0.2875 -25.504 128.8389)" class="st6" width="3.17" height="3.49"/>
					</g>
				</g>
			</g>
			<g>
				<g>
					<path class="st4" d="M78.06,77.45c-2.69,9.08-12.24,14.27-21.32,11.58c-9.09-2.69-14.27-12.24-11.58-21.32
						c2.69-9.09,12.24-14.27,21.32-11.58C75.57,58.81,80.75,68.36,78.06,77.45z"/>
					<path class="st5" d="M75.09,76.57c-2.21,7.44-10.03,11.69-17.47,9.49c-7.44-2.2-11.69-10.03-9.49-17.47
						c2.2-7.45,10.03-11.69,17.47-9.49C73.04,61.3,77.29,69.12,75.09,76.57z"/>
					<g>
						<g>
							<path class="st6" d="M65.64,69.74c0.22-1.08-0.59-1.89-2.44-2.45c-1.86-0.56-2.94-0.34-3.23,0.65
								c-0.18,0.61-0.02,1.14,0.5,1.59c0.52,0.45,1.63,1.13,3.33,2.01c1.71,0.89,2.86,1.87,3.46,2.93c0.6,1.07,0.71,2.25,0.32,3.55
								c-0.46,1.52-1.49,2.49-3.09,2.91c-1.61,0.42-3.29,0.37-5.04-0.16c-4.24-1.27-6.16-3.62-5.78-7.04l3.59,0.77
								C57,76.3,58,77.52,60.25,78.2c2.11,0.63,3.37,0.23,3.8-1.19c0.19-0.63,0.08-1.18-0.34-1.64c-0.42-0.46-1.51-1.16-3.29-2.09
								c-1.77-0.94-2.97-1.91-3.58-2.91c-0.61-1.01-0.75-2.07-0.41-3.2c0.36-1.21,1.21-2.07,2.54-2.59
								c1.33-0.52,3.02-0.46,5.07,0.15c4.07,1.22,5.8,3.21,5.19,5.96L65.64,69.74z"/>
						</g>
						
							<rect x="62.95" y="61.83" transform="matrix(0.2875 -0.9578 0.9578 0.2875 -14.9046 107.1096)" class="st6" width="3.17" height="3.49"/>
						
							<rect x="57.52" y="79.96" transform="matrix(0.2877 -0.9577 0.9577 0.2877 -36.1527 114.7998)" class="st6" width="3.17" height="3.49"/>
					</g>
				</g>
			</g>
		</g>
	</g>
</g>
</svg>
