<?xml version="1.0" encoding="utf-8"?>
<!-- Generator: Adobe Illustrator 26.1.0, SVG Export Plug-In . SVG Version: 6.00 Build 0)  -->
<svg version="1.1" id="Layer_1" xmlns="http://www.w3.org/2000/svg" xmlns:xlink="http://www.w3.org/1999/xlink" x="0px" y="0px"
	 viewBox="0 0 100 100" style="enable-background:new 0 0 100 100;" xml:space="preserve">
<style type="text/css">
	.st0{fill:#3BB1D1;}
	.st1{fill:#8BC543;stroke:#006738;stroke-width:6.4236;stroke-miterlimit:10;}
	.st2{fill:#006738;}
	.st3{fill:#8BC543;}
	.st4{fill:#DD4E31;}
	.st5{fill:#221F1F;}
	.st6{fill:#3E4768;}
	.st7{fill:#55607F;}
	.st8{fill:#F0F1F1;}
	.st9{fill:#2E3649;}
	.st10{fill:#E8AF2E;}
	.st11{fill:#F9CA35;}
	.st12{fill:#C38728;}
</style>
<g>
	<path class="st0" d="M50,5C25.15,5,5,25.15,5,50c0,24.85,20.15,45,45,45c24.85,0,45-20.15,45-45C95,25.15,74.85,5,50,5z"/>
	<g>
		<g>
			<g>
				
					<rect x="37.24" y="12.4" transform="matrix(0.8035 -0.5952 0.5952 0.8035 -15.4822 39.4554)" class="st1" width="29.58" height="61.57"/>
				<path class="st2" d="M44.96,33.64c5.27-3.9,12.71-2.8,16.62,2.47c3.9,5.27,2.8,12.71-2.47,16.62
					c-5.27,3.9-12.71,2.79-16.62-2.48C38.58,44.98,39.69,37.55,44.96,33.64z"/>
				<path class="st2" d="M58.47,76.72l6.32-4.68c-2.59-3.49-7.51-4.22-11-1.64L58.47,76.72z"/>
				<g>
					<g>
						<path class="st3" d="M47.99,43.07c-0.68,0.6-0.54,1.54,0.4,2.81c0.95,1.28,1.77,1.67,2.45,1.17c0.42-0.31,0.57-0.74,0.45-1.29
							c-0.12-0.55-0.52-1.54-1.21-2.97c-0.68-1.42-0.96-2.64-0.84-3.64c0.13-1,0.64-1.84,1.54-2.5c1.05-0.78,2.21-0.91,3.47-0.39
							c1.26,0.51,2.34,1.38,3.24,2.59c2.17,2.92,2.28,5.42,0.34,7.48l-1.99-2.27c1.04-1.05,0.99-2.35-0.16-3.9
							c-1.08-1.45-2.11-1.81-3.09-1.08c-0.44,0.32-0.63,0.74-0.58,1.25c0.05,0.51,0.43,1.51,1.14,3c0.71,1.49,1.02,2.72,0.93,3.68
							c-0.1,0.97-0.53,1.73-1.31,2.31c-0.83,0.62-1.82,0.77-2.95,0.46c-1.13-0.32-2.22-1.18-3.27-2.6
							c-2.08-2.81-2.24-4.97-0.48-6.49L47.99,43.07z"/>
					</g>
					
						<rect x="44.36" y="46.24" transform="matrix(0.8044 -0.5941 0.5941 0.8044 -19.3907 36.458)" class="st3" width="2.61" height="2.87"/>
					
						<rect x="56.88" y="36.97" transform="matrix(0.8031 -0.5958 0.5958 0.8031 -11.4271 42.2297)" class="st3" width="2.61" height="2.87"/>
				</g>
				<path class="st2" d="M81.87,59.39l-4.68-6.32c-3.49,2.59-4.22,7.51-1.64,11L81.87,59.39z"/>
				<path class="st2" d="M45.22,9.92L38.9,14.6c2.59,3.49,7.51,4.22,11,1.64L45.22,9.92z"/>
				<path class="st2" d="M21.82,27.25l4.68,6.32c3.49-2.58,4.22-7.51,1.64-11L21.82,27.25z"/>
				<path class="st2" d="M62.18,56.88c1.19-0.88,2.87-0.63,3.75,0.56c0.88,1.19,0.63,2.87-0.56,3.75c-1.19,0.88-2.87,0.63-3.75-0.56
					C60.74,59.44,60.99,57.76,62.18,56.88z"/>
				<path class="st2" d="M38.7,25.18c1.19-0.88,2.87-0.63,3.75,0.56c0.88,1.19,0.63,2.87-0.56,3.75c-1.19,0.88-2.87,0.63-3.75-0.56
					C37.26,27.74,37.51,26.06,38.7,25.18z"/>
			</g>
			<g>
				<path class="st4" d="M55.86,70.65c0.93,0.55,2.12,0.25,2.67-0.68l22.65-38.04c0.55-0.93,0.25-2.12-0.68-2.67L55.73,14.51
					c-0.92-0.55-2.12-0.25-2.67,0.68L30.4,53.22c-0.55,0.93-0.25,2.12,0.68,2.68L55.86,70.65z"/>
				
					<rect x="25.25" y="34.35" transform="matrix(0.5116 -0.8592 0.8592 0.5116 -9.1837 61.3101)" class="st5" width="48.17" height="8.77"/>
			</g>
			<path class="st6" d="M83,85.19c0,1.4-1.13,2.53-2.53,2.53H22.96c-1.4,0-2.53-1.13-2.53-2.53V38.79c0-1.4,1.13-2.54,2.53-2.54
				h57.51c1.4,0,2.53,1.14,2.53,2.54V85.19z"/>
			<g>
				<path class="st7" d="M22.96,36.25c-1.4,0-2.53,1.14-2.53,2.54v46.41c0,1.4,1.13,2.53,2.53,2.53h28.76V36.25H22.96z"/>
			</g>
			<g>
				<path class="st8" d="M25.73,41.1h4.23c0.26,0,0.47,0.2,0.47,0.45c0,0.25-0.21,0.45-0.47,0.45h-4.23c-0.26,0-0.46-0.2-0.46-0.45
					C25.26,41.3,25.47,41.1,25.73,41.1z M32.78,41.1h4.23c0.26,0,0.46,0.2,0.46,0.45c0,0.25-0.21,0.45-0.46,0.45h-4.23
					c-0.26,0-0.47-0.2-0.47-0.45C32.31,41.3,32.52,41.1,32.78,41.1z M39.83,41.1h4.23c0.26,0,0.47,0.2,0.47,0.45
					c0,0.25-0.21,0.45-0.47,0.45h-4.23c-0.26,0-0.46-0.2-0.46-0.45C39.36,41.3,39.57,41.1,39.83,41.1z M46.88,41.1h4.23
					c0.26,0,0.46,0.2,0.46,0.45c0,0.25-0.21,0.45-0.46,0.45h-4.23c-0.26,0-0.46-0.2-0.46-0.45C46.41,41.3,46.62,41.1,46.88,41.1z
					 M53.93,41.1h4.23c0.26,0,0.47,0.2,0.47,0.45c0,0.25-0.21,0.45-0.47,0.45h-4.23c-0.26,0-0.47-0.2-0.47-0.45
					C53.46,41.3,53.67,41.1,53.93,41.1z M60.98,41.1h4.23c0.26,0,0.46,0.2,0.46,0.45c0,0.25-0.21,0.45-0.46,0.45h-4.23
					c-0.26,0-0.47-0.2-0.47-0.45C60.51,41.3,60.72,41.1,60.98,41.1z M68.02,41.1h4.23c0.26,0,0.47,0.2,0.47,0.45
					c0,0.25-0.21,0.45-0.47,0.45h-4.23c-0.26,0-0.46-0.2-0.46-0.45C67.56,41.3,67.77,41.1,68.02,41.1z M75.07,41.1h0.59
					c1.47,0,2.67,1.1,2.67,2.46v0.25c0,0.25-0.21,0.45-0.46,0.45c-0.26,0-0.47-0.2-0.47-0.45v-0.25c0-0.86-0.78-1.57-1.74-1.57
					h-0.59c-0.26,0-0.46-0.2-0.46-0.45C74.61,41.3,74.82,41.1,75.07,41.1z M77.87,46.07c0.26,0,0.46,0.2,0.46,0.45v4.06
					c0,0.25-0.21,0.45-0.46,0.45c-0.26,0-0.47-0.2-0.47-0.45v-4.06C77.41,46.27,77.62,46.07,77.87,46.07z M77.87,52.85
					c0.26,0,0.46,0.2,0.46,0.45v4.06c0,0.25-0.21,0.45-0.46,0.45c-0.26,0-0.47-0.2-0.47-0.45v-4.06
					C77.41,53.05,77.62,52.85,77.87,52.85z M77.87,59.62c0.26,0,0.46,0.2,0.46,0.45v4.07c0,0.25-0.21,0.45-0.46,0.45
					c-0.26,0-0.47-0.2-0.47-0.45v-4.07C77.41,59.82,77.62,59.62,77.87,59.62z M77.87,66.39c0.26,0,0.46,0.2,0.46,0.45v4.06
					c0,0.25-0.21,0.45-0.46,0.45c-0.26,0-0.47-0.2-0.47-0.45v-4.06C77.41,66.59,77.62,66.39,77.87,66.39z M77.87,73.17
					c0.26,0,0.46,0.2,0.46,0.45v4.06c0,0.25-0.21,0.45-0.46,0.45c-0.26,0-0.47-0.2-0.47-0.45v-4.06
					C77.41,73.37,77.62,73.17,77.87,73.17z M77.87,79.95c0.26,0,0.46,0.19,0.46,0.43v0.03c0,1.36-1.2,2.46-2.67,2.46h-0.85
					c-0.26,0-0.47-0.2-0.47-0.45c0-0.25,0.21-0.45,0.47-0.45h0.85c0.96,0,1.74-0.7,1.74-1.57C77.41,80.17,77.62,79.95,77.87,79.95z
					 M25.47,81.98c0.01,0,0.02,0,0.03,0l4.2,0c0.26,0,0.47,0.2,0.47,0.45c0,0.25-0.21,0.45-0.47,0.45h-4.11c-0.05,0-0.1,0-0.15,0
					c-0.26-0.01-0.45-0.23-0.43-0.48C25.02,82.16,25.23,81.98,25.47,81.98z M32.52,81.98h4.23c0.26,0,0.47,0.2,0.47,0.45
					c0,0.25-0.21,0.45-0.47,0.45h-4.23c-0.26,0-0.46-0.2-0.46-0.45C32.05,82.18,32.26,81.98,32.52,81.98z M39.57,81.98h4.23
					c0.26,0,0.47,0.2,0.47,0.45c0,0.25-0.21,0.45-0.47,0.45h-4.23c-0.26,0-0.46-0.2-0.46-0.45C39.11,82.18,39.31,81.98,39.57,81.98z
					 M46.62,81.98h4.23c0.26,0,0.47,0.2,0.47,0.45c0,0.25-0.21,0.45-0.47,0.45h-4.23c-0.26,0-0.46-0.2-0.46-0.45
					C46.16,82.18,46.36,81.98,46.62,81.98z M53.67,81.98h4.23c0.26,0,0.46,0.2,0.46,0.45c0,0.25-0.21,0.45-0.46,0.45h-4.23
					c-0.26,0-0.47-0.2-0.47-0.45C53.2,82.18,53.41,81.98,53.67,81.98z M60.72,81.98h4.23c0.26,0,0.47,0.2,0.47,0.45
					c0,0.25-0.21,0.45-0.47,0.45h-4.23c-0.26,0-0.47-0.2-0.47-0.45C60.25,82.18,60.46,81.98,60.72,81.98z M67.77,81.98H72
					c0.26,0,0.47,0.2,0.47,0.45c0,0.25-0.21,0.45-0.47,0.45h-4.23c-0.26,0-0.47-0.2-0.47-0.45C67.3,82.18,67.51,81.98,67.77,81.98z"
					/>
			</g>
			<g>
				<path class="st9" d="M87.45,70c0,1.09-0.89,1.98-1.98,1.98H60.06c-1.09,0-1.98-0.89-1.98-1.98V53.97c0-1.09,0.89-1.97,1.98-1.97
					h25.41c1.09,0,1.98,0.88,1.98,1.97V70z"/>
				<path class="st8" d="M71.84,61.99c0,2.12-1.72,3.84-3.84,3.84c-2.12,0-3.84-1.72-3.84-3.84c0-2.12,1.72-3.84,3.84-3.84
					C70.12,58.15,71.84,59.87,71.84,61.99z"/>
			</g>
		</g>
		<g>
			<g>
				<path class="st10" d="M35.34,78.02c-2.35,7.94-10.69,12.47-18.63,10.12C8.77,85.79,4.24,77.45,6.59,69.51
					c2.35-7.94,10.69-12.47,18.63-10.12C33.16,61.74,37.68,70.08,35.34,78.02z"/>
				<path class="st11" d="M32.74,77.25c-1.93,6.5-8.76,10.21-15.26,8.29c-6.5-1.92-10.21-8.76-8.29-15.26
					c1.92-6.5,8.76-10.21,15.26-8.29C30.95,63.92,34.66,70.75,32.74,77.25z"/>
				<g>
					<g>
						<path class="st12" d="M24.48,71.29c0.19-0.94-0.51-1.65-2.13-2.14c-1.62-0.49-2.57-0.3-2.83,0.57
							c-0.16,0.53-0.01,0.99,0.44,1.39c0.45,0.4,1.42,0.98,2.91,1.76c1.49,0.78,2.5,1.63,3.03,2.56c0.53,0.93,0.62,1.97,0.28,3.1
							c-0.4,1.33-1.3,2.18-2.7,2.54c-1.4,0.37-2.87,0.32-4.4-0.14c-3.7-1.11-5.38-3.16-5.05-6.15l3.14,0.67
							c-0.22,1.55,0.65,2.63,2.62,3.22c1.84,0.55,2.94,0.2,3.32-1.04c0.16-0.55,0.07-1.03-0.3-1.43c-0.36-0.41-1.32-1.02-2.87-1.83
							c-1.55-0.82-2.59-1.67-3.13-2.54c-0.53-0.88-0.65-1.81-0.36-2.8c0.32-1.06,1.06-1.81,2.22-2.26c1.16-0.45,2.64-0.41,4.43,0.13
							c3.56,1.07,5.07,2.8,4.53,5.21L24.48,71.29z"/>
					</g>
					
						<rect x="22.14" y="64.38" transform="matrix(0.2875 -0.9578 0.9578 0.2875 -46.3582 69.4884)" class="st12" width="2.77" height="3.05"/>
					
						<rect x="17.39" y="80.22" transform="matrix(0.2873 -0.9578 0.9578 0.2873 -64.9144 76.2391)" class="st12" width="2.77" height="3.05"/>
				</g>
			</g>
		</g>
	</g>
</g>
</svg>
