<?xml version="1.0" encoding="utf-8"?><!-- Uploaded to: SVG Repo, www.svgrepo.com, Generator: SVG Repo Mixer Tools -->
<svg width="800px" height="800px" viewBox="0 0 48 48" xmlns="http://www.w3.org/2000/svg"><title>70 Basic icons by Xicons.co</title><rect x="1.01" y="3" width="46" height="42" rx="3" ry="3" fill="#bd7255"/><path d="M45,12.75H39c-6.62,0-12,4.57-12,10.18v1.64c0,5.61,5.38,10.18,12,10.18h6a2,2,0,0,0,2-2v-18A2,2,0,0,0,45,12.75Z" fill="#84523c"/><circle cx="38.01" cy="23.75" r="3" fill="#f6c253"/><path d="M29,41H26a1,1,0,0,1,0-2h3A1,1,0,0,1,29,41Zm-9,0H17a1,1,0,0,1,0-2h3A1,1,0,0,1,20,41Zm-9,0H8a1,1,0,0,1,0-2h3A1,1,0,0,1,11,41ZM28.71,9h-3a1,1,0,0,1,0-2h3A1,1,0,0,1,28.71,9Zm-9,0h-3a1,1,0,0,1,0-2h3A1,1,0,0,1,19.71,9Zm-9,0h-3a1,1,0,0,1,0-2h3A1,1,0,1,1,10.71,9ZM38,41H35a1,1,0,0,1,0-2h3A1,1,0,0,1,38,41ZM37.71,9h-3a1,1,0,0,1,0-2h3A1,1,0,0,1,37.71,9Z" fill="#f6c253"/></svg>