<?xml version="1.0" encoding="utf-8"?>
<!-- Generator: Adobe Illustrator 26.1.0, SVG Export Plug-In . SVG Version: 6.00 Build 0)  -->
<svg version="1.1" id="Layer_1" xmlns="http://www.w3.org/2000/svg" xmlns:xlink="http://www.w3.org/1999/xlink" x="0px" y="0px"
	 viewBox="0 0 100 100" style="enable-background:new 0 0 100 100;" xml:space="preserve">
<style type="text/css">
	.st0{fill:#D3722A;}
	.st1{fill:#59A57C;}
	.st2{fill:#7ED4A7;}
	.st3{opacity:0.43;fill:#FFFFFF;}
	.st4{fill:#F2994F;}
	.st5{fill:#FFFFFF;}
	.st6{fill:#FDCE5E;}
	.st7{fill:#EFB745;}
</style>
<g>
	<path class="st0" d="M77.3,26.6H16.1c-5.5,0-9.9,4.5-9.9,9.9v42.8c0,5.5,4.5,9.9,9.9,9.9h61.2c5.5,0,9.9-4.5,9.9-9.9V36.6
		C87.3,31.1,82.8,26.6,77.3,26.6z"/>
	<g>
		<rect x="10.4" y="13" transform="matrix(0.9698 -0.244 0.244 0.9698 -6.5429 12.0846)" class="st1" width="70.3" height="38.9"/>
		
			<rect x="30.6" y="1.8" transform="matrix(0.244 0.9698 -0.9698 0.244 65.8878 -19.6019)" class="st2" width="29.9" height="61.2"/>
		<path class="st1" d="M71.6,10.5l2,8.1c-0.1,0-0.1,0-0.2,0.1c-4.4,1.1-8.9-1.6-10-6c0,0,0-0.1,0-0.1L71.6,10.5z"/>
		<path class="st1" d="M76.6,30.7l2.2,8.8l-8.2,2.1c-0.1-0.2-0.2-0.5-0.2-0.7c-1.1-4.4,1.6-8.9,6-10C76.5,30.7,76.6,30.7,76.6,30.7z
			"/>
		<path class="st1" d="M27.3,51.6c0.1,0.3,0.1,0.5,0.2,0.8l-8,2l-2.2-8.8C21.7,44.5,26.2,47.2,27.3,51.6z"/>
		<path class="st1" d="M20.2,23.4c0,0,0,0.1,0,0.1c1.1,4.4-1.6,8.9-6,10l-2-8.1L20.2,23.4z"/>
		<path class="st1" d="M71.6,10.5l2,8.1c-0.1,0-0.1,0-0.2,0.1c-4.4,1.1-8.9-1.6-10-6c0,0,0-0.1,0-0.1L71.6,10.5z"/>
		<path class="st1" d="M76.4,30.7c0.1,0,0.1,0,0.2,0l2.2,8.8l-8.2,2.1c-0.1-0.2-0.2-0.5-0.2-0.7C69.3,36.4,72,31.9,76.4,30.7z"/>
		
			<ellipse transform="matrix(0.5184 -0.8551 0.8551 0.5184 -6.6737 54.5292)" class="st3" cx="45.1" cy="33.2" rx="12.4" ry="12.4"/>
		<path class="st1" d="M30.5,36.9c-0.6-2.4-3.1-3.9-5.5-3.3c-2.4,0.6-3.9,3.1-3.3,5.5c0.6,2.4,3.1,3.9,5.5,3.3
			C29.6,41.7,31.1,39.3,30.5,36.9z"/>
		<path class="st1" d="M68.1,27.4c-0.6-2.4-3.1-3.9-5.5-3.3c-2.4,0.6-3.9,3.1-3.3,5.5s3.1,3.9,5.5,3.3S68.8,29.8,68.1,27.4z"/>
	</g>
	<path class="st4" d="M77.3,32.3H16.1c-5.5,0-9.9,4.5-9.9,9.9v42.8c0,5.5,4.5,9.9,9.9,9.9h61.2c5.5,0,9.9-4.5,9.9-9.9V42.3
		C87.3,36.8,82.8,32.3,77.3,32.3z"/>
	<path class="st5" d="M77.3,89.4h-1.6v-0.7h1.6c0.3,0,0.6,0,0.9-0.1l0.2,0.7C78,89.4,77.7,89.4,77.3,89.4z M73.1,89.4h-2.6v-0.7h2.6
		V89.4z M67.9,89.4h-2.6v-0.7h2.6V89.4z M62.8,89.4h-2.6v-0.7h2.6V89.4z M57.6,89.4H55v-0.7h2.6V89.4z M52.4,89.4h-2.6v-0.7h2.6
		V89.4z M47.2,89.4h-2.6v-0.7h2.6V89.4z M42,89.4h-2.6v-0.7H42V89.4z M36.9,89.4h-2.6v-0.7h2.6V89.4z M31.7,89.4h-2.6v-0.7h2.6V89.4
		z M26.5,89.4h-2.6v-0.7h2.6V89.4z M21.3,89.4h-2.6v-0.7h2.6V89.4z M16.1,89.4L16.1,89.4c-1,0-1.9-0.3-2.6-0.9l0.4-0.6
		c0.6,0.5,1.4,0.7,2.2,0.7h0V89.4z M80.7,87.8l-0.6-0.5c0.5-0.6,0.8-1.4,0.8-2.2l0.7,0C81.7,86.1,81.3,87,80.7,87.8z M11.9,86.3
		c-0.1-0.4-0.2-0.8-0.2-1.2v-1.5h0.7v1.5c0,0.3,0,0.7,0.1,1L11.9,86.3z M81.7,82.6H81V80h0.7V82.6z M12.5,81h-0.7v-2.6h0.7V81z
		 M81.7,77.4H81v-2.6h0.7V77.4z M12.5,75.8h-0.7v-2.6h0.7V75.8z M81.7,72.2H81v-2.6h0.7V72.2z M12.5,70.6h-0.7V68h0.7V70.6z
		 M81.7,67H81v-2.6h0.7V67z M12.5,65.4h-0.7v-2.6h0.7V65.4z M81.7,61.9H81v-2.6h0.7V61.9z M12.5,60.3h-0.7v-2.6h0.7V60.3z
		 M81.7,56.7H81v-2.6h0.7V56.7z M12.5,55.1h-0.7v-2.6h0.7V55.1z M81.7,51.5H81v-2.6h0.7V51.5z M12.5,49.9h-0.7v-2.6h0.7V49.9z
		 M81.7,46.3H81v-2.6h0.7V46.3z M12.5,44.7h-0.7v-2.5c0-0.1,0-0.1,0-0.2l0.7,0c0,0,0,0.1,0,0.1V44.7z M80.8,41.3
		c-0.2-0.8-0.7-1.4-1.3-1.9l0.4-0.6c0.8,0.6,1.3,1.4,1.6,2.3L80.8,41.3z M13.3,40l-0.6-0.5c0.6-0.7,1.4-1.3,2.3-1.5l0.2,0.7
		C14.5,38.9,13.8,39.4,13.3,40z M77.3,38.6h-2.6v-0.7h2.6V38.6z M72.1,38.6h-2.6v-0.7h2.6V38.6z M66.9,38.6h-2.6v-0.7h2.6V38.6z
		 M61.8,38.6h-2.6v-0.7h2.6V38.6z M56.6,38.6H54v-0.7h2.6V38.6z M51.4,38.6h-2.6v-0.7h2.6V38.6z M46.2,38.6h-2.6v-0.7h2.6V38.6z
		 M41,38.6h-2.6v-0.7H41V38.6z M35.9,38.6h-2.6v-0.7h2.6V38.6z M30.7,38.6h-2.6v-0.7h2.6V38.6z M25.5,38.6h-2.6v-0.7h2.6V38.6z
		 M20.3,38.6h-2.6v-0.7h2.6V38.6z"/>
	<path class="st0" d="M86.9,53.6H63.7c-3.9,0-7,3.1-7,7v6.3c0,3.9,3.1,7,7,7h23.2c3.9,0,7-3.1,7-7v-6.3
		C93.8,56.7,90.7,53.6,86.9,53.6z"/>
	<circle class="st6" cx="66.6" cy="63.7" r="5.7"/>
	<circle class="st7" cx="66.6" cy="63.7" r="2.4"/>
</g>
</svg>
