<?xml version="1.0" encoding="iso-8859-1"?>
<!-- Uploaded to: SVG Repo, www.svgrepo.com, Generator: SVG Repo Mixer Tools -->
<svg height="800px" width="800px" version="1.1" id="Layer_1" xmlns="http://www.w3.org/2000/svg" xmlns:xlink="http://www.w3.org/1999/xlink" 
	 viewBox="0 0 505 505" xml:space="preserve">
<circle style="fill:#324A5E;" cx="252.5" cy="252.5" r="252.5"/>
<circle style="fill:#FFD05B;" cx="199.1" cy="213.2" r="68.2"/>
<circle style="fill:#F9B54C;" cx="199.1" cy="213.2" r="49.7"/>
<circle style="fill:#FFD05B;" cx="328.5" cy="155.6" r="61.3"/>
<circle style="fill:#F9B54C;" cx="328.5" cy="155.6" r="44.7"/>
<path style="fill:#4CDBC4;" d="M371.8,188.7H121c-10.8,0-19.6,8.8-19.6,19.6V391c0,10.8,8.8,19.6,19.6,19.6h250.9
	c10.8,0,19.6-8.8,19.6-19.6V208.3C391.4,197.5,382.6,188.7,371.8,188.7z"/>
<path style="fill:#2C9984;" d="M285.2,332.9h116.3c1.2,0,2.1-0.9,2.1-2.1v-62.2c0-1.2-0.9-2.1-2.1-2.1H285.2c-1.2,0-2.1,0.9-2.1,2.1
	v62.2C283.1,331.9,284,332.9,285.2,332.9z"/>
<circle style="fill:#324A5E;" cx="317.1" cy="299.7" r="15.9"/>
</svg>