<?xml version="1.0" ?>
<!-- Uploaded to: SVG Repo, www.svgrepo.com, Generator: SVG Repo Mixer Tools -->
<svg width="800px" height="800px" viewBox="0 0 48 48" xmlns="http://www.w3.org/2000/svg">
<defs>
<style>.cls-1{fill:#fa5c66;}.cls-2{fill:#e93d5b;}.cls-3{fill:#face53;}.cls-4{fill:#fabb53;}</style>
</defs>
<title/>
<g id="Winner">
<path class="cls-1" d="M35.576,11.543,31,17H18.938l-4.55-5.472A2,2,0,0,1,14,10.345V0H36V10.311A2,2,0,0,1,35.576,11.543Z"/>
<rect class="cls-2" height="17" width="10" x="20"/>
<path class="cls-3" d="M31.062,21H19a3,3,0,0,1,0-6H31a2.916,2.916,0,0,1,3,3A2.882,2.882,0,0,1,31.062,21ZM19.008,17a1,1,0,1,0,0,2h12.05A.885.885,0,0,0,32,18a.919.919,0,0,0-1.012-1Z"/>
<path class="cls-3" d="M25.5,19c-.169,0-.333.02-.5.025S24.669,19,24.5,19a14.5,14.5,0,0,0,0,29c.169,0,.333-.02.5-.025s.331.025.5.025a14.5,14.5,0,0,0,0-29Z"/>
<circle class="cls-4" cx="24.5" cy="33.5" r="12.5"/>
<circle class="cls-3" cx="24.5" cy="33.5" r="10.5"/>
<path class="cls-4" d="M25,41a1,1,0,0,1-1-1V29.441l-2.288,2.323a1,1,0,1,1-1.424-1.4l4-4.063A1,1,0,0,1,26,27V40A1,1,0,0,1,25,41Z"/>
</g>
</svg>