<?xml version="1.0" ?>
<!-- Uploaded to: SVG Repo, www.svgrepo.com, Generator: SVG Repo Mixer Tools -->
<svg width="800px" height="800px" viewBox="0 0 64 64" enable-background="new 0 0 64 64" id="Layer_1" version="1.1" xml:space="preserve" xmlns="http://www.w3.org/2000/svg" xmlns:xlink="http://www.w3.org/1999/xlink">
<g>
<g>
<circle cx="32" cy="32" fill="#ED80A7" r="30"/>
</g>
<g>
<g>
<rect fill="#54321F" height="41.7" width="23.4" x="20.4" y="10.2"/>
</g>
<g opacity="0.25">
<polygon fill="#E8E7E7" points="20.4,10.2 43.8,46.7 43.8,10.2    "/>
</g>
<g>
<path d="M46.2,52.4V48c0-0.8-0.4-1.4-0.9-1.4h-5.2H23.8h-5.1c-0.5,0-0.9,0.6-0.9,1.4v4.4H46.2z" fill="#54321F"/>
</g>
<g>
<path d="M21.2,17.5c0-0.1,0.1-0.2,0.2-0.2l0,0c0.1,0,0.2,0.1,0.2,0.2v3.9c0,0.1-0.1,0.2-0.2,0.2l0,0     c-0.1,0-0.2-0.1-0.2-0.2V17.5z" fill="#A88771"/>
</g>
<g>
<path d="M21.2,22.3c0-0.1,0.1-0.1,0.2-0.1l0,0c0.1,0,0.2,0,0.2,0.1v1.9c0,0.1-0.1,0.1-0.2,0.1l0,0     c-0.1,0-0.2,0-0.2-0.1V22.3z" fill="#A88771"/>
</g>
<g>
<g opacity="0.7">
<path d="M41.9,38h-1.2v-3.6c0.1-3-1-3.9-1.5-3.9h-3.9v-1.2h3.9c0.1,0,0.8,0,1.5,0.7c0.9,0.8,1.3,2.3,1.2,4.4V38z      " fill="#7D7D7C"/>
</g>
</g>
<g>
<path d="M32.7,26.2c0,0.1-0.1,0.3-0.3,0.3h-0.9c-0.1,0-0.3-0.1-0.3-0.3v-1c0-0.1,0.1-0.3,0.3-0.3h0.9     c0.1,0,0.3,0.1,0.3,0.3V26.2z" fill="#341A0F"/>
</g>
<g>
<g>
<path d="M32.1,40.3c-3.9,0-7.1-0.2-7.5-0.4c0,0.3-0.1,0.7-0.1,1c0,4,3.2,4.5,7.4,4.5c4.2,0,7.8-0.5,7.8-4.5      c0-0.3,0-0.6-0.1-1C39.2,40.2,36,40.3,32.1,40.3z" fill="#2F1910"/>
</g>
<g>
<path d="M39.6,40C39.6,40,39.7,40,39.6,40c0.1-0.1,0-0.1,0-0.1c-0.5-0.3-3.7-0.5-7.5-0.5c-3.8,0-7,0.2-7.5,0.5      c0,0-0.1,0-0.1,0.1c0,0,0,0,0.1,0.1c0.4,0.3,3.6,0.5,7.5,0.5C36,40.5,39.1,40.3,39.6,40z" fill="#442718"/>
</g>
</g>
<g>
<g>
<path d="M36.6,30.8c-0.5-0.5-0.4-0.8-0.4-0.8c1-1.6,0.5-2.9,0.3-3.3c0,0-0.1,0.1-0.1,0.1H28      c-0.1,0-0.1-0.1-0.2-0.1c-0.9,0.1-1.4,0.4-1.4,0.4s1,1.1,1.3,2.2l0,0c0,0,0,0,0,0c0.1,0.5,0.1,1-0.4,1.4      c-2.3,3.1-3.7,7.8-3.7,10.7c0,4.5,3.5,5.1,8.2,5.1c4.7,0,8.7-0.6,8.7-5.1C40.6,38.5,39,33.9,36.6,30.8z" fill="#E5E3E3"/>
</g>
<g>
<path d="M28,26.7h8.3c0.1,0,0.1,0,0.1-0.1c0,0,0-0.1,0-0.1c0-0.1-0.1-0.2-0.2-0.2H28c-0.1,0-0.2,0.1-0.2,0.2      c0,0,0,0,0,0C27.9,26.7,27.9,26.7,28,26.7z" fill="#2F1910"/>
</g>
</g>
<g>
<rect fill="#542C1E" height="1.3" width="9.4" x="27.4" y="29.2"/>
</g>
<g>
<g>
<rect fill="#442718" height="0.7" width="5" x="32.2" y="42.9"/>
</g>
<g>
<rect fill="#442718" height="0.7" width="5" x="32.2" y="38.6"/>
</g>
<g>
<rect fill="#442718" height="0.7" width="2.5" x="34.7" y="41.8"/>
</g>
<g>
<rect fill="#442718" height="0.7" width="2.5" x="34.7" y="40.8"/>
</g>
<g>
<rect fill="#442718" height="0.7" width="2.5" x="34.7" y="39.7"/>
</g>
<g>
<rect fill="#442718" height="0.7" width="5" x="32.2" y="34.3"/>
</g>
<g>
<rect fill="#442718" height="0.7" width="2.5" x="34.7" y="37.5"/>
</g>
<g>
<rect fill="#442718" height="0.7" width="2.5" x="34.7" y="36.5"/>
</g>
<g>
<rect fill="#442718" height="0.7" width="2.5" x="34.7" y="35.4"/>
</g>
</g>
<g opacity="0.7">
<path d="M39.6,44.4c0.6-0.7,1-1.7,1-3c0-2.8-1.6-7.5-4-10.5c-0.1-0.1-0.1-0.2-0.2-0.2h-8.9L39.6,44.4z" fill="#D8D8D7"/>
</g>
<g>
<path d="M39.7,10.2h-4h-7h-4c-0.1,0.1-0.2,0.3-0.4,0.4h4.3h7H40C39.9,10.5,39.8,10.3,39.7,10.2z" fill="#B9B9BA"/>
</g>
<g opacity="0.25">
<path d="M45.4,46.7h-5.2H23.8h-4.3l4.3,5.8h22.5V48C46.2,47.3,45.8,46.7,45.4,46.7z" fill="#E8E7E7"/>
</g>
<g>
<ellipse cx="32.7" cy="49.3" fill="#A88771" rx="2" ry="1.1"/>
</g>
<g>
<rect fill="#2F1910" height="1.3" width="12.6" x="25.7" y="45.4"/>
</g>
<g>
<g>
<path d="M35.7,10.2h4c-0.9-1-2.3-1.5-4-1.7c-1-0.1-2-0.2-3.2-0.2v1.9H35.7z" fill="#54321F"/>
</g>
<g>
<path d="M40.6,13.1c0-1-0.2-1.8-0.6-2.4h-4.4h-3.2V26h3.2h0.2c0.2,0,0.4,0,0.5-0.1c0.3-0.1,0.4-0.4,0.4-0.6v-2.1      c0,0,0,0,0,0C39.1,20.2,40.6,15.7,40.6,13.1z" fill="#54321F"/>
</g>
<g>
<path d="M28.6,8.5c-1.7,0.2-3.1,0.7-4,1.7h4h3.8V8.3c0,0,0,0-0.1,0C31.1,8.3,29.8,8.4,28.6,8.5z" fill="#321B10"/>
</g>
<g>
<path d="M28.6,10.7h-4.3c-0.4,0.6-0.6,1.4-0.6,2.4c0,2.6,1.4,6.8,3.7,9.7c0.1,0.1,0.1,0.3,0.1,0.4v2.1      c0,0.3,0.2,0.5,0.5,0.7c0.1,0.1,0.3,0.1,0.5,0.1h0.2h3.8V10.7H28.6z" fill="#321B10"/>
</g>
</g>
</g>
</g>
</svg>