<?xml version="1.0" encoding="utf-8"?><!-- Uploaded to: SVG Repo, www.svgrepo.com, Generator: SVG Repo Mixer Tools -->
<svg width="800px" height="800px" viewBox="0 0 100 100" xmlns="http://www.w3.org/2000/svg"><path fill="#EDEDED" d="M49.986 0c-27.614 0-50 22.386-50 50s22.386 50 50 50 50-22.386 50-50-22.385-50-50-50z"/><path fill="#EFC75E" d="M19.985 35l30.001-14.986 30.001 14.986-.017 1.981-29.984 15.004-29.989-14.98-.012-2.005z"/><path fill="#E7BF55" d="M19.986 35l29.977 14.999 30.023-14.999v30l-30.109 15-29.891-15v-30z"/><path fill="#DBB551" d="M49.986 79.945v-29.958l-.023.012-29.977-14.999v30l29.891 15z"/><path fill="#F1D999" d="M61.99 43.991v8.792l2.678.216 1.707-2.033 1.607.253v-10.222z"/><path fill="#F7E3AF" d="M31.967 29.015l30.51 15.279 5.502-3.26-30-15.023z"/><path fill="#F2F2F2" d="M43.979 63.122l-9.984-5.01c-.551-.277-.998.06-.998.751v6.261c0 .692.447 1.478.998 1.754l9.984 5.01c.551.276.998-.061.998-.752v-6.261c0-.691-.448-1.477-.998-1.753zm-2.497 5.009l-5.99-3.007c-.275-.138-.499-.53-.499-.876s.224-.514.499-.376l5.99 3.006c.275.139.499.531.499.877s-.223.514-.499.376zm.998-2.004l-6.988-3.507c-.275-.139-.499-.531-.499-.877s.224-.514.499-.376l6.988 3.508c.276.138.499.531.499.876 0 .346-.222.515-.499.376z"/></svg>