<?xml version="1.0" encoding="utf-8"?><!-- Uploaded to: SVG Repo, www.svgrepo.com, Generator: SVG Repo Mixer Tools -->
<svg width="800px" height="800px" viewBox="0 0 100 100" xmlns="http://www.w3.org/2000/svg"><circle fill="#324D5B" cx="50" cy="50" r="50"/><path fill="#EFC75E" d="M73.512 42.903c-5.434-11.118-16.541-14.892-23.498-14.892-6.959 0-18.091 3.773-23.524 14.89-5.435 11.119-1.058 21.428 4.245 28.301 5.301 6.872 5.863 9.905 6.195 11.59.331 1.685-.731 4.312 1.294 6.131 2.026 1.82 11.79 2.09 11.79 2.09s9.734-.27 11.759-2.09c2.026-1.818.948-4.447 1.28-6.131.331-1.685.885-4.718 6.188-11.59s9.704-17.181 4.271-28.299z"/><path fill="#DDB857" d="M58.794 51.089c-.286-.053-.579-.09-.88-.09l-.091.01-.823.084c-2.299.438-4.04 2.482-4.04 4.949v2.965h-7.927v-2.965c0-2.465-1.738-4.509-4.033-4.949l-.83-.084-.09-.01c-.305 0-.598.037-.887.09-2.375.389-4.193 2.433-4.193 4.918 0 2.762 2.238 5 5 5h3v29.992h2v-29.992h8v29.992h2v-29.992h3c2.762 0 5-2.238 5-5 0-2.488-1.824-4.536-4.206-4.918zm-21.794 4.918c0-1.626 1.297-2.942 2.912-2.99h.168c1.642 0 2.973 2.258 2.973 5.043l.01.947h-3.063c-1.656 0-3-1.344-3-3zm21 3h-3.068l.01-.947c0-2.785 1.33-5.043 2.973-5.043h.174c1.614.047 2.911 1.365 2.911 2.99 0 1.656-1.343 3-3 3z"/><path fill="#5A6F7A" d="M50 7.999c-1.104 0-2 .896-2 2v8c0 1.104.896 2 2 2s2-.896 2-2v-8c0-1.104-.896-2-2-2zm17.774 4.139c-1.012-.408-2.171.061-2.59 1.049l-3.032 7.147c-.419.987.062 2.118 1.073 2.526s2.171-.061 2.59-1.048l3.032-7.147c.42-.986-.061-2.118-1.073-2.527zm-32.959 1.049c-.419-.988-1.578-1.457-2.59-1.049-1.012.409-1.492 1.541-1.073 2.527l3.032 7.147c.419.987 1.578 1.456 2.59 1.048s1.492-1.539 1.073-2.526l-3.032-7.147zm46.624 9.343c-.728-.728-1.908-.728-2.636 0l-5.272 5.272c-.729.728-.729 1.908 0 2.637.729.728 1.908.728 2.637 0l5.271-5.272c.729-.729.729-1.908 0-2.637zm-60.243 0c-.728-.728-1.908-.728-2.636 0-.729.729-.729 1.908 0 2.637l5.271 5.272c.729.728 1.909.728 2.637 0 .729-.729.729-1.909 0-2.637l-5.272-5.272z"/><path fill="#D7B354" d="M41.224 88.923c-2.025-1.818-.963-4.446-1.294-6.131-.332-1.685-.895-4.718-6.195-11.59-5.303-6.873-9.68-17.182-4.245-28.301 5.059-10.349 15.053-14.33 22.024-14.83-.517-.037-1.02-.06-1.5-.06-6.959 0-18.091 3.773-23.524 14.89-5.435 11.119-1.058 21.428 4.245 28.301 5.301 6.872 5.863 9.905 6.195 11.59.331 1.685-.731 4.312 1.294 6.131 2.026 1.82 11.79 2.09 11.79 2.09s.586-.017 1.498-.067c-2.819-.159-8.758-.649-10.288-2.023z"/><path fill="#ffffff" d="M59.794 51.089c-.286-.053-.579-.09-.88-.09l-.091.01-.823.084c-2.299.438-4.04 2.482-4.04 4.949v2.965h-7.927v-2.965c0-2.465-1.738-4.509-4.033-4.949l-.83-.084-.09-.01c-.305 0-.598.037-.887.09-2.375.389-4.193 2.433-4.193 4.918 0 2.762 2.238 5 5 5h3v29.992h2v-29.992h8v29.992h2v-29.992h3c2.762 0 5-2.238 5-5 0-2.488-1.824-4.536-4.206-4.918zm-21.794 4.918c0-1.626 1.297-2.942 2.912-2.99h.168c1.642 0 2.973 2.258 2.973 5.043l.01.947h-3.063c-1.656 0-3-1.344-3-3zm21 3h-3.068l.01-.947c0-2.785 1.33-5.043 2.973-5.043h.174c1.614.047 2.911 1.365 2.911 2.99 0 1.656-1.343 3-3 3z"/><path fill="#EFEFEF" d="M61.772 87.922c-2.024 1.821-11.759 2.091-11.759 2.091s-9.764-.27-11.79-2.091c-.644-.577-.974-1.237-1.138-1.923h-.085v12.282c4.146 1.114 8.502 1.718 13 1.718s8.854-.604 13-1.718v-12.282h-.093c-.162.686-.491 1.346-1.135 1.923z"/></svg>