<?xml version="1.0" ?>
<!-- Uploaded to: SVG Repo, www.svgrepo.com, Generator: SVG Repo Mixer Tools -->
<svg width="800px" height="800px" viewBox="0 0 48 48" xmlns="http://www.w3.org/2000/svg">
<defs>
<style>.cls-1{fill:#b06550;}.cls-2{fill:#c8785c;}.cls-3{fill:#ecf0f1;}.cls-4{fill:#4c5665;}</style>
</defs>
<title/>
<g data-name="Business case" id="Business_case">
<path class="cls-1" d="M2,21H46a0,0,0,0,1,0,0V45a2,2,0,0,1-2,2H4a2,2,0,0,1-2-2V21A0,0,0,0,1,2,21Z"/>
<path class="cls-2" d="M48,25c-7,8-39,8-48,0V11H48Z"/>
<path class="cls-2" d="M48,25c-7,8-39,8-48,0V11H48Z"/>
<rect class="cls-3" height="6" rx="1" ry="1" width="8" x="20" y="28"/>
<path class="cls-4" d="M13.936,8.068l-4-.118A6.958,6.958,0,0,1,17.062,1h14a6.8,6.8,0,0,1,7,7h-4a2.824,2.824,0,0,0-3-3h-14A2.971,2.971,0,0,0,13.936,8.068Z"/>
<path class="cls-2" d="M47,8v3H0V9A1,1,0,0,1,1,8Z"/>
<path class="cls-2" d="M47,8h0a1,1,0,0,1,1,1v2a0,0,0,0,1,0,0H46a0,0,0,0,1,0,0V9A1,1,0,0,1,47,8Z"/>
<rect class="cls-1" height="7" rx="1" ry="1" width="18" x="15" y="15"/>
</g>
</svg>