<?xml version="1.0" ?>
<!-- Uploaded to: SVG Repo, www.svgrepo.com, Generator: SVG Repo Mixer Tools -->
<svg width="800px" height="800px" viewBox="0 0 64 64" enable-background="new 0 0 64 64" id="Layer_1" version="1.1" xml:space="preserve" xmlns="http://www.w3.org/2000/svg" xmlns:xlink="http://www.w3.org/1999/xlink">
<g>
<g>
<circle cx="32" cy="32" fill="#5BC4C5" r="30"/>
</g>
<g>
<g>
<path d="M48.5,21.6H17.3c-0.1,0.9-0.1,1.8-0.1,2.7c0,0.3,0,0.7,0,1c-1.1-0.3-2.5-0.4-3.8,0.3     c-1.3,0.7-2.1,2-2.3,4l0,0.1c0,0.1,0,3.6,2.5,6.1c1.7,1.7,4.1,2.5,7.1,2.5c0.2,0,0.4,0,0.5,0c1.4,2,3.1,3.6,5,4.8V45h13.3V43     c5.4-3.3,9.1-10.5,9.1-18.8C48.7,23.4,48.6,22.4,48.5,21.6z M15.3,34.2c-1.8-1.7-1.9-4.1-1.9-4.5c0.1-1.1,0.5-1.9,1.1-2.2     c0.8-0.5,2.1-0.2,2.9,0.1c0.4,3.1,1.3,5.9,2.6,8.4C18,35.9,16.4,35.3,15.3,34.2z" fill="#F9F9F9"/>
</g>
<g>
<path d="M19.4,21.6c-0.1,0.8-0.1,1.6-0.1,2.4c0,10.1,6.1,18.4,13.7,18.4c7.6,0,13.7-8.2,13.7-18.4     c0-0.8,0-1.6-0.1-2.4H19.4z" fill="#DBD9D8"/>
</g>
<g>
<path d="M16.5,46.3c0-0.7,0.6-1.3,1.3-1.3h30.3c0.7,0,1.3,0.6,1.3,1.3l0,0c0,0.7-0.6,1.3-1.3,1.3H17.8     C17.1,47.6,16.5,47,16.5,46.3L16.5,46.3z" fill="#F9F9F9"/>
</g>
<g>
<path d="M17.8,47.6h30.3c0.7,0,1.3-0.6,1.3-1.3H16.5C16.5,47,17.1,47.6,17.8,47.6z" fill="#C6C5C5"/>
</g>
<g>
<path d="M19.4,26.4c0.9,9,6.6,15.9,13.5,15.9c6.9,0,12.7-6.9,13.5-15.9H19.4z" fill="#54321F"/>
</g>
<g opacity="0.25">
<path d="M48.6,24.3c0-0.9-0.1-1.8-0.1-2.7H26.3L39.5,43C44.9,39.7,48.6,32.6,48.6,24.3z" fill="#E8E7E7"/>
</g>
<g>
<polygon fill="#D8D8D7" points="26.3,43 39.5,43 26.3,45    "/>
</g>
</g>
</g>
</svg>