<?xml version="1.0" ?>
<!-- Uploaded to: SVG Repo, www.svgrepo.com, Generator: SVG Repo Mixer Tools -->
<svg width="800px" height="800px" viewBox="0 0 64 64" enable-background="new 0 0 64 64" id="Layer_1" version="1.1" xml:space="preserve" xmlns="http://www.w3.org/2000/svg" xmlns:xlink="http://www.w3.org/1999/xlink">
<g>
<g>
<circle cx="32" cy="32" fill="#ED80A7" r="30"/>
</g>
<g>
<g>
<path d="M48,22.3h-29c-0.1,0.8-0.1,1.7-0.1,2.5c0,0.3,0,0.6,0,0.9c-1-0.2-2.3-0.4-3.5,0.3     c-1.2,0.6-1.9,1.9-2.1,3.7l0,0.1c0,0.1,0,3.3,2.4,5.7c1.6,1.5,3.8,2.3,6.6,2.3c0.2,0,0.3,0,0.5,0c1.3,1.9,2.9,3.4,4.6,4.4v1.8     h12.4v-1.8c5-3.1,8.5-9.7,8.5-17.4C48.1,24,48,23.1,48,22.3z M17,34.1c-1.6-1.6-1.8-3.8-1.8-4.2c0.1-1.1,0.5-1.8,1-2.1     c0.8-0.4,2-0.2,2.7,0.1c0.4,2.9,1.2,5.5,2.4,7.8C19.5,35.7,18.1,35.1,17,34.1z" fill="#7C5039"/>
</g>
<g>
<path d="M18.1,45.3c0-0.7,0.5-1.2,1.2-1.2h28.2c0.7,0,1.2,0.5,1.2,1.2l0,0c0,0.7-0.5,1.2-1.2,1.2H19.4     C18.7,46.5,18.1,46,18.1,45.3L18.1,45.3z" fill="#F9F9F9"/>
</g>
<g opacity="0.25">
<path d="M48,24.8c0-0.9,0-1.7-0.1-2.5h-29l20.7,20C44.6,39.2,48,32.6,48,24.8z" fill="#E8E7E7"/>
</g>
<g>
<polygon fill="#5B3625" points="27.3,42.3 39.6,42.3 27.3,44.1    "/>
</g>
<g>
<path d="M19.4,46.5h28.2c0.7,0,1.2-0.5,1.2-1.2H18.1C18.1,46,18.7,46.5,19.4,46.5z" fill="#C6C5C5"/>
</g>
<g>
<path d="M18.9,22.3c0,0,0.5-2.3,5-2c0,0,3.5,1.3,6.8,0.1c3.3-1.2,6.5-1.8,8.9-0.5c0,0,2.4,0.7,3.9-0.2     c1.5-0.9,1.6-2,1.6-2s0,1.8,1,2.7c1,0.9,1.5,0.5,1.8,2H18.9z" fill="#FFFFFF"/>
</g>
</g>
</g>
</svg>