<?xml version="1.0" ?>
<!-- Uploaded to: SVG Repo, www.svgrepo.com, Generator: SVG Repo Mixer Tools -->
<svg width="800px" height="800px" viewBox="0 0 48 48" xmlns="http://www.w3.org/2000/svg">
<defs>
<style>.cls-1{fill:#ecf0f1;}.cls-2{fill:#bec3c7;}.cls-3{fill:#768599;}.cls-4{fill:#4ee7ed;}</style>
</defs>
<title/>
<g id="Camera">
<rect class="cls-1" height="34" rx="3" ry="3" width="48" y="8"/>
<path class="cls-1" d="M48,37v4a3,3,0,0,1-3,3H3a3,3,0,0,1-3-3V37a3,3,0,0,0,3,3H45A3,3,0,0,0,48,37Z"/>
<rect class="cls-2" height="6" rx="2" ry="2" width="12" x="33" y="10"/>
<path class="cls-3" d="M6,6H8a2,2,0,0,1,2,2V8a0,0,0,0,1,0,0H4A0,0,0,0,1,4,8V8A2,2,0,0,1,6,6Z"/>
<circle class="cls-3" cx="24" cy="27" r="12"/>
<circle class="cls-4" cx="24" cy="27" r="8"/>
<circle class="cls-3" cx="9" cy="13" r="2"/>
<path class="cls-2" d="M7,19H0V35H7a2,2,0,0,0,2-2V21A2,2,0,0,0,7,19Z"/>
<path class="cls-2" d="M41,35h7V19H41a2,2,0,0,0-2,2V33A2,2,0,0,0,41,35Z"/>
</g>
</svg>