<?xml version="1.0" encoding="utf-8"?>
<!-- Uploaded to: SVG Repo, www.svgrepo.com, Generator: SVG Repo Mixer Tools -->
<svg width="800px" height="800px" viewBox="0 0 100 100" xmlns="http://www.w3.org/2000/svg">
<path fill="#4681A0" d="M50 0c-27.614 0-50 22.386-50 50 0 27.615 22.386 50 50 50 27.613 0 50-22.385 50-50 0-27.614-22.387-50-50-50z"/>
<path fill="#70A0BA" d="M71 20.999c1.104 0 2 .896 2 2v54c0 1.104-.896 2-2 2s-2-.896-2-2v-54c0-1.104.896-2 2-2m-21 0c1.104 0 2 .896 2 2v54c0 1.104-.896 2-2 2s-2-.896-2-2v-54c0-1.104.896-2 2-2m-21 0c1.104 0 2 .896 2 2v54c0 1.104-.896 2-2 2s-2-.896-2-2v-54c0-1.104.896-2 2-2m42-2c-2.206 0-4 1.794-4 4v54c0 2.206 1.794 4 4 4s4-1.794 4-4v-54c0-2.206-1.794-4-4-4zm-21 0c-2.206 0-4 1.794-4 4v54c0 2.206 1.794 4 4 4s4-1.794 4-4v-54c0-2.206-1.794-4-4-4zm-21 0c-2.206 0-4 1.794-4 4v54c0 2.206 1.794 4 4 4s4-1.794 4-4v-54c0-2.206-1.794-4-4-4z"/>
<path fill="#376B86" d="M50 20.999c-1.104 0-2 .896-2 2v54c0 1.104.896 2 2 2s2-.896 2-2v-54c0-1.104-.896-2-2-2zm21 0c-1.104 0-2 .896-2 2v54c0 1.104.896 2 2 2s2-.896 2-2v-54c0-1.104-.896-2-2-2zm-42 0c-1.104 0-2 .896-2 2v54c0 1.104.896 2 2 2s2-.896 2-2v-54c0-1.104-.896-2-2-2z"/>
<g fill="#316078">
<path d="M50 20.999c-.174 0-.339.029-.5.071.86.223 1.5.999 1.5 1.929v54c0 .931-.64 1.706-1.5 1.929.161.042.326.071.5.071 1.104 0 2-.896 2-2v-54c0-1.104-.896-2-2-2zM29 20.999c-.174 0-.339.029-.5.071.861.223 1.5.999 1.5 1.929v54c0 .931-.639 1.706-1.5 1.929.161.042.326.071.5.071 1.104 0 2-.896 2-2v-54c0-1.104-.896-2-2-2zM71 20.999c-.174 0-.339.029-.5.071.86.223 1.5.999 1.5 1.929v54c0 .931-.64 1.706-1.5 1.929.161.042.326.071.5.071 1.104 0 2-.896 2-2v-54c0-1.104-.896-2-2-2z"/>
</g>
<path fill="#3D708B" d="M34 32.999h-10c-1.104 0-2 .896-2 2v12c0 1.104.896 2 2 2h10c1.104 0 2-.896 2-2v-12c0-1.104-.896-2-2-2zm21 22h-10c-1.104 0-2 .896-2 2v12c0 1.104.896 2 2 2h10c1.104 0 2-.896 2-2v-12c0-1.104-.896-2-2-2zm21-22h-10c-1.104 0-2 .896-2 2v12c0 1.104.896 2 2 2h10c1.104 0 2-.896 2-2v-12c0-1.104-.896-2-2-2z"/>
<g fill="#5F889E">
<path d="M73 32.999h2v16h-2zM67 32.999h2v16h-2zM46 54.999h2v16h-2zM25 32.999h2v16h-2zM31 32.999h2v16h-2zM52 54.999h2v16h-2z"/>
</g>
<g fill="#2F5B72">
<path d="M69 32.999h4v16h-4zM27 32.999h4v16h-4zM48 54.999h4v16h-4z"/>
</g>
<g fill="#2A5266">
<path d="M72 32.999h1v16h-1zM30 32.999h1v16h-1zM51 54.999h1v16h-1z"/>
</g>
<path fill="#D4D4D4" d="M34 30.999h-10c-1.104 0-2 .896-2 2v12c0 1.104.896 2 2 2h10c1.104 0 2-.896 2-2v-12c0-1.104-.896-2-2-2zm21 22h-10c-1.104 0-2 .896-2 2v12c0 1.104.896 2 2 2h10c1.104 0 2-.896 2-2v-12c0-1.104-.896-2-2-2zm21-22h-10c-1.104 0-2 .896-2 2v12c0 1.104.896 2 2 2h10c1.104 0 2-.896 2-2v-12c0-1.104-.896-2-2-2z"/>
<path fill="#EDEDED" d="M34 29.999h-10c-1.104 0-2 .896-2 2v11c0 1.104.896 2 2 2h10c1.104 0 2-.896 2-2v-11c0-1.104-.896-2-2-2zm21 22h-10c-1.104 0-2 .896-2 2v11c0 1.104.896 2 2 2h10c1.104 0 2-.896 2-2v-11c0-1.104-.896-2-2-2zm21-22h-10c-1.104 0-2 .896-2 2v11c0 1.104.896 2 2 2h10c1.104 0 2-.896 2-2v-11c0-1.104-.896-2-2-2z"/>
<path fill="#C3C3C3" d="M32 35.999h-6c-.553 0-1 .448-1 1 0 .553.447 1 1 1h6c.553 0 1-.447 1-1 0-.552-.447-1-1-1zm0 4h-6c-.553 0-1 .447-1 1 0 .553.447 1 1 1h6c.553 0 1-.447 1-1 0-.553-.447-1-1-1zm21 18h-6c-.553 0-1 .446-1 1 0 .553.447 1 1 1h6c.553 0 1-.447 1-1 0-.554-.447-1-1-1zm0 4h-6c-.553 0-1 .446-1 1 0 .553.447 1 1 1h6c.553 0 1-.447 1-1 0-.554-.447-1-1-1zm15-24h6c.553 0 1-.447 1-1 0-.552-.447-1-1-1h-6c-.553 0-1 .448-1 1 0 .553.447 1 1 1zm6 2h-6c-.553 0-1 .447-1 1 0 .553.447 1 1 1h6c.553 0 1-.447 1-1 0-.553-.447-1-1-1z"/>
<g fill="#ffffff">
<path d="M34 29.999h-10c-1.104 0-2 .896-2 2v2c0-1.104.896-2 2-2h10c1.104 0 2 .896 2 2v-2c0-1.104-.896-2-2-2zM55 51.999h-10c-1.104 0-2 .896-2 2v2c0-1.104.896-2 2-2h10c1.104 0 2 .896 2 2v-2c0-1.104-.896-2-2-2zM76 29.999h-10c-1.104 0-2 .896-2 2v2c0-1.104.896-2 2-2h10c1.104 0 2 .896 2 2v-2c0-1.104-.896-2-2-2z"/>
</g>
</svg>