<?xml version="1.0" encoding="utf-8"?><!-- Uploaded to: SVG Repo, www.svgrepo.com, Generator: SVG Repo Mixer Tools -->
<svg width="800px" height="800px" viewBox="0 0 100 100" xmlns="http://www.w3.org/2000/svg"><path fill="#EDEDED" d="M50 0c27.614 0 50 22.385 50 49.999s-22.386 50-50 50-50-22.386-50-50 22.386-49.999 50-49.999z"/><path fill="#2B414D" d="M29 95.375c6.387 2.961 13.497 4.624 21 4.624 7.504 0 14.616-1.664 21.004-4.626v-5.366h-41.977s-.019 3.462-.027 5.368z"/><path fill="#324D5B" d="M50 83.01c11.6 0 21.004 3.133 21.004 6.997 0 3.865-9.404 6.998-21.004 6.998s-21.004-3.133-21.004-6.998c0-3.864 9.404-6.997 21.004-6.997z"/><path fill="#EFC75E" d="M72.024 31.13c.002-3.063-.071-5.102-.071-5.102-10.425-.024-29.526-.015-43.945 0 0 0-.065 2.04-.052 5.105-9.981-1.582-20.962 11.629 5.616 29.689 4.272 7.003 10.104 12.491 10.104 12.491-.019.004.448.14 1.125.329.447 2.033 1.516 8.728-1.665 16.259-.091.112-.139.228-.139.347 0 .966 3.135 1.75 7.001 1.75s7.002-.783 7.002-1.749c0-.121-.049-.239-.143-.354-3.223-7.547-2.115-14.251-1.661-16.266.673-.18 1.144-.308 1.152-.316 0 0 5.884-5.537 10.16-12.584 26.418-17.995 15.488-31.148 5.516-29.599zm-44.01 3.935c.128 5.013.5 11.199 1.474 16.078.259 1.3.663 2.605 1.167 3.898-14.489-13.377-10.36-20.58-2.641-19.976zm41.397 19.867c.483-1.257.873-2.525 1.125-3.788.975-4.88 1.331-11.068 1.443-16.082 7.683-.574 11.773 6.587-2.568 19.87z"/><path fill="#ffffff" d="M52.5 52.999h-.5v-10h.5c.828 0 1.5-.672 1.5-1.5s-.672-1.5-1.5-1.5h-5c-.828 0-1.5.672-1.5 1.5s.672 1.5 1.5 1.5h.5v10h-.5c-.828 0-1.5.672-1.5 1.5s.672 1.5 1.5 1.5h5c.828 0 1.5-.672 1.5-1.5s-.672-1.5-1.5-1.5z"/><path fill="#DCB757" d="M44.873 73.992c.473 2.374 1.281 8.765-1.736 15.91-.091.112-.139.228-.139.347 0 .5.844.95 2.191 1.27 1.801-6.069 2.527-10.212.977-17.526l-1.293-.001zM46.676 73.314s-12.021-11.304-14.188-22.171c-1.971-9.876-1.479-25.115-1.479-25.115 7.593-.008 16.477-.014 24.716-.015-9.038-.001-19.191.006-27.716.015 0 0-.491 15.239 1.479 25.115 2.168 10.867 14.188 22.171 14.188 22.171-.065.015 5.957 1.682 6.344 1.681h.02l1.396-.368c-1.901-.491-4.806-1.303-4.76-1.313z"/><path fill="#CFB061" d="M43.675 72.987s3.163.8 6.325.8c3.163 0 6.325-.8 6.325-.8.932 0 1.687.717 1.687 1.6 0 .884-1.598 1.601-2.529 1.601 0 0-2.732.8-5.469.8-2.745 0-5.496-.8-5.496-.8-.932 0-2.529-.717-2.529-1.601-.001-.883.754-1.6 1.686-1.6z"/><path fill="#C7A13E" d="M50 22.999c12.153 0 22.006 1.341 22.006 2.994 0 1.654-9.853 2.995-22.006 2.995s-22.006-1.341-22.006-2.995c0-1.653 9.853-2.994 22.006-2.994z"/></svg>