<?xml version="1.0" ?><!-- Uploaded to: SVG Repo, www.svgrepo.com, Generator: SVG Repo Mixer Tools -->
<svg width="800px" height="800px" viewBox="0 0 48 48" id="Computer" xmlns="http://www.w3.org/2000/svg"><defs><style>.cls-1{fill:#4c5665;}.cls-2{fill:#4c6681;}.cls-3{fill:#d0d7df;}.cls-4{fill:#49aaee;}.cls-5{fill:#a4b0c0;}.cls-6{fill:#768ba0;}</style></defs><title/><rect class="cls-1" height="32" rx="2" ry="2" width="48" y="1"/><rect class="cls-2" height="32" rx="2" ry="2" width="48"/><path class="cls-3" d="M46,36H2a2,2,0,0,1-2-2V29H48v5A2,2,0,0,1,46,36Z"/><rect class="cls-4" height="23" width="42" x="3" y="3"/><polygon class="cls-5" points="32 44 16 44 18 36 30 36 32 44"/><polygon class="cls-6" points="30 36 18 36 17.5 38 30.5 38 30 36"/><rect class="cls-6" height="4" rx="1" ry="1" width="23" x="12" y="44"/></svg>