<?xml version="1.0" ?>
<!-- Uploaded to: SVG Repo, www.svgrepo.com, Generator: SVG Repo Mixer Tools -->
<svg width="800px" height="800px" viewBox="0 0 48 48" xmlns="http://www.w3.org/2000/svg">
<defs>
<style>.cls-1{fill:#b06550;}.cls-2{fill:#4c5665;}.cls-3{fill:#c8785c;}.cls-4{fill:#face53;}.cls-5{fill:#fed049;}.cls-6{fill:#49aaee;}.cls-7{fill:#a4b0c0;}.cls-8{fill:#d0d7df;}.cls-9{fill:#9c5946;}</style>
</defs>
<title/>
<g id="School">
<rect class="cls-1" height="2" rx="1" ry="1" width="44" x="2" y="7"/>
<rect class="cls-1" height="2" rx="1" ry="1" width="44" x="2" y="34"/>
<rect class="cls-1" height="2" rx="1" ry="1" width="44" x="2" y="21"/>
<rect class="cls-2" height="2" rx="1" ry="1" width="48" y="43"/>
<rect class="cls-3" height="3" rx="1" ry="1" width="48" y="42"/>
<path class="cls-3" d="M6.5,3h0A1.5,1.5,0,0,1,8,4.5V42a0,0,0,0,1,0,0H5a0,0,0,0,1,0,0V4.5A1.5,1.5,0,0,1,6.5,3Z"/>
<path class="cls-3" d="M41.5,3h0A1.5,1.5,0,0,1,43,4.5V42a0,0,0,0,1,0,0H40a0,0,0,0,1,0,0V4.5A1.5,1.5,0,0,1,41.5,3Z"/>
<path class="cls-3" d="M41.5,3h0A1.5,1.5,0,0,1,43,4.5V42a0,0,0,0,1,0,0H40a0,0,0,0,1,0,0V4.5A1.5,1.5,0,0,1,41.5,3Z"/>
<rect class="cls-4" height="8" rx="2" ry="2" width="4" x="12" y="4"/>
<rect class="cls-5" height="8" rx="2" ry="2" width="4" x="12" y="4"/>
<rect class="cls-6" height="8" rx="2" ry="2" width="4" x="18" y="4"/>
<rect class="cls-7" height="8" rx="2" ry="2" width="4" x="25" y="18"/>
<rect class="cls-5" height="8" rx="2" ry="2" width="4" x="19" y="18"/>
<rect class="cls-6" height="8" rx="2" ry="2" width="4" x="31" y="18"/>
<rect class="cls-5" height="8" rx="2" ry="2" width="4" x="19" y="31"/>
<rect class="cls-6" height="8" rx="2" ry="2" width="4" x="13" y="31"/>
<rect class="cls-8" height="8" rx="2" ry="2" width="4" x="25" y="31"/>
<rect class="cls-9" height="2" width="1" x="8" y="7"/>
<rect class="cls-9" height="2" width="1" x="8" y="21"/>
<rect class="cls-9" height="2" width="1" x="8" y="34"/>
</g>
</svg>