<?xml version="1.0" ?>
<!-- Uploaded to: SVG Repo, www.svgrepo.com, Generator: SVG Repo Mixer Tools -->
<svg width="800px" height="800px" viewBox="0 0 48 48" xmlns="http://www.w3.org/2000/svg">
<defs>
<style>.cls-1{fill:#4c5665;}.cls-2{fill:#bec3c7;}.cls-3{fill:#d0d7df;}.cls-4{fill:#a4b0c0;}.cls-5{fill:#768ba0;}</style>
</defs>
<title/>
<g data-name="Science" id="Science-2">
<path class="cls-1" d="M19,12a20.874,20.874,0,0,0-9,2.03v3.4A17.751,17.751,0,0,1,19,15,17.981,17.981,0,0,1,32.4,45h3.82a19.875,19.875,0,0,0,2.3-4.29A20.627,20.627,0,0,0,40,33,21.023,21.023,0,0,0,19,12Z"/>
<rect class="cls-1" height="3" rx="1" ry="1" width="34" x="7" y="45"/>
<rect class="cls-2" height="23" rx="2" ry="2" width="9" x="10" y="6"/>
<rect class="cls-3" height="23" rx="2" ry="2" width="9" x="10" y="6"/>
<path class="cls-4" d="M19,8V27a2.006,2.006,0,0,1-2,2H12a2.006,2.006,0,0,1-2-2h4a2.006,2.006,0,0,0,2-2V6h1A2.006,2.006,0,0,1,19,8Z"/>
<rect class="cls-4" height="4" width="3" x="14" y="2"/>
<polyline class="cls-3" points="12 2 14 2 14 6 12 6"/>
<rect class="cls-5" height="2" rx="1" ry="1" width="9" x="10"/>
<rect class="cls-2" height="2" rx="1" ry="1" width="15" x="7" y="38"/>
<rect class="cls-3" height="2" rx="1" ry="1" width="15" x="7" y="38"/>
<rect class="cls-5" height="5" width="3" x="13" y="40"/>
<path class="cls-1" d="M12,29h5a0,0,0,0,1,0,0v1a1,1,0,0,1-1,1H13a1,1,0,0,1-1-1V29A0,0,0,0,1,12,29Z"/>
</g>
</svg>