<?xml version="1.0" encoding="utf-8"?><!-- Uploaded to: SVG Repo, www.svgrepo.com, Generator: SVG Repo Mixer Tools -->
<svg width="800px" height="800px" viewBox="0 0 100 100" xmlns="http://www.w3.org/2000/svg"><path fill="#EFC75E" d="M50 0c27.613 0 50 22.386 50 50s-22.387 50-50 50c-27.614 0-50-22.386-50-50s22.386-50 50-50z"/><path fill="#E2574C" d="M23.594 32.664c9.478-9.633 18.871-5.424 26.396 1.448 7.521-6.872 16.841-11.158 26.394-1.448 7.445 7.565 7.485 19.724 0 27.25-12.557 11.481-19.12 17.474-22.552 20.601-2.146 1.958-5.395 1.964-7.551.017-3.457-3.123-10.063-9.115-22.688-20.617-7.485-7.527-7.446-19.686.001-27.251z"/><path fill="#ffffff" d="M15.667 73.668c3-.332 4.667-2 5-5 .333 3 2 4.668 5 5-3 .334-4.667 2-5 5-.333-2.998-2-4.666-5-5zM74 71.002c-.332 2.998-2 4.666-5 5 3 .332 4.668 2 5 4.998.334-2.998 2.001-4.666 5.001-4.998-3-.334-4.667-2.002-5.001-5zm-34-61.001c-.332 2.999-2 4.667-5 5 3 .333 4.668 2 5 4.999.334-2.999 2.001-4.667 5.001-4.999-3-.333-4.667-2.001-5.001-5z"/><path fill="#FCF4DF" d="M67 33.003c5.4-.601 8.4-3.603 9.001-9 .601 5.398 3.601 8.4 9.001 9-5.4.599-8.4 3.6-9.001 8.999-.601-5.398-3.601-8.399-9.001-8.999z"/><path fill="#E66E65" d="M25.001 45.688c0-6.444 5.241-11.686 11.685-11.686.727 0 1.313.588 1.313 1.313s-.588 1.313-1.313 1.313c-4.994 0-9.058 4.064-9.058 9.06 0 .726-.588 1.313-1.313 1.313-.725-.001-1.314-.588-1.314-1.313z"/><path fill="#CB4E44" d="M48.453 78.609c-3.457-3.123-10.062-9.115-22.688-20.617l-.054-.059-1.119-1.02c-4.93-4.959-6.574-11.921-5.01-18.261-3.022 7.047-1.714 15.504 4.01 21.261 12.625 11.503 19.23 17.494 22.689 20.617 2.156 1.947 5.404 1.94 7.551-.017l1.802-1.644c-2.137 1.653-5.142 1.582-7.181-.26z"/><path fill="#F9DDDB" d="M78.783 35.637c-.689-1.048-1.487-2.046-2.399-2.973-.979-.996-1.956-1.836-2.929-2.55-1.51 1.604-3.652 2.578-6.455 2.89 5.4.599 8.4 3.6 9.001 8.999.306-2.744 1.237-4.862 2.782-6.366z"/></svg>