<?xml version="1.0" encoding="utf-8"?><!-- Uploaded to: SVG Repo, www.svgrepo.com, Generator: SVG Repo Mixer Tools -->
<svg width="800px" height="800px" viewBox="0 0 100 100" xmlns="http://www.w3.org/2000/svg"><path fill="#EFC75E" d="M50 0c27.614 0 50 22.385 50 49.999s-22.386 50-50 50-50-22.386-50-50 22.386-49.999 50-49.999z"/><path fill="#FDF0DE" d="M27 21.998h46c2.762 0 5 2.238 5 5v46c0 2.762-2.238 5-5 5h-46c-2.762 0-5-2.238-5-5v-46c0-2.762 2.238-5 5-5z"/><path fill="#324D5B" d="M78 72.998v-9h-56v9c0 2.762 2.238 5 5 5h46c2.762 0 5-2.238 5-5z"/><path fill="#FEF5E8" d="M22 58.998h56v5h-56z"/><path fill="#E49ADF" d="M44 45.998h4v18h-4v-18z"/><path fill="#E5C45A" d="M48 45.998h4v18h-4v-18z"/><path fill="#3DB39E" d="M52 45.998h4v18h-4v-18z"/><path fill="#2B414D" d="M33 68.998h34c1.104 0 2 .896 2 2s-.896 2-2 2h-34c-1.104 0-2-.896-2-2s.896-2 2-2zM50 33.998c6.075 0 11 4.925 11 11s-4.925 11-11 11-11-4.925-11-11 4.925-11 11-11z"/><path fill="#475F6C" d="M50 36.998c4.418 0 8 3.582 8 8s-3.582 8-8 8-8-3.582-8-8 3.582-8 8-8z"/><path fill="#2B414D" d="M50 39.998c2.762 0 5 2.238 5 5s-2.238 5-5 5-5-2.238-5-5 2.238-5 5-5z"/><path fill="#1F2F38" d="M50 42.998c1.104 0 2 .896 2 2s-.896 2-2 2-2-.896-2-2 .896-2 2-2z"/><path fill="#535F66" d="M49 42.998c.553 0 1 .447 1 1s-.447 1-1 1-1-.447-1-1 .447-1 1-1z"/><path fill="#E2574C" d="M31.5 37.998c1.381 0 2.5 1.119 2.5 2.5s-1.119 2.5-2.5 2.5-2.5-1.119-2.5-2.5 1.119-2.5 2.5-2.5z"/><path fill="#3F5E6D" d="M67 30.998h3c1.104 0 2 .896 2 2v3c0 1.104-.896 2-2 2h-3c-1.104 0-2-.896-2-2v-3c0-1.104.896-2 2-2z"/><path fill="#D2BB9A" d="M30 30.998h3c1.104 0 2 .896 2 2s-.896 2-2 2h-3c-1.104 0-2-.896-2-2s.896-2 2-2z"/><path fill="#F4D9B2" d="M73 21.998h-46c-2.762 0-5 2.238-5 5v4c0-2.762 2.238-5 5-5h46c2.762 0 5 2.238 5 5v-4c0-2.762-2.238-5-5-5z"/><path fill="#ECB8E9" d="M44 58.998h4v5h-4z"/><path fill="#EDD68C" d="M48 58.998h4v5h-4z"/><path fill="#78CABB" d="M52 58.998h4v5h-4z"/></svg>