<?xml version="1.0" encoding="utf-8"?><!-- Uploaded to: SVG Repo, www.svgrepo.com, Generator: SVG Repo Mixer Tools -->
<svg width="800px" height="800px" viewBox="0 0 100 100" xmlns="http://www.w3.org/2000/svg"><path fill="#91D8F0" d="M50.013 0c-27.614 0-50 22.386-50 50s22.386 50.001 50 50.001 50-22.387 50-50.001c.001-27.615-22.386-50-50-50z"/><path fill="#E2574C" d="M35.013 97.707c3.207 1.008 6.551 1.701 10 2.043v-99.501c-3.449.343-6.793 1.036-10 2.043v95.415z"/><path fill="#E4E7E7" d="M55.014.249c-1.645-.163-3.312-.25-5-.25-1.688 0-3.355.086-5 .25v99.501c1.645.164 3.312.25 5 .25 1.688 0 3.356-.086 5-.25v-99.501z"/><path fill="#324D5B" d="M55.014.256v99.487c3.447-.343 6.795-1.028 10-2.036v-95.415c-3.205-1.007-6.553-1.692-10-2.036z"/><path fill="#F5F5F5" d="M77.014 49.998c0-7.501-3.061-14.285-8-19.179v-6.819c0-1.133-.93-2.001-2-2.001h-1c-.553 0-1 .448-1 1v4.55c-4.291-2.873-9.449-4.55-15-4.55s-10.709 1.677-15 4.55v-4.55c0-.552-.448-1-1-1h-1c-1.071 0-2 .868-2 2.001v6.819c-4.939 4.894-8 11.678-8 19.179 0 7.502 3.061 14.287 8 19.18v6.821c0 1.179.921 1.999 2 1.999h1c.552 0 1-.447 1-1v-4.549c4.291 2.872 9.449 4.549 15 4.549s10.709-1.677 15-4.549v4.549c0 .553.447 1 1 1h1c1.078 0 2-.82 2-1.999v-6.821c4.939-4.893 8-11.678 8-19.18z"/><path fill="#CCD0D2" d="M50.013 27c12.704 0 23 10.297 23 23s-10.296 23-23 23c-12.703 0-23-10.299-23-23.001s10.298-22.999 23-22.999z"/><path fill="#DE6E65" d="M54.309 44.275l-15.987 15.989c-.394.393-.394 1.033 0 1.428.395.393 1.033.393 1.428 0l15.987-15.987c.395-.394.395-1.033 0-1.429-.395-.393-1.034-.393-1.428-.001z"/><path fill="#AEB2B4" d="M50.01 54.008c-2.212 0-4.004-1.791-4.004-4.003 0-.851.269-1.636.722-2.284-1.039.724-1.722 1.923-1.722 3.284 0 2.212 1.792 4.003 4.004 4.003 1.361 0 2.56-.683 3.283-1.721-.648.452-1.434.721-2.283.721z"/><path fill="#324D5B" d="M50.013 49h16c.553 0 1 .447 1 .999s-.447 1-1 1h-16c-.553 0-1-.448-1-1s.447-.999 1-.999zM43.199 40.538l8.247 8.247c.73.73.73 1.916 0 2.646s-1.916.73-2.646 0l-8.247-8.248c-.731-.73-.731-1.916 0-2.646.73-.73 1.914-.73 2.646.001z"/><path fill="#E4E7E7" d="M50.01 46c2.21 0 4.003 1.793 4.003 4.005s-1.793 4.003-4.003 4.003c-2.212 0-4.004-1.791-4.004-4.003s1.792-4.005 4.004-4.005z"/><path fill="#324D5B" d="M50.013 48c1.104 0 2 .895 2 1.999 0 1.105-.896 2.001-2 2.001s-2-.896-2-2.001c0-1.104.896-1.999 2-1.999z"/><path fill="#D96860" d="M46.568 52.018l-1 1c.347.592.836 1.081 1.427 1.428l1-1c-.591-.347-1.08-.837-1.427-1.428z"/><path fill="#B7BBBD" d="M50.013 27c-6.605 0-12.557 2.789-16.751 7.249 4.115-3.873 9.655-6.249 15.751-6.249 12.704 0 23 10.297 23 23 0 6.097-2.377 11.636-6.25 15.753 4.461-4.195 7.25-10.147 7.25-16.753.001-12.703-10.296-23-23-23z"/></svg>