<svg xmlns="http://www.w3.org/2000/svg" width="1em" height="1em" viewBox="0 0 32 32"><g fill="currentColor"><path d="M9.5 12.83a1.5 1.5 0 1 0 0-3.001a1.5 1.5 0 0 0 0 3"/><path d="m3 13.99l-1.27-.97a1.795 1.795 0 0 1-.022-2.873l1.775-1.495A8.485 8.485 0 0 1 11.48 3a8.47 8.47 0 0 1 8.188 6.262l9.616 2.52A2.295 2.295 0 0 1 31 14c0 7.09-5.269 12.948-12.105 13.873l-.125.627h1.78c.73 0 1.34.52 1.48 1.21c.03.15-.09.29-.25.29H9.25c-.16 0-.28-.14-.24-.29c.14-.69.74-1.21 1.47-1.21h1.8l.246-1.23C6.988 25.404 3 20.168 3 14zM15.52 28.5h1.75l.101-.505Q17.186 28 17 28a14 14 0 0 1-3.053-.334l-.167.834zM11.48 5A6.48 6.48 0 0 0 5 11.48V14c0 6.628 5.372 12 12 12a11.94 11.94 0 0 0 6.253-1.756a9 9 0 0 1-1.984.256h-.009c-3.333 0-6.906-1.65-8.774-4.449a.5.5 0 0 1 .832-.555c1.655 2.48 4.89 4.003 7.937 4.004a8.14 8.14 0 0 0 4.954-1.806A11.95 11.95 0 0 0 29 14a.294.294 0 0 0-.224-.283l-9.66-2.532a1.96 1.96 0 0 1-1.369-1.364l-.002-.007l-.002-.007A6.47 6.47 0 0 0 11.48 5"/></g></svg>