<svg xmlns="http://www.w3.org/2000/svg" width="1em" height="1em" viewBox="0 0 20 20"><g fill="currentColor"><path fill-rule="evenodd" d="M10.085 3.145L10 3.173l-.084-.027a2.222 2.222 0 0 0-2.898 2.382l.114.935a2.89 2.89 0 0 0 5.736 0l.115-.935a2.224 2.224 0 0 0-2.898-2.383m-1.01.9c.178-.023.359-.005.53.05l.395.13l.396-.13a1.222 1.222 0 0 1 1.594 1.311l-.115.935a1.89 1.89 0 0 1-3.75 0l-.115-.935a1.22 1.22 0 0 1 1.065-1.362" clip-rule="evenodd"/><path fill-rule="evenodd" d="M11.87 8H7.904a3 3 0 0 0-1.5.403q-2.392 1.382-3.54 3.109c-.245.37-.494.708-.727 1.023c-1.015 1.375-1.718 2.327-.469 3.705C3.203 17.935 6.456 19 9.648 19s6.373-.628 8.437-2.76c1.528-1.578.893-2.282-.095-3.377c-.347-.384-.737-.816-1.092-1.351q-1.192-1.793-3.556-3.126A3 3 0 0 0 11.87 8M6.904 9.268a2 2 0 0 1 1-.268h3.966a2 2 0 0 1 .981.258c1.446.814 2.513 1.752 3.214 2.807c.166.25.346.492.545.736c.023.028.106.123.22.252c.341.39.961 1.098 1.069 1.273c.194.316.15.514-.533 1.219C15.73 17.236 13.11 18 9.648 18c-2.996 0-5.946-1.005-7.239-2.431c-.38-.42-.455-.666-.384-.943c.056-.22.206-.5.493-.912c.036-.053.155-.216.303-.418c.255-.35.596-.818.74-1.03l.137-.2c.672-1.013 1.736-1.948 3.206-2.798" clip-rule="evenodd"/><path d="M6.536 1.186a.5.5 0 1 1 .928-.372l1 2.5a.5.5 0 0 1-.928.372zm6-.372a.5.5 0 1 1 .928.372l-1 2.5a.5.5 0 1 1-.928-.372zM9.5 11.5a.5.5 0 0 1 1 0v4a.5.5 0 0 1-1 0zm-2.416-.277a.5.5 0 1 1 .832.554l-2 3a.5.5 0 0 1-.832-.554zm5.832 0a.5.5 0 1 0-.832.554l2 3a.5.5 0 0 0 .832-.554z"/></g></svg>