<svg xmlns="http://www.w3.org/2000/svg" width="1em" height="1em" viewBox="0 0 512 512"><path fill="currentColor" d="M425.39 200.035A184.3 184.3 0 0 0 290.812 91.289l26.756-42.809l-27.136-16.96l-35.305 56.488A184.05 184.05 0 0 0 86.61 200.035a71.978 71.978 0 0 0 0 143.93a184.071 184.071 0 0 0 338.78 0a71.978 71.978 0 0 0 0-143.93m27.152 99.975a39.77 39.77 0 0 1-27.76 11.961l-20.725.394l-8.113 19.074a152.066 152.066 0 0 1-279.887 0l-8.114-19.074l-20.725-.394a39.978 39.978 0 0 1 0-79.942l20.725-.394l8.114-19.074a152.067 152.067 0 0 1 279.887 0l8.113 19.074l20.725.394a39.974 39.974 0 0 1 27.76 67.981"/><path fill="currentColor" d="M168 232h40v40h-40zm136 0h40v40h-40zm-48 152a80 80 0 0 0 80-80H176a80 80 0 0 0 80 80"/></svg>