<svg xmlns="http://www.w3.org/2000/svg" width="1em" height="1em" viewBox="0 0 24 24"><g fill="none" stroke="#000000" stroke-width="1.5"><rect width="6" height="6" x="16" y="13" rx="3"/><path stroke-linecap="round" d="M11 16v-1.5c0-1.886 0-2.828-.586-3.414S8.886 10.5 7 10.5h-.6c-.371 0-.557 0-.714.012a4 4 0 0 0-3.674 3.674C2 14.343 2 14.53 2 14.9c0 .093 0 .14.003.178a1 1 0 0 0 .919.919A3 3 0 0 0 3.1 16zm0 0h5"/><path stroke-linecap="round" d="M9.5 16a3 3 0 1 1-6 0" opacity="0.5"/><path stroke-linecap="round" d="M12 5h.528c1.203 0 1.804 0 2.287.299c.484.298.753.836 1.29 1.912L19 13"/><path stroke-linecap="round" d="m18.143 11l.681-.502c.263-.194.395-.29.486-.417a1 1 0 0 0 .143-.282c.047-.149.047-.312.047-.638c0-.618 0-.926-.132-1.157a1 1 0 0 0-.372-.372c-.23-.132-.54-.132-1.157-.132H16.5" opacity="0.5"/></g></svg>
