<svg xmlns="http://www.w3.org/2000/svg" width="1em" height="1em" viewBox="0 0 24 24"><path fill="currentColor" d="M19 18q.425 0 .713-.288T20 17t-.288-.712T19 16t-.712.288T18 17t.288.713T19 18m0 2q-1.25 0-2.125-.875T16 17t.875-2.125T19 14t2.125.875T22 17t-.875 2.125T19 20M5 18q.425 0 .713-.288T6 17t-.288-.712T5 16t-.712.288T4 17t.288.713T5 18m0 2q-1.25 0-2.125-.875T2 17t.875-2.125T5 14q.95 0 1.725.55t1.1 1.45H13.1q.275-1.725 1.413-2.988T17.3 11.25L15.9 5H12V3h3.9q.7 0 1.25.425t.7 1.125l1.9 8.45H19q-1.65 0-2.825 1.175T15 17v1H7.825q-.325.9-1.1 1.45T5 20"/></svg>