<svg width="24" height="24" viewBox="0 0 24 24" xmlns="http://www.w3.org/2000/svg"><path d="M16.38 4.38a5.89 5.89 0 0 0-1.5 3.48 3.55 3.55 0 0 1-.99 2.43l-.65.61.92.8.55-.6a3.55 3.55 0 0 1 2.43-.99 5.89 5.89 0 0 0 3.48-1.49 3 3 0 1 0-4.24-4.24Zm-.57 7.75-.52.56 4.81 4.17.02.02a3 3 0 1 1-4.24 4.24l-.02-.02-4.06-4.68-4.52 4.84h-.01a2.5 2.5 0 0 1-3.54-3.53h.01l4.52-4.23H6.58c-.73 0-1.43-.29-1.94-.8L1.8 9.87a2.75 2.75 0 0 1 0-3.9l3.17-3.16a2.75 2.75 0 0 1 3.89 0l2.82 2.82c.52.52.8 1.22.8 1.95v1.96l.38-.35c.31-.3.48-.79.52-1.42.1-1.62.9-3.42 1.93-4.45a4.5 4.5 0 0 1 6.36 6.36 7.37 7.37 0 0 1-4.45 1.93c-.63.04-1.13.2-1.42.52ZM9.8 14.12 4.79 18.8a1 1 0 0 0 1.4 1.41l4.62-4.93-1.01-1.16Zm-2-10.25a1.25 1.25 0 0 0-1.76 0L2.87 7.04a1.25 1.25 0 0 0 0 1.77l2.83 2.82c.23.24.55.37.88.37H8.7c.8 0 1.55.35 2.08.95l6.18 7.13a1.5 1.5 0 0 0 2.13-2.12l-7.13-6.2A2.75 2.75 0 0 1 11 9.7V7.58c0-.33-.13-.65-.37-.88L7.8 3.87Zm-.27 1.6a.75.75 0 0 0-1.06 1.06l2 2a.75.75 0 0 0 1.06-1.06l-2-2Zm-3.06 2c.3-.3.77-.3 1.06 0l2 2a.75.75 0 1 1-1.06 1.06l-2-2a.75.75 0 0 1 0-1.06Zm13.03-.72a.75.75 0 0 0-1.5 0C16 7.99 17 9 18.25 9a.75.75 0 0 0 0-1.5.75.75 0 0 1-.75-.75Z"/></svg>