<svg xmlns="http://www.w3.org/2000/svg" width="1em" height="1em" viewBox="0 0 24 24"><path fill="none" stroke="currentColor" stroke-linecap="round" stroke-linejoin="round" stroke-width="1.5" d="m21.936 12.812l-.961-4.626c-.318-1.526-.476-2.289-1.027-2.737C19.396 5 18.617 5 17.058 5H6.942c-1.559 0-2.338 0-2.89.449c-.55.448-.71 1.211-1.027 2.737l-.96 4.626c-.196.938.018 1.947 1.145 2.16c.667.126 1.377-.015 2.053.065c1.509.177 2.861.982 3.7 2.201C9.7 18.591 10.406 19 12 19s2.3-.41 3.036-1.762c.84-1.22 2.192-2.024 3.701-2.201c.677-.08 1.386.061 2.053-.065c1.127-.213 1.34-1.222 1.146-2.16M16 16l-2.109-8M8 16l2.109-8M3.5 8h17" color="currentColor"/></svg>