<?xml version="1.0" encoding="UTF-8"?>
<svg id="Layer_1" data-name="Layer 1" xmlns="http://www.w3.org/2000/svg" viewBox="0 0 80 80">
  <defs>
    <style>
      .cls-1 {
        fill: none;
        stroke: #5ca5ff;
        stroke-miterlimit: 10;
        stroke-width: 4px;
      }

      .cls-2 {
        fill: #3b86f1;
      }
    </style>
  </defs>
  <path class="cls-2" d="M16.45,13.08h47.1c1.86,0,3.36,1.51,3.36,3.36v16.82c0,1.86-1.51,3.36-3.36,3.36h-23.55c-1.86,0-3.36,1.51-3.36,3.36v23.55c0,1.86-1.51,3.36-3.36,3.36h-16.82c-1.86,0-3.36-1.51-3.36-3.36V16.45c0-1.86,1.51-3.36,3.36-3.36"/>
  <g>
    <path class="cls-1" d="M13.08,26.54h6.73"/>
    <path class="cls-1" d="M13.08,40h10.09"/>
    <path class="cls-1" d="M13.08,53.46h6.73"/>
    <path class="cls-1" d="M26.54,13.08v6.73"/>
    <path class="cls-1" d="M40,13.08v10.09"/>
    <path class="cls-1" d="M53.46,13.08v6.73"/>
  </g>
</svg>