<?xml version="1.0" encoding="UTF-8"?>
<svg id="Layer_1" data-name="Layer 1" xmlns="http://www.w3.org/2000/svg" viewBox="0 0 80 80">
  <defs>
    <style>
      .cls-1 {
        fill: none;
        stroke: #576b7f;
        stroke-linecap: round;
        stroke-linejoin: round;
        stroke-width: 4px;
      }
    </style>
  </defs>
  <path class="cls-1" d="M34.81,16.19c1.32-5.44,9.06-5.44,10.38,0,.69,2.87,3.58,4.63,6.45,3.94.54-.13,1.05-.34,1.52-.63,4.78-2.91,10.26,2.56,7.35,7.35-1.54,2.52-.74,5.81,1.78,7.34.47.29.98.5,1.52.63,5.44,1.32,5.44,9.06,0,10.38-2.87.69-4.63,3.58-3.94,6.45.13.54.34,1.05.63,1.52,2.91,4.78-2.56,10.26-7.35,7.35-2.52-1.54-5.81-.74-7.34,1.78-.29.47-.5.98-.63,1.52-1.32,5.44-9.06,5.44-10.38,0-.69-2.87-3.58-4.63-6.45-3.94-.54.13-1.05.34-1.52.63-4.78,2.91-10.26-2.56-7.35-7.35,1.54-2.52.74-5.81-1.78-7.34-.47-.29-.98-.5-1.52-.63-5.44-1.32-5.44-9.06,0-10.38,2.87-.69,4.63-3.58,3.94-6.45-.13-.54-.34-1.05-.63-1.52-2.91-4.78,2.56-10.26,7.35-7.35,3.1,1.88,7.12.22,7.97-3.3Z"/>
  <path class="cls-1" d="M30.7,40c0,5.14,4.16,9.3,9.3,9.3s9.3-4.16,9.3-9.3-4.16-9.3-9.3-9.3-9.3,4.16-9.3,9.3"/>
</svg>