<?xml version="1.0" encoding="UTF-8"?>
<svg id="Layer_1" data-name="Layer 1" xmlns="http://www.w3.org/2000/svg" viewBox="0 0 80 80">
  <defs>
    <style>
      .cls-1 {
        fill: none;
      }

      .cls-2 {
        fill: #3b86f1;
      }

      .cls-3 {
        fill: #5ca5ff;
      }
    </style>
  </defs>
  <path class="cls-1" d="M27.78,37.12c0,2.74,2.38,4.47,6.17,6.17"/>
  <path class="cls-2" d="M15.44,41.66v12.33c0,5.11,8.28,9.25,18.5,9.25s18.5-4.14,18.5-9.25v-12.33"/>
  <path class="cls-3" d="M15.44,40.21c0,5.11,8.28,9.25,18.5,9.25s18.5-4.14,18.5-9.25-8.28-9.25-18.5-9.25-18.5,4.14-18.5,9.25Z"/>
  <path class="cls-2" d="M15.68,25.33v12.33c0,5.11,8.28,9.25,18.5,9.25s18.5-4.14,18.5-9.25v-12.33"/>
  <path class="cls-3" d="M15.68,25.33c0,5.11,8.28,9.25,18.5,9.25s18.5-4.14,18.5-9.25-8.28-9.25-18.5-9.25-18.5,4.14-18.5,9.25Z"/>
  <path class="cls-2" d="M33.08,48.09v12.33c0,5.11,8.28,9.25,18.5,9.25s18.5-4.14,18.5-9.25v-12.33"/>
  <path class="cls-3" d="M33.08,48.09c0,5.11,8.28,9.25,18.5,9.25s18.5-4.14,18.5-9.25-8.28-9.25-18.5-9.25-18.5,4.14-18.5,9.25Z"/>
</svg>